0, 0, Header, 1, 6, 480
1, 0, Start_track
1, 0, Title_t, "Drumset\000"
1, 0, Time_signature, 4, 2, 24, 8
1, 0, Key_signature, 0, "major"
1, 0, Tempo, 535714
1, 0, Control_c, 9, 121, 0
1, 0, Program_c, 9, 0
1, 0, Control_c, 9, 7, 100
1, 0, Control_c, 9, 10, 64
1, 0, Control_c, 9, 91, 0
1, 0, Control_c, 9, 93, 0
1, 0, MIDI_port, 0
1, 0, Note_on_c, 9, 38, 80
1, 0, Note_on_c, 9, 49, 80
1, 0, Note_on_c, 9, 36, 80
1, 239, Note_on_c, 9, 38, 0
1, 239, Note_on_c, 9, 49, 0
1, 239, Note_on_c, 9, 36, 0
1, 240, Note_on_c, 9, 38, 80
1, 479, Note_on_c, 9, 38, 0
1, 480, Note_on_c, 9, 38, 80
1, 480, Note_on_c, 9, 46, 80
1, 719, Note_on_c, 9, 38, 0
1, 719, Note_on_c, 9, 46, 0
1, 720, Note_on_c, 9, 36, 80
1, 959, Note_on_c, 9, 36, 0
1, 960, Note_on_c, 9, 38, 80
1, 960, Note_on_c, 9, 46, 80
1, 1199, Note_on_c, 9, 38, 0
1, 1199, Note_on_c, 9, 46, 0
1, 1200, Note_on_c, 9, 38, 80
1, 1439, Note_on_c, 9, 38, 0
1, 1440, Note_on_c, 9, 46, 80
1, 1440, Note_on_c, 9, 36, 80
1, 1679, Note_on_c, 9, 46, 0
1, 1679, Note_on_c, 9, 36, 0
1, 1680, Note_on_c, 9, 38, 80
1, 1919, Note_on_c, 9, 38, 0
1, 1920, Note_on_c, 9, 46, 80
1, 1920, Note_on_c, 9, 36, 80
1, 2159, Note_on_c, 9, 46, 0
1, 2159, Note_on_c, 9, 36, 0
1, 2160, Note_on_c, 9, 38, 80
1, 2399, Note_on_c, 9, 38, 0
1, 2400, Note_on_c, 9, 38, 80
1, 2400, Note_on_c, 9, 46, 80
1, 2639, Note_on_c, 9, 38, 0
1, 2639, Note_on_c, 9, 46, 0
1, 2640, Note_on_c, 9, 36, 80
1, 2879, Note_on_c, 9, 36, 0
1, 2880, Note_on_c, 9, 46, 80
1, 3119, Note_on_c, 9, 46, 0
1, 3120, Note_on_c, 9, 38, 80
1, 3359, Note_on_c, 9, 38, 0
1, 3360, Note_on_c, 9, 46, 80
1, 3360, Note_on_c, 9, 36, 80
1, 3599, Note_on_c, 9, 46, 0
1, 3599, Note_on_c, 9, 36, 0
1, 3600, Note_on_c, 9, 36, 80
1, 3839, Note_on_c, 9, 36, 0
1, 3840, Note_on_c, 9, 49, 80
1, 3840, Note_on_c, 9, 36, 80
1, 4079, Note_on_c, 9, 49, 0
1, 4079, Note_on_c, 9, 36, 0
1, 4080, Note_on_c, 9, 38, 80
1, 4319, Note_on_c, 9, 38, 0
1, 4320, Note_on_c, 9, 38, 80
1, 4320, Note_on_c, 9, 46, 80
1, 4559, Note_on_c, 9, 38, 0
1, 4559, Note_on_c, 9, 46, 0
1, 4560, Note_on_c, 9, 36, 80
1, 4799, Note_on_c, 9, 36, 0
1, 4800, Note_on_c, 9, 38, 80
1, 4800, Note_on_c, 9, 46, 80
1, 5039, Note_on_c, 9, 38, 0
1, 5039, Note_on_c, 9, 46, 0
1, 5040, Note_on_c, 9, 38, 80
1, 5279, Note_on_c, 9, 38, 0
1, 5280, Note_on_c, 9, 46, 80
1, 5280, Note_on_c, 9, 36, 80
1, 5519, Note_on_c, 9, 46, 0
1, 5519, Note_on_c, 9, 36, 0
1, 5520, Note_on_c, 9, 38, 80
1, 5759, Note_on_c, 9, 38, 0
1, 5760, Note_on_c, 9, 46, 80
1, 5760, Note_on_c, 9, 36, 80
1, 5999, Note_on_c, 9, 46, 0
1, 5999, Note_on_c, 9, 36, 0
1, 6000, Note_on_c, 9, 38, 80
1, 6239, Note_on_c, 9, 38, 0
1, 6240, Note_on_c, 9, 38, 80
1, 6240, Note_on_c, 9, 46, 80
1, 6479, Note_on_c, 9, 38, 0
1, 6479, Note_on_c, 9, 46, 0
1, 6480, Note_on_c, 9, 36, 80
1, 6719, Note_on_c, 9, 36, 0
1, 6720, Note_on_c, 9, 46, 80
1, 6959, Note_on_c, 9, 46, 0
1, 6960, Note_on_c, 9, 38, 80
1, 7199, Note_on_c, 9, 38, 0
1, 7200, Note_on_c, 9, 46, 80
1, 7200, Note_on_c, 9, 45, 80
1, 7319, Note_on_c, 9, 45, 0
1, 7320, Note_on_c, 9, 45, 80
1, 7439, Note_on_c, 9, 46, 0
1, 7439, Note_on_c, 9, 45, 0
1, 7440, Note_on_c, 9, 43, 80
1, 7559, Note_on_c, 9, 43, 0
1, 7560, Note_on_c, 9, 43, 80
1, 7679, Note_on_c, 9, 43, 0
1, 7680, Note_on_c, 9, 49, 80
1, 7680, Note_on_c, 9, 36, 80
1, 7919, Note_on_c, 9, 49, 0
1, 7919, Note_on_c, 9, 36, 0
1, 7920, Note_on_c, 9, 38, 80
1, 8159, Note_on_c, 9, 38, 0
1, 8160, Note_on_c, 9, 38, 80
1, 8160, Note_on_c, 9, 46, 80
1, 8399, Note_on_c, 9, 38, 0
1, 8399, Note_on_c, 9, 46, 0
1, 8400, Note_on_c, 9, 36, 80
1, 8639, Note_on_c, 9, 36, 0
1, 8640, Note_on_c, 9, 38, 80
1, 8640, Note_on_c, 9, 46, 80
1, 8879, Note_on_c, 9, 38, 0
1, 8879, Note_on_c, 9, 46, 0
1, 8880, Note_on_c, 9, 38, 80
1, 9119, Note_on_c, 9, 38, 0
1, 9120, Note_on_c, 9, 46, 80
1, 9120, Note_on_c, 9, 36, 80
1, 9359, Note_on_c, 9, 46, 0
1, 9359, Note_on_c, 9, 36, 0
1, 9360, Note_on_c, 9, 38, 80
1, 9599, Note_on_c, 9, 38, 0
1, 9600, Note_on_c, 9, 46, 80
1, 9600, Note_on_c, 9, 36, 80
1, 9839, Note_on_c, 9, 46, 0
1, 9839, Note_on_c, 9, 36, 0
1, 9840, Note_on_c, 9, 38, 80
1, 10079, Note_on_c, 9, 38, 0
1, 10080, Note_on_c, 9, 38, 80
1, 10080, Note_on_c, 9, 46, 80
1, 10319, Note_on_c, 9, 38, 0
1, 10319, Note_on_c, 9, 46, 0
1, 10320, Note_on_c, 9, 36, 80
1, 10559, Note_on_c, 9, 36, 0
1, 10560, Note_on_c, 9, 46, 80
1, 10799, Note_on_c, 9, 46, 0
1, 10800, Note_on_c, 9, 38, 80
1, 11039, Note_on_c, 9, 38, 0
1, 11040, Note_on_c, 9, 46, 80
1, 11040, Note_on_c, 9, 36, 80
1, 11279, Note_on_c, 9, 46, 0
1, 11279, Note_on_c, 9, 36, 0
1, 11280, Note_on_c, 9, 36, 80
1, 11519, Note_on_c, 9, 36, 0
1, 11520, Note_on_c, 9, 49, 80
1, 11520, Note_on_c, 9, 36, 80
1, 11759, Note_on_c, 9, 49, 0
1, 11759, Note_on_c, 9, 36, 0
1, 11760, Note_on_c, 9, 38, 80
1, 11999, Note_on_c, 9, 38, 0
1, 12000, Note_on_c, 9, 38, 80
1, 12000, Note_on_c, 9, 46, 80
1, 12239, Note_on_c, 9, 38, 0
1, 12239, Note_on_c, 9, 46, 0
1, 12240, Note_on_c, 9, 36, 80
1, 12479, Note_on_c, 9, 36, 0
1, 12480, Note_on_c, 9, 38, 80
1, 12480, Note_on_c, 9, 46, 80
1, 12719, Note_on_c, 9, 38, 0
1, 12719, Note_on_c, 9, 46, 0
1, 12720, Note_on_c, 9, 38, 80
1, 12959, Note_on_c, 9, 38, 0
1, 12960, Note_on_c, 9, 46, 80
1, 12960, Note_on_c, 9, 36, 80
1, 13199, Note_on_c, 9, 46, 0
1, 13199, Note_on_c, 9, 36, 0
1, 13200, Note_on_c, 9, 38, 80
1, 13439, Note_on_c, 9, 38, 0
1, 13440, Note_on_c, 9, 46, 80
1, 13440, Note_on_c, 9, 36, 80
1, 13679, Note_on_c, 9, 46, 0
1, 13679, Note_on_c, 9, 36, 0
1, 13680, Note_on_c, 9, 38, 80
1, 13919, Note_on_c, 9, 38, 0
1, 13920, Note_on_c, 9, 38, 80
1, 13920, Note_on_c, 9, 46, 80
1, 14159, Note_on_c, 9, 38, 0
1, 14159, Note_on_c, 9, 46, 0
1, 14160, Note_on_c, 9, 36, 80
1, 14399, Note_on_c, 9, 36, 0
1, 14400, Note_on_c, 9, 46, 80
1, 14639, Note_on_c, 9, 46, 0
1, 14640, Note_on_c, 9, 38, 80
1, 14879, Note_on_c, 9, 38, 0
1, 14880, Note_on_c, 9, 46, 80
1, 14880, Note_on_c, 9, 45, 80
1, 14999, Note_on_c, 9, 45, 0
1, 15000, Note_on_c, 9, 45, 80
1, 15119, Note_on_c, 9, 46, 0
1, 15119, Note_on_c, 9, 45, 0
1, 15120, Note_on_c, 9, 43, 80
1, 15239, Note_on_c, 9, 43, 0
1, 15240, Note_on_c, 9, 43, 80
1, 15359, Note_on_c, 9, 43, 0
1, 15360, Note_on_c, 9, 49, 80
1, 15360, Note_on_c, 9, 36, 80
1, 15599, Note_on_c, 9, 49, 0
1, 15599, Note_on_c, 9, 36, 0
1, 15600, Note_on_c, 9, 38, 80
1, 15839, Note_on_c, 9, 38, 0
1, 15840, Note_on_c, 9, 38, 80
1, 15840, Note_on_c, 9, 46, 80
1, 16079, Note_on_c, 9, 38, 0
1, 16079, Note_on_c, 9, 46, 0
1, 16080, Note_on_c, 9, 36, 80
1, 16319, Note_on_c, 9, 36, 0
1, 16320, Note_on_c, 9, 38, 80
1, 16320, Note_on_c, 9, 46, 80
1, 16559, Note_on_c, 9, 38, 0
1, 16559, Note_on_c, 9, 46, 0
1, 16560, Note_on_c, 9, 38, 80
1, 16799, Note_on_c, 9, 38, 0
1, 16800, Note_on_c, 9, 46, 80
1, 16800, Note_on_c, 9, 36, 80
1, 17039, Note_on_c, 9, 46, 0
1, 17039, Note_on_c, 9, 36, 0
1, 17040, Note_on_c, 9, 38, 80
1, 17279, Note_on_c, 9, 38, 0
1, 17280, Note_on_c, 9, 46, 80
1, 17280, Note_on_c, 9, 36, 80
1, 17519, Note_on_c, 9, 46, 0
1, 17519, Note_on_c, 9, 36, 0
1, 17520, Note_on_c, 9, 38, 80
1, 17759, Note_on_c, 9, 38, 0
1, 17760, Note_on_c, 9, 38, 80
1, 17760, Note_on_c, 9, 46, 80
1, 17999, Note_on_c, 9, 38, 0
1, 17999, Note_on_c, 9, 46, 0
1, 18000, Note_on_c, 9, 36, 80
1, 18239, Note_on_c, 9, 36, 0
1, 18240, Note_on_c, 9, 46, 80
1, 18479, Note_on_c, 9, 46, 0
1, 18480, Note_on_c, 9, 38, 80
1, 18719, Note_on_c, 9, 38, 0
1, 18720, Note_on_c, 9, 46, 80
1, 18720, Note_on_c, 9, 36, 80
1, 18959, Note_on_c, 9, 46, 0
1, 18959, Note_on_c, 9, 36, 0
1, 18960, Note_on_c, 9, 36, 80
1, 19199, Note_on_c, 9, 36, 0
1, 19200, Note_on_c, 9, 49, 80
1, 19200, Note_on_c, 9, 36, 80
1, 19439, Note_on_c, 9, 49, 0
1, 19439, Note_on_c, 9, 36, 0
1, 19440, Note_on_c, 9, 38, 80
1, 19679, Note_on_c, 9, 38, 0
1, 19680, Note_on_c, 9, 38, 80
1, 19680, Note_on_c, 9, 46, 80
1, 19919, Note_on_c, 9, 38, 0
1, 19919, Note_on_c, 9, 46, 0
1, 19920, Note_on_c, 9, 36, 80
1, 20159, Note_on_c, 9, 36, 0
1, 20160, Note_on_c, 9, 38, 80
1, 20160, Note_on_c, 9, 46, 80
1, 20399, Note_on_c, 9, 38, 0
1, 20399, Note_on_c, 9, 46, 0
1, 20400, Note_on_c, 9, 38, 80
1, 20639, Note_on_c, 9, 38, 0
1, 20640, Note_on_c, 9, 46, 80
1, 20640, Note_on_c, 9, 36, 80
1, 20879, Note_on_c, 9, 46, 0
1, 20879, Note_on_c, 9, 36, 0
1, 20880, Note_on_c, 9, 38, 80
1, 21119, Note_on_c, 9, 38, 0
1, 21120, Note_on_c, 9, 46, 80
1, 21120, Note_on_c, 9, 36, 80
1, 21359, Note_on_c, 9, 46, 0
1, 21359, Note_on_c, 9, 36, 0
1, 21360, Note_on_c, 9, 38, 80
1, 21599, Note_on_c, 9, 38, 0
1, 21600, Note_on_c, 9, 38, 80
1, 21600, Note_on_c, 9, 46, 80
1, 21839, Note_on_c, 9, 38, 0
1, 21839, Note_on_c, 9, 46, 0
1, 21840, Note_on_c, 9, 36, 80
1, 22079, Note_on_c, 9, 36, 0
1, 22080, Note_on_c, 9, 46, 80
1, 22319, Note_on_c, 9, 46, 0
1, 22320, Note_on_c, 9, 38, 80
1, 22559, Note_on_c, 9, 38, 0
1, 22560, Note_on_c, 9, 46, 80
1, 22560, Note_on_c, 9, 45, 80
1, 22679, Note_on_c, 9, 45, 0
1, 22680, Note_on_c, 9, 45, 80
1, 22799, Note_on_c, 9, 46, 0
1, 22799, Note_on_c, 9, 45, 0
1, 22800, Note_on_c, 9, 43, 80
1, 22919, Note_on_c, 9, 43, 0
1, 22920, Note_on_c, 9, 43, 80
1, 23039, Note_on_c, 9, 43, 0
1, 23040, Note_on_c, 9, 49, 80
1, 23040, Note_on_c, 9, 36, 80
1, 23279, Note_on_c, 9, 49, 0
1, 23279, Note_on_c, 9, 36, 0
1, 23280, Note_on_c, 9, 38, 80
1, 23519, Note_on_c, 9, 38, 0
1, 23520, Note_on_c, 9, 38, 80
1, 23520, Note_on_c, 9, 46, 80
1, 23759, Note_on_c, 9, 38, 0
1, 23759, Note_on_c, 9, 46, 0
1, 23760, Note_on_c, 9, 36, 80
1, 23999, Note_on_c, 9, 36, 0
1, 24000, Note_on_c, 9, 38, 80
1, 24000, Note_on_c, 9, 46, 80
1, 24239, Note_on_c, 9, 38, 0
1, 24239, Note_on_c, 9, 46, 0
1, 24240, Note_on_c, 9, 38, 80
1, 24479, Note_on_c, 9, 38, 0
1, 24480, Note_on_c, 9, 46, 80
1, 24480, Note_on_c, 9, 36, 80
1, 24719, Note_on_c, 9, 46, 0
1, 24719, Note_on_c, 9, 36, 0
1, 24720, Note_on_c, 9, 38, 80
1, 24959, Note_on_c, 9, 38, 0
1, 24960, Note_on_c, 9, 46, 80
1, 24960, Note_on_c, 9, 36, 80
1, 25199, Note_on_c, 9, 46, 0
1, 25199, Note_on_c, 9, 36, 0
1, 25200, Note_on_c, 9, 38, 80
1, 25439, Note_on_c, 9, 38, 0
1, 25440, Note_on_c, 9, 38, 80
1, 25440, Note_on_c, 9, 46, 80
1, 25679, Note_on_c, 9, 38, 0
1, 25679, Note_on_c, 9, 46, 0
1, 25680, Note_on_c, 9, 36, 80
1, 25919, Note_on_c, 9, 36, 0
1, 25920, Note_on_c, 9, 46, 80
1, 26159, Note_on_c, 9, 46, 0
1, 26160, Note_on_c, 9, 38, 80
1, 26399, Note_on_c, 9, 38, 0
1, 26400, Note_on_c, 9, 46, 80
1, 26400, Note_on_c, 9, 36, 80
1, 26639, Note_on_c, 9, 46, 0
1, 26639, Note_on_c, 9, 36, 0
1, 26640, Note_on_c, 9, 36, 80
1, 26879, Note_on_c, 9, 36, 0
1, 26880, Note_on_c, 9, 49, 80
1, 26880, Note_on_c, 9, 36, 80
1, 27119, Note_on_c, 9, 49, 0
1, 27119, Note_on_c, 9, 36, 0
1, 27120, Note_on_c, 9, 38, 80
1, 27359, Note_on_c, 9, 38, 0
1, 27360, Note_on_c, 9, 38, 80
1, 27360, Note_on_c, 9, 46, 80
1, 27599, Note_on_c, 9, 38, 0
1, 27599, Note_on_c, 9, 46, 0
1, 27600, Note_on_c, 9, 36, 80
1, 27839, Note_on_c, 9, 36, 0
1, 27840, Note_on_c, 9, 38, 80
1, 27840, Note_on_c, 9, 46, 80
1, 28079, Note_on_c, 9, 38, 0
1, 28079, Note_on_c, 9, 46, 0
1, 28080, Note_on_c, 9, 38, 80
1, 28319, Note_on_c, 9, 38, 0
1, 28320, Note_on_c, 9, 46, 80
1, 28320, Note_on_c, 9, 36, 80
1, 28559, Note_on_c, 9, 46, 0
1, 28559, Note_on_c, 9, 36, 0
1, 28560, Note_on_c, 9, 38, 80
1, 28799, Note_on_c, 9, 38, 0
1, 28800, Note_on_c, 9, 46, 80
1, 28800, Note_on_c, 9, 36, 80
1, 29039, Note_on_c, 9, 46, 0
1, 29039, Note_on_c, 9, 36, 0
1, 29040, Note_on_c, 9, 38, 80
1, 29279, Note_on_c, 9, 38, 0
1, 29280, Note_on_c, 9, 38, 80
1, 29280, Note_on_c, 9, 46, 80
1, 29519, Note_on_c, 9, 38, 0
1, 29519, Note_on_c, 9, 46, 0
1, 29520, Note_on_c, 9, 36, 80
1, 29759, Note_on_c, 9, 36, 0
1, 29760, Note_on_c, 9, 46, 80
1, 29999, Note_on_c, 9, 46, 0
1, 30000, Note_on_c, 9, 38, 80
1, 30239, Note_on_c, 9, 38, 0
1, 30240, Note_on_c, 9, 46, 80
1, 30240, Note_on_c, 9, 45, 80
1, 30359, Note_on_c, 9, 45, 0
1, 30360, Note_on_c, 9, 45, 80
1, 30479, Note_on_c, 9, 46, 0
1, 30479, Note_on_c, 9, 45, 0
1, 30480, Note_on_c, 9, 43, 80
1, 30599, Note_on_c, 9, 43, 0
1, 30600, Note_on_c, 9, 43, 80
1, 30719, Note_on_c, 9, 43, 0
1, 30720, Note_on_c, 9, 49, 80
1, 30720, Note_on_c, 9, 36, 80
1, 30959, Note_on_c, 9, 49, 0
1, 30959, Note_on_c, 9, 36, 0
1, 30960, Note_on_c, 9, 38, 80
1, 31199, Note_on_c, 9, 38, 0
1, 31200, Note_on_c, 9, 38, 80
1, 31200, Note_on_c, 9, 46, 80
1, 31439, Note_on_c, 9, 38, 0
1, 31439, Note_on_c, 9, 46, 0
1, 31440, Note_on_c, 9, 36, 80
1, 31679, Note_on_c, 9, 36, 0
1, 31680, Note_on_c, 9, 38, 80
1, 31680, Note_on_c, 9, 46, 80
1, 31919, Note_on_c, 9, 38, 0
1, 31919, Note_on_c, 9, 46, 0
1, 31920, Note_on_c, 9, 38, 80
1, 32159, Note_on_c, 9, 38, 0
1, 32160, Note_on_c, 9, 46, 80
1, 32160, Note_on_c, 9, 36, 80
1, 32399, Note_on_c, 9, 46, 0
1, 32399, Note_on_c, 9, 36, 0
1, 32400, Note_on_c, 9, 38, 80
1, 32639, Note_on_c, 9, 38, 0
1, 32640, Note_on_c, 9, 46, 80
1, 32640, Note_on_c, 9, 36, 80
1, 32879, Note_on_c, 9, 46, 0
1, 32879, Note_on_c, 9, 36, 0
1, 32880, Note_on_c, 9, 38, 80
1, 33119, Note_on_c, 9, 38, 0
1, 33120, Note_on_c, 9, 38, 80
1, 33120, Note_on_c, 9, 46, 80
1, 33359, Note_on_c, 9, 38, 0
1, 33359, Note_on_c, 9, 46, 0
1, 33360, Note_on_c, 9, 36, 80
1, 33599, Note_on_c, 9, 36, 0
1, 33600, Note_on_c, 9, 46, 80
1, 33839, Note_on_c, 9, 46, 0
1, 33840, Note_on_c, 9, 38, 80
1, 34079, Note_on_c, 9, 38, 0
1, 34080, Note_on_c, 9, 46, 80
1, 34080, Note_on_c, 9, 36, 80
1, 34319, Note_on_c, 9, 46, 0
1, 34319, Note_on_c, 9, 36, 0
1, 34320, Note_on_c, 9, 36, 80
1, 34559, Note_on_c, 9, 36, 0
1, 34560, Note_on_c, 9, 49, 80
1, 34560, Note_on_c, 9, 36, 80
1, 34799, Note_on_c, 9, 49, 0
1, 34799, Note_on_c, 9, 36, 0
1, 34800, Note_on_c, 9, 38, 80
1, 35039, Note_on_c, 9, 38, 0
1, 35040, Note_on_c, 9, 38, 80
1, 35040, Note_on_c, 9, 46, 80
1, 35279, Note_on_c, 9, 38, 0
1, 35279, Note_on_c, 9, 46, 0
1, 35280, Note_on_c, 9, 36, 80
1, 35519, Note_on_c, 9, 36, 0
1, 35520, Note_on_c, 9, 38, 80
1, 35520, Note_on_c, 9, 46, 80
1, 35759, Note_on_c, 9, 38, 0
1, 35759, Note_on_c, 9, 46, 0
1, 35760, Note_on_c, 9, 38, 80
1, 35999, Note_on_c, 9, 38, 0
1, 36000, Note_on_c, 9, 46, 80
1, 36000, Note_on_c, 9, 36, 80
1, 36239, Note_on_c, 9, 46, 0
1, 36239, Note_on_c, 9, 36, 0
1, 36240, Note_on_c, 9, 38, 80
1, 36479, Note_on_c, 9, 38, 0
1, 36480, Note_on_c, 9, 46, 80
1, 36480, Note_on_c, 9, 36, 80
1, 36719, Note_on_c, 9, 46, 0
1, 36719, Note_on_c, 9, 36, 0
1, 36720, Note_on_c, 9, 38, 80
1, 36959, Note_on_c, 9, 38, 0
1, 36960, Note_on_c, 9, 38, 80
1, 36960, Note_on_c, 9, 46, 80
1, 37199, Note_on_c, 9, 38, 0
1, 37199, Note_on_c, 9, 46, 0
1, 37200, Note_on_c, 9, 36, 80
1, 37439, Note_on_c, 9, 36, 0
1, 37440, Note_on_c, 9, 46, 80
1, 37679, Note_on_c, 9, 46, 0
1, 37680, Note_on_c, 9, 38, 80
1, 37919, Note_on_c, 9, 38, 0
1, 37920, Note_on_c, 9, 46, 80
1, 37920, Note_on_c, 9, 45, 80
1, 38039, Note_on_c, 9, 45, 0
1, 38040, Note_on_c, 9, 45, 80
1, 38159, Note_on_c, 9, 46, 0
1, 38159, Note_on_c, 9, 45, 0
1, 38160, Note_on_c, 9, 43, 80
1, 38279, Note_on_c, 9, 43, 0
1, 38280, Note_on_c, 9, 43, 80
1, 38399, Note_on_c, 9, 43, 0
1, 38400, Note_on_c, 9, 49, 80
1, 38400, Note_on_c, 9, 36, 80
1, 38639, Note_on_c, 9, 49, 0
1, 38639, Note_on_c, 9, 36, 0
1, 38640, Note_on_c, 9, 38, 80
1, 38879, Note_on_c, 9, 38, 0
1, 38880, Note_on_c, 9, 38, 80
1, 38880, Note_on_c, 9, 46, 80
1, 39119, Note_on_c, 9, 38, 0
1, 39119, Note_on_c, 9, 46, 0
1, 39120, Note_on_c, 9, 36, 80
1, 39359, Note_on_c, 9, 36, 0
1, 39360, Note_on_c, 9, 38, 80
1, 39360, Note_on_c, 9, 46, 80
1, 39599, Note_on_c, 9, 38, 0
1, 39599, Note_on_c, 9, 46, 0
1, 39600, Note_on_c, 9, 38, 80
1, 39839, Note_on_c, 9, 38, 0
1, 39840, Note_on_c, 9, 46, 80
1, 39840, Note_on_c, 9, 36, 80
1, 40079, Note_on_c, 9, 46, 0
1, 40079, Note_on_c, 9, 36, 0
1, 40080, Note_on_c, 9, 38, 80
1, 40319, Note_on_c, 9, 38, 0
1, 40320, Note_on_c, 9, 46, 80
1, 40320, Note_on_c, 9, 36, 80
1, 40559, Note_on_c, 9, 46, 0
1, 40559, Note_on_c, 9, 36, 0
1, 40560, Note_on_c, 9, 38, 80
1, 40799, Note_on_c, 9, 38, 0
1, 40800, Note_on_c, 9, 38, 80
1, 40800, Note_on_c, 9, 46, 80
1, 41039, Note_on_c, 9, 38, 0
1, 41039, Note_on_c, 9, 46, 0
1, 41040, Note_on_c, 9, 36, 80
1, 41279, Note_on_c, 9, 36, 0
1, 41280, Note_on_c, 9, 46, 80
1, 41519, Note_on_c, 9, 46, 0
1, 41520, Note_on_c, 9, 38, 80
1, 41759, Note_on_c, 9, 38, 0
1, 41760, Note_on_c, 9, 46, 80
1, 41760, Note_on_c, 9, 36, 80
1, 41999, Note_on_c, 9, 46, 0
1, 41999, Note_on_c, 9, 36, 0
1, 42000, Note_on_c, 9, 36, 80
1, 42239, Note_on_c, 9, 36, 0
1, 42240, Note_on_c, 9, 49, 80
1, 42240, Note_on_c, 9, 36, 80
1, 42479, Note_on_c, 9, 49, 0
1, 42479, Note_on_c, 9, 36, 0
1, 42480, Note_on_c, 9, 38, 80
1, 42719, Note_on_c, 9, 38, 0
1, 42720, Note_on_c, 9, 38, 80
1, 42720, Note_on_c, 9, 46, 80
1, 42959, Note_on_c, 9, 38, 0
1, 42959, Note_on_c, 9, 46, 0
1, 42960, Note_on_c, 9, 36, 80
1, 43199, Note_on_c, 9, 36, 0
1, 43200, Note_on_c, 9, 38, 80
1, 43200, Note_on_c, 9, 46, 80
1, 43439, Note_on_c, 9, 38, 0
1, 43439, Note_on_c, 9, 46, 0
1, 43440, Note_on_c, 9, 38, 80
1, 43679, Note_on_c, 9, 38, 0
1, 43680, Note_on_c, 9, 46, 80
1, 43680, Note_on_c, 9, 36, 80
1, 43919, Note_on_c, 9, 46, 0
1, 43919, Note_on_c, 9, 36, 0
1, 43920, Note_on_c, 9, 38, 80
1, 44159, Note_on_c, 9, 38, 0
1, 44160, Note_on_c, 9, 46, 80
1, 44160, Note_on_c, 9, 36, 80
1, 44399, Note_on_c, 9, 46, 0
1, 44399, Note_on_c, 9, 36, 0
1, 44400, Note_on_c, 9, 38, 80
1, 44639, Note_on_c, 9, 38, 0
1, 44640, Note_on_c, 9, 38, 80
1, 44640, Note_on_c, 9, 46, 80
1, 44879, Note_on_c, 9, 38, 0
1, 44879, Note_on_c, 9, 46, 0
1, 44880, Note_on_c, 9, 36, 80
1, 45119, Note_on_c, 9, 36, 0
1, 45120, Note_on_c, 9, 46, 80
1, 45359, Note_on_c, 9, 46, 0
1, 45360, Note_on_c, 9, 38, 80
1, 45599, Note_on_c, 9, 38, 0
1, 45600, Note_on_c, 9, 46, 80
1, 45600, Note_on_c, 9, 45, 80
1, 45719, Note_on_c, 9, 45, 0
1, 45720, Note_on_c, 9, 45, 80
1, 45839, Note_on_c, 9, 46, 0
1, 45839, Note_on_c, 9, 45, 0
1, 45840, Note_on_c, 9, 43, 80
1, 45959, Note_on_c, 9, 43, 0
1, 45960, Note_on_c, 9, 43, 80
1, 46079, Note_on_c, 9, 43, 0
1, 46080, Note_on_c, 9, 52, 80
1, 46080, Note_on_c, 9, 36, 80
1, 46319, Note_on_c, 9, 36, 0
1, 46559, Note_on_c, 9, 52, 0
1, 46560, Note_on_c, 9, 38, 80
1, 46560, Note_on_c, 9, 59, 80
1, 46800, Note_on_c, 9, 36, 80
1, 47039, Note_on_c, 9, 38, 0
1, 47039, Note_on_c, 9, 59, 0
1, 47039, Note_on_c, 9, 36, 0
1, 47040, Note_on_c, 9, 38, 80
1, 47040, Note_on_c, 9, 59, 80
1, 47519, Note_on_c, 9, 38, 0
1, 47519, Note_on_c, 9, 59, 0
1, 47520, Note_on_c, 9, 59, 80
1, 47520, Note_on_c, 9, 36, 80
1, 47759, Note_on_c, 9, 36, 0
1, 47999, Note_on_c, 9, 59, 0
1, 48000, Note_on_c, 9, 59, 80
1, 48000, Note_on_c, 9, 36, 80
1, 48239, Note_on_c, 9, 36, 0
1, 48479, Note_on_c, 9, 59, 0
1, 48480, Note_on_c, 9, 38, 80
1, 48480, Note_on_c, 9, 59, 80
1, 48720, Note_on_c, 9, 36, 80
1, 48959, Note_on_c, 9, 38, 0
1, 48959, Note_on_c, 9, 59, 0
1, 48959, Note_on_c, 9, 36, 0
1, 48960, Note_on_c, 9, 38, 80
1, 48960, Note_on_c, 9, 59, 80
1, 49439, Note_on_c, 9, 38, 0
1, 49439, Note_on_c, 9, 59, 0
1, 49440, Note_on_c, 9, 59, 80
1, 49440, Note_on_c, 9, 36, 80
1, 49679, Note_on_c, 9, 36, 0
1, 49919, Note_on_c, 9, 59, 0
1, 49920, Note_on_c, 9, 59, 80
1, 49920, Note_on_c, 9, 36, 80
1, 50159, Note_on_c, 9, 36, 0
1, 50399, Note_on_c, 9, 59, 0
1, 50400, Note_on_c, 9, 38, 80
1, 50400, Note_on_c, 9, 59, 80
1, 50640, Note_on_c, 9, 36, 80
1, 50879, Note_on_c, 9, 38, 0
1, 50879, Note_on_c, 9, 59, 0
1, 50879, Note_on_c, 9, 36, 0
1, 50880, Note_on_c, 9, 38, 80
1, 50880, Note_on_c, 9, 59, 80
1, 51359, Note_on_c, 9, 38, 0
1, 51359, Note_on_c, 9, 59, 0
1, 51360, Note_on_c, 9, 59, 80
1, 51360, Note_on_c, 9, 36, 80
1, 51599, Note_on_c, 9, 36, 0
1, 51600, Note_on_c, 9, 36, 80
1, 51839, Note_on_c, 9, 59, 0
1, 51839, Note_on_c, 9, 36, 0
1, 51840, Note_on_c, 9, 59, 80
1, 51840, Note_on_c, 9, 36, 80
1, 52079, Note_on_c, 9, 36, 0
1, 52319, Note_on_c, 9, 59, 0
1, 52320, Note_on_c, 9, 38, 80
1, 52320, Note_on_c, 9, 59, 80
1, 52560, Note_on_c, 9, 36, 80
1, 52799, Note_on_c, 9, 38, 0
1, 52799, Note_on_c, 9, 59, 0
1, 52799, Note_on_c, 9, 36, 0
1, 52800, Note_on_c, 9, 38, 80
1, 52800, Note_on_c, 9, 59, 80
1, 53279, Note_on_c, 9, 38, 0
1, 53279, Note_on_c, 9, 59, 0
1, 53280, Note_on_c, 9, 59, 80
1, 53280, Note_on_c, 9, 47, 80
1, 53519, Note_on_c, 9, 47, 0
1, 53759, Note_on_c, 9, 59, 0
1, 53760, Note_on_c, 9, 52, 80
1, 53760, Note_on_c, 9, 36, 80
1, 53999, Note_on_c, 9, 36, 0
1, 54239, Note_on_c, 9, 52, 0
1, 54240, Note_on_c, 9, 38, 80
1, 54240, Note_on_c, 9, 59, 80
1, 54480, Note_on_c, 9, 36, 80
1, 54719, Note_on_c, 9, 38, 0
1, 54719, Note_on_c, 9, 59, 0
1, 54719, Note_on_c, 9, 36, 0
1, 54720, Note_on_c, 9, 38, 80
1, 54720, Note_on_c, 9, 59, 80
1, 55199, Note_on_c, 9, 38, 0
1, 55199, Note_on_c, 9, 59, 0
1, 55200, Note_on_c, 9, 59, 80
1, 55200, Note_on_c, 9, 36, 80
1, 55439, Note_on_c, 9, 36, 0
1, 55679, Note_on_c, 9, 59, 0
1, 55680, Note_on_c, 9, 59, 80
1, 55680, Note_on_c, 9, 36, 80
1, 55919, Note_on_c, 9, 36, 0
1, 56159, Note_on_c, 9, 59, 0
1, 56160, Note_on_c, 9, 38, 80
1, 56160, Note_on_c, 9, 59, 80
1, 56400, Note_on_c, 9, 36, 80
1, 56639, Note_on_c, 9, 38, 0
1, 56639, Note_on_c, 9, 59, 0
1, 56639, Note_on_c, 9, 36, 0
1, 56640, Note_on_c, 9, 38, 80
1, 56640, Note_on_c, 9, 59, 80
1, 57119, Note_on_c, 9, 38, 0
1, 57119, Note_on_c, 9, 59, 0
1, 57120, Note_on_c, 9, 59, 80
1, 57120, Note_on_c, 9, 36, 80
1, 57359, Note_on_c, 9, 36, 0
1, 57599, Note_on_c, 9, 59, 0
1, 57600, Note_on_c, 9, 59, 80
1, 57600, Note_on_c, 9, 36, 80
1, 57839, Note_on_c, 9, 36, 0
1, 58079, Note_on_c, 9, 59, 0
1, 58080, Note_on_c, 9, 38, 80
1, 58080, Note_on_c, 9, 59, 80
1, 58320, Note_on_c, 9, 36, 80
1, 58559, Note_on_c, 9, 38, 0
1, 58559, Note_on_c, 9, 59, 0
1, 58559, Note_on_c, 9, 36, 0
1, 58560, Note_on_c, 9, 38, 80
1, 58560, Note_on_c, 9, 59, 80
1, 59039, Note_on_c, 9, 38, 0
1, 59039, Note_on_c, 9, 59, 0
1, 59040, Note_on_c, 9, 59, 80
1, 59040, Note_on_c, 9, 36, 80
1, 59279, Note_on_c, 9, 36, 0
1, 59280, Note_on_c, 9, 36, 80
1, 59519, Note_on_c, 9, 59, 0
1, 59519, Note_on_c, 9, 36, 0
1, 59520, Note_on_c, 9, 59, 80
1, 59520, Note_on_c, 9, 36, 80
1, 59759, Note_on_c, 9, 36, 0
1, 59999, Note_on_c, 9, 59, 0
1, 60000, Note_on_c, 9, 38, 80
1, 60000, Note_on_c, 9, 59, 80
1, 60240, Note_on_c, 9, 36, 80
1, 60479, Note_on_c, 9, 38, 0
1, 60479, Note_on_c, 9, 59, 0
1, 60479, Note_on_c, 9, 36, 0
1, 60480, Note_on_c, 9, 38, 80
1, 60480, Note_on_c, 9, 59, 80
1, 60959, Note_on_c, 9, 38, 0
1, 60959, Note_on_c, 9, 59, 0
1, 60960, Note_on_c, 9, 59, 80
1, 60960, Note_on_c, 9, 47, 80
1, 61199, Note_on_c, 9, 47, 0
1, 61439, Note_on_c, 9, 59, 0
1, 61440, Note_on_c, 9, 52, 80
1, 61440, Note_on_c, 9, 36, 80
1, 61679, Note_on_c, 9, 52, 0
1, 61679, Note_on_c, 9, 36, 0
1, 61680, Note_on_c, 9, 38, 80
1, 61919, Note_on_c, 9, 38, 0
1, 61920, Note_on_c, 9, 38, 80
1, 61920, Note_on_c, 9, 59, 80
1, 62160, Note_on_c, 9, 36, 80
1, 62399, Note_on_c, 9, 38, 0
1, 62399, Note_on_c, 9, 59, 0
1, 62399, Note_on_c, 9, 36, 0
1, 62400, Note_on_c, 9, 38, 80
1, 62400, Note_on_c, 9, 59, 80
1, 62639, Note_on_c, 9, 38, 0
1, 62639, Note_on_c, 9, 59, 0
1, 62640, Note_on_c, 9, 38, 80
1, 62879, Note_on_c, 9, 38, 0
1, 62880, Note_on_c, 9, 59, 80
1, 62880, Note_on_c, 9, 36, 80
1, 63119, Note_on_c, 9, 59, 0
1, 63119, Note_on_c, 9, 36, 0
1, 63120, Note_on_c, 9, 38, 80
1, 63359, Note_on_c, 9, 38, 0
1, 63360, Note_on_c, 9, 59, 80
1, 63360, Note_on_c, 9, 36, 80
1, 63599, Note_on_c, 9, 59, 0
1, 63599, Note_on_c, 9, 36, 0
1, 63600, Note_on_c, 9, 38, 80
1, 63839, Note_on_c, 9, 38, 0
1, 63840, Note_on_c, 9, 38, 80
1, 63840, Note_on_c, 9, 59, 80
1, 64080, Note_on_c, 9, 36, 80
1, 64319, Note_on_c, 9, 38, 0
1, 64319, Note_on_c, 9, 59, 0
1, 64319, Note_on_c, 9, 36, 0
1, 64320, Note_on_c, 9, 38, 80
1, 64320, Note_on_c, 9, 59, 80
1, 64559, Note_on_c, 9, 38, 0
1, 64559, Note_on_c, 9, 59, 0
1, 64560, Note_on_c, 9, 38, 80
1, 64799, Note_on_c, 9, 38, 0
1, 64800, Note_on_c, 9, 59, 80
1, 64800, Note_on_c, 9, 36, 80
1, 65039, Note_on_c, 9, 59, 0
1, 65039, Note_on_c, 9, 36, 0
1, 65040, Note_on_c, 9, 38, 80
1, 65279, Note_on_c, 9, 38, 0
1, 65280, Note_on_c, 9, 59, 80
1, 65280, Note_on_c, 9, 36, 80
1, 65519, Note_on_c, 9, 59, 0
1, 65519, Note_on_c, 9, 36, 0
1, 65520, Note_on_c, 9, 38, 80
1, 65759, Note_on_c, 9, 38, 0
1, 65760, Note_on_c, 9, 38, 80
1, 65760, Note_on_c, 9, 59, 80
1, 66000, Note_on_c, 9, 36, 80
1, 66239, Note_on_c, 9, 38, 0
1, 66239, Note_on_c, 9, 59, 0
1, 66239, Note_on_c, 9, 36, 0
1, 66240, Note_on_c, 9, 38, 80
1, 66240, Note_on_c, 9, 59, 80
1, 66479, Note_on_c, 9, 38, 0
1, 66479, Note_on_c, 9, 59, 0
1, 66480, Note_on_c, 9, 38, 80
1, 66719, Note_on_c, 9, 38, 0
1, 66720, Note_on_c, 9, 59, 80
1, 66720, Note_on_c, 9, 36, 80
1, 66959, Note_on_c, 9, 59, 0
1, 66959, Note_on_c, 9, 36, 0
1, 66960, Note_on_c, 9, 38, 80
1, 66960, Note_on_c, 9, 36, 80
1, 67199, Note_on_c, 9, 38, 0
1, 67199, Note_on_c, 9, 36, 0
1, 67200, Note_on_c, 9, 59, 80
1, 67200, Note_on_c, 9, 36, 80
1, 67439, Note_on_c, 9, 59, 0
1, 67439, Note_on_c, 9, 36, 0
1, 67440, Note_on_c, 9, 38, 80
1, 67679, Note_on_c, 9, 38, 0
1, 67680, Note_on_c, 9, 38, 80
1, 67680, Note_on_c, 9, 59, 80
1, 67920, Note_on_c, 9, 36, 80
1, 68159, Note_on_c, 9, 38, 0
1, 68159, Note_on_c, 9, 59, 0
1, 68159, Note_on_c, 9, 36, 0
1, 68160, Note_on_c, 9, 38, 80
1, 68160, Note_on_c, 9, 59, 80
1, 68399, Note_on_c, 9, 38, 0
1, 68399, Note_on_c, 9, 59, 0
1, 68400, Note_on_c, 9, 38, 80
1, 68639, Note_on_c, 9, 38, 0
1, 68640, Note_on_c, 9, 59, 80
1, 68640, Note_on_c, 9, 48, 80
1, 68879, Note_on_c, 9, 48, 0
1, 68880, Note_on_c, 9, 47, 80
1, 69119, Note_on_c, 9, 59, 0
1, 69119, Note_on_c, 9, 47, 0
1, 69120, Note_on_c, 9, 52, 80
1, 69120, Note_on_c, 9, 36, 80
1, 69359, Note_on_c, 9, 52, 0
1, 69359, Note_on_c, 9, 36, 0
1, 69360, Note_on_c, 9, 38, 80
1, 69599, Note_on_c, 9, 38, 0
1, 69600, Note_on_c, 9, 38, 80
1, 69600, Note_on_c, 9, 59, 80
1, 69840, Note_on_c, 9, 36, 80
1, 70079, Note_on_c, 9, 38, 0
1, 70079, Note_on_c, 9, 59, 0
1, 70079, Note_on_c, 9, 36, 0
1, 70080, Note_on_c, 9, 38, 80
1, 70080, Note_on_c, 9, 59, 80
1, 70319, Note_on_c, 9, 38, 0
1, 70319, Note_on_c, 9, 59, 0
1, 70320, Note_on_c, 9, 38, 80
1, 70559, Note_on_c, 9, 38, 0
1, 70560, Note_on_c, 9, 59, 80
1, 70560, Note_on_c, 9, 36, 80
1, 70799, Note_on_c, 9, 59, 0
1, 70799, Note_on_c, 9, 36, 0
1, 70800, Note_on_c, 9, 38, 80
1, 71039, Note_on_c, 9, 38, 0
1, 71040, Note_on_c, 9, 59, 80
1, 71040, Note_on_c, 9, 36, 80
1, 71279, Note_on_c, 9, 59, 0
1, 71279, Note_on_c, 9, 36, 0
1, 71280, Note_on_c, 9, 38, 80
1, 71519, Note_on_c, 9, 38, 0
1, 71520, Note_on_c, 9, 38, 80
1, 71520, Note_on_c, 9, 59, 80
1, 71760, Note_on_c, 9, 36, 80
1, 71999, Note_on_c, 9, 38, 0
1, 71999, Note_on_c, 9, 59, 0
1, 71999, Note_on_c, 9, 36, 0
1, 72000, Note_on_c, 9, 38, 80
1, 72000, Note_on_c, 9, 59, 80
1, 72239, Note_on_c, 9, 38, 0
1, 72239, Note_on_c, 9, 59, 0
1, 72240, Note_on_c, 9, 38, 80
1, 72479, Note_on_c, 9, 38, 0
1, 72480, Note_on_c, 9, 59, 80
1, 72480, Note_on_c, 9, 36, 80
1, 72719, Note_on_c, 9, 59, 0
1, 72719, Note_on_c, 9, 36, 0
1, 72720, Note_on_c, 9, 38, 80
1, 72959, Note_on_c, 9, 38, 0
1, 72960, Note_on_c, 9, 59, 80
1, 72960, Note_on_c, 9, 36, 80
1, 73199, Note_on_c, 9, 59, 0
1, 73199, Note_on_c, 9, 36, 0
1, 73200, Note_on_c, 9, 38, 80
1, 73439, Note_on_c, 9, 38, 0
1, 73440, Note_on_c, 9, 38, 80
1, 73440, Note_on_c, 9, 59, 80
1, 73680, Note_on_c, 9, 36, 80
1, 73919, Note_on_c, 9, 38, 0
1, 73919, Note_on_c, 9, 59, 0
1, 73919, Note_on_c, 9, 36, 0
1, 73920, Note_on_c, 9, 38, 80
1, 73920, Note_on_c, 9, 59, 80
1, 74159, Note_on_c, 9, 38, 0
1, 74159, Note_on_c, 9, 59, 0
1, 74160, Note_on_c, 9, 38, 80
1, 74399, Note_on_c, 9, 38, 0
1, 74400, Note_on_c, 9, 59, 80
1, 74400, Note_on_c, 9, 36, 80
1, 74639, Note_on_c, 9, 59, 0
1, 74639, Note_on_c, 9, 36, 0
1, 74640, Note_on_c, 9, 38, 80
1, 74640, Note_on_c, 9, 36, 80
1, 74879, Note_on_c, 9, 38, 0
1, 74879, Note_on_c, 9, 36, 0
1, 74880, Note_on_c, 9, 59, 80
1, 74880, Note_on_c, 9, 36, 80
1, 75119, Note_on_c, 9, 59, 0
1, 75119, Note_on_c, 9, 36, 0
1, 75120, Note_on_c, 9, 38, 80
1, 75359, Note_on_c, 9, 38, 0
1, 75360, Note_on_c, 9, 38, 80
1, 75360, Note_on_c, 9, 59, 80
1, 75600, Note_on_c, 9, 36, 80
1, 75839, Note_on_c, 9, 38, 0
1, 75839, Note_on_c, 9, 59, 0
1, 75839, Note_on_c, 9, 36, 0
1, 75840, Note_on_c, 9, 38, 80
1, 75840, Note_on_c, 9, 59, 80
1, 76079, Note_on_c, 9, 38, 0
1, 76079, Note_on_c, 9, 59, 0
1, 76080, Note_on_c, 9, 38, 80
1, 76319, Note_on_c, 9, 38, 0
1, 76320, Note_on_c, 9, 59, 80
1, 76320, Note_on_c, 9, 48, 80
1, 76559, Note_on_c, 9, 48, 0
1, 76560, Note_on_c, 9, 47, 80
1, 76799, Note_on_c, 9, 59, 0
1, 76799, Note_on_c, 9, 47, 0
1, 76800, Note_on_c, 9, 49, 80
1, 76800, Note_on_c, 9, 36, 80
1, 77039, Note_on_c, 9, 49, 0
1, 77039, Note_on_c, 9, 36, 0
1, 77040, Note_on_c, 9, 42, 80
1, 77040, Note_on_c, 9, 36, 80
1, 77279, Note_on_c, 9, 42, 0
1, 77279, Note_on_c, 9, 36, 0
1, 77280, Note_on_c, 9, 38, 80
1, 77280, Note_on_c, 9, 42, 80
1, 77519, Note_on_c, 9, 38, 0
1, 77519, Note_on_c, 9, 42, 0
1, 77520, Note_on_c, 9, 42, 80
1, 77520, Note_on_c, 9, 36, 80
1, 77759, Note_on_c, 9, 42, 0
1, 77759, Note_on_c, 9, 36, 0
1, 77760, Note_on_c, 9, 38, 80
1, 77760, Note_on_c, 9, 42, 80
1, 77999, Note_on_c, 9, 38, 0
1, 77999, Note_on_c, 9, 42, 0
1, 78000, Note_on_c, 9, 42, 80
1, 78000, Note_on_c, 9, 36, 80
1, 78239, Note_on_c, 9, 42, 0
1, 78239, Note_on_c, 9, 36, 0
1, 78240, Note_on_c, 9, 38, 80
1, 78240, Note_on_c, 9, 42, 80
1, 78479, Note_on_c, 9, 38, 0
1, 78479, Note_on_c, 9, 42, 0
1, 78480, Note_on_c, 9, 42, 80
1, 78480, Note_on_c, 9, 36, 80
1, 78719, Note_on_c, 9, 42, 0
1, 78719, Note_on_c, 9, 36, 0
1, 78720, Note_on_c, 9, 42, 80
1, 78720, Note_on_c, 9, 36, 80
1, 78959, Note_on_c, 9, 42, 0
1, 78959, Note_on_c, 9, 36, 0
1, 78960, Note_on_c, 9, 42, 80
1, 78960, Note_on_c, 9, 36, 80
1, 79199, Note_on_c, 9, 42, 0
1, 79199, Note_on_c, 9, 36, 0
1, 79200, Note_on_c, 9, 38, 80
1, 79200, Note_on_c, 9, 42, 80
1, 79439, Note_on_c, 9, 38, 0
1, 79439, Note_on_c, 9, 42, 0
1, 79440, Note_on_c, 9, 42, 80
1, 79440, Note_on_c, 9, 36, 80
1, 79679, Note_on_c, 9, 42, 0
1, 79679, Note_on_c, 9, 36, 0
1, 79680, Note_on_c, 9, 38, 80
1, 79680, Note_on_c, 9, 42, 80
1, 79919, Note_on_c, 9, 38, 0
1, 79919, Note_on_c, 9, 42, 0
1, 79920, Note_on_c, 9, 42, 80
1, 79920, Note_on_c, 9, 36, 80
1, 80159, Note_on_c, 9, 42, 0
1, 80159, Note_on_c, 9, 36, 0
1, 80160, Note_on_c, 9, 38, 80
1, 80160, Note_on_c, 9, 42, 80
1, 80399, Note_on_c, 9, 38, 0
1, 80399, Note_on_c, 9, 42, 0
1, 80400, Note_on_c, 9, 42, 80
1, 80400, Note_on_c, 9, 36, 80
1, 80639, Note_on_c, 9, 42, 0
1, 80639, Note_on_c, 9, 36, 0
1, 80640, Note_on_c, 9, 42, 80
1, 80640, Note_on_c, 9, 36, 80
1, 80879, Note_on_c, 9, 42, 0
1, 80879, Note_on_c, 9, 36, 0
1, 80880, Note_on_c, 9, 42, 80
1, 80880, Note_on_c, 9, 36, 80
1, 81119, Note_on_c, 9, 42, 0
1, 81119, Note_on_c, 9, 36, 0
1, 81120, Note_on_c, 9, 38, 80
1, 81120, Note_on_c, 9, 42, 80
1, 81359, Note_on_c, 9, 38, 0
1, 81359, Note_on_c, 9, 42, 0
1, 81360, Note_on_c, 9, 42, 80
1, 81360, Note_on_c, 9, 36, 80
1, 81599, Note_on_c, 9, 42, 0
1, 81599, Note_on_c, 9, 36, 0
1, 81600, Note_on_c, 9, 38, 80
1, 81600, Note_on_c, 9, 42, 80
1, 81839, Note_on_c, 9, 38, 0
1, 81839, Note_on_c, 9, 42, 0
1, 81840, Note_on_c, 9, 42, 80
1, 81840, Note_on_c, 9, 36, 80
1, 82079, Note_on_c, 9, 42, 0
1, 82079, Note_on_c, 9, 36, 0
1, 82080, Note_on_c, 9, 38, 80
1, 82080, Note_on_c, 9, 42, 80
1, 82080, Note_on_c, 9, 36, 80
1, 82319, Note_on_c, 9, 38, 0
1, 82319, Note_on_c, 9, 42, 0
1, 82319, Note_on_c, 9, 36, 0
1, 82320, Note_on_c, 9, 42, 80
1, 82320, Note_on_c, 9, 36, 80
1, 82559, Note_on_c, 9, 42, 0
1, 82559, Note_on_c, 9, 36, 0
1, 82560, Note_on_c, 9, 42, 80
1, 82560, Note_on_c, 9, 36, 80
1, 82799, Note_on_c, 9, 42, 0
1, 82799, Note_on_c, 9, 36, 0
1, 82800, Note_on_c, 9, 42, 80
1, 82800, Note_on_c, 9, 36, 80
1, 83039, Note_on_c, 9, 42, 0
1, 83039, Note_on_c, 9, 36, 0
1, 83040, Note_on_c, 9, 38, 80
1, 83040, Note_on_c, 9, 42, 80
1, 83279, Note_on_c, 9, 38, 0
1, 83279, Note_on_c, 9, 42, 0
1, 83280, Note_on_c, 9, 42, 80
1, 83280, Note_on_c, 9, 36, 80
1, 83519, Note_on_c, 9, 42, 0
1, 83519, Note_on_c, 9, 36, 0
1, 83520, Note_on_c, 9, 38, 80
1, 83520, Note_on_c, 9, 42, 80
1, 83759, Note_on_c, 9, 38, 0
1, 83759, Note_on_c, 9, 42, 0
1, 83760, Note_on_c, 9, 42, 80
1, 83760, Note_on_c, 9, 36, 80
1, 83999, Note_on_c, 9, 42, 0
1, 83999, Note_on_c, 9, 36, 0
1, 84000, Note_on_c, 9, 48, 80
1, 84000, Note_on_c, 9, 42, 80
1, 84239, Note_on_c, 9, 48, 0
1, 84239, Note_on_c, 9, 42, 0
1, 84240, Note_on_c, 9, 42, 80
1, 84240, Note_on_c, 9, 47, 80
1, 84479, Note_on_c, 9, 42, 0
1, 84479, Note_on_c, 9, 47, 0
1, 84480, Note_on_c, 9, 49, 80
1, 84480, Note_on_c, 9, 36, 80
1, 84719, Note_on_c, 9, 49, 0
1, 84719, Note_on_c, 9, 36, 0
1, 84720, Note_on_c, 9, 42, 80
1, 84720, Note_on_c, 9, 36, 80
1, 84959, Note_on_c, 9, 42, 0
1, 84959, Note_on_c, 9, 36, 0
1, 84960, Note_on_c, 9, 38, 80
1, 84960, Note_on_c, 9, 42, 80
1, 85199, Note_on_c, 9, 38, 0
1, 85199, Note_on_c, 9, 42, 0
1, 85200, Note_on_c, 9, 42, 80
1, 85200, Note_on_c, 9, 36, 80
1, 85439, Note_on_c, 9, 42, 0
1, 85439, Note_on_c, 9, 36, 0
1, 85440, Note_on_c, 9, 38, 80
1, 85440, Note_on_c, 9, 42, 80
1, 85679, Note_on_c, 9, 38, 0
1, 85679, Note_on_c, 9, 42, 0
1, 85680, Note_on_c, 9, 42, 80
1, 85680, Note_on_c, 9, 36, 80
1, 85919, Note_on_c, 9, 42, 0
1, 85919, Note_on_c, 9, 36, 0
1, 85920, Note_on_c, 9, 38, 80
1, 85920, Note_on_c, 9, 42, 80
1, 86159, Note_on_c, 9, 38, 0
1, 86159, Note_on_c, 9, 42, 0
1, 86160, Note_on_c, 9, 42, 80
1, 86160, Note_on_c, 9, 36, 80
1, 86399, Note_on_c, 9, 42, 0
1, 86399, Note_on_c, 9, 36, 0
1, 86400, Note_on_c, 9, 42, 80
1, 86400, Note_on_c, 9, 36, 80
1, 86639, Note_on_c, 9, 42, 0
1, 86639, Note_on_c, 9, 36, 0
1, 86640, Note_on_c, 9, 42, 80
1, 86640, Note_on_c, 9, 36, 80
1, 86879, Note_on_c, 9, 42, 0
1, 86879, Note_on_c, 9, 36, 0
1, 86880, Note_on_c, 9, 38, 80
1, 86880, Note_on_c, 9, 42, 80
1, 87119, Note_on_c, 9, 38, 0
1, 87119, Note_on_c, 9, 42, 0
1, 87120, Note_on_c, 9, 42, 80
1, 87120, Note_on_c, 9, 36, 80
1, 87359, Note_on_c, 9, 42, 0
1, 87359, Note_on_c, 9, 36, 0
1, 87360, Note_on_c, 9, 38, 80
1, 87360, Note_on_c, 9, 42, 80
1, 87599, Note_on_c, 9, 38, 0
1, 87599, Note_on_c, 9, 42, 0
1, 87600, Note_on_c, 9, 42, 80
1, 87600, Note_on_c, 9, 36, 80
1, 87839, Note_on_c, 9, 42, 0
1, 87839, Note_on_c, 9, 36, 0
1, 87840, Note_on_c, 9, 38, 80
1, 87840, Note_on_c, 9, 42, 80
1, 88079, Note_on_c, 9, 38, 0
1, 88079, Note_on_c, 9, 42, 0
1, 88080, Note_on_c, 9, 42, 80
1, 88080, Note_on_c, 9, 36, 80
1, 88319, Note_on_c, 9, 42, 0
1, 88319, Note_on_c, 9, 36, 0
1, 88320, Note_on_c, 9, 42, 80
1, 88320, Note_on_c, 9, 36, 80
1, 88559, Note_on_c, 9, 42, 0
1, 88559, Note_on_c, 9, 36, 0
1, 88560, Note_on_c, 9, 42, 80
1, 88560, Note_on_c, 9, 36, 80
1, 88799, Note_on_c, 9, 42, 0
1, 88799, Note_on_c, 9, 36, 0
1, 88800, Note_on_c, 9, 38, 80
1, 88800, Note_on_c, 9, 42, 80
1, 89039, Note_on_c, 9, 38, 0
1, 89039, Note_on_c, 9, 42, 0
1, 89040, Note_on_c, 9, 42, 80
1, 89040, Note_on_c, 9, 36, 80
1, 89279, Note_on_c, 9, 42, 0
1, 89279, Note_on_c, 9, 36, 0
1, 89280, Note_on_c, 9, 38, 80
1, 89280, Note_on_c, 9, 42, 80
1, 89519, Note_on_c, 9, 38, 0
1, 89519, Note_on_c, 9, 42, 0
1, 89520, Note_on_c, 9, 42, 80
1, 89520, Note_on_c, 9, 36, 80
1, 89759, Note_on_c, 9, 42, 0
1, 89759, Note_on_c, 9, 36, 0
1, 89760, Note_on_c, 9, 38, 80
1, 89760, Note_on_c, 9, 42, 80
1, 89760, Note_on_c, 9, 36, 80
1, 89999, Note_on_c, 9, 38, 0
1, 89999, Note_on_c, 9, 42, 0
1, 89999, Note_on_c, 9, 36, 0
1, 90000, Note_on_c, 9, 42, 80
1, 90000, Note_on_c, 9, 36, 80
1, 90239, Note_on_c, 9, 42, 0
1, 90239, Note_on_c, 9, 36, 0
1, 90240, Note_on_c, 9, 42, 80
1, 90240, Note_on_c, 9, 36, 80
1, 90479, Note_on_c, 9, 42, 0
1, 90479, Note_on_c, 9, 36, 0
1, 90480, Note_on_c, 9, 42, 80
1, 90480, Note_on_c, 9, 36, 80
1, 90719, Note_on_c, 9, 42, 0
1, 90719, Note_on_c, 9, 36, 0
1, 90720, Note_on_c, 9, 38, 80
1, 90720, Note_on_c, 9, 42, 80
1, 90959, Note_on_c, 9, 38, 0
1, 90959, Note_on_c, 9, 42, 0
1, 90960, Note_on_c, 9, 42, 80
1, 90960, Note_on_c, 9, 36, 80
1, 91199, Note_on_c, 9, 42, 0
1, 91199, Note_on_c, 9, 36, 0
1, 91200, Note_on_c, 9, 38, 80
1, 91200, Note_on_c, 9, 42, 80
1, 91439, Note_on_c, 9, 38, 0
1, 91439, Note_on_c, 9, 42, 0
1, 91440, Note_on_c, 9, 42, 80
1, 91440, Note_on_c, 9, 36, 80
1, 91679, Note_on_c, 9, 42, 0
1, 91679, Note_on_c, 9, 36, 0
1, 91680, Note_on_c, 9, 48, 80
1, 91680, Note_on_c, 9, 42, 80
1, 91799, Note_on_c, 9, 48, 0
1, 91799, Note_on_c, 9, 42, 0
1, 91800, Note_on_c, 9, 48, 80
1, 91919, Note_on_c, 9, 48, 0
1, 91920, Note_on_c, 9, 42, 80
1, 91920, Note_on_c, 9, 47, 80
1, 92039, Note_on_c, 9, 42, 0
1, 92039, Note_on_c, 9, 47, 0
1, 92040, Note_on_c, 9, 47, 80
1, 92159, Note_on_c, 9, 47, 0
1, 92160, Note_on_c, 9, 55, 80
1, 92160, Note_on_c, 9, 36, 80
1, 92279, Note_on_c, 9, 36, 0
1, 92280, Note_on_c, 9, 36, 80
1, 92399, Note_on_c, 9, 36, 0
1, 92400, Note_on_c, 9, 36, 80
1, 92519, Note_on_c, 9, 36, 0
1, 92520, Note_on_c, 9, 36, 80
1, 92639, Note_on_c, 9, 55, 0
1, 92639, Note_on_c, 9, 36, 0
1, 92640, Note_on_c, 9, 38, 80
1, 92640, Note_on_c, 9, 57, 80
1, 92759, Note_on_c, 9, 38, 0
1, 92759, Note_on_c, 9, 57, 0
1, 92760, Note_on_c, 9, 38, 80
1, 92879, Note_on_c, 9, 38, 0
1, 92880, Note_on_c, 9, 36, 80
1, 92999, Note_on_c, 9, 36, 0
1, 93000, Note_on_c, 9, 36, 80
1, 93119, Note_on_c, 9, 36, 0
1, 93120, Note_on_c, 9, 57, 80
1, 93120, Note_on_c, 9, 36, 80
1, 93239, Note_on_c, 9, 36, 0
1, 93240, Note_on_c, 9, 36, 80
1, 93359, Note_on_c, 9, 57, 0
1, 93359, Note_on_c, 9, 36, 0
1, 93360, Note_on_c, 9, 38, 80
1, 93479, Note_on_c, 9, 38, 0
1, 93480, Note_on_c, 9, 38, 80
1, 93599, Note_on_c, 9, 38, 0
1, 93600, Note_on_c, 9, 57, 80
1, 93600, Note_on_c, 9, 36, 80
1, 93719, Note_on_c, 9, 36, 0
1, 93720, Note_on_c, 9, 36, 80
1, 93839, Note_on_c, 9, 57, 0
1, 93839, Note_on_c, 9, 36, 0
1, 93840, Note_on_c, 9, 38, 80
1, 93959, Note_on_c, 9, 38, 0
1, 93960, Note_on_c, 9, 38, 80
1, 94079, Note_on_c, 9, 38, 0
1, 94080, Note_on_c, 9, 57, 80
1, 94080, Note_on_c, 9, 36, 80
1, 94199, Note_on_c, 9, 36, 0
1, 94200, Note_on_c, 9, 36, 80
1, 94319, Note_on_c, 9, 36, 0
1, 94320, Note_on_c, 9, 36, 80
1, 94439, Note_on_c, 9, 36, 0
1, 94440, Note_on_c, 9, 36, 80
1, 94559, Note_on_c, 9, 57, 0
1, 94559, Note_on_c, 9, 36, 0
1, 94560, Note_on_c, 9, 48, 80
1, 94560, Note_on_c, 9, 57, 80
1, 94679, Note_on_c, 9, 48, 0
1, 94679, Note_on_c, 9, 57, 0
1, 94680, Note_on_c, 9, 48, 80
1, 94799, Note_on_c, 9, 48, 0
1, 94800, Note_on_c, 9, 36, 80
1, 94919, Note_on_c, 9, 36, 0
1, 94920, Note_on_c, 9, 36, 80
1, 95039, Note_on_c, 9, 36, 0
1, 95040, Note_on_c, 9, 57, 80
1, 95040, Note_on_c, 9, 36, 80
1, 95159, Note_on_c, 9, 36, 0
1, 95160, Note_on_c, 9, 36, 80
1, 95279, Note_on_c, 9, 57, 0
1, 95279, Note_on_c, 9, 36, 0
1, 95280, Note_on_c, 9, 47, 80
1, 95399, Note_on_c, 9, 47, 0
1, 95400, Note_on_c, 9, 47, 80
1, 95519, Note_on_c, 9, 47, 0
1, 95520, Note_on_c, 9, 57, 80
1, 95520, Note_on_c, 9, 36, 80
1, 95639, Note_on_c, 9, 36, 0
1, 95640, Note_on_c, 9, 36, 80
1, 95759, Note_on_c, 9, 57, 0
1, 95759, Note_on_c, 9, 36, 0
1, 95760, Note_on_c, 9, 45, 80
1, 95879, Note_on_c, 9, 45, 0
1, 95880, Note_on_c, 9, 45, 80
1, 95999, Note_on_c, 9, 45, 0
1, 96000, Note_on_c, 9, 55, 80
1, 96000, Note_on_c, 9, 36, 80
1, 96119, Note_on_c, 9, 36, 0
1, 96120, Note_on_c, 9, 36, 80
1, 96239, Note_on_c, 9, 36, 0
1, 96240, Note_on_c, 9, 36, 80
1, 96359, Note_on_c, 9, 36, 0
1, 96360, Note_on_c, 9, 36, 80
1, 96479, Note_on_c, 9, 55, 0
1, 96479, Note_on_c, 9, 36, 0
1, 96480, Note_on_c, 9, 38, 80
1, 96480, Note_on_c, 9, 57, 80
1, 96599, Note_on_c, 9, 38, 0
1, 96599, Note_on_c, 9, 57, 0
1, 96600, Note_on_c, 9, 38, 80
1, 96719, Note_on_c, 9, 38, 0
1, 96720, Note_on_c, 9, 36, 80
1, 96839, Note_on_c, 9, 36, 0
1, 96840, Note_on_c, 9, 36, 80
1, 96959, Note_on_c, 9, 36, 0
1, 96960, Note_on_c, 9, 57, 80
1, 96960, Note_on_c, 9, 36, 80
1, 97079, Note_on_c, 9, 36, 0
1, 97080, Note_on_c, 9, 36, 80
1, 97199, Note_on_c, 9, 57, 0
1, 97199, Note_on_c, 9, 36, 0
1, 97200, Note_on_c, 9, 38, 80
1, 97319, Note_on_c, 9, 38, 0
1, 97320, Note_on_c, 9, 38, 80
1, 97439, Note_on_c, 9, 38, 0
1, 97440, Note_on_c, 9, 57, 80
1, 97440, Note_on_c, 9, 36, 80
1, 97559, Note_on_c, 9, 36, 0
1, 97560, Note_on_c, 9, 36, 80
1, 97679, Note_on_c, 9, 57, 0
1, 97679, Note_on_c, 9, 36, 0
1, 97680, Note_on_c, 9, 38, 80
1, 97799, Note_on_c, 9, 38, 0
1, 97800, Note_on_c, 9, 38, 80
1, 97919, Note_on_c, 9, 38, 0
1, 97920, Note_on_c, 9, 57, 80
1, 97920, Note_on_c, 9, 36, 80
1, 98039, Note_on_c, 9, 36, 0
1, 98040, Note_on_c, 9, 36, 80
1, 98159, Note_on_c, 9, 36, 0
1, 98160, Note_on_c, 9, 36, 80
1, 98279, Note_on_c, 9, 36, 0
1, 98280, Note_on_c, 9, 36, 80
1, 98399, Note_on_c, 9, 57, 0
1, 98399, Note_on_c, 9, 36, 0
1, 98400, Note_on_c, 9, 47, 80
1, 98400, Note_on_c, 9, 57, 80
1, 98519, Note_on_c, 9, 47, 0
1, 98519, Note_on_c, 9, 57, 0
1, 98520, Note_on_c, 9, 47, 80
1, 98639, Note_on_c, 9, 47, 0
1, 98640, Note_on_c, 9, 36, 80
1, 98759, Note_on_c, 9, 36, 0
1, 98760, Note_on_c, 9, 36, 80
1, 98879, Note_on_c, 9, 36, 0
1, 98880, Note_on_c, 9, 57, 80
1, 98880, Note_on_c, 9, 36, 80
1, 98999, Note_on_c, 9, 36, 0
1, 99000, Note_on_c, 9, 36, 80
1, 99119, Note_on_c, 9, 57, 0
1, 99119, Note_on_c, 9, 36, 0
1, 99120, Note_on_c, 9, 45, 80
1, 99239, Note_on_c, 9, 45, 0
1, 99240, Note_on_c, 9, 45, 80
1, 99359, Note_on_c, 9, 45, 0
1, 99360, Note_on_c, 9, 57, 80
1, 99360, Note_on_c, 9, 36, 80
1, 99479, Note_on_c, 9, 36, 0
1, 99480, Note_on_c, 9, 36, 80
1, 99599, Note_on_c, 9, 57, 0
1, 99599, Note_on_c, 9, 36, 0
1, 99600, Note_on_c, 9, 43, 80
1, 99719, Note_on_c, 9, 43, 0
1, 99720, Note_on_c, 9, 43, 80
1, 99839, Note_on_c, 9, 43, 0
1, 99840, Note_on_c, 9, 55, 80
1, 99840, Note_on_c, 9, 36, 80
1, 99959, Note_on_c, 9, 36, 0
1, 99960, Note_on_c, 9, 36, 80
1, 100079, Note_on_c, 9, 36, 0
1, 100080, Note_on_c, 9, 36, 80
1, 100199, Note_on_c, 9, 36, 0
1, 100200, Note_on_c, 9, 36, 80
1, 100319, Note_on_c, 9, 55, 0
1, 100319, Note_on_c, 9, 36, 0
1, 100320, Note_on_c, 9, 38, 80
1, 100320, Note_on_c, 9, 57, 80
1, 100439, Note_on_c, 9, 38, 0
1, 100439, Note_on_c, 9, 57, 0
1, 100440, Note_on_c, 9, 38, 80
1, 100559, Note_on_c, 9, 38, 0
1, 100560, Note_on_c, 9, 36, 80
1, 100679, Note_on_c, 9, 36, 0
1, 100680, Note_on_c, 9, 36, 80
1, 100799, Note_on_c, 9, 36, 0
1, 100800, Note_on_c, 9, 57, 80
1, 100800, Note_on_c, 9, 36, 80
1, 100919, Note_on_c, 9, 36, 0
1, 100920, Note_on_c, 9, 36, 80
1, 101039, Note_on_c, 9, 57, 0
1, 101039, Note_on_c, 9, 36, 0
1, 101040, Note_on_c, 9, 38, 80
1, 101159, Note_on_c, 9, 38, 0
1, 101160, Note_on_c, 9, 38, 80
1, 101279, Note_on_c, 9, 38, 0
1, 101280, Note_on_c, 9, 57, 80
1, 101280, Note_on_c, 9, 36, 80
1, 101399, Note_on_c, 9, 36, 0
1, 101400, Note_on_c, 9, 36, 80
1, 101519, Note_on_c, 9, 57, 0
1, 101519, Note_on_c, 9, 36, 0
1, 101520, Note_on_c, 9, 38, 80
1, 101639, Note_on_c, 9, 38, 0
1, 101640, Note_on_c, 9, 38, 80
1, 101759, Note_on_c, 9, 38, 0
1, 101760, Note_on_c, 9, 57, 80
1, 101760, Note_on_c, 9, 36, 80
1, 101879, Note_on_c, 9, 36, 0
1, 101880, Note_on_c, 9, 36, 80
1, 101999, Note_on_c, 9, 36, 0
1, 102000, Note_on_c, 9, 36, 80
1, 102119, Note_on_c, 9, 36, 0
1, 102120, Note_on_c, 9, 36, 80
1, 102239, Note_on_c, 9, 57, 0
1, 102239, Note_on_c, 9, 36, 0
1, 102240, Note_on_c, 9, 48, 80
1, 102240, Note_on_c, 9, 57, 80
1, 102359, Note_on_c, 9, 48, 0
1, 102359, Note_on_c, 9, 57, 0
1, 102360, Note_on_c, 9, 48, 80
1, 102479, Note_on_c, 9, 48, 0
1, 102480, Note_on_c, 9, 36, 80
1, 102599, Note_on_c, 9, 36, 0
1, 102600, Note_on_c, 9, 36, 80
1, 102719, Note_on_c, 9, 36, 0
1, 102720, Note_on_c, 9, 57, 80
1, 102720, Note_on_c, 9, 36, 80
1, 102839, Note_on_c, 9, 36, 0
1, 102840, Note_on_c, 9, 36, 80
1, 102959, Note_on_c, 9, 57, 0
1, 102959, Note_on_c, 9, 36, 0
1, 102960, Note_on_c, 9, 47, 80
1, 103079, Note_on_c, 9, 47, 0
1, 103080, Note_on_c, 9, 47, 80
1, 103199, Note_on_c, 9, 47, 0
1, 103200, Note_on_c, 9, 57, 80
1, 103200, Note_on_c, 9, 36, 80
1, 103319, Note_on_c, 9, 36, 0
1, 103320, Note_on_c, 9, 36, 80
1, 103439, Note_on_c, 9, 57, 0
1, 103439, Note_on_c, 9, 36, 0
1, 103440, Note_on_c, 9, 45, 80
1, 103559, Note_on_c, 9, 45, 0
1, 103560, Note_on_c, 9, 45, 80
1, 103679, Note_on_c, 9, 45, 0
1, 103680, Note_on_c, 9, 55, 80
1, 103680, Note_on_c, 9, 36, 80
1, 103799, Note_on_c, 9, 36, 0
1, 103800, Note_on_c, 9, 36, 80
1, 103919, Note_on_c, 9, 36, 0
1, 103920, Note_on_c, 9, 36, 80
1, 104039, Note_on_c, 9, 36, 0
1, 104040, Note_on_c, 9, 36, 80
1, 104159, Note_on_c, 9, 55, 0
1, 104159, Note_on_c, 9, 36, 0
1, 104160, Note_on_c, 9, 38, 80
1, 104160, Note_on_c, 9, 57, 80
1, 104279, Note_on_c, 9, 38, 0
1, 104279, Note_on_c, 9, 57, 0
1, 104280, Note_on_c, 9, 38, 80
1, 104399, Note_on_c, 9, 38, 0
1, 104400, Note_on_c, 9, 36, 80
1, 104519, Note_on_c, 9, 36, 0
1, 104520, Note_on_c, 9, 36, 80
1, 104639, Note_on_c, 9, 36, 0
1, 104640, Note_on_c, 9, 57, 80
1, 104640, Note_on_c, 9, 36, 80
1, 104759, Note_on_c, 9, 36, 0
1, 104760, Note_on_c, 9, 36, 80
1, 104879, Note_on_c, 9, 57, 0
1, 104879, Note_on_c, 9, 36, 0
1, 104880, Note_on_c, 9, 38, 80
1, 104999, Note_on_c, 9, 38, 0
1, 105000, Note_on_c, 9, 38, 80
1, 105119, Note_on_c, 9, 38, 0
1, 105120, Note_on_c, 9, 57, 80
1, 105120, Note_on_c, 9, 36, 80
1, 105239, Note_on_c, 9, 36, 0
1, 105240, Note_on_c, 9, 36, 80
1, 105359, Note_on_c, 9, 57, 0
1, 105359, Note_on_c, 9, 36, 0
1, 105360, Note_on_c, 9, 38, 80
1, 105479, Note_on_c, 9, 38, 0
1, 105480, Note_on_c, 9, 38, 80
1, 105599, Note_on_c, 9, 38, 0
1, 105600, Note_on_c, 9, 57, 80
1, 105600, Note_on_c, 9, 36, 80
1, 105719, Note_on_c, 9, 36, 0
1, 105720, Note_on_c, 9, 36, 80
1, 105839, Note_on_c, 9, 36, 0
1, 105840, Note_on_c, 9, 36, 80
1, 105959, Note_on_c, 9, 36, 0
1, 105960, Note_on_c, 9, 36, 80
1, 106079, Note_on_c, 9, 57, 0
1, 106079, Note_on_c, 9, 36, 0
1, 106080, Note_on_c, 9, 47, 80
1, 106080, Note_on_c, 9, 57, 80
1, 106199, Note_on_c, 9, 47, 0
1, 106199, Note_on_c, 9, 57, 0
1, 106200, Note_on_c, 9, 47, 80
1, 106319, Note_on_c, 9, 47, 0
1, 106320, Note_on_c, 9, 36, 80
1, 106439, Note_on_c, 9, 36, 0
1, 106440, Note_on_c, 9, 36, 80
1, 106559, Note_on_c, 9, 36, 0
1, 106560, Note_on_c, 9, 57, 80
1, 106560, Note_on_c, 9, 36, 80
1, 106679, Note_on_c, 9, 36, 0
1, 106680, Note_on_c, 9, 36, 80
1, 106799, Note_on_c, 9, 57, 0
1, 106799, Note_on_c, 9, 36, 0
1, 106800, Note_on_c, 9, 45, 80
1, 106919, Note_on_c, 9, 45, 0
1, 106920, Note_on_c, 9, 45, 80
1, 107039, Note_on_c, 9, 45, 0
1, 107040, Note_on_c, 9, 57, 80
1, 107040, Note_on_c, 9, 36, 80
1, 107159, Note_on_c, 9, 36, 0
1, 107160, Note_on_c, 9, 36, 80
1, 107279, Note_on_c, 9, 57, 0
1, 107279, Note_on_c, 9, 36, 0
1, 107280, Note_on_c, 9, 43, 80
1, 107399, Note_on_c, 9, 43, 0
1, 107400, Note_on_c, 9, 43, 80
1, 107519, Note_on_c, 9, 43, 0
1, 107520, Note_on_c, 9, 49, 80
1, 107520, Note_on_c, 9, 36, 80
1, 107639, Note_on_c, 9, 49, 0
1, 107640, Note_on_c, 9, 42, 80
1, 107759, Note_on_c, 9, 42, 0
1, 107760, Note_on_c, 9, 42, 80
1, 107879, Note_on_c, 9, 42, 0
1, 107880, Note_on_c, 9, 42, 80
1, 107999, Note_on_c, 9, 36, 0
1, 107999, Note_on_c, 9, 42, 0
1, 108000, Note_on_c, 9, 42, 80
1, 108000, Note_on_c, 9, 36, 80
1, 108119, Note_on_c, 9, 42, 0
1, 108120, Note_on_c, 9, 42, 80
1, 108239, Note_on_c, 9, 42, 0
1, 108240, Note_on_c, 9, 42, 80
1, 108359, Note_on_c, 9, 42, 0
1, 108360, Note_on_c, 9, 42, 80
1, 108479, Note_on_c, 9, 36, 0
1, 108479, Note_on_c, 9, 42, 0
1, 108480, Note_on_c, 9, 40, 80
1, 108480, Note_on_c, 9, 42, 80
1, 108599, Note_on_c, 9, 40, 0
1, 108599, Note_on_c, 9, 42, 0
1, 108600, Note_on_c, 9, 42, 80
1, 108719, Note_on_c, 9, 42, 0
1, 108720, Note_on_c, 9, 42, 80
1, 108839, Note_on_c, 9, 42, 0
1, 108840, Note_on_c, 9, 42, 80
1, 108959, Note_on_c, 9, 42, 0
1, 108960, Note_on_c, 9, 42, 80
1, 108960, Note_on_c, 9, 36, 80
1, 109079, Note_on_c, 9, 42, 0
1, 109080, Note_on_c, 9, 42, 80
1, 109199, Note_on_c, 9, 42, 0
1, 109200, Note_on_c, 9, 42, 80
1, 109319, Note_on_c, 9, 42, 0
1, 109320, Note_on_c, 9, 42, 80
1, 109439, Note_on_c, 9, 36, 0
1, 109439, Note_on_c, 9, 42, 0
1, 109440, Note_on_c, 9, 42, 80
1, 109440, Note_on_c, 9, 36, 80
1, 109559, Note_on_c, 9, 42, 0
1, 109560, Note_on_c, 9, 42, 80
1, 109679, Note_on_c, 9, 42, 0
1, 109680, Note_on_c, 9, 42, 80
1, 109799, Note_on_c, 9, 42, 0
1, 109800, Note_on_c, 9, 42, 80
1, 109919, Note_on_c, 9, 36, 0
1, 109919, Note_on_c, 9, 42, 0
1, 109920, Note_on_c, 9, 42, 80
1, 109920, Note_on_c, 9, 36, 80
1, 110039, Note_on_c, 9, 42, 0
1, 110040, Note_on_c, 9, 42, 80
1, 110159, Note_on_c, 9, 42, 0
1, 110160, Note_on_c, 9, 42, 80
1, 110279, Note_on_c, 9, 42, 0
1, 110280, Note_on_c, 9, 42, 80
1, 110399, Note_on_c, 9, 36, 0
1, 110399, Note_on_c, 9, 42, 0
1, 110400, Note_on_c, 9, 40, 80
1, 110400, Note_on_c, 9, 42, 80
1, 110519, Note_on_c, 9, 40, 0
1, 110519, Note_on_c, 9, 42, 0
1, 110520, Note_on_c, 9, 42, 80
1, 110639, Note_on_c, 9, 42, 0
1, 110640, Note_on_c, 9, 42, 80
1, 110759, Note_on_c, 9, 42, 0
1, 110760, Note_on_c, 9, 42, 80
1, 110879, Note_on_c, 9, 42, 0
1, 110880, Note_on_c, 9, 42, 80
1, 110880, Note_on_c, 9, 36, 80
1, 110999, Note_on_c, 9, 42, 0
1, 111000, Note_on_c, 9, 42, 80
1, 111119, Note_on_c, 9, 42, 0
1, 111120, Note_on_c, 9, 42, 80
1, 111239, Note_on_c, 9, 42, 0
1, 111240, Note_on_c, 9, 42, 80
1, 111359, Note_on_c, 9, 36, 0
1, 111359, Note_on_c, 9, 42, 0
1, 111360, Note_on_c, 9, 49, 80
1, 111360, Note_on_c, 9, 36, 80
1, 111479, Note_on_c, 9, 49, 0
1, 111480, Note_on_c, 9, 42, 80
1, 111599, Note_on_c, 9, 42, 0
1, 111600, Note_on_c, 9, 42, 80
1, 111719, Note_on_c, 9, 42, 0
1, 111720, Note_on_c, 9, 42, 80
1, 111839, Note_on_c, 9, 36, 0
1, 111839, Note_on_c, 9, 42, 0
1, 111840, Note_on_c, 9, 42, 80
1, 111840, Note_on_c, 9, 36, 80
1, 111959, Note_on_c, 9, 42, 0
1, 111960, Note_on_c, 9, 42, 80
1, 112079, Note_on_c, 9, 42, 0
1, 112080, Note_on_c, 9, 42, 80
1, 112199, Note_on_c, 9, 42, 0
1, 112200, Note_on_c, 9, 42, 80
1, 112319, Note_on_c, 9, 36, 0
1, 112319, Note_on_c, 9, 42, 0
1, 112320, Note_on_c, 9, 40, 80
1, 112320, Note_on_c, 9, 42, 80
1, 112439, Note_on_c, 9, 40, 0
1, 112439, Note_on_c, 9, 42, 0
1, 112440, Note_on_c, 9, 42, 80
1, 112559, Note_on_c, 9, 42, 0
1, 112560, Note_on_c, 9, 42, 80
1, 112679, Note_on_c, 9, 42, 0
1, 112680, Note_on_c, 9, 42, 80
1, 112799, Note_on_c, 9, 42, 0
1, 112800, Note_on_c, 9, 42, 80
1, 112800, Note_on_c, 9, 36, 80
1, 112919, Note_on_c, 9, 42, 0
1, 112920, Note_on_c, 9, 42, 80
1, 113039, Note_on_c, 9, 42, 0
1, 113040, Note_on_c, 9, 42, 80
1, 113159, Note_on_c, 9, 42, 0
1, 113160, Note_on_c, 9, 42, 80
1, 113279, Note_on_c, 9, 36, 0
1, 113279, Note_on_c, 9, 42, 0
1, 113280, Note_on_c, 9, 42, 80
1, 113280, Note_on_c, 9, 36, 80
1, 113399, Note_on_c, 9, 42, 0
1, 113400, Note_on_c, 9, 42, 80
1, 113519, Note_on_c, 9, 42, 0
1, 113520, Note_on_c, 9, 42, 80
1, 113639, Note_on_c, 9, 42, 0
1, 113640, Note_on_c, 9, 42, 80
1, 113759, Note_on_c, 9, 36, 0
1, 113759, Note_on_c, 9, 42, 0
1, 113760, Note_on_c, 9, 42, 80
1, 113760, Note_on_c, 9, 36, 80
1, 113879, Note_on_c, 9, 42, 0
1, 113880, Note_on_c, 9, 42, 80
1, 113999, Note_on_c, 9, 42, 0
1, 114000, Note_on_c, 9, 42, 80
1, 114119, Note_on_c, 9, 42, 0
1, 114120, Note_on_c, 9, 42, 80
1, 114239, Note_on_c, 9, 36, 0
1, 114239, Note_on_c, 9, 42, 0
1, 114240, Note_on_c, 9, 40, 80
1, 114240, Note_on_c, 9, 42, 80
1, 114359, Note_on_c, 9, 40, 0
1, 114359, Note_on_c, 9, 42, 0
1, 114360, Note_on_c, 9, 42, 80
1, 114479, Note_on_c, 9, 42, 0
1, 114480, Note_on_c, 9, 42, 80
1, 114599, Note_on_c, 9, 42, 0
1, 114600, Note_on_c, 9, 42, 80
1, 114719, Note_on_c, 9, 42, 0
1, 114720, Note_on_c, 9, 42, 80
1, 114720, Note_on_c, 9, 36, 80
1, 114839, Note_on_c, 9, 42, 0
1, 114840, Note_on_c, 9, 42, 80
1, 114959, Note_on_c, 9, 42, 0
1, 114960, Note_on_c, 9, 42, 80
1, 115079, Note_on_c, 9, 42, 0
1, 115080, Note_on_c, 9, 42, 80
1, 115199, Note_on_c, 9, 36, 0
1, 115199, Note_on_c, 9, 42, 0
1, 115200, Note_on_c, 9, 49, 80
1, 115200, Note_on_c, 9, 36, 80
1, 115319, Note_on_c, 9, 49, 0
1, 115320, Note_on_c, 9, 42, 80
1, 115439, Note_on_c, 9, 42, 0
1, 115440, Note_on_c, 9, 42, 80
1, 115559, Note_on_c, 9, 42, 0
1, 115560, Note_on_c, 9, 42, 80
1, 115679, Note_on_c, 9, 36, 0
1, 115679, Note_on_c, 9, 42, 0
1, 115680, Note_on_c, 9, 42, 80
1, 115680, Note_on_c, 9, 36, 80
1, 115799, Note_on_c, 9, 42, 0
1, 115800, Note_on_c, 9, 42, 80
1, 115919, Note_on_c, 9, 42, 0
1, 115920, Note_on_c, 9, 42, 80
1, 116039, Note_on_c, 9, 42, 0
1, 116040, Note_on_c, 9, 42, 80
1, 116159, Note_on_c, 9, 36, 0
1, 116159, Note_on_c, 9, 42, 0
1, 116160, Note_on_c, 9, 40, 80
1, 116160, Note_on_c, 9, 42, 80
1, 116279, Note_on_c, 9, 40, 0
1, 116279, Note_on_c, 9, 42, 0
1, 116280, Note_on_c, 9, 42, 80
1, 116399, Note_on_c, 9, 42, 0
1, 116400, Note_on_c, 9, 42, 80
1, 116519, Note_on_c, 9, 42, 0
1, 116520, Note_on_c, 9, 42, 80
1, 116639, Note_on_c, 9, 42, 0
1, 116640, Note_on_c, 9, 42, 80
1, 116640, Note_on_c, 9, 36, 80
1, 116759, Note_on_c, 9, 42, 0
1, 116760, Note_on_c, 9, 42, 80
1, 116879, Note_on_c, 9, 42, 0
1, 116880, Note_on_c, 9, 42, 80
1, 116999, Note_on_c, 9, 42, 0
1, 117000, Note_on_c, 9, 42, 80
1, 117119, Note_on_c, 9, 36, 0
1, 117119, Note_on_c, 9, 42, 0
1, 117120, Note_on_c, 9, 42, 80
1, 117120, Note_on_c, 9, 36, 80
1, 117239, Note_on_c, 9, 42, 0
1, 117240, Note_on_c, 9, 42, 80
1, 117359, Note_on_c, 9, 42, 0
1, 117360, Note_on_c, 9, 42, 80
1, 117479, Note_on_c, 9, 42, 0
1, 117480, Note_on_c, 9, 42, 80
1, 117599, Note_on_c, 9, 36, 0
1, 117599, Note_on_c, 9, 42, 0
1, 117600, Note_on_c, 9, 42, 80
1, 117600, Note_on_c, 9, 36, 80
1, 117719, Note_on_c, 9, 42, 0
1, 117720, Note_on_c, 9, 42, 80
1, 117839, Note_on_c, 9, 42, 0
1, 117840, Note_on_c, 9, 42, 80
1, 117959, Note_on_c, 9, 42, 0
1, 117960, Note_on_c, 9, 42, 80
1, 118079, Note_on_c, 9, 36, 0
1, 118079, Note_on_c, 9, 42, 0
1, 118080, Note_on_c, 9, 40, 80
1, 118080, Note_on_c, 9, 42, 80
1, 118199, Note_on_c, 9, 40, 0
1, 118199, Note_on_c, 9, 42, 0
1, 118200, Note_on_c, 9, 42, 80
1, 118319, Note_on_c, 9, 42, 0
1, 118320, Note_on_c, 9, 42, 80
1, 118439, Note_on_c, 9, 42, 0
1, 118440, Note_on_c, 9, 42, 80
1, 118559, Note_on_c, 9, 42, 0
1, 118560, Note_on_c, 9, 42, 80
1, 118560, Note_on_c, 9, 36, 80
1, 118679, Note_on_c, 9, 42, 0
1, 118680, Note_on_c, 9, 42, 80
1, 118799, Note_on_c, 9, 42, 0
1, 118800, Note_on_c, 9, 42, 80
1, 118919, Note_on_c, 9, 42, 0
1, 118920, Note_on_c, 9, 42, 80
1, 119039, Note_on_c, 9, 36, 0
1, 119039, Note_on_c, 9, 42, 0
1, 119040, Note_on_c, 9, 49, 80
1, 119040, Note_on_c, 9, 36, 80
1, 119159, Note_on_c, 9, 49, 0
1, 119160, Note_on_c, 9, 42, 80
1, 119279, Note_on_c, 9, 42, 0
1, 119280, Note_on_c, 9, 42, 80
1, 119399, Note_on_c, 9, 42, 0
1, 119400, Note_on_c, 9, 42, 80
1, 119519, Note_on_c, 9, 36, 0
1, 119519, Note_on_c, 9, 42, 0
1, 119520, Note_on_c, 9, 42, 80
1, 119520, Note_on_c, 9, 36, 80
1, 119639, Note_on_c, 9, 42, 0
1, 119640, Note_on_c, 9, 42, 80
1, 119759, Note_on_c, 9, 42, 0
1, 119760, Note_on_c, 9, 42, 80
1, 119879, Note_on_c, 9, 42, 0
1, 119880, Note_on_c, 9, 42, 80
1, 119999, Note_on_c, 9, 36, 0
1, 119999, Note_on_c, 9, 42, 0
1, 120000, Note_on_c, 9, 40, 80
1, 120000, Note_on_c, 9, 42, 80
1, 120119, Note_on_c, 9, 40, 0
1, 120119, Note_on_c, 9, 42, 0
1, 120120, Note_on_c, 9, 42, 80
1, 120239, Note_on_c, 9, 42, 0
1, 120240, Note_on_c, 9, 42, 80
1, 120359, Note_on_c, 9, 42, 0
1, 120360, Note_on_c, 9, 42, 80
1, 120479, Note_on_c, 9, 42, 0
1, 120480, Note_on_c, 9, 42, 80
1, 120480, Note_on_c, 9, 36, 80
1, 120599, Note_on_c, 9, 42, 0
1, 120600, Note_on_c, 9, 42, 80
1, 120719, Note_on_c, 9, 42, 0
1, 120720, Note_on_c, 9, 42, 80
1, 120839, Note_on_c, 9, 42, 0
1, 120840, Note_on_c, 9, 42, 80
1, 120959, Note_on_c, 9, 36, 0
1, 120959, Note_on_c, 9, 42, 0
1, 120960, Note_on_c, 9, 55, 80
1, 120960, Note_on_c, 9, 36, 80
1, 121439, Note_on_c, 9, 55, 0
1, 121440, Note_on_c, 9, 52, 80
1, 121679, Note_on_c, 9, 36, 0
1, 121680, Note_on_c, 9, 36, 80
1, 121919, Note_on_c, 9, 52, 0
1, 121919, Note_on_c, 9, 36, 0
1, 121920, Note_on_c, 9, 38, 80
1, 121920, Note_on_c, 9, 57, 80
1, 122399, Note_on_c, 9, 38, 0
1, 122399, Note_on_c, 9, 57, 0
1, 122400, Note_on_c, 9, 36, 80
1, 122864, Note_on_c, 9, 36, 0
1, 122865, End_track
2, 0, Start_track
2, 0, Title_t, "Instrument_01\000"
2, 0, Key_signature, 0, "major"
2, 0, Control_c, 0, 121, 0
2, 0, Program_c, 0, 38
2, 0, Control_c, 0, 7, 100
2, 0, Control_c, 0, 10, 64
2, 0, Control_c, 0, 91, 0
2, 0, Control_c, 0, 93, 0
2, 0, MIDI_port, 0
2, 0, Note_on_c, 0, 43, 80
2, 227, Note_on_c, 0, 43, 0
2, 240, Note_on_c, 0, 31, 80
2, 467, Note_on_c, 0, 31, 0
2, 480, Note_on_c, 0, 31, 80
2, 707, Note_on_c, 0, 31, 0
2, 720, Note_on_c, 0, 43, 80
2, 1175, Note_on_c, 0, 43, 0
2, 1200, Note_on_c, 0, 43, 80
2, 1427, Note_on_c, 0, 43, 0
2, 1440, Note_on_c, 0, 41, 80
2, 1667, Note_on_c, 0, 41, 0
2, 1680, Note_on_c, 0, 41, 80
2, 1907, Note_on_c, 0, 41, 0
2, 1920, Note_on_c, 0, 43, 80
2, 2147, Note_on_c, 0, 43, 0
2, 2160, Note_on_c, 0, 31, 80
2, 2387, Note_on_c, 0, 31, 0
2, 2400, Note_on_c, 0, 31, 80
2, 2627, Note_on_c, 0, 31, 0
2, 2640, Note_on_c, 0, 43, 80
2, 3095, Note_on_c, 0, 43, 0
2, 3120, Note_on_c, 0, 43, 80
2, 3347, Note_on_c, 0, 43, 0
2, 3360, Note_on_c, 0, 41, 80
2, 3587, Note_on_c, 0, 41, 0
2, 3600, Note_on_c, 0, 41, 80
2, 3827, Note_on_c, 0, 41, 0
2, 3840, Note_on_c, 0, 43, 80
2, 4067, Note_on_c, 0, 43, 0
2, 4080, Note_on_c, 0, 31, 80
2, 4307, Note_on_c, 0, 31, 0
2, 4320, Note_on_c, 0, 31, 80
2, 4547, Note_on_c, 0, 31, 0
2, 4560, Note_on_c, 0, 43, 80
2, 5015, Note_on_c, 0, 43, 0
2, 5040, Note_on_c, 0, 43, 80
2, 5267, Note_on_c, 0, 43, 0
2, 5280, Note_on_c, 0, 41, 80
2, 5507, Note_on_c, 0, 41, 0
2, 5520, Note_on_c, 0, 41, 80
2, 5747, Note_on_c, 0, 41, 0
2, 5760, Note_on_c, 0, 44, 80
2, 5987, Note_on_c, 0, 44, 0
2, 6000, Note_on_c, 0, 32, 80
2, 6227, Note_on_c, 0, 32, 0
2, 6240, Note_on_c, 0, 32, 80
2, 6467, Note_on_c, 0, 32, 0
2, 6480, Note_on_c, 0, 44, 80
2, 6935, Note_on_c, 0, 44, 0
2, 6960, Note_on_c, 0, 44, 80
2, 7187, Note_on_c, 0, 44, 0
2, 7200, Note_on_c, 0, 32, 80
2, 7655, Note_on_c, 0, 32, 0
2, 7680, Note_on_c, 0, 43, 80
2, 7907, Note_on_c, 0, 43, 0
2, 7920, Note_on_c, 0, 31, 80
2, 8147, Note_on_c, 0, 31, 0
2, 8160, Note_on_c, 0, 31, 80
2, 8387, Note_on_c, 0, 31, 0
2, 8400, Note_on_c, 0, 43, 80
2, 8855, Note_on_c, 0, 43, 0
2, 8880, Note_on_c, 0, 43, 80
2, 9107, Note_on_c, 0, 43, 0
2, 9120, Note_on_c, 0, 41, 80
2, 9347, Note_on_c, 0, 41, 0
2, 9360, Note_on_c, 0, 41, 80
2, 9587, Note_on_c, 0, 41, 0
2, 9600, Note_on_c, 0, 43, 80
2, 9827, Note_on_c, 0, 43, 0
2, 9840, Note_on_c, 0, 31, 80
2, 10067, Note_on_c, 0, 31, 0
2, 10080, Note_on_c, 0, 31, 80
2, 10307, Note_on_c, 0, 31, 0
2, 10320, Note_on_c, 0, 43, 80
2, 10775, Note_on_c, 0, 43, 0
2, 10800, Note_on_c, 0, 43, 80
2, 11027, Note_on_c, 0, 43, 0
2, 11040, Note_on_c, 0, 41, 80
2, 11267, Note_on_c, 0, 41, 0
2, 11280, Note_on_c, 0, 41, 80
2, 11507, Note_on_c, 0, 41, 0
2, 11520, Note_on_c, 0, 43, 80
2, 11747, Note_on_c, 0, 43, 0
2, 11760, Note_on_c, 0, 31, 80
2, 11987, Note_on_c, 0, 31, 0
2, 12000, Note_on_c, 0, 31, 80
2, 12227, Note_on_c, 0, 31, 0
2, 12240, Note_on_c, 0, 43, 80
2, 12695, Note_on_c, 0, 43, 0
2, 12720, Note_on_c, 0, 43, 80
2, 12947, Note_on_c, 0, 43, 0
2, 12960, Note_on_c, 0, 41, 80
2, 13187, Note_on_c, 0, 41, 0
2, 13200, Note_on_c, 0, 41, 80
2, 13427, Note_on_c, 0, 41, 0
2, 13440, Note_on_c, 0, 50, 80
2, 13667, Note_on_c, 0, 50, 0
2, 13680, Note_on_c, 0, 38, 80
2, 13907, Note_on_c, 0, 38, 0
2, 13920, Note_on_c, 0, 38, 80
2, 14147, Note_on_c, 0, 38, 0
2, 14160, Note_on_c, 0, 50, 80
2, 14615, Note_on_c, 0, 50, 0
2, 14640, Note_on_c, 0, 50, 80
2, 14867, Note_on_c, 0, 50, 0
2, 14880, Note_on_c, 0, 38, 80
2, 15335, Note_on_c, 0, 38, 0
2, 15360, Note_on_c, 0, 43, 80
2, 15587, Note_on_c, 0, 43, 0
2, 15600, Note_on_c, 0, 31, 80
2, 15827, Note_on_c, 0, 31, 0
2, 15840, Note_on_c, 0, 31, 80
2, 16067, Note_on_c, 0, 31, 0
2, 16080, Note_on_c, 0, 43, 80
2, 16535, Note_on_c, 0, 43, 0
2, 16560, Note_on_c, 0, 43, 80
2, 16787, Note_on_c, 0, 43, 0
2, 16800, Note_on_c, 0, 41, 80
2, 17027, Note_on_c, 0, 41, 0
2, 17040, Note_on_c, 0, 41, 80
2, 17267, Note_on_c, 0, 41, 0
2, 17280, Note_on_c, 0, 43, 80
2, 17507, Note_on_c, 0, 43, 0
2, 17520, Note_on_c, 0, 31, 80
2, 17747, Note_on_c, 0, 31, 0
2, 17760, Note_on_c, 0, 31, 80
2, 17987, Note_on_c, 0, 31, 0
2, 18000, Note_on_c, 0, 43, 80
2, 18455, Note_on_c, 0, 43, 0
2, 18480, Note_on_c, 0, 43, 80
2, 18707, Note_on_c, 0, 43, 0
2, 18720, Note_on_c, 0, 41, 80
2, 18947, Note_on_c, 0, 41, 0
2, 18960, Note_on_c, 0, 41, 80
2, 19187, Note_on_c, 0, 41, 0
2, 19200, Note_on_c, 0, 43, 80
2, 19427, Note_on_c, 0, 43, 0
2, 19440, Note_on_c, 0, 31, 80
2, 19667, Note_on_c, 0, 31, 0
2, 19680, Note_on_c, 0, 31, 80
2, 19907, Note_on_c, 0, 31, 0
2, 19920, Note_on_c, 0, 43, 80
2, 20375, Note_on_c, 0, 43, 0
2, 20400, Note_on_c, 0, 43, 80
2, 20627, Note_on_c, 0, 43, 0
2, 20640, Note_on_c, 0, 41, 80
2, 20867, Note_on_c, 0, 41, 0
2, 20880, Note_on_c, 0, 41, 80
2, 21107, Note_on_c, 0, 41, 0
2, 21120, Note_on_c, 0, 44, 80
2, 21347, Note_on_c, 0, 44, 0
2, 21360, Note_on_c, 0, 32, 80
2, 21587, Note_on_c, 0, 32, 0
2, 21600, Note_on_c, 0, 32, 80
2, 21827, Note_on_c, 0, 32, 0
2, 21840, Note_on_c, 0, 44, 80
2, 22295, Note_on_c, 0, 44, 0
2, 22320, Note_on_c, 0, 44, 80
2, 22547, Note_on_c, 0, 44, 0
2, 22560, Note_on_c, 0, 32, 80
2, 23015, Note_on_c, 0, 32, 0
2, 23040, Note_on_c, 0, 43, 80
2, 23267, Note_on_c, 0, 43, 0
2, 23280, Note_on_c, 0, 31, 80
2, 23507, Note_on_c, 0, 31, 0
2, 23520, Note_on_c, 0, 31, 80
2, 23747, Note_on_c, 0, 31, 0
2, 23760, Note_on_c, 0, 43, 80
2, 24215, Note_on_c, 0, 43, 0
2, 24240, Note_on_c, 0, 43, 80
2, 24467, Note_on_c, 0, 43, 0
2, 24480, Note_on_c, 0, 41, 80
2, 24707, Note_on_c, 0, 41, 0
2, 24720, Note_on_c, 0, 41, 80
2, 24947, Note_on_c, 0, 41, 0
2, 24960, Note_on_c, 0, 43, 80
2, 25187, Note_on_c, 0, 43, 0
2, 25200, Note_on_c, 0, 31, 80
2, 25427, Note_on_c, 0, 31, 0
2, 25440, Note_on_c, 0, 31, 80
2, 25667, Note_on_c, 0, 31, 0
2, 25680, Note_on_c, 0, 43, 80
2, 26135, Note_on_c, 0, 43, 0
2, 26160, Note_on_c, 0, 43, 80
2, 26387, Note_on_c, 0, 43, 0
2, 26400, Note_on_c, 0, 41, 80
2, 26627, Note_on_c, 0, 41, 0
2, 26640, Note_on_c, 0, 41, 80
2, 26867, Note_on_c, 0, 41, 0
2, 26880, Note_on_c, 0, 43, 80
2, 27107, Note_on_c, 0, 43, 0
2, 27120, Note_on_c, 0, 31, 80
2, 27347, Note_on_c, 0, 31, 0
2, 27360, Note_on_c, 0, 31, 80
2, 27587, Note_on_c, 0, 31, 0
2, 27600, Note_on_c, 0, 43, 80
2, 28055, Note_on_c, 0, 43, 0
2, 28080, Note_on_c, 0, 43, 80
2, 28307, Note_on_c, 0, 43, 0
2, 28320, Note_on_c, 0, 41, 80
2, 28547, Note_on_c, 0, 41, 0
2, 28560, Note_on_c, 0, 41, 80
2, 28787, Note_on_c, 0, 41, 0
2, 28800, Note_on_c, 0, 50, 80
2, 29027, Note_on_c, 0, 50, 0
2, 29040, Note_on_c, 0, 38, 80
2, 29267, Note_on_c, 0, 38, 0
2, 29280, Note_on_c, 0, 38, 80
2, 29507, Note_on_c, 0, 38, 0
2, 29520, Note_on_c, 0, 50, 80
2, 29975, Note_on_c, 0, 50, 0
2, 30000, Note_on_c, 0, 50, 80
2, 30227, Note_on_c, 0, 50, 0
2, 30240, Note_on_c, 0, 38, 80
2, 30695, Note_on_c, 0, 38, 0
2, 30720, Note_on_c, 0, 43, 80
2, 30947, Note_on_c, 0, 43, 0
2, 30960, Note_on_c, 0, 31, 80
2, 31187, Note_on_c, 0, 31, 0
2, 31200, Note_on_c, 0, 31, 80
2, 31427, Note_on_c, 0, 31, 0
2, 31440, Note_on_c, 0, 43, 80
2, 31895, Note_on_c, 0, 43, 0
2, 31920, Note_on_c, 0, 43, 80
2, 32147, Note_on_c, 0, 43, 0
2, 32160, Note_on_c, 0, 41, 80
2, 32387, Note_on_c, 0, 41, 0
2, 32400, Note_on_c, 0, 41, 80
2, 32627, Note_on_c, 0, 41, 0
2, 32640, Note_on_c, 0, 43, 80
2, 32867, Note_on_c, 0, 43, 0
2, 32880, Note_on_c, 0, 31, 80
2, 33107, Note_on_c, 0, 31, 0
2, 33120, Note_on_c, 0, 31, 80
2, 33347, Note_on_c, 0, 31, 0
2, 33360, Note_on_c, 0, 43, 80
2, 33815, Note_on_c, 0, 43, 0
2, 33840, Note_on_c, 0, 43, 80
2, 34067, Note_on_c, 0, 43, 0
2, 34080, Note_on_c, 0, 41, 80
2, 34307, Note_on_c, 0, 41, 0
2, 34320, Note_on_c, 0, 41, 80
2, 34547, Note_on_c, 0, 41, 0
2, 34560, Note_on_c, 0, 43, 80
2, 34787, Note_on_c, 0, 43, 0
2, 34800, Note_on_c, 0, 31, 80
2, 35027, Note_on_c, 0, 31, 0
2, 35040, Note_on_c, 0, 31, 80
2, 35267, Note_on_c, 0, 31, 0
2, 35280, Note_on_c, 0, 43, 80
2, 35735, Note_on_c, 0, 43, 0
2, 35760, Note_on_c, 0, 43, 80
2, 35987, Note_on_c, 0, 43, 0
2, 36000, Note_on_c, 0, 41, 80
2, 36227, Note_on_c, 0, 41, 0
2, 36240, Note_on_c, 0, 41, 80
2, 36467, Note_on_c, 0, 41, 0
2, 36480, Note_on_c, 0, 44, 80
2, 36707, Note_on_c, 0, 44, 0
2, 36720, Note_on_c, 0, 32, 80
2, 36947, Note_on_c, 0, 32, 0
2, 36960, Note_on_c, 0, 32, 80
2, 37187, Note_on_c, 0, 32, 0
2, 37200, Note_on_c, 0, 44, 80
2, 37655, Note_on_c, 0, 44, 0
2, 37680, Note_on_c, 0, 44, 80
2, 37907, Note_on_c, 0, 44, 0
2, 37920, Note_on_c, 0, 32, 80
2, 38375, Note_on_c, 0, 32, 0
2, 38400, Note_on_c, 0, 43, 80
2, 38627, Note_on_c, 0, 43, 0
2, 38640, Note_on_c, 0, 31, 80
2, 38867, Note_on_c, 0, 31, 0
2, 38880, Note_on_c, 0, 31, 80
2, 39107, Note_on_c, 0, 31, 0
2, 39120, Note_on_c, 0, 43, 80
2, 39575, Note_on_c, 0, 43, 0
2, 39600, Note_on_c, 0, 43, 80
2, 39827, Note_on_c, 0, 43, 0
2, 39840, Note_on_c, 0, 41, 80
2, 40067, Note_on_c, 0, 41, 0
2, 40080, Note_on_c, 0, 41, 80
2, 40307, Note_on_c, 0, 41, 0
2, 40320, Note_on_c, 0, 43, 80
2, 40547, Note_on_c, 0, 43, 0
2, 40560, Note_on_c, 0, 31, 80
2, 40787, Note_on_c, 0, 31, 0
2, 40800, Note_on_c, 0, 31, 80
2, 41027, Note_on_c, 0, 31, 0
2, 41040, Note_on_c, 0, 43, 80
2, 41495, Note_on_c, 0, 43, 0
2, 41520, Note_on_c, 0, 43, 80
2, 41747, Note_on_c, 0, 43, 0
2, 41760, Note_on_c, 0, 41, 80
2, 41987, Note_on_c, 0, 41, 0
2, 42000, Note_on_c, 0, 41, 80
2, 42227, Note_on_c, 0, 41, 0
2, 42240, Note_on_c, 0, 43, 80
2, 42467, Note_on_c, 0, 43, 0
2, 42480, Note_on_c, 0, 31, 80
2, 42707, Note_on_c, 0, 31, 0
2, 42720, Note_on_c, 0, 31, 80
2, 42947, Note_on_c, 0, 31, 0
2, 42960, Note_on_c, 0, 43, 80
2, 43415, Note_on_c, 0, 43, 0
2, 43440, Note_on_c, 0, 43, 80
2, 43667, Note_on_c, 0, 43, 0
2, 43680, Note_on_c, 0, 41, 80
2, 43907, Note_on_c, 0, 41, 0
2, 43920, Note_on_c, 0, 41, 80
2, 44147, Note_on_c, 0, 41, 0
2, 44160, Note_on_c, 0, 50, 80
2, 44387, Note_on_c, 0, 50, 0
2, 44400, Note_on_c, 0, 38, 80
2, 44627, Note_on_c, 0, 38, 0
2, 44640, Note_on_c, 0, 38, 80
2, 44867, Note_on_c, 0, 38, 0
2, 44880, Note_on_c, 0, 50, 80
2, 45335, Note_on_c, 0, 50, 0
2, 45360, Note_on_c, 0, 50, 80
2, 45587, Note_on_c, 0, 50, 0
2, 45600, Note_on_c, 0, 38, 80
2, 46055, Note_on_c, 0, 38, 0
2, 46080, Note_on_c, 0, 43, 80
2, 46307, Note_on_c, 0, 43, 0
2, 46320, Note_on_c, 0, 43, 80
2, 46547, Note_on_c, 0, 43, 0
2, 46560, Note_on_c, 0, 31, 80
2, 46787, Note_on_c, 0, 31, 0
2, 46800, Note_on_c, 0, 31, 80
2, 47255, Note_on_c, 0, 31, 0
2, 47280, Note_on_c, 0, 43, 80
2, 47507, Note_on_c, 0, 43, 0
2, 47520, Note_on_c, 0, 31, 80
2, 47975, Note_on_c, 0, 31, 0
2, 48000, Note_on_c, 0, 41, 80
2, 48227, Note_on_c, 0, 41, 0
2, 48240, Note_on_c, 0, 41, 80
2, 48467, Note_on_c, 0, 41, 0
2, 48480, Note_on_c, 0, 29, 80
2, 48707, Note_on_c, 0, 29, 0
2, 48720, Note_on_c, 0, 29, 80
2, 49175, Note_on_c, 0, 29, 0
2, 49200, Note_on_c, 0, 41, 80
2, 49427, Note_on_c, 0, 41, 0
2, 49440, Note_on_c, 0, 29, 80
2, 49895, Note_on_c, 0, 29, 0
2, 49920, Note_on_c, 0, 39, 80
2, 50147, Note_on_c, 0, 39, 0
2, 50160, Note_on_c, 0, 39, 80
2, 50387, Note_on_c, 0, 39, 0
2, 50400, Note_on_c, 0, 27, 80
2, 50627, Note_on_c, 0, 27, 0
2, 50640, Note_on_c, 0, 27, 80
2, 51095, Note_on_c, 0, 27, 0
2, 51120, Note_on_c, 0, 39, 80
2, 51347, Note_on_c, 0, 39, 0
2, 51360, Note_on_c, 0, 27, 80
2, 51815, Note_on_c, 0, 27, 0
2, 51840, Note_on_c, 0, 38, 80
2, 52067, Note_on_c, 0, 38, 0
2, 52080, Note_on_c, 0, 38, 80
2, 52307, Note_on_c, 0, 38, 0
2, 52320, Note_on_c, 0, 26, 80
2, 52547, Note_on_c, 0, 26, 0
2, 52560, Note_on_c, 0, 26, 80
2, 53015, Note_on_c, 0, 26, 0
2, 53040, Note_on_c, 0, 38, 80
2, 53267, Note_on_c, 0, 38, 0
2, 53280, Note_on_c, 0, 26, 80
2, 53735, Note_on_c, 0, 26, 0
2, 53760, Note_on_c, 0, 43, 80
2, 53987, Note_on_c, 0, 43, 0
2, 54000, Note_on_c, 0, 43, 80
2, 54227, Note_on_c, 0, 43, 0
2, 54240, Note_on_c, 0, 31, 80
2, 54467, Note_on_c, 0, 31, 0
2, 54480, Note_on_c, 0, 31, 80
2, 54935, Note_on_c, 0, 31, 0
2, 54960, Note_on_c, 0, 43, 80
2, 55187, Note_on_c, 0, 43, 0
2, 55200, Note_on_c, 0, 31, 80
2, 55655, Note_on_c, 0, 31, 0
2, 55680, Note_on_c, 0, 41, 80
2, 55907, Note_on_c, 0, 41, 0
2, 55920, Note_on_c, 0, 41, 80
2, 56147, Note_on_c, 0, 41, 0
2, 56160, Note_on_c, 0, 29, 80
2, 56387, Note_on_c, 0, 29, 0
2, 56400, Note_on_c, 0, 29, 80
2, 56855, Note_on_c, 0, 29, 0
2, 56880, Note_on_c, 0, 41, 80
2, 57107, Note_on_c, 0, 41, 0
2, 57120, Note_on_c, 0, 29, 80
2, 57575, Note_on_c, 0, 29, 0
2, 57600, Note_on_c, 0, 39, 80
2, 57827, Note_on_c, 0, 39, 0
2, 57840, Note_on_c, 0, 39, 80
2, 58067, Note_on_c, 0, 39, 0
2, 58080, Note_on_c, 0, 27, 80
2, 58307, Note_on_c, 0, 27, 0
2, 58320, Note_on_c, 0, 27, 80
2, 58775, Note_on_c, 0, 27, 0
2, 58800, Note_on_c, 0, 39, 80
2, 59027, Note_on_c, 0, 39, 0
2, 59040, Note_on_c, 0, 27, 80
2, 59495, Note_on_c, 0, 27, 0
2, 59520, Note_on_c, 0, 38, 80
2, 59747, Note_on_c, 0, 38, 0
2, 59760, Note_on_c, 0, 38, 80
2, 59987, Note_on_c, 0, 38, 0
2, 60000, Note_on_c, 0, 26, 80
2, 60227, Note_on_c, 0, 26, 0
2, 60240, Note_on_c, 0, 26, 80
2, 60695, Note_on_c, 0, 26, 0
2, 60720, Note_on_c, 0, 38, 80
2, 60947, Note_on_c, 0, 38, 0
2, 60960, Note_on_c, 0, 26, 80
2, 61415, Note_on_c, 0, 26, 0
2, 61440, Note_on_c, 0, 43, 80
2, 61553, Note_on_c, 0, 43, 0
2, 61560, Note_on_c, 0, 38, 80
2, 61673, Note_on_c, 0, 38, 0
2, 61680, Note_on_c, 0, 34, 80
2, 61793, Note_on_c, 0, 34, 0
2, 61800, Note_on_c, 0, 31, 80
2, 61913, Note_on_c, 0, 31, 0
2, 61920, Note_on_c, 0, 43, 80
2, 62033, Note_on_c, 0, 43, 0
2, 62040, Note_on_c, 0, 38, 80
2, 62153, Note_on_c, 0, 38, 0
2, 62160, Note_on_c, 0, 34, 80
2, 62273, Note_on_c, 0, 34, 0
2, 62280, Note_on_c, 0, 31, 80
2, 62393, Note_on_c, 0, 31, 0
2, 62400, Note_on_c, 0, 43, 80
2, 62513, Note_on_c, 0, 43, 0
2, 62520, Note_on_c, 0, 38, 80
2, 62633, Note_on_c, 0, 38, 0
2, 62640, Note_on_c, 0, 34, 80
2, 62753, Note_on_c, 0, 34, 0
2, 62760, Note_on_c, 0, 31, 80
2, 62873, Note_on_c, 0, 31, 0
2, 62880, Note_on_c, 0, 43, 80
2, 62993, Note_on_c, 0, 43, 0
2, 63000, Note_on_c, 0, 38, 80
2, 63113, Note_on_c, 0, 38, 0
2, 63120, Note_on_c, 0, 34, 80
2, 63233, Note_on_c, 0, 34, 0
2, 63240, Note_on_c, 0, 31, 80
2, 63353, Note_on_c, 0, 31, 0
2, 63360, Note_on_c, 0, 41, 80
2, 63473, Note_on_c, 0, 41, 0
2, 63480, Note_on_c, 0, 38, 80
2, 63593, Note_on_c, 0, 38, 0
2, 63600, Note_on_c, 0, 33, 80
2, 63713, Note_on_c, 0, 33, 0
2, 63720, Note_on_c, 0, 29, 80
2, 63833, Note_on_c, 0, 29, 0
2, 63840, Note_on_c, 0, 41, 80
2, 63953, Note_on_c, 0, 41, 0
2, 63960, Note_on_c, 0, 38, 80
2, 64073, Note_on_c, 0, 38, 0
2, 64080, Note_on_c, 0, 33, 80
2, 64193, Note_on_c, 0, 33, 0
2, 64200, Note_on_c, 0, 29, 80
2, 64313, Note_on_c, 0, 29, 0
2, 64320, Note_on_c, 0, 41, 80
2, 64433, Note_on_c, 0, 41, 0
2, 64440, Note_on_c, 0, 38, 80
2, 64553, Note_on_c, 0, 38, 0
2, 64560, Note_on_c, 0, 33, 80
2, 64673, Note_on_c, 0, 33, 0
2, 64680, Note_on_c, 0, 29, 80
2, 64793, Note_on_c, 0, 29, 0
2, 64800, Note_on_c, 0, 41, 80
2, 64913, Note_on_c, 0, 41, 0
2, 64920, Note_on_c, 0, 38, 80
2, 65033, Note_on_c, 0, 38, 0
2, 65040, Note_on_c, 0, 33, 80
2, 65153, Note_on_c, 0, 33, 0
2, 65160, Note_on_c, 0, 29, 80
2, 65273, Note_on_c, 0, 29, 0
2, 65280, Note_on_c, 0, 39, 80
2, 65393, Note_on_c, 0, 39, 0
2, 65400, Note_on_c, 0, 34, 80
2, 65513, Note_on_c, 0, 34, 0
2, 65520, Note_on_c, 0, 31, 80
2, 65633, Note_on_c, 0, 31, 0
2, 65640, Note_on_c, 0, 27, 80
2, 65753, Note_on_c, 0, 27, 0
2, 65760, Note_on_c, 0, 39, 80
2, 65873, Note_on_c, 0, 39, 0
2, 65880, Note_on_c, 0, 34, 80
2, 65993, Note_on_c, 0, 34, 0
2, 66000, Note_on_c, 0, 31, 80
2, 66113, Note_on_c, 0, 31, 0
2, 66120, Note_on_c, 0, 27, 80
2, 66233, Note_on_c, 0, 27, 0
2, 66240, Note_on_c, 0, 39, 80
2, 66353, Note_on_c, 0, 39, 0
2, 66360, Note_on_c, 0, 34, 80
2, 66473, Note_on_c, 0, 34, 0
2, 66480, Note_on_c, 0, 31, 80
2, 66593, Note_on_c, 0, 31, 0
2, 66600, Note_on_c, 0, 27, 80
2, 66713, Note_on_c, 0, 27, 0
2, 66720, Note_on_c, 0, 39, 80
2, 66833, Note_on_c, 0, 39, 0
2, 66840, Note_on_c, 0, 34, 80
2, 66953, Note_on_c, 0, 34, 0
2, 66960, Note_on_c, 0, 31, 80
2, 67073, Note_on_c, 0, 31, 0
2, 67080, Note_on_c, 0, 27, 80
2, 67193, Note_on_c, 0, 27, 0
2, 67200, Note_on_c, 0, 38, 80
2, 67313, Note_on_c, 0, 38, 0
2, 67320, Note_on_c, 0, 33, 80
2, 67433, Note_on_c, 0, 33, 0
2, 67440, Note_on_c, 0, 30, 80
2, 67553, Note_on_c, 0, 30, 0
2, 67560, Note_on_c, 0, 26, 80
2, 67673, Note_on_c, 0, 26, 0
2, 67680, Note_on_c, 0, 38, 80
2, 67793, Note_on_c, 0, 38, 0
2, 67800, Note_on_c, 0, 33, 80
2, 67913, Note_on_c, 0, 33, 0
2, 67920, Note_on_c, 0, 30, 80
2, 68033, Note_on_c, 0, 30, 0
2, 68040, Note_on_c, 0, 26, 80
2, 68153, Note_on_c, 0, 26, 0
2, 68160, Note_on_c, 0, 38, 80
2, 68273, Note_on_c, 0, 38, 0
2, 68280, Note_on_c, 0, 33, 80
2, 68393, Note_on_c, 0, 33, 0
2, 68400, Note_on_c, 0, 30, 80
2, 68513, Note_on_c, 0, 30, 0
2, 68520, Note_on_c, 0, 26, 80
2, 68633, Note_on_c, 0, 26, 0
2, 68640, Note_on_c, 0, 38, 80
2, 68753, Note_on_c, 0, 38, 0
2, 68760, Note_on_c, 0, 33, 80
2, 68873, Note_on_c, 0, 33, 0
2, 68880, Note_on_c, 0, 30, 80
2, 68993, Note_on_c, 0, 30, 0
2, 69000, Note_on_c, 0, 26, 80
2, 69113, Note_on_c, 0, 26, 0
2, 69120, Note_on_c, 0, 43, 80
2, 69233, Note_on_c, 0, 43, 0
2, 69240, Note_on_c, 0, 38, 80
2, 69353, Note_on_c, 0, 38, 0
2, 69360, Note_on_c, 0, 34, 80
2, 69473, Note_on_c, 0, 34, 0
2, 69480, Note_on_c, 0, 31, 80
2, 69593, Note_on_c, 0, 31, 0
2, 69600, Note_on_c, 0, 43, 80
2, 69713, Note_on_c, 0, 43, 0
2, 69720, Note_on_c, 0, 38, 80
2, 69833, Note_on_c, 0, 38, 0
2, 69840, Note_on_c, 0, 34, 80
2, 69953, Note_on_c, 0, 34, 0
2, 69960, Note_on_c, 0, 31, 80
2, 70073, Note_on_c, 0, 31, 0
2, 70080, Note_on_c, 0, 43, 80
2, 70193, Note_on_c, 0, 43, 0
2, 70200, Note_on_c, 0, 38, 80
2, 70313, Note_on_c, 0, 38, 0
2, 70320, Note_on_c, 0, 34, 80
2, 70433, Note_on_c, 0, 34, 0
2, 70440, Note_on_c, 0, 31, 80
2, 70553, Note_on_c, 0, 31, 0
2, 70560, Note_on_c, 0, 43, 80
2, 70673, Note_on_c, 0, 43, 0
2, 70680, Note_on_c, 0, 38, 80
2, 70793, Note_on_c, 0, 38, 0
2, 70800, Note_on_c, 0, 34, 80
2, 70913, Note_on_c, 0, 34, 0
2, 70920, Note_on_c, 0, 31, 80
2, 71033, Note_on_c, 0, 31, 0
2, 71040, Note_on_c, 0, 41, 80
2, 71153, Note_on_c, 0, 41, 0
2, 71160, Note_on_c, 0, 38, 80
2, 71273, Note_on_c, 0, 38, 0
2, 71280, Note_on_c, 0, 33, 80
2, 71393, Note_on_c, 0, 33, 0
2, 71400, Note_on_c, 0, 29, 80
2, 71513, Note_on_c, 0, 29, 0
2, 71520, Note_on_c, 0, 41, 80
2, 71633, Note_on_c, 0, 41, 0
2, 71640, Note_on_c, 0, 38, 80
2, 71753, Note_on_c, 0, 38, 0
2, 71760, Note_on_c, 0, 33, 80
2, 71873, Note_on_c, 0, 33, 0
2, 71880, Note_on_c, 0, 29, 80
2, 71993, Note_on_c, 0, 29, 0
2, 72000, Note_on_c, 0, 41, 80
2, 72113, Note_on_c, 0, 41, 0
2, 72120, Note_on_c, 0, 38, 80
2, 72233, Note_on_c, 0, 38, 0
2, 72240, Note_on_c, 0, 33, 80
2, 72353, Note_on_c, 0, 33, 0
2, 72360, Note_on_c, 0, 29, 80
2, 72473, Note_on_c, 0, 29, 0
2, 72480, Note_on_c, 0, 41, 80
2, 72593, Note_on_c, 0, 41, 0
2, 72600, Note_on_c, 0, 38, 80
2, 72713, Note_on_c, 0, 38, 0
2, 72720, Note_on_c, 0, 33, 80
2, 72833, Note_on_c, 0, 33, 0
2, 72840, Note_on_c, 0, 29, 80
2, 72953, Note_on_c, 0, 29, 0
2, 72960, Note_on_c, 0, 39, 80
2, 73073, Note_on_c, 0, 39, 0
2, 73080, Note_on_c, 0, 34, 80
2, 73193, Note_on_c, 0, 34, 0
2, 73200, Note_on_c, 0, 31, 80
2, 73313, Note_on_c, 0, 31, 0
2, 73320, Note_on_c, 0, 27, 80
2, 73433, Note_on_c, 0, 27, 0
2, 73440, Note_on_c, 0, 39, 80
2, 73553, Note_on_c, 0, 39, 0
2, 73560, Note_on_c, 0, 34, 80
2, 73673, Note_on_c, 0, 34, 0
2, 73680, Note_on_c, 0, 31, 80
2, 73793, Note_on_c, 0, 31, 0
2, 73800, Note_on_c, 0, 27, 80
2, 73913, Note_on_c, 0, 27, 0
2, 73920, Note_on_c, 0, 39, 80
2, 74033, Note_on_c, 0, 39, 0
2, 74040, Note_on_c, 0, 34, 80
2, 74153, Note_on_c, 0, 34, 0
2, 74160, Note_on_c, 0, 31, 80
2, 74273, Note_on_c, 0, 31, 0
2, 74280, Note_on_c, 0, 27, 80
2, 74393, Note_on_c, 0, 27, 0
2, 74400, Note_on_c, 0, 39, 80
2, 74513, Note_on_c, 0, 39, 0
2, 74520, Note_on_c, 0, 34, 80
2, 74633, Note_on_c, 0, 34, 0
2, 74640, Note_on_c, 0, 31, 80
2, 74753, Note_on_c, 0, 31, 0
2, 74760, Note_on_c, 0, 27, 80
2, 74873, Note_on_c, 0, 27, 0
2, 74880, Note_on_c, 0, 38, 80
2, 74993, Note_on_c, 0, 38, 0
2, 75000, Note_on_c, 0, 33, 80
2, 75113, Note_on_c, 0, 33, 0
2, 75120, Note_on_c, 0, 30, 80
2, 75233, Note_on_c, 0, 30, 0
2, 75240, Note_on_c, 0, 26, 80
2, 75353, Note_on_c, 0, 26, 0
2, 75360, Note_on_c, 0, 38, 80
2, 75473, Note_on_c, 0, 38, 0
2, 75480, Note_on_c, 0, 33, 80
2, 75593, Note_on_c, 0, 33, 0
2, 75600, Note_on_c, 0, 30, 80
2, 75713, Note_on_c, 0, 30, 0
2, 75720, Note_on_c, 0, 26, 80
2, 75833, Note_on_c, 0, 26, 0
2, 75840, Note_on_c, 0, 38, 80
2, 75953, Note_on_c, 0, 38, 0
2, 75960, Note_on_c, 0, 33, 80
2, 76073, Note_on_c, 0, 33, 0
2, 76080, Note_on_c, 0, 30, 80
2, 76193, Note_on_c, 0, 30, 0
2, 76200, Note_on_c, 0, 26, 80
2, 76313, Note_on_c, 0, 26, 0
2, 76320, Note_on_c, 0, 38, 80
2, 76433, Note_on_c, 0, 38, 0
2, 76440, Note_on_c, 0, 33, 80
2, 76553, Note_on_c, 0, 33, 0
2, 76560, Note_on_c, 0, 30, 80
2, 76673, Note_on_c, 0, 30, 0
2, 76680, Note_on_c, 0, 26, 80
2, 76793, Note_on_c, 0, 26, 0
2, 76800, Note_on_c, 0, 31, 80
2, 77027, Note_on_c, 0, 31, 0
2, 77040, Note_on_c, 0, 31, 80
2, 77267, Note_on_c, 0, 31, 0
2, 77280, Note_on_c, 0, 38, 80
2, 77507, Note_on_c, 0, 38, 0
2, 77520, Note_on_c, 0, 31, 80
2, 77747, Note_on_c, 0, 31, 0
2, 77760, Note_on_c, 0, 43, 80
2, 77987, Note_on_c, 0, 43, 0
2, 78000, Note_on_c, 0, 31, 80
2, 78227, Note_on_c, 0, 31, 0
2, 78240, Note_on_c, 0, 46, 80
2, 78467, Note_on_c, 0, 46, 0
2, 78480, Note_on_c, 0, 31, 80
2, 78707, Note_on_c, 0, 31, 0
2, 78720, Note_on_c, 0, 36, 80
2, 78947, Note_on_c, 0, 36, 0
2, 78960, Note_on_c, 0, 36, 80
2, 79187, Note_on_c, 0, 36, 0
2, 79200, Note_on_c, 0, 43, 80
2, 79427, Note_on_c, 0, 43, 0
2, 79440, Note_on_c, 0, 36, 80
2, 79667, Note_on_c, 0, 36, 0
2, 79680, Note_on_c, 0, 48, 80
2, 79907, Note_on_c, 0, 48, 0
2, 79920, Note_on_c, 0, 36, 80
2, 80147, Note_on_c, 0, 36, 0
2, 80160, Note_on_c, 0, 51, 80
2, 80387, Note_on_c, 0, 51, 0
2, 80400, Note_on_c, 0, 36, 80
2, 80627, Note_on_c, 0, 36, 0
2, 80640, Note_on_c, 0, 33, 80
2, 80867, Note_on_c, 0, 33, 0
2, 80880, Note_on_c, 0, 33, 80
2, 81107, Note_on_c, 0, 33, 0
2, 81120, Note_on_c, 0, 48, 80
2, 81347, Note_on_c, 0, 48, 0
2, 81360, Note_on_c, 0, 33, 80
2, 81587, Note_on_c, 0, 33, 0
2, 81600, Note_on_c, 0, 45, 80
2, 81827, Note_on_c, 0, 45, 0
2, 81840, Note_on_c, 0, 33, 80
2, 82067, Note_on_c, 0, 33, 0
2, 82080, Note_on_c, 0, 40, 80
2, 82307, Note_on_c, 0, 40, 0
2, 82320, Note_on_c, 0, 33, 80
2, 82547, Note_on_c, 0, 33, 0
2, 82560, Note_on_c, 0, 38, 80
2, 82787, Note_on_c, 0, 38, 0
2, 82800, Note_on_c, 0, 38, 80
2, 83027, Note_on_c, 0, 38, 0
2, 83040, Note_on_c, 0, 45, 80
2, 83267, Note_on_c, 0, 45, 0
2, 83280, Note_on_c, 0, 38, 80
2, 83507, Note_on_c, 0, 38, 0
2, 83520, Note_on_c, 0, 50, 80
2, 83747, Note_on_c, 0, 50, 0
2, 83760, Note_on_c, 0, 38, 80
2, 83987, Note_on_c, 0, 38, 0
2, 84000, Note_on_c, 0, 54, 80
2, 84227, Note_on_c, 0, 54, 0
2, 84240, Note_on_c, 0, 38, 80
2, 84467, Note_on_c, 0, 38, 0
2, 84480, Note_on_c, 0, 31, 80
2, 84707, Note_on_c, 0, 31, 0
2, 84720, Note_on_c, 0, 31, 80
2, 84947, Note_on_c, 0, 31, 0
2, 84960, Note_on_c, 0, 38, 80
2, 85187, Note_on_c, 0, 38, 0
2, 85200, Note_on_c, 0, 31, 80
2, 85427, Note_on_c, 0, 31, 0
2, 85440, Note_on_c, 0, 43, 80
2, 85667, Note_on_c, 0, 43, 0
2, 85680, Note_on_c, 0, 31, 80
2, 85907, Note_on_c, 0, 31, 0
2, 85920, Note_on_c, 0, 46, 80
2, 86147, Note_on_c, 0, 46, 0
2, 86160, Note_on_c, 0, 31, 80
2, 86387, Note_on_c, 0, 31, 0
2, 86400, Note_on_c, 0, 36, 80
2, 86627, Note_on_c, 0, 36, 0
2, 86640, Note_on_c, 0, 36, 80
2, 86867, Note_on_c, 0, 36, 0
2, 86880, Note_on_c, 0, 43, 80
2, 87107, Note_on_c, 0, 43, 0
2, 87120, Note_on_c, 0, 36, 80
2, 87347, Note_on_c, 0, 36, 0
2, 87360, Note_on_c, 0, 48, 80
2, 87587, Note_on_c, 0, 48, 0
2, 87600, Note_on_c, 0, 36, 80
2, 87827, Note_on_c, 0, 36, 0
2, 87840, Note_on_c, 0, 51, 80
2, 88067, Note_on_c, 0, 51, 0
2, 88080, Note_on_c, 0, 36, 80
2, 88307, Note_on_c, 0, 36, 0
2, 88320, Note_on_c, 0, 33, 80
2, 88547, Note_on_c, 0, 33, 0
2, 88560, Note_on_c, 0, 33, 80
2, 88787, Note_on_c, 0, 33, 0
2, 88800, Note_on_c, 0, 48, 80
2, 89027, Note_on_c, 0, 48, 0
2, 89040, Note_on_c, 0, 33, 80
2, 89267, Note_on_c, 0, 33, 0
2, 89280, Note_on_c, 0, 45, 80
2, 89507, Note_on_c, 0, 45, 0
2, 89520, Note_on_c, 0, 33, 80
2, 89747, Note_on_c, 0, 33, 0
2, 89760, Note_on_c, 0, 40, 80
2, 89987, Note_on_c, 0, 40, 0
2, 90000, Note_on_c, 0, 33, 80
2, 90227, Note_on_c, 0, 33, 0
2, 90240, Note_on_c, 0, 38, 80
2, 90467, Note_on_c, 0, 38, 0
2, 90480, Note_on_c, 0, 38, 80
2, 90707, Note_on_c, 0, 38, 0
2, 90720, Note_on_c, 0, 45, 80
2, 90947, Note_on_c, 0, 45, 0
2, 90960, Note_on_c, 0, 38, 80
2, 91187, Note_on_c, 0, 38, 0
2, 91200, Note_on_c, 0, 50, 80
2, 91427, Note_on_c, 0, 50, 0
2, 91440, Note_on_c, 0, 38, 80
2, 91667, Note_on_c, 0, 38, 0
2, 91680, Note_on_c, 0, 54, 80
2, 91907, Note_on_c, 0, 54, 0
2, 91920, Note_on_c, 0, 38, 80
2, 92147, Note_on_c, 0, 38, 0
2, 92160, Note_on_c, 0, 43, 80
2, 92843, Note_on_c, 0, 43, 0
2, 92880, Note_on_c, 0, 43, 80
2, 93563, Note_on_c, 0, 43, 0
2, 93600, Note_on_c, 0, 43, 80
2, 94055, Note_on_c, 0, 43, 0
2, 94080, Note_on_c, 0, 43, 80
2, 94763, Note_on_c, 0, 43, 0
2, 94800, Note_on_c, 0, 31, 80
2, 95027, Note_on_c, 0, 31, 0
2, 95040, Note_on_c, 0, 42, 80
2, 95495, Note_on_c, 0, 42, 0
2, 95520, Note_on_c, 0, 38, 80
2, 95975, Note_on_c, 0, 38, 0
2, 96000, Note_on_c, 0, 43, 80
2, 96683, Note_on_c, 0, 43, 0
2, 96720, Note_on_c, 0, 43, 80
2, 97403, Note_on_c, 0, 43, 0
2, 97440, Note_on_c, 0, 43, 80
2, 97895, Note_on_c, 0, 43, 0
2, 97920, Note_on_c, 0, 43, 80
2, 98603, Note_on_c, 0, 43, 0
2, 98640, Note_on_c, 0, 31, 80
2, 98867, Note_on_c, 0, 31, 0
2, 98880, Note_on_c, 0, 42, 80
2, 99335, Note_on_c, 0, 42, 0
2, 99360, Note_on_c, 0, 38, 80
2, 99815, Note_on_c, 0, 38, 0
2, 99840, Note_on_c, 0, 43, 80
2, 100523, Note_on_c, 0, 43, 0
2, 100560, Note_on_c, 0, 43, 80
2, 101243, Note_on_c, 0, 43, 0
2, 101280, Note_on_c, 0, 43, 80
2, 101735, Note_on_c, 0, 43, 0
2, 101760, Note_on_c, 0, 43, 80
2, 102443, Note_on_c, 0, 43, 0
2, 102480, Note_on_c, 0, 31, 80
2, 102707, Note_on_c, 0, 31, 0
2, 102720, Note_on_c, 0, 42, 80
2, 103175, Note_on_c, 0, 42, 0
2, 103200, Note_on_c, 0, 45, 80
2, 103655, Note_on_c, 0, 45, 0
2, 103680, Note_on_c, 0, 38, 80
2, 106415, Note_on_c, 0, 38, 0
2, 106560, Note_on_c, 0, 38, 80
2, 107471, Note_on_c, 0, 38, 0
2, 107520, Note_on_c, 0, 43, 80
2, 108203, Note_on_c, 0, 43, 0
2, 108240, Note_on_c, 0, 43, 80
2, 108923, Note_on_c, 0, 43, 0
2, 108960, Note_on_c, 0, 43, 80
2, 109415, Note_on_c, 0, 43, 0
2, 109440, Note_on_c, 0, 43, 80
2, 110123, Note_on_c, 0, 43, 0
2, 110160, Note_on_c, 0, 31, 80
2, 110387, Note_on_c, 0, 31, 0
2, 110400, Note_on_c, 0, 42, 80
2, 110855, Note_on_c, 0, 42, 0
2, 110880, Note_on_c, 0, 38, 80
2, 111335, Note_on_c, 0, 38, 0
2, 111360, Note_on_c, 0, 43, 80
2, 112043, Note_on_c, 0, 43, 0
2, 112080, Note_on_c, 0, 43, 80
2, 112763, Note_on_c, 0, 43, 0
2, 112800, Note_on_c, 0, 43, 80
2, 113255, Note_on_c, 0, 43, 0
2, 113280, Note_on_c, 0, 43, 80
2, 113963, Note_on_c, 0, 43, 0
2, 114000, Note_on_c, 0, 31, 80
2, 114227, Note_on_c, 0, 31, 0
2, 114240, Note_on_c, 0, 42, 80
2, 114695, Note_on_c, 0, 42, 0
2, 114720, Note_on_c, 0, 38, 80
2, 115175, Note_on_c, 0, 38, 0
2, 115200, Note_on_c, 0, 43, 80
2, 115883, Note_on_c, 0, 43, 0
2, 115920, Note_on_c, 0, 43, 80
2, 116603, Note_on_c, 0, 43, 0
2, 116640, Note_on_c, 0, 43, 80
2, 117095, Note_on_c, 0, 43, 0
2, 117120, Note_on_c, 0, 43, 80
2, 117803, Note_on_c, 0, 43, 0
2, 117840, Note_on_c, 0, 31, 80
2, 118067, Note_on_c, 0, 31, 0
2, 118080, Note_on_c, 0, 42, 80
2, 118535, Note_on_c, 0, 42, 0
2, 118560, Note_on_c, 0, 45, 80
2, 119015, Note_on_c, 0, 45, 0
2, 119040, Note_on_c, 0, 38, 80
2, 121775, Note_on_c, 0, 38, 0
2, 121920, Note_on_c, 0, 38, 80
2, 122824, Note_on_c, 0, 38, 0
2, 122825, End_track
3, 0, Start_track
3, 0, Title_t, "Instrument_02\000"
3, 0, Key_signature, 0, "major"
3, 0, Control_c, 1, 121, 0
3, 0, Program_c, 1, 50
3, 0, Control_c, 1, 7, 100
3, 0, Control_c, 1, 10, 64
3, 0, Control_c, 1, 91, 0
3, 0, Control_c, 1, 93, 0
3, 0, MIDI_port, 0
3, 0, Note_on_c, 1, 67, 64
3, 1439, Note_on_c, 1, 67, 0
3, 1440, Note_on_c, 1, 68, 64
3, 1919, Note_on_c, 1, 68, 0
3, 1920, Note_on_c, 1, 67, 64
3, 3359, Note_on_c, 1, 67, 0
3, 3360, Note_on_c, 1, 68, 64
3, 3839, Note_on_c, 1, 68, 0
3, 3840, Note_on_c, 1, 67, 64
3, 5279, Note_on_c, 1, 67, 0
3, 5280, Note_on_c, 1, 68, 64
3, 5759, Note_on_c, 1, 68, 0
3, 5760, Note_on_c, 1, 66, 64
3, 7583, Note_on_c, 1, 66, 0
3, 7680, Note_on_c, 1, 67, 64
3, 9119, Note_on_c, 1, 67, 0
3, 9120, Note_on_c, 1, 68, 64
3, 9599, Note_on_c, 1, 68, 0
3, 9600, Note_on_c, 1, 67, 64
3, 11039, Note_on_c, 1, 67, 0
3, 11040, Note_on_c, 1, 68, 64
3, 11519, Note_on_c, 1, 68, 0
3, 11520, Note_on_c, 1, 67, 64
3, 12959, Note_on_c, 1, 67, 0
3, 12960, Note_on_c, 1, 68, 64
3, 13439, Note_on_c, 1, 68, 0
3, 13440, Note_on_c, 1, 66, 64
3, 15263, Note_on_c, 1, 66, 0
3, 15360, Note_on_c, 1, 67, 64
3, 16799, Note_on_c, 1, 67, 0
3, 16800, Note_on_c, 1, 68, 64
3, 17279, Note_on_c, 1, 68, 0
3, 17280, Note_on_c, 1, 67, 64
3, 18719, Note_on_c, 1, 67, 0
3, 18720, Note_on_c, 1, 68, 64
3, 19199, Note_on_c, 1, 68, 0
3, 19200, Note_on_c, 1, 67, 64
3, 20639, Note_on_c, 1, 67, 0
3, 20640, Note_on_c, 1, 68, 64
3, 21119, Note_on_c, 1, 68, 0
3, 21120, Note_on_c, 1, 66, 64
3, 22943, Note_on_c, 1, 66, 0
3, 23040, Note_on_c, 1, 67, 64
3, 24479, Note_on_c, 1, 67, 0
3, 24480, Note_on_c, 1, 68, 64
3, 24959, Note_on_c, 1, 68, 0
3, 24960, Note_on_c, 1, 67, 64
3, 26399, Note_on_c, 1, 67, 0
3, 26400, Note_on_c, 1, 68, 64
3, 26879, Note_on_c, 1, 68, 0
3, 26880, Note_on_c, 1, 67, 64
3, 28319, Note_on_c, 1, 67, 0
3, 28320, Note_on_c, 1, 68, 64
3, 28799, Note_on_c, 1, 68, 0
3, 28800, Note_on_c, 1, 66, 64
3, 30623, Note_on_c, 1, 66, 0
3, 30720, Note_on_c, 1, 67, 64
3, 32159, Note_on_c, 1, 67, 0
3, 32160, Note_on_c, 1, 68, 64
3, 32639, Note_on_c, 1, 68, 0
3, 32640, Note_on_c, 1, 67, 64
3, 34079, Note_on_c, 1, 67, 0
3, 34080, Note_on_c, 1, 68, 64
3, 34559, Note_on_c, 1, 68, 0
3, 34560, Note_on_c, 1, 67, 64
3, 35999, Note_on_c, 1, 67, 0
3, 36000, Note_on_c, 1, 68, 64
3, 36479, Note_on_c, 1, 68, 0
3, 36480, Note_on_c, 1, 66, 64
3, 38303, Note_on_c, 1, 66, 0
3, 38400, Note_on_c, 1, 67, 64
3, 39839, Note_on_c, 1, 67, 0
3, 39840, Note_on_c, 1, 68, 64
3, 40319, Note_on_c, 1, 68, 0
3, 40320, Note_on_c, 1, 67, 64
3, 41759, Note_on_c, 1, 67, 0
3, 41760, Note_on_c, 1, 68, 64
3, 42239, Note_on_c, 1, 68, 0
3, 42240, Note_on_c, 1, 67, 64
3, 43679, Note_on_c, 1, 67, 0
3, 43680, Note_on_c, 1, 68, 64
3, 44159, Note_on_c, 1, 68, 0
3, 44160, Note_on_c, 1, 66, 64
3, 45983, Note_on_c, 1, 66, 0
3, 46080, Note_on_c, 1, 67, 64
3, 47999, Note_on_c, 1, 67, 0
3, 48000, Note_on_c, 1, 69, 64
3, 49919, Note_on_c, 1, 69, 0
3, 49920, Note_on_c, 1, 67, 64
3, 51839, Note_on_c, 1, 67, 0
3, 51840, Note_on_c, 1, 66, 64
3, 53663, Note_on_c, 1, 66, 0
3, 53760, Note_on_c, 1, 67, 64
3, 55679, Note_on_c, 1, 67, 0
3, 55680, Note_on_c, 1, 69, 64
3, 57599, Note_on_c, 1, 69, 0
3, 57600, Note_on_c, 1, 67, 64
3, 59519, Note_on_c, 1, 67, 0
3, 59520, Note_on_c, 1, 66, 64
3, 61343, Note_on_c, 1, 66, 0
3, 61440, Note_on_c, 1, 67, 64
3, 63359, Note_on_c, 1, 67, 0
3, 63360, Note_on_c, 1, 69, 64
3, 65279, Note_on_c, 1, 69, 0
3, 65280, Note_on_c, 1, 67, 64
3, 67199, Note_on_c, 1, 67, 0
3, 67200, Note_on_c, 1, 66, 64
3, 69023, Note_on_c, 1, 66, 0
3, 69120, Note_on_c, 1, 67, 64
3, 71039, Note_on_c, 1, 67, 0
3, 71040, Note_on_c, 1, 69, 64
3, 72959, Note_on_c, 1, 69, 0
3, 72960, Note_on_c, 1, 67, 64
3, 74879, Note_on_c, 1, 67, 0
3, 74880, Note_on_c, 1, 66, 64
3, 76703, Note_on_c, 1, 66, 0
3, 76800, Note_on_c, 1, 67, 64
3, 82559, Note_on_c, 1, 67, 0
3, 82560, Note_on_c, 1, 66, 64
3, 84383, Note_on_c, 1, 66, 0
3, 84480, Note_on_c, 1, 67, 64
3, 90239, Note_on_c, 1, 67, 0
3, 90240, Note_on_c, 1, 66, 64
3, 92063, Note_on_c, 1, 66, 0
3, 92160, Note_on_c, 1, 67, 64
3, 93119, Note_on_c, 1, 67, 0
3, 93120, Note_on_c, 1, 65, 64
3, 94079, Note_on_c, 1, 65, 0
3, 94080, Note_on_c, 1, 63, 64
3, 95039, Note_on_c, 1, 63, 0
3, 95040, Note_on_c, 1, 62, 64
3, 95951, Note_on_c, 1, 62, 0
3, 96000, Note_on_c, 1, 67, 64
3, 96959, Note_on_c, 1, 67, 0
3, 96960, Note_on_c, 1, 65, 64
3, 97919, Note_on_c, 1, 65, 0
3, 97920, Note_on_c, 1, 63, 64
3, 98879, Note_on_c, 1, 63, 0
3, 98880, Note_on_c, 1, 62, 64
3, 99791, Note_on_c, 1, 62, 0
3, 99840, Note_on_c, 1, 67, 64
3, 100799, Note_on_c, 1, 67, 0
3, 100800, Note_on_c, 1, 65, 64
3, 101759, Note_on_c, 1, 65, 0
3, 101760, Note_on_c, 1, 63, 64
3, 102719, Note_on_c, 1, 63, 0
3, 102720, Note_on_c, 1, 69, 64
3, 103199, Note_on_c, 1, 69, 0
3, 103200, Note_on_c, 1, 67, 64
3, 103655, Note_on_c, 1, 67, 0
3, 103680, Note_on_c, 1, 66, 64
3, 104639, Note_on_c, 1, 66, 0
3, 104640, Note_on_c, 1, 67, 64
3, 105599, Note_on_c, 1, 67, 0
3, 105600, Note_on_c, 1, 69, 64
3, 106559, Note_on_c, 1, 69, 0
3, 106560, Note_on_c, 1, 66, 64
3, 107471, Note_on_c, 1, 66, 0
3, 107520, Note_on_c, 1, 67, 64
3, 108479, Note_on_c, 1, 67, 0
3, 108480, Note_on_c, 1, 65, 64
3, 109439, Note_on_c, 1, 65, 0
3, 109440, Note_on_c, 1, 63, 64
3, 110399, Note_on_c, 1, 63, 0
3, 110400, Note_on_c, 1, 62, 64
3, 111311, Note_on_c, 1, 62, 0
3, 111360, Note_on_c, 1, 67, 64
3, 112319, Note_on_c, 1, 67, 0
3, 112320, Note_on_c, 1, 65, 64
3, 113279, Note_on_c, 1, 65, 0
3, 113280, Note_on_c, 1, 63, 64
3, 114239, Note_on_c, 1, 63, 0
3, 114240, Note_on_c, 1, 62, 64
3, 115151, Note_on_c, 1, 62, 0
3, 115200, Note_on_c, 1, 67, 64
3, 116159, Note_on_c, 1, 67, 0
3, 116160, Note_on_c, 1, 65, 64
3, 117119, Note_on_c, 1, 65, 0
3, 117120, Note_on_c, 1, 63, 64
3, 118079, Note_on_c, 1, 63, 0
3, 118080, Note_on_c, 1, 69, 64
3, 118559, Note_on_c, 1, 69, 0
3, 118560, Note_on_c, 1, 67, 64
3, 119015, Note_on_c, 1, 67, 0
3, 119040, Note_on_c, 1, 66, 64
3, 119999, Note_on_c, 1, 66, 0
3, 120000, Note_on_c, 1, 67, 64
3, 120959, Note_on_c, 1, 67, 0
3, 120960, Note_on_c, 1, 69, 64
3, 121919, Note_on_c, 1, 69, 0
3, 121920, Note_on_c, 1, 66, 64
3, 122860, Note_on_c, 1, 66, 0
3, 122861, End_track
4, 0, Start_track
4, 0, Title_t, "Instrument_03\000"
4, 0, Key_signature, 0, "major"
4, 0, Control_c, 2, 121, 0
4, 0, Program_c, 2, 50
4, 0, Control_c, 2, 7, 100
4, 0, Control_c, 2, 10, 64
4, 0, Control_c, 2, 91, 0
4, 0, Control_c, 2, 93, 0
4, 0, MIDI_port, 0
4, 0, Note_on_c, 2, 58, 64
4, 1439, Note_on_c, 2, 58, 0
4, 1440, Note_on_c, 2, 60, 64
4, 1919, Note_on_c, 2, 60, 0
4, 1920, Note_on_c, 2, 58, 64
4, 3359, Note_on_c, 2, 58, 0
4, 3360, Note_on_c, 2, 60, 64
4, 3839, Note_on_c, 2, 60, 0
4, 3840, Note_on_c, 2, 58, 64
4, 5279, Note_on_c, 2, 58, 0
4, 5280, Note_on_c, 2, 60, 64
4, 7583, Note_on_c, 2, 60, 0
4, 7680, Note_on_c, 2, 58, 64
4, 9119, Note_on_c, 2, 58, 0
4, 9120, Note_on_c, 2, 60, 64
4, 9599, Note_on_c, 2, 60, 0
4, 9600, Note_on_c, 2, 58, 64
4, 11039, Note_on_c, 2, 58, 0
4, 11040, Note_on_c, 2, 60, 64
4, 11519, Note_on_c, 2, 60, 0
4, 11520, Note_on_c, 2, 58, 64
4, 12959, Note_on_c, 2, 58, 0
4, 12960, Note_on_c, 2, 60, 64
4, 15263, Note_on_c, 2, 60, 0
4, 15360, Note_on_c, 2, 58, 64
4, 16799, Note_on_c, 2, 58, 0
4, 16800, Note_on_c, 2, 60, 64
4, 17279, Note_on_c, 2, 60, 0
4, 17280, Note_on_c, 2, 58, 64
4, 18719, Note_on_c, 2, 58, 0
4, 18720, Note_on_c, 2, 60, 64
4, 19199, Note_on_c, 2, 60, 0
4, 19200, Note_on_c, 2, 58, 64
4, 20639, Note_on_c, 2, 58, 0
4, 20640, Note_on_c, 2, 60, 64
4, 22943, Note_on_c, 2, 60, 0
4, 23040, Note_on_c, 2, 58, 64
4, 24479, Note_on_c, 2, 58, 0
4, 24480, Note_on_c, 2, 60, 64
4, 24959, Note_on_c, 2, 60, 0
4, 24960, Note_on_c, 2, 58, 64
4, 26399, Note_on_c, 2, 58, 0
4, 26400, Note_on_c, 2, 60, 64
4, 26879, Note_on_c, 2, 60, 0
4, 26880, Note_on_c, 2, 58, 64
4, 28319, Note_on_c, 2, 58, 0
4, 28320, Note_on_c, 2, 60, 64
4, 30623, Note_on_c, 2, 60, 0
4, 30720, Note_on_c, 2, 58, 64
4, 32159, Note_on_c, 2, 58, 0
4, 32160, Note_on_c, 2, 60, 64
4, 32639, Note_on_c, 2, 60, 0
4, 32640, Note_on_c, 2, 58, 64
4, 34079, Note_on_c, 2, 58, 0
4, 34080, Note_on_c, 2, 60, 64
4, 34559, Note_on_c, 2, 60, 0
4, 34560, Note_on_c, 2, 58, 64
4, 35999, Note_on_c, 2, 58, 0
4, 36000, Note_on_c, 2, 60, 64
4, 38303, Note_on_c, 2, 60, 0
4, 38400, Note_on_c, 2, 58, 64
4, 39839, Note_on_c, 2, 58, 0
4, 39840, Note_on_c, 2, 60, 64
4, 40319, Note_on_c, 2, 60, 0
4, 40320, Note_on_c, 2, 58, 64
4, 41759, Note_on_c, 2, 58, 0
4, 41760, Note_on_c, 2, 60, 64
4, 42239, Note_on_c, 2, 60, 0
4, 42240, Note_on_c, 2, 58, 64
4, 43679, Note_on_c, 2, 58, 0
4, 43680, Note_on_c, 2, 60, 64
4, 45983, Note_on_c, 2, 60, 0
4, 46080, Note_on_c, 2, 58, 64
4, 47999, Note_on_c, 2, 58, 0
4, 48000, Note_on_c, 2, 62, 64
4, 49919, Note_on_c, 2, 62, 0
4, 49920, Note_on_c, 2, 58, 64
4, 51839, Note_on_c, 2, 58, 0
4, 51840, Note_on_c, 2, 60, 64
4, 53663, Note_on_c, 2, 60, 0
4, 53760, Note_on_c, 2, 58, 64
4, 55679, Note_on_c, 2, 58, 0
4, 55680, Note_on_c, 2, 62, 64
4, 57599, Note_on_c, 2, 62, 0
4, 57600, Note_on_c, 2, 58, 64
4, 59519, Note_on_c, 2, 58, 0
4, 59520, Note_on_c, 2, 60, 64
4, 61343, Note_on_c, 2, 60, 0
4, 61440, Note_on_c, 2, 58, 64
4, 63359, Note_on_c, 2, 58, 0
4, 63360, Note_on_c, 2, 62, 64
4, 65279, Note_on_c, 2, 62, 0
4, 65280, Note_on_c, 2, 58, 64
4, 67199, Note_on_c, 2, 58, 0
4, 67200, Note_on_c, 2, 60, 64
4, 69023, Note_on_c, 2, 60, 0
4, 69120, Note_on_c, 2, 58, 64
4, 71039, Note_on_c, 2, 58, 0
4, 71040, Note_on_c, 2, 62, 64
4, 72959, Note_on_c, 2, 62, 0
4, 72960, Note_on_c, 2, 58, 64
4, 74879, Note_on_c, 2, 58, 0
4, 74880, Note_on_c, 2, 60, 64
4, 76703, Note_on_c, 2, 60, 0
4, 76800, Note_on_c, 2, 58, 64
4, 78719, Note_on_c, 2, 58, 0
4, 78720, Note_on_c, 2, 60, 64
4, 82559, Note_on_c, 2, 60, 0
4, 82560, Note_on_c, 2, 60, 64
4, 84383, Note_on_c, 2, 60, 0
4, 84480, Note_on_c, 2, 58, 64
4, 86399, Note_on_c, 2, 58, 0
4, 86400, Note_on_c, 2, 60, 64
4, 90239, Note_on_c, 2, 60, 0
4, 90240, Note_on_c, 2, 60, 64
4, 92063, Note_on_c, 2, 60, 0
4, 92160, Note_on_c, 2, 58, 64
4, 93119, Note_on_c, 2, 58, 0
4, 93120, Note_on_c, 2, 62, 64
4, 94079, Note_on_c, 2, 62, 0
4, 94080, Note_on_c, 2, 60, 64
4, 95039, Note_on_c, 2, 60, 0
4, 95040, Note_on_c, 2, 57, 64
4, 95951, Note_on_c, 2, 57, 0
4, 96000, Note_on_c, 2, 58, 64
4, 96959, Note_on_c, 2, 58, 0
4, 96960, Note_on_c, 2, 62, 64
4, 97919, Note_on_c, 2, 62, 0
4, 97920, Note_on_c, 2, 60, 64
4, 98879, Note_on_c, 2, 60, 0
4, 98880, Note_on_c, 2, 57, 64
4, 99791, Note_on_c, 2, 57, 0
4, 99840, Note_on_c, 2, 58, 64
4, 100799, Note_on_c, 2, 58, 0
4, 100800, Note_on_c, 2, 62, 64
4, 101759, Note_on_c, 2, 62, 0
4, 101760, Note_on_c, 2, 60, 64
4, 102719, Note_on_c, 2, 60, 0
4, 102720, Note_on_c, 2, 57, 64
4, 103631, Note_on_c, 2, 57, 0
4, 103680, Note_on_c, 2, 57, 64
4, 104639, Note_on_c, 2, 57, 0
4, 104640, Note_on_c, 2, 58, 64
4, 105599, Note_on_c, 2, 58, 0
4, 105600, Note_on_c, 2, 60, 64
4, 106559, Note_on_c, 2, 60, 0
4, 106560, Note_on_c, 2, 62, 64
4, 107471, Note_on_c, 2, 62, 0
4, 107520, Note_on_c, 2, 58, 64
4, 108479, Note_on_c, 2, 58, 0
4, 108480, Note_on_c, 2, 62, 64
4, 109439, Note_on_c, 2, 62, 0
4, 109440, Note_on_c, 2, 60, 64
4, 110399, Note_on_c, 2, 60, 0
4, 110400, Note_on_c, 2, 57, 64
4, 111311, Note_on_c, 2, 57, 0
4, 111360, Note_on_c, 2, 58, 64
4, 112319, Note_on_c, 2, 58, 0
4, 112320, Note_on_c, 2, 62, 64
4, 113279, Note_on_c, 2, 62, 0
4, 113280, Note_on_c, 2, 60, 64
4, 114239, Note_on_c, 2, 60, 0
4, 114240, Note_on_c, 2, 57, 64
4, 115151, Note_on_c, 2, 57, 0
4, 115200, Note_on_c, 2, 58, 64
4, 116159, Note_on_c, 2, 58, 0
4, 116160, Note_on_c, 2, 62, 64
4, 117119, Note_on_c, 2, 62, 0
4, 117120, Note_on_c, 2, 60, 64
4, 118079, Note_on_c, 2, 60, 0
4, 118080, Note_on_c, 2, 57, 64
4, 118991, Note_on_c, 2, 57, 0
4, 119040, Note_on_c, 2, 57, 64
4, 119999, Note_on_c, 2, 57, 0
4, 120000, Note_on_c, 2, 58, 64
4, 120959, Note_on_c, 2, 58, 0
4, 120960, Note_on_c, 2, 60, 64
4, 121919, Note_on_c, 2, 60, 0
4, 121920, Note_on_c, 2, 62, 64
4, 122860, Note_on_c, 2, 62, 0
4, 122861, End_track
5, 0, Start_track
5, 0, Title_t, "Instrument_04\000"
5, 0, Key_signature, 0, "major"
5, 0, Control_c, 3, 121, 0
5, 0, Program_c, 3, 50
5, 0, Control_c, 3, 7, 100
5, 0, Control_c, 3, 10, 64
5, 0, Control_c, 3, 91, 0
5, 0, Control_c, 3, 93, 0
5, 0, MIDI_port, 0
5, 0, Note_on_c, 3, 31, 64
5, 1439, Note_on_c, 3, 31, 0
5, 1440, Note_on_c, 3, 29, 64
5, 1919, Note_on_c, 3, 29, 0
5, 1920, Note_on_c, 3, 31, 64
5, 3359, Note_on_c, 3, 31, 0
5, 3360, Note_on_c, 3, 29, 64
5, 3839, Note_on_c, 3, 29, 0
5, 3840, Note_on_c, 3, 31, 64
5, 5279, Note_on_c, 3, 31, 0
5, 5280, Note_on_c, 3, 29, 64
5, 5759, Note_on_c, 3, 29, 0
5, 5760, Note_on_c, 3, 32, 64
5, 7583, Note_on_c, 3, 32, 0
5, 7680, Note_on_c, 3, 31, 64
5, 9119, Note_on_c, 3, 31, 0
5, 9120, Note_on_c, 3, 29, 64
5, 9599, Note_on_c, 3, 29, 0
5, 9600, Note_on_c, 3, 31, 64
5, 11039, Note_on_c, 3, 31, 0
5, 11040, Note_on_c, 3, 29, 64
5, 11519, Note_on_c, 3, 29, 0
5, 11520, Note_on_c, 3, 31, 64
5, 12959, Note_on_c, 3, 31, 0
5, 12960, Note_on_c, 3, 29, 64
5, 13439, Note_on_c, 3, 29, 0
5, 13440, Note_on_c, 3, 26, 64
5, 15263, Note_on_c, 3, 26, 0
5, 15360, Note_on_c, 3, 31, 64
5, 16799, Note_on_c, 3, 31, 0
5, 16800, Note_on_c, 3, 29, 64
5, 17279, Note_on_c, 3, 29, 0
5, 17280, Note_on_c, 3, 31, 64
5, 18719, Note_on_c, 3, 31, 0
5, 18720, Note_on_c, 3, 29, 64
5, 19199, Note_on_c, 3, 29, 0
5, 19200, Note_on_c, 3, 31, 64
5, 20639, Note_on_c, 3, 31, 0
5, 20640, Note_on_c, 3, 29, 64
5, 21119, Note_on_c, 3, 29, 0
5, 21120, Note_on_c, 3, 32, 64
5, 22943, Note_on_c, 3, 32, 0
5, 23040, Note_on_c, 3, 31, 64
5, 24479, Note_on_c, 3, 31, 0
5, 24480, Note_on_c, 3, 29, 64
5, 24959, Note_on_c, 3, 29, 0
5, 24960, Note_on_c, 3, 31, 64
5, 26399, Note_on_c, 3, 31, 0
5, 26400, Note_on_c, 3, 29, 64
5, 26879, Note_on_c, 3, 29, 0
5, 26880, Note_on_c, 3, 31, 64
5, 28319, Note_on_c, 3, 31, 0
5, 28320, Note_on_c, 3, 29, 64
5, 28799, Note_on_c, 3, 29, 0
5, 28800, Note_on_c, 3, 26, 64
5, 30623, Note_on_c, 3, 26, 0
5, 30720, Note_on_c, 3, 31, 64
5, 32159, Note_on_c, 3, 31, 0
5, 32160, Note_on_c, 3, 29, 64
5, 32639, Note_on_c, 3, 29, 0
5, 32640, Note_on_c, 3, 31, 64
5, 34079, Note_on_c, 3, 31, 0
5, 34080, Note_on_c, 3, 29, 64
5, 34559, Note_on_c, 3, 29, 0
5, 34560, Note_on_c, 3, 31, 64
5, 35999, Note_on_c, 3, 31, 0
5, 36000, Note_on_c, 3, 29, 64
5, 36479, Note_on_c, 3, 29, 0
5, 36480, Note_on_c, 3, 32, 64
5, 38303, Note_on_c, 3, 32, 0
5, 38400, Note_on_c, 3, 31, 64
5, 39839, Note_on_c, 3, 31, 0
5, 39840, Note_on_c, 3, 29, 64
5, 40319, Note_on_c, 3, 29, 0
5, 40320, Note_on_c, 3, 31, 64
5, 41759, Note_on_c, 3, 31, 0
5, 41760, Note_on_c, 3, 29, 64
5, 42239, Note_on_c, 3, 29, 0
5, 42240, Note_on_c, 3, 31, 64
5, 43679, Note_on_c, 3, 31, 0
5, 43680, Note_on_c, 3, 29, 64
5, 44159, Note_on_c, 3, 29, 0
5, 44160, Note_on_c, 3, 26, 64
5, 45983, Note_on_c, 3, 26, 0
5, 46080, Note_on_c, 3, 31, 64
5, 47999, Note_on_c, 3, 31, 0
5, 48000, Note_on_c, 3, 29, 64
5, 49919, Note_on_c, 3, 29, 0
5, 49920, Note_on_c, 3, 27, 64
5, 51839, Note_on_c, 3, 27, 0
5, 51840, Note_on_c, 3, 26, 64
5, 53663, Note_on_c, 3, 26, 0
5, 53760, Note_on_c, 3, 31, 64
5, 55679, Note_on_c, 3, 31, 0
5, 55680, Note_on_c, 3, 29, 64
5, 57599, Note_on_c, 3, 29, 0
5, 57600, Note_on_c, 3, 27, 64
5, 59519, Note_on_c, 3, 27, 0
5, 59520, Note_on_c, 3, 26, 64
5, 61343, Note_on_c, 3, 26, 0
5, 61440, Note_on_c, 3, 31, 64
5, 63359, Note_on_c, 3, 31, 0
5, 63360, Note_on_c, 3, 29, 64
5, 65279, Note_on_c, 3, 29, 0
5, 65280, Note_on_c, 3, 27, 64
5, 67199, Note_on_c, 3, 27, 0
5, 67200, Note_on_c, 3, 26, 64
5, 69023, Note_on_c, 3, 26, 0
5, 69120, Note_on_c, 3, 31, 64
5, 71039, Note_on_c, 3, 31, 0
5, 71040, Note_on_c, 3, 29, 64
5, 72959, Note_on_c, 3, 29, 0
5, 72960, Note_on_c, 3, 27, 64
5, 74879, Note_on_c, 3, 27, 0
5, 74880, Note_on_c, 3, 26, 64
5, 76703, Note_on_c, 3, 26, 0
5, 76800, Note_on_c, 3, 31, 64
5, 78719, Note_on_c, 3, 31, 0
5, 78720, Note_on_c, 3, 36, 64
5, 80639, Note_on_c, 3, 36, 0
5, 80640, Note_on_c, 3, 33, 64
5, 82559, Note_on_c, 3, 33, 0
5, 82560, Note_on_c, 3, 38, 64
5, 84383, Note_on_c, 3, 38, 0
5, 84480, Note_on_c, 3, 31, 64
5, 86399, Note_on_c, 3, 31, 0
5, 86400, Note_on_c, 3, 36, 64
5, 88319, Note_on_c, 3, 36, 0
5, 88320, Note_on_c, 3, 33, 64
5, 90239, Note_on_c, 3, 33, 0
5, 90240, Note_on_c, 3, 38, 64
5, 92063, Note_on_c, 3, 38, 0
5, 92160, Note_on_c, 3, 31, 64
5, 95039, Note_on_c, 3, 31, 0
5, 95040, Note_on_c, 3, 30, 64
5, 95999, Note_on_c, 3, 30, 0
5, 96000, Note_on_c, 3, 31, 64
5, 98879, Note_on_c, 3, 31, 0
5, 98880, Note_on_c, 3, 30, 64
5, 99839, Note_on_c, 3, 30, 0
5, 99840, Note_on_c, 3, 31, 64
5, 102719, Note_on_c, 3, 31, 0
5, 102720, Note_on_c, 3, 30, 64
5, 103679, Note_on_c, 3, 30, 0
5, 103680, Note_on_c, 3, 26, 64
5, 107423, Note_on_c, 3, 26, 0
5, 107520, Note_on_c, 3, 31, 64
5, 110399, Note_on_c, 3, 31, 0
5, 110400, Note_on_c, 3, 30, 64
5, 111359, Note_on_c, 3, 30, 0
5, 111360, Note_on_c, 3, 31, 64
5, 114239, Note_on_c, 3, 31, 0
5, 114240, Note_on_c, 3, 30, 64
5, 115199, Note_on_c, 3, 30, 0
5, 115200, Note_on_c, 3, 31, 64
5, 118079, Note_on_c, 3, 31, 0
5, 118080, Note_on_c, 3, 30, 64
5, 119039, Note_on_c, 3, 30, 0
5, 119040, Note_on_c, 3, 26, 64
5, 122860, Note_on_c, 3, 26, 0
5, 122861, End_track
6, 0, Start_track
6, 0, Title_t, "Instrument_05\000"
6, 0, Key_signature, 0, "major"
6, 0, Control_c, 4, 121, 0
6, 0, Program_c, 4, 80
6, 0, Control_c, 4, 7, 100
6, 0, Control_c, 4, 10, 64
6, 0, Control_c, 4, 91, 0
6, 0, Control_c, 4, 93, 0
6, 0, MIDI_port, 0
6, 14160, Note_on_c, 4, 74, 96
6, 14399, Note_on_c, 4, 74, 0
6, 14400, Note_on_c, 4, 76, 96
6, 14639, Note_on_c, 4, 76, 0
6, 14640, Note_on_c, 4, 78, 96
6, 14879, Note_on_c, 4, 78, 0
6, 14880, Note_on_c, 4, 79, 96
6, 15119, Note_on_c, 4, 79, 0
6, 15120, Note_on_c, 4, 81, 96
6, 15347, Note_on_c, 4, 81, 0
6, 15360, Note_on_c, 4, 82, 96
6, 15599, Note_on_c, 4, 82, 0
6, 15600, Note_on_c, 4, 74, 96
6, 15839, Note_on_c, 4, 74, 0
6, 15840, Note_on_c, 4, 84, 96
6, 16079, Note_on_c, 4, 84, 0
6, 16080, Note_on_c, 4, 74, 96
6, 16319, Note_on_c, 4, 74, 0
6, 16320, Note_on_c, 4, 86, 96
6, 16559, Note_on_c, 4, 86, 0
6, 16560, Note_on_c, 4, 74, 96
6, 16799, Note_on_c, 4, 74, 0
6, 16800, Note_on_c, 4, 84, 96
6, 17039, Note_on_c, 4, 84, 0
6, 17040, Note_on_c, 4, 77, 96
6, 17279, Note_on_c, 4, 77, 0
6, 17280, Note_on_c, 4, 82, 96
6, 17519, Note_on_c, 4, 82, 0
6, 17520, Note_on_c, 4, 74, 96
6, 17759, Note_on_c, 4, 74, 0
6, 17760, Note_on_c, 4, 80, 96
6, 17999, Note_on_c, 4, 80, 0
6, 18000, Note_on_c, 4, 74, 96
6, 18239, Note_on_c, 4, 74, 0
6, 18240, Note_on_c, 4, 79, 96
6, 18479, Note_on_c, 4, 79, 0
6, 18480, Note_on_c, 4, 74, 96
6, 18719, Note_on_c, 4, 74, 0
6, 18720, Note_on_c, 4, 80, 96
6, 18959, Note_on_c, 4, 80, 0
6, 18960, Note_on_c, 4, 77, 96
6, 19187, Note_on_c, 4, 77, 0
6, 19200, Note_on_c, 4, 82, 96
6, 19439, Note_on_c, 4, 82, 0
6, 19440, Note_on_c, 4, 74, 96
6, 19679, Note_on_c, 4, 74, 0
6, 19680, Note_on_c, 4, 84, 96
6, 19919, Note_on_c, 4, 84, 0
6, 19920, Note_on_c, 4, 74, 96
6, 20159, Note_on_c, 4, 74, 0
6, 20160, Note_on_c, 4, 86, 96
6, 20399, Note_on_c, 4, 86, 0
6, 20400, Note_on_c, 4, 74, 96
6, 20639, Note_on_c, 4, 74, 0
6, 20640, Note_on_c, 4, 84, 96
6, 20879, Note_on_c, 4, 84, 0
6, 20880, Note_on_c, 4, 77, 96
6, 21119, Note_on_c, 4, 77, 0
6, 21120, Note_on_c, 4, 84, 96
6, 21359, Note_on_c, 4, 84, 0
6, 21360, Note_on_c, 4, 72, 96
6, 21599, Note_on_c, 4, 72, 0
6, 21600, Note_on_c, 4, 82, 96
6, 21839, Note_on_c, 4, 82, 0
6, 21840, Note_on_c, 4, 72, 96
6, 22079, Note_on_c, 4, 72, 0
6, 22080, Note_on_c, 4, 80, 96
6, 22319, Note_on_c, 4, 80, 0
6, 22320, Note_on_c, 4, 72, 96
6, 22559, Note_on_c, 4, 72, 0
6, 22560, Note_on_c, 4, 84, 96
6, 22799, Note_on_c, 4, 84, 0
6, 22800, Note_on_c, 4, 72, 96
6, 23027, Note_on_c, 4, 72, 0
6, 23040, Note_on_c, 4, 82, 96
6, 23279, Note_on_c, 4, 82, 0
6, 23280, Note_on_c, 4, 74, 96
6, 23519, Note_on_c, 4, 74, 0
6, 23520, Note_on_c, 4, 84, 96
6, 23759, Note_on_c, 4, 84, 0
6, 23760, Note_on_c, 4, 74, 96
6, 23999, Note_on_c, 4, 74, 0
6, 24000, Note_on_c, 4, 86, 96
6, 24239, Note_on_c, 4, 86, 0
6, 24240, Note_on_c, 4, 74, 96
6, 24479, Note_on_c, 4, 74, 0
6, 24480, Note_on_c, 4, 84, 96
6, 24719, Note_on_c, 4, 84, 0
6, 24720, Note_on_c, 4, 77, 96
6, 24959, Note_on_c, 4, 77, 0
6, 24960, Note_on_c, 4, 82, 96
6, 25199, Note_on_c, 4, 82, 0
6, 25200, Note_on_c, 4, 74, 96
6, 25439, Note_on_c, 4, 74, 0
6, 25440, Note_on_c, 4, 80, 96
6, 25679, Note_on_c, 4, 80, 0
6, 25680, Note_on_c, 4, 74, 96
6, 25919, Note_on_c, 4, 74, 0
6, 25920, Note_on_c, 4, 79, 96
6, 26159, Note_on_c, 4, 79, 0
6, 26160, Note_on_c, 4, 74, 96
6, 26399, Note_on_c, 4, 74, 0
6, 26400, Note_on_c, 4, 80, 96
6, 26639, Note_on_c, 4, 80, 0
6, 26640, Note_on_c, 4, 77, 96
6, 26867, Note_on_c, 4, 77, 0
6, 26880, Note_on_c, 4, 82, 96
6, 27119, Note_on_c, 4, 82, 0
6, 27120, Note_on_c, 4, 74, 96
6, 27359, Note_on_c, 4, 74, 0
6, 27360, Note_on_c, 4, 84, 96
6, 27599, Note_on_c, 4, 84, 0
6, 27600, Note_on_c, 4, 74, 96
6, 27839, Note_on_c, 4, 74, 0
6, 27840, Note_on_c, 4, 86, 96
6, 28079, Note_on_c, 4, 86, 0
6, 28080, Note_on_c, 4, 74, 96
6, 28319, Note_on_c, 4, 74, 0
6, 28320, Note_on_c, 4, 84, 96
6, 28559, Note_on_c, 4, 84, 0
6, 28560, Note_on_c, 4, 77, 96
6, 28799, Note_on_c, 4, 77, 0
6, 28800, Note_on_c, 4, 86, 96
6, 29039, Note_on_c, 4, 86, 0
6, 29040, Note_on_c, 4, 78, 96
6, 29279, Note_on_c, 4, 78, 0
6, 29280, Note_on_c, 4, 84, 96
6, 29519, Note_on_c, 4, 84, 0
6, 29520, Note_on_c, 4, 78, 96
6, 29759, Note_on_c, 4, 78, 0
6, 29760, Note_on_c, 4, 81, 96
6, 29999, Note_on_c, 4, 81, 0
6, 30000, Note_on_c, 4, 74, 96
6, 30239, Note_on_c, 4, 74, 0
6, 30240, Note_on_c, 4, 81, 96
6, 30479, Note_on_c, 4, 81, 0
6, 30480, Note_on_c, 4, 74, 96
6, 30707, Note_on_c, 4, 74, 0
6, 30720, Note_on_c, 4, 82, 96
6, 30959, Note_on_c, 4, 82, 0
6, 30960, Note_on_c, 4, 74, 96
6, 31199, Note_on_c, 4, 74, 0
6, 31200, Note_on_c, 4, 84, 96
6, 31439, Note_on_c, 4, 84, 0
6, 31440, Note_on_c, 4, 74, 96
6, 31679, Note_on_c, 4, 74, 0
6, 31680, Note_on_c, 4, 86, 96
6, 31919, Note_on_c, 4, 86, 0
6, 31920, Note_on_c, 4, 74, 96
6, 32159, Note_on_c, 4, 74, 0
6, 32160, Note_on_c, 4, 84, 96
6, 32399, Note_on_c, 4, 84, 0
6, 32400, Note_on_c, 4, 77, 96
6, 32639, Note_on_c, 4, 77, 0
6, 32640, Note_on_c, 4, 82, 96
6, 32879, Note_on_c, 4, 82, 0
6, 32880, Note_on_c, 4, 74, 96
6, 33119, Note_on_c, 4, 74, 0
6, 33120, Note_on_c, 4, 80, 96
6, 33359, Note_on_c, 4, 80, 0
6, 33360, Note_on_c, 4, 74, 96
6, 33599, Note_on_c, 4, 74, 0
6, 33600, Note_on_c, 4, 79, 96
6, 33839, Note_on_c, 4, 79, 0
6, 33840, Note_on_c, 4, 74, 96
6, 34079, Note_on_c, 4, 74, 0
6, 34080, Note_on_c, 4, 80, 96
6, 34319, Note_on_c, 4, 80, 0
6, 34320, Note_on_c, 4, 77, 96
6, 34547, Note_on_c, 4, 77, 0
6, 34560, Note_on_c, 4, 82, 96
6, 34799, Note_on_c, 4, 82, 0
6, 34800, Note_on_c, 4, 74, 96
6, 35039, Note_on_c, 4, 74, 0
6, 35040, Note_on_c, 4, 84, 96
6, 35279, Note_on_c, 4, 84, 0
6, 35280, Note_on_c, 4, 74, 96
6, 35519, Note_on_c, 4, 74, 0
6, 35520, Note_on_c, 4, 86, 96
6, 35759, Note_on_c, 4, 86, 0
6, 35760, Note_on_c, 4, 74, 96
6, 35999, Note_on_c, 4, 74, 0
6, 36000, Note_on_c, 4, 84, 96
6, 36239, Note_on_c, 4, 84, 0
6, 36240, Note_on_c, 4, 77, 96
6, 36479, Note_on_c, 4, 77, 0
6, 36480, Note_on_c, 4, 84, 96
6, 36719, Note_on_c, 4, 84, 0
6, 36720, Note_on_c, 4, 72, 96
6, 36959, Note_on_c, 4, 72, 0
6, 36960, Note_on_c, 4, 82, 96
6, 37199, Note_on_c, 4, 82, 0
6, 37200, Note_on_c, 4, 72, 96
6, 37439, Note_on_c, 4, 72, 0
6, 37440, Note_on_c, 4, 80, 96
6, 37679, Note_on_c, 4, 80, 0
6, 37680, Note_on_c, 4, 72, 96
6, 37919, Note_on_c, 4, 72, 0
6, 37920, Note_on_c, 4, 84, 96
6, 38159, Note_on_c, 4, 84, 0
6, 38160, Note_on_c, 4, 72, 96
6, 38387, Note_on_c, 4, 72, 0
6, 38400, Note_on_c, 4, 82, 96
6, 38639, Note_on_c, 4, 82, 0
6, 38640, Note_on_c, 4, 74, 96
6, 38879, Note_on_c, 4, 74, 0
6, 38880, Note_on_c, 4, 84, 96
6, 39119, Note_on_c, 4, 84, 0
6, 39120, Note_on_c, 4, 74, 96
6, 39359, Note_on_c, 4, 74, 0
6, 39360, Note_on_c, 4, 86, 96
6, 39599, Note_on_c, 4, 86, 0
6, 39600, Note_on_c, 4, 74, 96
6, 39839, Note_on_c, 4, 74, 0
6, 39840, Note_on_c, 4, 84, 96
6, 40079, Note_on_c, 4, 84, 0
6, 40080, Note_on_c, 4, 77, 96
6, 40319, Note_on_c, 4, 77, 0
6, 40320, Note_on_c, 4, 82, 96
6, 40559, Note_on_c, 4, 82, 0
6, 40560, Note_on_c, 4, 74, 96
6, 40799, Note_on_c, 4, 74, 0
6, 40800, Note_on_c, 4, 80, 96
6, 41039, Note_on_c, 4, 80, 0
6, 41040, Note_on_c, 4, 74, 96
6, 41279, Note_on_c, 4, 74, 0
6, 41280, Note_on_c, 4, 79, 96
6, 41519, Note_on_c, 4, 79, 0
6, 41520, Note_on_c, 4, 74, 96
6, 41759, Note_on_c, 4, 74, 0
6, 41760, Note_on_c, 4, 80, 96
6, 41999, Note_on_c, 4, 80, 0
6, 42000, Note_on_c, 4, 77, 96
6, 42227, Note_on_c, 4, 77, 0
6, 42240, Note_on_c, 4, 82, 96
6, 42479, Note_on_c, 4, 82, 0
6, 42480, Note_on_c, 4, 74, 96
6, 42719, Note_on_c, 4, 74, 0
6, 42720, Note_on_c, 4, 84, 96
6, 42959, Note_on_c, 4, 84, 0
6, 42960, Note_on_c, 4, 74, 96
6, 43199, Note_on_c, 4, 74, 0
6, 43200, Note_on_c, 4, 86, 96
6, 43439, Note_on_c, 4, 86, 0
6, 43440, Note_on_c, 4, 74, 96
6, 43679, Note_on_c, 4, 74, 0
6, 43680, Note_on_c, 4, 84, 96
6, 43919, Note_on_c, 4, 84, 0
6, 43920, Note_on_c, 4, 77, 96
6, 44159, Note_on_c, 4, 77, 0
6, 44160, Note_on_c, 4, 86, 96
6, 44399, Note_on_c, 4, 86, 0
6, 44400, Note_on_c, 4, 78, 96
6, 44639, Note_on_c, 4, 78, 0
6, 44640, Note_on_c, 4, 84, 96
6, 44879, Note_on_c, 4, 84, 0
6, 44880, Note_on_c, 4, 78, 96
6, 45119, Note_on_c, 4, 78, 0
6, 45120, Note_on_c, 4, 81, 96
6, 45359, Note_on_c, 4, 81, 0
6, 45360, Note_on_c, 4, 74, 96
6, 45599, Note_on_c, 4, 74, 0
6, 45600, Note_on_c, 4, 81, 96
6, 45839, Note_on_c, 4, 81, 0
6, 45840, Note_on_c, 4, 74, 96
6, 46067, Note_on_c, 4, 74, 0
6, 46080, Note_on_c, 4, 79, 96
6, 46319, Note_on_c, 4, 79, 0
6, 46320, Note_on_c, 4, 70, 96
6, 46559, Note_on_c, 4, 70, 0
6, 46560, Note_on_c, 4, 77, 96
6, 46799, Note_on_c, 4, 77, 0
6, 46800, Note_on_c, 4, 70, 96
6, 47039, Note_on_c, 4, 70, 0
6, 47040, Note_on_c, 4, 76, 96
6, 47279, Note_on_c, 4, 76, 0
6, 47280, Note_on_c, 4, 70, 96
6, 47519, Note_on_c, 4, 70, 0
6, 47520, Note_on_c, 4, 74, 96
6, 47759, Note_on_c, 4, 74, 0
6, 47760, Note_on_c, 4, 70, 96
6, 47999, Note_on_c, 4, 70, 0
6, 48000, Note_on_c, 4, 74, 96
6, 48239, Note_on_c, 4, 74, 0
6, 48240, Note_on_c, 4, 65, 96
6, 48479, Note_on_c, 4, 65, 0
6, 48480, Note_on_c, 4, 72, 96
6, 48719, Note_on_c, 4, 72, 0
6, 48720, Note_on_c, 4, 65, 96
6, 48959, Note_on_c, 4, 65, 0
6, 48960, Note_on_c, 4, 70, 96
6, 49199, Note_on_c, 4, 70, 0
6, 49200, Note_on_c, 4, 65, 96
6, 49439, Note_on_c, 4, 65, 0
6, 49440, Note_on_c, 4, 69, 96
6, 49679, Note_on_c, 4, 69, 0
6, 49680, Note_on_c, 4, 65, 96
6, 49907, Note_on_c, 4, 65, 0
6, 49920, Note_on_c, 4, 70, 96
6, 50159, Note_on_c, 4, 70, 0
6, 50160, Note_on_c, 4, 67, 96
6, 50399, Note_on_c, 4, 67, 0
6, 50400, Note_on_c, 4, 72, 96
6, 50639, Note_on_c, 4, 72, 0
6, 50640, Note_on_c, 4, 67, 96
6, 50879, Note_on_c, 4, 67, 0
6, 50880, Note_on_c, 4, 74, 96
6, 51119, Note_on_c, 4, 74, 0
6, 51120, Note_on_c, 4, 67, 96
6, 51359, Note_on_c, 4, 67, 0
6, 51360, Note_on_c, 4, 75, 96
6, 51599, Note_on_c, 4, 75, 0
6, 51600, Note_on_c, 4, 67, 96
6, 51839, Note_on_c, 4, 67, 0
6, 51840, Note_on_c, 4, 74, 96
6, 52079, Note_on_c, 4, 74, 0
6, 52080, Note_on_c, 4, 69, 96
6, 52319, Note_on_c, 4, 69, 0
6, 52320, Note_on_c, 4, 76, 96
6, 52559, Note_on_c, 4, 76, 0
6, 52560, Note_on_c, 4, 69, 96
6, 52799, Note_on_c, 4, 69, 0
6, 52800, Note_on_c, 4, 78, 96
6, 53039, Note_on_c, 4, 78, 0
6, 53040, Note_on_c, 4, 69, 96
6, 53279, Note_on_c, 4, 69, 0
6, 53280, Note_on_c, 4, 81, 96
6, 53519, Note_on_c, 4, 81, 0
6, 53520, Note_on_c, 4, 74, 96
6, 53747, Note_on_c, 4, 74, 0
6, 53760, Note_on_c, 4, 79, 96
6, 53999, Note_on_c, 4, 79, 0
6, 54000, Note_on_c, 4, 70, 96
6, 54239, Note_on_c, 4, 70, 0
6, 54240, Note_on_c, 4, 77, 96
6, 54479, Note_on_c, 4, 77, 0
6, 54480, Note_on_c, 4, 70, 96
6, 54719, Note_on_c, 4, 70, 0
6, 54720, Note_on_c, 4, 76, 96
6, 54959, Note_on_c, 4, 76, 0
6, 54960, Note_on_c, 4, 70, 96
6, 55199, Note_on_c, 4, 70, 0
6, 55200, Note_on_c, 4, 74, 96
6, 55439, Note_on_c, 4, 74, 0
6, 55440, Note_on_c, 4, 70, 96
6, 55679, Note_on_c, 4, 70, 0
6, 55680, Note_on_c, 4, 74, 96
6, 55919, Note_on_c, 4, 74, 0
6, 55920, Note_on_c, 4, 65, 96
6, 56159, Note_on_c, 4, 65, 0
6, 56160, Note_on_c, 4, 72, 96
6, 56399, Note_on_c, 4, 72, 0
6, 56400, Note_on_c, 4, 65, 96
6, 56639, Note_on_c, 4, 65, 0
6, 56640, Note_on_c, 4, 70, 96
6, 56879, Note_on_c, 4, 70, 0
6, 56880, Note_on_c, 4, 65, 96
6, 57119, Note_on_c, 4, 65, 0
6, 57120, Note_on_c, 4, 69, 96
6, 57359, Note_on_c, 4, 69, 0
6, 57360, Note_on_c, 4, 65, 96
6, 57587, Note_on_c, 4, 65, 0
6, 57600, Note_on_c, 4, 70, 96
6, 57839, Note_on_c, 4, 70, 0
6, 57840, Note_on_c, 4, 67, 96
6, 58079, Note_on_c, 4, 67, 0
6, 58080, Note_on_c, 4, 72, 96
6, 58319, Note_on_c, 4, 72, 0
6, 58320, Note_on_c, 4, 67, 96
6, 58559, Note_on_c, 4, 67, 0
6, 58560, Note_on_c, 4, 74, 96
6, 58799, Note_on_c, 4, 74, 0
6, 58800, Note_on_c, 4, 67, 96
6, 59039, Note_on_c, 4, 67, 0
6, 59040, Note_on_c, 4, 75, 96
6, 59279, Note_on_c, 4, 75, 0
6, 59280, Note_on_c, 4, 67, 96
6, 59519, Note_on_c, 4, 67, 0
6, 59520, Note_on_c, 4, 74, 96
6, 59759, Note_on_c, 4, 74, 0
6, 59760, Note_on_c, 4, 69, 96
6, 59999, Note_on_c, 4, 69, 0
6, 60000, Note_on_c, 4, 76, 96
6, 60239, Note_on_c, 4, 76, 0
6, 60240, Note_on_c, 4, 69, 96
6, 60479, Note_on_c, 4, 69, 0
6, 60480, Note_on_c, 4, 78, 96
6, 60719, Note_on_c, 4, 78, 0
6, 60720, Note_on_c, 4, 69, 96
6, 60959, Note_on_c, 4, 69, 0
6, 60960, Note_on_c, 4, 81, 96
6, 61199, Note_on_c, 4, 81, 0
6, 61200, Note_on_c, 4, 74, 96
6, 61427, Note_on_c, 4, 74, 0
6, 61440, Note_on_c, 4, 79, 96
6, 61679, Note_on_c, 4, 79, 0
6, 61680, Note_on_c, 4, 70, 96
6, 61919, Note_on_c, 4, 70, 0
6, 61920, Note_on_c, 4, 77, 96
6, 62159, Note_on_c, 4, 77, 0
6, 62160, Note_on_c, 4, 70, 96
6, 62399, Note_on_c, 4, 70, 0
6, 62400, Note_on_c, 4, 76, 96
6, 62639, Note_on_c, 4, 76, 0
6, 62640, Note_on_c, 4, 70, 96
6, 62879, Note_on_c, 4, 70, 0
6, 62880, Note_on_c, 4, 74, 96
6, 63119, Note_on_c, 4, 74, 0
6, 63120, Note_on_c, 4, 70, 96
6, 63359, Note_on_c, 4, 70, 0
6, 63360, Note_on_c, 4, 74, 96
6, 63599, Note_on_c, 4, 74, 0
6, 63600, Note_on_c, 4, 65, 96
6, 63839, Note_on_c, 4, 65, 0
6, 63840, Note_on_c, 4, 72, 96
6, 64079, Note_on_c, 4, 72, 0
6, 64080, Note_on_c, 4, 65, 96
6, 64319, Note_on_c, 4, 65, 0
6, 64320, Note_on_c, 4, 70, 96
6, 64559, Note_on_c, 4, 70, 0
6, 64560, Note_on_c, 4, 65, 96
6, 64799, Note_on_c, 4, 65, 0
6, 64800, Note_on_c, 4, 69, 96
6, 65039, Note_on_c, 4, 69, 0
6, 65040, Note_on_c, 4, 65, 96
6, 65267, Note_on_c, 4, 65, 0
6, 65280, Note_on_c, 4, 70, 96
6, 65519, Note_on_c, 4, 70, 0
6, 65520, Note_on_c, 4, 67, 96
6, 65759, Note_on_c, 4, 67, 0
6, 65760, Note_on_c, 4, 72, 96
6, 65999, Note_on_c, 4, 72, 0
6, 66000, Note_on_c, 4, 67, 96
6, 66239, Note_on_c, 4, 67, 0
6, 66240, Note_on_c, 4, 74, 96
6, 66479, Note_on_c, 4, 74, 0
6, 66480, Note_on_c, 4, 67, 96
6, 66719, Note_on_c, 4, 67, 0
6, 66720, Note_on_c, 4, 75, 96
6, 66959, Note_on_c, 4, 75, 0
6, 66960, Note_on_c, 4, 67, 96
6, 67199, Note_on_c, 4, 67, 0
6, 67200, Note_on_c, 4, 74, 96
6, 67439, Note_on_c, 4, 74, 0
6, 67440, Note_on_c, 4, 69, 96
6, 67679, Note_on_c, 4, 69, 0
6, 67680, Note_on_c, 4, 76, 96
6, 67919, Note_on_c, 4, 76, 0
6, 67920, Note_on_c, 4, 69, 96
6, 68159, Note_on_c, 4, 69, 0
6, 68160, Note_on_c, 4, 78, 96
6, 68399, Note_on_c, 4, 78, 0
6, 68400, Note_on_c, 4, 69, 96
6, 68639, Note_on_c, 4, 69, 0
6, 68640, Note_on_c, 4, 81, 96
6, 68879, Note_on_c, 4, 81, 0
6, 68880, Note_on_c, 4, 74, 96
6, 69107, Note_on_c, 4, 74, 0
6, 69120, Note_on_c, 4, 79, 96
6, 69359, Note_on_c, 4, 79, 0
6, 69360, Note_on_c, 4, 70, 96
6, 69599, Note_on_c, 4, 70, 0
6, 69600, Note_on_c, 4, 77, 96
6, 69839, Note_on_c, 4, 77, 0
6, 69840, Note_on_c, 4, 70, 96
6, 70079, Note_on_c, 4, 70, 0
6, 70080, Note_on_c, 4, 76, 96
6, 70319, Note_on_c, 4, 76, 0
6, 70320, Note_on_c, 4, 70, 96
6, 70559, Note_on_c, 4, 70, 0
6, 70560, Note_on_c, 4, 74, 96
6, 70799, Note_on_c, 4, 74, 0
6, 70800, Note_on_c, 4, 70, 96
6, 71039, Note_on_c, 4, 70, 0
6, 71040, Note_on_c, 4, 74, 96
6, 71279, Note_on_c, 4, 74, 0
6, 71280, Note_on_c, 4, 65, 96
6, 71519, Note_on_c, 4, 65, 0
6, 71520, Note_on_c, 4, 72, 96
6, 71759, Note_on_c, 4, 72, 0
6, 71760, Note_on_c, 4, 65, 96
6, 71999, Note_on_c, 4, 65, 0
6, 72000, Note_on_c, 4, 70, 96
6, 72239, Note_on_c, 4, 70, 0
6, 72240, Note_on_c, 4, 65, 96
6, 72479, Note_on_c, 4, 65, 0
6, 72480, Note_on_c, 4, 69, 96
6, 72719, Note_on_c, 4, 69, 0
6, 72720, Note_on_c, 4, 65, 96
6, 72947, Note_on_c, 4, 65, 0
6, 72960, Note_on_c, 4, 70, 96
6, 73199, Note_on_c, 4, 70, 0
6, 73200, Note_on_c, 4, 67, 96
6, 73439, Note_on_c, 4, 67, 0
6, 73440, Note_on_c, 4, 72, 96
6, 73679, Note_on_c, 4, 72, 0
6, 73680, Note_on_c, 4, 67, 96
6, 73919, Note_on_c, 4, 67, 0
6, 73920, Note_on_c, 4, 74, 96
6, 74159, Note_on_c, 4, 74, 0
6, 74160, Note_on_c, 4, 67, 96
6, 74399, Note_on_c, 4, 67, 0
6, 74400, Note_on_c, 4, 75, 96
6, 74639, Note_on_c, 4, 75, 0
6, 74640, Note_on_c, 4, 67, 96
6, 74879, Note_on_c, 4, 67, 0
6, 74880, Note_on_c, 4, 74, 96
6, 75119, Note_on_c, 4, 74, 0
6, 75120, Note_on_c, 4, 69, 96
6, 75359, Note_on_c, 4, 69, 0
6, 75360, Note_on_c, 4, 76, 96
6, 75599, Note_on_c, 4, 76, 0
6, 75600, Note_on_c, 4, 69, 96
6, 75839, Note_on_c, 4, 69, 0
6, 75840, Note_on_c, 4, 78, 96
6, 76079, Note_on_c, 4, 78, 0
6, 76080, Note_on_c, 4, 69, 96
6, 76319, Note_on_c, 4, 69, 0
6, 76320, Note_on_c, 4, 81, 96
6, 76559, Note_on_c, 4, 81, 0
6, 76560, Note_on_c, 4, 74, 96
6, 76787, Note_on_c, 4, 74, 0
6, 76800, Note_on_c, 4, 82, 96
6, 76913, Note_on_c, 4, 82, 0
6, 76920, Note_on_c, 4, 79, 96
6, 77033, Note_on_c, 4, 79, 0
6, 77040, Note_on_c, 4, 74, 96
6, 77153, Note_on_c, 4, 74, 0
6, 77160, Note_on_c, 4, 70, 96
6, 77273, Note_on_c, 4, 70, 0
6, 77280, Note_on_c, 4, 82, 96
6, 77393, Note_on_c, 4, 82, 0
6, 77400, Note_on_c, 4, 79, 96
6, 77513, Note_on_c, 4, 79, 0
6, 77520, Note_on_c, 4, 74, 96
6, 77633, Note_on_c, 4, 74, 0
6, 77640, Note_on_c, 4, 70, 96
6, 77753, Note_on_c, 4, 70, 0
6, 77760, Note_on_c, 4, 82, 96
6, 77873, Note_on_c, 4, 82, 0
6, 77880, Note_on_c, 4, 79, 96
6, 77993, Note_on_c, 4, 79, 0
6, 78000, Note_on_c, 4, 74, 96
6, 78113, Note_on_c, 4, 74, 0
6, 78120, Note_on_c, 4, 70, 96
6, 78233, Note_on_c, 4, 70, 0
6, 78240, Note_on_c, 4, 82, 96
6, 78353, Note_on_c, 4, 82, 0
6, 78360, Note_on_c, 4, 79, 96
6, 78473, Note_on_c, 4, 79, 0
6, 78480, Note_on_c, 4, 74, 96
6, 78593, Note_on_c, 4, 74, 0
6, 78600, Note_on_c, 4, 70, 96
6, 78713, Note_on_c, 4, 70, 0
6, 78720, Note_on_c, 4, 84, 96
6, 78833, Note_on_c, 4, 84, 0
6, 78840, Note_on_c, 4, 79, 96
6, 78953, Note_on_c, 4, 79, 0
6, 78960, Note_on_c, 4, 75, 96
6, 79073, Note_on_c, 4, 75, 0
6, 79080, Note_on_c, 4, 72, 96
6, 79193, Note_on_c, 4, 72, 0
6, 79200, Note_on_c, 4, 84, 96
6, 79313, Note_on_c, 4, 84, 0
6, 79320, Note_on_c, 4, 79, 96
6, 79433, Note_on_c, 4, 79, 0
6, 79440, Note_on_c, 4, 75, 96
6, 79553, Note_on_c, 4, 75, 0
6, 79560, Note_on_c, 4, 72, 96
6, 79673, Note_on_c, 4, 72, 0
6, 79680, Note_on_c, 4, 84, 96
6, 79793, Note_on_c, 4, 84, 0
6, 79800, Note_on_c, 4, 79, 96
6, 79913, Note_on_c, 4, 79, 0
6, 79920, Note_on_c, 4, 75, 96
6, 80033, Note_on_c, 4, 75, 0
6, 80040, Note_on_c, 4, 72, 96
6, 80153, Note_on_c, 4, 72, 0
6, 80160, Note_on_c, 4, 84, 96
6, 80273, Note_on_c, 4, 84, 0
6, 80280, Note_on_c, 4, 79, 96
6, 80393, Note_on_c, 4, 79, 0
6, 80400, Note_on_c, 4, 75, 96
6, 80513, Note_on_c, 4, 75, 0
6, 80520, Note_on_c, 4, 72, 96
6, 80633, Note_on_c, 4, 72, 0
6, 80640, Note_on_c, 4, 84, 96
6, 80753, Note_on_c, 4, 84, 0
6, 80760, Note_on_c, 4, 81, 96
6, 80873, Note_on_c, 4, 81, 0
6, 80880, Note_on_c, 4, 75, 96
6, 80993, Note_on_c, 4, 75, 0
6, 81000, Note_on_c, 4, 72, 96
6, 81113, Note_on_c, 4, 72, 0
6, 81120, Note_on_c, 4, 84, 96
6, 81233, Note_on_c, 4, 84, 0
6, 81240, Note_on_c, 4, 81, 96
6, 81353, Note_on_c, 4, 81, 0
6, 81360, Note_on_c, 4, 75, 96
6, 81473, Note_on_c, 4, 75, 0
6, 81480, Note_on_c, 4, 72, 96
6, 81593, Note_on_c, 4, 72, 0
6, 81600, Note_on_c, 4, 84, 96
6, 81713, Note_on_c, 4, 84, 0
6, 81720, Note_on_c, 4, 81, 96
6, 81833, Note_on_c, 4, 81, 0
6, 81840, Note_on_c, 4, 75, 96
6, 81953, Note_on_c, 4, 75, 0
6, 81960, Note_on_c, 4, 72, 96
6, 82073, Note_on_c, 4, 72, 0
6, 82080, Note_on_c, 4, 84, 96
6, 82193, Note_on_c, 4, 84, 0
6, 82200, Note_on_c, 4, 81, 96
6, 82313, Note_on_c, 4, 81, 0
6, 82320, Note_on_c, 4, 75, 96
6, 82433, Note_on_c, 4, 75, 0
6, 82440, Note_on_c, 4, 72, 96
6, 82553, Note_on_c, 4, 72, 0
6, 82560, Note_on_c, 4, 86, 96
6, 82673, Note_on_c, 4, 86, 0
6, 82680, Note_on_c, 4, 81, 96
6, 82793, Note_on_c, 4, 81, 0
6, 82800, Note_on_c, 4, 78, 96
6, 82913, Note_on_c, 4, 78, 0
6, 82920, Note_on_c, 4, 74, 96
6, 83033, Note_on_c, 4, 74, 0
6, 83040, Note_on_c, 4, 86, 96
6, 83153, Note_on_c, 4, 86, 0
6, 83160, Note_on_c, 4, 81, 96
6, 83273, Note_on_c, 4, 81, 0
6, 83280, Note_on_c, 4, 78, 96
6, 83393, Note_on_c, 4, 78, 0
6, 83400, Note_on_c, 4, 74, 96
6, 83513, Note_on_c, 4, 74, 0
6, 83520, Note_on_c, 4, 86, 96
6, 83633, Note_on_c, 4, 86, 0
6, 83640, Note_on_c, 4, 81, 96
6, 83753, Note_on_c, 4, 81, 0
6, 83760, Note_on_c, 4, 78, 96
6, 83873, Note_on_c, 4, 78, 0
6, 83880, Note_on_c, 4, 74, 96
6, 83993, Note_on_c, 4, 74, 0
6, 84000, Note_on_c, 4, 86, 96
6, 84113, Note_on_c, 4, 86, 0
6, 84120, Note_on_c, 4, 81, 96
6, 84233, Note_on_c, 4, 81, 0
6, 84240, Note_on_c, 4, 78, 96
6, 84353, Note_on_c, 4, 78, 0
6, 84360, Note_on_c, 4, 74, 96
6, 84473, Note_on_c, 4, 74, 0
6, 84480, Note_on_c, 4, 82, 96
6, 84593, Note_on_c, 4, 82, 0
6, 84600, Note_on_c, 4, 79, 96
6, 84713, Note_on_c, 4, 79, 0
6, 84720, Note_on_c, 4, 74, 96
6, 84833, Note_on_c, 4, 74, 0
6, 84840, Note_on_c, 4, 70, 96
6, 84953, Note_on_c, 4, 70, 0
6, 84960, Note_on_c, 4, 82, 96
6, 85073, Note_on_c, 4, 82, 0
6, 85080, Note_on_c, 4, 79, 96
6, 85193, Note_on_c, 4, 79, 0
6, 85200, Note_on_c, 4, 74, 96
6, 85313, Note_on_c, 4, 74, 0
6, 85320, Note_on_c, 4, 70, 96
6, 85433, Note_on_c, 4, 70, 0
6, 85440, Note_on_c, 4, 82, 96
6, 85553, Note_on_c, 4, 82, 0
6, 85560, Note_on_c, 4, 79, 96
6, 85673, Note_on_c, 4, 79, 0
6, 85680, Note_on_c, 4, 74, 96
6, 85793, Note_on_c, 4, 74, 0
6, 85800, Note_on_c, 4, 70, 96
6, 85913, Note_on_c, 4, 70, 0
6, 85920, Note_on_c, 4, 82, 96
6, 86033, Note_on_c, 4, 82, 0
6, 86040, Note_on_c, 4, 79, 96
6, 86153, Note_on_c, 4, 79, 0
6, 86160, Note_on_c, 4, 74, 96
6, 86273, Note_on_c, 4, 74, 0
6, 86280, Note_on_c, 4, 70, 96
6, 86393, Note_on_c, 4, 70, 0
6, 86400, Note_on_c, 4, 84, 96
6, 86513, Note_on_c, 4, 84, 0
6, 86520, Note_on_c, 4, 79, 96
6, 86633, Note_on_c, 4, 79, 0
6, 86640, Note_on_c, 4, 75, 96
6, 86753, Note_on_c, 4, 75, 0
6, 86760, Note_on_c, 4, 72, 96
6, 86873, Note_on_c, 4, 72, 0
6, 86880, Note_on_c, 4, 84, 96
6, 86993, Note_on_c, 4, 84, 0
6, 87000, Note_on_c, 4, 79, 96
6, 87113, Note_on_c, 4, 79, 0
6, 87120, Note_on_c, 4, 75, 96
6, 87233, Note_on_c, 4, 75, 0
6, 87240, Note_on_c, 4, 72, 96
6, 87353, Note_on_c, 4, 72, 0
6, 87360, Note_on_c, 4, 84, 96
6, 87473, Note_on_c, 4, 84, 0
6, 87480, Note_on_c, 4, 79, 96
6, 87593, Note_on_c, 4, 79, 0
6, 87600, Note_on_c, 4, 75, 96
6, 87713, Note_on_c, 4, 75, 0
6, 87720, Note_on_c, 4, 72, 96
6, 87833, Note_on_c, 4, 72, 0
6, 87840, Note_on_c, 4, 84, 96
6, 87953, Note_on_c, 4, 84, 0
6, 87960, Note_on_c, 4, 79, 96
6, 88073, Note_on_c, 4, 79, 0
6, 88080, Note_on_c, 4, 75, 96
6, 88193, Note_on_c, 4, 75, 0
6, 88200, Note_on_c, 4, 72, 96
6, 88313, Note_on_c, 4, 72, 0
6, 88320, Note_on_c, 4, 84, 96
6, 88433, Note_on_c, 4, 84, 0
6, 88440, Note_on_c, 4, 81, 96
6, 88553, Note_on_c, 4, 81, 0
6, 88560, Note_on_c, 4, 75, 96
6, 88673, Note_on_c, 4, 75, 0
6, 88680, Note_on_c, 4, 72, 96
6, 88793, Note_on_c, 4, 72, 0
6, 88800, Note_on_c, 4, 84, 96
6, 88913, Note_on_c, 4, 84, 0
6, 88920, Note_on_c, 4, 81, 96
6, 89033, Note_on_c, 4, 81, 0
6, 89040, Note_on_c, 4, 75, 96
6, 89153, Note_on_c, 4, 75, 0
6, 89160, Note_on_c, 4, 72, 96
6, 89273, Note_on_c, 4, 72, 0
6, 89280, Note_on_c, 4, 84, 96
6, 89393, Note_on_c, 4, 84, 0
6, 89400, Note_on_c, 4, 81, 96
6, 89513, Note_on_c, 4, 81, 0
6, 89520, Note_on_c, 4, 75, 96
6, 89633, Note_on_c, 4, 75, 0
6, 89640, Note_on_c, 4, 72, 96
6, 89753, Note_on_c, 4, 72, 0
6, 89760, Note_on_c, 4, 84, 96
6, 89873, Note_on_c, 4, 84, 0
6, 89880, Note_on_c, 4, 81, 96
6, 89993, Note_on_c, 4, 81, 0
6, 90000, Note_on_c, 4, 75, 96
6, 90113, Note_on_c, 4, 75, 0
6, 90120, Note_on_c, 4, 72, 96
6, 90233, Note_on_c, 4, 72, 0
6, 90240, Note_on_c, 4, 86, 96
6, 90353, Note_on_c, 4, 86, 0
6, 90360, Note_on_c, 4, 81, 96
6, 90473, Note_on_c, 4, 81, 0
6, 90480, Note_on_c, 4, 78, 96
6, 90593, Note_on_c, 4, 78, 0
6, 90600, Note_on_c, 4, 74, 96
6, 90713, Note_on_c, 4, 74, 0
6, 90720, Note_on_c, 4, 86, 96
6, 90833, Note_on_c, 4, 86, 0
6, 90840, Note_on_c, 4, 81, 96
6, 90953, Note_on_c, 4, 81, 0
6, 90960, Note_on_c, 4, 78, 96
6, 91073, Note_on_c, 4, 78, 0
6, 91080, Note_on_c, 4, 74, 96
6, 91193, Note_on_c, 4, 74, 0
6, 91200, Note_on_c, 4, 86, 96
6, 91313, Note_on_c, 4, 86, 0
6, 91320, Note_on_c, 4, 81, 96
6, 91433, Note_on_c, 4, 81, 0
6, 91440, Note_on_c, 4, 78, 96
6, 91553, Note_on_c, 4, 78, 0
6, 91560, Note_on_c, 4, 74, 96
6, 91673, Note_on_c, 4, 74, 0
6, 91680, Note_on_c, 4, 86, 96
6, 91793, Note_on_c, 4, 86, 0
6, 91800, Note_on_c, 4, 81, 96
6, 91913, Note_on_c, 4, 81, 0
6, 91920, Note_on_c, 4, 78, 96
6, 92033, Note_on_c, 4, 78, 0
6, 92040, Note_on_c, 4, 74, 96
6, 92153, Note_on_c, 4, 74, 0
6, 92160, Note_on_c, 4, 79, 96
6, 94895, Note_on_c, 4, 79, 0
6, 95040, Note_on_c, 4, 81, 96
6, 95951, Note_on_c, 4, 81, 0
6, 96000, Note_on_c, 4, 79, 96
6, 98735, Note_on_c, 4, 79, 0
6, 98880, Note_on_c, 4, 81, 96
6, 99791, Note_on_c, 4, 81, 0
6, 99840, Note_on_c, 4, 79, 96
6, 102575, Note_on_c, 4, 79, 0
6, 102720, Note_on_c, 4, 81, 96
6, 103631, Note_on_c, 4, 81, 0
6, 103680, Note_on_c, 4, 86, 96
6, 107327, Note_on_c, 4, 86, 0
6, 107520, Note_on_c, 4, 79, 96
6, 110255, Note_on_c, 4, 79, 0
6, 110400, Note_on_c, 4, 81, 96
6, 111311, Note_on_c, 4, 81, 0
6, 111360, Note_on_c, 4, 79, 96
6, 114095, Note_on_c, 4, 79, 0
6, 114240, Note_on_c, 4, 81, 96
6, 115151, Note_on_c, 4, 81, 0
6, 115200, Note_on_c, 4, 79, 96
6, 117935, Note_on_c, 4, 79, 0
6, 118080, Note_on_c, 4, 81, 96
6, 118991, Note_on_c, 4, 81, 0
6, 119040, Note_on_c, 4, 86, 96
6, 122680, Note_on_c, 4, 86, 0
6, 122681, End_track
0, 0, End_of_file