0, 0, Header, 1, 6, 480
1, 0, Start_track
1, 0, Title_t, "Drumset\000"
1, 0, Time_signature, 4, 2, 24, 8
1, 0, Key_signature, 0, "major"
1, 0, Tempo, 666667
1, 0, Control_c, 9, 121, 0
1, 0, Program_c, 9, 0
1, 0, Control_c, 9, 7, 100
1, 0, Control_c, 9, 10, 64
1, 0, Control_c, 9, 91, 0
1, 0, Control_c, 9, 93, 0
1, 0, MIDI_port, 0
1, 0, Note_on_c, 9, 36, 80
1, 479, Note_on_c, 9, 36, 0
1, 1440, Note_on_c, 9, 38, 80
1, 1919, Note_on_c, 9, 38, 0
1, 1920, Note_on_c, 9, 36, 80
1, 2399, Note_on_c, 9, 36, 0
1, 3360, Note_on_c, 9, 38, 80
1, 3839, Note_on_c, 9, 38, 0
1, 3840, Note_on_c, 9, 36, 80
1, 4319, Note_on_c, 9, 36, 0
1, 5280, Note_on_c, 9, 38, 80
1, 5759, Note_on_c, 9, 38, 0
1, 5760, Note_on_c, 9, 36, 80
1, 6239, Note_on_c, 9, 36, 0
1, 7200, Note_on_c, 9, 38, 80
1, 7679, Note_on_c, 9, 38, 0
1, 7680, Note_on_c, 9, 36, 80
1, 8159, Note_on_c, 9, 36, 0
1, 9120, Note_on_c, 9, 38, 80
1, 9599, Note_on_c, 9, 38, 0
1, 9600, Note_on_c, 9, 36, 80
1, 10079, Note_on_c, 9, 36, 0
1, 11040, Note_on_c, 9, 38, 80
1, 11519, Note_on_c, 9, 38, 0
1, 11520, Note_on_c, 9, 36, 80
1, 11999, Note_on_c, 9, 36, 0
1, 12960, Note_on_c, 9, 38, 80
1, 13439, Note_on_c, 9, 38, 0
1, 13440, Note_on_c, 9, 36, 80
1, 13919, Note_on_c, 9, 36, 0
1, 14880, Note_on_c, 9, 38, 80
1, 15359, Note_on_c, 9, 38, 0
1, 15360, Note_on_c, 9, 36, 80
1, 15839, Note_on_c, 9, 36, 0
1, 16800, Note_on_c, 9, 38, 80
1, 17279, Note_on_c, 9, 38, 0
1, 17280, Note_on_c, 9, 36, 80
1, 17759, Note_on_c, 9, 36, 0
1, 18720, Note_on_c, 9, 38, 80
1, 19199, Note_on_c, 9, 38, 0
1, 19200, Note_on_c, 9, 36, 80
1, 19679, Note_on_c, 9, 36, 0
1, 20640, Note_on_c, 9, 38, 80
1, 21119, Note_on_c, 9, 38, 0
1, 21120, Note_on_c, 9, 36, 80
1, 21599, Note_on_c, 9, 36, 0
1, 22560, Note_on_c, 9, 38, 80
1, 23039, Note_on_c, 9, 38, 0
1, 23040, Note_on_c, 9, 36, 80
1, 23519, Note_on_c, 9, 36, 0
1, 24480, Note_on_c, 9, 38, 80
1, 24959, Note_on_c, 9, 38, 0
1, 24960, Note_on_c, 9, 36, 80
1, 25439, Note_on_c, 9, 36, 0
1, 26400, Note_on_c, 9, 38, 80
1, 26879, Note_on_c, 9, 38, 0
1, 26880, Note_on_c, 9, 36, 80
1, 27359, Note_on_c, 9, 36, 0
1, 28320, Note_on_c, 9, 38, 80
1, 28799, Note_on_c, 9, 38, 0
1, 28800, Note_on_c, 9, 36, 80
1, 29279, Note_on_c, 9, 36, 0
1, 30240, Note_on_c, 9, 38, 80
1, 30719, Note_on_c, 9, 38, 0
1, 30720, Note_on_c, 9, 36, 80
1, 31199, Note_on_c, 9, 36, 0
1, 32160, Note_on_c, 9, 38, 80
1, 32639, Note_on_c, 9, 38, 0
1, 32640, Note_on_c, 9, 36, 80
1, 33119, Note_on_c, 9, 36, 0
1, 34080, Note_on_c, 9, 38, 80
1, 34559, Note_on_c, 9, 38, 0
1, 34560, Note_on_c, 9, 36, 80
1, 35039, Note_on_c, 9, 36, 0
1, 36000, Note_on_c, 9, 38, 80
1, 36479, Note_on_c, 9, 38, 0
1, 36480, Note_on_c, 9, 36, 80
1, 36959, Note_on_c, 9, 36, 0
1, 37920, Note_on_c, 9, 38, 80
1, 38399, Note_on_c, 9, 38, 0
1, 38400, Note_on_c, 9, 36, 80
1, 38879, Note_on_c, 9, 36, 0
1, 39840, Note_on_c, 9, 38, 80
1, 40319, Note_on_c, 9, 38, 0
1, 40320, Note_on_c, 9, 36, 80
1, 40799, Note_on_c, 9, 36, 0
1, 41760, Note_on_c, 9, 38, 80
1, 42239, Note_on_c, 9, 38, 0
1, 42240, Note_on_c, 9, 36, 80
1, 42719, Note_on_c, 9, 36, 0
1, 43680, Note_on_c, 9, 38, 80
1, 44159, Note_on_c, 9, 38, 0
1, 44160, Note_on_c, 9, 36, 80
1, 44639, Note_on_c, 9, 36, 0
1, 45600, Note_on_c, 9, 38, 80
1, 46079, Note_on_c, 9, 38, 0
1, 46080, Note_on_c, 9, 36, 80
1, 46559, Note_on_c, 9, 36, 0
1, 47520, Note_on_c, 9, 38, 80
1, 47999, Note_on_c, 9, 38, 0
1, 48000, Note_on_c, 9, 36, 80
1, 48479, Note_on_c, 9, 36, 0
1, 49440, Note_on_c, 9, 38, 80
1, 49919, Note_on_c, 9, 38, 0
1, 49920, Note_on_c, 9, 36, 80
1, 50399, Note_on_c, 9, 36, 0
1, 51360, Note_on_c, 9, 38, 80
1, 51839, Note_on_c, 9, 38, 0
1, 51840, Note_on_c, 9, 36, 80
1, 52319, Note_on_c, 9, 36, 0
1, 53280, Note_on_c, 9, 38, 80
1, 53759, Note_on_c, 9, 38, 0
1, 53760, Note_on_c, 9, 36, 80
1, 54239, Note_on_c, 9, 36, 0
1, 55200, Note_on_c, 9, 38, 80
1, 55679, Note_on_c, 9, 38, 0
1, 55680, Note_on_c, 9, 36, 80
1, 56159, Note_on_c, 9, 36, 0
1, 57120, Note_on_c, 9, 38, 80
1, 57599, Note_on_c, 9, 38, 0
1, 57600, Note_on_c, 9, 36, 80
1, 58079, Note_on_c, 9, 36, 0
1, 59040, Note_on_c, 9, 38, 80
1, 59519, Note_on_c, 9, 38, 0
1, 59520, Note_on_c, 9, 36, 80
1, 59999, Note_on_c, 9, 36, 0
1, 60960, Note_on_c, 9, 38, 80
1, 61439, Note_on_c, 9, 38, 0
1, 61440, Note_on_c, 9, 36, 80
1, 61919, Note_on_c, 9, 36, 0
1, 62880, Note_on_c, 9, 38, 80
1, 63359, Note_on_c, 9, 38, 0
1, 63360, Note_on_c, 9, 36, 80
1, 63839, Note_on_c, 9, 36, 0
1, 64800, Note_on_c, 9, 38, 80
1, 65279, Note_on_c, 9, 38, 0
1, 65280, Note_on_c, 9, 36, 80
1, 65759, Note_on_c, 9, 36, 0
1, 66720, Note_on_c, 9, 38, 80
1, 67199, Note_on_c, 9, 38, 0
1, 67200, Note_on_c, 9, 36, 80
1, 67679, Note_on_c, 9, 36, 0
1, 68640, Note_on_c, 9, 38, 80
1, 69119, Note_on_c, 9, 38, 0
1, 69120, Note_on_c, 9, 36, 80
1, 69599, Note_on_c, 9, 36, 0
1, 70560, Note_on_c, 9, 38, 80
1, 71039, Note_on_c, 9, 38, 0
1, 71040, Note_on_c, 9, 36, 80
1, 71519, Note_on_c, 9, 36, 0
1, 72480, Note_on_c, 9, 38, 80
1, 72959, Note_on_c, 9, 38, 0
1, 72960, Note_on_c, 9, 36, 80
1, 73439, Note_on_c, 9, 36, 0
1, 74400, Note_on_c, 9, 38, 80
1, 74879, Note_on_c, 9, 38, 0
1, 74880, Note_on_c, 9, 36, 80
1, 75359, Note_on_c, 9, 36, 0
1, 76320, Note_on_c, 9, 38, 80
1, 76799, Note_on_c, 9, 38, 0
1, 76800, Note_on_c, 9, 49, 80
1, 76800, Note_on_c, 9, 36, 80
1, 77279, Note_on_c, 9, 36, 0
1, 77759, Note_on_c, 9, 49, 0
1, 77760, Note_on_c, 9, 46, 80
1, 78239, Note_on_c, 9, 46, 0
1, 78240, Note_on_c, 9, 38, 80
1, 78719, Note_on_c, 9, 38, 0
1, 78720, Note_on_c, 9, 46, 80
1, 78720, Note_on_c, 9, 36, 80
1, 79199, Note_on_c, 9, 46, 0
1, 79199, Note_on_c, 9, 36, 0
1, 79680, Note_on_c, 9, 46, 80
1, 80159, Note_on_c, 9, 46, 0
1, 80160, Note_on_c, 9, 38, 80
1, 80639, Note_on_c, 9, 38, 0
1, 80640, Note_on_c, 9, 46, 80
1, 80640, Note_on_c, 9, 36, 80
1, 81119, Note_on_c, 9, 46, 0
1, 81119, Note_on_c, 9, 36, 0
1, 81600, Note_on_c, 9, 46, 80
1, 82079, Note_on_c, 9, 46, 0
1, 82080, Note_on_c, 9, 38, 80
1, 82559, Note_on_c, 9, 38, 0
1, 82560, Note_on_c, 9, 46, 80
1, 82560, Note_on_c, 9, 36, 80
1, 83039, Note_on_c, 9, 46, 0
1, 83039, Note_on_c, 9, 36, 0
1, 83520, Note_on_c, 9, 46, 80
1, 83999, Note_on_c, 9, 46, 0
1, 84000, Note_on_c, 9, 38, 80
1, 84479, Note_on_c, 9, 38, 0
1, 84480, Note_on_c, 9, 49, 80
1, 84480, Note_on_c, 9, 36, 80
1, 84959, Note_on_c, 9, 36, 0
1, 85439, Note_on_c, 9, 49, 0
1, 85440, Note_on_c, 9, 46, 80
1, 85919, Note_on_c, 9, 46, 0
1, 85920, Note_on_c, 9, 38, 80
1, 86399, Note_on_c, 9, 38, 0
1, 86400, Note_on_c, 9, 46, 80
1, 86400, Note_on_c, 9, 36, 80
1, 86879, Note_on_c, 9, 46, 0
1, 86879, Note_on_c, 9, 36, 0
1, 87360, Note_on_c, 9, 46, 80
1, 87839, Note_on_c, 9, 46, 0
1, 87840, Note_on_c, 9, 38, 80
1, 88319, Note_on_c, 9, 38, 0
1, 88320, Note_on_c, 9, 46, 80
1, 88320, Note_on_c, 9, 36, 80
1, 88799, Note_on_c, 9, 46, 0
1, 88799, Note_on_c, 9, 36, 0
1, 89280, Note_on_c, 9, 46, 80
1, 89759, Note_on_c, 9, 46, 0
1, 89760, Note_on_c, 9, 38, 80
1, 90239, Note_on_c, 9, 38, 0
1, 90240, Note_on_c, 9, 46, 80
1, 90240, Note_on_c, 9, 36, 80
1, 90719, Note_on_c, 9, 46, 0
1, 90719, Note_on_c, 9, 36, 0
1, 91200, Note_on_c, 9, 46, 80
1, 91679, Note_on_c, 9, 46, 0
1, 91680, Note_on_c, 9, 38, 80
1, 92159, Note_on_c, 9, 38, 0
1, 92160, Note_on_c, 9, 49, 80
1, 92160, Note_on_c, 9, 36, 80
1, 92639, Note_on_c, 9, 36, 0
1, 93119, Note_on_c, 9, 49, 0
1, 93120, Note_on_c, 9, 46, 80
1, 93599, Note_on_c, 9, 46, 0
1, 93600, Note_on_c, 9, 38, 80
1, 94079, Note_on_c, 9, 38, 0
1, 94080, Note_on_c, 9, 46, 80
1, 94080, Note_on_c, 9, 36, 80
1, 94559, Note_on_c, 9, 46, 0
1, 94559, Note_on_c, 9, 36, 0
1, 95040, Note_on_c, 9, 46, 80
1, 95519, Note_on_c, 9, 46, 0
1, 95520, Note_on_c, 9, 38, 80
1, 95999, Note_on_c, 9, 38, 0
1, 96000, Note_on_c, 9, 46, 80
1, 96000, Note_on_c, 9, 36, 80
1, 96479, Note_on_c, 9, 46, 0
1, 96479, Note_on_c, 9, 36, 0
1, 96960, Note_on_c, 9, 46, 80
1, 97439, Note_on_c, 9, 46, 0
1, 97440, Note_on_c, 9, 38, 80
1, 97919, Note_on_c, 9, 38, 0
1, 97920, Note_on_c, 9, 46, 80
1, 97920, Note_on_c, 9, 36, 80
1, 98399, Note_on_c, 9, 46, 0
1, 98399, Note_on_c, 9, 36, 0
1, 98880, Note_on_c, 9, 46, 80
1, 99359, Note_on_c, 9, 46, 0
1, 99360, Note_on_c, 9, 38, 80
1, 99839, Note_on_c, 9, 38, 0
1, 99840, Note_on_c, 9, 49, 80
1, 99840, Note_on_c, 9, 36, 80
1, 100319, Note_on_c, 9, 36, 0
1, 100799, Note_on_c, 9, 49, 0
1, 100800, Note_on_c, 9, 46, 80
1, 101279, Note_on_c, 9, 46, 0
1, 101280, Note_on_c, 9, 38, 80
1, 101759, Note_on_c, 9, 38, 0
1, 101760, Note_on_c, 9, 46, 80
1, 101760, Note_on_c, 9, 36, 80
1, 102239, Note_on_c, 9, 46, 0
1, 102239, Note_on_c, 9, 36, 0
1, 102720, Note_on_c, 9, 46, 80
1, 103199, Note_on_c, 9, 46, 0
1, 103200, Note_on_c, 9, 38, 80
1, 103679, Note_on_c, 9, 38, 0
1, 103680, Note_on_c, 9, 46, 80
1, 103680, Note_on_c, 9, 36, 80
1, 104159, Note_on_c, 9, 46, 0
1, 104159, Note_on_c, 9, 36, 0
1, 104640, Note_on_c, 9, 46, 80
1, 105119, Note_on_c, 9, 46, 0
1, 105120, Note_on_c, 9, 38, 80
1, 105599, Note_on_c, 9, 38, 0
1, 105600, Note_on_c, 9, 46, 80
1, 105600, Note_on_c, 9, 36, 80
1, 106079, Note_on_c, 9, 46, 0
1, 106079, Note_on_c, 9, 36, 0
1, 106560, Note_on_c, 9, 46, 80
1, 107039, Note_on_c, 9, 46, 0
1, 107040, Note_on_c, 9, 38, 80
1, 107519, Note_on_c, 9, 38, 0
1, 107520, Note_on_c, 9, 49, 80
1, 107520, Note_on_c, 9, 36, 80
1, 107999, Note_on_c, 9, 49, 0
1, 107999, Note_on_c, 9, 36, 0
1, 108000, Note_on_c, 9, 46, 80
1, 108479, Note_on_c, 9, 46, 0
1, 108480, Note_on_c, 9, 46, 80
1, 108959, Note_on_c, 9, 46, 0
1, 108960, Note_on_c, 9, 38, 80
1, 108960, Note_on_c, 9, 46, 80
1, 109439, Note_on_c, 9, 38, 0
1, 109439, Note_on_c, 9, 46, 0
1, 109440, Note_on_c, 9, 46, 80
1, 109440, Note_on_c, 9, 36, 80
1, 109919, Note_on_c, 9, 46, 0
1, 109919, Note_on_c, 9, 36, 0
1, 109920, Note_on_c, 9, 46, 80
1, 110399, Note_on_c, 9, 46, 0
1, 110400, Note_on_c, 9, 46, 80
1, 110879, Note_on_c, 9, 46, 0
1, 110880, Note_on_c, 9, 38, 80
1, 110880, Note_on_c, 9, 46, 80
1, 111359, Note_on_c, 9, 38, 0
1, 111359, Note_on_c, 9, 46, 0
1, 111360, Note_on_c, 9, 49, 80
1, 111360, Note_on_c, 9, 36, 80
1, 111839, Note_on_c, 9, 49, 0
1, 111839, Note_on_c, 9, 36, 0
1, 111840, Note_on_c, 9, 46, 80
1, 112319, Note_on_c, 9, 46, 0
1, 112320, Note_on_c, 9, 46, 80
1, 112799, Note_on_c, 9, 46, 0
1, 112800, Note_on_c, 9, 38, 80
1, 112800, Note_on_c, 9, 46, 80
1, 113279, Note_on_c, 9, 38, 0
1, 113279, Note_on_c, 9, 46, 0
1, 113280, Note_on_c, 9, 46, 80
1, 113280, Note_on_c, 9, 36, 80
1, 113759, Note_on_c, 9, 46, 0
1, 113759, Note_on_c, 9, 36, 0
1, 113760, Note_on_c, 9, 46, 80
1, 114239, Note_on_c, 9, 46, 0
1, 114240, Note_on_c, 9, 46, 80
1, 114719, Note_on_c, 9, 46, 0
1, 114720, Note_on_c, 9, 38, 80
1, 114720, Note_on_c, 9, 46, 80
1, 115199, Note_on_c, 9, 38, 0
1, 115199, Note_on_c, 9, 46, 0
1, 115200, Note_on_c, 9, 49, 80
1, 115200, Note_on_c, 9, 36, 80
1, 115679, Note_on_c, 9, 49, 0
1, 115679, Note_on_c, 9, 36, 0
1, 115680, Note_on_c, 9, 46, 80
1, 116159, Note_on_c, 9, 46, 0
1, 116160, Note_on_c, 9, 46, 80
1, 116639, Note_on_c, 9, 46, 0
1, 116640, Note_on_c, 9, 38, 80
1, 116640, Note_on_c, 9, 46, 80
1, 117119, Note_on_c, 9, 38, 0
1, 117119, Note_on_c, 9, 46, 0
1, 117120, Note_on_c, 9, 46, 80
1, 117120, Note_on_c, 9, 36, 80
1, 117599, Note_on_c, 9, 46, 0
1, 117599, Note_on_c, 9, 36, 0
1, 117600, Note_on_c, 9, 46, 80
1, 118079, Note_on_c, 9, 46, 0
1, 118080, Note_on_c, 9, 46, 80
1, 118559, Note_on_c, 9, 46, 0
1, 118560, Note_on_c, 9, 38, 80
1, 118560, Note_on_c, 9, 46, 80
1, 119039, Note_on_c, 9, 38, 0
1, 119039, Note_on_c, 9, 46, 0
1, 119040, Note_on_c, 9, 49, 80
1, 119040, Note_on_c, 9, 36, 80
1, 119519, Note_on_c, 9, 49, 0
1, 119519, Note_on_c, 9, 36, 0
1, 119520, Note_on_c, 9, 46, 80
1, 119999, Note_on_c, 9, 46, 0
1, 120000, Note_on_c, 9, 46, 80
1, 120479, Note_on_c, 9, 46, 0
1, 120480, Note_on_c, 9, 38, 80
1, 120480, Note_on_c, 9, 46, 80
1, 120959, Note_on_c, 9, 38, 0
1, 120959, Note_on_c, 9, 46, 0
1, 120960, Note_on_c, 9, 46, 80
1, 120960, Note_on_c, 9, 36, 80
1, 121439, Note_on_c, 9, 46, 0
1, 121439, Note_on_c, 9, 36, 0
1, 121440, Note_on_c, 9, 46, 80
1, 121919, Note_on_c, 9, 46, 0
1, 121920, Note_on_c, 9, 46, 80
1, 122399, Note_on_c, 9, 46, 0
1, 122400, Note_on_c, 9, 38, 80
1, 122400, Note_on_c, 9, 46, 80
1, 122879, Note_on_c, 9, 38, 0
1, 122879, Note_on_c, 9, 46, 0
1, 122880, Note_on_c, 9, 49, 80
1, 122880, Note_on_c, 9, 36, 80
1, 123119, Note_on_c, 9, 49, 0
1, 123120, Note_on_c, 9, 42, 80
1, 123359, Note_on_c, 9, 36, 0
1, 123359, Note_on_c, 9, 42, 0
1, 123360, Note_on_c, 9, 42, 80
1, 123599, Note_on_c, 9, 42, 0
1, 123600, Note_on_c, 9, 42, 80
1, 123839, Note_on_c, 9, 42, 0
1, 123840, Note_on_c, 9, 42, 80
1, 124079, Note_on_c, 9, 42, 0
1, 124080, Note_on_c, 9, 42, 80
1, 124319, Note_on_c, 9, 42, 0
1, 124320, Note_on_c, 9, 38, 80
1, 124320, Note_on_c, 9, 42, 80
1, 124559, Note_on_c, 9, 38, 0
1, 124559, Note_on_c, 9, 42, 0
1, 124560, Note_on_c, 9, 42, 80
1, 124799, Note_on_c, 9, 42, 0
1, 124800, Note_on_c, 9, 42, 80
1, 124800, Note_on_c, 9, 36, 80
1, 125039, Note_on_c, 9, 42, 0
1, 125040, Note_on_c, 9, 42, 80
1, 125279, Note_on_c, 9, 36, 0
1, 125279, Note_on_c, 9, 42, 0
1, 125280, Note_on_c, 9, 42, 80
1, 125519, Note_on_c, 9, 42, 0
1, 125520, Note_on_c, 9, 42, 80
1, 125759, Note_on_c, 9, 42, 0
1, 125760, Note_on_c, 9, 42, 80
1, 125999, Note_on_c, 9, 42, 0
1, 126000, Note_on_c, 9, 42, 80
1, 126239, Note_on_c, 9, 42, 0
1, 126240, Note_on_c, 9, 38, 80
1, 126240, Note_on_c, 9, 42, 80
1, 126479, Note_on_c, 9, 38, 0
1, 126479, Note_on_c, 9, 42, 0
1, 126480, Note_on_c, 9, 42, 80
1, 126719, Note_on_c, 9, 42, 0
1, 126720, Note_on_c, 9, 42, 80
1, 126720, Note_on_c, 9, 36, 80
1, 126959, Note_on_c, 9, 42, 0
1, 126960, Note_on_c, 9, 42, 80
1, 127199, Note_on_c, 9, 36, 0
1, 127199, Note_on_c, 9, 42, 0
1, 127200, Note_on_c, 9, 42, 80
1, 127439, Note_on_c, 9, 42, 0
1, 127440, Note_on_c, 9, 42, 80
1, 127679, Note_on_c, 9, 42, 0
1, 127680, Note_on_c, 9, 42, 80
1, 127919, Note_on_c, 9, 42, 0
1, 127920, Note_on_c, 9, 42, 80
1, 128159, Note_on_c, 9, 42, 0
1, 128160, Note_on_c, 9, 38, 80
1, 128160, Note_on_c, 9, 42, 80
1, 128399, Note_on_c, 9, 38, 0
1, 128399, Note_on_c, 9, 42, 0
1, 128400, Note_on_c, 9, 42, 80
1, 128639, Note_on_c, 9, 42, 0
1, 128640, Note_on_c, 9, 42, 80
1, 128640, Note_on_c, 9, 36, 80
1, 128879, Note_on_c, 9, 42, 0
1, 128880, Note_on_c, 9, 42, 80
1, 129119, Note_on_c, 9, 36, 0
1, 129119, Note_on_c, 9, 42, 0
1, 129120, Note_on_c, 9, 42, 80
1, 129359, Note_on_c, 9, 42, 0
1, 129360, Note_on_c, 9, 42, 80
1, 129599, Note_on_c, 9, 42, 0
1, 129600, Note_on_c, 9, 42, 80
1, 129839, Note_on_c, 9, 42, 0
1, 129840, Note_on_c, 9, 42, 80
1, 130079, Note_on_c, 9, 42, 0
1, 130080, Note_on_c, 9, 38, 80
1, 130080, Note_on_c, 9, 42, 80
1, 130319, Note_on_c, 9, 38, 0
1, 130319, Note_on_c, 9, 42, 0
1, 130320, Note_on_c, 9, 42, 80
1, 130559, Note_on_c, 9, 42, 0
1, 130560, Note_on_c, 9, 49, 80
1, 130560, Note_on_c, 9, 36, 80
1, 130799, Note_on_c, 9, 49, 0
1, 130800, Note_on_c, 9, 42, 80
1, 131039, Note_on_c, 9, 36, 0
1, 131039, Note_on_c, 9, 42, 0
1, 131040, Note_on_c, 9, 42, 80
1, 131279, Note_on_c, 9, 42, 0
1, 131280, Note_on_c, 9, 42, 80
1, 131519, Note_on_c, 9, 42, 0
1, 131520, Note_on_c, 9, 42, 80
1, 131759, Note_on_c, 9, 42, 0
1, 131760, Note_on_c, 9, 42, 80
1, 131999, Note_on_c, 9, 42, 0
1, 132000, Note_on_c, 9, 38, 80
1, 132000, Note_on_c, 9, 42, 80
1, 132239, Note_on_c, 9, 38, 0
1, 132239, Note_on_c, 9, 42, 0
1, 132240, Note_on_c, 9, 42, 80
1, 132479, Note_on_c, 9, 42, 0
1, 132480, Note_on_c, 9, 42, 80
1, 132480, Note_on_c, 9, 36, 80
1, 132719, Note_on_c, 9, 42, 0
1, 132720, Note_on_c, 9, 42, 80
1, 132959, Note_on_c, 9, 36, 0
1, 132959, Note_on_c, 9, 42, 0
1, 132960, Note_on_c, 9, 42, 80
1, 133199, Note_on_c, 9, 42, 0
1, 133200, Note_on_c, 9, 42, 80
1, 133439, Note_on_c, 9, 42, 0
1, 133440, Note_on_c, 9, 42, 80
1, 133679, Note_on_c, 9, 42, 0
1, 133680, Note_on_c, 9, 42, 80
1, 133919, Note_on_c, 9, 42, 0
1, 133920, Note_on_c, 9, 38, 80
1, 133920, Note_on_c, 9, 42, 80
1, 134159, Note_on_c, 9, 38, 0
1, 134159, Note_on_c, 9, 42, 0
1, 134160, Note_on_c, 9, 42, 80
1, 134399, Note_on_c, 9, 42, 0
1, 134400, Note_on_c, 9, 42, 80
1, 134400, Note_on_c, 9, 36, 80
1, 134639, Note_on_c, 9, 42, 0
1, 134640, Note_on_c, 9, 42, 80
1, 134879, Note_on_c, 9, 36, 0
1, 134879, Note_on_c, 9, 42, 0
1, 134880, Note_on_c, 9, 42, 80
1, 135119, Note_on_c, 9, 42, 0
1, 135120, Note_on_c, 9, 42, 80
1, 135359, Note_on_c, 9, 42, 0
1, 135360, Note_on_c, 9, 42, 80
1, 135599, Note_on_c, 9, 42, 0
1, 135600, Note_on_c, 9, 42, 80
1, 135839, Note_on_c, 9, 42, 0
1, 135840, Note_on_c, 9, 38, 80
1, 135840, Note_on_c, 9, 42, 80
1, 136079, Note_on_c, 9, 38, 0
1, 136079, Note_on_c, 9, 42, 0
1, 136080, Note_on_c, 9, 42, 80
1, 136319, Note_on_c, 9, 42, 0
1, 136320, Note_on_c, 9, 42, 80
1, 136320, Note_on_c, 9, 36, 80
1, 136559, Note_on_c, 9, 42, 0
1, 136560, Note_on_c, 9, 42, 80
1, 136799, Note_on_c, 9, 36, 0
1, 136799, Note_on_c, 9, 42, 0
1, 136800, Note_on_c, 9, 42, 80
1, 137039, Note_on_c, 9, 42, 0
1, 137040, Note_on_c, 9, 42, 80
1, 137279, Note_on_c, 9, 42, 0
1, 137280, Note_on_c, 9, 42, 80
1, 137519, Note_on_c, 9, 42, 0
1, 137520, Note_on_c, 9, 42, 80
1, 137759, Note_on_c, 9, 42, 0
1, 137760, Note_on_c, 9, 38, 80
1, 137760, Note_on_c, 9, 42, 80
1, 137999, Note_on_c, 9, 38, 0
1, 137999, Note_on_c, 9, 42, 0
1, 138000, Note_on_c, 9, 42, 80
1, 138239, Note_on_c, 9, 42, 0
1, 138240, Note_on_c, 9, 49, 80
1, 138240, Note_on_c, 9, 36, 80
1, 138479, Note_on_c, 9, 49, 0
1, 138480, Note_on_c, 9, 42, 80
1, 138719, Note_on_c, 9, 36, 0
1, 138719, Note_on_c, 9, 42, 0
1, 138720, Note_on_c, 9, 42, 80
1, 138959, Note_on_c, 9, 42, 0
1, 138960, Note_on_c, 9, 42, 80
1, 139199, Note_on_c, 9, 42, 0
1, 139200, Note_on_c, 9, 42, 80
1, 139439, Note_on_c, 9, 42, 0
1, 139440, Note_on_c, 9, 42, 80
1, 139679, Note_on_c, 9, 42, 0
1, 139680, Note_on_c, 9, 38, 80
1, 139680, Note_on_c, 9, 42, 80
1, 139919, Note_on_c, 9, 38, 0
1, 139919, Note_on_c, 9, 42, 0
1, 139920, Note_on_c, 9, 42, 80
1, 140159, Note_on_c, 9, 42, 0
1, 140160, Note_on_c, 9, 42, 80
1, 140160, Note_on_c, 9, 36, 80
1, 140399, Note_on_c, 9, 42, 0
1, 140400, Note_on_c, 9, 42, 80
1, 140639, Note_on_c, 9, 36, 0
1, 140639, Note_on_c, 9, 42, 0
1, 140640, Note_on_c, 9, 42, 80
1, 140879, Note_on_c, 9, 42, 0
1, 140880, Note_on_c, 9, 42, 80
1, 141119, Note_on_c, 9, 42, 0
1, 141120, Note_on_c, 9, 42, 80
1, 141359, Note_on_c, 9, 42, 0
1, 141360, Note_on_c, 9, 42, 80
1, 141599, Note_on_c, 9, 42, 0
1, 141600, Note_on_c, 9, 38, 80
1, 141600, Note_on_c, 9, 42, 80
1, 141839, Note_on_c, 9, 38, 0
1, 141839, Note_on_c, 9, 42, 0
1, 141840, Note_on_c, 9, 42, 80
1, 142079, Note_on_c, 9, 42, 0
1, 142080, Note_on_c, 9, 42, 80
1, 142080, Note_on_c, 9, 36, 80
1, 142319, Note_on_c, 9, 42, 0
1, 142320, Note_on_c, 9, 42, 80
1, 142559, Note_on_c, 9, 36, 0
1, 142559, Note_on_c, 9, 42, 0
1, 142560, Note_on_c, 9, 42, 80
1, 142799, Note_on_c, 9, 42, 0
1, 142800, Note_on_c, 9, 42, 80
1, 143039, Note_on_c, 9, 42, 0
1, 143040, Note_on_c, 9, 42, 80
1, 143279, Note_on_c, 9, 42, 0
1, 143280, Note_on_c, 9, 42, 80
1, 143519, Note_on_c, 9, 42, 0
1, 143520, Note_on_c, 9, 38, 80
1, 143520, Note_on_c, 9, 42, 80
1, 143759, Note_on_c, 9, 38, 0
1, 143759, Note_on_c, 9, 42, 0
1, 143760, Note_on_c, 9, 42, 80
1, 143999, Note_on_c, 9, 42, 0
1, 144000, Note_on_c, 9, 42, 80
1, 144000, Note_on_c, 9, 36, 80
1, 144239, Note_on_c, 9, 42, 0
1, 144240, Note_on_c, 9, 42, 80
1, 144479, Note_on_c, 9, 36, 0
1, 144479, Note_on_c, 9, 42, 0
1, 144480, Note_on_c, 9, 42, 80
1, 144719, Note_on_c, 9, 42, 0
1, 144720, Note_on_c, 9, 42, 80
1, 144959, Note_on_c, 9, 42, 0
1, 144960, Note_on_c, 9, 42, 80
1, 145199, Note_on_c, 9, 42, 0
1, 145200, Note_on_c, 9, 42, 80
1, 145439, Note_on_c, 9, 42, 0
1, 145440, Note_on_c, 9, 38, 80
1, 145440, Note_on_c, 9, 42, 80
1, 145679, Note_on_c, 9, 38, 0
1, 145679, Note_on_c, 9, 42, 0
1, 145680, Note_on_c, 9, 42, 80
1, 145919, Note_on_c, 9, 42, 0
1, 145920, Note_on_c, 9, 49, 80
1, 145920, Note_on_c, 9, 36, 80
1, 146159, Note_on_c, 9, 49, 0
1, 146160, Note_on_c, 9, 42, 80
1, 146399, Note_on_c, 9, 36, 0
1, 146399, Note_on_c, 9, 42, 0
1, 146400, Note_on_c, 9, 42, 80
1, 146639, Note_on_c, 9, 42, 0
1, 146640, Note_on_c, 9, 42, 80
1, 146879, Note_on_c, 9, 42, 0
1, 146880, Note_on_c, 9, 42, 80
1, 147119, Note_on_c, 9, 42, 0
1, 147120, Note_on_c, 9, 42, 80
1, 147359, Note_on_c, 9, 42, 0
1, 147360, Note_on_c, 9, 38, 80
1, 147360, Note_on_c, 9, 42, 80
1, 147599, Note_on_c, 9, 38, 0
1, 147599, Note_on_c, 9, 42, 0
1, 147600, Note_on_c, 9, 42, 80
1, 147839, Note_on_c, 9, 42, 0
1, 147840, Note_on_c, 9, 42, 80
1, 147840, Note_on_c, 9, 36, 80
1, 148079, Note_on_c, 9, 42, 0
1, 148080, Note_on_c, 9, 42, 80
1, 148319, Note_on_c, 9, 36, 0
1, 148319, Note_on_c, 9, 42, 0
1, 148320, Note_on_c, 9, 42, 80
1, 148559, Note_on_c, 9, 42, 0
1, 148560, Note_on_c, 9, 42, 80
1, 148799, Note_on_c, 9, 42, 0
1, 148800, Note_on_c, 9, 42, 80
1, 149039, Note_on_c, 9, 42, 0
1, 149040, Note_on_c, 9, 42, 80
1, 149279, Note_on_c, 9, 42, 0
1, 149280, Note_on_c, 9, 38, 80
1, 149280, Note_on_c, 9, 42, 80
1, 149519, Note_on_c, 9, 38, 0
1, 149519, Note_on_c, 9, 42, 0
1, 149520, Note_on_c, 9, 42, 80
1, 149759, Note_on_c, 9, 42, 0
1, 149760, Note_on_c, 9, 42, 80
1, 149760, Note_on_c, 9, 36, 80
1, 149999, Note_on_c, 9, 42, 0
1, 150000, Note_on_c, 9, 42, 80
1, 150239, Note_on_c, 9, 36, 0
1, 150239, Note_on_c, 9, 42, 0
1, 150240, Note_on_c, 9, 42, 80
1, 150479, Note_on_c, 9, 42, 0
1, 150480, Note_on_c, 9, 42, 80
1, 150719, Note_on_c, 9, 42, 0
1, 150720, Note_on_c, 9, 42, 80
1, 150959, Note_on_c, 9, 42, 0
1, 150960, Note_on_c, 9, 42, 80
1, 151199, Note_on_c, 9, 42, 0
1, 151200, Note_on_c, 9, 38, 80
1, 151200, Note_on_c, 9, 42, 80
1, 151439, Note_on_c, 9, 38, 0
1, 151439, Note_on_c, 9, 42, 0
1, 151440, Note_on_c, 9, 42, 80
1, 151679, Note_on_c, 9, 42, 0
1, 151680, Note_on_c, 9, 55, 80
1, 151680, Note_on_c, 9, 36, 80
1, 152159, Note_on_c, 9, 55, 0
1, 152159, Note_on_c, 9, 36, 0
1, 152160, Note_on_c, 9, 38, 80
1, 152639, Note_on_c, 9, 38, 0
1, 152640, Note_on_c, 9, 38, 80
1, 153119, Note_on_c, 9, 38, 0
1, 153120, Note_on_c, 9, 38, 80
1, 153359, Note_on_c, 9, 38, 0
1, 153360, Note_on_c, 9, 38, 80
1, 153592, Note_on_c, 9, 38, 0
1, 153593, End_track
2, 0, Start_track
2, 0, Title_t, "Instrument_01\000"
2, 0, Key_signature, 0, "major"
2, 0, Control_c, 0, 121, 0
2, 0, Program_c, 0, 80
2, 0, Control_c, 0, 7, 100
2, 0, Control_c, 0, 10, 64
2, 0, Control_c, 0, 91, 0
2, 0, Control_c, 0, 93, 0
2, 0, MIDI_port, 0
2, 0, Note_on_c, 0, 61, 80
2, 59, Note_on_c, 0, 61, 0
2, 120, Note_on_c, 0, 64, 80
2, 179, Note_on_c, 0, 64, 0
2, 240, Note_on_c, 0, 68, 80
2, 299, Note_on_c, 0, 68, 0
2, 360, Note_on_c, 0, 73, 80
2, 419, Note_on_c, 0, 73, 0
2, 480, Note_on_c, 0, 85, 80
2, 539, Note_on_c, 0, 85, 0
2, 600, Note_on_c, 0, 80, 80
2, 659, Note_on_c, 0, 80, 0
2, 720, Note_on_c, 0, 76, 80
2, 779, Note_on_c, 0, 76, 0
2, 840, Note_on_c, 0, 73, 80
2, 899, Note_on_c, 0, 73, 0
2, 960, Note_on_c, 0, 61, 80
2, 1019, Note_on_c, 0, 61, 0
2, 1080, Note_on_c, 0, 64, 80
2, 1139, Note_on_c, 0, 64, 0
2, 1200, Note_on_c, 0, 68, 80
2, 1259, Note_on_c, 0, 68, 0
2, 1320, Note_on_c, 0, 73, 80
2, 1379, Note_on_c, 0, 73, 0
2, 1440, Note_on_c, 0, 85, 80
2, 1499, Note_on_c, 0, 85, 0
2, 1560, Note_on_c, 0, 80, 80
2, 1619, Note_on_c, 0, 80, 0
2, 1680, Note_on_c, 0, 76, 80
2, 1739, Note_on_c, 0, 76, 0
2, 1800, Note_on_c, 0, 73, 80
2, 1859, Note_on_c, 0, 73, 0
2, 1920, Note_on_c, 0, 56, 80
2, 1979, Note_on_c, 0, 56, 0
2, 2040, Note_on_c, 0, 63, 80
2, 2099, Note_on_c, 0, 63, 0
2, 2160, Note_on_c, 0, 68, 80
2, 2219, Note_on_c, 0, 68, 0
2, 2280, Note_on_c, 0, 71, 80
2, 2339, Note_on_c, 0, 71, 0
2, 2400, Note_on_c, 0, 83, 80
2, 2459, Note_on_c, 0, 83, 0
2, 2520, Note_on_c, 0, 80, 80
2, 2579, Note_on_c, 0, 80, 0
2, 2640, Note_on_c, 0, 75, 80
2, 2699, Note_on_c, 0, 75, 0
2, 2760, Note_on_c, 0, 68, 80
2, 2819, Note_on_c, 0, 68, 0
2, 2880, Note_on_c, 0, 56, 80
2, 2939, Note_on_c, 0, 56, 0
2, 3000, Note_on_c, 0, 63, 80
2, 3059, Note_on_c, 0, 63, 0
2, 3120, Note_on_c, 0, 68, 80
2, 3179, Note_on_c, 0, 68, 0
2, 3240, Note_on_c, 0, 71, 80
2, 3299, Note_on_c, 0, 71, 0
2, 3360, Note_on_c, 0, 83, 80
2, 3419, Note_on_c, 0, 83, 0
2, 3480, Note_on_c, 0, 80, 80
2, 3539, Note_on_c, 0, 80, 0
2, 3600, Note_on_c, 0, 75, 80
2, 3659, Note_on_c, 0, 75, 0
2, 3720, Note_on_c, 0, 68, 80
2, 3779, Note_on_c, 0, 68, 0
2, 3840, Note_on_c, 0, 57, 80
2, 3899, Note_on_c, 0, 57, 0
2, 3960, Note_on_c, 0, 61, 80
2, 4019, Note_on_c, 0, 61, 0
2, 4080, Note_on_c, 0, 64, 80
2, 4139, Note_on_c, 0, 64, 0
2, 4200, Note_on_c, 0, 69, 80
2, 4259, Note_on_c, 0, 69, 0
2, 4320, Note_on_c, 0, 81, 80
2, 4379, Note_on_c, 0, 81, 0
2, 4440, Note_on_c, 0, 76, 80
2, 4499, Note_on_c, 0, 76, 0
2, 4560, Note_on_c, 0, 73, 80
2, 4619, Note_on_c, 0, 73, 0
2, 4680, Note_on_c, 0, 69, 80
2, 4739, Note_on_c, 0, 69, 0
2, 4800, Note_on_c, 0, 57, 80
2, 4859, Note_on_c, 0, 57, 0
2, 4920, Note_on_c, 0, 61, 80
2, 4979, Note_on_c, 0, 61, 0
2, 5040, Note_on_c, 0, 64, 80
2, 5099, Note_on_c, 0, 64, 0
2, 5160, Note_on_c, 0, 69, 80
2, 5219, Note_on_c, 0, 69, 0
2, 5280, Note_on_c, 0, 81, 80
2, 5339, Note_on_c, 0, 81, 0
2, 5400, Note_on_c, 0, 76, 80
2, 5459, Note_on_c, 0, 76, 0
2, 5520, Note_on_c, 0, 73, 80
2, 5579, Note_on_c, 0, 73, 0
2, 5640, Note_on_c, 0, 69, 80
2, 5699, Note_on_c, 0, 69, 0
2, 5760, Note_on_c, 0, 52, 80
2, 5819, Note_on_c, 0, 52, 0
2, 5880, Note_on_c, 0, 59, 80
2, 5939, Note_on_c, 0, 59, 0
2, 6000, Note_on_c, 0, 64, 80
2, 6059, Note_on_c, 0, 64, 0
2, 6120, Note_on_c, 0, 68, 80
2, 6179, Note_on_c, 0, 68, 0
2, 6240, Note_on_c, 0, 80, 80
2, 6299, Note_on_c, 0, 80, 0
2, 6360, Note_on_c, 0, 76, 80
2, 6419, Note_on_c, 0, 76, 0
2, 6480, Note_on_c, 0, 71, 80
2, 6539, Note_on_c, 0, 71, 0
2, 6600, Note_on_c, 0, 64, 80
2, 6659, Note_on_c, 0, 64, 0
2, 6720, Note_on_c, 0, 52, 80
2, 6779, Note_on_c, 0, 52, 0
2, 6840, Note_on_c, 0, 59, 80
2, 6899, Note_on_c, 0, 59, 0
2, 6960, Note_on_c, 0, 64, 80
2, 7019, Note_on_c, 0, 64, 0
2, 7080, Note_on_c, 0, 68, 80
2, 7139, Note_on_c, 0, 68, 0
2, 7200, Note_on_c, 0, 80, 80
2, 7259, Note_on_c, 0, 80, 0
2, 7320, Note_on_c, 0, 76, 80
2, 7379, Note_on_c, 0, 76, 0
2, 7440, Note_on_c, 0, 71, 80
2, 7499, Note_on_c, 0, 71, 0
2, 7560, Note_on_c, 0, 64, 80
2, 7619, Note_on_c, 0, 64, 0
2, 7680, Note_on_c, 0, 52, 80
2, 7739, Note_on_c, 0, 52, 0
2, 7800, Note_on_c, 0, 58, 80
2, 7859, Note_on_c, 0, 58, 0
2, 7920, Note_on_c, 0, 62, 80
2, 7979, Note_on_c, 0, 62, 0
2, 8040, Note_on_c, 0, 68, 80
2, 8099, Note_on_c, 0, 68, 0
2, 8160, Note_on_c, 0, 80, 80
2, 8219, Note_on_c, 0, 80, 0
2, 8280, Note_on_c, 0, 74, 80
2, 8339, Note_on_c, 0, 74, 0
2, 8400, Note_on_c, 0, 70, 80
2, 8459, Note_on_c, 0, 70, 0
2, 8520, Note_on_c, 0, 64, 80
2, 8579, Note_on_c, 0, 64, 0
2, 8640, Note_on_c, 0, 52, 80
2, 8699, Note_on_c, 0, 52, 0
2, 8760, Note_on_c, 0, 58, 80
2, 8819, Note_on_c, 0, 58, 0
2, 8880, Note_on_c, 0, 62, 80
2, 8939, Note_on_c, 0, 62, 0
2, 9000, Note_on_c, 0, 68, 80
2, 9059, Note_on_c, 0, 68, 0
2, 9120, Note_on_c, 0, 80, 80
2, 9179, Note_on_c, 0, 80, 0
2, 9240, Note_on_c, 0, 74, 80
2, 9299, Note_on_c, 0, 74, 0
2, 9360, Note_on_c, 0, 70, 80
2, 9419, Note_on_c, 0, 70, 0
2, 9480, Note_on_c, 0, 64, 80
2, 9539, Note_on_c, 0, 64, 0
2, 9600, Note_on_c, 0, 51, 80
2, 9659, Note_on_c, 0, 51, 0
2, 9720, Note_on_c, 0, 61, 80
2, 9779, Note_on_c, 0, 61, 0
2, 9840, Note_on_c, 0, 67, 80
2, 9899, Note_on_c, 0, 67, 0
2, 9960, Note_on_c, 0, 70, 80
2, 10019, Note_on_c, 0, 70, 0
2, 10080, Note_on_c, 0, 82, 80
2, 10139, Note_on_c, 0, 82, 0
2, 10200, Note_on_c, 0, 79, 80
2, 10259, Note_on_c, 0, 79, 0
2, 10320, Note_on_c, 0, 73, 80
2, 10379, Note_on_c, 0, 73, 0
2, 10440, Note_on_c, 0, 63, 80
2, 10499, Note_on_c, 0, 63, 0
2, 10560, Note_on_c, 0, 51, 80
2, 10619, Note_on_c, 0, 51, 0
2, 10680, Note_on_c, 0, 61, 80
2, 10739, Note_on_c, 0, 61, 0
2, 10800, Note_on_c, 0, 67, 80
2, 10859, Note_on_c, 0, 67, 0
2, 10920, Note_on_c, 0, 70, 80
2, 10979, Note_on_c, 0, 70, 0
2, 11040, Note_on_c, 0, 82, 80
2, 11099, Note_on_c, 0, 82, 0
2, 11160, Note_on_c, 0, 79, 80
2, 11219, Note_on_c, 0, 79, 0
2, 11280, Note_on_c, 0, 73, 80
2, 11339, Note_on_c, 0, 73, 0
2, 11400, Note_on_c, 0, 63, 80
2, 11459, Note_on_c, 0, 63, 0
2, 11520, Note_on_c, 0, 56, 80
2, 11579, Note_on_c, 0, 56, 0
2, 11640, Note_on_c, 0, 61, 80
2, 11699, Note_on_c, 0, 61, 0
2, 11760, Note_on_c, 0, 64, 80
2, 11819, Note_on_c, 0, 64, 0
2, 11880, Note_on_c, 0, 68, 80
2, 11939, Note_on_c, 0, 68, 0
2, 12000, Note_on_c, 0, 80, 80
2, 12059, Note_on_c, 0, 80, 0
2, 12120, Note_on_c, 0, 76, 80
2, 12179, Note_on_c, 0, 76, 0
2, 12240, Note_on_c, 0, 73, 80
2, 12299, Note_on_c, 0, 73, 0
2, 12360, Note_on_c, 0, 68, 80
2, 12419, Note_on_c, 0, 68, 0
2, 12480, Note_on_c, 0, 56, 80
2, 12539, Note_on_c, 0, 56, 0
2, 12600, Note_on_c, 0, 61, 80
2, 12659, Note_on_c, 0, 61, 0
2, 12720, Note_on_c, 0, 64, 80
2, 12779, Note_on_c, 0, 64, 0
2, 12840, Note_on_c, 0, 68, 80
2, 12899, Note_on_c, 0, 68, 0
2, 12960, Note_on_c, 0, 80, 80
2, 13019, Note_on_c, 0, 80, 0
2, 13080, Note_on_c, 0, 76, 80
2, 13139, Note_on_c, 0, 76, 0
2, 13200, Note_on_c, 0, 73, 80
2, 13259, Note_on_c, 0, 73, 0
2, 13320, Note_on_c, 0, 68, 80
2, 13379, Note_on_c, 0, 68, 0
2, 13440, Note_on_c, 0, 56, 80
2, 13499, Note_on_c, 0, 56, 0
2, 13560, Note_on_c, 0, 63, 80
2, 13619, Note_on_c, 0, 63, 0
2, 13680, Note_on_c, 0, 66, 80
2, 13739, Note_on_c, 0, 66, 0
2, 13800, Note_on_c, 0, 72, 80
2, 13859, Note_on_c, 0, 72, 0
2, 13920, Note_on_c, 0, 84, 80
2, 13979, Note_on_c, 0, 84, 0
2, 14040, Note_on_c, 0, 78, 80
2, 14099, Note_on_c, 0, 78, 0
2, 14160, Note_on_c, 0, 75, 80
2, 14219, Note_on_c, 0, 75, 0
2, 14280, Note_on_c, 0, 68, 80
2, 14339, Note_on_c, 0, 68, 0
2, 14400, Note_on_c, 0, 56, 80
2, 14459, Note_on_c, 0, 56, 0
2, 14520, Note_on_c, 0, 63, 80
2, 14579, Note_on_c, 0, 63, 0
2, 14640, Note_on_c, 0, 66, 80
2, 14699, Note_on_c, 0, 66, 0
2, 14760, Note_on_c, 0, 72, 80
2, 14819, Note_on_c, 0, 72, 0
2, 14880, Note_on_c, 0, 84, 80
2, 14939, Note_on_c, 0, 84, 0
2, 15000, Note_on_c, 0, 78, 80
2, 15059, Note_on_c, 0, 78, 0
2, 15120, Note_on_c, 0, 75, 80
2, 15179, Note_on_c, 0, 75, 0
2, 15240, Note_on_c, 0, 68, 80
2, 15299, Note_on_c, 0, 68, 0
2, 15360, Note_on_c, 0, 61, 80
2, 15419, Note_on_c, 0, 61, 0
2, 15480, Note_on_c, 0, 64, 80
2, 15539, Note_on_c, 0, 64, 0
2, 15600, Note_on_c, 0, 68, 80
2, 15659, Note_on_c, 0, 68, 0
2, 15720, Note_on_c, 0, 73, 80
2, 15779, Note_on_c, 0, 73, 0
2, 15840, Note_on_c, 0, 85, 80
2, 15899, Note_on_c, 0, 85, 0
2, 15960, Note_on_c, 0, 80, 80
2, 16019, Note_on_c, 0, 80, 0
2, 16080, Note_on_c, 0, 76, 80
2, 16139, Note_on_c, 0, 76, 0
2, 16200, Note_on_c, 0, 73, 80
2, 16259, Note_on_c, 0, 73, 0
2, 16320, Note_on_c, 0, 61, 80
2, 16379, Note_on_c, 0, 61, 0
2, 16440, Note_on_c, 0, 64, 80
2, 16499, Note_on_c, 0, 64, 0
2, 16560, Note_on_c, 0, 68, 80
2, 16619, Note_on_c, 0, 68, 0
2, 16680, Note_on_c, 0, 73, 80
2, 16739, Note_on_c, 0, 73, 0
2, 16800, Note_on_c, 0, 85, 80
2, 16859, Note_on_c, 0, 85, 0
2, 16920, Note_on_c, 0, 80, 80
2, 16979, Note_on_c, 0, 80, 0
2, 17040, Note_on_c, 0, 76, 80
2, 17099, Note_on_c, 0, 76, 0
2, 17160, Note_on_c, 0, 73, 80
2, 17219, Note_on_c, 0, 73, 0
2, 17280, Note_on_c, 0, 56, 80
2, 17339, Note_on_c, 0, 56, 0
2, 17400, Note_on_c, 0, 63, 80
2, 17459, Note_on_c, 0, 63, 0
2, 17520, Note_on_c, 0, 68, 80
2, 17579, Note_on_c, 0, 68, 0
2, 17640, Note_on_c, 0, 71, 80
2, 17699, Note_on_c, 0, 71, 0
2, 17760, Note_on_c, 0, 83, 80
2, 17819, Note_on_c, 0, 83, 0
2, 17880, Note_on_c, 0, 80, 80
2, 17939, Note_on_c, 0, 80, 0
2, 18000, Note_on_c, 0, 75, 80
2, 18059, Note_on_c, 0, 75, 0
2, 18120, Note_on_c, 0, 68, 80
2, 18179, Note_on_c, 0, 68, 0
2, 18240, Note_on_c, 0, 56, 80
2, 18299, Note_on_c, 0, 56, 0
2, 18360, Note_on_c, 0, 63, 80
2, 18419, Note_on_c, 0, 63, 0
2, 18480, Note_on_c, 0, 68, 80
2, 18539, Note_on_c, 0, 68, 0
2, 18600, Note_on_c, 0, 71, 80
2, 18659, Note_on_c, 0, 71, 0
2, 18720, Note_on_c, 0, 83, 80
2, 18779, Note_on_c, 0, 83, 0
2, 18840, Note_on_c, 0, 80, 80
2, 18899, Note_on_c, 0, 80, 0
2, 18960, Note_on_c, 0, 75, 80
2, 19019, Note_on_c, 0, 75, 0
2, 19080, Note_on_c, 0, 68, 80
2, 19139, Note_on_c, 0, 68, 0
2, 19200, Note_on_c, 0, 57, 80
2, 19259, Note_on_c, 0, 57, 0
2, 19320, Note_on_c, 0, 61, 80
2, 19379, Note_on_c, 0, 61, 0
2, 19440, Note_on_c, 0, 64, 80
2, 19499, Note_on_c, 0, 64, 0
2, 19560, Note_on_c, 0, 69, 80
2, 19619, Note_on_c, 0, 69, 0
2, 19680, Note_on_c, 0, 81, 80
2, 19739, Note_on_c, 0, 81, 0
2, 19800, Note_on_c, 0, 76, 80
2, 19859, Note_on_c, 0, 76, 0
2, 19920, Note_on_c, 0, 73, 80
2, 19979, Note_on_c, 0, 73, 0
2, 20040, Note_on_c, 0, 69, 80
2, 20099, Note_on_c, 0, 69, 0
2, 20160, Note_on_c, 0, 57, 80
2, 20219, Note_on_c, 0, 57, 0
2, 20280, Note_on_c, 0, 61, 80
2, 20339, Note_on_c, 0, 61, 0
2, 20400, Note_on_c, 0, 64, 80
2, 20459, Note_on_c, 0, 64, 0
2, 20520, Note_on_c, 0, 69, 80
2, 20579, Note_on_c, 0, 69, 0
2, 20640, Note_on_c, 0, 81, 80
2, 20699, Note_on_c, 0, 81, 0
2, 20760, Note_on_c, 0, 76, 80
2, 20819, Note_on_c, 0, 76, 0
2, 20880, Note_on_c, 0, 73, 80
2, 20939, Note_on_c, 0, 73, 0
2, 21000, Note_on_c, 0, 69, 80
2, 21059, Note_on_c, 0, 69, 0
2, 21120, Note_on_c, 0, 52, 80
2, 21179, Note_on_c, 0, 52, 0
2, 21240, Note_on_c, 0, 59, 80
2, 21299, Note_on_c, 0, 59, 0
2, 21360, Note_on_c, 0, 64, 80
2, 21419, Note_on_c, 0, 64, 0
2, 21480, Note_on_c, 0, 68, 80
2, 21539, Note_on_c, 0, 68, 0
2, 21600, Note_on_c, 0, 80, 80
2, 21659, Note_on_c, 0, 80, 0
2, 21720, Note_on_c, 0, 76, 80
2, 21779, Note_on_c, 0, 76, 0
2, 21840, Note_on_c, 0, 71, 80
2, 21899, Note_on_c, 0, 71, 0
2, 21960, Note_on_c, 0, 64, 80
2, 22019, Note_on_c, 0, 64, 0
2, 22080, Note_on_c, 0, 52, 80
2, 22139, Note_on_c, 0, 52, 0
2, 22200, Note_on_c, 0, 59, 80
2, 22259, Note_on_c, 0, 59, 0
2, 22320, Note_on_c, 0, 64, 80
2, 22379, Note_on_c, 0, 64, 0
2, 22440, Note_on_c, 0, 68, 80
2, 22499, Note_on_c, 0, 68, 0
2, 22560, Note_on_c, 0, 80, 80
2, 22619, Note_on_c, 0, 80, 0
2, 22680, Note_on_c, 0, 76, 80
2, 22739, Note_on_c, 0, 76, 0
2, 22800, Note_on_c, 0, 71, 80
2, 22859, Note_on_c, 0, 71, 0
2, 22920, Note_on_c, 0, 64, 80
2, 22979, Note_on_c, 0, 64, 0
2, 23040, Note_on_c, 0, 52, 80
2, 23099, Note_on_c, 0, 52, 0
2, 23160, Note_on_c, 0, 58, 80
2, 23219, Note_on_c, 0, 58, 0
2, 23280, Note_on_c, 0, 62, 80
2, 23339, Note_on_c, 0, 62, 0
2, 23400, Note_on_c, 0, 68, 80
2, 23459, Note_on_c, 0, 68, 0
2, 23520, Note_on_c, 0, 80, 80
2, 23579, Note_on_c, 0, 80, 0
2, 23640, Note_on_c, 0, 74, 80
2, 23699, Note_on_c, 0, 74, 0
2, 23760, Note_on_c, 0, 70, 80
2, 23819, Note_on_c, 0, 70, 0
2, 23880, Note_on_c, 0, 64, 80
2, 23939, Note_on_c, 0, 64, 0
2, 24000, Note_on_c, 0, 52, 80
2, 24059, Note_on_c, 0, 52, 0
2, 24120, Note_on_c, 0, 58, 80
2, 24179, Note_on_c, 0, 58, 0
2, 24240, Note_on_c, 0, 62, 80
2, 24299, Note_on_c, 0, 62, 0
2, 24360, Note_on_c, 0, 68, 80
2, 24419, Note_on_c, 0, 68, 0
2, 24480, Note_on_c, 0, 80, 80
2, 24539, Note_on_c, 0, 80, 0
2, 24600, Note_on_c, 0, 74, 80
2, 24659, Note_on_c, 0, 74, 0
2, 24720, Note_on_c, 0, 70, 80
2, 24779, Note_on_c, 0, 70, 0
2, 24840, Note_on_c, 0, 64, 80
2, 24899, Note_on_c, 0, 64, 0
2, 24960, Note_on_c, 0, 51, 80
2, 25019, Note_on_c, 0, 51, 0
2, 25080, Note_on_c, 0, 61, 80
2, 25139, Note_on_c, 0, 61, 0
2, 25200, Note_on_c, 0, 67, 80
2, 25259, Note_on_c, 0, 67, 0
2, 25320, Note_on_c, 0, 70, 80
2, 25379, Note_on_c, 0, 70, 0
2, 25440, Note_on_c, 0, 82, 80
2, 25499, Note_on_c, 0, 82, 0
2, 25560, Note_on_c, 0, 79, 80
2, 25619, Note_on_c, 0, 79, 0
2, 25680, Note_on_c, 0, 73, 80
2, 25739, Note_on_c, 0, 73, 0
2, 25800, Note_on_c, 0, 63, 80
2, 25859, Note_on_c, 0, 63, 0
2, 25920, Note_on_c, 0, 51, 80
2, 25979, Note_on_c, 0, 51, 0
2, 26040, Note_on_c, 0, 61, 80
2, 26099, Note_on_c, 0, 61, 0
2, 26160, Note_on_c, 0, 67, 80
2, 26219, Note_on_c, 0, 67, 0
2, 26280, Note_on_c, 0, 70, 80
2, 26339, Note_on_c, 0, 70, 0
2, 26400, Note_on_c, 0, 82, 80
2, 26459, Note_on_c, 0, 82, 0
2, 26520, Note_on_c, 0, 79, 80
2, 26579, Note_on_c, 0, 79, 0
2, 26640, Note_on_c, 0, 73, 80
2, 26699, Note_on_c, 0, 73, 0
2, 26760, Note_on_c, 0, 63, 80
2, 26819, Note_on_c, 0, 63, 0
2, 26880, Note_on_c, 0, 56, 80
2, 26939, Note_on_c, 0, 56, 0
2, 27000, Note_on_c, 0, 61, 80
2, 27059, Note_on_c, 0, 61, 0
2, 27120, Note_on_c, 0, 64, 80
2, 27179, Note_on_c, 0, 64, 0
2, 27240, Note_on_c, 0, 68, 80
2, 27299, Note_on_c, 0, 68, 0
2, 27360, Note_on_c, 0, 80, 80
2, 27419, Note_on_c, 0, 80, 0
2, 27480, Note_on_c, 0, 76, 80
2, 27539, Note_on_c, 0, 76, 0
2, 27600, Note_on_c, 0, 73, 80
2, 27659, Note_on_c, 0, 73, 0
2, 27720, Note_on_c, 0, 68, 80
2, 27779, Note_on_c, 0, 68, 0
2, 27840, Note_on_c, 0, 56, 80
2, 27899, Note_on_c, 0, 56, 0
2, 27960, Note_on_c, 0, 61, 80
2, 28019, Note_on_c, 0, 61, 0
2, 28080, Note_on_c, 0, 64, 80
2, 28139, Note_on_c, 0, 64, 0
2, 28200, Note_on_c, 0, 68, 80
2, 28259, Note_on_c, 0, 68, 0
2, 28320, Note_on_c, 0, 80, 80
2, 28379, Note_on_c, 0, 80, 0
2, 28440, Note_on_c, 0, 76, 80
2, 28499, Note_on_c, 0, 76, 0
2, 28560, Note_on_c, 0, 73, 80
2, 28619, Note_on_c, 0, 73, 0
2, 28680, Note_on_c, 0, 68, 80
2, 28739, Note_on_c, 0, 68, 0
2, 28800, Note_on_c, 0, 56, 80
2, 28859, Note_on_c, 0, 56, 0
2, 28920, Note_on_c, 0, 63, 80
2, 28979, Note_on_c, 0, 63, 0
2, 29040, Note_on_c, 0, 66, 80
2, 29099, Note_on_c, 0, 66, 0
2, 29160, Note_on_c, 0, 72, 80
2, 29219, Note_on_c, 0, 72, 0
2, 29280, Note_on_c, 0, 84, 80
2, 29339, Note_on_c, 0, 84, 0
2, 29400, Note_on_c, 0, 78, 80
2, 29459, Note_on_c, 0, 78, 0
2, 29520, Note_on_c, 0, 75, 80
2, 29579, Note_on_c, 0, 75, 0
2, 29640, Note_on_c, 0, 68, 80
2, 29699, Note_on_c, 0, 68, 0
2, 29760, Note_on_c, 0, 56, 80
2, 29819, Note_on_c, 0, 56, 0
2, 29880, Note_on_c, 0, 63, 80
2, 29939, Note_on_c, 0, 63, 0
2, 30000, Note_on_c, 0, 66, 80
2, 30059, Note_on_c, 0, 66, 0
2, 30120, Note_on_c, 0, 72, 80
2, 30179, Note_on_c, 0, 72, 0
2, 30240, Note_on_c, 0, 84, 80
2, 30299, Note_on_c, 0, 84, 0
2, 30360, Note_on_c, 0, 78, 80
2, 30419, Note_on_c, 0, 78, 0
2, 30480, Note_on_c, 0, 75, 80
2, 30539, Note_on_c, 0, 75, 0
2, 30600, Note_on_c, 0, 68, 80
2, 30659, Note_on_c, 0, 68, 0
2, 30720, Note_on_c, 0, 61, 80
2, 30779, Note_on_c, 0, 61, 0
2, 30840, Note_on_c, 0, 64, 80
2, 30899, Note_on_c, 0, 64, 0
2, 30960, Note_on_c, 0, 68, 80
2, 31019, Note_on_c, 0, 68, 0
2, 31080, Note_on_c, 0, 73, 80
2, 31139, Note_on_c, 0, 73, 0
2, 31200, Note_on_c, 0, 85, 80
2, 31259, Note_on_c, 0, 85, 0
2, 31320, Note_on_c, 0, 80, 80
2, 31379, Note_on_c, 0, 80, 0
2, 31440, Note_on_c, 0, 76, 80
2, 31499, Note_on_c, 0, 76, 0
2, 31560, Note_on_c, 0, 73, 80
2, 31619, Note_on_c, 0, 73, 0
2, 31680, Note_on_c, 0, 61, 80
2, 31739, Note_on_c, 0, 61, 0
2, 31800, Note_on_c, 0, 64, 80
2, 31859, Note_on_c, 0, 64, 0
2, 31920, Note_on_c, 0, 68, 80
2, 31979, Note_on_c, 0, 68, 0
2, 32040, Note_on_c, 0, 73, 80
2, 32099, Note_on_c, 0, 73, 0
2, 32160, Note_on_c, 0, 85, 80
2, 32219, Note_on_c, 0, 85, 0
2, 32280, Note_on_c, 0, 80, 80
2, 32339, Note_on_c, 0, 80, 0
2, 32400, Note_on_c, 0, 76, 80
2, 32459, Note_on_c, 0, 76, 0
2, 32520, Note_on_c, 0, 73, 80
2, 32579, Note_on_c, 0, 73, 0
2, 32640, Note_on_c, 0, 56, 80
2, 32699, Note_on_c, 0, 56, 0
2, 32760, Note_on_c, 0, 63, 80
2, 32819, Note_on_c, 0, 63, 0
2, 32880, Note_on_c, 0, 68, 80
2, 32939, Note_on_c, 0, 68, 0
2, 33000, Note_on_c, 0, 71, 80
2, 33059, Note_on_c, 0, 71, 0
2, 33120, Note_on_c, 0, 83, 80
2, 33179, Note_on_c, 0, 83, 0
2, 33240, Note_on_c, 0, 80, 80
2, 33299, Note_on_c, 0, 80, 0
2, 33360, Note_on_c, 0, 75, 80
2, 33419, Note_on_c, 0, 75, 0
2, 33480, Note_on_c, 0, 68, 80
2, 33539, Note_on_c, 0, 68, 0
2, 33600, Note_on_c, 0, 56, 80
2, 33659, Note_on_c, 0, 56, 0
2, 33720, Note_on_c, 0, 63, 80
2, 33779, Note_on_c, 0, 63, 0
2, 33840, Note_on_c, 0, 68, 80
2, 33899, Note_on_c, 0, 68, 0
2, 33960, Note_on_c, 0, 71, 80
2, 34019, Note_on_c, 0, 71, 0
2, 34080, Note_on_c, 0, 83, 80
2, 34139, Note_on_c, 0, 83, 0
2, 34200, Note_on_c, 0, 80, 80
2, 34259, Note_on_c, 0, 80, 0
2, 34320, Note_on_c, 0, 75, 80
2, 34379, Note_on_c, 0, 75, 0
2, 34440, Note_on_c, 0, 68, 80
2, 34499, Note_on_c, 0, 68, 0
2, 34560, Note_on_c, 0, 57, 80
2, 34619, Note_on_c, 0, 57, 0
2, 34680, Note_on_c, 0, 61, 80
2, 34739, Note_on_c, 0, 61, 0
2, 34800, Note_on_c, 0, 64, 80
2, 34859, Note_on_c, 0, 64, 0
2, 34920, Note_on_c, 0, 69, 80
2, 34979, Note_on_c, 0, 69, 0
2, 35040, Note_on_c, 0, 81, 80
2, 35099, Note_on_c, 0, 81, 0
2, 35160, Note_on_c, 0, 76, 80
2, 35219, Note_on_c, 0, 76, 0
2, 35280, Note_on_c, 0, 73, 80
2, 35339, Note_on_c, 0, 73, 0
2, 35400, Note_on_c, 0, 69, 80
2, 35459, Note_on_c, 0, 69, 0
2, 35520, Note_on_c, 0, 57, 80
2, 35579, Note_on_c, 0, 57, 0
2, 35640, Note_on_c, 0, 61, 80
2, 35699, Note_on_c, 0, 61, 0
2, 35760, Note_on_c, 0, 64, 80
2, 35819, Note_on_c, 0, 64, 0
2, 35880, Note_on_c, 0, 69, 80
2, 35939, Note_on_c, 0, 69, 0
2, 36000, Note_on_c, 0, 81, 80
2, 36059, Note_on_c, 0, 81, 0
2, 36120, Note_on_c, 0, 76, 80
2, 36179, Note_on_c, 0, 76, 0
2, 36240, Note_on_c, 0, 73, 80
2, 36299, Note_on_c, 0, 73, 0
2, 36360, Note_on_c, 0, 69, 80
2, 36419, Note_on_c, 0, 69, 0
2, 36480, Note_on_c, 0, 52, 80
2, 36539, Note_on_c, 0, 52, 0
2, 36600, Note_on_c, 0, 59, 80
2, 36659, Note_on_c, 0, 59, 0
2, 36720, Note_on_c, 0, 64, 80
2, 36779, Note_on_c, 0, 64, 0
2, 36840, Note_on_c, 0, 68, 80
2, 36899, Note_on_c, 0, 68, 0
2, 36960, Note_on_c, 0, 80, 80
2, 37019, Note_on_c, 0, 80, 0
2, 37080, Note_on_c, 0, 76, 80
2, 37139, Note_on_c, 0, 76, 0
2, 37200, Note_on_c, 0, 71, 80
2, 37259, Note_on_c, 0, 71, 0
2, 37320, Note_on_c, 0, 64, 80
2, 37379, Note_on_c, 0, 64, 0
2, 37440, Note_on_c, 0, 52, 80
2, 37499, Note_on_c, 0, 52, 0
2, 37560, Note_on_c, 0, 59, 80
2, 37619, Note_on_c, 0, 59, 0
2, 37680, Note_on_c, 0, 64, 80
2, 37739, Note_on_c, 0, 64, 0
2, 37800, Note_on_c, 0, 68, 80
2, 37859, Note_on_c, 0, 68, 0
2, 37920, Note_on_c, 0, 80, 80
2, 37979, Note_on_c, 0, 80, 0
2, 38040, Note_on_c, 0, 76, 80
2, 38099, Note_on_c, 0, 76, 0
2, 38160, Note_on_c, 0, 71, 80
2, 38219, Note_on_c, 0, 71, 0
2, 38280, Note_on_c, 0, 64, 80
2, 38339, Note_on_c, 0, 64, 0
2, 38400, Note_on_c, 0, 52, 80
2, 38459, Note_on_c, 0, 52, 0
2, 38520, Note_on_c, 0, 58, 80
2, 38579, Note_on_c, 0, 58, 0
2, 38640, Note_on_c, 0, 62, 80
2, 38699, Note_on_c, 0, 62, 0
2, 38760, Note_on_c, 0, 68, 80
2, 38819, Note_on_c, 0, 68, 0
2, 38880, Note_on_c, 0, 80, 80
2, 38939, Note_on_c, 0, 80, 0
2, 39000, Note_on_c, 0, 74, 80
2, 39059, Note_on_c, 0, 74, 0
2, 39120, Note_on_c, 0, 70, 80
2, 39179, Note_on_c, 0, 70, 0
2, 39240, Note_on_c, 0, 64, 80
2, 39299, Note_on_c, 0, 64, 0
2, 39360, Note_on_c, 0, 52, 80
2, 39419, Note_on_c, 0, 52, 0
2, 39480, Note_on_c, 0, 58, 80
2, 39539, Note_on_c, 0, 58, 0
2, 39600, Note_on_c, 0, 62, 80
2, 39659, Note_on_c, 0, 62, 0
2, 39720, Note_on_c, 0, 68, 80
2, 39779, Note_on_c, 0, 68, 0
2, 39840, Note_on_c, 0, 80, 80
2, 39899, Note_on_c, 0, 80, 0
2, 39960, Note_on_c, 0, 74, 80
2, 40019, Note_on_c, 0, 74, 0
2, 40080, Note_on_c, 0, 70, 80
2, 40139, Note_on_c, 0, 70, 0
2, 40200, Note_on_c, 0, 64, 80
2, 40259, Note_on_c, 0, 64, 0
2, 40320, Note_on_c, 0, 51, 80
2, 40379, Note_on_c, 0, 51, 0
2, 40440, Note_on_c, 0, 61, 80
2, 40499, Note_on_c, 0, 61, 0
2, 40560, Note_on_c, 0, 67, 80
2, 40619, Note_on_c, 0, 67, 0
2, 40680, Note_on_c, 0, 70, 80
2, 40739, Note_on_c, 0, 70, 0
2, 40800, Note_on_c, 0, 82, 80
2, 40859, Note_on_c, 0, 82, 0
2, 40920, Note_on_c, 0, 79, 80
2, 40979, Note_on_c, 0, 79, 0
2, 41040, Note_on_c, 0, 73, 80
2, 41099, Note_on_c, 0, 73, 0
2, 41160, Note_on_c, 0, 63, 80
2, 41219, Note_on_c, 0, 63, 0
2, 41280, Note_on_c, 0, 51, 80
2, 41339, Note_on_c, 0, 51, 0
2, 41400, Note_on_c, 0, 61, 80
2, 41459, Note_on_c, 0, 61, 0
2, 41520, Note_on_c, 0, 67, 80
2, 41579, Note_on_c, 0, 67, 0
2, 41640, Note_on_c, 0, 70, 80
2, 41699, Note_on_c, 0, 70, 0
2, 41760, Note_on_c, 0, 82, 80
2, 41819, Note_on_c, 0, 82, 0
2, 41880, Note_on_c, 0, 79, 80
2, 41939, Note_on_c, 0, 79, 0
2, 42000, Note_on_c, 0, 73, 80
2, 42059, Note_on_c, 0, 73, 0
2, 42120, Note_on_c, 0, 63, 80
2, 42179, Note_on_c, 0, 63, 0
2, 42240, Note_on_c, 0, 56, 80
2, 42299, Note_on_c, 0, 56, 0
2, 42360, Note_on_c, 0, 61, 80
2, 42419, Note_on_c, 0, 61, 0
2, 42480, Note_on_c, 0, 64, 80
2, 42539, Note_on_c, 0, 64, 0
2, 42600, Note_on_c, 0, 68, 80
2, 42659, Note_on_c, 0, 68, 0
2, 42720, Note_on_c, 0, 80, 80
2, 42779, Note_on_c, 0, 80, 0
2, 42840, Note_on_c, 0, 76, 80
2, 42899, Note_on_c, 0, 76, 0
2, 42960, Note_on_c, 0, 73, 80
2, 43019, Note_on_c, 0, 73, 0
2, 43080, Note_on_c, 0, 68, 80
2, 43139, Note_on_c, 0, 68, 0
2, 43200, Note_on_c, 0, 56, 80
2, 43259, Note_on_c, 0, 56, 0
2, 43320, Note_on_c, 0, 61, 80
2, 43379, Note_on_c, 0, 61, 0
2, 43440, Note_on_c, 0, 64, 80
2, 43499, Note_on_c, 0, 64, 0
2, 43560, Note_on_c, 0, 68, 80
2, 43619, Note_on_c, 0, 68, 0
2, 43680, Note_on_c, 0, 80, 80
2, 43739, Note_on_c, 0, 80, 0
2, 43800, Note_on_c, 0, 76, 80
2, 43859, Note_on_c, 0, 76, 0
2, 43920, Note_on_c, 0, 73, 80
2, 43979, Note_on_c, 0, 73, 0
2, 44040, Note_on_c, 0, 68, 80
2, 44099, Note_on_c, 0, 68, 0
2, 44160, Note_on_c, 0, 56, 80
2, 44219, Note_on_c, 0, 56, 0
2, 44280, Note_on_c, 0, 63, 80
2, 44339, Note_on_c, 0, 63, 0
2, 44400, Note_on_c, 0, 66, 80
2, 44459, Note_on_c, 0, 66, 0
2, 44520, Note_on_c, 0, 72, 80
2, 44579, Note_on_c, 0, 72, 0
2, 44640, Note_on_c, 0, 84, 80
2, 44699, Note_on_c, 0, 84, 0
2, 44760, Note_on_c, 0, 78, 80
2, 44819, Note_on_c, 0, 78, 0
2, 44880, Note_on_c, 0, 75, 80
2, 44939, Note_on_c, 0, 75, 0
2, 45000, Note_on_c, 0, 68, 80
2, 45059, Note_on_c, 0, 68, 0
2, 45120, Note_on_c, 0, 56, 80
2, 45179, Note_on_c, 0, 56, 0
2, 45240, Note_on_c, 0, 63, 80
2, 45299, Note_on_c, 0, 63, 0
2, 45360, Note_on_c, 0, 66, 80
2, 45419, Note_on_c, 0, 66, 0
2, 45480, Note_on_c, 0, 72, 80
2, 45539, Note_on_c, 0, 72, 0
2, 45600, Note_on_c, 0, 84, 80
2, 45659, Note_on_c, 0, 84, 0
2, 45720, Note_on_c, 0, 78, 80
2, 45779, Note_on_c, 0, 78, 0
2, 45840, Note_on_c, 0, 75, 80
2, 45899, Note_on_c, 0, 75, 0
2, 45960, Note_on_c, 0, 68, 80
2, 46019, Note_on_c, 0, 68, 0
2, 46080, Note_on_c, 0, 61, 80
2, 46139, Note_on_c, 0, 61, 0
2, 46200, Note_on_c, 0, 64, 80
2, 46259, Note_on_c, 0, 64, 0
2, 46320, Note_on_c, 0, 68, 80
2, 46379, Note_on_c, 0, 68, 0
2, 46440, Note_on_c, 0, 73, 80
2, 46499, Note_on_c, 0, 73, 0
2, 46560, Note_on_c, 0, 85, 80
2, 46619, Note_on_c, 0, 85, 0
2, 46680, Note_on_c, 0, 80, 80
2, 46739, Note_on_c, 0, 80, 0
2, 46800, Note_on_c, 0, 76, 80
2, 46859, Note_on_c, 0, 76, 0
2, 46920, Note_on_c, 0, 73, 80
2, 46979, Note_on_c, 0, 73, 0
2, 47040, Note_on_c, 0, 61, 80
2, 47099, Note_on_c, 0, 61, 0
2, 47160, Note_on_c, 0, 64, 80
2, 47219, Note_on_c, 0, 64, 0
2, 47280, Note_on_c, 0, 68, 80
2, 47339, Note_on_c, 0, 68, 0
2, 47400, Note_on_c, 0, 73, 80
2, 47459, Note_on_c, 0, 73, 0
2, 47520, Note_on_c, 0, 85, 80
2, 47579, Note_on_c, 0, 85, 0
2, 47640, Note_on_c, 0, 80, 80
2, 47699, Note_on_c, 0, 80, 0
2, 47760, Note_on_c, 0, 76, 80
2, 47819, Note_on_c, 0, 76, 0
2, 47880, Note_on_c, 0, 73, 80
2, 47939, Note_on_c, 0, 73, 0
2, 48000, Note_on_c, 0, 56, 80
2, 48059, Note_on_c, 0, 56, 0
2, 48120, Note_on_c, 0, 63, 80
2, 48179, Note_on_c, 0, 63, 0
2, 48240, Note_on_c, 0, 68, 80
2, 48299, Note_on_c, 0, 68, 0
2, 48360, Note_on_c, 0, 71, 80
2, 48419, Note_on_c, 0, 71, 0
2, 48480, Note_on_c, 0, 83, 80
2, 48539, Note_on_c, 0, 83, 0
2, 48600, Note_on_c, 0, 80, 80
2, 48659, Note_on_c, 0, 80, 0
2, 48720, Note_on_c, 0, 75, 80
2, 48779, Note_on_c, 0, 75, 0
2, 48840, Note_on_c, 0, 68, 80
2, 48899, Note_on_c, 0, 68, 0
2, 48960, Note_on_c, 0, 56, 80
2, 49019, Note_on_c, 0, 56, 0
2, 49080, Note_on_c, 0, 63, 80
2, 49139, Note_on_c, 0, 63, 0
2, 49200, Note_on_c, 0, 68, 80
2, 49259, Note_on_c, 0, 68, 0
2, 49320, Note_on_c, 0, 71, 80
2, 49379, Note_on_c, 0, 71, 0
2, 49440, Note_on_c, 0, 83, 80
2, 49499, Note_on_c, 0, 83, 0
2, 49560, Note_on_c, 0, 80, 80
2, 49619, Note_on_c, 0, 80, 0
2, 49680, Note_on_c, 0, 75, 80
2, 49739, Note_on_c, 0, 75, 0
2, 49800, Note_on_c, 0, 68, 80
2, 49859, Note_on_c, 0, 68, 0
2, 49920, Note_on_c, 0, 57, 80
2, 49979, Note_on_c, 0, 57, 0
2, 50040, Note_on_c, 0, 61, 80
2, 50099, Note_on_c, 0, 61, 0
2, 50160, Note_on_c, 0, 64, 80
2, 50219, Note_on_c, 0, 64, 0
2, 50280, Note_on_c, 0, 69, 80
2, 50339, Note_on_c, 0, 69, 0
2, 50400, Note_on_c, 0, 81, 80
2, 50459, Note_on_c, 0, 81, 0
2, 50520, Note_on_c, 0, 76, 80
2, 50579, Note_on_c, 0, 76, 0
2, 50640, Note_on_c, 0, 73, 80
2, 50699, Note_on_c, 0, 73, 0
2, 50760, Note_on_c, 0, 69, 80
2, 50819, Note_on_c, 0, 69, 0
2, 50880, Note_on_c, 0, 57, 80
2, 50939, Note_on_c, 0, 57, 0
2, 51000, Note_on_c, 0, 61, 80
2, 51059, Note_on_c, 0, 61, 0
2, 51120, Note_on_c, 0, 64, 80
2, 51179, Note_on_c, 0, 64, 0
2, 51240, Note_on_c, 0, 69, 80
2, 51299, Note_on_c, 0, 69, 0
2, 51360, Note_on_c, 0, 81, 80
2, 51419, Note_on_c, 0, 81, 0
2, 51480, Note_on_c, 0, 76, 80
2, 51539, Note_on_c, 0, 76, 0
2, 51600, Note_on_c, 0, 73, 80
2, 51659, Note_on_c, 0, 73, 0
2, 51720, Note_on_c, 0, 69, 80
2, 51779, Note_on_c, 0, 69, 0
2, 51840, Note_on_c, 0, 52, 80
2, 51899, Note_on_c, 0, 52, 0
2, 51960, Note_on_c, 0, 59, 80
2, 52019, Note_on_c, 0, 59, 0
2, 52080, Note_on_c, 0, 64, 80
2, 52139, Note_on_c, 0, 64, 0
2, 52200, Note_on_c, 0, 68, 80
2, 52259, Note_on_c, 0, 68, 0
2, 52320, Note_on_c, 0, 80, 80
2, 52379, Note_on_c, 0, 80, 0
2, 52440, Note_on_c, 0, 76, 80
2, 52499, Note_on_c, 0, 76, 0
2, 52560, Note_on_c, 0, 71, 80
2, 52619, Note_on_c, 0, 71, 0
2, 52680, Note_on_c, 0, 64, 80
2, 52739, Note_on_c, 0, 64, 0
2, 52800, Note_on_c, 0, 52, 80
2, 52859, Note_on_c, 0, 52, 0
2, 52920, Note_on_c, 0, 59, 80
2, 52979, Note_on_c, 0, 59, 0
2, 53040, Note_on_c, 0, 64, 80
2, 53099, Note_on_c, 0, 64, 0
2, 53160, Note_on_c, 0, 68, 80
2, 53219, Note_on_c, 0, 68, 0
2, 53280, Note_on_c, 0, 80, 80
2, 53339, Note_on_c, 0, 80, 0
2, 53400, Note_on_c, 0, 76, 80
2, 53459, Note_on_c, 0, 76, 0
2, 53520, Note_on_c, 0, 71, 80
2, 53579, Note_on_c, 0, 71, 0
2, 53640, Note_on_c, 0, 64, 80
2, 53699, Note_on_c, 0, 64, 0
2, 53760, Note_on_c, 0, 52, 80
2, 53819, Note_on_c, 0, 52, 0
2, 53880, Note_on_c, 0, 58, 80
2, 53939, Note_on_c, 0, 58, 0
2, 54000, Note_on_c, 0, 62, 80
2, 54059, Note_on_c, 0, 62, 0
2, 54120, Note_on_c, 0, 68, 80
2, 54179, Note_on_c, 0, 68, 0
2, 54240, Note_on_c, 0, 80, 80
2, 54299, Note_on_c, 0, 80, 0
2, 54360, Note_on_c, 0, 74, 80
2, 54419, Note_on_c, 0, 74, 0
2, 54480, Note_on_c, 0, 70, 80
2, 54539, Note_on_c, 0, 70, 0
2, 54600, Note_on_c, 0, 64, 80
2, 54659, Note_on_c, 0, 64, 0
2, 54720, Note_on_c, 0, 52, 80
2, 54779, Note_on_c, 0, 52, 0
2, 54840, Note_on_c, 0, 58, 80
2, 54899, Note_on_c, 0, 58, 0
2, 54960, Note_on_c, 0, 62, 80
2, 55019, Note_on_c, 0, 62, 0
2, 55080, Note_on_c, 0, 68, 80
2, 55139, Note_on_c, 0, 68, 0
2, 55200, Note_on_c, 0, 80, 80
2, 55259, Note_on_c, 0, 80, 0
2, 55320, Note_on_c, 0, 74, 80
2, 55379, Note_on_c, 0, 74, 0
2, 55440, Note_on_c, 0, 70, 80
2, 55499, Note_on_c, 0, 70, 0
2, 55560, Note_on_c, 0, 64, 80
2, 55619, Note_on_c, 0, 64, 0
2, 55680, Note_on_c, 0, 51, 80
2, 55739, Note_on_c, 0, 51, 0
2, 55800, Note_on_c, 0, 61, 80
2, 55859, Note_on_c, 0, 61, 0
2, 55920, Note_on_c, 0, 67, 80
2, 55979, Note_on_c, 0, 67, 0
2, 56040, Note_on_c, 0, 70, 80
2, 56099, Note_on_c, 0, 70, 0
2, 56160, Note_on_c, 0, 82, 80
2, 56219, Note_on_c, 0, 82, 0
2, 56280, Note_on_c, 0, 79, 80
2, 56339, Note_on_c, 0, 79, 0
2, 56400, Note_on_c, 0, 73, 80
2, 56459, Note_on_c, 0, 73, 0
2, 56520, Note_on_c, 0, 63, 80
2, 56579, Note_on_c, 0, 63, 0
2, 56640, Note_on_c, 0, 51, 80
2, 56699, Note_on_c, 0, 51, 0
2, 56760, Note_on_c, 0, 61, 80
2, 56819, Note_on_c, 0, 61, 0
2, 56880, Note_on_c, 0, 67, 80
2, 56939, Note_on_c, 0, 67, 0
2, 57000, Note_on_c, 0, 70, 80
2, 57059, Note_on_c, 0, 70, 0
2, 57120, Note_on_c, 0, 82, 80
2, 57179, Note_on_c, 0, 82, 0
2, 57240, Note_on_c, 0, 79, 80
2, 57299, Note_on_c, 0, 79, 0
2, 57360, Note_on_c, 0, 73, 80
2, 57419, Note_on_c, 0, 73, 0
2, 57480, Note_on_c, 0, 63, 80
2, 57539, Note_on_c, 0, 63, 0
2, 57600, Note_on_c, 0, 56, 80
2, 57659, Note_on_c, 0, 56, 0
2, 57720, Note_on_c, 0, 61, 80
2, 57779, Note_on_c, 0, 61, 0
2, 57840, Note_on_c, 0, 64, 80
2, 57899, Note_on_c, 0, 64, 0
2, 57960, Note_on_c, 0, 68, 80
2, 58019, Note_on_c, 0, 68, 0
2, 58080, Note_on_c, 0, 80, 80
2, 58139, Note_on_c, 0, 80, 0
2, 58200, Note_on_c, 0, 76, 80
2, 58259, Note_on_c, 0, 76, 0
2, 58320, Note_on_c, 0, 73, 80
2, 58379, Note_on_c, 0, 73, 0
2, 58440, Note_on_c, 0, 68, 80
2, 58499, Note_on_c, 0, 68, 0
2, 58560, Note_on_c, 0, 56, 80
2, 58619, Note_on_c, 0, 56, 0
2, 58680, Note_on_c, 0, 61, 80
2, 58739, Note_on_c, 0, 61, 0
2, 58800, Note_on_c, 0, 64, 80
2, 58859, Note_on_c, 0, 64, 0
2, 58920, Note_on_c, 0, 68, 80
2, 58979, Note_on_c, 0, 68, 0
2, 59040, Note_on_c, 0, 80, 80
2, 59099, Note_on_c, 0, 80, 0
2, 59160, Note_on_c, 0, 76, 80
2, 59219, Note_on_c, 0, 76, 0
2, 59280, Note_on_c, 0, 73, 80
2, 59339, Note_on_c, 0, 73, 0
2, 59400, Note_on_c, 0, 68, 80
2, 59459, Note_on_c, 0, 68, 0
2, 59520, Note_on_c, 0, 56, 80
2, 59579, Note_on_c, 0, 56, 0
2, 59640, Note_on_c, 0, 63, 80
2, 59699, Note_on_c, 0, 63, 0
2, 59760, Note_on_c, 0, 66, 80
2, 59819, Note_on_c, 0, 66, 0
2, 59880, Note_on_c, 0, 72, 80
2, 59939, Note_on_c, 0, 72, 0
2, 60000, Note_on_c, 0, 84, 80
2, 60059, Note_on_c, 0, 84, 0
2, 60120, Note_on_c, 0, 78, 80
2, 60179, Note_on_c, 0, 78, 0
2, 60240, Note_on_c, 0, 75, 80
2, 60299, Note_on_c, 0, 75, 0
2, 60360, Note_on_c, 0, 68, 80
2, 60419, Note_on_c, 0, 68, 0
2, 60480, Note_on_c, 0, 56, 80
2, 60539, Note_on_c, 0, 56, 0
2, 60600, Note_on_c, 0, 63, 80
2, 60659, Note_on_c, 0, 63, 0
2, 60720, Note_on_c, 0, 66, 80
2, 60779, Note_on_c, 0, 66, 0
2, 60840, Note_on_c, 0, 72, 80
2, 60899, Note_on_c, 0, 72, 0
2, 60960, Note_on_c, 0, 84, 80
2, 61019, Note_on_c, 0, 84, 0
2, 61080, Note_on_c, 0, 78, 80
2, 61139, Note_on_c, 0, 78, 0
2, 61200, Note_on_c, 0, 75, 80
2, 61259, Note_on_c, 0, 75, 0
2, 61320, Note_on_c, 0, 68, 80
2, 61379, Note_on_c, 0, 68, 0
2, 61440, Note_on_c, 0, 61, 80
2, 61499, Note_on_c, 0, 61, 0
2, 61560, Note_on_c, 0, 64, 80
2, 61619, Note_on_c, 0, 64, 0
2, 61680, Note_on_c, 0, 68, 80
2, 61739, Note_on_c, 0, 68, 0
2, 61800, Note_on_c, 0, 73, 80
2, 61859, Note_on_c, 0, 73, 0
2, 61920, Note_on_c, 0, 85, 80
2, 61979, Note_on_c, 0, 85, 0
2, 62040, Note_on_c, 0, 80, 80
2, 62099, Note_on_c, 0, 80, 0
2, 62160, Note_on_c, 0, 76, 80
2, 62219, Note_on_c, 0, 76, 0
2, 62280, Note_on_c, 0, 73, 80
2, 62339, Note_on_c, 0, 73, 0
2, 62400, Note_on_c, 0, 61, 80
2, 62459, Note_on_c, 0, 61, 0
2, 62520, Note_on_c, 0, 64, 80
2, 62579, Note_on_c, 0, 64, 0
2, 62640, Note_on_c, 0, 68, 80
2, 62699, Note_on_c, 0, 68, 0
2, 62760, Note_on_c, 0, 73, 80
2, 62819, Note_on_c, 0, 73, 0
2, 62880, Note_on_c, 0, 85, 80
2, 62939, Note_on_c, 0, 85, 0
2, 63000, Note_on_c, 0, 80, 80
2, 63059, Note_on_c, 0, 80, 0
2, 63120, Note_on_c, 0, 76, 80
2, 63179, Note_on_c, 0, 76, 0
2, 63240, Note_on_c, 0, 73, 80
2, 63299, Note_on_c, 0, 73, 0
2, 63360, Note_on_c, 0, 56, 80
2, 63419, Note_on_c, 0, 56, 0
2, 63480, Note_on_c, 0, 63, 80
2, 63539, Note_on_c, 0, 63, 0
2, 63600, Note_on_c, 0, 68, 80
2, 63659, Note_on_c, 0, 68, 0
2, 63720, Note_on_c, 0, 71, 80
2, 63779, Note_on_c, 0, 71, 0
2, 63840, Note_on_c, 0, 83, 80
2, 63899, Note_on_c, 0, 83, 0
2, 63960, Note_on_c, 0, 80, 80
2, 64019, Note_on_c, 0, 80, 0
2, 64080, Note_on_c, 0, 75, 80
2, 64139, Note_on_c, 0, 75, 0
2, 64200, Note_on_c, 0, 68, 80
2, 64259, Note_on_c, 0, 68, 0
2, 64320, Note_on_c, 0, 56, 80
2, 64379, Note_on_c, 0, 56, 0
2, 64440, Note_on_c, 0, 63, 80
2, 64499, Note_on_c, 0, 63, 0
2, 64560, Note_on_c, 0, 68, 80
2, 64619, Note_on_c, 0, 68, 0
2, 64680, Note_on_c, 0, 71, 80
2, 64739, Note_on_c, 0, 71, 0
2, 64800, Note_on_c, 0, 83, 80
2, 64859, Note_on_c, 0, 83, 0
2, 64920, Note_on_c, 0, 80, 80
2, 64979, Note_on_c, 0, 80, 0
2, 65040, Note_on_c, 0, 75, 80
2, 65099, Note_on_c, 0, 75, 0
2, 65160, Note_on_c, 0, 68, 80
2, 65219, Note_on_c, 0, 68, 0
2, 65280, Note_on_c, 0, 57, 80
2, 65339, Note_on_c, 0, 57, 0
2, 65400, Note_on_c, 0, 61, 80
2, 65459, Note_on_c, 0, 61, 0
2, 65520, Note_on_c, 0, 64, 80
2, 65579, Note_on_c, 0, 64, 0
2, 65640, Note_on_c, 0, 69, 80
2, 65699, Note_on_c, 0, 69, 0
2, 65760, Note_on_c, 0, 81, 80
2, 65819, Note_on_c, 0, 81, 0
2, 65880, Note_on_c, 0, 76, 80
2, 65939, Note_on_c, 0, 76, 0
2, 66000, Note_on_c, 0, 73, 80
2, 66059, Note_on_c, 0, 73, 0
2, 66120, Note_on_c, 0, 69, 80
2, 66179, Note_on_c, 0, 69, 0
2, 66240, Note_on_c, 0, 57, 80
2, 66299, Note_on_c, 0, 57, 0
2, 66360, Note_on_c, 0, 61, 80
2, 66419, Note_on_c, 0, 61, 0
2, 66480, Note_on_c, 0, 64, 80
2, 66539, Note_on_c, 0, 64, 0
2, 66600, Note_on_c, 0, 69, 80
2, 66659, Note_on_c, 0, 69, 0
2, 66720, Note_on_c, 0, 81, 80
2, 66779, Note_on_c, 0, 81, 0
2, 66840, Note_on_c, 0, 76, 80
2, 66899, Note_on_c, 0, 76, 0
2, 66960, Note_on_c, 0, 73, 80
2, 67019, Note_on_c, 0, 73, 0
2, 67080, Note_on_c, 0, 69, 80
2, 67139, Note_on_c, 0, 69, 0
2, 67200, Note_on_c, 0, 52, 80
2, 67259, Note_on_c, 0, 52, 0
2, 67320, Note_on_c, 0, 59, 80
2, 67379, Note_on_c, 0, 59, 0
2, 67440, Note_on_c, 0, 64, 80
2, 67499, Note_on_c, 0, 64, 0
2, 67560, Note_on_c, 0, 68, 80
2, 67619, Note_on_c, 0, 68, 0
2, 67680, Note_on_c, 0, 80, 80
2, 67739, Note_on_c, 0, 80, 0
2, 67800, Note_on_c, 0, 76, 80
2, 67859, Note_on_c, 0, 76, 0
2, 67920, Note_on_c, 0, 71, 80
2, 67979, Note_on_c, 0, 71, 0
2, 68040, Note_on_c, 0, 64, 80
2, 68099, Note_on_c, 0, 64, 0
2, 68160, Note_on_c, 0, 52, 80
2, 68219, Note_on_c, 0, 52, 0
2, 68280, Note_on_c, 0, 59, 80
2, 68339, Note_on_c, 0, 59, 0
2, 68400, Note_on_c, 0, 64, 80
2, 68459, Note_on_c, 0, 64, 0
2, 68520, Note_on_c, 0, 68, 80
2, 68579, Note_on_c, 0, 68, 0
2, 68640, Note_on_c, 0, 80, 80
2, 68699, Note_on_c, 0, 80, 0
2, 68760, Note_on_c, 0, 76, 80
2, 68819, Note_on_c, 0, 76, 0
2, 68880, Note_on_c, 0, 71, 80
2, 68939, Note_on_c, 0, 71, 0
2, 69000, Note_on_c, 0, 64, 80
2, 69059, Note_on_c, 0, 64, 0
2, 69120, Note_on_c, 0, 52, 80
2, 69179, Note_on_c, 0, 52, 0
2, 69240, Note_on_c, 0, 58, 80
2, 69299, Note_on_c, 0, 58, 0
2, 69360, Note_on_c, 0, 62, 80
2, 69419, Note_on_c, 0, 62, 0
2, 69480, Note_on_c, 0, 68, 80
2, 69539, Note_on_c, 0, 68, 0
2, 69600, Note_on_c, 0, 80, 80
2, 69659, Note_on_c, 0, 80, 0
2, 69720, Note_on_c, 0, 74, 80
2, 69779, Note_on_c, 0, 74, 0
2, 69840, Note_on_c, 0, 70, 80
2, 69899, Note_on_c, 0, 70, 0
2, 69960, Note_on_c, 0, 64, 80
2, 70019, Note_on_c, 0, 64, 0
2, 70080, Note_on_c, 0, 52, 80
2, 70139, Note_on_c, 0, 52, 0
2, 70200, Note_on_c, 0, 58, 80
2, 70259, Note_on_c, 0, 58, 0
2, 70320, Note_on_c, 0, 62, 80
2, 70379, Note_on_c, 0, 62, 0
2, 70440, Note_on_c, 0, 68, 80
2, 70499, Note_on_c, 0, 68, 0
2, 70560, Note_on_c, 0, 80, 80
2, 70619, Note_on_c, 0, 80, 0
2, 70680, Note_on_c, 0, 74, 80
2, 70739, Note_on_c, 0, 74, 0
2, 70800, Note_on_c, 0, 70, 80
2, 70859, Note_on_c, 0, 70, 0
2, 70920, Note_on_c, 0, 64, 80
2, 70979, Note_on_c, 0, 64, 0
2, 71040, Note_on_c, 0, 51, 80
2, 71099, Note_on_c, 0, 51, 0
2, 71160, Note_on_c, 0, 61, 80
2, 71219, Note_on_c, 0, 61, 0
2, 71280, Note_on_c, 0, 67, 80
2, 71339, Note_on_c, 0, 67, 0
2, 71400, Note_on_c, 0, 70, 80
2, 71459, Note_on_c, 0, 70, 0
2, 71520, Note_on_c, 0, 82, 80
2, 71579, Note_on_c, 0, 82, 0
2, 71640, Note_on_c, 0, 79, 80
2, 71699, Note_on_c, 0, 79, 0
2, 71760, Note_on_c, 0, 73, 80
2, 71819, Note_on_c, 0, 73, 0
2, 71880, Note_on_c, 0, 63, 80
2, 71939, Note_on_c, 0, 63, 0
2, 72000, Note_on_c, 0, 51, 80
2, 72059, Note_on_c, 0, 51, 0
2, 72120, Note_on_c, 0, 61, 80
2, 72179, Note_on_c, 0, 61, 0
2, 72240, Note_on_c, 0, 67, 80
2, 72299, Note_on_c, 0, 67, 0
2, 72360, Note_on_c, 0, 70, 80
2, 72419, Note_on_c, 0, 70, 0
2, 72480, Note_on_c, 0, 82, 80
2, 72539, Note_on_c, 0, 82, 0
2, 72600, Note_on_c, 0, 79, 80
2, 72659, Note_on_c, 0, 79, 0
2, 72720, Note_on_c, 0, 73, 80
2, 72779, Note_on_c, 0, 73, 0
2, 72840, Note_on_c, 0, 63, 80
2, 72899, Note_on_c, 0, 63, 0
2, 72960, Note_on_c, 0, 56, 80
2, 73019, Note_on_c, 0, 56, 0
2, 73080, Note_on_c, 0, 61, 80
2, 73139, Note_on_c, 0, 61, 0
2, 73200, Note_on_c, 0, 64, 80
2, 73259, Note_on_c, 0, 64, 0
2, 73320, Note_on_c, 0, 68, 80
2, 73379, Note_on_c, 0, 68, 0
2, 73440, Note_on_c, 0, 80, 80
2, 73499, Note_on_c, 0, 80, 0
2, 73560, Note_on_c, 0, 76, 80
2, 73619, Note_on_c, 0, 76, 0
2, 73680, Note_on_c, 0, 73, 80
2, 73739, Note_on_c, 0, 73, 0
2, 73800, Note_on_c, 0, 68, 80
2, 73859, Note_on_c, 0, 68, 0
2, 73920, Note_on_c, 0, 56, 80
2, 73979, Note_on_c, 0, 56, 0
2, 74040, Note_on_c, 0, 61, 80
2, 74099, Note_on_c, 0, 61, 0
2, 74160, Note_on_c, 0, 64, 80
2, 74219, Note_on_c, 0, 64, 0
2, 74280, Note_on_c, 0, 68, 80
2, 74339, Note_on_c, 0, 68, 0
2, 74400, Note_on_c, 0, 80, 80
2, 74459, Note_on_c, 0, 80, 0
2, 74520, Note_on_c, 0, 76, 80
2, 74579, Note_on_c, 0, 76, 0
2, 74640, Note_on_c, 0, 73, 80
2, 74699, Note_on_c, 0, 73, 0
2, 74760, Note_on_c, 0, 68, 80
2, 74819, Note_on_c, 0, 68, 0
2, 74880, Note_on_c, 0, 56, 80
2, 74939, Note_on_c, 0, 56, 0
2, 75000, Note_on_c, 0, 63, 80
2, 75059, Note_on_c, 0, 63, 0
2, 75120, Note_on_c, 0, 66, 80
2, 75179, Note_on_c, 0, 66, 0
2, 75240, Note_on_c, 0, 72, 80
2, 75299, Note_on_c, 0, 72, 0
2, 75360, Note_on_c, 0, 84, 80
2, 75419, Note_on_c, 0, 84, 0
2, 75480, Note_on_c, 0, 78, 80
2, 75539, Note_on_c, 0, 78, 0
2, 75600, Note_on_c, 0, 75, 80
2, 75659, Note_on_c, 0, 75, 0
2, 75720, Note_on_c, 0, 68, 80
2, 75779, Note_on_c, 0, 68, 0
2, 75840, Note_on_c, 0, 56, 80
2, 75899, Note_on_c, 0, 56, 0
2, 75960, Note_on_c, 0, 63, 80
2, 76019, Note_on_c, 0, 63, 0
2, 76080, Note_on_c, 0, 66, 80
2, 76139, Note_on_c, 0, 66, 0
2, 76200, Note_on_c, 0, 72, 80
2, 76259, Note_on_c, 0, 72, 0
2, 76320, Note_on_c, 0, 84, 80
2, 76379, Note_on_c, 0, 84, 0
2, 76440, Note_on_c, 0, 78, 80
2, 76499, Note_on_c, 0, 78, 0
2, 76560, Note_on_c, 0, 75, 80
2, 76619, Note_on_c, 0, 75, 0
2, 76680, Note_on_c, 0, 68, 80
2, 76739, Note_on_c, 0, 68, 0
2, 76800, Note_on_c, 0, 61, 80
2, 76859, Note_on_c, 0, 61, 0
2, 76920, Note_on_c, 0, 64, 80
2, 76979, Note_on_c, 0, 64, 0
2, 77040, Note_on_c, 0, 68, 80
2, 77099, Note_on_c, 0, 68, 0
2, 77160, Note_on_c, 0, 73, 80
2, 77219, Note_on_c, 0, 73, 0
2, 77280, Note_on_c, 0, 85, 80
2, 77339, Note_on_c, 0, 85, 0
2, 77400, Note_on_c, 0, 80, 80
2, 77459, Note_on_c, 0, 80, 0
2, 77520, Note_on_c, 0, 76, 80
2, 77579, Note_on_c, 0, 76, 0
2, 77640, Note_on_c, 0, 73, 80
2, 77699, Note_on_c, 0, 73, 0
2, 77760, Note_on_c, 0, 61, 80
2, 77819, Note_on_c, 0, 61, 0
2, 77880, Note_on_c, 0, 64, 80
2, 77939, Note_on_c, 0, 64, 0
2, 78000, Note_on_c, 0, 68, 80
2, 78059, Note_on_c, 0, 68, 0
2, 78120, Note_on_c, 0, 73, 80
2, 78179, Note_on_c, 0, 73, 0
2, 78240, Note_on_c, 0, 85, 80
2, 78299, Note_on_c, 0, 85, 0
2, 78360, Note_on_c, 0, 80, 80
2, 78419, Note_on_c, 0, 80, 0
2, 78480, Note_on_c, 0, 76, 80
2, 78539, Note_on_c, 0, 76, 0
2, 78600, Note_on_c, 0, 73, 80
2, 78659, Note_on_c, 0, 73, 0
2, 78720, Note_on_c, 0, 56, 80
2, 78779, Note_on_c, 0, 56, 0
2, 78840, Note_on_c, 0, 63, 80
2, 78899, Note_on_c, 0, 63, 0
2, 78960, Note_on_c, 0, 68, 80
2, 79019, Note_on_c, 0, 68, 0
2, 79080, Note_on_c, 0, 71, 80
2, 79139, Note_on_c, 0, 71, 0
2, 79200, Note_on_c, 0, 83, 80
2, 79259, Note_on_c, 0, 83, 0
2, 79320, Note_on_c, 0, 80, 80
2, 79379, Note_on_c, 0, 80, 0
2, 79440, Note_on_c, 0, 75, 80
2, 79499, Note_on_c, 0, 75, 0
2, 79560, Note_on_c, 0, 68, 80
2, 79619, Note_on_c, 0, 68, 0
2, 79680, Note_on_c, 0, 56, 80
2, 79739, Note_on_c, 0, 56, 0
2, 79800, Note_on_c, 0, 63, 80
2, 79859, Note_on_c, 0, 63, 0
2, 79920, Note_on_c, 0, 68, 80
2, 79979, Note_on_c, 0, 68, 0
2, 80040, Note_on_c, 0, 71, 80
2, 80099, Note_on_c, 0, 71, 0
2, 80160, Note_on_c, 0, 83, 80
2, 80219, Note_on_c, 0, 83, 0
2, 80280, Note_on_c, 0, 80, 80
2, 80339, Note_on_c, 0, 80, 0
2, 80400, Note_on_c, 0, 75, 80
2, 80459, Note_on_c, 0, 75, 0
2, 80520, Note_on_c, 0, 68, 80
2, 80579, Note_on_c, 0, 68, 0
2, 80640, Note_on_c, 0, 57, 80
2, 80699, Note_on_c, 0, 57, 0
2, 80760, Note_on_c, 0, 61, 80
2, 80819, Note_on_c, 0, 61, 0
2, 80880, Note_on_c, 0, 64, 80
2, 80939, Note_on_c, 0, 64, 0
2, 81000, Note_on_c, 0, 69, 80
2, 81059, Note_on_c, 0, 69, 0
2, 81120, Note_on_c, 0, 81, 80
2, 81179, Note_on_c, 0, 81, 0
2, 81240, Note_on_c, 0, 76, 80
2, 81299, Note_on_c, 0, 76, 0
2, 81360, Note_on_c, 0, 73, 80
2, 81419, Note_on_c, 0, 73, 0
2, 81480, Note_on_c, 0, 69, 80
2, 81539, Note_on_c, 0, 69, 0
2, 81600, Note_on_c, 0, 57, 80
2, 81659, Note_on_c, 0, 57, 0
2, 81720, Note_on_c, 0, 61, 80
2, 81779, Note_on_c, 0, 61, 0
2, 81840, Note_on_c, 0, 64, 80
2, 81899, Note_on_c, 0, 64, 0
2, 81960, Note_on_c, 0, 69, 80
2, 82019, Note_on_c, 0, 69, 0
2, 82080, Note_on_c, 0, 81, 80
2, 82139, Note_on_c, 0, 81, 0
2, 82200, Note_on_c, 0, 76, 80
2, 82259, Note_on_c, 0, 76, 0
2, 82320, Note_on_c, 0, 73, 80
2, 82379, Note_on_c, 0, 73, 0
2, 82440, Note_on_c, 0, 69, 80
2, 82499, Note_on_c, 0, 69, 0
2, 82560, Note_on_c, 0, 52, 80
2, 82619, Note_on_c, 0, 52, 0
2, 82680, Note_on_c, 0, 59, 80
2, 82739, Note_on_c, 0, 59, 0
2, 82800, Note_on_c, 0, 64, 80
2, 82859, Note_on_c, 0, 64, 0
2, 82920, Note_on_c, 0, 68, 80
2, 82979, Note_on_c, 0, 68, 0
2, 83040, Note_on_c, 0, 80, 80
2, 83099, Note_on_c, 0, 80, 0
2, 83160, Note_on_c, 0, 76, 80
2, 83219, Note_on_c, 0, 76, 0
2, 83280, Note_on_c, 0, 71, 80
2, 83339, Note_on_c, 0, 71, 0
2, 83400, Note_on_c, 0, 64, 80
2, 83459, Note_on_c, 0, 64, 0
2, 83520, Note_on_c, 0, 52, 80
2, 83579, Note_on_c, 0, 52, 0
2, 83640, Note_on_c, 0, 59, 80
2, 83699, Note_on_c, 0, 59, 0
2, 83760, Note_on_c, 0, 64, 80
2, 83819, Note_on_c, 0, 64, 0
2, 83880, Note_on_c, 0, 68, 80
2, 83939, Note_on_c, 0, 68, 0
2, 84000, Note_on_c, 0, 80, 80
2, 84059, Note_on_c, 0, 80, 0
2, 84120, Note_on_c, 0, 76, 80
2, 84179, Note_on_c, 0, 76, 0
2, 84240, Note_on_c, 0, 71, 80
2, 84299, Note_on_c, 0, 71, 0
2, 84360, Note_on_c, 0, 64, 80
2, 84419, Note_on_c, 0, 64, 0
2, 84480, Note_on_c, 0, 52, 80
2, 84539, Note_on_c, 0, 52, 0
2, 84600, Note_on_c, 0, 58, 80
2, 84659, Note_on_c, 0, 58, 0
2, 84720, Note_on_c, 0, 62, 80
2, 84779, Note_on_c, 0, 62, 0
2, 84840, Note_on_c, 0, 68, 80
2, 84899, Note_on_c, 0, 68, 0
2, 84960, Note_on_c, 0, 80, 80
2, 85019, Note_on_c, 0, 80, 0
2, 85080, Note_on_c, 0, 74, 80
2, 85139, Note_on_c, 0, 74, 0
2, 85200, Note_on_c, 0, 70, 80
2, 85259, Note_on_c, 0, 70, 0
2, 85320, Note_on_c, 0, 64, 80
2, 85379, Note_on_c, 0, 64, 0
2, 85440, Note_on_c, 0, 52, 80
2, 85499, Note_on_c, 0, 52, 0
2, 85560, Note_on_c, 0, 58, 80
2, 85619, Note_on_c, 0, 58, 0
2, 85680, Note_on_c, 0, 62, 80
2, 85739, Note_on_c, 0, 62, 0
2, 85800, Note_on_c, 0, 68, 80
2, 85859, Note_on_c, 0, 68, 0
2, 85920, Note_on_c, 0, 80, 80
2, 85979, Note_on_c, 0, 80, 0
2, 86040, Note_on_c, 0, 74, 80
2, 86099, Note_on_c, 0, 74, 0
2, 86160, Note_on_c, 0, 70, 80
2, 86219, Note_on_c, 0, 70, 0
2, 86280, Note_on_c, 0, 64, 80
2, 86339, Note_on_c, 0, 64, 0
2, 86400, Note_on_c, 0, 51, 80
2, 86459, Note_on_c, 0, 51, 0
2, 86520, Note_on_c, 0, 61, 80
2, 86579, Note_on_c, 0, 61, 0
2, 86640, Note_on_c, 0, 67, 80
2, 86699, Note_on_c, 0, 67, 0
2, 86760, Note_on_c, 0, 70, 80
2, 86819, Note_on_c, 0, 70, 0
2, 86880, Note_on_c, 0, 82, 80
2, 86939, Note_on_c, 0, 82, 0
2, 87000, Note_on_c, 0, 79, 80
2, 87059, Note_on_c, 0, 79, 0
2, 87120, Note_on_c, 0, 73, 80
2, 87179, Note_on_c, 0, 73, 0
2, 87240, Note_on_c, 0, 63, 80
2, 87299, Note_on_c, 0, 63, 0
2, 87360, Note_on_c, 0, 51, 80
2, 87419, Note_on_c, 0, 51, 0
2, 87480, Note_on_c, 0, 61, 80
2, 87539, Note_on_c, 0, 61, 0
2, 87600, Note_on_c, 0, 67, 80
2, 87659, Note_on_c, 0, 67, 0
2, 87720, Note_on_c, 0, 70, 80
2, 87779, Note_on_c, 0, 70, 0
2, 87840, Note_on_c, 0, 82, 80
2, 87899, Note_on_c, 0, 82, 0
2, 87960, Note_on_c, 0, 79, 80
2, 88019, Note_on_c, 0, 79, 0
2, 88080, Note_on_c, 0, 73, 80
2, 88139, Note_on_c, 0, 73, 0
2, 88200, Note_on_c, 0, 63, 80
2, 88259, Note_on_c, 0, 63, 0
2, 88320, Note_on_c, 0, 56, 80
2, 88379, Note_on_c, 0, 56, 0
2, 88440, Note_on_c, 0, 61, 80
2, 88499, Note_on_c, 0, 61, 0
2, 88560, Note_on_c, 0, 64, 80
2, 88619, Note_on_c, 0, 64, 0
2, 88680, Note_on_c, 0, 68, 80
2, 88739, Note_on_c, 0, 68, 0
2, 88800, Note_on_c, 0, 80, 80
2, 88859, Note_on_c, 0, 80, 0
2, 88920, Note_on_c, 0, 76, 80
2, 88979, Note_on_c, 0, 76, 0
2, 89040, Note_on_c, 0, 73, 80
2, 89099, Note_on_c, 0, 73, 0
2, 89160, Note_on_c, 0, 68, 80
2, 89219, Note_on_c, 0, 68, 0
2, 89280, Note_on_c, 0, 56, 80
2, 89339, Note_on_c, 0, 56, 0
2, 89400, Note_on_c, 0, 61, 80
2, 89459, Note_on_c, 0, 61, 0
2, 89520, Note_on_c, 0, 64, 80
2, 89579, Note_on_c, 0, 64, 0
2, 89640, Note_on_c, 0, 68, 80
2, 89699, Note_on_c, 0, 68, 0
2, 89760, Note_on_c, 0, 80, 80
2, 89819, Note_on_c, 0, 80, 0
2, 89880, Note_on_c, 0, 76, 80
2, 89939, Note_on_c, 0, 76, 0
2, 90000, Note_on_c, 0, 73, 80
2, 90059, Note_on_c, 0, 73, 0
2, 90120, Note_on_c, 0, 68, 80
2, 90179, Note_on_c, 0, 68, 0
2, 90240, Note_on_c, 0, 56, 80
2, 90299, Note_on_c, 0, 56, 0
2, 90360, Note_on_c, 0, 63, 80
2, 90419, Note_on_c, 0, 63, 0
2, 90480, Note_on_c, 0, 66, 80
2, 90539, Note_on_c, 0, 66, 0
2, 90600, Note_on_c, 0, 72, 80
2, 90659, Note_on_c, 0, 72, 0
2, 90720, Note_on_c, 0, 84, 80
2, 90779, Note_on_c, 0, 84, 0
2, 90840, Note_on_c, 0, 78, 80
2, 90899, Note_on_c, 0, 78, 0
2, 90960, Note_on_c, 0, 75, 80
2, 91019, Note_on_c, 0, 75, 0
2, 91080, Note_on_c, 0, 68, 80
2, 91139, Note_on_c, 0, 68, 0
2, 91200, Note_on_c, 0, 56, 80
2, 91259, Note_on_c, 0, 56, 0
2, 91320, Note_on_c, 0, 63, 80
2, 91379, Note_on_c, 0, 63, 0
2, 91440, Note_on_c, 0, 66, 80
2, 91499, Note_on_c, 0, 66, 0
2, 91560, Note_on_c, 0, 72, 80
2, 91619, Note_on_c, 0, 72, 0
2, 91680, Note_on_c, 0, 84, 80
2, 91739, Note_on_c, 0, 84, 0
2, 91800, Note_on_c, 0, 78, 80
2, 91859, Note_on_c, 0, 78, 0
2, 91920, Note_on_c, 0, 75, 80
2, 91979, Note_on_c, 0, 75, 0
2, 92040, Note_on_c, 0, 68, 80
2, 92099, Note_on_c, 0, 68, 0
2, 92160, Note_on_c, 0, 61, 80
2, 92219, Note_on_c, 0, 61, 0
2, 92280, Note_on_c, 0, 64, 80
2, 92339, Note_on_c, 0, 64, 0
2, 92400, Note_on_c, 0, 68, 80
2, 92459, Note_on_c, 0, 68, 0
2, 92520, Note_on_c, 0, 73, 80
2, 92579, Note_on_c, 0, 73, 0
2, 92640, Note_on_c, 0, 85, 80
2, 92699, Note_on_c, 0, 85, 0
2, 92760, Note_on_c, 0, 80, 80
2, 92819, Note_on_c, 0, 80, 0
2, 92880, Note_on_c, 0, 76, 80
2, 92939, Note_on_c, 0, 76, 0
2, 93000, Note_on_c, 0, 73, 80
2, 93059, Note_on_c, 0, 73, 0
2, 93120, Note_on_c, 0, 61, 80
2, 93179, Note_on_c, 0, 61, 0
2, 93240, Note_on_c, 0, 64, 80
2, 93299, Note_on_c, 0, 64, 0
2, 93360, Note_on_c, 0, 68, 80
2, 93419, Note_on_c, 0, 68, 0
2, 93480, Note_on_c, 0, 73, 80
2, 93539, Note_on_c, 0, 73, 0
2, 93600, Note_on_c, 0, 85, 80
2, 93659, Note_on_c, 0, 85, 0
2, 93720, Note_on_c, 0, 80, 80
2, 93779, Note_on_c, 0, 80, 0
2, 93840, Note_on_c, 0, 76, 80
2, 93899, Note_on_c, 0, 76, 0
2, 93960, Note_on_c, 0, 73, 80
2, 94019, Note_on_c, 0, 73, 0
2, 94080, Note_on_c, 0, 56, 80
2, 94139, Note_on_c, 0, 56, 0
2, 94200, Note_on_c, 0, 63, 80
2, 94259, Note_on_c, 0, 63, 0
2, 94320, Note_on_c, 0, 68, 80
2, 94379, Note_on_c, 0, 68, 0
2, 94440, Note_on_c, 0, 71, 80
2, 94499, Note_on_c, 0, 71, 0
2, 94560, Note_on_c, 0, 83, 80
2, 94619, Note_on_c, 0, 83, 0
2, 94680, Note_on_c, 0, 80, 80
2, 94739, Note_on_c, 0, 80, 0
2, 94800, Note_on_c, 0, 75, 80
2, 94859, Note_on_c, 0, 75, 0
2, 94920, Note_on_c, 0, 68, 80
2, 94979, Note_on_c, 0, 68, 0
2, 95040, Note_on_c, 0, 56, 80
2, 95099, Note_on_c, 0, 56, 0
2, 95160, Note_on_c, 0, 63, 80
2, 95219, Note_on_c, 0, 63, 0
2, 95280, Note_on_c, 0, 68, 80
2, 95339, Note_on_c, 0, 68, 0
2, 95400, Note_on_c, 0, 71, 80
2, 95459, Note_on_c, 0, 71, 0
2, 95520, Note_on_c, 0, 83, 80
2, 95579, Note_on_c, 0, 83, 0
2, 95640, Note_on_c, 0, 80, 80
2, 95699, Note_on_c, 0, 80, 0
2, 95760, Note_on_c, 0, 75, 80
2, 95819, Note_on_c, 0, 75, 0
2, 95880, Note_on_c, 0, 68, 80
2, 95939, Note_on_c, 0, 68, 0
2, 96000, Note_on_c, 0, 57, 80
2, 96059, Note_on_c, 0, 57, 0
2, 96120, Note_on_c, 0, 61, 80
2, 96179, Note_on_c, 0, 61, 0
2, 96240, Note_on_c, 0, 64, 80
2, 96299, Note_on_c, 0, 64, 0
2, 96360, Note_on_c, 0, 69, 80
2, 96419, Note_on_c, 0, 69, 0
2, 96480, Note_on_c, 0, 81, 80
2, 96539, Note_on_c, 0, 81, 0
2, 96600, Note_on_c, 0, 76, 80
2, 96659, Note_on_c, 0, 76, 0
2, 96720, Note_on_c, 0, 73, 80
2, 96779, Note_on_c, 0, 73, 0
2, 96840, Note_on_c, 0, 69, 80
2, 96899, Note_on_c, 0, 69, 0
2, 96960, Note_on_c, 0, 57, 80
2, 97019, Note_on_c, 0, 57, 0
2, 97080, Note_on_c, 0, 61, 80
2, 97139, Note_on_c, 0, 61, 0
2, 97200, Note_on_c, 0, 64, 80
2, 97259, Note_on_c, 0, 64, 0
2, 97320, Note_on_c, 0, 69, 80
2, 97379, Note_on_c, 0, 69, 0
2, 97440, Note_on_c, 0, 81, 80
2, 97499, Note_on_c, 0, 81, 0
2, 97560, Note_on_c, 0, 76, 80
2, 97619, Note_on_c, 0, 76, 0
2, 97680, Note_on_c, 0, 73, 80
2, 97739, Note_on_c, 0, 73, 0
2, 97800, Note_on_c, 0, 69, 80
2, 97859, Note_on_c, 0, 69, 0
2, 97920, Note_on_c, 0, 52, 80
2, 97979, Note_on_c, 0, 52, 0
2, 98040, Note_on_c, 0, 59, 80
2, 98099, Note_on_c, 0, 59, 0
2, 98160, Note_on_c, 0, 64, 80
2, 98219, Note_on_c, 0, 64, 0
2, 98280, Note_on_c, 0, 68, 80
2, 98339, Note_on_c, 0, 68, 0
2, 98400, Note_on_c, 0, 80, 80
2, 98459, Note_on_c, 0, 80, 0
2, 98520, Note_on_c, 0, 76, 80
2, 98579, Note_on_c, 0, 76, 0
2, 98640, Note_on_c, 0, 71, 80
2, 98699, Note_on_c, 0, 71, 0
2, 98760, Note_on_c, 0, 64, 80
2, 98819, Note_on_c, 0, 64, 0
2, 98880, Note_on_c, 0, 52, 80
2, 98939, Note_on_c, 0, 52, 0
2, 99000, Note_on_c, 0, 59, 80
2, 99059, Note_on_c, 0, 59, 0
2, 99120, Note_on_c, 0, 64, 80
2, 99179, Note_on_c, 0, 64, 0
2, 99240, Note_on_c, 0, 68, 80
2, 99299, Note_on_c, 0, 68, 0
2, 99360, Note_on_c, 0, 80, 80
2, 99419, Note_on_c, 0, 80, 0
2, 99480, Note_on_c, 0, 76, 80
2, 99539, Note_on_c, 0, 76, 0
2, 99600, Note_on_c, 0, 71, 80
2, 99659, Note_on_c, 0, 71, 0
2, 99720, Note_on_c, 0, 64, 80
2, 99779, Note_on_c, 0, 64, 0
2, 99840, Note_on_c, 0, 52, 80
2, 99899, Note_on_c, 0, 52, 0
2, 99960, Note_on_c, 0, 58, 80
2, 100019, Note_on_c, 0, 58, 0
2, 100080, Note_on_c, 0, 62, 80
2, 100139, Note_on_c, 0, 62, 0
2, 100200, Note_on_c, 0, 68, 80
2, 100259, Note_on_c, 0, 68, 0
2, 100320, Note_on_c, 0, 80, 80
2, 100379, Note_on_c, 0, 80, 0
2, 100440, Note_on_c, 0, 74, 80
2, 100499, Note_on_c, 0, 74, 0
2, 100560, Note_on_c, 0, 70, 80
2, 100619, Note_on_c, 0, 70, 0
2, 100680, Note_on_c, 0, 64, 80
2, 100739, Note_on_c, 0, 64, 0
2, 100800, Note_on_c, 0, 52, 80
2, 100859, Note_on_c, 0, 52, 0
2, 100920, Note_on_c, 0, 58, 80
2, 100979, Note_on_c, 0, 58, 0
2, 101040, Note_on_c, 0, 62, 80
2, 101099, Note_on_c, 0, 62, 0
2, 101160, Note_on_c, 0, 68, 80
2, 101219, Note_on_c, 0, 68, 0
2, 101280, Note_on_c, 0, 80, 80
2, 101339, Note_on_c, 0, 80, 0
2, 101400, Note_on_c, 0, 74, 80
2, 101459, Note_on_c, 0, 74, 0
2, 101520, Note_on_c, 0, 70, 80
2, 101579, Note_on_c, 0, 70, 0
2, 101640, Note_on_c, 0, 64, 80
2, 101699, Note_on_c, 0, 64, 0
2, 101760, Note_on_c, 0, 51, 80
2, 101819, Note_on_c, 0, 51, 0
2, 101880, Note_on_c, 0, 61, 80
2, 101939, Note_on_c, 0, 61, 0
2, 102000, Note_on_c, 0, 67, 80
2, 102059, Note_on_c, 0, 67, 0
2, 102120, Note_on_c, 0, 70, 80
2, 102179, Note_on_c, 0, 70, 0
2, 102240, Note_on_c, 0, 82, 80
2, 102299, Note_on_c, 0, 82, 0
2, 102360, Note_on_c, 0, 79, 80
2, 102419, Note_on_c, 0, 79, 0
2, 102480, Note_on_c, 0, 73, 80
2, 102539, Note_on_c, 0, 73, 0
2, 102600, Note_on_c, 0, 63, 80
2, 102659, Note_on_c, 0, 63, 0
2, 102720, Note_on_c, 0, 51, 80
2, 102779, Note_on_c, 0, 51, 0
2, 102840, Note_on_c, 0, 61, 80
2, 102899, Note_on_c, 0, 61, 0
2, 102960, Note_on_c, 0, 67, 80
2, 103019, Note_on_c, 0, 67, 0
2, 103080, Note_on_c, 0, 70, 80
2, 103139, Note_on_c, 0, 70, 0
2, 103200, Note_on_c, 0, 82, 80
2, 103259, Note_on_c, 0, 82, 0
2, 103320, Note_on_c, 0, 79, 80
2, 103379, Note_on_c, 0, 79, 0
2, 103440, Note_on_c, 0, 73, 80
2, 103499, Note_on_c, 0, 73, 0
2, 103560, Note_on_c, 0, 63, 80
2, 103619, Note_on_c, 0, 63, 0
2, 103680, Note_on_c, 0, 56, 80
2, 103739, Note_on_c, 0, 56, 0
2, 103800, Note_on_c, 0, 61, 80
2, 103859, Note_on_c, 0, 61, 0
2, 103920, Note_on_c, 0, 64, 80
2, 103979, Note_on_c, 0, 64, 0
2, 104040, Note_on_c, 0, 68, 80
2, 104099, Note_on_c, 0, 68, 0
2, 104160, Note_on_c, 0, 80, 80
2, 104219, Note_on_c, 0, 80, 0
2, 104280, Note_on_c, 0, 76, 80
2, 104339, Note_on_c, 0, 76, 0
2, 104400, Note_on_c, 0, 73, 80
2, 104459, Note_on_c, 0, 73, 0
2, 104520, Note_on_c, 0, 68, 80
2, 104579, Note_on_c, 0, 68, 0
2, 104640, Note_on_c, 0, 56, 80
2, 104699, Note_on_c, 0, 56, 0
2, 104760, Note_on_c, 0, 61, 80
2, 104819, Note_on_c, 0, 61, 0
2, 104880, Note_on_c, 0, 64, 80
2, 104939, Note_on_c, 0, 64, 0
2, 105000, Note_on_c, 0, 68, 80
2, 105059, Note_on_c, 0, 68, 0
2, 105120, Note_on_c, 0, 80, 80
2, 105179, Note_on_c, 0, 80, 0
2, 105240, Note_on_c, 0, 76, 80
2, 105299, Note_on_c, 0, 76, 0
2, 105360, Note_on_c, 0, 73, 80
2, 105419, Note_on_c, 0, 73, 0
2, 105480, Note_on_c, 0, 68, 80
2, 105539, Note_on_c, 0, 68, 0
2, 105600, Note_on_c, 0, 56, 80
2, 105659, Note_on_c, 0, 56, 0
2, 105720, Note_on_c, 0, 63, 80
2, 105779, Note_on_c, 0, 63, 0
2, 105840, Note_on_c, 0, 66, 80
2, 105899, Note_on_c, 0, 66, 0
2, 105960, Note_on_c, 0, 72, 80
2, 106019, Note_on_c, 0, 72, 0
2, 106080, Note_on_c, 0, 84, 80
2, 106139, Note_on_c, 0, 84, 0
2, 106200, Note_on_c, 0, 78, 80
2, 106259, Note_on_c, 0, 78, 0
2, 106320, Note_on_c, 0, 75, 80
2, 106379, Note_on_c, 0, 75, 0
2, 106440, Note_on_c, 0, 68, 80
2, 106499, Note_on_c, 0, 68, 0
2, 106560, Note_on_c, 0, 56, 80
2, 106619, Note_on_c, 0, 56, 0
2, 106680, Note_on_c, 0, 63, 80
2, 106739, Note_on_c, 0, 63, 0
2, 106800, Note_on_c, 0, 66, 80
2, 106859, Note_on_c, 0, 66, 0
2, 106920, Note_on_c, 0, 72, 80
2, 106979, Note_on_c, 0, 72, 0
2, 107040, Note_on_c, 0, 84, 80
2, 107099, Note_on_c, 0, 84, 0
2, 107160, Note_on_c, 0, 78, 80
2, 107219, Note_on_c, 0, 78, 0
2, 107280, Note_on_c, 0, 75, 80
2, 107339, Note_on_c, 0, 75, 0
2, 107400, Note_on_c, 0, 68, 80
2, 107459, Note_on_c, 0, 68, 0
2, 107520, Note_on_c, 0, 61, 80
2, 107579, Note_on_c, 0, 61, 0
2, 107640, Note_on_c, 0, 64, 80
2, 107699, Note_on_c, 0, 64, 0
2, 107760, Note_on_c, 0, 68, 80
2, 107819, Note_on_c, 0, 68, 0
2, 107880, Note_on_c, 0, 73, 80
2, 107939, Note_on_c, 0, 73, 0
2, 108000, Note_on_c, 0, 85, 80
2, 108059, Note_on_c, 0, 85, 0
2, 108120, Note_on_c, 0, 80, 80
2, 108179, Note_on_c, 0, 80, 0
2, 108240, Note_on_c, 0, 76, 80
2, 108299, Note_on_c, 0, 76, 0
2, 108360, Note_on_c, 0, 73, 80
2, 108419, Note_on_c, 0, 73, 0
2, 108480, Note_on_c, 0, 61, 80
2, 108539, Note_on_c, 0, 61, 0
2, 108600, Note_on_c, 0, 64, 80
2, 108659, Note_on_c, 0, 64, 0
2, 108720, Note_on_c, 0, 68, 80
2, 108779, Note_on_c, 0, 68, 0
2, 108840, Note_on_c, 0, 73, 80
2, 108899, Note_on_c, 0, 73, 0
2, 108960, Note_on_c, 0, 85, 80
2, 109019, Note_on_c, 0, 85, 0
2, 109080, Note_on_c, 0, 80, 80
2, 109139, Note_on_c, 0, 80, 0
2, 109200, Note_on_c, 0, 76, 80
2, 109259, Note_on_c, 0, 76, 0
2, 109320, Note_on_c, 0, 73, 80
2, 109379, Note_on_c, 0, 73, 0
2, 109440, Note_on_c, 0, 56, 80
2, 109499, Note_on_c, 0, 56, 0
2, 109560, Note_on_c, 0, 63, 80
2, 109619, Note_on_c, 0, 63, 0
2, 109680, Note_on_c, 0, 68, 80
2, 109739, Note_on_c, 0, 68, 0
2, 109800, Note_on_c, 0, 71, 80
2, 109859, Note_on_c, 0, 71, 0
2, 109920, Note_on_c, 0, 83, 80
2, 109979, Note_on_c, 0, 83, 0
2, 110040, Note_on_c, 0, 80, 80
2, 110099, Note_on_c, 0, 80, 0
2, 110160, Note_on_c, 0, 75, 80
2, 110219, Note_on_c, 0, 75, 0
2, 110280, Note_on_c, 0, 68, 80
2, 110339, Note_on_c, 0, 68, 0
2, 110400, Note_on_c, 0, 56, 80
2, 110459, Note_on_c, 0, 56, 0
2, 110520, Note_on_c, 0, 63, 80
2, 110579, Note_on_c, 0, 63, 0
2, 110640, Note_on_c, 0, 68, 80
2, 110699, Note_on_c, 0, 68, 0
2, 110760, Note_on_c, 0, 71, 80
2, 110819, Note_on_c, 0, 71, 0
2, 110880, Note_on_c, 0, 83, 80
2, 110939, Note_on_c, 0, 83, 0
2, 111000, Note_on_c, 0, 80, 80
2, 111059, Note_on_c, 0, 80, 0
2, 111120, Note_on_c, 0, 75, 80
2, 111179, Note_on_c, 0, 75, 0
2, 111240, Note_on_c, 0, 68, 80
2, 111299, Note_on_c, 0, 68, 0
2, 111360, Note_on_c, 0, 57, 80
2, 111419, Note_on_c, 0, 57, 0
2, 111480, Note_on_c, 0, 61, 80
2, 111539, Note_on_c, 0, 61, 0
2, 111600, Note_on_c, 0, 64, 80
2, 111659, Note_on_c, 0, 64, 0
2, 111720, Note_on_c, 0, 69, 80
2, 111779, Note_on_c, 0, 69, 0
2, 111840, Note_on_c, 0, 81, 80
2, 111899, Note_on_c, 0, 81, 0
2, 111960, Note_on_c, 0, 76, 80
2, 112019, Note_on_c, 0, 76, 0
2, 112080, Note_on_c, 0, 73, 80
2, 112139, Note_on_c, 0, 73, 0
2, 112200, Note_on_c, 0, 69, 80
2, 112259, Note_on_c, 0, 69, 0
2, 112320, Note_on_c, 0, 57, 80
2, 112379, Note_on_c, 0, 57, 0
2, 112440, Note_on_c, 0, 61, 80
2, 112499, Note_on_c, 0, 61, 0
2, 112560, Note_on_c, 0, 64, 80
2, 112619, Note_on_c, 0, 64, 0
2, 112680, Note_on_c, 0, 69, 80
2, 112739, Note_on_c, 0, 69, 0
2, 112800, Note_on_c, 0, 81, 80
2, 112859, Note_on_c, 0, 81, 0
2, 112920, Note_on_c, 0, 76, 80
2, 112979, Note_on_c, 0, 76, 0
2, 113040, Note_on_c, 0, 73, 80
2, 113099, Note_on_c, 0, 73, 0
2, 113160, Note_on_c, 0, 69, 80
2, 113219, Note_on_c, 0, 69, 0
2, 113280, Note_on_c, 0, 52, 80
2, 113339, Note_on_c, 0, 52, 0
2, 113400, Note_on_c, 0, 59, 80
2, 113459, Note_on_c, 0, 59, 0
2, 113520, Note_on_c, 0, 64, 80
2, 113579, Note_on_c, 0, 64, 0
2, 113640, Note_on_c, 0, 68, 80
2, 113699, Note_on_c, 0, 68, 0
2, 113760, Note_on_c, 0, 80, 80
2, 113819, Note_on_c, 0, 80, 0
2, 113880, Note_on_c, 0, 76, 80
2, 113939, Note_on_c, 0, 76, 0
2, 114000, Note_on_c, 0, 71, 80
2, 114059, Note_on_c, 0, 71, 0
2, 114120, Note_on_c, 0, 64, 80
2, 114179, Note_on_c, 0, 64, 0
2, 114240, Note_on_c, 0, 52, 80
2, 114299, Note_on_c, 0, 52, 0
2, 114360, Note_on_c, 0, 59, 80
2, 114419, Note_on_c, 0, 59, 0
2, 114480, Note_on_c, 0, 64, 80
2, 114539, Note_on_c, 0, 64, 0
2, 114600, Note_on_c, 0, 68, 80
2, 114659, Note_on_c, 0, 68, 0
2, 114720, Note_on_c, 0, 80, 80
2, 114779, Note_on_c, 0, 80, 0
2, 114840, Note_on_c, 0, 76, 80
2, 114899, Note_on_c, 0, 76, 0
2, 114960, Note_on_c, 0, 71, 80
2, 115019, Note_on_c, 0, 71, 0
2, 115080, Note_on_c, 0, 64, 80
2, 115139, Note_on_c, 0, 64, 0
2, 115200, Note_on_c, 0, 52, 80
2, 115259, Note_on_c, 0, 52, 0
2, 115320, Note_on_c, 0, 58, 80
2, 115379, Note_on_c, 0, 58, 0
2, 115440, Note_on_c, 0, 62, 80
2, 115499, Note_on_c, 0, 62, 0
2, 115560, Note_on_c, 0, 68, 80
2, 115619, Note_on_c, 0, 68, 0
2, 115680, Note_on_c, 0, 80, 80
2, 115739, Note_on_c, 0, 80, 0
2, 115800, Note_on_c, 0, 74, 80
2, 115859, Note_on_c, 0, 74, 0
2, 115920, Note_on_c, 0, 70, 80
2, 115979, Note_on_c, 0, 70, 0
2, 116040, Note_on_c, 0, 64, 80
2, 116099, Note_on_c, 0, 64, 0
2, 116160, Note_on_c, 0, 52, 80
2, 116219, Note_on_c, 0, 52, 0
2, 116280, Note_on_c, 0, 58, 80
2, 116339, Note_on_c, 0, 58, 0
2, 116400, Note_on_c, 0, 62, 80
2, 116459, Note_on_c, 0, 62, 0
2, 116520, Note_on_c, 0, 68, 80
2, 116579, Note_on_c, 0, 68, 0
2, 116640, Note_on_c, 0, 80, 80
2, 116699, Note_on_c, 0, 80, 0
2, 116760, Note_on_c, 0, 74, 80
2, 116819, Note_on_c, 0, 74, 0
2, 116880, Note_on_c, 0, 70, 80
2, 116939, Note_on_c, 0, 70, 0
2, 117000, Note_on_c, 0, 64, 80
2, 117059, Note_on_c, 0, 64, 0
2, 117120, Note_on_c, 0, 51, 80
2, 117179, Note_on_c, 0, 51, 0
2, 117240, Note_on_c, 0, 61, 80
2, 117299, Note_on_c, 0, 61, 0
2, 117360, Note_on_c, 0, 67, 80
2, 117419, Note_on_c, 0, 67, 0
2, 117480, Note_on_c, 0, 70, 80
2, 117539, Note_on_c, 0, 70, 0
2, 117600, Note_on_c, 0, 82, 80
2, 117659, Note_on_c, 0, 82, 0
2, 117720, Note_on_c, 0, 79, 80
2, 117779, Note_on_c, 0, 79, 0
2, 117840, Note_on_c, 0, 73, 80
2, 117899, Note_on_c, 0, 73, 0
2, 117960, Note_on_c, 0, 63, 80
2, 118019, Note_on_c, 0, 63, 0
2, 118080, Note_on_c, 0, 51, 80
2, 118139, Note_on_c, 0, 51, 0
2, 118200, Note_on_c, 0, 61, 80
2, 118259, Note_on_c, 0, 61, 0
2, 118320, Note_on_c, 0, 67, 80
2, 118379, Note_on_c, 0, 67, 0
2, 118440, Note_on_c, 0, 70, 80
2, 118499, Note_on_c, 0, 70, 0
2, 118560, Note_on_c, 0, 82, 80
2, 118619, Note_on_c, 0, 82, 0
2, 118680, Note_on_c, 0, 79, 80
2, 118739, Note_on_c, 0, 79, 0
2, 118800, Note_on_c, 0, 73, 80
2, 118859, Note_on_c, 0, 73, 0
2, 118920, Note_on_c, 0, 63, 80
2, 118979, Note_on_c, 0, 63, 0
2, 119040, Note_on_c, 0, 56, 80
2, 119099, Note_on_c, 0, 56, 0
2, 119160, Note_on_c, 0, 61, 80
2, 119219, Note_on_c, 0, 61, 0
2, 119280, Note_on_c, 0, 64, 80
2, 119339, Note_on_c, 0, 64, 0
2, 119400, Note_on_c, 0, 68, 80
2, 119459, Note_on_c, 0, 68, 0
2, 119520, Note_on_c, 0, 80, 80
2, 119579, Note_on_c, 0, 80, 0
2, 119640, Note_on_c, 0, 76, 80
2, 119699, Note_on_c, 0, 76, 0
2, 119760, Note_on_c, 0, 73, 80
2, 119819, Note_on_c, 0, 73, 0
2, 119880, Note_on_c, 0, 68, 80
2, 119939, Note_on_c, 0, 68, 0
2, 120000, Note_on_c, 0, 56, 80
2, 120059, Note_on_c, 0, 56, 0
2, 120120, Note_on_c, 0, 61, 80
2, 120179, Note_on_c, 0, 61, 0
2, 120240, Note_on_c, 0, 64, 80
2, 120299, Note_on_c, 0, 64, 0
2, 120360, Note_on_c, 0, 68, 80
2, 120419, Note_on_c, 0, 68, 0
2, 120480, Note_on_c, 0, 80, 80
2, 120539, Note_on_c, 0, 80, 0
2, 120600, Note_on_c, 0, 76, 80
2, 120659, Note_on_c, 0, 76, 0
2, 120720, Note_on_c, 0, 73, 80
2, 120779, Note_on_c, 0, 73, 0
2, 120840, Note_on_c, 0, 68, 80
2, 120899, Note_on_c, 0, 68, 0
2, 120960, Note_on_c, 0, 56, 80
2, 121019, Note_on_c, 0, 56, 0
2, 121080, Note_on_c, 0, 63, 80
2, 121139, Note_on_c, 0, 63, 0
2, 121200, Note_on_c, 0, 66, 80
2, 121259, Note_on_c, 0, 66, 0
2, 121320, Note_on_c, 0, 72, 80
2, 121379, Note_on_c, 0, 72, 0
2, 121440, Note_on_c, 0, 84, 80
2, 121499, Note_on_c, 0, 84, 0
2, 121560, Note_on_c, 0, 78, 80
2, 121619, Note_on_c, 0, 78, 0
2, 121680, Note_on_c, 0, 75, 80
2, 121739, Note_on_c, 0, 75, 0
2, 121800, Note_on_c, 0, 68, 80
2, 121859, Note_on_c, 0, 68, 0
2, 121920, Note_on_c, 0, 56, 80
2, 121979, Note_on_c, 0, 56, 0
2, 122040, Note_on_c, 0, 63, 80
2, 122099, Note_on_c, 0, 63, 0
2, 122160, Note_on_c, 0, 66, 80
2, 122219, Note_on_c, 0, 66, 0
2, 122280, Note_on_c, 0, 72, 80
2, 122339, Note_on_c, 0, 72, 0
2, 122400, Note_on_c, 0, 84, 80
2, 122479, Note_on_c, 0, 84, 0
2, 122560, Note_on_c, 0, 78, 80
2, 122639, Note_on_c, 0, 78, 0
2, 122720, Note_on_c, 0, 75, 80
2, 122799, Note_on_c, 0, 75, 0
2, 122880, Note_on_c, 0, 68, 80
2, 122999, Note_on_c, 0, 68, 0
2, 123000, End_track
3, 0, Start_track
3, 0, Title_t, "Instrument_02\000"
3, 0, Key_signature, 0, "major"
3, 0, Control_c, 1, 121, 0
3, 0, Program_c, 1, 80
3, 0, Control_c, 1, 7, 65
3, 0, Control_c, 1, 10, 64
3, 0, Control_c, 1, 91, 0
3, 0, Control_c, 1, 93, 0
3, 0, MIDI_port, 0
3, 120, Note_on_c, 1, 61, 80
3, 179, Note_on_c, 1, 61, 0
3, 240, Note_on_c, 1, 64, 80
3, 299, Note_on_c, 1, 64, 0
3, 360, Note_on_c, 1, 68, 80
3, 419, Note_on_c, 1, 68, 0
3, 480, Note_on_c, 1, 73, 80
3, 539, Note_on_c, 1, 73, 0
3, 600, Note_on_c, 1, 85, 80
3, 659, Note_on_c, 1, 85, 0
3, 720, Note_on_c, 1, 80, 80
3, 779, Note_on_c, 1, 80, 0
3, 840, Note_on_c, 1, 76, 80
3, 899, Note_on_c, 1, 76, 0
3, 960, Note_on_c, 1, 73, 80
3, 1019, Note_on_c, 1, 73, 0
3, 1080, Note_on_c, 1, 61, 80
3, 1139, Note_on_c, 1, 61, 0
3, 1200, Note_on_c, 1, 64, 80
3, 1259, Note_on_c, 1, 64, 0
3, 1320, Note_on_c, 1, 68, 80
3, 1379, Note_on_c, 1, 68, 0
3, 1440, Note_on_c, 1, 73, 80
3, 1499, Note_on_c, 1, 73, 0
3, 1560, Note_on_c, 1, 85, 80
3, 1619, Note_on_c, 1, 85, 0
3, 1680, Note_on_c, 1, 80, 80
3, 1739, Note_on_c, 1, 80, 0
3, 1800, Note_on_c, 1, 76, 80
3, 1859, Note_on_c, 1, 76, 0
3, 1920, Note_on_c, 1, 73, 80
3, 1979, Note_on_c, 1, 73, 0
3, 2040, Note_on_c, 1, 56, 80
3, 2099, Note_on_c, 1, 56, 0
3, 2160, Note_on_c, 1, 63, 80
3, 2219, Note_on_c, 1, 63, 0
3, 2280, Note_on_c, 1, 68, 80
3, 2339, Note_on_c, 1, 68, 0
3, 2400, Note_on_c, 1, 71, 80
3, 2459, Note_on_c, 1, 71, 0
3, 2520, Note_on_c, 1, 83, 80
3, 2579, Note_on_c, 1, 83, 0
3, 2640, Note_on_c, 1, 80, 80
3, 2699, Note_on_c, 1, 80, 0
3, 2760, Note_on_c, 1, 75, 80
3, 2819, Note_on_c, 1, 75, 0
3, 2880, Note_on_c, 1, 68, 80
3, 2939, Note_on_c, 1, 68, 0
3, 3000, Note_on_c, 1, 56, 80
3, 3059, Note_on_c, 1, 56, 0
3, 3120, Note_on_c, 1, 63, 80
3, 3179, Note_on_c, 1, 63, 0
3, 3240, Note_on_c, 1, 68, 80
3, 3299, Note_on_c, 1, 68, 0
3, 3360, Note_on_c, 1, 71, 80
3, 3419, Note_on_c, 1, 71, 0
3, 3480, Note_on_c, 1, 83, 80
3, 3539, Note_on_c, 1, 83, 0
3, 3600, Note_on_c, 1, 80, 80
3, 3659, Note_on_c, 1, 80, 0
3, 3720, Note_on_c, 1, 75, 80
3, 3779, Note_on_c, 1, 75, 0
3, 3840, Note_on_c, 1, 68, 80
3, 3899, Note_on_c, 1, 68, 0
3, 3960, Note_on_c, 1, 57, 80
3, 4019, Note_on_c, 1, 57, 0
3, 4080, Note_on_c, 1, 61, 80
3, 4139, Note_on_c, 1, 61, 0
3, 4200, Note_on_c, 1, 64, 80
3, 4259, Note_on_c, 1, 64, 0
3, 4320, Note_on_c, 1, 69, 80
3, 4379, Note_on_c, 1, 69, 0
3, 4440, Note_on_c, 1, 81, 80
3, 4499, Note_on_c, 1, 81, 0
3, 4560, Note_on_c, 1, 76, 80
3, 4619, Note_on_c, 1, 76, 0
3, 4680, Note_on_c, 1, 73, 80
3, 4739, Note_on_c, 1, 73, 0
3, 4800, Note_on_c, 1, 69, 80
3, 4859, Note_on_c, 1, 69, 0
3, 4920, Note_on_c, 1, 57, 80
3, 4979, Note_on_c, 1, 57, 0
3, 5040, Note_on_c, 1, 61, 80
3, 5099, Note_on_c, 1, 61, 0
3, 5160, Note_on_c, 1, 64, 80
3, 5219, Note_on_c, 1, 64, 0
3, 5280, Note_on_c, 1, 69, 80
3, 5339, Note_on_c, 1, 69, 0
3, 5400, Note_on_c, 1, 81, 80
3, 5459, Note_on_c, 1, 81, 0
3, 5520, Note_on_c, 1, 76, 80
3, 5579, Note_on_c, 1, 76, 0
3, 5640, Note_on_c, 1, 73, 80
3, 5699, Note_on_c, 1, 73, 0
3, 5760, Note_on_c, 1, 69, 80
3, 5819, Note_on_c, 1, 69, 0
3, 5880, Note_on_c, 1, 52, 80
3, 5939, Note_on_c, 1, 52, 0
3, 6000, Note_on_c, 1, 59, 80
3, 6059, Note_on_c, 1, 59, 0
3, 6120, Note_on_c, 1, 64, 80
3, 6179, Note_on_c, 1, 64, 0
3, 6240, Note_on_c, 1, 68, 80
3, 6299, Note_on_c, 1, 68, 0
3, 6360, Note_on_c, 1, 80, 80
3, 6419, Note_on_c, 1, 80, 0
3, 6480, Note_on_c, 1, 76, 80
3, 6539, Note_on_c, 1, 76, 0
3, 6600, Note_on_c, 1, 71, 80
3, 6659, Note_on_c, 1, 71, 0
3, 6720, Note_on_c, 1, 64, 80
3, 6779, Note_on_c, 1, 64, 0
3, 6840, Note_on_c, 1, 52, 80
3, 6899, Note_on_c, 1, 52, 0
3, 6960, Note_on_c, 1, 59, 80
3, 7019, Note_on_c, 1, 59, 0
3, 7080, Note_on_c, 1, 64, 80
3, 7139, Note_on_c, 1, 64, 0
3, 7200, Note_on_c, 1, 68, 80
3, 7259, Note_on_c, 1, 68, 0
3, 7320, Note_on_c, 1, 80, 80
3, 7379, Note_on_c, 1, 80, 0
3, 7440, Note_on_c, 1, 76, 80
3, 7499, Note_on_c, 1, 76, 0
3, 7560, Note_on_c, 1, 71, 80
3, 7619, Note_on_c, 1, 71, 0
3, 7680, Note_on_c, 1, 64, 80
3, 7739, Note_on_c, 1, 64, 0
3, 7800, Note_on_c, 1, 52, 80
3, 7859, Note_on_c, 1, 52, 0
3, 7920, Note_on_c, 1, 58, 80
3, 7979, Note_on_c, 1, 58, 0
3, 8040, Note_on_c, 1, 62, 80
3, 8099, Note_on_c, 1, 62, 0
3, 8160, Note_on_c, 1, 68, 80
3, 8219, Note_on_c, 1, 68, 0
3, 8280, Note_on_c, 1, 80, 80
3, 8339, Note_on_c, 1, 80, 0
3, 8400, Note_on_c, 1, 74, 80
3, 8459, Note_on_c, 1, 74, 0
3, 8520, Note_on_c, 1, 70, 80
3, 8579, Note_on_c, 1, 70, 0
3, 8640, Note_on_c, 1, 64, 80
3, 8699, Note_on_c, 1, 64, 0
3, 8760, Note_on_c, 1, 52, 80
3, 8819, Note_on_c, 1, 52, 0
3, 8880, Note_on_c, 1, 58, 80
3, 8939, Note_on_c, 1, 58, 0
3, 9000, Note_on_c, 1, 62, 80
3, 9059, Note_on_c, 1, 62, 0
3, 9120, Note_on_c, 1, 68, 80
3, 9179, Note_on_c, 1, 68, 0
3, 9240, Note_on_c, 1, 80, 80
3, 9299, Note_on_c, 1, 80, 0
3, 9360, Note_on_c, 1, 74, 80
3, 9419, Note_on_c, 1, 74, 0
3, 9480, Note_on_c, 1, 70, 80
3, 9539, Note_on_c, 1, 70, 0
3, 9600, Note_on_c, 1, 64, 80
3, 9659, Note_on_c, 1, 64, 0
3, 9720, Note_on_c, 1, 51, 80
3, 9779, Note_on_c, 1, 51, 0
3, 9840, Note_on_c, 1, 61, 80
3, 9899, Note_on_c, 1, 61, 0
3, 9960, Note_on_c, 1, 67, 80
3, 10019, Note_on_c, 1, 67, 0
3, 10080, Note_on_c, 1, 70, 80
3, 10139, Note_on_c, 1, 70, 0
3, 10200, Note_on_c, 1, 82, 80
3, 10259, Note_on_c, 1, 82, 0
3, 10320, Note_on_c, 1, 79, 80
3, 10379, Note_on_c, 1, 79, 0
3, 10440, Note_on_c, 1, 73, 80
3, 10499, Note_on_c, 1, 73, 0
3, 10560, Note_on_c, 1, 63, 80
3, 10619, Note_on_c, 1, 63, 0
3, 10680, Note_on_c, 1, 51, 80
3, 10739, Note_on_c, 1, 51, 0
3, 10800, Note_on_c, 1, 61, 80
3, 10859, Note_on_c, 1, 61, 0
3, 10920, Note_on_c, 1, 67, 80
3, 10979, Note_on_c, 1, 67, 0
3, 11040, Note_on_c, 1, 70, 80
3, 11099, Note_on_c, 1, 70, 0
3, 11160, Note_on_c, 1, 82, 80
3, 11219, Note_on_c, 1, 82, 0
3, 11280, Note_on_c, 1, 79, 80
3, 11339, Note_on_c, 1, 79, 0
3, 11400, Note_on_c, 1, 73, 80
3, 11459, Note_on_c, 1, 73, 0
3, 11520, Note_on_c, 1, 63, 80
3, 11579, Note_on_c, 1, 63, 0
3, 11640, Note_on_c, 1, 56, 80
3, 11699, Note_on_c, 1, 56, 0
3, 11760, Note_on_c, 1, 61, 80
3, 11819, Note_on_c, 1, 61, 0
3, 11880, Note_on_c, 1, 64, 80
3, 11939, Note_on_c, 1, 64, 0
3, 12000, Note_on_c, 1, 68, 80
3, 12059, Note_on_c, 1, 68, 0
3, 12120, Note_on_c, 1, 80, 80
3, 12179, Note_on_c, 1, 80, 0
3, 12240, Note_on_c, 1, 76, 80
3, 12299, Note_on_c, 1, 76, 0
3, 12360, Note_on_c, 1, 73, 80
3, 12419, Note_on_c, 1, 73, 0
3, 12480, Note_on_c, 1, 68, 80
3, 12539, Note_on_c, 1, 68, 0
3, 12600, Note_on_c, 1, 56, 80
3, 12659, Note_on_c, 1, 56, 0
3, 12720, Note_on_c, 1, 61, 80
3, 12779, Note_on_c, 1, 61, 0
3, 12840, Note_on_c, 1, 64, 80
3, 12899, Note_on_c, 1, 64, 0
3, 12960, Note_on_c, 1, 68, 80
3, 13019, Note_on_c, 1, 68, 0
3, 13080, Note_on_c, 1, 80, 80
3, 13139, Note_on_c, 1, 80, 0
3, 13200, Note_on_c, 1, 76, 80
3, 13259, Note_on_c, 1, 76, 0
3, 13320, Note_on_c, 1, 73, 80
3, 13379, Note_on_c, 1, 73, 0
3, 13440, Note_on_c, 1, 68, 80
3, 13499, Note_on_c, 1, 68, 0
3, 13560, Note_on_c, 1, 56, 80
3, 13619, Note_on_c, 1, 56, 0
3, 13680, Note_on_c, 1, 63, 80
3, 13739, Note_on_c, 1, 63, 0
3, 13800, Note_on_c, 1, 66, 80
3, 13859, Note_on_c, 1, 66, 0
3, 13920, Note_on_c, 1, 72, 80
3, 13979, Note_on_c, 1, 72, 0
3, 14040, Note_on_c, 1, 84, 80
3, 14099, Note_on_c, 1, 84, 0
3, 14160, Note_on_c, 1, 78, 80
3, 14219, Note_on_c, 1, 78, 0
3, 14280, Note_on_c, 1, 75, 80
3, 14339, Note_on_c, 1, 75, 0
3, 14400, Note_on_c, 1, 68, 80
3, 14459, Note_on_c, 1, 68, 0
3, 14520, Note_on_c, 1, 56, 80
3, 14579, Note_on_c, 1, 56, 0
3, 14640, Note_on_c, 1, 63, 80
3, 14699, Note_on_c, 1, 63, 0
3, 14760, Note_on_c, 1, 66, 80
3, 14819, Note_on_c, 1, 66, 0
3, 14880, Note_on_c, 1, 72, 80
3, 14939, Note_on_c, 1, 72, 0
3, 15000, Note_on_c, 1, 84, 80
3, 15059, Note_on_c, 1, 84, 0
3, 15120, Note_on_c, 1, 78, 80
3, 15179, Note_on_c, 1, 78, 0
3, 15240, Note_on_c, 1, 75, 80
3, 15299, Note_on_c, 1, 75, 0
3, 15360, Note_on_c, 1, 68, 80
3, 15419, Note_on_c, 1, 68, 0
3, 15480, Note_on_c, 1, 61, 80
3, 15539, Note_on_c, 1, 61, 0
3, 15600, Note_on_c, 1, 64, 80
3, 15659, Note_on_c, 1, 64, 0
3, 15720, Note_on_c, 1, 68, 80
3, 15779, Note_on_c, 1, 68, 0
3, 15840, Note_on_c, 1, 73, 80
3, 15899, Note_on_c, 1, 73, 0
3, 15960, Note_on_c, 1, 85, 80
3, 16019, Note_on_c, 1, 85, 0
3, 16080, Note_on_c, 1, 80, 80
3, 16139, Note_on_c, 1, 80, 0
3, 16200, Note_on_c, 1, 76, 80
3, 16259, Note_on_c, 1, 76, 0
3, 16320, Note_on_c, 1, 73, 80
3, 16379, Note_on_c, 1, 73, 0
3, 16440, Note_on_c, 1, 61, 80
3, 16499, Note_on_c, 1, 61, 0
3, 16560, Note_on_c, 1, 64, 80
3, 16619, Note_on_c, 1, 64, 0
3, 16680, Note_on_c, 1, 68, 80
3, 16739, Note_on_c, 1, 68, 0
3, 16800, Note_on_c, 1, 73, 80
3, 16859, Note_on_c, 1, 73, 0
3, 16920, Note_on_c, 1, 85, 80
3, 16979, Note_on_c, 1, 85, 0
3, 17040, Note_on_c, 1, 80, 80
3, 17099, Note_on_c, 1, 80, 0
3, 17160, Note_on_c, 1, 76, 80
3, 17219, Note_on_c, 1, 76, 0
3, 17280, Note_on_c, 1, 73, 80
3, 17339, Note_on_c, 1, 73, 0
3, 17400, Note_on_c, 1, 56, 80
3, 17459, Note_on_c, 1, 56, 0
3, 17520, Note_on_c, 1, 63, 80
3, 17579, Note_on_c, 1, 63, 0
3, 17640, Note_on_c, 1, 68, 80
3, 17699, Note_on_c, 1, 68, 0
3, 17760, Note_on_c, 1, 71, 80
3, 17819, Note_on_c, 1, 71, 0
3, 17880, Note_on_c, 1, 83, 80
3, 17939, Note_on_c, 1, 83, 0
3, 18000, Note_on_c, 1, 80, 80
3, 18059, Note_on_c, 1, 80, 0
3, 18120, Note_on_c, 1, 75, 80
3, 18179, Note_on_c, 1, 75, 0
3, 18240, Note_on_c, 1, 68, 80
3, 18299, Note_on_c, 1, 68, 0
3, 18360, Note_on_c, 1, 56, 80
3, 18419, Note_on_c, 1, 56, 0
3, 18480, Note_on_c, 1, 63, 80
3, 18539, Note_on_c, 1, 63, 0
3, 18600, Note_on_c, 1, 68, 80
3, 18659, Note_on_c, 1, 68, 0
3, 18720, Note_on_c, 1, 71, 80
3, 18779, Note_on_c, 1, 71, 0
3, 18840, Note_on_c, 1, 83, 80
3, 18899, Note_on_c, 1, 83, 0
3, 18960, Note_on_c, 1, 80, 80
3, 19019, Note_on_c, 1, 80, 0
3, 19080, Note_on_c, 1, 75, 80
3, 19139, Note_on_c, 1, 75, 0
3, 19200, Note_on_c, 1, 68, 80
3, 19259, Note_on_c, 1, 68, 0
3, 19320, Note_on_c, 1, 57, 80
3, 19379, Note_on_c, 1, 57, 0
3, 19440, Note_on_c, 1, 61, 80
3, 19499, Note_on_c, 1, 61, 0
3, 19560, Note_on_c, 1, 64, 80
3, 19619, Note_on_c, 1, 64, 0
3, 19680, Note_on_c, 1, 69, 80
3, 19739, Note_on_c, 1, 69, 0
3, 19800, Note_on_c, 1, 81, 80
3, 19859, Note_on_c, 1, 81, 0
3, 19920, Note_on_c, 1, 76, 80
3, 19979, Note_on_c, 1, 76, 0
3, 20040, Note_on_c, 1, 73, 80
3, 20099, Note_on_c, 1, 73, 0
3, 20160, Note_on_c, 1, 69, 80
3, 20219, Note_on_c, 1, 69, 0
3, 20280, Note_on_c, 1, 57, 80
3, 20339, Note_on_c, 1, 57, 0
3, 20400, Note_on_c, 1, 61, 80
3, 20459, Note_on_c, 1, 61, 0
3, 20520, Note_on_c, 1, 64, 80
3, 20579, Note_on_c, 1, 64, 0
3, 20640, Note_on_c, 1, 69, 80
3, 20699, Note_on_c, 1, 69, 0
3, 20760, Note_on_c, 1, 81, 80
3, 20819, Note_on_c, 1, 81, 0
3, 20880, Note_on_c, 1, 76, 80
3, 20939, Note_on_c, 1, 76, 0
3, 21000, Note_on_c, 1, 73, 80
3, 21059, Note_on_c, 1, 73, 0
3, 21120, Note_on_c, 1, 69, 80
3, 21179, Note_on_c, 1, 69, 0
3, 21240, Note_on_c, 1, 52, 80
3, 21299, Note_on_c, 1, 52, 0
3, 21360, Note_on_c, 1, 59, 80
3, 21419, Note_on_c, 1, 59, 0
3, 21480, Note_on_c, 1, 64, 80
3, 21539, Note_on_c, 1, 64, 0
3, 21600, Note_on_c, 1, 68, 80
3, 21659, Note_on_c, 1, 68, 0
3, 21720, Note_on_c, 1, 80, 80
3, 21779, Note_on_c, 1, 80, 0
3, 21840, Note_on_c, 1, 76, 80
3, 21899, Note_on_c, 1, 76, 0
3, 21960, Note_on_c, 1, 71, 80
3, 22019, Note_on_c, 1, 71, 0
3, 22080, Note_on_c, 1, 64, 80
3, 22139, Note_on_c, 1, 64, 0
3, 22200, Note_on_c, 1, 52, 80
3, 22259, Note_on_c, 1, 52, 0
3, 22320, Note_on_c, 1, 59, 80
3, 22379, Note_on_c, 1, 59, 0
3, 22440, Note_on_c, 1, 64, 80
3, 22499, Note_on_c, 1, 64, 0
3, 22560, Note_on_c, 1, 68, 80
3, 22619, Note_on_c, 1, 68, 0
3, 22680, Note_on_c, 1, 80, 80
3, 22739, Note_on_c, 1, 80, 0
3, 22800, Note_on_c, 1, 76, 80
3, 22859, Note_on_c, 1, 76, 0
3, 22920, Note_on_c, 1, 71, 80
3, 22979, Note_on_c, 1, 71, 0
3, 23040, Note_on_c, 1, 64, 80
3, 23099, Note_on_c, 1, 64, 0
3, 23160, Note_on_c, 1, 52, 80
3, 23219, Note_on_c, 1, 52, 0
3, 23280, Note_on_c, 1, 58, 80
3, 23339, Note_on_c, 1, 58, 0
3, 23400, Note_on_c, 1, 62, 80
3, 23459, Note_on_c, 1, 62, 0
3, 23520, Note_on_c, 1, 68, 80
3, 23579, Note_on_c, 1, 68, 0
3, 23640, Note_on_c, 1, 80, 80
3, 23699, Note_on_c, 1, 80, 0
3, 23760, Note_on_c, 1, 74, 80
3, 23819, Note_on_c, 1, 74, 0
3, 23880, Note_on_c, 1, 70, 80
3, 23939, Note_on_c, 1, 70, 0
3, 24000, Note_on_c, 1, 64, 80
3, 24059, Note_on_c, 1, 64, 0
3, 24120, Note_on_c, 1, 52, 80
3, 24179, Note_on_c, 1, 52, 0
3, 24240, Note_on_c, 1, 58, 80
3, 24299, Note_on_c, 1, 58, 0
3, 24360, Note_on_c, 1, 62, 80
3, 24419, Note_on_c, 1, 62, 0
3, 24480, Note_on_c, 1, 68, 80
3, 24539, Note_on_c, 1, 68, 0
3, 24600, Note_on_c, 1, 80, 80
3, 24659, Note_on_c, 1, 80, 0
3, 24720, Note_on_c, 1, 74, 80
3, 24779, Note_on_c, 1, 74, 0
3, 24840, Note_on_c, 1, 70, 80
3, 24899, Note_on_c, 1, 70, 0
3, 24960, Note_on_c, 1, 64, 80
3, 25019, Note_on_c, 1, 64, 0
3, 25080, Note_on_c, 1, 51, 80
3, 25139, Note_on_c, 1, 51, 0
3, 25200, Note_on_c, 1, 61, 80
3, 25259, Note_on_c, 1, 61, 0
3, 25320, Note_on_c, 1, 67, 80
3, 25379, Note_on_c, 1, 67, 0
3, 25440, Note_on_c, 1, 70, 80
3, 25499, Note_on_c, 1, 70, 0
3, 25560, Note_on_c, 1, 82, 80
3, 25619, Note_on_c, 1, 82, 0
3, 25680, Note_on_c, 1, 79, 80
3, 25739, Note_on_c, 1, 79, 0
3, 25800, Note_on_c, 1, 73, 80
3, 25859, Note_on_c, 1, 73, 0
3, 25920, Note_on_c, 1, 63, 80
3, 25979, Note_on_c, 1, 63, 0
3, 26040, Note_on_c, 1, 51, 80
3, 26099, Note_on_c, 1, 51, 0
3, 26160, Note_on_c, 1, 61, 80
3, 26219, Note_on_c, 1, 61, 0
3, 26280, Note_on_c, 1, 67, 80
3, 26339, Note_on_c, 1, 67, 0
3, 26400, Note_on_c, 1, 70, 80
3, 26459, Note_on_c, 1, 70, 0
3, 26520, Note_on_c, 1, 82, 80
3, 26579, Note_on_c, 1, 82, 0
3, 26640, Note_on_c, 1, 79, 80
3, 26699, Note_on_c, 1, 79, 0
3, 26760, Note_on_c, 1, 73, 80
3, 26819, Note_on_c, 1, 73, 0
3, 26880, Note_on_c, 1, 63, 80
3, 26939, Note_on_c, 1, 63, 0
3, 27000, Note_on_c, 1, 56, 80
3, 27059, Note_on_c, 1, 56, 0
3, 27120, Note_on_c, 1, 61, 80
3, 27179, Note_on_c, 1, 61, 0
3, 27240, Note_on_c, 1, 64, 80
3, 27299, Note_on_c, 1, 64, 0
3, 27360, Note_on_c, 1, 68, 80
3, 27419, Note_on_c, 1, 68, 0
3, 27480, Note_on_c, 1, 80, 80
3, 27539, Note_on_c, 1, 80, 0
3, 27600, Note_on_c, 1, 76, 80
3, 27659, Note_on_c, 1, 76, 0
3, 27720, Note_on_c, 1, 73, 80
3, 27779, Note_on_c, 1, 73, 0
3, 27840, Note_on_c, 1, 68, 80
3, 27899, Note_on_c, 1, 68, 0
3, 27960, Note_on_c, 1, 56, 80
3, 28019, Note_on_c, 1, 56, 0
3, 28080, Note_on_c, 1, 61, 80
3, 28139, Note_on_c, 1, 61, 0
3, 28200, Note_on_c, 1, 64, 80
3, 28259, Note_on_c, 1, 64, 0
3, 28320, Note_on_c, 1, 68, 80
3, 28379, Note_on_c, 1, 68, 0
3, 28440, Note_on_c, 1, 80, 80
3, 28499, Note_on_c, 1, 80, 0
3, 28560, Note_on_c, 1, 76, 80
3, 28619, Note_on_c, 1, 76, 0
3, 28680, Note_on_c, 1, 73, 80
3, 28739, Note_on_c, 1, 73, 0
3, 28800, Note_on_c, 1, 68, 80
3, 28859, Note_on_c, 1, 68, 0
3, 28920, Note_on_c, 1, 56, 80
3, 28979, Note_on_c, 1, 56, 0
3, 29040, Note_on_c, 1, 63, 80
3, 29099, Note_on_c, 1, 63, 0
3, 29160, Note_on_c, 1, 66, 80
3, 29219, Note_on_c, 1, 66, 0
3, 29280, Note_on_c, 1, 72, 80
3, 29339, Note_on_c, 1, 72, 0
3, 29400, Note_on_c, 1, 84, 80
3, 29459, Note_on_c, 1, 84, 0
3, 29520, Note_on_c, 1, 78, 80
3, 29579, Note_on_c, 1, 78, 0
3, 29640, Note_on_c, 1, 75, 80
3, 29699, Note_on_c, 1, 75, 0
3, 29760, Note_on_c, 1, 68, 80
3, 29819, Note_on_c, 1, 68, 0
3, 29880, Note_on_c, 1, 56, 80
3, 29939, Note_on_c, 1, 56, 0
3, 30000, Note_on_c, 1, 63, 80
3, 30059, Note_on_c, 1, 63, 0
3, 30120, Note_on_c, 1, 66, 80
3, 30179, Note_on_c, 1, 66, 0
3, 30240, Note_on_c, 1, 72, 80
3, 30299, Note_on_c, 1, 72, 0
3, 30360, Note_on_c, 1, 84, 80
3, 30419, Note_on_c, 1, 84, 0
3, 30480, Note_on_c, 1, 78, 80
3, 30539, Note_on_c, 1, 78, 0
3, 30600, Note_on_c, 1, 75, 80
3, 30659, Note_on_c, 1, 75, 0
3, 30720, Note_on_c, 1, 68, 80
3, 30779, Note_on_c, 1, 68, 0
3, 30840, Note_on_c, 1, 61, 80
3, 30899, Note_on_c, 1, 61, 0
3, 30960, Note_on_c, 1, 64, 80
3, 31019, Note_on_c, 1, 64, 0
3, 31080, Note_on_c, 1, 68, 80
3, 31139, Note_on_c, 1, 68, 0
3, 31200, Note_on_c, 1, 73, 80
3, 31259, Note_on_c, 1, 73, 0
3, 31320, Note_on_c, 1, 85, 80
3, 31379, Note_on_c, 1, 85, 0
3, 31440, Note_on_c, 1, 80, 80
3, 31499, Note_on_c, 1, 80, 0
3, 31560, Note_on_c, 1, 76, 80
3, 31619, Note_on_c, 1, 76, 0
3, 31680, Note_on_c, 1, 73, 80
3, 31739, Note_on_c, 1, 73, 0
3, 31800, Note_on_c, 1, 61, 80
3, 31859, Note_on_c, 1, 61, 0
3, 31920, Note_on_c, 1, 64, 80
3, 31979, Note_on_c, 1, 64, 0
3, 32040, Note_on_c, 1, 68, 80
3, 32099, Note_on_c, 1, 68, 0
3, 32160, Note_on_c, 1, 73, 80
3, 32219, Note_on_c, 1, 73, 0
3, 32280, Note_on_c, 1, 85, 80
3, 32339, Note_on_c, 1, 85, 0
3, 32400, Note_on_c, 1, 80, 80
3, 32459, Note_on_c, 1, 80, 0
3, 32520, Note_on_c, 1, 76, 80
3, 32579, Note_on_c, 1, 76, 0
3, 32640, Note_on_c, 1, 73, 80
3, 32699, Note_on_c, 1, 73, 0
3, 32760, Note_on_c, 1, 56, 80
3, 32819, Note_on_c, 1, 56, 0
3, 32880, Note_on_c, 1, 63, 80
3, 32939, Note_on_c, 1, 63, 0
3, 33000, Note_on_c, 1, 68, 80
3, 33059, Note_on_c, 1, 68, 0
3, 33120, Note_on_c, 1, 71, 80
3, 33179, Note_on_c, 1, 71, 0
3, 33240, Note_on_c, 1, 83, 80
3, 33299, Note_on_c, 1, 83, 0
3, 33360, Note_on_c, 1, 80, 80
3, 33419, Note_on_c, 1, 80, 0
3, 33480, Note_on_c, 1, 75, 80
3, 33539, Note_on_c, 1, 75, 0
3, 33600, Note_on_c, 1, 68, 80
3, 33659, Note_on_c, 1, 68, 0
3, 33720, Note_on_c, 1, 56, 80
3, 33779, Note_on_c, 1, 56, 0
3, 33840, Note_on_c, 1, 63, 80
3, 33899, Note_on_c, 1, 63, 0
3, 33960, Note_on_c, 1, 68, 80
3, 34019, Note_on_c, 1, 68, 0
3, 34080, Note_on_c, 1, 71, 80
3, 34139, Note_on_c, 1, 71, 0
3, 34200, Note_on_c, 1, 83, 80
3, 34259, Note_on_c, 1, 83, 0
3, 34320, Note_on_c, 1, 80, 80
3, 34379, Note_on_c, 1, 80, 0
3, 34440, Note_on_c, 1, 75, 80
3, 34499, Note_on_c, 1, 75, 0
3, 34560, Note_on_c, 1, 68, 80
3, 34619, Note_on_c, 1, 68, 0
3, 34680, Note_on_c, 1, 57, 80
3, 34739, Note_on_c, 1, 57, 0
3, 34800, Note_on_c, 1, 61, 80
3, 34859, Note_on_c, 1, 61, 0
3, 34920, Note_on_c, 1, 64, 80
3, 34979, Note_on_c, 1, 64, 0
3, 35040, Note_on_c, 1, 69, 80
3, 35099, Note_on_c, 1, 69, 0
3, 35160, Note_on_c, 1, 81, 80
3, 35219, Note_on_c, 1, 81, 0
3, 35280, Note_on_c, 1, 76, 80
3, 35339, Note_on_c, 1, 76, 0
3, 35400, Note_on_c, 1, 73, 80
3, 35459, Note_on_c, 1, 73, 0
3, 35520, Note_on_c, 1, 69, 80
3, 35579, Note_on_c, 1, 69, 0
3, 35640, Note_on_c, 1, 57, 80
3, 35699, Note_on_c, 1, 57, 0
3, 35760, Note_on_c, 1, 61, 80
3, 35819, Note_on_c, 1, 61, 0
3, 35880, Note_on_c, 1, 64, 80
3, 35939, Note_on_c, 1, 64, 0
3, 36000, Note_on_c, 1, 69, 80
3, 36059, Note_on_c, 1, 69, 0
3, 36120, Note_on_c, 1, 81, 80
3, 36179, Note_on_c, 1, 81, 0
3, 36240, Note_on_c, 1, 76, 80
3, 36299, Note_on_c, 1, 76, 0
3, 36360, Note_on_c, 1, 73, 80
3, 36419, Note_on_c, 1, 73, 0
3, 36480, Note_on_c, 1, 69, 80
3, 36539, Note_on_c, 1, 69, 0
3, 36600, Note_on_c, 1, 52, 80
3, 36659, Note_on_c, 1, 52, 0
3, 36720, Note_on_c, 1, 59, 80
3, 36779, Note_on_c, 1, 59, 0
3, 36840, Note_on_c, 1, 64, 80
3, 36899, Note_on_c, 1, 64, 0
3, 36960, Note_on_c, 1, 68, 80
3, 37019, Note_on_c, 1, 68, 0
3, 37080, Note_on_c, 1, 80, 80
3, 37139, Note_on_c, 1, 80, 0
3, 37200, Note_on_c, 1, 76, 80
3, 37259, Note_on_c, 1, 76, 0
3, 37320, Note_on_c, 1, 71, 80
3, 37379, Note_on_c, 1, 71, 0
3, 37440, Note_on_c, 1, 64, 80
3, 37499, Note_on_c, 1, 64, 0
3, 37560, Note_on_c, 1, 52, 80
3, 37619, Note_on_c, 1, 52, 0
3, 37680, Note_on_c, 1, 59, 80
3, 37739, Note_on_c, 1, 59, 0
3, 37800, Note_on_c, 1, 64, 80
3, 37859, Note_on_c, 1, 64, 0
3, 37920, Note_on_c, 1, 68, 80
3, 37979, Note_on_c, 1, 68, 0
3, 38040, Note_on_c, 1, 80, 80
3, 38099, Note_on_c, 1, 80, 0
3, 38160, Note_on_c, 1, 76, 80
3, 38219, Note_on_c, 1, 76, 0
3, 38280, Note_on_c, 1, 71, 80
3, 38339, Note_on_c, 1, 71, 0
3, 38400, Note_on_c, 1, 64, 80
3, 38459, Note_on_c, 1, 64, 0
3, 38520, Note_on_c, 1, 52, 80
3, 38579, Note_on_c, 1, 52, 0
3, 38640, Note_on_c, 1, 58, 80
3, 38699, Note_on_c, 1, 58, 0
3, 38760, Note_on_c, 1, 62, 80
3, 38819, Note_on_c, 1, 62, 0
3, 38880, Note_on_c, 1, 68, 80
3, 38939, Note_on_c, 1, 68, 0
3, 39000, Note_on_c, 1, 80, 80
3, 39059, Note_on_c, 1, 80, 0
3, 39120, Note_on_c, 1, 74, 80
3, 39179, Note_on_c, 1, 74, 0
3, 39240, Note_on_c, 1, 70, 80
3, 39299, Note_on_c, 1, 70, 0
3, 39360, Note_on_c, 1, 64, 80
3, 39419, Note_on_c, 1, 64, 0
3, 39480, Note_on_c, 1, 52, 80
3, 39539, Note_on_c, 1, 52, 0
3, 39600, Note_on_c, 1, 58, 80
3, 39659, Note_on_c, 1, 58, 0
3, 39720, Note_on_c, 1, 62, 80
3, 39779, Note_on_c, 1, 62, 0
3, 39840, Note_on_c, 1, 68, 80
3, 39899, Note_on_c, 1, 68, 0
3, 39960, Note_on_c, 1, 80, 80
3, 40019, Note_on_c, 1, 80, 0
3, 40080, Note_on_c, 1, 74, 80
3, 40139, Note_on_c, 1, 74, 0
3, 40200, Note_on_c, 1, 70, 80
3, 40259, Note_on_c, 1, 70, 0
3, 40320, Note_on_c, 1, 64, 80
3, 40379, Note_on_c, 1, 64, 0
3, 40440, Note_on_c, 1, 51, 80
3, 40499, Note_on_c, 1, 51, 0
3, 40560, Note_on_c, 1, 61, 80
3, 40619, Note_on_c, 1, 61, 0
3, 40680, Note_on_c, 1, 67, 80
3, 40739, Note_on_c, 1, 67, 0
3, 40800, Note_on_c, 1, 70, 80
3, 40859, Note_on_c, 1, 70, 0
3, 40920, Note_on_c, 1, 82, 80
3, 40979, Note_on_c, 1, 82, 0
3, 41040, Note_on_c, 1, 79, 80
3, 41099, Note_on_c, 1, 79, 0
3, 41160, Note_on_c, 1, 73, 80
3, 41219, Note_on_c, 1, 73, 0
3, 41280, Note_on_c, 1, 63, 80
3, 41339, Note_on_c, 1, 63, 0
3, 41400, Note_on_c, 1, 51, 80
3, 41459, Note_on_c, 1, 51, 0
3, 41520, Note_on_c, 1, 61, 80
3, 41579, Note_on_c, 1, 61, 0
3, 41640, Note_on_c, 1, 67, 80
3, 41699, Note_on_c, 1, 67, 0
3, 41760, Note_on_c, 1, 70, 80
3, 41819, Note_on_c, 1, 70, 0
3, 41880, Note_on_c, 1, 82, 80
3, 41939, Note_on_c, 1, 82, 0
3, 42000, Note_on_c, 1, 79, 80
3, 42059, Note_on_c, 1, 79, 0
3, 42120, Note_on_c, 1, 73, 80
3, 42179, Note_on_c, 1, 73, 0
3, 42240, Note_on_c, 1, 63, 80
3, 42299, Note_on_c, 1, 63, 0
3, 42360, Note_on_c, 1, 56, 80
3, 42419, Note_on_c, 1, 56, 0
3, 42480, Note_on_c, 1, 61, 80
3, 42539, Note_on_c, 1, 61, 0
3, 42600, Note_on_c, 1, 64, 80
3, 42659, Note_on_c, 1, 64, 0
3, 42720, Note_on_c, 1, 68, 80
3, 42779, Note_on_c, 1, 68, 0
3, 42840, Note_on_c, 1, 80, 80
3, 42899, Note_on_c, 1, 80, 0
3, 42960, Note_on_c, 1, 76, 80
3, 43019, Note_on_c, 1, 76, 0
3, 43080, Note_on_c, 1, 73, 80
3, 43139, Note_on_c, 1, 73, 0
3, 43200, Note_on_c, 1, 68, 80
3, 43259, Note_on_c, 1, 68, 0
3, 43320, Note_on_c, 1, 56, 80
3, 43379, Note_on_c, 1, 56, 0
3, 43440, Note_on_c, 1, 61, 80
3, 43499, Note_on_c, 1, 61, 0
3, 43560, Note_on_c, 1, 64, 80
3, 43619, Note_on_c, 1, 64, 0
3, 43680, Note_on_c, 1, 68, 80
3, 43739, Note_on_c, 1, 68, 0
3, 43800, Note_on_c, 1, 80, 80
3, 43859, Note_on_c, 1, 80, 0
3, 43920, Note_on_c, 1, 76, 80
3, 43979, Note_on_c, 1, 76, 0
3, 44040, Note_on_c, 1, 73, 80
3, 44099, Note_on_c, 1, 73, 0
3, 44160, Note_on_c, 1, 68, 80
3, 44219, Note_on_c, 1, 68, 0
3, 44280, Note_on_c, 1, 56, 80
3, 44339, Note_on_c, 1, 56, 0
3, 44400, Note_on_c, 1, 63, 80
3, 44459, Note_on_c, 1, 63, 0
3, 44520, Note_on_c, 1, 66, 80
3, 44579, Note_on_c, 1, 66, 0
3, 44640, Note_on_c, 1, 72, 80
3, 44699, Note_on_c, 1, 72, 0
3, 44760, Note_on_c, 1, 84, 80
3, 44819, Note_on_c, 1, 84, 0
3, 44880, Note_on_c, 1, 78, 80
3, 44939, Note_on_c, 1, 78, 0
3, 45000, Note_on_c, 1, 75, 80
3, 45059, Note_on_c, 1, 75, 0
3, 45120, Note_on_c, 1, 68, 80
3, 45179, Note_on_c, 1, 68, 0
3, 45240, Note_on_c, 1, 56, 80
3, 45299, Note_on_c, 1, 56, 0
3, 45360, Note_on_c, 1, 63, 80
3, 45419, Note_on_c, 1, 63, 0
3, 45480, Note_on_c, 1, 66, 80
3, 45539, Note_on_c, 1, 66, 0
3, 45600, Note_on_c, 1, 72, 80
3, 45659, Note_on_c, 1, 72, 0
3, 45720, Note_on_c, 1, 84, 80
3, 45779, Note_on_c, 1, 84, 0
3, 45840, Note_on_c, 1, 78, 80
3, 45899, Note_on_c, 1, 78, 0
3, 45960, Note_on_c, 1, 75, 80
3, 46019, Note_on_c, 1, 75, 0
3, 46080, Note_on_c, 1, 68, 80
3, 46139, Note_on_c, 1, 68, 0
3, 46200, Note_on_c, 1, 61, 80
3, 46259, Note_on_c, 1, 61, 0
3, 46320, Note_on_c, 1, 64, 80
3, 46379, Note_on_c, 1, 64, 0
3, 46440, Note_on_c, 1, 68, 80
3, 46499, Note_on_c, 1, 68, 0
3, 46560, Note_on_c, 1, 73, 80
3, 46619, Note_on_c, 1, 73, 0
3, 46680, Note_on_c, 1, 85, 80
3, 46739, Note_on_c, 1, 85, 0
3, 46800, Note_on_c, 1, 80, 80
3, 46859, Note_on_c, 1, 80, 0
3, 46920, Note_on_c, 1, 76, 80
3, 46979, Note_on_c, 1, 76, 0
3, 47040, Note_on_c, 1, 73, 80
3, 47099, Note_on_c, 1, 73, 0
3, 47160, Note_on_c, 1, 61, 80
3, 47219, Note_on_c, 1, 61, 0
3, 47280, Note_on_c, 1, 64, 80
3, 47339, Note_on_c, 1, 64, 0
3, 47400, Note_on_c, 1, 68, 80
3, 47459, Note_on_c, 1, 68, 0
3, 47520, Note_on_c, 1, 73, 80
3, 47579, Note_on_c, 1, 73, 0
3, 47640, Note_on_c, 1, 85, 80
3, 47699, Note_on_c, 1, 85, 0
3, 47760, Note_on_c, 1, 80, 80
3, 47819, Note_on_c, 1, 80, 0
3, 47880, Note_on_c, 1, 76, 80
3, 47939, Note_on_c, 1, 76, 0
3, 48000, Note_on_c, 1, 73, 80
3, 48059, Note_on_c, 1, 73, 0
3, 48120, Note_on_c, 1, 56, 80
3, 48179, Note_on_c, 1, 56, 0
3, 48240, Note_on_c, 1, 63, 80
3, 48299, Note_on_c, 1, 63, 0
3, 48360, Note_on_c, 1, 68, 80
3, 48419, Note_on_c, 1, 68, 0
3, 48480, Note_on_c, 1, 71, 80
3, 48539, Note_on_c, 1, 71, 0
3, 48600, Note_on_c, 1, 83, 80
3, 48659, Note_on_c, 1, 83, 0
3, 48720, Note_on_c, 1, 80, 80
3, 48779, Note_on_c, 1, 80, 0
3, 48840, Note_on_c, 1, 75, 80
3, 48899, Note_on_c, 1, 75, 0
3, 48960, Note_on_c, 1, 68, 80
3, 49019, Note_on_c, 1, 68, 0
3, 49080, Note_on_c, 1, 56, 80
3, 49139, Note_on_c, 1, 56, 0
3, 49200, Note_on_c, 1, 63, 80
3, 49259, Note_on_c, 1, 63, 0
3, 49320, Note_on_c, 1, 68, 80
3, 49379, Note_on_c, 1, 68, 0
3, 49440, Note_on_c, 1, 71, 80
3, 49499, Note_on_c, 1, 71, 0
3, 49560, Note_on_c, 1, 83, 80
3, 49619, Note_on_c, 1, 83, 0
3, 49680, Note_on_c, 1, 80, 80
3, 49739, Note_on_c, 1, 80, 0
3, 49800, Note_on_c, 1, 75, 80
3, 49859, Note_on_c, 1, 75, 0
3, 49920, Note_on_c, 1, 68, 80
3, 49979, Note_on_c, 1, 68, 0
3, 50040, Note_on_c, 1, 57, 80
3, 50099, Note_on_c, 1, 57, 0
3, 50160, Note_on_c, 1, 61, 80
3, 50219, Note_on_c, 1, 61, 0
3, 50280, Note_on_c, 1, 64, 80
3, 50339, Note_on_c, 1, 64, 0
3, 50400, Note_on_c, 1, 69, 80
3, 50459, Note_on_c, 1, 69, 0
3, 50520, Note_on_c, 1, 81, 80
3, 50579, Note_on_c, 1, 81, 0
3, 50640, Note_on_c, 1, 76, 80
3, 50699, Note_on_c, 1, 76, 0
3, 50760, Note_on_c, 1, 73, 80
3, 50819, Note_on_c, 1, 73, 0
3, 50880, Note_on_c, 1, 69, 80
3, 50939, Note_on_c, 1, 69, 0
3, 51000, Note_on_c, 1, 57, 80
3, 51059, Note_on_c, 1, 57, 0
3, 51120, Note_on_c, 1, 61, 80
3, 51179, Note_on_c, 1, 61, 0
3, 51240, Note_on_c, 1, 64, 80
3, 51299, Note_on_c, 1, 64, 0
3, 51360, Note_on_c, 1, 69, 80
3, 51419, Note_on_c, 1, 69, 0
3, 51480, Note_on_c, 1, 81, 80
3, 51539, Note_on_c, 1, 81, 0
3, 51600, Note_on_c, 1, 76, 80
3, 51659, Note_on_c, 1, 76, 0
3, 51720, Note_on_c, 1, 73, 80
3, 51779, Note_on_c, 1, 73, 0
3, 51840, Note_on_c, 1, 69, 80
3, 51899, Note_on_c, 1, 69, 0
3, 51960, Note_on_c, 1, 52, 80
3, 52019, Note_on_c, 1, 52, 0
3, 52080, Note_on_c, 1, 59, 80
3, 52139, Note_on_c, 1, 59, 0
3, 52200, Note_on_c, 1, 64, 80
3, 52259, Note_on_c, 1, 64, 0
3, 52320, Note_on_c, 1, 68, 80
3, 52379, Note_on_c, 1, 68, 0
3, 52440, Note_on_c, 1, 80, 80
3, 52499, Note_on_c, 1, 80, 0
3, 52560, Note_on_c, 1, 76, 80
3, 52619, Note_on_c, 1, 76, 0
3, 52680, Note_on_c, 1, 71, 80
3, 52739, Note_on_c, 1, 71, 0
3, 52800, Note_on_c, 1, 64, 80
3, 52859, Note_on_c, 1, 64, 0
3, 52920, Note_on_c, 1, 52, 80
3, 52979, Note_on_c, 1, 52, 0
3, 53040, Note_on_c, 1, 59, 80
3, 53099, Note_on_c, 1, 59, 0
3, 53160, Note_on_c, 1, 64, 80
3, 53219, Note_on_c, 1, 64, 0
3, 53280, Note_on_c, 1, 68, 80
3, 53339, Note_on_c, 1, 68, 0
3, 53400, Note_on_c, 1, 80, 80
3, 53459, Note_on_c, 1, 80, 0
3, 53520, Note_on_c, 1, 76, 80
3, 53579, Note_on_c, 1, 76, 0
3, 53640, Note_on_c, 1, 71, 80
3, 53699, Note_on_c, 1, 71, 0
3, 53760, Note_on_c, 1, 64, 80
3, 53819, Note_on_c, 1, 64, 0
3, 53880, Note_on_c, 1, 52, 80
3, 53939, Note_on_c, 1, 52, 0
3, 54000, Note_on_c, 1, 58, 80
3, 54059, Note_on_c, 1, 58, 0
3, 54120, Note_on_c, 1, 62, 80
3, 54179, Note_on_c, 1, 62, 0
3, 54240, Note_on_c, 1, 68, 80
3, 54299, Note_on_c, 1, 68, 0
3, 54360, Note_on_c, 1, 80, 80
3, 54419, Note_on_c, 1, 80, 0
3, 54480, Note_on_c, 1, 74, 80
3, 54539, Note_on_c, 1, 74, 0
3, 54600, Note_on_c, 1, 70, 80
3, 54659, Note_on_c, 1, 70, 0
3, 54720, Note_on_c, 1, 64, 80
3, 54779, Note_on_c, 1, 64, 0
3, 54840, Note_on_c, 1, 52, 80
3, 54899, Note_on_c, 1, 52, 0
3, 54960, Note_on_c, 1, 58, 80
3, 55019, Note_on_c, 1, 58, 0
3, 55080, Note_on_c, 1, 62, 80
3, 55139, Note_on_c, 1, 62, 0
3, 55200, Note_on_c, 1, 68, 80
3, 55259, Note_on_c, 1, 68, 0
3, 55320, Note_on_c, 1, 80, 80
3, 55379, Note_on_c, 1, 80, 0
3, 55440, Note_on_c, 1, 74, 80
3, 55499, Note_on_c, 1, 74, 0
3, 55560, Note_on_c, 1, 70, 80
3, 55619, Note_on_c, 1, 70, 0
3, 55680, Note_on_c, 1, 64, 80
3, 55739, Note_on_c, 1, 64, 0
3, 55800, Note_on_c, 1, 51, 80
3, 55859, Note_on_c, 1, 51, 0
3, 55920, Note_on_c, 1, 61, 80
3, 55979, Note_on_c, 1, 61, 0
3, 56040, Note_on_c, 1, 67, 80
3, 56099, Note_on_c, 1, 67, 0
3, 56160, Note_on_c, 1, 70, 80
3, 56219, Note_on_c, 1, 70, 0
3, 56280, Note_on_c, 1, 82, 80
3, 56339, Note_on_c, 1, 82, 0
3, 56400, Note_on_c, 1, 79, 80
3, 56459, Note_on_c, 1, 79, 0
3, 56520, Note_on_c, 1, 73, 80
3, 56579, Note_on_c, 1, 73, 0
3, 56640, Note_on_c, 1, 63, 80
3, 56699, Note_on_c, 1, 63, 0
3, 56760, Note_on_c, 1, 51, 80
3, 56819, Note_on_c, 1, 51, 0
3, 56880, Note_on_c, 1, 61, 80
3, 56939, Note_on_c, 1, 61, 0
3, 57000, Note_on_c, 1, 67, 80
3, 57059, Note_on_c, 1, 67, 0
3, 57120, Note_on_c, 1, 70, 80
3, 57179, Note_on_c, 1, 70, 0
3, 57240, Note_on_c, 1, 82, 80
3, 57299, Note_on_c, 1, 82, 0
3, 57360, Note_on_c, 1, 79, 80
3, 57419, Note_on_c, 1, 79, 0
3, 57480, Note_on_c, 1, 73, 80
3, 57539, Note_on_c, 1, 73, 0
3, 57600, Note_on_c, 1, 63, 80
3, 57659, Note_on_c, 1, 63, 0
3, 57720, Note_on_c, 1, 56, 80
3, 57779, Note_on_c, 1, 56, 0
3, 57840, Note_on_c, 1, 61, 80
3, 57899, Note_on_c, 1, 61, 0
3, 57960, Note_on_c, 1, 64, 80
3, 58019, Note_on_c, 1, 64, 0
3, 58080, Note_on_c, 1, 68, 80
3, 58139, Note_on_c, 1, 68, 0
3, 58200, Note_on_c, 1, 80, 80
3, 58259, Note_on_c, 1, 80, 0
3, 58320, Note_on_c, 1, 76, 80
3, 58379, Note_on_c, 1, 76, 0
3, 58440, Note_on_c, 1, 73, 80
3, 58499, Note_on_c, 1, 73, 0
3, 58560, Note_on_c, 1, 68, 80
3, 58619, Note_on_c, 1, 68, 0
3, 58680, Note_on_c, 1, 56, 80
3, 58739, Note_on_c, 1, 56, 0
3, 58800, Note_on_c, 1, 61, 80
3, 58859, Note_on_c, 1, 61, 0
3, 58920, Note_on_c, 1, 64, 80
3, 58979, Note_on_c, 1, 64, 0
3, 59040, Note_on_c, 1, 68, 80
3, 59099, Note_on_c, 1, 68, 0
3, 59160, Note_on_c, 1, 80, 80
3, 59219, Note_on_c, 1, 80, 0
3, 59280, Note_on_c, 1, 76, 80
3, 59339, Note_on_c, 1, 76, 0
3, 59400, Note_on_c, 1, 73, 80
3, 59459, Note_on_c, 1, 73, 0
3, 59520, Note_on_c, 1, 68, 80
3, 59579, Note_on_c, 1, 68, 0
3, 59640, Note_on_c, 1, 56, 80
3, 59699, Note_on_c, 1, 56, 0
3, 59760, Note_on_c, 1, 63, 80
3, 59819, Note_on_c, 1, 63, 0
3, 59880, Note_on_c, 1, 66, 80
3, 59939, Note_on_c, 1, 66, 0
3, 60000, Note_on_c, 1, 72, 80
3, 60059, Note_on_c, 1, 72, 0
3, 60120, Note_on_c, 1, 84, 80
3, 60179, Note_on_c, 1, 84, 0
3, 60240, Note_on_c, 1, 78, 80
3, 60299, Note_on_c, 1, 78, 0
3, 60360, Note_on_c, 1, 75, 80
3, 60419, Note_on_c, 1, 75, 0
3, 60480, Note_on_c, 1, 68, 80
3, 60539, Note_on_c, 1, 68, 0
3, 60600, Note_on_c, 1, 56, 80
3, 60659, Note_on_c, 1, 56, 0
3, 60720, Note_on_c, 1, 63, 80
3, 60779, Note_on_c, 1, 63, 0
3, 60840, Note_on_c, 1, 66, 80
3, 60899, Note_on_c, 1, 66, 0
3, 60960, Note_on_c, 1, 72, 80
3, 61019, Note_on_c, 1, 72, 0
3, 61080, Note_on_c, 1, 84, 80
3, 61139, Note_on_c, 1, 84, 0
3, 61200, Note_on_c, 1, 78, 80
3, 61259, Note_on_c, 1, 78, 0
3, 61320, Note_on_c, 1, 75, 80
3, 61379, Note_on_c, 1, 75, 0
3, 61440, Note_on_c, 1, 68, 80
3, 61499, Note_on_c, 1, 68, 0
3, 61560, Note_on_c, 1, 61, 80
3, 61619, Note_on_c, 1, 61, 0
3, 61680, Note_on_c, 1, 64, 80
3, 61739, Note_on_c, 1, 64, 0
3, 61800, Note_on_c, 1, 68, 80
3, 61859, Note_on_c, 1, 68, 0
3, 61920, Note_on_c, 1, 73, 80
3, 61979, Note_on_c, 1, 73, 0
3, 62040, Note_on_c, 1, 85, 80
3, 62099, Note_on_c, 1, 85, 0
3, 62160, Note_on_c, 1, 80, 80
3, 62219, Note_on_c, 1, 80, 0
3, 62280, Note_on_c, 1, 76, 80
3, 62339, Note_on_c, 1, 76, 0
3, 62400, Note_on_c, 1, 73, 80
3, 62459, Note_on_c, 1, 73, 0
3, 62520, Note_on_c, 1, 61, 80
3, 62579, Note_on_c, 1, 61, 0
3, 62640, Note_on_c, 1, 64, 80
3, 62699, Note_on_c, 1, 64, 0
3, 62760, Note_on_c, 1, 68, 80
3, 62819, Note_on_c, 1, 68, 0
3, 62880, Note_on_c, 1, 73, 80
3, 62939, Note_on_c, 1, 73, 0
3, 63000, Note_on_c, 1, 85, 80
3, 63059, Note_on_c, 1, 85, 0
3, 63120, Note_on_c, 1, 80, 80
3, 63179, Note_on_c, 1, 80, 0
3, 63240, Note_on_c, 1, 76, 80
3, 63299, Note_on_c, 1, 76, 0
3, 63360, Note_on_c, 1, 73, 80
3, 63419, Note_on_c, 1, 73, 0
3, 63480, Note_on_c, 1, 56, 80
3, 63539, Note_on_c, 1, 56, 0
3, 63600, Note_on_c, 1, 63, 80
3, 63659, Note_on_c, 1, 63, 0
3, 63720, Note_on_c, 1, 68, 80
3, 63779, Note_on_c, 1, 68, 0
3, 63840, Note_on_c, 1, 71, 80
3, 63899, Note_on_c, 1, 71, 0
3, 63960, Note_on_c, 1, 83, 80
3, 64019, Note_on_c, 1, 83, 0
3, 64080, Note_on_c, 1, 80, 80
3, 64139, Note_on_c, 1, 80, 0
3, 64200, Note_on_c, 1, 75, 80
3, 64259, Note_on_c, 1, 75, 0
3, 64320, Note_on_c, 1, 68, 80
3, 64379, Note_on_c, 1, 68, 0
3, 64440, Note_on_c, 1, 56, 80
3, 64499, Note_on_c, 1, 56, 0
3, 64560, Note_on_c, 1, 63, 80
3, 64619, Note_on_c, 1, 63, 0
3, 64680, Note_on_c, 1, 68, 80
3, 64739, Note_on_c, 1, 68, 0
3, 64800, Note_on_c, 1, 71, 80
3, 64859, Note_on_c, 1, 71, 0
3, 64920, Note_on_c, 1, 83, 80
3, 64979, Note_on_c, 1, 83, 0
3, 65040, Note_on_c, 1, 80, 80
3, 65099, Note_on_c, 1, 80, 0
3, 65160, Note_on_c, 1, 75, 80
3, 65219, Note_on_c, 1, 75, 0
3, 65280, Note_on_c, 1, 68, 80
3, 65339, Note_on_c, 1, 68, 0
3, 65400, Note_on_c, 1, 57, 80
3, 65459, Note_on_c, 1, 57, 0
3, 65520, Note_on_c, 1, 61, 80
3, 65579, Note_on_c, 1, 61, 0
3, 65640, Note_on_c, 1, 64, 80
3, 65699, Note_on_c, 1, 64, 0
3, 65760, Note_on_c, 1, 69, 80
3, 65819, Note_on_c, 1, 69, 0
3, 65880, Note_on_c, 1, 81, 80
3, 65939, Note_on_c, 1, 81, 0
3, 66000, Note_on_c, 1, 76, 80
3, 66059, Note_on_c, 1, 76, 0
3, 66120, Note_on_c, 1, 73, 80
3, 66179, Note_on_c, 1, 73, 0
3, 66240, Note_on_c, 1, 69, 80
3, 66299, Note_on_c, 1, 69, 0
3, 66360, Note_on_c, 1, 57, 80
3, 66419, Note_on_c, 1, 57, 0
3, 66480, Note_on_c, 1, 61, 80
3, 66539, Note_on_c, 1, 61, 0
3, 66600, Note_on_c, 1, 64, 80
3, 66659, Note_on_c, 1, 64, 0
3, 66720, Note_on_c, 1, 69, 80
3, 66779, Note_on_c, 1, 69, 0
3, 66840, Note_on_c, 1, 81, 80
3, 66899, Note_on_c, 1, 81, 0
3, 66960, Note_on_c, 1, 76, 80
3, 67019, Note_on_c, 1, 76, 0
3, 67080, Note_on_c, 1, 73, 80
3, 67139, Note_on_c, 1, 73, 0
3, 67200, Note_on_c, 1, 69, 80
3, 67259, Note_on_c, 1, 69, 0
3, 67320, Note_on_c, 1, 52, 80
3, 67379, Note_on_c, 1, 52, 0
3, 67440, Note_on_c, 1, 59, 80
3, 67499, Note_on_c, 1, 59, 0
3, 67560, Note_on_c, 1, 64, 80
3, 67619, Note_on_c, 1, 64, 0
3, 67680, Note_on_c, 1, 68, 80
3, 67739, Note_on_c, 1, 68, 0
3, 67800, Note_on_c, 1, 80, 80
3, 67859, Note_on_c, 1, 80, 0
3, 67920, Note_on_c, 1, 76, 80
3, 67979, Note_on_c, 1, 76, 0
3, 68040, Note_on_c, 1, 71, 80
3, 68099, Note_on_c, 1, 71, 0
3, 68160, Note_on_c, 1, 64, 80
3, 68219, Note_on_c, 1, 64, 0
3, 68280, Note_on_c, 1, 52, 80
3, 68339, Note_on_c, 1, 52, 0
3, 68400, Note_on_c, 1, 59, 80
3, 68459, Note_on_c, 1, 59, 0
3, 68520, Note_on_c, 1, 64, 80
3, 68579, Note_on_c, 1, 64, 0
3, 68640, Note_on_c, 1, 68, 80
3, 68699, Note_on_c, 1, 68, 0
3, 68760, Note_on_c, 1, 80, 80
3, 68819, Note_on_c, 1, 80, 0
3, 68880, Note_on_c, 1, 76, 80
3, 68939, Note_on_c, 1, 76, 0
3, 69000, Note_on_c, 1, 71, 80
3, 69059, Note_on_c, 1, 71, 0
3, 69120, Note_on_c, 1, 64, 80
3, 69179, Note_on_c, 1, 64, 0
3, 69240, Note_on_c, 1, 52, 80
3, 69299, Note_on_c, 1, 52, 0
3, 69360, Note_on_c, 1, 58, 80
3, 69419, Note_on_c, 1, 58, 0
3, 69480, Note_on_c, 1, 62, 80
3, 69539, Note_on_c, 1, 62, 0
3, 69600, Note_on_c, 1, 68, 80
3, 69659, Note_on_c, 1, 68, 0
3, 69720, Note_on_c, 1, 80, 80
3, 69779, Note_on_c, 1, 80, 0
3, 69840, Note_on_c, 1, 74, 80
3, 69899, Note_on_c, 1, 74, 0
3, 69960, Note_on_c, 1, 70, 80
3, 70019, Note_on_c, 1, 70, 0
3, 70080, Note_on_c, 1, 64, 80
3, 70139, Note_on_c, 1, 64, 0
3, 70200, Note_on_c, 1, 52, 80
3, 70259, Note_on_c, 1, 52, 0
3, 70320, Note_on_c, 1, 58, 80
3, 70379, Note_on_c, 1, 58, 0
3, 70440, Note_on_c, 1, 62, 80
3, 70499, Note_on_c, 1, 62, 0
3, 70560, Note_on_c, 1, 68, 80
3, 70619, Note_on_c, 1, 68, 0
3, 70680, Note_on_c, 1, 80, 80
3, 70739, Note_on_c, 1, 80, 0
3, 70800, Note_on_c, 1, 74, 80
3, 70859, Note_on_c, 1, 74, 0
3, 70920, Note_on_c, 1, 70, 80
3, 70979, Note_on_c, 1, 70, 0
3, 71040, Note_on_c, 1, 64, 80
3, 71099, Note_on_c, 1, 64, 0
3, 71160, Note_on_c, 1, 51, 80
3, 71219, Note_on_c, 1, 51, 0
3, 71280, Note_on_c, 1, 61, 80
3, 71339, Note_on_c, 1, 61, 0
3, 71400, Note_on_c, 1, 67, 80
3, 71459, Note_on_c, 1, 67, 0
3, 71520, Note_on_c, 1, 70, 80
3, 71579, Note_on_c, 1, 70, 0
3, 71640, Note_on_c, 1, 82, 80
3, 71699, Note_on_c, 1, 82, 0
3, 71760, Note_on_c, 1, 79, 80
3, 71819, Note_on_c, 1, 79, 0
3, 71880, Note_on_c, 1, 73, 80
3, 71939, Note_on_c, 1, 73, 0
3, 72000, Note_on_c, 1, 63, 80
3, 72059, Note_on_c, 1, 63, 0
3, 72120, Note_on_c, 1, 51, 80
3, 72179, Note_on_c, 1, 51, 0
3, 72240, Note_on_c, 1, 61, 80
3, 72299, Note_on_c, 1, 61, 0
3, 72360, Note_on_c, 1, 67, 80
3, 72419, Note_on_c, 1, 67, 0
3, 72480, Note_on_c, 1, 70, 80
3, 72539, Note_on_c, 1, 70, 0
3, 72600, Note_on_c, 1, 82, 80
3, 72659, Note_on_c, 1, 82, 0
3, 72720, Note_on_c, 1, 79, 80
3, 72779, Note_on_c, 1, 79, 0
3, 72840, Note_on_c, 1, 73, 80
3, 72899, Note_on_c, 1, 73, 0
3, 72960, Note_on_c, 1, 63, 80
3, 73019, Note_on_c, 1, 63, 0
3, 73080, Note_on_c, 1, 56, 80
3, 73139, Note_on_c, 1, 56, 0
3, 73200, Note_on_c, 1, 61, 80
3, 73259, Note_on_c, 1, 61, 0
3, 73320, Note_on_c, 1, 64, 80
3, 73379, Note_on_c, 1, 64, 0
3, 73440, Note_on_c, 1, 68, 80
3, 73499, Note_on_c, 1, 68, 0
3, 73560, Note_on_c, 1, 80, 80
3, 73619, Note_on_c, 1, 80, 0
3, 73680, Note_on_c, 1, 76, 80
3, 73739, Note_on_c, 1, 76, 0
3, 73800, Note_on_c, 1, 73, 80
3, 73859, Note_on_c, 1, 73, 0
3, 73920, Note_on_c, 1, 68, 80
3, 73979, Note_on_c, 1, 68, 0
3, 74040, Note_on_c, 1, 56, 80
3, 74099, Note_on_c, 1, 56, 0
3, 74160, Note_on_c, 1, 61, 80
3, 74219, Note_on_c, 1, 61, 0
3, 74280, Note_on_c, 1, 64, 80
3, 74339, Note_on_c, 1, 64, 0
3, 74400, Note_on_c, 1, 68, 80
3, 74459, Note_on_c, 1, 68, 0
3, 74520, Note_on_c, 1, 80, 80
3, 74579, Note_on_c, 1, 80, 0
3, 74640, Note_on_c, 1, 76, 80
3, 74699, Note_on_c, 1, 76, 0
3, 74760, Note_on_c, 1, 73, 80
3, 74819, Note_on_c, 1, 73, 0
3, 74880, Note_on_c, 1, 68, 80
3, 74939, Note_on_c, 1, 68, 0
3, 75000, Note_on_c, 1, 56, 80
3, 75059, Note_on_c, 1, 56, 0
3, 75120, Note_on_c, 1, 63, 80
3, 75179, Note_on_c, 1, 63, 0
3, 75240, Note_on_c, 1, 66, 80
3, 75299, Note_on_c, 1, 66, 0
3, 75360, Note_on_c, 1, 72, 80
3, 75419, Note_on_c, 1, 72, 0
3, 75480, Note_on_c, 1, 84, 80
3, 75539, Note_on_c, 1, 84, 0
3, 75600, Note_on_c, 1, 78, 80
3, 75659, Note_on_c, 1, 78, 0
3, 75720, Note_on_c, 1, 75, 80
3, 75779, Note_on_c, 1, 75, 0
3, 75840, Note_on_c, 1, 68, 80
3, 75899, Note_on_c, 1, 68, 0
3, 75960, Note_on_c, 1, 56, 80
3, 76019, Note_on_c, 1, 56, 0
3, 76080, Note_on_c, 1, 63, 80
3, 76139, Note_on_c, 1, 63, 0
3, 76200, Note_on_c, 1, 66, 80
3, 76259, Note_on_c, 1, 66, 0
3, 76320, Note_on_c, 1, 72, 80
3, 76379, Note_on_c, 1, 72, 0
3, 76440, Note_on_c, 1, 84, 80
3, 76499, Note_on_c, 1, 84, 0
3, 76560, Note_on_c, 1, 78, 80
3, 76619, Note_on_c, 1, 78, 0
3, 76680, Note_on_c, 1, 75, 80
3, 76739, Note_on_c, 1, 75, 0
3, 76800, Note_on_c, 1, 68, 80
3, 76859, Note_on_c, 1, 68, 0
3, 76920, Note_on_c, 1, 61, 80
3, 76979, Note_on_c, 1, 61, 0
3, 77040, Note_on_c, 1, 64, 80
3, 77099, Note_on_c, 1, 64, 0
3, 77160, Note_on_c, 1, 68, 80
3, 77219, Note_on_c, 1, 68, 0
3, 77280, Note_on_c, 1, 73, 80
3, 77339, Note_on_c, 1, 73, 0
3, 77400, Note_on_c, 1, 85, 80
3, 77459, Note_on_c, 1, 85, 0
3, 77520, Note_on_c, 1, 80, 80
3, 77579, Note_on_c, 1, 80, 0
3, 77640, Note_on_c, 1, 76, 80
3, 77699, Note_on_c, 1, 76, 0
3, 77760, Note_on_c, 1, 73, 80
3, 77819, Note_on_c, 1, 73, 0
3, 77880, Note_on_c, 1, 61, 80
3, 77939, Note_on_c, 1, 61, 0
3, 78000, Note_on_c, 1, 64, 80
3, 78059, Note_on_c, 1, 64, 0
3, 78120, Note_on_c, 1, 68, 80
3, 78179, Note_on_c, 1, 68, 0
3, 78240, Note_on_c, 1, 73, 80
3, 78299, Note_on_c, 1, 73, 0
3, 78360, Note_on_c, 1, 85, 80
3, 78419, Note_on_c, 1, 85, 0
3, 78480, Note_on_c, 1, 80, 80
3, 78539, Note_on_c, 1, 80, 0
3, 78600, Note_on_c, 1, 76, 80
3, 78659, Note_on_c, 1, 76, 0
3, 78720, Note_on_c, 1, 73, 80
3, 78779, Note_on_c, 1, 73, 0
3, 78840, Note_on_c, 1, 56, 80
3, 78899, Note_on_c, 1, 56, 0
3, 78960, Note_on_c, 1, 63, 80
3, 79019, Note_on_c, 1, 63, 0
3, 79080, Note_on_c, 1, 68, 80
3, 79139, Note_on_c, 1, 68, 0
3, 79200, Note_on_c, 1, 71, 80
3, 79259, Note_on_c, 1, 71, 0
3, 79320, Note_on_c, 1, 83, 80
3, 79379, Note_on_c, 1, 83, 0
3, 79440, Note_on_c, 1, 80, 80
3, 79499, Note_on_c, 1, 80, 0
3, 79560, Note_on_c, 1, 75, 80
3, 79619, Note_on_c, 1, 75, 0
3, 79680, Note_on_c, 1, 68, 80
3, 79739, Note_on_c, 1, 68, 0
3, 79800, Note_on_c, 1, 56, 80
3, 79859, Note_on_c, 1, 56, 0
3, 79920, Note_on_c, 1, 63, 80
3, 79979, Note_on_c, 1, 63, 0
3, 80040, Note_on_c, 1, 68, 80
3, 80099, Note_on_c, 1, 68, 0
3, 80160, Note_on_c, 1, 71, 80
3, 80219, Note_on_c, 1, 71, 0
3, 80280, Note_on_c, 1, 83, 80
3, 80339, Note_on_c, 1, 83, 0
3, 80400, Note_on_c, 1, 80, 80
3, 80459, Note_on_c, 1, 80, 0
3, 80520, Note_on_c, 1, 75, 80
3, 80579, Note_on_c, 1, 75, 0
3, 80640, Note_on_c, 1, 68, 80
3, 80699, Note_on_c, 1, 68, 0
3, 80760, Note_on_c, 1, 57, 80
3, 80819, Note_on_c, 1, 57, 0
3, 80880, Note_on_c, 1, 61, 80
3, 80939, Note_on_c, 1, 61, 0
3, 81000, Note_on_c, 1, 64, 80
3, 81059, Note_on_c, 1, 64, 0
3, 81120, Note_on_c, 1, 69, 80
3, 81179, Note_on_c, 1, 69, 0
3, 81240, Note_on_c, 1, 81, 80
3, 81299, Note_on_c, 1, 81, 0
3, 81360, Note_on_c, 1, 76, 80
3, 81419, Note_on_c, 1, 76, 0
3, 81480, Note_on_c, 1, 73, 80
3, 81539, Note_on_c, 1, 73, 0
3, 81600, Note_on_c, 1, 69, 80
3, 81659, Note_on_c, 1, 69, 0
3, 81720, Note_on_c, 1, 57, 80
3, 81779, Note_on_c, 1, 57, 0
3, 81840, Note_on_c, 1, 61, 80
3, 81899, Note_on_c, 1, 61, 0
3, 81960, Note_on_c, 1, 64, 80
3, 82019, Note_on_c, 1, 64, 0
3, 82080, Note_on_c, 1, 69, 80
3, 82139, Note_on_c, 1, 69, 0
3, 82200, Note_on_c, 1, 81, 80
3, 82259, Note_on_c, 1, 81, 0
3, 82320, Note_on_c, 1, 76, 80
3, 82379, Note_on_c, 1, 76, 0
3, 82440, Note_on_c, 1, 73, 80
3, 82499, Note_on_c, 1, 73, 0
3, 82560, Note_on_c, 1, 69, 80
3, 82619, Note_on_c, 1, 69, 0
3, 82680, Note_on_c, 1, 52, 80
3, 82739, Note_on_c, 1, 52, 0
3, 82800, Note_on_c, 1, 59, 80
3, 82859, Note_on_c, 1, 59, 0
3, 82920, Note_on_c, 1, 64, 80
3, 82979, Note_on_c, 1, 64, 0
3, 83040, Note_on_c, 1, 68, 80
3, 83099, Note_on_c, 1, 68, 0
3, 83160, Note_on_c, 1, 80, 80
3, 83219, Note_on_c, 1, 80, 0
3, 83280, Note_on_c, 1, 76, 80
3, 83339, Note_on_c, 1, 76, 0
3, 83400, Note_on_c, 1, 71, 80
3, 83459, Note_on_c, 1, 71, 0
3, 83520, Note_on_c, 1, 64, 80
3, 83579, Note_on_c, 1, 64, 0
3, 83640, Note_on_c, 1, 52, 80
3, 83699, Note_on_c, 1, 52, 0
3, 83760, Note_on_c, 1, 59, 80
3, 83819, Note_on_c, 1, 59, 0
3, 83880, Note_on_c, 1, 64, 80
3, 83939, Note_on_c, 1, 64, 0
3, 84000, Note_on_c, 1, 68, 80
3, 84059, Note_on_c, 1, 68, 0
3, 84120, Note_on_c, 1, 80, 80
3, 84179, Note_on_c, 1, 80, 0
3, 84240, Note_on_c, 1, 76, 80
3, 84299, Note_on_c, 1, 76, 0
3, 84360, Note_on_c, 1, 71, 80
3, 84419, Note_on_c, 1, 71, 0
3, 84480, Note_on_c, 1, 64, 80
3, 84539, Note_on_c, 1, 64, 0
3, 84600, Note_on_c, 1, 52, 80
3, 84659, Note_on_c, 1, 52, 0
3, 84720, Note_on_c, 1, 58, 80
3, 84779, Note_on_c, 1, 58, 0
3, 84840, Note_on_c, 1, 62, 80
3, 84899, Note_on_c, 1, 62, 0
3, 84960, Note_on_c, 1, 68, 80
3, 85019, Note_on_c, 1, 68, 0
3, 85080, Note_on_c, 1, 80, 80
3, 85139, Note_on_c, 1, 80, 0
3, 85200, Note_on_c, 1, 74, 80
3, 85259, Note_on_c, 1, 74, 0
3, 85320, Note_on_c, 1, 70, 80
3, 85379, Note_on_c, 1, 70, 0
3, 85440, Note_on_c, 1, 64, 80
3, 85499, Note_on_c, 1, 64, 0
3, 85560, Note_on_c, 1, 52, 80
3, 85619, Note_on_c, 1, 52, 0
3, 85680, Note_on_c, 1, 58, 80
3, 85739, Note_on_c, 1, 58, 0
3, 85800, Note_on_c, 1, 62, 80
3, 85859, Note_on_c, 1, 62, 0
3, 85920, Note_on_c, 1, 68, 80
3, 85979, Note_on_c, 1, 68, 0
3, 86040, Note_on_c, 1, 80, 80
3, 86099, Note_on_c, 1, 80, 0
3, 86160, Note_on_c, 1, 74, 80
3, 86219, Note_on_c, 1, 74, 0
3, 86280, Note_on_c, 1, 70, 80
3, 86339, Note_on_c, 1, 70, 0
3, 86400, Note_on_c, 1, 64, 80
3, 86459, Note_on_c, 1, 64, 0
3, 86520, Note_on_c, 1, 51, 80
3, 86579, Note_on_c, 1, 51, 0
3, 86640, Note_on_c, 1, 61, 80
3, 86699, Note_on_c, 1, 61, 0
3, 86760, Note_on_c, 1, 67, 80
3, 86819, Note_on_c, 1, 67, 0
3, 86880, Note_on_c, 1, 70, 80
3, 86939, Note_on_c, 1, 70, 0
3, 87000, Note_on_c, 1, 82, 80
3, 87059, Note_on_c, 1, 82, 0
3, 87120, Note_on_c, 1, 79, 80
3, 87179, Note_on_c, 1, 79, 0
3, 87240, Note_on_c, 1, 73, 80
3, 87299, Note_on_c, 1, 73, 0
3, 87360, Note_on_c, 1, 63, 80
3, 87419, Note_on_c, 1, 63, 0
3, 87480, Note_on_c, 1, 51, 80
3, 87539, Note_on_c, 1, 51, 0
3, 87600, Note_on_c, 1, 61, 80
3, 87659, Note_on_c, 1, 61, 0
3, 87720, Note_on_c, 1, 67, 80
3, 87779, Note_on_c, 1, 67, 0
3, 87840, Note_on_c, 1, 70, 80
3, 87899, Note_on_c, 1, 70, 0
3, 87960, Note_on_c, 1, 82, 80
3, 88019, Note_on_c, 1, 82, 0
3, 88080, Note_on_c, 1, 79, 80
3, 88139, Note_on_c, 1, 79, 0
3, 88200, Note_on_c, 1, 73, 80
3, 88259, Note_on_c, 1, 73, 0
3, 88320, Note_on_c, 1, 63, 80
3, 88379, Note_on_c, 1, 63, 0
3, 88440, Note_on_c, 1, 56, 80
3, 88499, Note_on_c, 1, 56, 0
3, 88560, Note_on_c, 1, 61, 80
3, 88619, Note_on_c, 1, 61, 0
3, 88680, Note_on_c, 1, 64, 80
3, 88739, Note_on_c, 1, 64, 0
3, 88800, Note_on_c, 1, 68, 80
3, 88859, Note_on_c, 1, 68, 0
3, 88920, Note_on_c, 1, 80, 80
3, 88979, Note_on_c, 1, 80, 0
3, 89040, Note_on_c, 1, 76, 80
3, 89099, Note_on_c, 1, 76, 0
3, 89160, Note_on_c, 1, 73, 80
3, 89219, Note_on_c, 1, 73, 0
3, 89280, Note_on_c, 1, 68, 80
3, 89339, Note_on_c, 1, 68, 0
3, 89400, Note_on_c, 1, 56, 80
3, 89459, Note_on_c, 1, 56, 0
3, 89520, Note_on_c, 1, 61, 80
3, 89579, Note_on_c, 1, 61, 0
3, 89640, Note_on_c, 1, 64, 80
3, 89699, Note_on_c, 1, 64, 0
3, 89760, Note_on_c, 1, 68, 80
3, 89819, Note_on_c, 1, 68, 0
3, 89880, Note_on_c, 1, 80, 80
3, 89939, Note_on_c, 1, 80, 0
3, 90000, Note_on_c, 1, 76, 80
3, 90059, Note_on_c, 1, 76, 0
3, 90120, Note_on_c, 1, 73, 80
3, 90179, Note_on_c, 1, 73, 0
3, 90240, Note_on_c, 1, 68, 80
3, 90299, Note_on_c, 1, 68, 0
3, 90360, Note_on_c, 1, 56, 80
3, 90419, Note_on_c, 1, 56, 0
3, 90480, Note_on_c, 1, 63, 80
3, 90539, Note_on_c, 1, 63, 0
3, 90600, Note_on_c, 1, 66, 80
3, 90659, Note_on_c, 1, 66, 0
3, 90720, Note_on_c, 1, 72, 80
3, 90779, Note_on_c, 1, 72, 0
3, 90840, Note_on_c, 1, 84, 80
3, 90899, Note_on_c, 1, 84, 0
3, 90960, Note_on_c, 1, 78, 80
3, 91019, Note_on_c, 1, 78, 0
3, 91080, Note_on_c, 1, 75, 80
3, 91139, Note_on_c, 1, 75, 0
3, 91200, Note_on_c, 1, 68, 80
3, 91259, Note_on_c, 1, 68, 0
3, 91320, Note_on_c, 1, 56, 80
3, 91379, Note_on_c, 1, 56, 0
3, 91440, Note_on_c, 1, 63, 80
3, 91499, Note_on_c, 1, 63, 0
3, 91560, Note_on_c, 1, 66, 80
3, 91619, Note_on_c, 1, 66, 0
3, 91680, Note_on_c, 1, 72, 80
3, 91739, Note_on_c, 1, 72, 0
3, 91800, Note_on_c, 1, 84, 80
3, 91859, Note_on_c, 1, 84, 0
3, 91920, Note_on_c, 1, 78, 80
3, 91979, Note_on_c, 1, 78, 0
3, 92040, Note_on_c, 1, 75, 80
3, 92099, Note_on_c, 1, 75, 0
3, 92160, Note_on_c, 1, 68, 80
3, 92219, Note_on_c, 1, 68, 0
3, 92280, Note_on_c, 1, 61, 80
3, 92339, Note_on_c, 1, 61, 0
3, 92400, Note_on_c, 1, 64, 80
3, 92459, Note_on_c, 1, 64, 0
3, 92520, Note_on_c, 1, 68, 80
3, 92579, Note_on_c, 1, 68, 0
3, 92640, Note_on_c, 1, 73, 80
3, 92699, Note_on_c, 1, 73, 0
3, 92760, Note_on_c, 1, 85, 80
3, 92819, Note_on_c, 1, 85, 0
3, 92880, Note_on_c, 1, 80, 80
3, 92939, Note_on_c, 1, 80, 0
3, 93000, Note_on_c, 1, 76, 80
3, 93059, Note_on_c, 1, 76, 0
3, 93120, Note_on_c, 1, 73, 80
3, 93179, Note_on_c, 1, 73, 0
3, 93240, Note_on_c, 1, 61, 80
3, 93299, Note_on_c, 1, 61, 0
3, 93360, Note_on_c, 1, 64, 80
3, 93419, Note_on_c, 1, 64, 0
3, 93480, Note_on_c, 1, 68, 80
3, 93539, Note_on_c, 1, 68, 0
3, 93600, Note_on_c, 1, 73, 80
3, 93659, Note_on_c, 1, 73, 0
3, 93720, Note_on_c, 1, 85, 80
3, 93779, Note_on_c, 1, 85, 0
3, 93840, Note_on_c, 1, 80, 80
3, 93899, Note_on_c, 1, 80, 0
3, 93960, Note_on_c, 1, 76, 80
3, 94019, Note_on_c, 1, 76, 0
3, 94080, Note_on_c, 1, 73, 80
3, 94139, Note_on_c, 1, 73, 0
3, 94200, Note_on_c, 1, 56, 80
3, 94259, Note_on_c, 1, 56, 0
3, 94320, Note_on_c, 1, 63, 80
3, 94379, Note_on_c, 1, 63, 0
3, 94440, Note_on_c, 1, 68, 80
3, 94499, Note_on_c, 1, 68, 0
3, 94560, Note_on_c, 1, 71, 80
3, 94619, Note_on_c, 1, 71, 0
3, 94680, Note_on_c, 1, 83, 80
3, 94739, Note_on_c, 1, 83, 0
3, 94800, Note_on_c, 1, 80, 80
3, 94859, Note_on_c, 1, 80, 0
3, 94920, Note_on_c, 1, 75, 80
3, 94979, Note_on_c, 1, 75, 0
3, 95040, Note_on_c, 1, 68, 80
3, 95099, Note_on_c, 1, 68, 0
3, 95160, Note_on_c, 1, 56, 80
3, 95219, Note_on_c, 1, 56, 0
3, 95280, Note_on_c, 1, 63, 80
3, 95339, Note_on_c, 1, 63, 0
3, 95400, Note_on_c, 1, 68, 80
3, 95459, Note_on_c, 1, 68, 0
3, 95520, Note_on_c, 1, 71, 80
3, 95579, Note_on_c, 1, 71, 0
3, 95640, Note_on_c, 1, 83, 80
3, 95699, Note_on_c, 1, 83, 0
3, 95760, Note_on_c, 1, 80, 80
3, 95819, Note_on_c, 1, 80, 0
3, 95880, Note_on_c, 1, 75, 80
3, 95939, Note_on_c, 1, 75, 0
3, 96000, Note_on_c, 1, 68, 80
3, 96059, Note_on_c, 1, 68, 0
3, 96120, Note_on_c, 1, 57, 80
3, 96179, Note_on_c, 1, 57, 0
3, 96240, Note_on_c, 1, 61, 80
3, 96299, Note_on_c, 1, 61, 0
3, 96360, Note_on_c, 1, 64, 80
3, 96419, Note_on_c, 1, 64, 0
3, 96480, Note_on_c, 1, 69, 80
3, 96539, Note_on_c, 1, 69, 0
3, 96600, Note_on_c, 1, 81, 80
3, 96659, Note_on_c, 1, 81, 0
3, 96720, Note_on_c, 1, 76, 80
3, 96779, Note_on_c, 1, 76, 0
3, 96840, Note_on_c, 1, 73, 80
3, 96899, Note_on_c, 1, 73, 0
3, 96960, Note_on_c, 1, 69, 80
3, 97019, Note_on_c, 1, 69, 0
3, 97080, Note_on_c, 1, 57, 80
3, 97139, Note_on_c, 1, 57, 0
3, 97200, Note_on_c, 1, 61, 80
3, 97259, Note_on_c, 1, 61, 0
3, 97320, Note_on_c, 1, 64, 80
3, 97379, Note_on_c, 1, 64, 0
3, 97440, Note_on_c, 1, 69, 80
3, 97499, Note_on_c, 1, 69, 0
3, 97560, Note_on_c, 1, 81, 80
3, 97619, Note_on_c, 1, 81, 0
3, 97680, Note_on_c, 1, 76, 80
3, 97739, Note_on_c, 1, 76, 0
3, 97800, Note_on_c, 1, 73, 80
3, 97859, Note_on_c, 1, 73, 0
3, 97920, Note_on_c, 1, 69, 80
3, 97979, Note_on_c, 1, 69, 0
3, 98040, Note_on_c, 1, 52, 80
3, 98099, Note_on_c, 1, 52, 0
3, 98160, Note_on_c, 1, 59, 80
3, 98219, Note_on_c, 1, 59, 0
3, 98280, Note_on_c, 1, 64, 80
3, 98339, Note_on_c, 1, 64, 0
3, 98400, Note_on_c, 1, 68, 80
3, 98459, Note_on_c, 1, 68, 0
3, 98520, Note_on_c, 1, 80, 80
3, 98579, Note_on_c, 1, 80, 0
3, 98640, Note_on_c, 1, 76, 80
3, 98699, Note_on_c, 1, 76, 0
3, 98760, Note_on_c, 1, 71, 80
3, 98819, Note_on_c, 1, 71, 0
3, 98880, Note_on_c, 1, 64, 80
3, 98939, Note_on_c, 1, 64, 0
3, 99000, Note_on_c, 1, 52, 80
3, 99059, Note_on_c, 1, 52, 0
3, 99120, Note_on_c, 1, 59, 80
3, 99179, Note_on_c, 1, 59, 0
3, 99240, Note_on_c, 1, 64, 80
3, 99299, Note_on_c, 1, 64, 0
3, 99360, Note_on_c, 1, 68, 80
3, 99419, Note_on_c, 1, 68, 0
3, 99480, Note_on_c, 1, 80, 80
3, 99539, Note_on_c, 1, 80, 0
3, 99600, Note_on_c, 1, 76, 80
3, 99659, Note_on_c, 1, 76, 0
3, 99720, Note_on_c, 1, 71, 80
3, 99779, Note_on_c, 1, 71, 0
3, 99840, Note_on_c, 1, 64, 80
3, 99899, Note_on_c, 1, 64, 0
3, 99960, Note_on_c, 1, 52, 80
3, 100019, Note_on_c, 1, 52, 0
3, 100080, Note_on_c, 1, 58, 80
3, 100139, Note_on_c, 1, 58, 0
3, 100200, Note_on_c, 1, 62, 80
3, 100259, Note_on_c, 1, 62, 0
3, 100320, Note_on_c, 1, 68, 80
3, 100379, Note_on_c, 1, 68, 0
3, 100440, Note_on_c, 1, 80, 80
3, 100499, Note_on_c, 1, 80, 0
3, 100560, Note_on_c, 1, 74, 80
3, 100619, Note_on_c, 1, 74, 0
3, 100680, Note_on_c, 1, 70, 80
3, 100739, Note_on_c, 1, 70, 0
3, 100800, Note_on_c, 1, 64, 80
3, 100859, Note_on_c, 1, 64, 0
3, 100920, Note_on_c, 1, 52, 80
3, 100979, Note_on_c, 1, 52, 0
3, 101040, Note_on_c, 1, 58, 80
3, 101099, Note_on_c, 1, 58, 0
3, 101160, Note_on_c, 1, 62, 80
3, 101219, Note_on_c, 1, 62, 0
3, 101280, Note_on_c, 1, 68, 80
3, 101339, Note_on_c, 1, 68, 0
3, 101400, Note_on_c, 1, 80, 80
3, 101459, Note_on_c, 1, 80, 0
3, 101520, Note_on_c, 1, 74, 80
3, 101579, Note_on_c, 1, 74, 0
3, 101640, Note_on_c, 1, 70, 80
3, 101699, Note_on_c, 1, 70, 0
3, 101760, Note_on_c, 1, 64, 80
3, 101819, Note_on_c, 1, 64, 0
3, 101880, Note_on_c, 1, 51, 80
3, 101939, Note_on_c, 1, 51, 0
3, 102000, Note_on_c, 1, 61, 80
3, 102059, Note_on_c, 1, 61, 0
3, 102120, Note_on_c, 1, 67, 80
3, 102179, Note_on_c, 1, 67, 0
3, 102240, Note_on_c, 1, 70, 80
3, 102299, Note_on_c, 1, 70, 0
3, 102360, Note_on_c, 1, 82, 80
3, 102419, Note_on_c, 1, 82, 0
3, 102480, Note_on_c, 1, 79, 80
3, 102539, Note_on_c, 1, 79, 0
3, 102600, Note_on_c, 1, 73, 80
3, 102659, Note_on_c, 1, 73, 0
3, 102720, Note_on_c, 1, 63, 80
3, 102779, Note_on_c, 1, 63, 0
3, 102840, Note_on_c, 1, 51, 80
3, 102899, Note_on_c, 1, 51, 0
3, 102960, Note_on_c, 1, 61, 80
3, 103019, Note_on_c, 1, 61, 0
3, 103080, Note_on_c, 1, 67, 80
3, 103139, Note_on_c, 1, 67, 0
3, 103200, Note_on_c, 1, 70, 80
3, 103259, Note_on_c, 1, 70, 0
3, 103320, Note_on_c, 1, 82, 80
3, 103379, Note_on_c, 1, 82, 0
3, 103440, Note_on_c, 1, 79, 80
3, 103499, Note_on_c, 1, 79, 0
3, 103560, Note_on_c, 1, 73, 80
3, 103619, Note_on_c, 1, 73, 0
3, 103680, Note_on_c, 1, 63, 80
3, 103739, Note_on_c, 1, 63, 0
3, 103800, Note_on_c, 1, 56, 80
3, 103859, Note_on_c, 1, 56, 0
3, 103920, Note_on_c, 1, 61, 80
3, 103979, Note_on_c, 1, 61, 0
3, 104040, Note_on_c, 1, 64, 80
3, 104099, Note_on_c, 1, 64, 0
3, 104160, Note_on_c, 1, 68, 80
3, 104219, Note_on_c, 1, 68, 0
3, 104280, Note_on_c, 1, 80, 80
3, 104339, Note_on_c, 1, 80, 0
3, 104400, Note_on_c, 1, 76, 80
3, 104459, Note_on_c, 1, 76, 0
3, 104520, Note_on_c, 1, 73, 80
3, 104579, Note_on_c, 1, 73, 0
3, 104640, Note_on_c, 1, 68, 80
3, 104699, Note_on_c, 1, 68, 0
3, 104760, Note_on_c, 1, 56, 80
3, 104819, Note_on_c, 1, 56, 0
3, 104880, Note_on_c, 1, 61, 80
3, 104939, Note_on_c, 1, 61, 0
3, 105000, Note_on_c, 1, 64, 80
3, 105059, Note_on_c, 1, 64, 0
3, 105120, Note_on_c, 1, 68, 80
3, 105179, Note_on_c, 1, 68, 0
3, 105240, Note_on_c, 1, 80, 80
3, 105299, Note_on_c, 1, 80, 0
3, 105360, Note_on_c, 1, 76, 80
3, 105419, Note_on_c, 1, 76, 0
3, 105480, Note_on_c, 1, 73, 80
3, 105539, Note_on_c, 1, 73, 0
3, 105600, Note_on_c, 1, 68, 80
3, 105659, Note_on_c, 1, 68, 0
3, 105720, Note_on_c, 1, 56, 80
3, 105779, Note_on_c, 1, 56, 0
3, 105840, Note_on_c, 1, 63, 80
3, 105899, Note_on_c, 1, 63, 0
3, 105960, Note_on_c, 1, 66, 80
3, 106019, Note_on_c, 1, 66, 0
3, 106080, Note_on_c, 1, 72, 80
3, 106139, Note_on_c, 1, 72, 0
3, 106200, Note_on_c, 1, 84, 80
3, 106259, Note_on_c, 1, 84, 0
3, 106320, Note_on_c, 1, 78, 80
3, 106379, Note_on_c, 1, 78, 0
3, 106440, Note_on_c, 1, 75, 80
3, 106499, Note_on_c, 1, 75, 0
3, 106560, Note_on_c, 1, 68, 80
3, 106619, Note_on_c, 1, 68, 0
3, 106680, Note_on_c, 1, 56, 80
3, 106739, Note_on_c, 1, 56, 0
3, 106800, Note_on_c, 1, 63, 80
3, 106859, Note_on_c, 1, 63, 0
3, 106920, Note_on_c, 1, 66, 80
3, 106979, Note_on_c, 1, 66, 0
3, 107040, Note_on_c, 1, 72, 80
3, 107099, Note_on_c, 1, 72, 0
3, 107160, Note_on_c, 1, 84, 80
3, 107219, Note_on_c, 1, 84, 0
3, 107280, Note_on_c, 1, 78, 80
3, 107339, Note_on_c, 1, 78, 0
3, 107400, Note_on_c, 1, 75, 80
3, 107459, Note_on_c, 1, 75, 0
3, 107520, Note_on_c, 1, 68, 80
3, 107579, Note_on_c, 1, 68, 0
3, 107640, Note_on_c, 1, 61, 80
3, 107699, Note_on_c, 1, 61, 0
3, 107760, Note_on_c, 1, 64, 80
3, 107819, Note_on_c, 1, 64, 0
3, 107880, Note_on_c, 1, 68, 80
3, 107939, Note_on_c, 1, 68, 0
3, 108000, Note_on_c, 1, 73, 80
3, 108059, Note_on_c, 1, 73, 0
3, 108120, Note_on_c, 1, 85, 80
3, 108179, Note_on_c, 1, 85, 0
3, 108240, Note_on_c, 1, 80, 80
3, 108299, Note_on_c, 1, 80, 0
3, 108360, Note_on_c, 1, 76, 80
3, 108419, Note_on_c, 1, 76, 0
3, 108480, Note_on_c, 1, 73, 80
3, 108539, Note_on_c, 1, 73, 0
3, 108600, Note_on_c, 1, 61, 80
3, 108659, Note_on_c, 1, 61, 0
3, 108720, Note_on_c, 1, 64, 80
3, 108779, Note_on_c, 1, 64, 0
3, 108840, Note_on_c, 1, 68, 80
3, 108899, Note_on_c, 1, 68, 0
3, 108960, Note_on_c, 1, 73, 80
3, 109019, Note_on_c, 1, 73, 0
3, 109080, Note_on_c, 1, 85, 80
3, 109139, Note_on_c, 1, 85, 0
3, 109200, Note_on_c, 1, 80, 80
3, 109259, Note_on_c, 1, 80, 0
3, 109320, Note_on_c, 1, 76, 80
3, 109379, Note_on_c, 1, 76, 0
3, 109440, Note_on_c, 1, 73, 80
3, 109499, Note_on_c, 1, 73, 0
3, 109560, Note_on_c, 1, 56, 80
3, 109619, Note_on_c, 1, 56, 0
3, 109680, Note_on_c, 1, 63, 80
3, 109739, Note_on_c, 1, 63, 0
3, 109800, Note_on_c, 1, 68, 80
3, 109859, Note_on_c, 1, 68, 0
3, 109920, Note_on_c, 1, 71, 80
3, 109979, Note_on_c, 1, 71, 0
3, 110040, Note_on_c, 1, 83, 80
3, 110099, Note_on_c, 1, 83, 0
3, 110160, Note_on_c, 1, 80, 80
3, 110219, Note_on_c, 1, 80, 0
3, 110280, Note_on_c, 1, 75, 80
3, 110339, Note_on_c, 1, 75, 0
3, 110400, Note_on_c, 1, 68, 80
3, 110459, Note_on_c, 1, 68, 0
3, 110520, Note_on_c, 1, 56, 80
3, 110579, Note_on_c, 1, 56, 0
3, 110640, Note_on_c, 1, 63, 80
3, 110699, Note_on_c, 1, 63, 0
3, 110760, Note_on_c, 1, 68, 80
3, 110819, Note_on_c, 1, 68, 0
3, 110880, Note_on_c, 1, 71, 80
3, 110939, Note_on_c, 1, 71, 0
3, 111000, Note_on_c, 1, 83, 80
3, 111059, Note_on_c, 1, 83, 0
3, 111120, Note_on_c, 1, 80, 80
3, 111179, Note_on_c, 1, 80, 0
3, 111240, Note_on_c, 1, 75, 80
3, 111299, Note_on_c, 1, 75, 0
3, 111360, Note_on_c, 1, 68, 80
3, 111419, Note_on_c, 1, 68, 0
3, 111480, Note_on_c, 1, 57, 80
3, 111539, Note_on_c, 1, 57, 0
3, 111600, Note_on_c, 1, 61, 80
3, 111659, Note_on_c, 1, 61, 0
3, 111720, Note_on_c, 1, 64, 80
3, 111779, Note_on_c, 1, 64, 0
3, 111840, Note_on_c, 1, 69, 80
3, 111899, Note_on_c, 1, 69, 0
3, 111960, Note_on_c, 1, 81, 80
3, 112019, Note_on_c, 1, 81, 0
3, 112080, Note_on_c, 1, 76, 80
3, 112139, Note_on_c, 1, 76, 0
3, 112200, Note_on_c, 1, 73, 80
3, 112259, Note_on_c, 1, 73, 0
3, 112320, Note_on_c, 1, 69, 80
3, 112379, Note_on_c, 1, 69, 0
3, 112440, Note_on_c, 1, 57, 80
3, 112499, Note_on_c, 1, 57, 0
3, 112560, Note_on_c, 1, 61, 80
3, 112619, Note_on_c, 1, 61, 0
3, 112680, Note_on_c, 1, 64, 80
3, 112739, Note_on_c, 1, 64, 0
3, 112800, Note_on_c, 1, 69, 80
3, 112859, Note_on_c, 1, 69, 0
3, 112920, Note_on_c, 1, 81, 80
3, 112979, Note_on_c, 1, 81, 0
3, 113040, Note_on_c, 1, 76, 80
3, 113099, Note_on_c, 1, 76, 0
3, 113160, Note_on_c, 1, 73, 80
3, 113219, Note_on_c, 1, 73, 0
3, 113280, Note_on_c, 1, 69, 80
3, 113339, Note_on_c, 1, 69, 0
3, 113400, Note_on_c, 1, 52, 80
3, 113459, Note_on_c, 1, 52, 0
3, 113520, Note_on_c, 1, 59, 80
3, 113579, Note_on_c, 1, 59, 0
3, 113640, Note_on_c, 1, 64, 80
3, 113699, Note_on_c, 1, 64, 0
3, 113760, Note_on_c, 1, 68, 80
3, 113819, Note_on_c, 1, 68, 0
3, 113880, Note_on_c, 1, 80, 80
3, 113939, Note_on_c, 1, 80, 0
3, 114000, Note_on_c, 1, 76, 80
3, 114059, Note_on_c, 1, 76, 0
3, 114120, Note_on_c, 1, 71, 80
3, 114179, Note_on_c, 1, 71, 0
3, 114240, Note_on_c, 1, 64, 80
3, 114299, Note_on_c, 1, 64, 0
3, 114360, Note_on_c, 1, 52, 80
3, 114419, Note_on_c, 1, 52, 0
3, 114480, Note_on_c, 1, 59, 80
3, 114539, Note_on_c, 1, 59, 0
3, 114600, Note_on_c, 1, 64, 80
3, 114659, Note_on_c, 1, 64, 0
3, 114720, Note_on_c, 1, 68, 80
3, 114779, Note_on_c, 1, 68, 0
3, 114840, Note_on_c, 1, 80, 80
3, 114899, Note_on_c, 1, 80, 0
3, 114960, Note_on_c, 1, 76, 80
3, 115019, Note_on_c, 1, 76, 0
3, 115080, Note_on_c, 1, 71, 80
3, 115139, Note_on_c, 1, 71, 0
3, 115200, Note_on_c, 1, 64, 80
3, 115259, Note_on_c, 1, 64, 0
3, 115320, Note_on_c, 1, 52, 80
3, 115379, Note_on_c, 1, 52, 0
3, 115440, Note_on_c, 1, 58, 80
3, 115499, Note_on_c, 1, 58, 0
3, 115560, Note_on_c, 1, 62, 80
3, 115619, Note_on_c, 1, 62, 0
3, 115680, Note_on_c, 1, 68, 80
3, 115739, Note_on_c, 1, 68, 0
3, 115800, Note_on_c, 1, 80, 80
3, 115859, Note_on_c, 1, 80, 0
3, 115920, Note_on_c, 1, 74, 80
3, 115979, Note_on_c, 1, 74, 0
3, 116040, Note_on_c, 1, 70, 80
3, 116099, Note_on_c, 1, 70, 0
3, 116160, Note_on_c, 1, 64, 80
3, 116219, Note_on_c, 1, 64, 0
3, 116280, Note_on_c, 1, 52, 80
3, 116339, Note_on_c, 1, 52, 0
3, 116400, Note_on_c, 1, 58, 80
3, 116459, Note_on_c, 1, 58, 0
3, 116520, Note_on_c, 1, 62, 80
3, 116579, Note_on_c, 1, 62, 0
3, 116640, Note_on_c, 1, 68, 80
3, 116699, Note_on_c, 1, 68, 0
3, 116760, Note_on_c, 1, 80, 80
3, 116819, Note_on_c, 1, 80, 0
3, 116880, Note_on_c, 1, 74, 80
3, 116939, Note_on_c, 1, 74, 0
3, 117000, Note_on_c, 1, 70, 80
3, 117059, Note_on_c, 1, 70, 0
3, 117120, Note_on_c, 1, 64, 80
3, 117179, Note_on_c, 1, 64, 0
3, 117240, Note_on_c, 1, 51, 80
3, 117299, Note_on_c, 1, 51, 0
3, 117360, Note_on_c, 1, 61, 80
3, 117419, Note_on_c, 1, 61, 0
3, 117480, Note_on_c, 1, 67, 80
3, 117539, Note_on_c, 1, 67, 0
3, 117600, Note_on_c, 1, 70, 80
3, 117659, Note_on_c, 1, 70, 0
3, 117720, Note_on_c, 1, 82, 80
3, 117779, Note_on_c, 1, 82, 0
3, 117840, Note_on_c, 1, 79, 80
3, 117899, Note_on_c, 1, 79, 0
3, 117960, Note_on_c, 1, 73, 80
3, 118019, Note_on_c, 1, 73, 0
3, 118080, Note_on_c, 1, 63, 80
3, 118139, Note_on_c, 1, 63, 0
3, 118200, Note_on_c, 1, 51, 80
3, 118259, Note_on_c, 1, 51, 0
3, 118320, Note_on_c, 1, 61, 80
3, 118379, Note_on_c, 1, 61, 0
3, 118440, Note_on_c, 1, 67, 80
3, 118499, Note_on_c, 1, 67, 0
3, 118560, Note_on_c, 1, 70, 80
3, 118619, Note_on_c, 1, 70, 0
3, 118680, Note_on_c, 1, 82, 80
3, 118739, Note_on_c, 1, 82, 0
3, 118800, Note_on_c, 1, 79, 80
3, 118859, Note_on_c, 1, 79, 0
3, 118920, Note_on_c, 1, 73, 80
3, 118979, Note_on_c, 1, 73, 0
3, 119040, Note_on_c, 1, 63, 80
3, 119099, Note_on_c, 1, 63, 0
3, 119160, Note_on_c, 1, 56, 80
3, 119219, Note_on_c, 1, 56, 0
3, 119280, Note_on_c, 1, 61, 80
3, 119339, Note_on_c, 1, 61, 0
3, 119400, Note_on_c, 1, 64, 80
3, 119459, Note_on_c, 1, 64, 0
3, 119520, Note_on_c, 1, 68, 80
3, 119579, Note_on_c, 1, 68, 0
3, 119640, Note_on_c, 1, 80, 80
3, 119699, Note_on_c, 1, 80, 0
3, 119760, Note_on_c, 1, 76, 80
3, 119819, Note_on_c, 1, 76, 0
3, 119880, Note_on_c, 1, 73, 80
3, 119939, Note_on_c, 1, 73, 0
3, 120000, Note_on_c, 1, 68, 80
3, 120059, Note_on_c, 1, 68, 0
3, 120120, Note_on_c, 1, 56, 80
3, 120179, Note_on_c, 1, 56, 0
3, 120240, Note_on_c, 1, 61, 80
3, 120299, Note_on_c, 1, 61, 0
3, 120360, Note_on_c, 1, 64, 80
3, 120419, Note_on_c, 1, 64, 0
3, 120480, Note_on_c, 1, 68, 80
3, 120539, Note_on_c, 1, 68, 0
3, 120600, Note_on_c, 1, 80, 80
3, 120659, Note_on_c, 1, 80, 0
3, 120720, Note_on_c, 1, 76, 80
3, 120779, Note_on_c, 1, 76, 0
3, 120840, Note_on_c, 1, 73, 80
3, 120899, Note_on_c, 1, 73, 0
3, 120960, Note_on_c, 1, 68, 80
3, 121019, Note_on_c, 1, 68, 0
3, 121080, Note_on_c, 1, 56, 80
3, 121139, Note_on_c, 1, 56, 0
3, 121200, Note_on_c, 1, 63, 80
3, 121259, Note_on_c, 1, 63, 0
3, 121320, Note_on_c, 1, 66, 80
3, 121379, Note_on_c, 1, 66, 0
3, 121440, Note_on_c, 1, 72, 80
3, 121499, Note_on_c, 1, 72, 0
3, 121560, Note_on_c, 1, 84, 80
3, 121619, Note_on_c, 1, 84, 0
3, 121680, Note_on_c, 1, 78, 80
3, 121739, Note_on_c, 1, 78, 0
3, 121800, Note_on_c, 1, 75, 80
3, 121859, Note_on_c, 1, 75, 0
3, 121920, Note_on_c, 1, 68, 80
3, 121979, Note_on_c, 1, 68, 0
3, 122040, Note_on_c, 1, 56, 80
3, 122099, Note_on_c, 1, 56, 0
3, 122160, Note_on_c, 1, 63, 80
3, 122219, Note_on_c, 1, 63, 0
3, 122280, Note_on_c, 1, 66, 80
3, 122339, Note_on_c, 1, 66, 0
3, 122400, Note_on_c, 1, 72, 80
3, 122479, Note_on_c, 1, 72, 0
3, 122560, Note_on_c, 1, 84, 80
3, 122639, Note_on_c, 1, 84, 0
3, 122720, Note_on_c, 1, 78, 80
3, 122799, Note_on_c, 1, 78, 0
3, 122880, Note_on_c, 1, 75, 80
3, 122999, Note_on_c, 1, 75, 0
3, 123000, End_track
4, 0, Start_track
4, 0, Title_t, "Instrument_03\000"
4, 0, Key_signature, 0, "major"
4, 0, Control_c, 2, 121, 0
4, 0, Program_c, 2, 62
4, 0, Control_c, 2, 7, 100
4, 0, Control_c, 2, 10, 64
4, 0, Control_c, 2, 91, 0
4, 0, Control_c, 2, 93, 0
4, 0, MIDI_port, 0
4, 31680, Note_on_c, 2, 52, 96
4, 32135, Note_on_c, 2, 52, 0
4, 32160, Note_on_c, 2, 54, 96
4, 32615, Note_on_c, 2, 54, 0
4, 32640, Note_on_c, 2, 56, 96
4, 33551, Note_on_c, 2, 56, 0
4, 33600, Note_on_c, 2, 51, 96
4, 34511, Note_on_c, 2, 51, 0
4, 34560, Note_on_c, 2, 52, 96
4, 35471, Note_on_c, 2, 52, 0
4, 35520, Note_on_c, 2, 57, 96
4, 36431, Note_on_c, 2, 57, 0
4, 36480, Note_on_c, 2, 56, 96
4, 37391, Note_on_c, 2, 56, 0
4, 37440, Note_on_c, 2, 54, 96
4, 37895, Note_on_c, 2, 54, 0
4, 37920, Note_on_c, 2, 52, 96
4, 38375, Note_on_c, 2, 52, 0
4, 38400, Note_on_c, 2, 58, 96
4, 39311, Note_on_c, 2, 58, 0
4, 39360, Note_on_c, 2, 62, 96
4, 40271, Note_on_c, 2, 62, 0
4, 40320, Note_on_c, 2, 61, 96
4, 41231, Note_on_c, 2, 61, 0
4, 41280, Note_on_c, 2, 59, 96
4, 41735, Note_on_c, 2, 59, 0
4, 41760, Note_on_c, 2, 58, 96
4, 42215, Note_on_c, 2, 58, 0
4, 42240, Note_on_c, 2, 64, 96
4, 43151, Note_on_c, 2, 64, 0
4, 43200, Note_on_c, 2, 61, 96
4, 44111, Note_on_c, 2, 61, 0
4, 44160, Note_on_c, 2, 66, 96
4, 45983, Note_on_c, 2, 66, 0
4, 93120, Note_on_c, 2, 52, 96
4, 93575, Note_on_c, 2, 52, 0
4, 93600, Note_on_c, 2, 54, 96
4, 94055, Note_on_c, 2, 54, 0
4, 94080, Note_on_c, 2, 56, 96
4, 94991, Note_on_c, 2, 56, 0
4, 95040, Note_on_c, 2, 51, 96
4, 95951, Note_on_c, 2, 51, 0
4, 96000, Note_on_c, 2, 52, 96
4, 96911, Note_on_c, 2, 52, 0
4, 96960, Note_on_c, 2, 57, 96
4, 97871, Note_on_c, 2, 57, 0
4, 97920, Note_on_c, 2, 56, 96
4, 98831, Note_on_c, 2, 56, 0
4, 98880, Note_on_c, 2, 54, 96
4, 99335, Note_on_c, 2, 54, 0
4, 99360, Note_on_c, 2, 52, 96
4, 99815, Note_on_c, 2, 52, 0
4, 99840, Note_on_c, 2, 58, 96
4, 100751, Note_on_c, 2, 58, 0
4, 100800, Note_on_c, 2, 62, 96
4, 101711, Note_on_c, 2, 62, 0
4, 101760, Note_on_c, 2, 61, 96
4, 102671, Note_on_c, 2, 61, 0
4, 102720, Note_on_c, 2, 59, 96
4, 103175, Note_on_c, 2, 59, 0
4, 103200, Note_on_c, 2, 58, 96
4, 103655, Note_on_c, 2, 58, 0
4, 103680, Note_on_c, 2, 64, 96
4, 104591, Note_on_c, 2, 64, 0
4, 104640, Note_on_c, 2, 61, 96
4, 105551, Note_on_c, 2, 61, 0
4, 105600, Note_on_c, 2, 66, 96
4, 107423, Note_on_c, 2, 66, 0
4, 123840, Note_on_c, 2, 52, 96
4, 124295, Note_on_c, 2, 52, 0
4, 124320, Note_on_c, 2, 54, 96
4, 124775, Note_on_c, 2, 54, 0
4, 124800, Note_on_c, 2, 56, 96
4, 125711, Note_on_c, 2, 56, 0
4, 125760, Note_on_c, 2, 51, 96
4, 126671, Note_on_c, 2, 51, 0
4, 126720, Note_on_c, 2, 52, 96
4, 127631, Note_on_c, 2, 52, 0
4, 127680, Note_on_c, 2, 57, 96
4, 128591, Note_on_c, 2, 57, 0
4, 128640, Note_on_c, 2, 56, 96
4, 129551, Note_on_c, 2, 56, 0
4, 129600, Note_on_c, 2, 54, 96
4, 130055, Note_on_c, 2, 54, 0
4, 130080, Note_on_c, 2, 52, 96
4, 130535, Note_on_c, 2, 52, 0
4, 130560, Note_on_c, 2, 58, 96
4, 131471, Note_on_c, 2, 58, 0
4, 131520, Note_on_c, 2, 62, 96
4, 132431, Note_on_c, 2, 62, 0
4, 132480, Note_on_c, 2, 61, 96
4, 133391, Note_on_c, 2, 61, 0
4, 133440, Note_on_c, 2, 59, 96
4, 133895, Note_on_c, 2, 59, 0
4, 133920, Note_on_c, 2, 58, 96
4, 134375, Note_on_c, 2, 58, 0
4, 134400, Note_on_c, 2, 64, 96
4, 135311, Note_on_c, 2, 64, 0
4, 135360, Note_on_c, 2, 61, 96
4, 136271, Note_on_c, 2, 61, 0
4, 136320, Note_on_c, 2, 66, 96
4, 138143, Note_on_c, 2, 66, 0
4, 138144, End_track
5, 0, Start_track
5, 0, Title_t, "Instrument_04\000"
5, 0, Key_signature, 0, "major"
5, 0, Control_c, 3, 121, 0
5, 0, Program_c, 3, 81
5, 0, Control_c, 3, 7, 100
5, 0, Control_c, 3, 10, 64
5, 0, Control_c, 3, 91, 0
5, 0, Control_c, 3, 93, 0
5, 0, MIDI_port, 0
5, 44640, Note_on_c, 3, 56, 96
5, 45095, Note_on_c, 3, 56, 0
5, 45120, Note_on_c, 3, 54, 96
5, 45575, Note_on_c, 3, 54, 0
5, 45600, Note_on_c, 3, 51, 96
5, 46055, Note_on_c, 3, 51, 0
5, 46080, Note_on_c, 3, 49, 96
5, 46535, Note_on_c, 3, 49, 0
5, 46560, Note_on_c, 3, 51, 96
5, 47015, Note_on_c, 3, 51, 0
5, 47040, Note_on_c, 3, 52, 96
5, 47495, Note_on_c, 3, 52, 0
5, 47520, Note_on_c, 3, 54, 96
5, 47975, Note_on_c, 3, 54, 0
5, 48000, Note_on_c, 3, 56, 96
5, 48911, Note_on_c, 3, 56, 0
5, 48960, Note_on_c, 3, 51, 96
5, 49871, Note_on_c, 3, 51, 0
5, 49920, Note_on_c, 3, 52, 96
5, 50375, Note_on_c, 3, 52, 0
5, 50400, Note_on_c, 3, 56, 96
5, 50855, Note_on_c, 3, 56, 0
5, 50880, Note_on_c, 3, 57, 96
5, 51335, Note_on_c, 3, 57, 0
5, 51360, Note_on_c, 3, 52, 96
5, 51815, Note_on_c, 3, 52, 0
5, 51840, Note_on_c, 3, 56, 96
5, 52751, Note_on_c, 3, 56, 0
5, 52800, Note_on_c, 3, 54, 96
5, 53255, Note_on_c, 3, 54, 0
5, 53280, Note_on_c, 3, 52, 96
5, 53735, Note_on_c, 3, 52, 0
5, 53760, Note_on_c, 3, 58, 96
5, 54215, Note_on_c, 3, 58, 0
5, 54240, Note_on_c, 3, 59, 96
5, 54695, Note_on_c, 3, 59, 0
5, 54720, Note_on_c, 3, 62, 96
5, 55631, Note_on_c, 3, 62, 0
5, 55680, Note_on_c, 3, 61, 96
5, 56591, Note_on_c, 3, 61, 0
5, 56640, Note_on_c, 3, 59, 96
5, 57095, Note_on_c, 3, 59, 0
5, 57120, Note_on_c, 3, 58, 96
5, 57575, Note_on_c, 3, 58, 0
5, 57600, Note_on_c, 3, 64, 96
5, 58055, Note_on_c, 3, 64, 0
5, 58080, Note_on_c, 3, 63, 96
5, 58535, Note_on_c, 3, 63, 0
5, 58560, Note_on_c, 3, 61, 96
5, 59471, Note_on_c, 3, 61, 0
5, 59520, Note_on_c, 3, 66, 96
5, 61343, Note_on_c, 3, 66, 0
5, 106080, Note_on_c, 3, 56, 96
5, 106535, Note_on_c, 3, 56, 0
5, 106560, Note_on_c, 3, 54, 96
5, 107015, Note_on_c, 3, 54, 0
5, 107040, Note_on_c, 3, 51, 96
5, 107495, Note_on_c, 3, 51, 0
5, 107520, Note_on_c, 3, 49, 96
5, 107975, Note_on_c, 3, 49, 0
5, 108000, Note_on_c, 3, 51, 96
5, 108455, Note_on_c, 3, 51, 0
5, 108480, Note_on_c, 3, 52, 96
5, 108935, Note_on_c, 3, 52, 0
5, 108960, Note_on_c, 3, 54, 96
5, 109415, Note_on_c, 3, 54, 0
5, 109440, Note_on_c, 3, 56, 96
5, 110351, Note_on_c, 3, 56, 0
5, 110400, Note_on_c, 3, 51, 96
5, 111311, Note_on_c, 3, 51, 0
5, 111360, Note_on_c, 3, 52, 96
5, 111815, Note_on_c, 3, 52, 0
5, 111840, Note_on_c, 3, 56, 96
5, 112295, Note_on_c, 3, 56, 0
5, 112320, Note_on_c, 3, 57, 96
5, 112775, Note_on_c, 3, 57, 0
5, 112800, Note_on_c, 3, 52, 96
5, 113255, Note_on_c, 3, 52, 0
5, 113280, Note_on_c, 3, 56, 96
5, 114191, Note_on_c, 3, 56, 0
5, 114240, Note_on_c, 3, 54, 96
5, 114695, Note_on_c, 3, 54, 0
5, 114720, Note_on_c, 3, 52, 96
5, 115175, Note_on_c, 3, 52, 0
5, 115200, Note_on_c, 3, 58, 96
5, 115655, Note_on_c, 3, 58, 0
5, 115680, Note_on_c, 3, 59, 96
5, 116135, Note_on_c, 3, 59, 0
5, 116160, Note_on_c, 3, 62, 96
5, 117071, Note_on_c, 3, 62, 0
5, 117120, Note_on_c, 3, 61, 96
5, 118031, Note_on_c, 3, 61, 0
5, 118080, Note_on_c, 3, 59, 96
5, 118535, Note_on_c, 3, 59, 0
5, 118560, Note_on_c, 3, 58, 96
5, 119015, Note_on_c, 3, 58, 0
5, 119040, Note_on_c, 3, 64, 96
5, 119495, Note_on_c, 3, 64, 0
5, 119520, Note_on_c, 3, 63, 96
5, 119975, Note_on_c, 3, 63, 0
5, 120000, Note_on_c, 3, 61, 96
5, 120911, Note_on_c, 3, 61, 0
5, 120960, Note_on_c, 3, 66, 96
5, 122783, Note_on_c, 3, 66, 0
5, 136800, Note_on_c, 3, 56, 96
5, 137255, Note_on_c, 3, 56, 0
5, 137280, Note_on_c, 3, 54, 96
5, 137735, Note_on_c, 3, 54, 0
5, 137760, Note_on_c, 3, 51, 96
5, 138215, Note_on_c, 3, 51, 0
5, 138240, Note_on_c, 3, 49, 96
5, 138695, Note_on_c, 3, 49, 0
5, 138720, Note_on_c, 3, 51, 96
5, 139175, Note_on_c, 3, 51, 0
5, 139200, Note_on_c, 3, 52, 96
5, 139655, Note_on_c, 3, 52, 0
5, 139680, Note_on_c, 3, 54, 96
5, 140135, Note_on_c, 3, 54, 0
5, 140160, Note_on_c, 3, 56, 96
5, 141071, Note_on_c, 3, 56, 0
5, 141120, Note_on_c, 3, 51, 96
5, 142031, Note_on_c, 3, 51, 0
5, 142080, Note_on_c, 3, 52, 96
5, 142535, Note_on_c, 3, 52, 0
5, 142560, Note_on_c, 3, 56, 96
5, 143015, Note_on_c, 3, 56, 0
5, 143040, Note_on_c, 3, 57, 96
5, 143495, Note_on_c, 3, 57, 0
5, 143520, Note_on_c, 3, 52, 96
5, 143975, Note_on_c, 3, 52, 0
5, 144000, Note_on_c, 3, 56, 96
5, 144911, Note_on_c, 3, 56, 0
5, 144960, Note_on_c, 3, 54, 96
5, 145415, Note_on_c, 3, 54, 0
5, 145440, Note_on_c, 3, 52, 96
5, 145895, Note_on_c, 3, 52, 0
5, 145920, Note_on_c, 3, 58, 96
5, 146375, Note_on_c, 3, 58, 0
5, 146400, Note_on_c, 3, 59, 96
5, 146855, Note_on_c, 3, 59, 0
5, 146880, Note_on_c, 3, 62, 96
5, 147791, Note_on_c, 3, 62, 0
5, 147840, Note_on_c, 3, 61, 96
5, 148751, Note_on_c, 3, 61, 0
5, 148800, Note_on_c, 3, 59, 96
5, 149255, Note_on_c, 3, 59, 0
5, 149280, Note_on_c, 3, 58, 96
5, 149735, Note_on_c, 3, 58, 0
5, 149760, Note_on_c, 3, 64, 96
5, 150215, Note_on_c, 3, 64, 0
5, 150240, Note_on_c, 3, 63, 96
5, 150695, Note_on_c, 3, 63, 0
5, 150720, Note_on_c, 3, 61, 96
5, 151631, Note_on_c, 3, 61, 0
5, 151680, Note_on_c, 3, 66, 96
5, 153496, Note_on_c, 3, 66, 0
5, 153497, End_track
6, 0, Start_track
6, 0, Title_t, "Instrument_05\000"
6, 0, Key_signature, 0, "major"
6, 0, Control_c, 4, 121, 0
6, 0, Program_c, 4, 50
6, 0, Control_c, 4, 7, 100
6, 0, Control_c, 4, 10, 64
6, 0, Control_c, 4, 91, 0
6, 0, Control_c, 4, 93, 0
6, 0, MIDI_port, 0
6, 61440, Note_on_c, 4, 49, 96
6, 62807, Note_on_c, 4, 49, 0
6, 62880, Note_on_c, 4, 47, 96
6, 63107, Note_on_c, 4, 47, 0
6, 63120, Note_on_c, 4, 45, 96
6, 63347, Note_on_c, 4, 45, 0
6, 63360, Note_on_c, 4, 44, 96
6, 64727, Note_on_c, 4, 44, 0
6, 64800, Note_on_c, 4, 47, 96
6, 65255, Note_on_c, 4, 47, 0
6, 65280, Note_on_c, 4, 45, 96
6, 66647, Note_on_c, 4, 45, 0
6, 66720, Note_on_c, 4, 44, 96
6, 66947, Note_on_c, 4, 44, 0
6, 66960, Note_on_c, 4, 42, 96
6, 67187, Note_on_c, 4, 42, 0
6, 67200, Note_on_c, 4, 40, 96
6, 69023, Note_on_c, 4, 40, 0
6, 69120, Note_on_c, 4, 52, 96
6, 70487, Note_on_c, 4, 52, 0
6, 70560, Note_on_c, 4, 51, 96
6, 70787, Note_on_c, 4, 51, 0
6, 70800, Note_on_c, 4, 49, 96
6, 71027, Note_on_c, 4, 49, 0
6, 71040, Note_on_c, 4, 51, 96
6, 72407, Note_on_c, 4, 51, 0
6, 72480, Note_on_c, 4, 53, 96
6, 72707, Note_on_c, 4, 53, 0
6, 72720, Note_on_c, 4, 55, 96
6, 72947, Note_on_c, 4, 55, 0
6, 72960, Note_on_c, 4, 56, 96
6, 74327, Note_on_c, 4, 56, 0
6, 74400, Note_on_c, 4, 49, 96
6, 74855, Note_on_c, 4, 49, 0
6, 74880, Note_on_c, 4, 44, 96
6, 75791, Note_on_c, 4, 44, 0
6, 75840, Note_on_c, 4, 48, 96
6, 76751, Note_on_c, 4, 48, 0
6, 76800, Note_on_c, 4, 49, 96
6, 78167, Note_on_c, 4, 49, 0
6, 78240, Note_on_c, 4, 47, 96
6, 78467, Note_on_c, 4, 47, 0
6, 78480, Note_on_c, 4, 45, 96
6, 78707, Note_on_c, 4, 45, 0
6, 78720, Note_on_c, 4, 44, 96
6, 80087, Note_on_c, 4, 44, 0
6, 80160, Note_on_c, 4, 47, 96
6, 80615, Note_on_c, 4, 47, 0
6, 80640, Note_on_c, 4, 45, 96
6, 82007, Note_on_c, 4, 45, 0
6, 82080, Note_on_c, 4, 44, 96
6, 82307, Note_on_c, 4, 44, 0
6, 82320, Note_on_c, 4, 42, 96
6, 82547, Note_on_c, 4, 42, 0
6, 82560, Note_on_c, 4, 40, 96
6, 84383, Note_on_c, 4, 40, 0
6, 84480, Note_on_c, 4, 52, 96
6, 85847, Note_on_c, 4, 52, 0
6, 85920, Note_on_c, 4, 51, 96
6, 86147, Note_on_c, 4, 51, 0
6, 86160, Note_on_c, 4, 49, 96
6, 86387, Note_on_c, 4, 49, 0
6, 86400, Note_on_c, 4, 51, 96
6, 87767, Note_on_c, 4, 51, 0
6, 87840, Note_on_c, 4, 53, 96
6, 88067, Note_on_c, 4, 53, 0
6, 88080, Note_on_c, 4, 55, 96
6, 88307, Note_on_c, 4, 55, 0
6, 88320, Note_on_c, 4, 56, 96
6, 89687, Note_on_c, 4, 56, 0
6, 89760, Note_on_c, 4, 49, 96
6, 90215, Note_on_c, 4, 49, 0
6, 90240, Note_on_c, 4, 44, 96
6, 91151, Note_on_c, 4, 44, 0
6, 91200, Note_on_c, 4, 48, 96
6, 92111, Note_on_c, 4, 48, 0
6, 92160, Note_on_c, 4, 49, 96
6, 93527, Note_on_c, 4, 49, 0
6, 93600, Note_on_c, 4, 47, 96
6, 93827, Note_on_c, 4, 47, 0
6, 93840, Note_on_c, 4, 45, 96
6, 94067, Note_on_c, 4, 45, 0
6, 94080, Note_on_c, 4, 44, 96
6, 95447, Note_on_c, 4, 44, 0
6, 95520, Note_on_c, 4, 47, 96
6, 95975, Note_on_c, 4, 47, 0
6, 96000, Note_on_c, 4, 45, 96
6, 97367, Note_on_c, 4, 45, 0
6, 97440, Note_on_c, 4, 44, 96
6, 97667, Note_on_c, 4, 44, 0
6, 97680, Note_on_c, 4, 42, 96
6, 97907, Note_on_c, 4, 42, 0
6, 97920, Note_on_c, 4, 40, 96
6, 99743, Note_on_c, 4, 40, 0
6, 99840, Note_on_c, 4, 52, 96
6, 101207, Note_on_c, 4, 52, 0
6, 101280, Note_on_c, 4, 51, 96
6, 101507, Note_on_c, 4, 51, 0
6, 101520, Note_on_c, 4, 49, 96
6, 101747, Note_on_c, 4, 49, 0
6, 101760, Note_on_c, 4, 51, 96
6, 103127, Note_on_c, 4, 51, 0
6, 103200, Note_on_c, 4, 53, 96
6, 103427, Note_on_c, 4, 53, 0
6, 103440, Note_on_c, 4, 55, 96
6, 103667, Note_on_c, 4, 55, 0
6, 103680, Note_on_c, 4, 56, 96
6, 105047, Note_on_c, 4, 56, 0
6, 105120, Note_on_c, 4, 49, 96
6, 105575, Note_on_c, 4, 49, 0
6, 105600, Note_on_c, 4, 44, 96
6, 106511, Note_on_c, 4, 44, 0
6, 106560, Note_on_c, 4, 48, 96
6, 107471, Note_on_c, 4, 48, 0
6, 107520, Note_on_c, 4, 49, 96
6, 108887, Note_on_c, 4, 49, 0
6, 108960, Note_on_c, 4, 47, 96
6, 109187, Note_on_c, 4, 47, 0
6, 109200, Note_on_c, 4, 45, 96
6, 109427, Note_on_c, 4, 45, 0
6, 109440, Note_on_c, 4, 44, 96
6, 110807, Note_on_c, 4, 44, 0
6, 110880, Note_on_c, 4, 47, 96
6, 111335, Note_on_c, 4, 47, 0
6, 111360, Note_on_c, 4, 45, 96
6, 112727, Note_on_c, 4, 45, 0
6, 112800, Note_on_c, 4, 44, 96
6, 113027, Note_on_c, 4, 44, 0
6, 113040, Note_on_c, 4, 42, 96
6, 113267, Note_on_c, 4, 42, 0
6, 113280, Note_on_c, 4, 40, 96
6, 115103, Note_on_c, 4, 40, 0
6, 115200, Note_on_c, 4, 52, 96
6, 116567, Note_on_c, 4, 52, 0
6, 116640, Note_on_c, 4, 51, 96
6, 116867, Note_on_c, 4, 51, 0
6, 116880, Note_on_c, 4, 49, 96
6, 117107, Note_on_c, 4, 49, 0
6, 117120, Note_on_c, 4, 51, 96
6, 118487, Note_on_c, 4, 51, 0
6, 118560, Note_on_c, 4, 53, 96
6, 118787, Note_on_c, 4, 53, 0
6, 118800, Note_on_c, 4, 55, 96
6, 119027, Note_on_c, 4, 55, 0
6, 119040, Note_on_c, 4, 56, 96
6, 120407, Note_on_c, 4, 56, 0
6, 120480, Note_on_c, 4, 49, 96
6, 120935, Note_on_c, 4, 49, 0
6, 120960, Note_on_c, 4, 44, 96
6, 121871, Note_on_c, 4, 44, 0
6, 121920, Note_on_c, 4, 48, 96
6, 122831, Note_on_c, 4, 48, 0
6, 122880, Note_on_c, 4, 49, 96
6, 124247, Note_on_c, 4, 49, 0
6, 124320, Note_on_c, 4, 47, 96
6, 124547, Note_on_c, 4, 47, 0
6, 124560, Note_on_c, 4, 45, 96
6, 124787, Note_on_c, 4, 45, 0
6, 124800, Note_on_c, 4, 44, 96
6, 126167, Note_on_c, 4, 44, 0
6, 126240, Note_on_c, 4, 47, 96
6, 126695, Note_on_c, 4, 47, 0
6, 126720, Note_on_c, 4, 45, 96
6, 128087, Note_on_c, 4, 45, 0
6, 128160, Note_on_c, 4, 44, 96
6, 128387, Note_on_c, 4, 44, 0
6, 128400, Note_on_c, 4, 42, 96
6, 128627, Note_on_c, 4, 42, 0
6, 128640, Note_on_c, 4, 40, 96
6, 130463, Note_on_c, 4, 40, 0
6, 130560, Note_on_c, 4, 52, 96
6, 131927, Note_on_c, 4, 52, 0
6, 132000, Note_on_c, 4, 51, 96
6, 132227, Note_on_c, 4, 51, 0
6, 132240, Note_on_c, 4, 49, 96
6, 132467, Note_on_c, 4, 49, 0
6, 132480, Note_on_c, 4, 51, 96
6, 133847, Note_on_c, 4, 51, 0
6, 133920, Note_on_c, 4, 53, 96
6, 134147, Note_on_c, 4, 53, 0
6, 134160, Note_on_c, 4, 55, 96
6, 134387, Note_on_c, 4, 55, 0
6, 134400, Note_on_c, 4, 56, 96
6, 135767, Note_on_c, 4, 56, 0
6, 135840, Note_on_c, 4, 49, 96
6, 136295, Note_on_c, 4, 49, 0
6, 136320, Note_on_c, 4, 44, 96
6, 137231, Note_on_c, 4, 44, 0
6, 137280, Note_on_c, 4, 48, 96
6, 138191, Note_on_c, 4, 48, 0
6, 138240, Note_on_c, 4, 49, 96
6, 139607, Note_on_c, 4, 49, 0
6, 139680, Note_on_c, 4, 47, 96
6, 139907, Note_on_c, 4, 47, 0
6, 139920, Note_on_c, 4, 45, 96
6, 140147, Note_on_c, 4, 45, 0
6, 140160, Note_on_c, 4, 44, 96
6, 141527, Note_on_c, 4, 44, 0
6, 141600, Note_on_c, 4, 47, 96
6, 142055, Note_on_c, 4, 47, 0
6, 142080, Note_on_c, 4, 45, 96
6, 143447, Note_on_c, 4, 45, 0
6, 143520, Note_on_c, 4, 44, 96
6, 143747, Note_on_c, 4, 44, 0
6, 143760, Note_on_c, 4, 42, 96
6, 143987, Note_on_c, 4, 42, 0
6, 144000, Note_on_c, 4, 40, 96
6, 145823, Note_on_c, 4, 40, 0
6, 145920, Note_on_c, 4, 52, 96
6, 147287, Note_on_c, 4, 52, 0
6, 147360, Note_on_c, 4, 51, 96
6, 147587, Note_on_c, 4, 51, 0
6, 147600, Note_on_c, 4, 49, 96
6, 147827, Note_on_c, 4, 49, 0
6, 147840, Note_on_c, 4, 51, 96
6, 149207, Note_on_c, 4, 51, 0
6, 149280, Note_on_c, 4, 53, 96
6, 149507, Note_on_c, 4, 53, 0
6, 149520, Note_on_c, 4, 55, 96
6, 149747, Note_on_c, 4, 55, 0
6, 149760, Note_on_c, 4, 56, 96
6, 151127, Note_on_c, 4, 56, 0
6, 151200, Note_on_c, 4, 49, 96
6, 151655, Note_on_c, 4, 49, 0
6, 151680, Note_on_c, 4, 44, 96
6, 153496, Note_on_c, 4, 44, 0
6, 153497, End_track
0, 0, End_of_file