0, 0, Header, 1, 6, 480
1, 0, Start_track
1, 0, Title_t, "Drumset\000"
1, 0, Time_signature, 4, 2, 24, 8
1, 0, Key_signature, 0, "major"
1, 0, Tempo, 476190
1, 0, Control_c, 9, 121, 0
1, 0, Program_c, 9, 0
1, 0, Control_c, 9, 7, 100
1, 0, Control_c, 9, 10, 64
1, 0, Control_c, 9, 91, 0
1, 0, Control_c, 9, 93, 0
1, 0, MIDI_port, 0
1, 0, Note_on_c, 9, 49, 80
1, 0, Note_on_c, 9, 36, 80
1, 119, Note_on_c, 9, 49, 0
1, 120, Note_on_c, 9, 42, 80
1, 239, Note_on_c, 9, 42, 0
1, 240, Note_on_c, 9, 42, 80
1, 359, Note_on_c, 9, 42, 0
1, 360, Note_on_c, 9, 42, 80
1, 479, Note_on_c, 9, 36, 0
1, 479, Note_on_c, 9, 42, 0
1, 480, Note_on_c, 9, 42, 80
1, 480, Note_on_c, 9, 36, 80
1, 599, Note_on_c, 9, 42, 0
1, 600, Note_on_c, 9, 42, 80
1, 719, Note_on_c, 9, 42, 0
1, 720, Note_on_c, 9, 42, 80
1, 839, Note_on_c, 9, 42, 0
1, 840, Note_on_c, 9, 42, 80
1, 959, Note_on_c, 9, 36, 0
1, 959, Note_on_c, 9, 42, 0
1, 960, Note_on_c, 9, 38, 80
1, 960, Note_on_c, 9, 42, 80
1, 1079, Note_on_c, 9, 38, 0
1, 1079, Note_on_c, 9, 42, 0
1, 1080, Note_on_c, 9, 42, 80
1, 1199, Note_on_c, 9, 42, 0
1, 1200, Note_on_c, 9, 42, 80
1, 1319, Note_on_c, 9, 42, 0
1, 1320, Note_on_c, 9, 42, 80
1, 1439, Note_on_c, 9, 42, 0
1, 1440, Note_on_c, 9, 42, 80
1, 1440, Note_on_c, 9, 36, 80
1, 1559, Note_on_c, 9, 42, 0
1, 1560, Note_on_c, 9, 42, 80
1, 1679, Note_on_c, 9, 42, 0
1, 1680, Note_on_c, 9, 42, 80
1, 1799, Note_on_c, 9, 42, 0
1, 1800, Note_on_c, 9, 42, 80
1, 1919, Note_on_c, 9, 36, 0
1, 1919, Note_on_c, 9, 42, 0
1, 1920, Note_on_c, 9, 42, 80
1, 2039, Note_on_c, 9, 42, 0
1, 2040, Note_on_c, 9, 42, 80
1, 2159, Note_on_c, 9, 42, 0
1, 2160, Note_on_c, 9, 42, 80
1, 2160, Note_on_c, 9, 36, 80
1, 2279, Note_on_c, 9, 42, 0
1, 2280, Note_on_c, 9, 42, 80
1, 2399, Note_on_c, 9, 36, 0
1, 2399, Note_on_c, 9, 42, 0
1, 2400, Note_on_c, 9, 42, 80
1, 2400, Note_on_c, 9, 36, 80
1, 2519, Note_on_c, 9, 42, 0
1, 2520, Note_on_c, 9, 42, 80
1, 2639, Note_on_c, 9, 42, 0
1, 2640, Note_on_c, 9, 42, 80
1, 2759, Note_on_c, 9, 42, 0
1, 2760, Note_on_c, 9, 42, 80
1, 2879, Note_on_c, 9, 36, 0
1, 2879, Note_on_c, 9, 42, 0
1, 2880, Note_on_c, 9, 38, 80
1, 2880, Note_on_c, 9, 42, 80
1, 2999, Note_on_c, 9, 38, 0
1, 2999, Note_on_c, 9, 42, 0
1, 3000, Note_on_c, 9, 42, 80
1, 3119, Note_on_c, 9, 42, 0
1, 3120, Note_on_c, 9, 42, 80
1, 3239, Note_on_c, 9, 42, 0
1, 3240, Note_on_c, 9, 42, 80
1, 3359, Note_on_c, 9, 42, 0
1, 3360, Note_on_c, 9, 42, 80
1, 3360, Note_on_c, 9, 36, 80
1, 3479, Note_on_c, 9, 42, 0
1, 3480, Note_on_c, 9, 42, 80
1, 3599, Note_on_c, 9, 36, 0
1, 3599, Note_on_c, 9, 42, 0
1, 3600, Note_on_c, 9, 42, 80
1, 3600, Note_on_c, 9, 36, 80
1, 3719, Note_on_c, 9, 42, 0
1, 3720, Note_on_c, 9, 42, 80
1, 3839, Note_on_c, 9, 36, 0
1, 3839, Note_on_c, 9, 42, 0
1, 3840, Note_on_c, 9, 42, 80
1, 3840, Note_on_c, 9, 36, 80
1, 3959, Note_on_c, 9, 42, 0
1, 3960, Note_on_c, 9, 42, 80
1, 4079, Note_on_c, 9, 42, 0
1, 4080, Note_on_c, 9, 42, 80
1, 4199, Note_on_c, 9, 42, 0
1, 4200, Note_on_c, 9, 42, 80
1, 4319, Note_on_c, 9, 36, 0
1, 4319, Note_on_c, 9, 42, 0
1, 4320, Note_on_c, 9, 42, 80
1, 4320, Note_on_c, 9, 36, 80
1, 4439, Note_on_c, 9, 42, 0
1, 4440, Note_on_c, 9, 42, 80
1, 4559, Note_on_c, 9, 42, 0
1, 4560, Note_on_c, 9, 42, 80
1, 4679, Note_on_c, 9, 42, 0
1, 4680, Note_on_c, 9, 42, 80
1, 4799, Note_on_c, 9, 36, 0
1, 4799, Note_on_c, 9, 42, 0
1, 4800, Note_on_c, 9, 38, 80
1, 4800, Note_on_c, 9, 42, 80
1, 4919, Note_on_c, 9, 38, 0
1, 4919, Note_on_c, 9, 42, 0
1, 4920, Note_on_c, 9, 42, 80
1, 5039, Note_on_c, 9, 42, 0
1, 5040, Note_on_c, 9, 42, 80
1, 5159, Note_on_c, 9, 42, 0
1, 5160, Note_on_c, 9, 42, 80
1, 5279, Note_on_c, 9, 42, 0
1, 5280, Note_on_c, 9, 42, 80
1, 5280, Note_on_c, 9, 36, 80
1, 5399, Note_on_c, 9, 42, 0
1, 5400, Note_on_c, 9, 42, 80
1, 5519, Note_on_c, 9, 42, 0
1, 5520, Note_on_c, 9, 42, 80
1, 5639, Note_on_c, 9, 42, 0
1, 5640, Note_on_c, 9, 42, 80
1, 5759, Note_on_c, 9, 36, 0
1, 5759, Note_on_c, 9, 42, 0
1, 5760, Note_on_c, 9, 42, 80
1, 5879, Note_on_c, 9, 42, 0
1, 5880, Note_on_c, 9, 42, 80
1, 5999, Note_on_c, 9, 42, 0
1, 6000, Note_on_c, 9, 42, 80
1, 6000, Note_on_c, 9, 36, 80
1, 6119, Note_on_c, 9, 42, 0
1, 6120, Note_on_c, 9, 42, 80
1, 6239, Note_on_c, 9, 36, 0
1, 6239, Note_on_c, 9, 42, 0
1, 6240, Note_on_c, 9, 42, 80
1, 6240, Note_on_c, 9, 36, 80
1, 6359, Note_on_c, 9, 42, 0
1, 6360, Note_on_c, 9, 42, 80
1, 6479, Note_on_c, 9, 42, 0
1, 6480, Note_on_c, 9, 42, 80
1, 6599, Note_on_c, 9, 42, 0
1, 6600, Note_on_c, 9, 42, 80
1, 6719, Note_on_c, 9, 36, 0
1, 6719, Note_on_c, 9, 42, 0
1, 6720, Note_on_c, 9, 38, 80
1, 6720, Note_on_c, 9, 42, 80
1, 6839, Note_on_c, 9, 38, 0
1, 6839, Note_on_c, 9, 42, 0
1, 6840, Note_on_c, 9, 42, 80
1, 6959, Note_on_c, 9, 42, 0
1, 6960, Note_on_c, 9, 42, 80
1, 7079, Note_on_c, 9, 42, 0
1, 7080, Note_on_c, 9, 42, 80
1, 7199, Note_on_c, 9, 42, 0
1, 7200, Note_on_c, 9, 42, 80
1, 7200, Note_on_c, 9, 36, 80
1, 7319, Note_on_c, 9, 42, 0
1, 7320, Note_on_c, 9, 42, 80
1, 7439, Note_on_c, 9, 42, 0
1, 7440, Note_on_c, 9, 42, 80
1, 7559, Note_on_c, 9, 42, 0
1, 7560, Note_on_c, 9, 42, 80
1, 7679, Note_on_c, 9, 36, 0
1, 7679, Note_on_c, 9, 42, 0
1, 7680, Note_on_c, 9, 49, 80
1, 7680, Note_on_c, 9, 36, 80
1, 7799, Note_on_c, 9, 49, 0
1, 7800, Note_on_c, 9, 42, 80
1, 7919, Note_on_c, 9, 42, 0
1, 7920, Note_on_c, 9, 42, 80
1, 8039, Note_on_c, 9, 42, 0
1, 8040, Note_on_c, 9, 42, 80
1, 8159, Note_on_c, 9, 36, 0
1, 8159, Note_on_c, 9, 42, 0
1, 8160, Note_on_c, 9, 42, 80
1, 8160, Note_on_c, 9, 36, 80
1, 8279, Note_on_c, 9, 42, 0
1, 8280, Note_on_c, 9, 42, 80
1, 8399, Note_on_c, 9, 42, 0
1, 8400, Note_on_c, 9, 42, 80
1, 8519, Note_on_c, 9, 42, 0
1, 8520, Note_on_c, 9, 42, 80
1, 8639, Note_on_c, 9, 36, 0
1, 8639, Note_on_c, 9, 42, 0
1, 8640, Note_on_c, 9, 38, 80
1, 8640, Note_on_c, 9, 42, 80
1, 8759, Note_on_c, 9, 38, 0
1, 8759, Note_on_c, 9, 42, 0
1, 8760, Note_on_c, 9, 42, 80
1, 8879, Note_on_c, 9, 42, 0
1, 8880, Note_on_c, 9, 42, 80
1, 8999, Note_on_c, 9, 42, 0
1, 9000, Note_on_c, 9, 42, 80
1, 9119, Note_on_c, 9, 42, 0
1, 9120, Note_on_c, 9, 42, 80
1, 9120, Note_on_c, 9, 36, 80
1, 9239, Note_on_c, 9, 42, 0
1, 9240, Note_on_c, 9, 42, 80
1, 9359, Note_on_c, 9, 42, 0
1, 9360, Note_on_c, 9, 42, 80
1, 9479, Note_on_c, 9, 42, 0
1, 9480, Note_on_c, 9, 42, 80
1, 9599, Note_on_c, 9, 36, 0
1, 9599, Note_on_c, 9, 42, 0
1, 9600, Note_on_c, 9, 42, 80
1, 9719, Note_on_c, 9, 42, 0
1, 9720, Note_on_c, 9, 42, 80
1, 9839, Note_on_c, 9, 42, 0
1, 9840, Note_on_c, 9, 42, 80
1, 9840, Note_on_c, 9, 36, 80
1, 9959, Note_on_c, 9, 42, 0
1, 9960, Note_on_c, 9, 42, 80
1, 10079, Note_on_c, 9, 36, 0
1, 10079, Note_on_c, 9, 42, 0
1, 10080, Note_on_c, 9, 42, 80
1, 10080, Note_on_c, 9, 36, 80
1, 10199, Note_on_c, 9, 42, 0
1, 10200, Note_on_c, 9, 42, 80
1, 10319, Note_on_c, 9, 42, 0
1, 10320, Note_on_c, 9, 42, 80
1, 10439, Note_on_c, 9, 42, 0
1, 10440, Note_on_c, 9, 42, 80
1, 10559, Note_on_c, 9, 36, 0
1, 10559, Note_on_c, 9, 42, 0
1, 10560, Note_on_c, 9, 38, 80
1, 10560, Note_on_c, 9, 42, 80
1, 10679, Note_on_c, 9, 38, 0
1, 10679, Note_on_c, 9, 42, 0
1, 10680, Note_on_c, 9, 42, 80
1, 10799, Note_on_c, 9, 42, 0
1, 10800, Note_on_c, 9, 42, 80
1, 10919, Note_on_c, 9, 42, 0
1, 10920, Note_on_c, 9, 42, 80
1, 11039, Note_on_c, 9, 42, 0
1, 11040, Note_on_c, 9, 42, 80
1, 11040, Note_on_c, 9, 36, 80
1, 11159, Note_on_c, 9, 42, 0
1, 11160, Note_on_c, 9, 42, 80
1, 11279, Note_on_c, 9, 36, 0
1, 11279, Note_on_c, 9, 42, 0
1, 11280, Note_on_c, 9, 42, 80
1, 11280, Note_on_c, 9, 36, 80
1, 11399, Note_on_c, 9, 42, 0
1, 11400, Note_on_c, 9, 42, 80
1, 11519, Note_on_c, 9, 36, 0
1, 11519, Note_on_c, 9, 42, 0
1, 11520, Note_on_c, 9, 42, 80
1, 11520, Note_on_c, 9, 36, 80
1, 11639, Note_on_c, 9, 42, 0
1, 11640, Note_on_c, 9, 42, 80
1, 11759, Note_on_c, 9, 42, 0
1, 11760, Note_on_c, 9, 42, 80
1, 11879, Note_on_c, 9, 42, 0
1, 11880, Note_on_c, 9, 42, 80
1, 11999, Note_on_c, 9, 36, 0
1, 11999, Note_on_c, 9, 42, 0
1, 12000, Note_on_c, 9, 42, 80
1, 12000, Note_on_c, 9, 36, 80
1, 12119, Note_on_c, 9, 42, 0
1, 12120, Note_on_c, 9, 42, 80
1, 12239, Note_on_c, 9, 42, 0
1, 12240, Note_on_c, 9, 42, 80
1, 12359, Note_on_c, 9, 42, 0
1, 12360, Note_on_c, 9, 42, 80
1, 12479, Note_on_c, 9, 36, 0
1, 12479, Note_on_c, 9, 42, 0
1, 12480, Note_on_c, 9, 38, 80
1, 12480, Note_on_c, 9, 42, 80
1, 12599, Note_on_c, 9, 38, 0
1, 12599, Note_on_c, 9, 42, 0
1, 12600, Note_on_c, 9, 42, 80
1, 12719, Note_on_c, 9, 42, 0
1, 12720, Note_on_c, 9, 42, 80
1, 12839, Note_on_c, 9, 42, 0
1, 12840, Note_on_c, 9, 42, 80
1, 12959, Note_on_c, 9, 42, 0
1, 12960, Note_on_c, 9, 42, 80
1, 12960, Note_on_c, 9, 36, 80
1, 13079, Note_on_c, 9, 42, 0
1, 13080, Note_on_c, 9, 42, 80
1, 13199, Note_on_c, 9, 42, 0
1, 13200, Note_on_c, 9, 42, 80
1, 13319, Note_on_c, 9, 42, 0
1, 13320, Note_on_c, 9, 42, 80
1, 13439, Note_on_c, 9, 36, 0
1, 13439, Note_on_c, 9, 42, 0
1, 13440, Note_on_c, 9, 42, 80
1, 13559, Note_on_c, 9, 42, 0
1, 13560, Note_on_c, 9, 42, 80
1, 13679, Note_on_c, 9, 42, 0
1, 13680, Note_on_c, 9, 42, 80
1, 13680, Note_on_c, 9, 36, 80
1, 13799, Note_on_c, 9, 42, 0
1, 13800, Note_on_c, 9, 42, 80
1, 13919, Note_on_c, 9, 36, 0
1, 13919, Note_on_c, 9, 42, 0
1, 13920, Note_on_c, 9, 42, 80
1, 13920, Note_on_c, 9, 36, 80
1, 14039, Note_on_c, 9, 42, 0
1, 14040, Note_on_c, 9, 42, 80
1, 14159, Note_on_c, 9, 42, 0
1, 14160, Note_on_c, 9, 42, 80
1, 14279, Note_on_c, 9, 42, 0
1, 14280, Note_on_c, 9, 42, 80
1, 14399, Note_on_c, 9, 36, 0
1, 14399, Note_on_c, 9, 42, 0
1, 14400, Note_on_c, 9, 38, 80
1, 14400, Note_on_c, 9, 42, 80
1, 14519, Note_on_c, 9, 38, 0
1, 14519, Note_on_c, 9, 42, 0
1, 14520, Note_on_c, 9, 42, 80
1, 14639, Note_on_c, 9, 42, 0
1, 14640, Note_on_c, 9, 42, 80
1, 14759, Note_on_c, 9, 42, 0
1, 14760, Note_on_c, 9, 42, 80
1, 14879, Note_on_c, 9, 42, 0
1, 14880, Note_on_c, 9, 42, 80
1, 14880, Note_on_c, 9, 36, 80
1, 14999, Note_on_c, 9, 42, 0
1, 15000, Note_on_c, 9, 42, 80
1, 15119, Note_on_c, 9, 42, 0
1, 15120, Note_on_c, 9, 42, 80
1, 15239, Note_on_c, 9, 42, 0
1, 15240, Note_on_c, 9, 42, 80
1, 15359, Note_on_c, 9, 36, 0
1, 15359, Note_on_c, 9, 42, 0
1, 15360, Note_on_c, 9, 49, 80
1, 15360, Note_on_c, 9, 36, 80
1, 15479, Note_on_c, 9, 49, 0
1, 15480, Note_on_c, 9, 42, 80
1, 15599, Note_on_c, 9, 42, 0
1, 15600, Note_on_c, 9, 42, 80
1, 15719, Note_on_c, 9, 42, 0
1, 15720, Note_on_c, 9, 42, 80
1, 15839, Note_on_c, 9, 36, 0
1, 15839, Note_on_c, 9, 42, 0
1, 15840, Note_on_c, 9, 42, 80
1, 15840, Note_on_c, 9, 36, 80
1, 15959, Note_on_c, 9, 42, 0
1, 15960, Note_on_c, 9, 42, 80
1, 16079, Note_on_c, 9, 42, 0
1, 16080, Note_on_c, 9, 42, 80
1, 16199, Note_on_c, 9, 42, 0
1, 16200, Note_on_c, 9, 42, 80
1, 16319, Note_on_c, 9, 36, 0
1, 16319, Note_on_c, 9, 42, 0
1, 16320, Note_on_c, 9, 38, 80
1, 16320, Note_on_c, 9, 42, 80
1, 16439, Note_on_c, 9, 38, 0
1, 16439, Note_on_c, 9, 42, 0
1, 16440, Note_on_c, 9, 42, 80
1, 16559, Note_on_c, 9, 42, 0
1, 16560, Note_on_c, 9, 42, 80
1, 16679, Note_on_c, 9, 42, 0
1, 16680, Note_on_c, 9, 42, 80
1, 16799, Note_on_c, 9, 42, 0
1, 16800, Note_on_c, 9, 42, 80
1, 16800, Note_on_c, 9, 36, 80
1, 16919, Note_on_c, 9, 42, 0
1, 16920, Note_on_c, 9, 42, 80
1, 17039, Note_on_c, 9, 42, 0
1, 17040, Note_on_c, 9, 42, 80
1, 17159, Note_on_c, 9, 42, 0
1, 17160, Note_on_c, 9, 42, 80
1, 17279, Note_on_c, 9, 36, 0
1, 17279, Note_on_c, 9, 42, 0
1, 17280, Note_on_c, 9, 42, 80
1, 17399, Note_on_c, 9, 42, 0
1, 17400, Note_on_c, 9, 42, 80
1, 17519, Note_on_c, 9, 42, 0
1, 17520, Note_on_c, 9, 42, 80
1, 17520, Note_on_c, 9, 36, 80
1, 17639, Note_on_c, 9, 42, 0
1, 17640, Note_on_c, 9, 42, 80
1, 17759, Note_on_c, 9, 36, 0
1, 17759, Note_on_c, 9, 42, 0
1, 17760, Note_on_c, 9, 42, 80
1, 17760, Note_on_c, 9, 36, 80
1, 17879, Note_on_c, 9, 42, 0
1, 17880, Note_on_c, 9, 42, 80
1, 17999, Note_on_c, 9, 42, 0
1, 18000, Note_on_c, 9, 42, 80
1, 18119, Note_on_c, 9, 42, 0
1, 18120, Note_on_c, 9, 42, 80
1, 18239, Note_on_c, 9, 36, 0
1, 18239, Note_on_c, 9, 42, 0
1, 18240, Note_on_c, 9, 38, 80
1, 18240, Note_on_c, 9, 42, 80
1, 18359, Note_on_c, 9, 38, 0
1, 18359, Note_on_c, 9, 42, 0
1, 18360, Note_on_c, 9, 42, 80
1, 18479, Note_on_c, 9, 42, 0
1, 18480, Note_on_c, 9, 42, 80
1, 18599, Note_on_c, 9, 42, 0
1, 18600, Note_on_c, 9, 42, 80
1, 18719, Note_on_c, 9, 42, 0
1, 18720, Note_on_c, 9, 42, 80
1, 18720, Note_on_c, 9, 36, 80
1, 18839, Note_on_c, 9, 42, 0
1, 18840, Note_on_c, 9, 42, 80
1, 18959, Note_on_c, 9, 36, 0
1, 18959, Note_on_c, 9, 42, 0
1, 18960, Note_on_c, 9, 42, 80
1, 18960, Note_on_c, 9, 36, 80
1, 19079, Note_on_c, 9, 42, 0
1, 19080, Note_on_c, 9, 42, 80
1, 19199, Note_on_c, 9, 36, 0
1, 19199, Note_on_c, 9, 42, 0
1, 19200, Note_on_c, 9, 42, 80
1, 19200, Note_on_c, 9, 36, 80
1, 19319, Note_on_c, 9, 42, 0
1, 19320, Note_on_c, 9, 42, 80
1, 19439, Note_on_c, 9, 42, 0
1, 19440, Note_on_c, 9, 42, 80
1, 19559, Note_on_c, 9, 42, 0
1, 19560, Note_on_c, 9, 42, 80
1, 19679, Note_on_c, 9, 36, 0
1, 19679, Note_on_c, 9, 42, 0
1, 19680, Note_on_c, 9, 42, 80
1, 19680, Note_on_c, 9, 36, 80
1, 19799, Note_on_c, 9, 42, 0
1, 19800, Note_on_c, 9, 42, 80
1, 19919, Note_on_c, 9, 42, 0
1, 19920, Note_on_c, 9, 42, 80
1, 20039, Note_on_c, 9, 42, 0
1, 20040, Note_on_c, 9, 42, 80
1, 20159, Note_on_c, 9, 36, 0
1, 20159, Note_on_c, 9, 42, 0
1, 20160, Note_on_c, 9, 38, 80
1, 20160, Note_on_c, 9, 42, 80
1, 20279, Note_on_c, 9, 38, 0
1, 20279, Note_on_c, 9, 42, 0
1, 20280, Note_on_c, 9, 42, 80
1, 20399, Note_on_c, 9, 42, 0
1, 20400, Note_on_c, 9, 42, 80
1, 20519, Note_on_c, 9, 42, 0
1, 20520, Note_on_c, 9, 42, 80
1, 20639, Note_on_c, 9, 42, 0
1, 20640, Note_on_c, 9, 42, 80
1, 20640, Note_on_c, 9, 36, 80
1, 20759, Note_on_c, 9, 42, 0
1, 20760, Note_on_c, 9, 42, 80
1, 20879, Note_on_c, 9, 42, 0
1, 20880, Note_on_c, 9, 42, 80
1, 20999, Note_on_c, 9, 42, 0
1, 21000, Note_on_c, 9, 42, 80
1, 21119, Note_on_c, 9, 36, 0
1, 21119, Note_on_c, 9, 42, 0
1, 21120, Note_on_c, 9, 42, 80
1, 21239, Note_on_c, 9, 42, 0
1, 21240, Note_on_c, 9, 42, 80
1, 21359, Note_on_c, 9, 42, 0
1, 21360, Note_on_c, 9, 42, 80
1, 21360, Note_on_c, 9, 36, 80
1, 21479, Note_on_c, 9, 42, 0
1, 21480, Note_on_c, 9, 42, 80
1, 21599, Note_on_c, 9, 36, 0
1, 21599, Note_on_c, 9, 42, 0
1, 21600, Note_on_c, 9, 42, 80
1, 21600, Note_on_c, 9, 36, 80
1, 21719, Note_on_c, 9, 42, 0
1, 21720, Note_on_c, 9, 42, 80
1, 21839, Note_on_c, 9, 42, 0
1, 21840, Note_on_c, 9, 42, 80
1, 21959, Note_on_c, 9, 42, 0
1, 21960, Note_on_c, 9, 42, 80
1, 22079, Note_on_c, 9, 36, 0
1, 22079, Note_on_c, 9, 42, 0
1, 22080, Note_on_c, 9, 38, 80
1, 22080, Note_on_c, 9, 42, 80
1, 22199, Note_on_c, 9, 38, 0
1, 22199, Note_on_c, 9, 42, 0
1, 22200, Note_on_c, 9, 42, 80
1, 22319, Note_on_c, 9, 42, 0
1, 22320, Note_on_c, 9, 42, 80
1, 22439, Note_on_c, 9, 42, 0
1, 22440, Note_on_c, 9, 42, 80
1, 22559, Note_on_c, 9, 42, 0
1, 22560, Note_on_c, 9, 42, 80
1, 22560, Note_on_c, 9, 36, 80
1, 22679, Note_on_c, 9, 42, 0
1, 22680, Note_on_c, 9, 42, 80
1, 22799, Note_on_c, 9, 42, 0
1, 22800, Note_on_c, 9, 42, 80
1, 22919, Note_on_c, 9, 42, 0
1, 22920, Note_on_c, 9, 42, 80
1, 23039, Note_on_c, 9, 36, 0
1, 23039, Note_on_c, 9, 42, 0
1, 23040, Note_on_c, 9, 49, 80
1, 23040, Note_on_c, 9, 36, 80
1, 23159, Note_on_c, 9, 49, 0
1, 23160, Note_on_c, 9, 42, 80
1, 23279, Note_on_c, 9, 42, 0
1, 23280, Note_on_c, 9, 42, 80
1, 23399, Note_on_c, 9, 42, 0
1, 23400, Note_on_c, 9, 42, 80
1, 23519, Note_on_c, 9, 36, 0
1, 23519, Note_on_c, 9, 42, 0
1, 23520, Note_on_c, 9, 42, 80
1, 23520, Note_on_c, 9, 36, 80
1, 23639, Note_on_c, 9, 42, 0
1, 23640, Note_on_c, 9, 42, 80
1, 23759, Note_on_c, 9, 42, 0
1, 23760, Note_on_c, 9, 42, 80
1, 23879, Note_on_c, 9, 42, 0
1, 23880, Note_on_c, 9, 42, 80
1, 23999, Note_on_c, 9, 36, 0
1, 23999, Note_on_c, 9, 42, 0
1, 24000, Note_on_c, 9, 38, 80
1, 24000, Note_on_c, 9, 42, 80
1, 24119, Note_on_c, 9, 38, 0
1, 24119, Note_on_c, 9, 42, 0
1, 24120, Note_on_c, 9, 42, 80
1, 24239, Note_on_c, 9, 42, 0
1, 24240, Note_on_c, 9, 42, 80
1, 24359, Note_on_c, 9, 42, 0
1, 24360, Note_on_c, 9, 42, 80
1, 24479, Note_on_c, 9, 42, 0
1, 24480, Note_on_c, 9, 42, 80
1, 24480, Note_on_c, 9, 36, 80
1, 24599, Note_on_c, 9, 42, 0
1, 24600, Note_on_c, 9, 42, 80
1, 24719, Note_on_c, 9, 42, 0
1, 24720, Note_on_c, 9, 42, 80
1, 24839, Note_on_c, 9, 42, 0
1, 24840, Note_on_c, 9, 42, 80
1, 24959, Note_on_c, 9, 36, 0
1, 24959, Note_on_c, 9, 42, 0
1, 24960, Note_on_c, 9, 42, 80
1, 25079, Note_on_c, 9, 42, 0
1, 25080, Note_on_c, 9, 42, 80
1, 25199, Note_on_c, 9, 42, 0
1, 25200, Note_on_c, 9, 42, 80
1, 25200, Note_on_c, 9, 36, 80
1, 25319, Note_on_c, 9, 42, 0
1, 25320, Note_on_c, 9, 42, 80
1, 25439, Note_on_c, 9, 36, 0
1, 25439, Note_on_c, 9, 42, 0
1, 25440, Note_on_c, 9, 42, 80
1, 25440, Note_on_c, 9, 36, 80
1, 25559, Note_on_c, 9, 42, 0
1, 25560, Note_on_c, 9, 42, 80
1, 25679, Note_on_c, 9, 42, 0
1, 25680, Note_on_c, 9, 42, 80
1, 25799, Note_on_c, 9, 42, 0
1, 25800, Note_on_c, 9, 42, 80
1, 25919, Note_on_c, 9, 36, 0
1, 25919, Note_on_c, 9, 42, 0
1, 25920, Note_on_c, 9, 38, 80
1, 25920, Note_on_c, 9, 42, 80
1, 26039, Note_on_c, 9, 38, 0
1, 26039, Note_on_c, 9, 42, 0
1, 26040, Note_on_c, 9, 42, 80
1, 26159, Note_on_c, 9, 42, 0
1, 26160, Note_on_c, 9, 42, 80
1, 26279, Note_on_c, 9, 42, 0
1, 26280, Note_on_c, 9, 42, 80
1, 26399, Note_on_c, 9, 42, 0
1, 26400, Note_on_c, 9, 42, 80
1, 26400, Note_on_c, 9, 36, 80
1, 26519, Note_on_c, 9, 42, 0
1, 26520, Note_on_c, 9, 42, 80
1, 26639, Note_on_c, 9, 36, 0
1, 26639, Note_on_c, 9, 42, 0
1, 26640, Note_on_c, 9, 42, 80
1, 26640, Note_on_c, 9, 36, 80
1, 26759, Note_on_c, 9, 42, 0
1, 26760, Note_on_c, 9, 42, 80
1, 26879, Note_on_c, 9, 36, 0
1, 26879, Note_on_c, 9, 42, 0
1, 26880, Note_on_c, 9, 42, 80
1, 26880, Note_on_c, 9, 36, 80
1, 26999, Note_on_c, 9, 42, 0
1, 27000, Note_on_c, 9, 42, 80
1, 27119, Note_on_c, 9, 42, 0
1, 27120, Note_on_c, 9, 42, 80
1, 27239, Note_on_c, 9, 42, 0
1, 27240, Note_on_c, 9, 42, 80
1, 27359, Note_on_c, 9, 36, 0
1, 27359, Note_on_c, 9, 42, 0
1, 27360, Note_on_c, 9, 42, 80
1, 27360, Note_on_c, 9, 36, 80
1, 27479, Note_on_c, 9, 42, 0
1, 27480, Note_on_c, 9, 42, 80
1, 27599, Note_on_c, 9, 42, 0
1, 27600, Note_on_c, 9, 42, 80
1, 27719, Note_on_c, 9, 42, 0
1, 27720, Note_on_c, 9, 42, 80
1, 27839, Note_on_c, 9, 36, 0
1, 27839, Note_on_c, 9, 42, 0
1, 27840, Note_on_c, 9, 38, 80
1, 27840, Note_on_c, 9, 42, 80
1, 27959, Note_on_c, 9, 38, 0
1, 27959, Note_on_c, 9, 42, 0
1, 27960, Note_on_c, 9, 42, 80
1, 28079, Note_on_c, 9, 42, 0
1, 28080, Note_on_c, 9, 42, 80
1, 28199, Note_on_c, 9, 42, 0
1, 28200, Note_on_c, 9, 42, 80
1, 28319, Note_on_c, 9, 42, 0
1, 28320, Note_on_c, 9, 42, 80
1, 28320, Note_on_c, 9, 36, 80
1, 28439, Note_on_c, 9, 42, 0
1, 28440, Note_on_c, 9, 42, 80
1, 28559, Note_on_c, 9, 42, 0
1, 28560, Note_on_c, 9, 42, 80
1, 28679, Note_on_c, 9, 42, 0
1, 28680, Note_on_c, 9, 42, 80
1, 28799, Note_on_c, 9, 36, 0
1, 28799, Note_on_c, 9, 42, 0
1, 28800, Note_on_c, 9, 42, 80
1, 28919, Note_on_c, 9, 42, 0
1, 28920, Note_on_c, 9, 42, 80
1, 29039, Note_on_c, 9, 42, 0
1, 29040, Note_on_c, 9, 42, 80
1, 29040, Note_on_c, 9, 36, 80
1, 29159, Note_on_c, 9, 42, 0
1, 29160, Note_on_c, 9, 42, 80
1, 29279, Note_on_c, 9, 36, 0
1, 29279, Note_on_c, 9, 42, 0
1, 29280, Note_on_c, 9, 42, 80
1, 29280, Note_on_c, 9, 36, 80
1, 29399, Note_on_c, 9, 42, 0
1, 29400, Note_on_c, 9, 42, 80
1, 29519, Note_on_c, 9, 42, 0
1, 29520, Note_on_c, 9, 42, 80
1, 29639, Note_on_c, 9, 42, 0
1, 29640, Note_on_c, 9, 42, 80
1, 29759, Note_on_c, 9, 36, 0
1, 29759, Note_on_c, 9, 42, 0
1, 29760, Note_on_c, 9, 38, 80
1, 29760, Note_on_c, 9, 42, 80
1, 29879, Note_on_c, 9, 38, 0
1, 29879, Note_on_c, 9, 42, 0
1, 29880, Note_on_c, 9, 42, 80
1, 29999, Note_on_c, 9, 42, 0
1, 30000, Note_on_c, 9, 48, 80
1, 30119, Note_on_c, 9, 48, 0
1, 30120, Note_on_c, 9, 48, 80
1, 30239, Note_on_c, 9, 48, 0
1, 30240, Note_on_c, 9, 47, 80
1, 30359, Note_on_c, 9, 47, 0
1, 30360, Note_on_c, 9, 47, 80
1, 30479, Note_on_c, 9, 47, 0
1, 30480, Note_on_c, 9, 45, 80
1, 30599, Note_on_c, 9, 45, 0
1, 30600, Note_on_c, 9, 45, 80
1, 30719, Note_on_c, 9, 45, 0
1, 30720, Note_on_c, 9, 38, 80
1, 30720, Note_on_c, 9, 49, 80
1, 30720, Note_on_c, 9, 36, 80
1, 31199, Note_on_c, 9, 38, 0
1, 31199, Note_on_c, 9, 49, 0
1, 31199, Note_on_c, 9, 36, 0
1, 31200, Note_on_c, 9, 46, 80
1, 31679, Note_on_c, 9, 46, 0
1, 31680, Note_on_c, 9, 46, 80
1, 32159, Note_on_c, 9, 46, 0
1, 32160, Note_on_c, 9, 46, 80
1, 32639, Note_on_c, 9, 46, 0
1, 32640, Note_on_c, 9, 46, 80
1, 33119, Note_on_c, 9, 46, 0
1, 33120, Note_on_c, 9, 46, 80
1, 33599, Note_on_c, 9, 46, 0
1, 33600, Note_on_c, 9, 46, 80
1, 34079, Note_on_c, 9, 46, 0
1, 34080, Note_on_c, 9, 46, 80
1, 34559, Note_on_c, 9, 46, 0
1, 34560, Note_on_c, 9, 49, 80
1, 35039, Note_on_c, 9, 49, 0
1, 35040, Note_on_c, 9, 46, 80
1, 35519, Note_on_c, 9, 46, 0
1, 35520, Note_on_c, 9, 46, 80
1, 35999, Note_on_c, 9, 46, 0
1, 36000, Note_on_c, 9, 46, 80
1, 36479, Note_on_c, 9, 46, 0
1, 36480, Note_on_c, 9, 46, 80
1, 36959, Note_on_c, 9, 46, 0
1, 36960, Note_on_c, 9, 46, 80
1, 37439, Note_on_c, 9, 46, 0
1, 37440, Note_on_c, 9, 46, 80
1, 37919, Note_on_c, 9, 46, 0
1, 37920, Note_on_c, 9, 38, 80
1, 37920, Note_on_c, 9, 46, 80
1, 38399, Note_on_c, 9, 38, 0
1, 38399, Note_on_c, 9, 46, 0
1, 38400, Note_on_c, 9, 38, 80
1, 38400, Note_on_c, 9, 49, 80
1, 38400, Note_on_c, 9, 36, 80
1, 38879, Note_on_c, 9, 38, 0
1, 38879, Note_on_c, 9, 49, 0
1, 38879, Note_on_c, 9, 36, 0
1, 38880, Note_on_c, 9, 46, 80
1, 39359, Note_on_c, 9, 46, 0
1, 39360, Note_on_c, 9, 46, 80
1, 39839, Note_on_c, 9, 46, 0
1, 39840, Note_on_c, 9, 46, 80
1, 40319, Note_on_c, 9, 46, 0
1, 40320, Note_on_c, 9, 46, 80
1, 40799, Note_on_c, 9, 46, 0
1, 40800, Note_on_c, 9, 46, 80
1, 41279, Note_on_c, 9, 46, 0
1, 41280, Note_on_c, 9, 46, 80
1, 41759, Note_on_c, 9, 46, 0
1, 41760, Note_on_c, 9, 46, 80
1, 42239, Note_on_c, 9, 46, 0
1, 42240, Note_on_c, 9, 49, 80
1, 42719, Note_on_c, 9, 49, 0
1, 42720, Note_on_c, 9, 46, 80
1, 43199, Note_on_c, 9, 46, 0
1, 43200, Note_on_c, 9, 46, 80
1, 43679, Note_on_c, 9, 46, 0
1, 43680, Note_on_c, 9, 46, 80
1, 44159, Note_on_c, 9, 46, 0
1, 44160, Note_on_c, 9, 46, 80
1, 44639, Note_on_c, 9, 46, 0
1, 44640, Note_on_c, 9, 46, 80
1, 45119, Note_on_c, 9, 46, 0
1, 45120, Note_on_c, 9, 46, 80
1, 45359, Note_on_c, 9, 46, 0
1, 45360, Note_on_c, 9, 38, 80
1, 45479, Note_on_c, 9, 38, 0
1, 45480, Note_on_c, 9, 38, 80
1, 45599, Note_on_c, 9, 38, 0
1, 45600, Note_on_c, 9, 38, 80
1, 45719, Note_on_c, 9, 38, 0
1, 45720, Note_on_c, 9, 38, 80
1, 45839, Note_on_c, 9, 38, 0
1, 45840, Note_on_c, 9, 38, 80
1, 45959, Note_on_c, 9, 38, 0
1, 45960, Note_on_c, 9, 38, 80
1, 46079, Note_on_c, 9, 38, 0
1, 46080, Note_on_c, 9, 49, 80
1, 46080, Note_on_c, 9, 36, 80
1, 46199, Note_on_c, 9, 49, 0
1, 46200, Note_on_c, 9, 42, 80
1, 46319, Note_on_c, 9, 42, 0
1, 46320, Note_on_c, 9, 42, 80
1, 46439, Note_on_c, 9, 42, 0
1, 46440, Note_on_c, 9, 42, 80
1, 46559, Note_on_c, 9, 36, 0
1, 46559, Note_on_c, 9, 42, 0
1, 46560, Note_on_c, 9, 42, 80
1, 46560, Note_on_c, 9, 36, 80
1, 46679, Note_on_c, 9, 42, 0
1, 46680, Note_on_c, 9, 42, 80
1, 46799, Note_on_c, 9, 42, 0
1, 46800, Note_on_c, 9, 42, 80
1, 46919, Note_on_c, 9, 42, 0
1, 46920, Note_on_c, 9, 42, 80
1, 47039, Note_on_c, 9, 36, 0
1, 47039, Note_on_c, 9, 42, 0
1, 47040, Note_on_c, 9, 38, 80
1, 47040, Note_on_c, 9, 42, 80
1, 47159, Note_on_c, 9, 38, 0
1, 47159, Note_on_c, 9, 42, 0
1, 47160, Note_on_c, 9, 42, 80
1, 47279, Note_on_c, 9, 42, 0
1, 47280, Note_on_c, 9, 42, 80
1, 47399, Note_on_c, 9, 42, 0
1, 47400, Note_on_c, 9, 42, 80
1, 47519, Note_on_c, 9, 42, 0
1, 47520, Note_on_c, 9, 42, 80
1, 47520, Note_on_c, 9, 36, 80
1, 47639, Note_on_c, 9, 42, 0
1, 47640, Note_on_c, 9, 42, 80
1, 47759, Note_on_c, 9, 42, 0
1, 47760, Note_on_c, 9, 42, 80
1, 47879, Note_on_c, 9, 42, 0
1, 47880, Note_on_c, 9, 42, 80
1, 47999, Note_on_c, 9, 36, 0
1, 47999, Note_on_c, 9, 42, 0
1, 48000, Note_on_c, 9, 42, 80
1, 48119, Note_on_c, 9, 42, 0
1, 48120, Note_on_c, 9, 42, 80
1, 48239, Note_on_c, 9, 42, 0
1, 48240, Note_on_c, 9, 42, 80
1, 48240, Note_on_c, 9, 36, 80
1, 48359, Note_on_c, 9, 42, 0
1, 48360, Note_on_c, 9, 42, 80
1, 48479, Note_on_c, 9, 36, 0
1, 48479, Note_on_c, 9, 42, 0
1, 48480, Note_on_c, 9, 42, 80
1, 48480, Note_on_c, 9, 36, 80
1, 48599, Note_on_c, 9, 42, 0
1, 48600, Note_on_c, 9, 42, 80
1, 48719, Note_on_c, 9, 42, 0
1, 48720, Note_on_c, 9, 42, 80
1, 48839, Note_on_c, 9, 42, 0
1, 48840, Note_on_c, 9, 42, 80
1, 48959, Note_on_c, 9, 36, 0
1, 48959, Note_on_c, 9, 42, 0
1, 48960, Note_on_c, 9, 38, 80
1, 48960, Note_on_c, 9, 42, 80
1, 49079, Note_on_c, 9, 38, 0
1, 49079, Note_on_c, 9, 42, 0
1, 49080, Note_on_c, 9, 42, 80
1, 49199, Note_on_c, 9, 42, 0
1, 49200, Note_on_c, 9, 42, 80
1, 49319, Note_on_c, 9, 42, 0
1, 49320, Note_on_c, 9, 42, 80
1, 49439, Note_on_c, 9, 42, 0
1, 49440, Note_on_c, 9, 42, 80
1, 49440, Note_on_c, 9, 36, 80
1, 49559, Note_on_c, 9, 42, 0
1, 49560, Note_on_c, 9, 42, 80
1, 49679, Note_on_c, 9, 36, 0
1, 49679, Note_on_c, 9, 42, 0
1, 49680, Note_on_c, 9, 42, 80
1, 49680, Note_on_c, 9, 36, 80
1, 49799, Note_on_c, 9, 42, 0
1, 49800, Note_on_c, 9, 42, 80
1, 49919, Note_on_c, 9, 36, 0
1, 49919, Note_on_c, 9, 42, 0
1, 49920, Note_on_c, 9, 42, 80
1, 49920, Note_on_c, 9, 36, 80
1, 50039, Note_on_c, 9, 42, 0
1, 50040, Note_on_c, 9, 42, 80
1, 50159, Note_on_c, 9, 42, 0
1, 50160, Note_on_c, 9, 42, 80
1, 50279, Note_on_c, 9, 42, 0
1, 50280, Note_on_c, 9, 42, 80
1, 50399, Note_on_c, 9, 36, 0
1, 50399, Note_on_c, 9, 42, 0
1, 50400, Note_on_c, 9, 42, 80
1, 50400, Note_on_c, 9, 36, 80
1, 50519, Note_on_c, 9, 42, 0
1, 50520, Note_on_c, 9, 42, 80
1, 50639, Note_on_c, 9, 42, 0
1, 50640, Note_on_c, 9, 42, 80
1, 50759, Note_on_c, 9, 42, 0
1, 50760, Note_on_c, 9, 42, 80
1, 50879, Note_on_c, 9, 36, 0
1, 50879, Note_on_c, 9, 42, 0
1, 50880, Note_on_c, 9, 38, 80
1, 50880, Note_on_c, 9, 42, 80
1, 50999, Note_on_c, 9, 38, 0
1, 50999, Note_on_c, 9, 42, 0
1, 51000, Note_on_c, 9, 42, 80
1, 51119, Note_on_c, 9, 42, 0
1, 51120, Note_on_c, 9, 42, 80
1, 51239, Note_on_c, 9, 42, 0
1, 51240, Note_on_c, 9, 42, 80
1, 51359, Note_on_c, 9, 42, 0
1, 51360, Note_on_c, 9, 42, 80
1, 51360, Note_on_c, 9, 36, 80
1, 51479, Note_on_c, 9, 42, 0
1, 51480, Note_on_c, 9, 42, 80
1, 51599, Note_on_c, 9, 42, 0
1, 51600, Note_on_c, 9, 42, 80
1, 51719, Note_on_c, 9, 42, 0
1, 51720, Note_on_c, 9, 42, 80
1, 51839, Note_on_c, 9, 36, 0
1, 51839, Note_on_c, 9, 42, 0
1, 51840, Note_on_c, 9, 42, 80
1, 51959, Note_on_c, 9, 42, 0
1, 51960, Note_on_c, 9, 42, 80
1, 52079, Note_on_c, 9, 42, 0
1, 52080, Note_on_c, 9, 42, 80
1, 52080, Note_on_c, 9, 36, 80
1, 52199, Note_on_c, 9, 42, 0
1, 52200, Note_on_c, 9, 42, 80
1, 52319, Note_on_c, 9, 36, 0
1, 52319, Note_on_c, 9, 42, 0
1, 52320, Note_on_c, 9, 42, 80
1, 52320, Note_on_c, 9, 36, 80
1, 52439, Note_on_c, 9, 42, 0
1, 52440, Note_on_c, 9, 42, 80
1, 52559, Note_on_c, 9, 42, 0
1, 52560, Note_on_c, 9, 42, 80
1, 52679, Note_on_c, 9, 42, 0
1, 52680, Note_on_c, 9, 42, 80
1, 52799, Note_on_c, 9, 36, 0
1, 52799, Note_on_c, 9, 42, 0
1, 52800, Note_on_c, 9, 38, 80
1, 52800, Note_on_c, 9, 42, 80
1, 52919, Note_on_c, 9, 38, 0
1, 52919, Note_on_c, 9, 42, 0
1, 52920, Note_on_c, 9, 42, 80
1, 53039, Note_on_c, 9, 42, 0
1, 53040, Note_on_c, 9, 42, 80
1, 53159, Note_on_c, 9, 42, 0
1, 53160, Note_on_c, 9, 42, 80
1, 53279, Note_on_c, 9, 42, 0
1, 53280, Note_on_c, 9, 42, 80
1, 53280, Note_on_c, 9, 36, 80
1, 53399, Note_on_c, 9, 42, 0
1, 53400, Note_on_c, 9, 42, 80
1, 53519, Note_on_c, 9, 42, 0
1, 53520, Note_on_c, 9, 42, 80
1, 53639, Note_on_c, 9, 42, 0
1, 53640, Note_on_c, 9, 42, 80
1, 53759, Note_on_c, 9, 36, 0
1, 53759, Note_on_c, 9, 42, 0
1, 53760, Note_on_c, 9, 49, 80
1, 53760, Note_on_c, 9, 36, 80
1, 53879, Note_on_c, 9, 49, 0
1, 53880, Note_on_c, 9, 42, 80
1, 53999, Note_on_c, 9, 42, 0
1, 54000, Note_on_c, 9, 42, 80
1, 54119, Note_on_c, 9, 42, 0
1, 54120, Note_on_c, 9, 42, 80
1, 54239, Note_on_c, 9, 36, 0
1, 54239, Note_on_c, 9, 42, 0
1, 54240, Note_on_c, 9, 42, 80
1, 54240, Note_on_c, 9, 36, 80
1, 54359, Note_on_c, 9, 42, 0
1, 54360, Note_on_c, 9, 42, 80
1, 54479, Note_on_c, 9, 42, 0
1, 54480, Note_on_c, 9, 42, 80
1, 54599, Note_on_c, 9, 42, 0
1, 54600, Note_on_c, 9, 42, 80
1, 54719, Note_on_c, 9, 36, 0
1, 54719, Note_on_c, 9, 42, 0
1, 54720, Note_on_c, 9, 38, 80
1, 54720, Note_on_c, 9, 42, 80
1, 54839, Note_on_c, 9, 38, 0
1, 54839, Note_on_c, 9, 42, 0
1, 54840, Note_on_c, 9, 42, 80
1, 54959, Note_on_c, 9, 42, 0
1, 54960, Note_on_c, 9, 42, 80
1, 55079, Note_on_c, 9, 42, 0
1, 55080, Note_on_c, 9, 42, 80
1, 55199, Note_on_c, 9, 42, 0
1, 55200, Note_on_c, 9, 42, 80
1, 55200, Note_on_c, 9, 36, 80
1, 55319, Note_on_c, 9, 42, 0
1, 55320, Note_on_c, 9, 42, 80
1, 55439, Note_on_c, 9, 42, 0
1, 55440, Note_on_c, 9, 42, 80
1, 55559, Note_on_c, 9, 42, 0
1, 55560, Note_on_c, 9, 42, 80
1, 55679, Note_on_c, 9, 36, 0
1, 55679, Note_on_c, 9, 42, 0
1, 55680, Note_on_c, 9, 42, 80
1, 55799, Note_on_c, 9, 42, 0
1, 55800, Note_on_c, 9, 42, 80
1, 55919, Note_on_c, 9, 42, 0
1, 55920, Note_on_c, 9, 42, 80
1, 55920, Note_on_c, 9, 36, 80
1, 56039, Note_on_c, 9, 42, 0
1, 56040, Note_on_c, 9, 42, 80
1, 56159, Note_on_c, 9, 36, 0
1, 56159, Note_on_c, 9, 42, 0
1, 56160, Note_on_c, 9, 42, 80
1, 56160, Note_on_c, 9, 36, 80
1, 56279, Note_on_c, 9, 42, 0
1, 56280, Note_on_c, 9, 42, 80
1, 56399, Note_on_c, 9, 42, 0
1, 56400, Note_on_c, 9, 42, 80
1, 56519, Note_on_c, 9, 42, 0
1, 56520, Note_on_c, 9, 42, 80
1, 56639, Note_on_c, 9, 36, 0
1, 56639, Note_on_c, 9, 42, 0
1, 56640, Note_on_c, 9, 38, 80
1, 56640, Note_on_c, 9, 42, 80
1, 56759, Note_on_c, 9, 38, 0
1, 56759, Note_on_c, 9, 42, 0
1, 56760, Note_on_c, 9, 42, 80
1, 56879, Note_on_c, 9, 42, 0
1, 56880, Note_on_c, 9, 42, 80
1, 56999, Note_on_c, 9, 42, 0
1, 57000, Note_on_c, 9, 42, 80
1, 57119, Note_on_c, 9, 42, 0
1, 57120, Note_on_c, 9, 42, 80
1, 57120, Note_on_c, 9, 36, 80
1, 57239, Note_on_c, 9, 42, 0
1, 57240, Note_on_c, 9, 42, 80
1, 57359, Note_on_c, 9, 36, 0
1, 57359, Note_on_c, 9, 42, 0
1, 57360, Note_on_c, 9, 42, 80
1, 57360, Note_on_c, 9, 36, 80
1, 57479, Note_on_c, 9, 42, 0
1, 57480, Note_on_c, 9, 42, 80
1, 57599, Note_on_c, 9, 36, 0
1, 57599, Note_on_c, 9, 42, 0
1, 57600, Note_on_c, 9, 42, 80
1, 57600, Note_on_c, 9, 36, 80
1, 57719, Note_on_c, 9, 42, 0
1, 57720, Note_on_c, 9, 42, 80
1, 57839, Note_on_c, 9, 42, 0
1, 57840, Note_on_c, 9, 42, 80
1, 57959, Note_on_c, 9, 42, 0
1, 57960, Note_on_c, 9, 42, 80
1, 58079, Note_on_c, 9, 36, 0
1, 58079, Note_on_c, 9, 42, 0
1, 58080, Note_on_c, 9, 42, 80
1, 58080, Note_on_c, 9, 36, 80
1, 58199, Note_on_c, 9, 42, 0
1, 58200, Note_on_c, 9, 42, 80
1, 58319, Note_on_c, 9, 42, 0
1, 58320, Note_on_c, 9, 42, 80
1, 58439, Note_on_c, 9, 42, 0
1, 58440, Note_on_c, 9, 42, 80
1, 58559, Note_on_c, 9, 36, 0
1, 58559, Note_on_c, 9, 42, 0
1, 58560, Note_on_c, 9, 38, 80
1, 58560, Note_on_c, 9, 42, 80
1, 58679, Note_on_c, 9, 38, 0
1, 58679, Note_on_c, 9, 42, 0
1, 58680, Note_on_c, 9, 42, 80
1, 58799, Note_on_c, 9, 42, 0
1, 58800, Note_on_c, 9, 42, 80
1, 58919, Note_on_c, 9, 42, 0
1, 58920, Note_on_c, 9, 42, 80
1, 59039, Note_on_c, 9, 42, 0
1, 59040, Note_on_c, 9, 42, 80
1, 59040, Note_on_c, 9, 36, 80
1, 59159, Note_on_c, 9, 42, 0
1, 59160, Note_on_c, 9, 42, 80
1, 59279, Note_on_c, 9, 42, 0
1, 59280, Note_on_c, 9, 42, 80
1, 59399, Note_on_c, 9, 42, 0
1, 59400, Note_on_c, 9, 42, 80
1, 59519, Note_on_c, 9, 36, 0
1, 59519, Note_on_c, 9, 42, 0
1, 59520, Note_on_c, 9, 42, 80
1, 59639, Note_on_c, 9, 42, 0
1, 59640, Note_on_c, 9, 42, 80
1, 59759, Note_on_c, 9, 42, 0
1, 59760, Note_on_c, 9, 42, 80
1, 59760, Note_on_c, 9, 36, 80
1, 59879, Note_on_c, 9, 42, 0
1, 59880, Note_on_c, 9, 42, 80
1, 59999, Note_on_c, 9, 36, 0
1, 59999, Note_on_c, 9, 42, 0
1, 60000, Note_on_c, 9, 42, 80
1, 60000, Note_on_c, 9, 36, 80
1, 60119, Note_on_c, 9, 42, 0
1, 60120, Note_on_c, 9, 42, 80
1, 60239, Note_on_c, 9, 42, 0
1, 60240, Note_on_c, 9, 42, 80
1, 60359, Note_on_c, 9, 42, 0
1, 60360, Note_on_c, 9, 42, 80
1, 60479, Note_on_c, 9, 36, 0
1, 60479, Note_on_c, 9, 42, 0
1, 60480, Note_on_c, 9, 38, 80
1, 60480, Note_on_c, 9, 42, 80
1, 60599, Note_on_c, 9, 38, 0
1, 60599, Note_on_c, 9, 42, 0
1, 60600, Note_on_c, 9, 42, 80
1, 60719, Note_on_c, 9, 42, 0
1, 60720, Note_on_c, 9, 48, 80
1, 60839, Note_on_c, 9, 48, 0
1, 60840, Note_on_c, 9, 48, 80
1, 60959, Note_on_c, 9, 48, 0
1, 60960, Note_on_c, 9, 47, 80
1, 61079, Note_on_c, 9, 47, 0
1, 61080, Note_on_c, 9, 47, 80
1, 61199, Note_on_c, 9, 47, 0
1, 61200, Note_on_c, 9, 45, 80
1, 61319, Note_on_c, 9, 45, 0
1, 61320, Note_on_c, 9, 45, 80
1, 61439, Note_on_c, 9, 45, 0
1, 61440, Note_on_c, 9, 49, 80
1, 61440, Note_on_c, 9, 36, 80
1, 61559, Note_on_c, 9, 49, 0
1, 61560, Note_on_c, 9, 42, 80
1, 61679, Note_on_c, 9, 42, 0
1, 61680, Note_on_c, 9, 42, 80
1, 61799, Note_on_c, 9, 42, 0
1, 61800, Note_on_c, 9, 42, 80
1, 61919, Note_on_c, 9, 36, 0
1, 61919, Note_on_c, 9, 42, 0
1, 61920, Note_on_c, 9, 42, 80
1, 61920, Note_on_c, 9, 36, 80
1, 62039, Note_on_c, 9, 42, 0
1, 62040, Note_on_c, 9, 42, 80
1, 62159, Note_on_c, 9, 42, 0
1, 62160, Note_on_c, 9, 42, 80
1, 62279, Note_on_c, 9, 42, 0
1, 62280, Note_on_c, 9, 42, 80
1, 62399, Note_on_c, 9, 36, 0
1, 62399, Note_on_c, 9, 42, 0
1, 62400, Note_on_c, 9, 38, 80
1, 62400, Note_on_c, 9, 42, 80
1, 62519, Note_on_c, 9, 38, 0
1, 62519, Note_on_c, 9, 42, 0
1, 62520, Note_on_c, 9, 42, 80
1, 62639, Note_on_c, 9, 42, 0
1, 62640, Note_on_c, 9, 42, 80
1, 62759, Note_on_c, 9, 42, 0
1, 62760, Note_on_c, 9, 42, 80
1, 62879, Note_on_c, 9, 42, 0
1, 62880, Note_on_c, 9, 42, 80
1, 62880, Note_on_c, 9, 36, 80
1, 62999, Note_on_c, 9, 42, 0
1, 63000, Note_on_c, 9, 42, 80
1, 63119, Note_on_c, 9, 42, 0
1, 63120, Note_on_c, 9, 42, 80
1, 63239, Note_on_c, 9, 42, 0
1, 63240, Note_on_c, 9, 42, 80
1, 63359, Note_on_c, 9, 36, 0
1, 63359, Note_on_c, 9, 42, 0
1, 63360, Note_on_c, 9, 42, 80
1, 63479, Note_on_c, 9, 42, 0
1, 63480, Note_on_c, 9, 42, 80
1, 63599, Note_on_c, 9, 42, 0
1, 63600, Note_on_c, 9, 42, 80
1, 63600, Note_on_c, 9, 36, 80
1, 63719, Note_on_c, 9, 42, 0
1, 63720, Note_on_c, 9, 42, 80
1, 63839, Note_on_c, 9, 36, 0
1, 63839, Note_on_c, 9, 42, 0
1, 63840, Note_on_c, 9, 42, 80
1, 63840, Note_on_c, 9, 36, 80
1, 63959, Note_on_c, 9, 42, 0
1, 63960, Note_on_c, 9, 42, 80
1, 64079, Note_on_c, 9, 42, 0
1, 64080, Note_on_c, 9, 42, 80
1, 64199, Note_on_c, 9, 42, 0
1, 64200, Note_on_c, 9, 42, 80
1, 64319, Note_on_c, 9, 36, 0
1, 64319, Note_on_c, 9, 42, 0
1, 64320, Note_on_c, 9, 38, 80
1, 64320, Note_on_c, 9, 42, 80
1, 64439, Note_on_c, 9, 38, 0
1, 64439, Note_on_c, 9, 42, 0
1, 64440, Note_on_c, 9, 42, 80
1, 64559, Note_on_c, 9, 42, 0
1, 64560, Note_on_c, 9, 42, 80
1, 64679, Note_on_c, 9, 42, 0
1, 64680, Note_on_c, 9, 42, 80
1, 64799, Note_on_c, 9, 42, 0
1, 64800, Note_on_c, 9, 42, 80
1, 64800, Note_on_c, 9, 36, 80
1, 64919, Note_on_c, 9, 42, 0
1, 64920, Note_on_c, 9, 42, 80
1, 65039, Note_on_c, 9, 36, 0
1, 65039, Note_on_c, 9, 42, 0
1, 65040, Note_on_c, 9, 42, 80
1, 65040, Note_on_c, 9, 36, 80
1, 65159, Note_on_c, 9, 42, 0
1, 65160, Note_on_c, 9, 42, 80
1, 65279, Note_on_c, 9, 36, 0
1, 65279, Note_on_c, 9, 42, 0
1, 65280, Note_on_c, 9, 42, 80
1, 65280, Note_on_c, 9, 36, 80
1, 65399, Note_on_c, 9, 42, 0
1, 65400, Note_on_c, 9, 42, 80
1, 65519, Note_on_c, 9, 42, 0
1, 65520, Note_on_c, 9, 42, 80
1, 65639, Note_on_c, 9, 42, 0
1, 65640, Note_on_c, 9, 42, 80
1, 65759, Note_on_c, 9, 36, 0
1, 65759, Note_on_c, 9, 42, 0
1, 65760, Note_on_c, 9, 42, 80
1, 65760, Note_on_c, 9, 36, 80
1, 65879, Note_on_c, 9, 42, 0
1, 65880, Note_on_c, 9, 42, 80
1, 65999, Note_on_c, 9, 42, 0
1, 66000, Note_on_c, 9, 42, 80
1, 66119, Note_on_c, 9, 42, 0
1, 66120, Note_on_c, 9, 42, 80
1, 66239, Note_on_c, 9, 36, 0
1, 66239, Note_on_c, 9, 42, 0
1, 66240, Note_on_c, 9, 38, 80
1, 66240, Note_on_c, 9, 42, 80
1, 66359, Note_on_c, 9, 38, 0
1, 66359, Note_on_c, 9, 42, 0
1, 66360, Note_on_c, 9, 42, 80
1, 66479, Note_on_c, 9, 42, 0
1, 66480, Note_on_c, 9, 42, 80
1, 66599, Note_on_c, 9, 42, 0
1, 66600, Note_on_c, 9, 42, 80
1, 66719, Note_on_c, 9, 42, 0
1, 66720, Note_on_c, 9, 42, 80
1, 66720, Note_on_c, 9, 36, 80
1, 66839, Note_on_c, 9, 42, 0
1, 66840, Note_on_c, 9, 42, 80
1, 66959, Note_on_c, 9, 42, 0
1, 66960, Note_on_c, 9, 42, 80
1, 67079, Note_on_c, 9, 42, 0
1, 67080, Note_on_c, 9, 42, 80
1, 67199, Note_on_c, 9, 36, 0
1, 67199, Note_on_c, 9, 42, 0
1, 67200, Note_on_c, 9, 42, 80
1, 67319, Note_on_c, 9, 42, 0
1, 67320, Note_on_c, 9, 42, 80
1, 67439, Note_on_c, 9, 42, 0
1, 67440, Note_on_c, 9, 42, 80
1, 67440, Note_on_c, 9, 36, 80
1, 67559, Note_on_c, 9, 42, 0
1, 67560, Note_on_c, 9, 42, 80
1, 67679, Note_on_c, 9, 36, 0
1, 67679, Note_on_c, 9, 42, 0
1, 67680, Note_on_c, 9, 42, 80
1, 67680, Note_on_c, 9, 36, 80
1, 67799, Note_on_c, 9, 42, 0
1, 67800, Note_on_c, 9, 42, 80
1, 67919, Note_on_c, 9, 42, 0
1, 67920, Note_on_c, 9, 42, 80
1, 68039, Note_on_c, 9, 42, 0
1, 68040, Note_on_c, 9, 42, 80
1, 68159, Note_on_c, 9, 36, 0
1, 68159, Note_on_c, 9, 42, 0
1, 68160, Note_on_c, 9, 38, 80
1, 68160, Note_on_c, 9, 42, 80
1, 68279, Note_on_c, 9, 38, 0
1, 68279, Note_on_c, 9, 42, 0
1, 68280, Note_on_c, 9, 42, 80
1, 68399, Note_on_c, 9, 42, 0
1, 68400, Note_on_c, 9, 42, 80
1, 68519, Note_on_c, 9, 42, 0
1, 68520, Note_on_c, 9, 42, 80
1, 68639, Note_on_c, 9, 42, 0
1, 68640, Note_on_c, 9, 42, 80
1, 68640, Note_on_c, 9, 36, 80
1, 68759, Note_on_c, 9, 42, 0
1, 68760, Note_on_c, 9, 42, 80
1, 68879, Note_on_c, 9, 42, 0
1, 68880, Note_on_c, 9, 42, 80
1, 68999, Note_on_c, 9, 42, 0
1, 69000, Note_on_c, 9, 42, 80
1, 69119, Note_on_c, 9, 36, 0
1, 69119, Note_on_c, 9, 42, 0
1, 69120, Note_on_c, 9, 49, 80
1, 69120, Note_on_c, 9, 36, 80
1, 69239, Note_on_c, 9, 49, 0
1, 69240, Note_on_c, 9, 42, 80
1, 69359, Note_on_c, 9, 42, 0
1, 69360, Note_on_c, 9, 42, 80
1, 69479, Note_on_c, 9, 42, 0
1, 69480, Note_on_c, 9, 42, 80
1, 69599, Note_on_c, 9, 36, 0
1, 69599, Note_on_c, 9, 42, 0
1, 69600, Note_on_c, 9, 42, 80
1, 69600, Note_on_c, 9, 36, 80
1, 69719, Note_on_c, 9, 42, 0
1, 69720, Note_on_c, 9, 42, 80
1, 69839, Note_on_c, 9, 42, 0
1, 69840, Note_on_c, 9, 42, 80
1, 69959, Note_on_c, 9, 42, 0
1, 69960, Note_on_c, 9, 42, 80
1, 70079, Note_on_c, 9, 36, 0
1, 70079, Note_on_c, 9, 42, 0
1, 70080, Note_on_c, 9, 38, 80
1, 70080, Note_on_c, 9, 42, 80
1, 70199, Note_on_c, 9, 38, 0
1, 70199, Note_on_c, 9, 42, 0
1, 70200, Note_on_c, 9, 42, 80
1, 70319, Note_on_c, 9, 42, 0
1, 70320, Note_on_c, 9, 42, 80
1, 70439, Note_on_c, 9, 42, 0
1, 70440, Note_on_c, 9, 42, 80
1, 70559, Note_on_c, 9, 42, 0
1, 70560, Note_on_c, 9, 42, 80
1, 70560, Note_on_c, 9, 36, 80
1, 70679, Note_on_c, 9, 42, 0
1, 70680, Note_on_c, 9, 42, 80
1, 70799, Note_on_c, 9, 42, 0
1, 70800, Note_on_c, 9, 42, 80
1, 70919, Note_on_c, 9, 42, 0
1, 70920, Note_on_c, 9, 42, 80
1, 71039, Note_on_c, 9, 36, 0
1, 71039, Note_on_c, 9, 42, 0
1, 71040, Note_on_c, 9, 42, 80
1, 71159, Note_on_c, 9, 42, 0
1, 71160, Note_on_c, 9, 42, 80
1, 71279, Note_on_c, 9, 42, 0
1, 71280, Note_on_c, 9, 42, 80
1, 71280, Note_on_c, 9, 36, 80
1, 71399, Note_on_c, 9, 42, 0
1, 71400, Note_on_c, 9, 42, 80
1, 71519, Note_on_c, 9, 36, 0
1, 71519, Note_on_c, 9, 42, 0
1, 71520, Note_on_c, 9, 42, 80
1, 71520, Note_on_c, 9, 36, 80
1, 71639, Note_on_c, 9, 42, 0
1, 71640, Note_on_c, 9, 42, 80
1, 71759, Note_on_c, 9, 42, 0
1, 71760, Note_on_c, 9, 42, 80
1, 71879, Note_on_c, 9, 42, 0
1, 71880, Note_on_c, 9, 42, 80
1, 71999, Note_on_c, 9, 36, 0
1, 71999, Note_on_c, 9, 42, 0
1, 72000, Note_on_c, 9, 38, 80
1, 72000, Note_on_c, 9, 42, 80
1, 72119, Note_on_c, 9, 38, 0
1, 72119, Note_on_c, 9, 42, 0
1, 72120, Note_on_c, 9, 42, 80
1, 72239, Note_on_c, 9, 42, 0
1, 72240, Note_on_c, 9, 42, 80
1, 72359, Note_on_c, 9, 42, 0
1, 72360, Note_on_c, 9, 42, 80
1, 72479, Note_on_c, 9, 42, 0
1, 72480, Note_on_c, 9, 42, 80
1, 72480, Note_on_c, 9, 36, 80
1, 72599, Note_on_c, 9, 42, 0
1, 72600, Note_on_c, 9, 42, 80
1, 72719, Note_on_c, 9, 36, 0
1, 72719, Note_on_c, 9, 42, 0
1, 72720, Note_on_c, 9, 42, 80
1, 72720, Note_on_c, 9, 36, 80
1, 72839, Note_on_c, 9, 42, 0
1, 72840, Note_on_c, 9, 42, 80
1, 72959, Note_on_c, 9, 36, 0
1, 72959, Note_on_c, 9, 42, 0
1, 72960, Note_on_c, 9, 42, 80
1, 72960, Note_on_c, 9, 36, 80
1, 73079, Note_on_c, 9, 42, 0
1, 73080, Note_on_c, 9, 42, 80
1, 73199, Note_on_c, 9, 42, 0
1, 73200, Note_on_c, 9, 42, 80
1, 73319, Note_on_c, 9, 42, 0
1, 73320, Note_on_c, 9, 42, 80
1, 73439, Note_on_c, 9, 36, 0
1, 73439, Note_on_c, 9, 42, 0
1, 73440, Note_on_c, 9, 42, 80
1, 73440, Note_on_c, 9, 36, 80
1, 73559, Note_on_c, 9, 42, 0
1, 73560, Note_on_c, 9, 42, 80
1, 73679, Note_on_c, 9, 42, 0
1, 73680, Note_on_c, 9, 42, 80
1, 73799, Note_on_c, 9, 42, 0
1, 73800, Note_on_c, 9, 42, 80
1, 73919, Note_on_c, 9, 36, 0
1, 73919, Note_on_c, 9, 42, 0
1, 73920, Note_on_c, 9, 38, 80
1, 73920, Note_on_c, 9, 42, 80
1, 74039, Note_on_c, 9, 38, 0
1, 74039, Note_on_c, 9, 42, 0
1, 74040, Note_on_c, 9, 42, 80
1, 74159, Note_on_c, 9, 42, 0
1, 74160, Note_on_c, 9, 42, 80
1, 74279, Note_on_c, 9, 42, 0
1, 74280, Note_on_c, 9, 42, 80
1, 74399, Note_on_c, 9, 42, 0
1, 74400, Note_on_c, 9, 42, 80
1, 74400, Note_on_c, 9, 36, 80
1, 74519, Note_on_c, 9, 42, 0
1, 74520, Note_on_c, 9, 42, 80
1, 74639, Note_on_c, 9, 42, 0
1, 74640, Note_on_c, 9, 42, 80
1, 74759, Note_on_c, 9, 42, 0
1, 74760, Note_on_c, 9, 42, 80
1, 74879, Note_on_c, 9, 36, 0
1, 74879, Note_on_c, 9, 42, 0
1, 74880, Note_on_c, 9, 42, 80
1, 74999, Note_on_c, 9, 42, 0
1, 75000, Note_on_c, 9, 42, 80
1, 75119, Note_on_c, 9, 42, 0
1, 75120, Note_on_c, 9, 42, 80
1, 75120, Note_on_c, 9, 36, 80
1, 75239, Note_on_c, 9, 42, 0
1, 75240, Note_on_c, 9, 42, 80
1, 75359, Note_on_c, 9, 36, 0
1, 75359, Note_on_c, 9, 42, 0
1, 75360, Note_on_c, 9, 42, 80
1, 75360, Note_on_c, 9, 36, 80
1, 75479, Note_on_c, 9, 42, 0
1, 75480, Note_on_c, 9, 42, 80
1, 75599, Note_on_c, 9, 42, 0
1, 75600, Note_on_c, 9, 42, 80
1, 75719, Note_on_c, 9, 42, 0
1, 75720, Note_on_c, 9, 42, 80
1, 75839, Note_on_c, 9, 36, 0
1, 75839, Note_on_c, 9, 42, 0
1, 75840, Note_on_c, 9, 38, 80
1, 75840, Note_on_c, 9, 42, 80
1, 75959, Note_on_c, 9, 38, 0
1, 75959, Note_on_c, 9, 42, 0
1, 75960, Note_on_c, 9, 42, 80
1, 76079, Note_on_c, 9, 42, 0
1, 76080, Note_on_c, 9, 48, 80
1, 76199, Note_on_c, 9, 48, 0
1, 76200, Note_on_c, 9, 48, 80
1, 76319, Note_on_c, 9, 48, 0
1, 76320, Note_on_c, 9, 47, 80
1, 76439, Note_on_c, 9, 47, 0
1, 76440, Note_on_c, 9, 47, 80
1, 76559, Note_on_c, 9, 47, 0
1, 76560, Note_on_c, 9, 45, 80
1, 76679, Note_on_c, 9, 45, 0
1, 76680, Note_on_c, 9, 45, 80
1, 76799, Note_on_c, 9, 45, 0
1, 76800, Note_on_c, 9, 38, 80
1, 76800, Note_on_c, 9, 49, 80
1, 76800, Note_on_c, 9, 36, 80
1, 77279, Note_on_c, 9, 38, 0
1, 77279, Note_on_c, 9, 49, 0
1, 77279, Note_on_c, 9, 36, 0
1, 77280, Note_on_c, 9, 46, 80
1, 77759, Note_on_c, 9, 46, 0
1, 77760, Note_on_c, 9, 46, 80
1, 78239, Note_on_c, 9, 46, 0
1, 78240, Note_on_c, 9, 46, 80
1, 78719, Note_on_c, 9, 46, 0
1, 78720, Note_on_c, 9, 46, 80
1, 79199, Note_on_c, 9, 46, 0
1, 79200, Note_on_c, 9, 46, 80
1, 79679, Note_on_c, 9, 46, 0
1, 79680, Note_on_c, 9, 46, 80
1, 80159, Note_on_c, 9, 46, 0
1, 80160, Note_on_c, 9, 46, 80
1, 80639, Note_on_c, 9, 46, 0
1, 80640, Note_on_c, 9, 49, 80
1, 81119, Note_on_c, 9, 49, 0
1, 81120, Note_on_c, 9, 46, 80
1, 81599, Note_on_c, 9, 46, 0
1, 81600, Note_on_c, 9, 46, 80
1, 82079, Note_on_c, 9, 46, 0
1, 82080, Note_on_c, 9, 46, 80
1, 82559, Note_on_c, 9, 46, 0
1, 82560, Note_on_c, 9, 46, 80
1, 83039, Note_on_c, 9, 46, 0
1, 83040, Note_on_c, 9, 46, 80
1, 83519, Note_on_c, 9, 46, 0
1, 83520, Note_on_c, 9, 46, 80
1, 83999, Note_on_c, 9, 46, 0
1, 84000, Note_on_c, 9, 38, 80
1, 84000, Note_on_c, 9, 46, 80
1, 84479, Note_on_c, 9, 38, 0
1, 84479, Note_on_c, 9, 46, 0
1, 84480, Note_on_c, 9, 38, 80
1, 84480, Note_on_c, 9, 49, 80
1, 84480, Note_on_c, 9, 36, 80
1, 84959, Note_on_c, 9, 38, 0
1, 84959, Note_on_c, 9, 49, 0
1, 84959, Note_on_c, 9, 36, 0
1, 84960, Note_on_c, 9, 46, 80
1, 85439, Note_on_c, 9, 46, 0
1, 85440, Note_on_c, 9, 46, 80
1, 85919, Note_on_c, 9, 46, 0
1, 85920, Note_on_c, 9, 46, 80
1, 86399, Note_on_c, 9, 46, 0
1, 86400, Note_on_c, 9, 46, 80
1, 86879, Note_on_c, 9, 46, 0
1, 86880, Note_on_c, 9, 46, 80
1, 87359, Note_on_c, 9, 46, 0
1, 87360, Note_on_c, 9, 46, 80
1, 87839, Note_on_c, 9, 46, 0
1, 87840, Note_on_c, 9, 46, 80
1, 88319, Note_on_c, 9, 46, 0
1, 88320, Note_on_c, 9, 49, 80
1, 88799, Note_on_c, 9, 49, 0
1, 88800, Note_on_c, 9, 46, 80
1, 89279, Note_on_c, 9, 46, 0
1, 89280, Note_on_c, 9, 46, 80
1, 89759, Note_on_c, 9, 46, 0
1, 89760, Note_on_c, 9, 46, 80
1, 90239, Note_on_c, 9, 46, 0
1, 90240, Note_on_c, 9, 46, 80
1, 90719, Note_on_c, 9, 46, 0
1, 90720, Note_on_c, 9, 46, 80
1, 91199, Note_on_c, 9, 46, 0
1, 91200, Note_on_c, 9, 46, 80
1, 91439, Note_on_c, 9, 46, 0
1, 91440, Note_on_c, 9, 38, 80
1, 91559, Note_on_c, 9, 38, 0
1, 91560, Note_on_c, 9, 38, 80
1, 91679, Note_on_c, 9, 38, 0
1, 91680, Note_on_c, 9, 38, 80
1, 91799, Note_on_c, 9, 38, 0
1, 91800, Note_on_c, 9, 38, 80
1, 91919, Note_on_c, 9, 38, 0
1, 91920, Note_on_c, 9, 38, 80
1, 92039, Note_on_c, 9, 38, 0
1, 92040, Note_on_c, 9, 38, 80
1, 92152, Note_on_c, 9, 38, 0
1, 92153, End_track
2, 0, Start_track
2, 0, Title_t, "Instrument_01\000"
2, 0, Key_signature, 0, "major"
2, 0, Control_c, 0, 121, 0
2, 0, Program_c, 0, 38
2, 0, Control_c, 0, 7, 100
2, 0, Control_c, 0, 10, 64
2, 0, Control_c, 0, 91, 0
2, 0, Control_c, 0, 93, 0
2, 0, MIDI_port, 0
2, 0, Note_on_c, 0, 32, 80
2, 227, Note_on_c, 0, 32, 0
2, 240, Note_on_c, 0, 32, 80
2, 467, Note_on_c, 0, 32, 0
2, 480, Note_on_c, 0, 32, 80
2, 707, Note_on_c, 0, 32, 0
2, 720, Note_on_c, 0, 32, 80
2, 947, Note_on_c, 0, 32, 0
2, 960, Note_on_c, 0, 32, 80
2, 1187, Note_on_c, 0, 32, 0
2, 1200, Note_on_c, 0, 32, 80
2, 1427, Note_on_c, 0, 32, 0
2, 1440, Note_on_c, 0, 32, 80
2, 1667, Note_on_c, 0, 32, 0
2, 1680, Note_on_c, 0, 32, 80
2, 1907, Note_on_c, 0, 32, 0
2, 1920, Note_on_c, 0, 32, 80
2, 2147, Note_on_c, 0, 32, 0
2, 2160, Note_on_c, 0, 32, 80
2, 2387, Note_on_c, 0, 32, 0
2, 2400, Note_on_c, 0, 32, 80
2, 2627, Note_on_c, 0, 32, 0
2, 2640, Note_on_c, 0, 32, 80
2, 2867, Note_on_c, 0, 32, 0
2, 2880, Note_on_c, 0, 32, 80
2, 3107, Note_on_c, 0, 32, 0
2, 3120, Note_on_c, 0, 32, 80
2, 3347, Note_on_c, 0, 32, 0
2, 3360, Note_on_c, 0, 32, 80
2, 3587, Note_on_c, 0, 32, 0
2, 3600, Note_on_c, 0, 32, 80
2, 3827, Note_on_c, 0, 32, 0
2, 3840, Note_on_c, 0, 32, 80
2, 4067, Note_on_c, 0, 32, 0
2, 4080, Note_on_c, 0, 32, 80
2, 4307, Note_on_c, 0, 32, 0
2, 4320, Note_on_c, 0, 32, 80
2, 4547, Note_on_c, 0, 32, 0
2, 4560, Note_on_c, 0, 32, 80
2, 4787, Note_on_c, 0, 32, 0
2, 4800, Note_on_c, 0, 32, 80
2, 5027, Note_on_c, 0, 32, 0
2, 5040, Note_on_c, 0, 32, 80
2, 5267, Note_on_c, 0, 32, 0
2, 5280, Note_on_c, 0, 32, 80
2, 5507, Note_on_c, 0, 32, 0
2, 5520, Note_on_c, 0, 32, 80
2, 5747, Note_on_c, 0, 32, 0
2, 5760, Note_on_c, 0, 32, 80
2, 5987, Note_on_c, 0, 32, 0
2, 6000, Note_on_c, 0, 32, 80
2, 6227, Note_on_c, 0, 32, 0
2, 6240, Note_on_c, 0, 32, 80
2, 6467, Note_on_c, 0, 32, 0
2, 6480, Note_on_c, 0, 32, 80
2, 6707, Note_on_c, 0, 32, 0
2, 6720, Note_on_c, 0, 32, 80
2, 6947, Note_on_c, 0, 32, 0
2, 6960, Note_on_c, 0, 32, 80
2, 7187, Note_on_c, 0, 32, 0
2, 7200, Note_on_c, 0, 32, 80
2, 7427, Note_on_c, 0, 32, 0
2, 7440, Note_on_c, 0, 32, 80
2, 7667, Note_on_c, 0, 32, 0
2, 7680, Note_on_c, 0, 37, 80
2, 7907, Note_on_c, 0, 37, 0
2, 7920, Note_on_c, 0, 37, 80
2, 8147, Note_on_c, 0, 37, 0
2, 8160, Note_on_c, 0, 37, 80
2, 8387, Note_on_c, 0, 37, 0
2, 8400, Note_on_c, 0, 37, 80
2, 8627, Note_on_c, 0, 37, 0
2, 8640, Note_on_c, 0, 37, 80
2, 8867, Note_on_c, 0, 37, 0
2, 8880, Note_on_c, 0, 37, 80
2, 9107, Note_on_c, 0, 37, 0
2, 9120, Note_on_c, 0, 37, 80
2, 9347, Note_on_c, 0, 37, 0
2, 9360, Note_on_c, 0, 37, 80
2, 9587, Note_on_c, 0, 37, 0
2, 9600, Note_on_c, 0, 37, 80
2, 9827, Note_on_c, 0, 37, 0
2, 9840, Note_on_c, 0, 37, 80
2, 10067, Note_on_c, 0, 37, 0
2, 10080, Note_on_c, 0, 37, 80
2, 10307, Note_on_c, 0, 37, 0
2, 10320, Note_on_c, 0, 37, 80
2, 10547, Note_on_c, 0, 37, 0
2, 10560, Note_on_c, 0, 37, 80
2, 10787, Note_on_c, 0, 37, 0
2, 10800, Note_on_c, 0, 37, 80
2, 11027, Note_on_c, 0, 37, 0
2, 11040, Note_on_c, 0, 37, 80
2, 11267, Note_on_c, 0, 37, 0
2, 11280, Note_on_c, 0, 37, 80
2, 11507, Note_on_c, 0, 37, 0
2, 11520, Note_on_c, 0, 39, 80
2, 11747, Note_on_c, 0, 39, 0
2, 11760, Note_on_c, 0, 39, 80
2, 11987, Note_on_c, 0, 39, 0
2, 12000, Note_on_c, 0, 39, 80
2, 12227, Note_on_c, 0, 39, 0
2, 12240, Note_on_c, 0, 39, 80
2, 12467, Note_on_c, 0, 39, 0
2, 12480, Note_on_c, 0, 39, 80
2, 12707, Note_on_c, 0, 39, 0
2, 12720, Note_on_c, 0, 39, 80
2, 12947, Note_on_c, 0, 39, 0
2, 12960, Note_on_c, 0, 39, 80
2, 13187, Note_on_c, 0, 39, 0
2, 13200, Note_on_c, 0, 39, 80
2, 13427, Note_on_c, 0, 39, 0
2, 13440, Note_on_c, 0, 38, 80
2, 13667, Note_on_c, 0, 38, 0
2, 13680, Note_on_c, 0, 38, 80
2, 13907, Note_on_c, 0, 38, 0
2, 13920, Note_on_c, 0, 38, 80
2, 14147, Note_on_c, 0, 38, 0
2, 14160, Note_on_c, 0, 38, 80
2, 14387, Note_on_c, 0, 38, 0
2, 14400, Note_on_c, 0, 34, 80
2, 14627, Note_on_c, 0, 34, 0
2, 14640, Note_on_c, 0, 34, 80
2, 14867, Note_on_c, 0, 34, 0
2, 14880, Note_on_c, 0, 34, 80
2, 15107, Note_on_c, 0, 34, 0
2, 15120, Note_on_c, 0, 34, 80
2, 15347, Note_on_c, 0, 34, 0
2, 15360, Note_on_c, 0, 32, 80
2, 15587, Note_on_c, 0, 32, 0
2, 15600, Note_on_c, 0, 32, 80
2, 15827, Note_on_c, 0, 32, 0
2, 15840, Note_on_c, 0, 32, 80
2, 16067, Note_on_c, 0, 32, 0
2, 16080, Note_on_c, 0, 32, 80
2, 16307, Note_on_c, 0, 32, 0
2, 16320, Note_on_c, 0, 32, 80
2, 16547, Note_on_c, 0, 32, 0
2, 16560, Note_on_c, 0, 32, 80
2, 16787, Note_on_c, 0, 32, 0
2, 16800, Note_on_c, 0, 32, 80
2, 17027, Note_on_c, 0, 32, 0
2, 17040, Note_on_c, 0, 32, 80
2, 17267, Note_on_c, 0, 32, 0
2, 17280, Note_on_c, 0, 32, 80
2, 17507, Note_on_c, 0, 32, 0
2, 17520, Note_on_c, 0, 32, 80
2, 17747, Note_on_c, 0, 32, 0
2, 17760, Note_on_c, 0, 32, 80
2, 17987, Note_on_c, 0, 32, 0
2, 18000, Note_on_c, 0, 32, 80
2, 18227, Note_on_c, 0, 32, 0
2, 18240, Note_on_c, 0, 32, 80
2, 18467, Note_on_c, 0, 32, 0
2, 18480, Note_on_c, 0, 32, 80
2, 18707, Note_on_c, 0, 32, 0
2, 18720, Note_on_c, 0, 32, 80
2, 18947, Note_on_c, 0, 32, 0
2, 18960, Note_on_c, 0, 32, 80
2, 19187, Note_on_c, 0, 32, 0
2, 19200, Note_on_c, 0, 32, 80
2, 19427, Note_on_c, 0, 32, 0
2, 19440, Note_on_c, 0, 32, 80
2, 19667, Note_on_c, 0, 32, 0
2, 19680, Note_on_c, 0, 32, 80
2, 19907, Note_on_c, 0, 32, 0
2, 19920, Note_on_c, 0, 32, 80
2, 20147, Note_on_c, 0, 32, 0
2, 20160, Note_on_c, 0, 32, 80
2, 20387, Note_on_c, 0, 32, 0
2, 20400, Note_on_c, 0, 32, 80
2, 20627, Note_on_c, 0, 32, 0
2, 20640, Note_on_c, 0, 32, 80
2, 20867, Note_on_c, 0, 32, 0
2, 20880, Note_on_c, 0, 32, 80
2, 21107, Note_on_c, 0, 32, 0
2, 21120, Note_on_c, 0, 32, 80
2, 21347, Note_on_c, 0, 32, 0
2, 21360, Note_on_c, 0, 32, 80
2, 21587, Note_on_c, 0, 32, 0
2, 21600, Note_on_c, 0, 32, 80
2, 21827, Note_on_c, 0, 32, 0
2, 21840, Note_on_c, 0, 32, 80
2, 22067, Note_on_c, 0, 32, 0
2, 22080, Note_on_c, 0, 32, 80
2, 22307, Note_on_c, 0, 32, 0
2, 22320, Note_on_c, 0, 32, 80
2, 22547, Note_on_c, 0, 32, 0
2, 22560, Note_on_c, 0, 32, 80
2, 22787, Note_on_c, 0, 32, 0
2, 22800, Note_on_c, 0, 32, 80
2, 23027, Note_on_c, 0, 32, 0
2, 23040, Note_on_c, 0, 37, 80
2, 23267, Note_on_c, 0, 37, 0
2, 23280, Note_on_c, 0, 37, 80
2, 23507, Note_on_c, 0, 37, 0
2, 23520, Note_on_c, 0, 37, 80
2, 23747, Note_on_c, 0, 37, 0
2, 23760, Note_on_c, 0, 37, 80
2, 23987, Note_on_c, 0, 37, 0
2, 24000, Note_on_c, 0, 37, 80
2, 24227, Note_on_c, 0, 37, 0
2, 24240, Note_on_c, 0, 37, 80
2, 24467, Note_on_c, 0, 37, 0
2, 24480, Note_on_c, 0, 37, 80
2, 24707, Note_on_c, 0, 37, 0
2, 24720, Note_on_c, 0, 37, 80
2, 24947, Note_on_c, 0, 37, 0
2, 24960, Note_on_c, 0, 37, 80
2, 25187, Note_on_c, 0, 37, 0
2, 25200, Note_on_c, 0, 37, 80
2, 25427, Note_on_c, 0, 37, 0
2, 25440, Note_on_c, 0, 37, 80
2, 25667, Note_on_c, 0, 37, 0
2, 25680, Note_on_c, 0, 37, 80
2, 25907, Note_on_c, 0, 37, 0
2, 25920, Note_on_c, 0, 37, 80
2, 26147, Note_on_c, 0, 37, 0
2, 26160, Note_on_c, 0, 37, 80
2, 26387, Note_on_c, 0, 37, 0
2, 26400, Note_on_c, 0, 37, 80
2, 26627, Note_on_c, 0, 37, 0
2, 26640, Note_on_c, 0, 37, 80
2, 26867, Note_on_c, 0, 37, 0
2, 26880, Note_on_c, 0, 39, 80
2, 27107, Note_on_c, 0, 39, 0
2, 27120, Note_on_c, 0, 39, 80
2, 27347, Note_on_c, 0, 39, 0
2, 27360, Note_on_c, 0, 39, 80
2, 27587, Note_on_c, 0, 39, 0
2, 27600, Note_on_c, 0, 39, 80
2, 27827, Note_on_c, 0, 39, 0
2, 27840, Note_on_c, 0, 39, 80
2, 28067, Note_on_c, 0, 39, 0
2, 28080, Note_on_c, 0, 39, 80
2, 28307, Note_on_c, 0, 39, 0
2, 28320, Note_on_c, 0, 39, 80
2, 28547, Note_on_c, 0, 39, 0
2, 28560, Note_on_c, 0, 39, 80
2, 28787, Note_on_c, 0, 39, 0
2, 28800, Note_on_c, 0, 38, 80
2, 29027, Note_on_c, 0, 38, 0
2, 29040, Note_on_c, 0, 38, 80
2, 29267, Note_on_c, 0, 38, 0
2, 29280, Note_on_c, 0, 38, 80
2, 29507, Note_on_c, 0, 38, 0
2, 29520, Note_on_c, 0, 38, 80
2, 29747, Note_on_c, 0, 38, 0
2, 29760, Note_on_c, 0, 34, 80
2, 29873, Note_on_c, 0, 34, 0
2, 29880, Note_on_c, 0, 36, 80
2, 29993, Note_on_c, 0, 36, 0
2, 30000, Note_on_c, 0, 38, 80
2, 30113, Note_on_c, 0, 38, 0
2, 30120, Note_on_c, 0, 34, 80
2, 30233, Note_on_c, 0, 34, 0
2, 30240, Note_on_c, 0, 43, 80
2, 30353, Note_on_c, 0, 43, 0
2, 30360, Note_on_c, 0, 41, 80
2, 30473, Note_on_c, 0, 41, 0
2, 30480, Note_on_c, 0, 38, 80
2, 30593, Note_on_c, 0, 38, 0
2, 30600, Note_on_c, 0, 34, 80
2, 30713, Note_on_c, 0, 34, 0
2, 30720, Note_on_c, 0, 32, 80
2, 31403, Note_on_c, 0, 32, 0
2, 31440, Note_on_c, 0, 32, 80
2, 32123, Note_on_c, 0, 32, 0
2, 32160, Note_on_c, 0, 32, 80
2, 32615, Note_on_c, 0, 32, 0
2, 32640, Note_on_c, 0, 37, 80
2, 33323, Note_on_c, 0, 37, 0
2, 33360, Note_on_c, 0, 37, 80
2, 34043, Note_on_c, 0, 37, 0
2, 34080, Note_on_c, 0, 37, 80
2, 34535, Note_on_c, 0, 37, 0
2, 34560, Note_on_c, 0, 30, 80
2, 35243, Note_on_c, 0, 30, 0
2, 35280, Note_on_c, 0, 30, 80
2, 35963, Note_on_c, 0, 30, 0
2, 36000, Note_on_c, 0, 30, 80
2, 36455, Note_on_c, 0, 30, 0
2, 36480, Note_on_c, 0, 35, 80
2, 37163, Note_on_c, 0, 35, 0
2, 37200, Note_on_c, 0, 35, 80
2, 37883, Note_on_c, 0, 35, 0
2, 37920, Note_on_c, 0, 35, 80
2, 38375, Note_on_c, 0, 35, 0
2, 38400, Note_on_c, 0, 28, 80
2, 39083, Note_on_c, 0, 28, 0
2, 39120, Note_on_c, 0, 28, 80
2, 39347, Note_on_c, 0, 28, 0
2, 39360, Note_on_c, 0, 33, 80
2, 39815, Note_on_c, 0, 33, 0
2, 39840, Note_on_c, 0, 33, 80
2, 40295, Note_on_c, 0, 33, 0
2, 40320, Note_on_c, 0, 38, 80
2, 41003, Note_on_c, 0, 38, 0
2, 41040, Note_on_c, 0, 38, 80
2, 41267, Note_on_c, 0, 38, 0
2, 41280, Note_on_c, 0, 31, 80
2, 41735, Note_on_c, 0, 31, 0
2, 41760, Note_on_c, 0, 31, 80
2, 42215, Note_on_c, 0, 31, 0
2, 42240, Note_on_c, 0, 36, 80
2, 42923, Note_on_c, 0, 36, 0
2, 42960, Note_on_c, 0, 36, 80
2, 43187, Note_on_c, 0, 36, 0
2, 43200, Note_on_c, 0, 29, 80
2, 43655, Note_on_c, 0, 29, 0
2, 43680, Note_on_c, 0, 29, 80
2, 44135, Note_on_c, 0, 29, 0
2, 44160, Note_on_c, 0, 34, 80
2, 44843, Note_on_c, 0, 34, 0
2, 44880, Note_on_c, 0, 34, 80
2, 45107, Note_on_c, 0, 34, 0
2, 45120, Note_on_c, 0, 27, 80
2, 46031, Note_on_c, 0, 27, 0
2, 46080, Note_on_c, 0, 32, 80
2, 46307, Note_on_c, 0, 32, 0
2, 46320, Note_on_c, 0, 32, 80
2, 46547, Note_on_c, 0, 32, 0
2, 46560, Note_on_c, 0, 32, 80
2, 46787, Note_on_c, 0, 32, 0
2, 46800, Note_on_c, 0, 32, 80
2, 47027, Note_on_c, 0, 32, 0
2, 47040, Note_on_c, 0, 32, 80
2, 47267, Note_on_c, 0, 32, 0
2, 47280, Note_on_c, 0, 32, 80
2, 47507, Note_on_c, 0, 32, 0
2, 47520, Note_on_c, 0, 32, 80
2, 47747, Note_on_c, 0, 32, 0
2, 47760, Note_on_c, 0, 32, 80
2, 47987, Note_on_c, 0, 32, 0
2, 48000, Note_on_c, 0, 32, 80
2, 48227, Note_on_c, 0, 32, 0
2, 48240, Note_on_c, 0, 32, 80
2, 48467, Note_on_c, 0, 32, 0
2, 48480, Note_on_c, 0, 32, 80
2, 48707, Note_on_c, 0, 32, 0
2, 48720, Note_on_c, 0, 32, 80
2, 48947, Note_on_c, 0, 32, 0
2, 48960, Note_on_c, 0, 32, 80
2, 49187, Note_on_c, 0, 32, 0
2, 49200, Note_on_c, 0, 32, 80
2, 49427, Note_on_c, 0, 32, 0
2, 49440, Note_on_c, 0, 32, 80
2, 49667, Note_on_c, 0, 32, 0
2, 49680, Note_on_c, 0, 32, 80
2, 49907, Note_on_c, 0, 32, 0
2, 49920, Note_on_c, 0, 32, 80
2, 50147, Note_on_c, 0, 32, 0
2, 50160, Note_on_c, 0, 32, 80
2, 50387, Note_on_c, 0, 32, 0
2, 50400, Note_on_c, 0, 32, 80
2, 50627, Note_on_c, 0, 32, 0
2, 50640, Note_on_c, 0, 32, 80
2, 50867, Note_on_c, 0, 32, 0
2, 50880, Note_on_c, 0, 32, 80
2, 51107, Note_on_c, 0, 32, 0
2, 51120, Note_on_c, 0, 32, 80
2, 51347, Note_on_c, 0, 32, 0
2, 51360, Note_on_c, 0, 32, 80
2, 51587, Note_on_c, 0, 32, 0
2, 51600, Note_on_c, 0, 32, 80
2, 51827, Note_on_c, 0, 32, 0
2, 51840, Note_on_c, 0, 32, 80
2, 52067, Note_on_c, 0, 32, 0
2, 52080, Note_on_c, 0, 32, 80
2, 52307, Note_on_c, 0, 32, 0
2, 52320, Note_on_c, 0, 32, 80
2, 52547, Note_on_c, 0, 32, 0
2, 52560, Note_on_c, 0, 32, 80
2, 52787, Note_on_c, 0, 32, 0
2, 52800, Note_on_c, 0, 32, 80
2, 53027, Note_on_c, 0, 32, 0
2, 53040, Note_on_c, 0, 32, 80
2, 53267, Note_on_c, 0, 32, 0
2, 53280, Note_on_c, 0, 32, 80
2, 53507, Note_on_c, 0, 32, 0
2, 53520, Note_on_c, 0, 32, 80
2, 53747, Note_on_c, 0, 32, 0
2, 53760, Note_on_c, 0, 37, 80
2, 53987, Note_on_c, 0, 37, 0
2, 54000, Note_on_c, 0, 37, 80
2, 54227, Note_on_c, 0, 37, 0
2, 54240, Note_on_c, 0, 37, 80
2, 54467, Note_on_c, 0, 37, 0
2, 54480, Note_on_c, 0, 37, 80
2, 54707, Note_on_c, 0, 37, 0
2, 54720, Note_on_c, 0, 37, 80
2, 54947, Note_on_c, 0, 37, 0
2, 54960, Note_on_c, 0, 37, 80
2, 55187, Note_on_c, 0, 37, 0
2, 55200, Note_on_c, 0, 37, 80
2, 55427, Note_on_c, 0, 37, 0
2, 55440, Note_on_c, 0, 37, 80
2, 55667, Note_on_c, 0, 37, 0
2, 55680, Note_on_c, 0, 37, 80
2, 55907, Note_on_c, 0, 37, 0
2, 55920, Note_on_c, 0, 37, 80
2, 56147, Note_on_c, 0, 37, 0
2, 56160, Note_on_c, 0, 37, 80
2, 56387, Note_on_c, 0, 37, 0
2, 56400, Note_on_c, 0, 37, 80
2, 56627, Note_on_c, 0, 37, 0
2, 56640, Note_on_c, 0, 37, 80
2, 56867, Note_on_c, 0, 37, 0
2, 56880, Note_on_c, 0, 37, 80
2, 57107, Note_on_c, 0, 37, 0
2, 57120, Note_on_c, 0, 37, 80
2, 57347, Note_on_c, 0, 37, 0
2, 57360, Note_on_c, 0, 37, 80
2, 57587, Note_on_c, 0, 37, 0
2, 57600, Note_on_c, 0, 39, 80
2, 57827, Note_on_c, 0, 39, 0
2, 57840, Note_on_c, 0, 39, 80
2, 58067, Note_on_c, 0, 39, 0
2, 58080, Note_on_c, 0, 39, 80
2, 58307, Note_on_c, 0, 39, 0
2, 58320, Note_on_c, 0, 39, 80
2, 58547, Note_on_c, 0, 39, 0
2, 58560, Note_on_c, 0, 39, 80
2, 58787, Note_on_c, 0, 39, 0
2, 58800, Note_on_c, 0, 39, 80
2, 59027, Note_on_c, 0, 39, 0
2, 59040, Note_on_c, 0, 39, 80
2, 59267, Note_on_c, 0, 39, 0
2, 59280, Note_on_c, 0, 39, 80
2, 59507, Note_on_c, 0, 39, 0
2, 59520, Note_on_c, 0, 38, 80
2, 59747, Note_on_c, 0, 38, 0
2, 59760, Note_on_c, 0, 38, 80
2, 59987, Note_on_c, 0, 38, 0
2, 60000, Note_on_c, 0, 38, 80
2, 60227, Note_on_c, 0, 38, 0
2, 60240, Note_on_c, 0, 38, 80
2, 60467, Note_on_c, 0, 38, 0
2, 60480, Note_on_c, 0, 34, 80
2, 60707, Note_on_c, 0, 34, 0
2, 60720, Note_on_c, 0, 34, 80
2, 60947, Note_on_c, 0, 34, 0
2, 60960, Note_on_c, 0, 34, 80
2, 61187, Note_on_c, 0, 34, 0
2, 61200, Note_on_c, 0, 34, 80
2, 61427, Note_on_c, 0, 34, 0
2, 61440, Note_on_c, 0, 32, 80
2, 61667, Note_on_c, 0, 32, 0
2, 61680, Note_on_c, 0, 32, 80
2, 61907, Note_on_c, 0, 32, 0
2, 61920, Note_on_c, 0, 32, 80
2, 62147, Note_on_c, 0, 32, 0
2, 62160, Note_on_c, 0, 32, 80
2, 62387, Note_on_c, 0, 32, 0
2, 62400, Note_on_c, 0, 32, 80
2, 62627, Note_on_c, 0, 32, 0
2, 62640, Note_on_c, 0, 32, 80
2, 62867, Note_on_c, 0, 32, 0
2, 62880, Note_on_c, 0, 32, 80
2, 63107, Note_on_c, 0, 32, 0
2, 63120, Note_on_c, 0, 32, 80
2, 63347, Note_on_c, 0, 32, 0
2, 63360, Note_on_c, 0, 32, 80
2, 63587, Note_on_c, 0, 32, 0
2, 63600, Note_on_c, 0, 32, 80
2, 63827, Note_on_c, 0, 32, 0
2, 63840, Note_on_c, 0, 32, 80
2, 64067, Note_on_c, 0, 32, 0
2, 64080, Note_on_c, 0, 32, 80
2, 64307, Note_on_c, 0, 32, 0
2, 64320, Note_on_c, 0, 32, 80
2, 64547, Note_on_c, 0, 32, 0
2, 64560, Note_on_c, 0, 32, 80
2, 64787, Note_on_c, 0, 32, 0
2, 64800, Note_on_c, 0, 32, 80
2, 65027, Note_on_c, 0, 32, 0
2, 65040, Note_on_c, 0, 32, 80
2, 65267, Note_on_c, 0, 32, 0
2, 65280, Note_on_c, 0, 32, 80
2, 65507, Note_on_c, 0, 32, 0
2, 65520, Note_on_c, 0, 32, 80
2, 65747, Note_on_c, 0, 32, 0
2, 65760, Note_on_c, 0, 32, 80
2, 65987, Note_on_c, 0, 32, 0
2, 66000, Note_on_c, 0, 32, 80
2, 66227, Note_on_c, 0, 32, 0
2, 66240, Note_on_c, 0, 32, 80
2, 66467, Note_on_c, 0, 32, 0
2, 66480, Note_on_c, 0, 32, 80
2, 66707, Note_on_c, 0, 32, 0
2, 66720, Note_on_c, 0, 32, 80
2, 66947, Note_on_c, 0, 32, 0
2, 66960, Note_on_c, 0, 32, 80
2, 67187, Note_on_c, 0, 32, 0
2, 67200, Note_on_c, 0, 32, 80
2, 67427, Note_on_c, 0, 32, 0
2, 67440, Note_on_c, 0, 32, 80
2, 67667, Note_on_c, 0, 32, 0
2, 67680, Note_on_c, 0, 32, 80
2, 67907, Note_on_c, 0, 32, 0
2, 67920, Note_on_c, 0, 32, 80
2, 68147, Note_on_c, 0, 32, 0
2, 68160, Note_on_c, 0, 32, 80
2, 68387, Note_on_c, 0, 32, 0
2, 68400, Note_on_c, 0, 32, 80
2, 68627, Note_on_c, 0, 32, 0
2, 68640, Note_on_c, 0, 32, 80
2, 68867, Note_on_c, 0, 32, 0
2, 68880, Note_on_c, 0, 32, 80
2, 69107, Note_on_c, 0, 32, 0
2, 69120, Note_on_c, 0, 37, 80
2, 69347, Note_on_c, 0, 37, 0
2, 69360, Note_on_c, 0, 37, 80
2, 69587, Note_on_c, 0, 37, 0
2, 69600, Note_on_c, 0, 37, 80
2, 69827, Note_on_c, 0, 37, 0
2, 69840, Note_on_c, 0, 37, 80
2, 70067, Note_on_c, 0, 37, 0
2, 70080, Note_on_c, 0, 37, 80
2, 70307, Note_on_c, 0, 37, 0
2, 70320, Note_on_c, 0, 37, 80
2, 70547, Note_on_c, 0, 37, 0
2, 70560, Note_on_c, 0, 37, 80
2, 70787, Note_on_c, 0, 37, 0
2, 70800, Note_on_c, 0, 37, 80
2, 71027, Note_on_c, 0, 37, 0
2, 71040, Note_on_c, 0, 37, 80
2, 71267, Note_on_c, 0, 37, 0
2, 71280, Note_on_c, 0, 37, 80
2, 71507, Note_on_c, 0, 37, 0
2, 71520, Note_on_c, 0, 37, 80
2, 71747, Note_on_c, 0, 37, 0
2, 71760, Note_on_c, 0, 37, 80
2, 71987, Note_on_c, 0, 37, 0
2, 72000, Note_on_c, 0, 37, 80
2, 72227, Note_on_c, 0, 37, 0
2, 72240, Note_on_c, 0, 37, 80
2, 72467, Note_on_c, 0, 37, 0
2, 72480, Note_on_c, 0, 37, 80
2, 72707, Note_on_c, 0, 37, 0
2, 72720, Note_on_c, 0, 37, 80
2, 72947, Note_on_c, 0, 37, 0
2, 72960, Note_on_c, 0, 39, 80
2, 73187, Note_on_c, 0, 39, 0
2, 73200, Note_on_c, 0, 39, 80
2, 73427, Note_on_c, 0, 39, 0
2, 73440, Note_on_c, 0, 39, 80
2, 73667, Note_on_c, 0, 39, 0
2, 73680, Note_on_c, 0, 39, 80
2, 73907, Note_on_c, 0, 39, 0
2, 73920, Note_on_c, 0, 39, 80
2, 74147, Note_on_c, 0, 39, 0
2, 74160, Note_on_c, 0, 39, 80
2, 74387, Note_on_c, 0, 39, 0
2, 74400, Note_on_c, 0, 39, 80
2, 74627, Note_on_c, 0, 39, 0
2, 74640, Note_on_c, 0, 39, 80
2, 74867, Note_on_c, 0, 39, 0
2, 74880, Note_on_c, 0, 38, 80
2, 75107, Note_on_c, 0, 38, 0
2, 75120, Note_on_c, 0, 38, 80
2, 75347, Note_on_c, 0, 38, 0
2, 75360, Note_on_c, 0, 38, 80
2, 75587, Note_on_c, 0, 38, 0
2, 75600, Note_on_c, 0, 38, 80
2, 75827, Note_on_c, 0, 38, 0
2, 75840, Note_on_c, 0, 34, 80
2, 75953, Note_on_c, 0, 34, 0
2, 75960, Note_on_c, 0, 36, 80
2, 76073, Note_on_c, 0, 36, 0
2, 76080, Note_on_c, 0, 38, 80
2, 76193, Note_on_c, 0, 38, 0
2, 76200, Note_on_c, 0, 34, 80
2, 76313, Note_on_c, 0, 34, 0
2, 76320, Note_on_c, 0, 43, 80
2, 76433, Note_on_c, 0, 43, 0
2, 76440, Note_on_c, 0, 41, 80
2, 76553, Note_on_c, 0, 41, 0
2, 76560, Note_on_c, 0, 38, 80
2, 76673, Note_on_c, 0, 38, 0
2, 76680, Note_on_c, 0, 34, 80
2, 76793, Note_on_c, 0, 34, 0
2, 76800, Note_on_c, 0, 32, 80
2, 77483, Note_on_c, 0, 32, 0
2, 77520, Note_on_c, 0, 32, 80
2, 78203, Note_on_c, 0, 32, 0
2, 78240, Note_on_c, 0, 32, 80
2, 78695, Note_on_c, 0, 32, 0
2, 78720, Note_on_c, 0, 37, 80
2, 79403, Note_on_c, 0, 37, 0
2, 79440, Note_on_c, 0, 37, 80
2, 80123, Note_on_c, 0, 37, 0
2, 80160, Note_on_c, 0, 37, 80
2, 80615, Note_on_c, 0, 37, 0
2, 80640, Note_on_c, 0, 30, 80
2, 81323, Note_on_c, 0, 30, 0
2, 81360, Note_on_c, 0, 30, 80
2, 82043, Note_on_c, 0, 30, 0
2, 82080, Note_on_c, 0, 30, 80
2, 82535, Note_on_c, 0, 30, 0
2, 82560, Note_on_c, 0, 35, 80
2, 83243, Note_on_c, 0, 35, 0
2, 83280, Note_on_c, 0, 35, 80
2, 83963, Note_on_c, 0, 35, 0
2, 84000, Note_on_c, 0, 35, 80
2, 84455, Note_on_c, 0, 35, 0
2, 84480, Note_on_c, 0, 28, 80
2, 85163, Note_on_c, 0, 28, 0
2, 85200, Note_on_c, 0, 28, 80
2, 85427, Note_on_c, 0, 28, 0
2, 85440, Note_on_c, 0, 33, 80
2, 85895, Note_on_c, 0, 33, 0
2, 85920, Note_on_c, 0, 33, 80
2, 86375, Note_on_c, 0, 33, 0
2, 86400, Note_on_c, 0, 38, 80
2, 87083, Note_on_c, 0, 38, 0
2, 87120, Note_on_c, 0, 38, 80
2, 87347, Note_on_c, 0, 38, 0
2, 87360, Note_on_c, 0, 31, 80
2, 87815, Note_on_c, 0, 31, 0
2, 87840, Note_on_c, 0, 31, 80
2, 88295, Note_on_c, 0, 31, 0
2, 88320, Note_on_c, 0, 36, 80
2, 89003, Note_on_c, 0, 36, 0
2, 89040, Note_on_c, 0, 36, 80
2, 89267, Note_on_c, 0, 36, 0
2, 89280, Note_on_c, 0, 29, 80
2, 89735, Note_on_c, 0, 29, 0
2, 89760, Note_on_c, 0, 29, 80
2, 90215, Note_on_c, 0, 29, 0
2, 90240, Note_on_c, 0, 34, 80
2, 90923, Note_on_c, 0, 34, 0
2, 90960, Note_on_c, 0, 34, 80
2, 91187, Note_on_c, 0, 34, 0
2, 91200, Note_on_c, 0, 27, 80
2, 92104, Note_on_c, 0, 27, 0
2, 92105, End_track
3, 0, Start_track
3, 0, Title_t, "Instrument_02\000"
3, 0, Key_signature, 0, "major"
3, 0, Control_c, 1, 121, 0
3, 0, Program_c, 1, 38
3, 0, Control_c, 1, 7, 100
3, 0, Control_c, 1, 10, 64
3, 0, Control_c, 1, 91, 0
3, 0, Control_c, 1, 93, 0
3, 0, MIDI_port, 0
3, 0, Note_on_c, 1, 44, 80
3, 227, Note_on_c, 1, 44, 0
3, 240, Note_on_c, 1, 44, 80
3, 467, Note_on_c, 1, 44, 0
3, 480, Note_on_c, 1, 44, 80
3, 707, Note_on_c, 1, 44, 0
3, 720, Note_on_c, 1, 44, 80
3, 947, Note_on_c, 1, 44, 0
3, 960, Note_on_c, 1, 44, 80
3, 1187, Note_on_c, 1, 44, 0
3, 1200, Note_on_c, 1, 44, 80
3, 1427, Note_on_c, 1, 44, 0
3, 1440, Note_on_c, 1, 44, 80
3, 1667, Note_on_c, 1, 44, 0
3, 1680, Note_on_c, 1, 44, 80
3, 1907, Note_on_c, 1, 44, 0
3, 1920, Note_on_c, 1, 44, 80
3, 2147, Note_on_c, 1, 44, 0
3, 2160, Note_on_c, 1, 44, 80
3, 2387, Note_on_c, 1, 44, 0
3, 2400, Note_on_c, 1, 44, 80
3, 2627, Note_on_c, 1, 44, 0
3, 2640, Note_on_c, 1, 44, 80
3, 2867, Note_on_c, 1, 44, 0
3, 2880, Note_on_c, 1, 44, 80
3, 3107, Note_on_c, 1, 44, 0
3, 3120, Note_on_c, 1, 44, 80
3, 3347, Note_on_c, 1, 44, 0
3, 3360, Note_on_c, 1, 44, 80
3, 3587, Note_on_c, 1, 44, 0
3, 3600, Note_on_c, 1, 44, 80
3, 3827, Note_on_c, 1, 44, 0
3, 3840, Note_on_c, 1, 44, 80
3, 4067, Note_on_c, 1, 44, 0
3, 4080, Note_on_c, 1, 44, 80
3, 4307, Note_on_c, 1, 44, 0
3, 4320, Note_on_c, 1, 44, 80
3, 4547, Note_on_c, 1, 44, 0
3, 4560, Note_on_c, 1, 44, 80
3, 4787, Note_on_c, 1, 44, 0
3, 4800, Note_on_c, 1, 44, 80
3, 5027, Note_on_c, 1, 44, 0
3, 5040, Note_on_c, 1, 44, 80
3, 5267, Note_on_c, 1, 44, 0
3, 5280, Note_on_c, 1, 44, 80
3, 5507, Note_on_c, 1, 44, 0
3, 5520, Note_on_c, 1, 44, 80
3, 5747, Note_on_c, 1, 44, 0
3, 5760, Note_on_c, 1, 44, 80
3, 5987, Note_on_c, 1, 44, 0
3, 6000, Note_on_c, 1, 44, 80
3, 6227, Note_on_c, 1, 44, 0
3, 6240, Note_on_c, 1, 44, 80
3, 6467, Note_on_c, 1, 44, 0
3, 6480, Note_on_c, 1, 44, 80
3, 6707, Note_on_c, 1, 44, 0
3, 6720, Note_on_c, 1, 44, 80
3, 6947, Note_on_c, 1, 44, 0
3, 6960, Note_on_c, 1, 44, 80
3, 7187, Note_on_c, 1, 44, 0
3, 7200, Note_on_c, 1, 44, 80
3, 7427, Note_on_c, 1, 44, 0
3, 7440, Note_on_c, 1, 44, 80
3, 7667, Note_on_c, 1, 44, 0
3, 7680, Note_on_c, 1, 49, 80
3, 7907, Note_on_c, 1, 49, 0
3, 7920, Note_on_c, 1, 49, 80
3, 8147, Note_on_c, 1, 49, 0
3, 8160, Note_on_c, 1, 49, 80
3, 8387, Note_on_c, 1, 49, 0
3, 8400, Note_on_c, 1, 49, 80
3, 8627, Note_on_c, 1, 49, 0
3, 8640, Note_on_c, 1, 49, 80
3, 8867, Note_on_c, 1, 49, 0
3, 8880, Note_on_c, 1, 49, 80
3, 9107, Note_on_c, 1, 49, 0
3, 9120, Note_on_c, 1, 49, 80
3, 9347, Note_on_c, 1, 49, 0
3, 9360, Note_on_c, 1, 49, 80
3, 9587, Note_on_c, 1, 49, 0
3, 9600, Note_on_c, 1, 49, 80
3, 9827, Note_on_c, 1, 49, 0
3, 9840, Note_on_c, 1, 49, 80
3, 10067, Note_on_c, 1, 49, 0
3, 10080, Note_on_c, 1, 49, 80
3, 10307, Note_on_c, 1, 49, 0
3, 10320, Note_on_c, 1, 49, 80
3, 10547, Note_on_c, 1, 49, 0
3, 10560, Note_on_c, 1, 49, 80
3, 10787, Note_on_c, 1, 49, 0
3, 10800, Note_on_c, 1, 49, 80
3, 11027, Note_on_c, 1, 49, 0
3, 11040, Note_on_c, 1, 49, 80
3, 11267, Note_on_c, 1, 49, 0
3, 11280, Note_on_c, 1, 49, 80
3, 11507, Note_on_c, 1, 49, 0
3, 11520, Note_on_c, 1, 51, 80
3, 11747, Note_on_c, 1, 51, 0
3, 11760, Note_on_c, 1, 51, 80
3, 11987, Note_on_c, 1, 51, 0
3, 12000, Note_on_c, 1, 51, 80
3, 12227, Note_on_c, 1, 51, 0
3, 12240, Note_on_c, 1, 51, 80
3, 12467, Note_on_c, 1, 51, 0
3, 12480, Note_on_c, 1, 51, 80
3, 12707, Note_on_c, 1, 51, 0
3, 12720, Note_on_c, 1, 51, 80
3, 12947, Note_on_c, 1, 51, 0
3, 12960, Note_on_c, 1, 51, 80
3, 13187, Note_on_c, 1, 51, 0
3, 13200, Note_on_c, 1, 51, 80
3, 13427, Note_on_c, 1, 51, 0
3, 13440, Note_on_c, 1, 50, 80
3, 13667, Note_on_c, 1, 50, 0
3, 13680, Note_on_c, 1, 50, 80
3, 13907, Note_on_c, 1, 50, 0
3, 13920, Note_on_c, 1, 50, 80
3, 14147, Note_on_c, 1, 50, 0
3, 14160, Note_on_c, 1, 50, 80
3, 14387, Note_on_c, 1, 50, 0
3, 14400, Note_on_c, 1, 46, 80
3, 14627, Note_on_c, 1, 46, 0
3, 14640, Note_on_c, 1, 46, 80
3, 14867, Note_on_c, 1, 46, 0
3, 14880, Note_on_c, 1, 46, 80
3, 15107, Note_on_c, 1, 46, 0
3, 15120, Note_on_c, 1, 46, 80
3, 15347, Note_on_c, 1, 46, 0
3, 15360, Note_on_c, 1, 44, 80
3, 15587, Note_on_c, 1, 44, 0
3, 15600, Note_on_c, 1, 44, 80
3, 15827, Note_on_c, 1, 44, 0
3, 15840, Note_on_c, 1, 44, 80
3, 16067, Note_on_c, 1, 44, 0
3, 16080, Note_on_c, 1, 44, 80
3, 16307, Note_on_c, 1, 44, 0
3, 16320, Note_on_c, 1, 44, 80
3, 16547, Note_on_c, 1, 44, 0
3, 16560, Note_on_c, 1, 44, 80
3, 16787, Note_on_c, 1, 44, 0
3, 16800, Note_on_c, 1, 44, 80
3, 17027, Note_on_c, 1, 44, 0
3, 17040, Note_on_c, 1, 44, 80
3, 17267, Note_on_c, 1, 44, 0
3, 17280, Note_on_c, 1, 44, 80
3, 17507, Note_on_c, 1, 44, 0
3, 17520, Note_on_c, 1, 44, 80
3, 17747, Note_on_c, 1, 44, 0
3, 17760, Note_on_c, 1, 44, 80
3, 17987, Note_on_c, 1, 44, 0
3, 18000, Note_on_c, 1, 44, 80
3, 18227, Note_on_c, 1, 44, 0
3, 18240, Note_on_c, 1, 44, 80
3, 18467, Note_on_c, 1, 44, 0
3, 18480, Note_on_c, 1, 44, 80
3, 18707, Note_on_c, 1, 44, 0
3, 18720, Note_on_c, 1, 44, 80
3, 18947, Note_on_c, 1, 44, 0
3, 18960, Note_on_c, 1, 44, 80
3, 19187, Note_on_c, 1, 44, 0
3, 19200, Note_on_c, 1, 44, 80
3, 19427, Note_on_c, 1, 44, 0
3, 19440, Note_on_c, 1, 44, 80
3, 19667, Note_on_c, 1, 44, 0
3, 19680, Note_on_c, 1, 44, 80
3, 19907, Note_on_c, 1, 44, 0
3, 19920, Note_on_c, 1, 44, 80
3, 20147, Note_on_c, 1, 44, 0
3, 20160, Note_on_c, 1, 44, 80
3, 20387, Note_on_c, 1, 44, 0
3, 20400, Note_on_c, 1, 44, 80
3, 20627, Note_on_c, 1, 44, 0
3, 20640, Note_on_c, 1, 44, 80
3, 20867, Note_on_c, 1, 44, 0
3, 20880, Note_on_c, 1, 44, 80
3, 21107, Note_on_c, 1, 44, 0
3, 21120, Note_on_c, 1, 44, 80
3, 21347, Note_on_c, 1, 44, 0
3, 21360, Note_on_c, 1, 44, 80
3, 21587, Note_on_c, 1, 44, 0
3, 21600, Note_on_c, 1, 44, 80
3, 21827, Note_on_c, 1, 44, 0
3, 21840, Note_on_c, 1, 44, 80
3, 22067, Note_on_c, 1, 44, 0
3, 22080, Note_on_c, 1, 44, 80
3, 22307, Note_on_c, 1, 44, 0
3, 22320, Note_on_c, 1, 44, 80
3, 22547, Note_on_c, 1, 44, 0
3, 22560, Note_on_c, 1, 44, 80
3, 22787, Note_on_c, 1, 44, 0
3, 22800, Note_on_c, 1, 44, 80
3, 23027, Note_on_c, 1, 44, 0
3, 23040, Note_on_c, 1, 49, 80
3, 23267, Note_on_c, 1, 49, 0
3, 23280, Note_on_c, 1, 49, 80
3, 23507, Note_on_c, 1, 49, 0
3, 23520, Note_on_c, 1, 49, 80
3, 23747, Note_on_c, 1, 49, 0
3, 23760, Note_on_c, 1, 49, 80
3, 23987, Note_on_c, 1, 49, 0
3, 24000, Note_on_c, 1, 49, 80
3, 24227, Note_on_c, 1, 49, 0
3, 24240, Note_on_c, 1, 49, 80
3, 24467, Note_on_c, 1, 49, 0
3, 24480, Note_on_c, 1, 49, 80
3, 24707, Note_on_c, 1, 49, 0
3, 24720, Note_on_c, 1, 49, 80
3, 24947, Note_on_c, 1, 49, 0
3, 24960, Note_on_c, 1, 49, 80
3, 25187, Note_on_c, 1, 49, 0
3, 25200, Note_on_c, 1, 49, 80
3, 25427, Note_on_c, 1, 49, 0
3, 25440, Note_on_c, 1, 49, 80
3, 25667, Note_on_c, 1, 49, 0
3, 25680, Note_on_c, 1, 49, 80
3, 25907, Note_on_c, 1, 49, 0
3, 25920, Note_on_c, 1, 49, 80
3, 26147, Note_on_c, 1, 49, 0
3, 26160, Note_on_c, 1, 49, 80
3, 26387, Note_on_c, 1, 49, 0
3, 26400, Note_on_c, 1, 49, 80
3, 26627, Note_on_c, 1, 49, 0
3, 26640, Note_on_c, 1, 49, 80
3, 26867, Note_on_c, 1, 49, 0
3, 26880, Note_on_c, 1, 51, 80
3, 27107, Note_on_c, 1, 51, 0
3, 27120, Note_on_c, 1, 51, 80
3, 27347, Note_on_c, 1, 51, 0
3, 27360, Note_on_c, 1, 51, 80
3, 27587, Note_on_c, 1, 51, 0
3, 27600, Note_on_c, 1, 51, 80
3, 27827, Note_on_c, 1, 51, 0
3, 27840, Note_on_c, 1, 51, 80
3, 28067, Note_on_c, 1, 51, 0
3, 28080, Note_on_c, 1, 51, 80
3, 28307, Note_on_c, 1, 51, 0
3, 28320, Note_on_c, 1, 51, 80
3, 28547, Note_on_c, 1, 51, 0
3, 28560, Note_on_c, 1, 51, 80
3, 28787, Note_on_c, 1, 51, 0
3, 28800, Note_on_c, 1, 50, 80
3, 29027, Note_on_c, 1, 50, 0
3, 29040, Note_on_c, 1, 50, 80
3, 29267, Note_on_c, 1, 50, 0
3, 29280, Note_on_c, 1, 50, 80
3, 29507, Note_on_c, 1, 50, 0
3, 29520, Note_on_c, 1, 50, 80
3, 29747, Note_on_c, 1, 50, 0
3, 29760, Note_on_c, 1, 46, 80
3, 29873, Note_on_c, 1, 46, 0
3, 29880, Note_on_c, 1, 48, 80
3, 29993, Note_on_c, 1, 48, 0
3, 30000, Note_on_c, 1, 50, 80
3, 30113, Note_on_c, 1, 50, 0
3, 30120, Note_on_c, 1, 46, 80
3, 30233, Note_on_c, 1, 46, 0
3, 30240, Note_on_c, 1, 55, 80
3, 30353, Note_on_c, 1, 55, 0
3, 30360, Note_on_c, 1, 53, 80
3, 30473, Note_on_c, 1, 53, 0
3, 30480, Note_on_c, 1, 50, 80
3, 30593, Note_on_c, 1, 50, 0
3, 30600, Note_on_c, 1, 46, 80
3, 30713, Note_on_c, 1, 46, 0
3, 30720, Note_on_c, 1, 44, 80
3, 31403, Note_on_c, 1, 44, 0
3, 31440, Note_on_c, 1, 44, 80
3, 32123, Note_on_c, 1, 44, 0
3, 32160, Note_on_c, 1, 44, 80
3, 32615, Note_on_c, 1, 44, 0
3, 32640, Note_on_c, 1, 49, 80
3, 33323, Note_on_c, 1, 49, 0
3, 33360, Note_on_c, 1, 49, 80
3, 34043, Note_on_c, 1, 49, 0
3, 34080, Note_on_c, 1, 49, 80
3, 34535, Note_on_c, 1, 49, 0
3, 34560, Note_on_c, 1, 42, 80
3, 35243, Note_on_c, 1, 42, 0
3, 35280, Note_on_c, 1, 42, 80
3, 35963, Note_on_c, 1, 42, 0
3, 36000, Note_on_c, 1, 42, 80
3, 36455, Note_on_c, 1, 42, 0
3, 36480, Note_on_c, 1, 47, 80
3, 37163, Note_on_c, 1, 47, 0
3, 37200, Note_on_c, 1, 47, 80
3, 37883, Note_on_c, 1, 47, 0
3, 37920, Note_on_c, 1, 47, 80
3, 38375, Note_on_c, 1, 47, 0
3, 38400, Note_on_c, 1, 40, 80
3, 39083, Note_on_c, 1, 40, 0
3, 39120, Note_on_c, 1, 40, 80
3, 39347, Note_on_c, 1, 40, 0
3, 39360, Note_on_c, 1, 45, 80
3, 39815, Note_on_c, 1, 45, 0
3, 39840, Note_on_c, 1, 45, 80
3, 40295, Note_on_c, 1, 45, 0
3, 40320, Note_on_c, 1, 50, 80
3, 41003, Note_on_c, 1, 50, 0
3, 41040, Note_on_c, 1, 50, 80
3, 41267, Note_on_c, 1, 50, 0
3, 41280, Note_on_c, 1, 43, 80
3, 41735, Note_on_c, 1, 43, 0
3, 41760, Note_on_c, 1, 43, 80
3, 42215, Note_on_c, 1, 43, 0
3, 42240, Note_on_c, 1, 48, 80
3, 42923, Note_on_c, 1, 48, 0
3, 42960, Note_on_c, 1, 48, 80
3, 43187, Note_on_c, 1, 48, 0
3, 43200, Note_on_c, 1, 41, 80
3, 43655, Note_on_c, 1, 41, 0
3, 43680, Note_on_c, 1, 41, 80
3, 44135, Note_on_c, 1, 41, 0
3, 44160, Note_on_c, 1, 46, 80
3, 44843, Note_on_c, 1, 46, 0
3, 44880, Note_on_c, 1, 46, 80
3, 45107, Note_on_c, 1, 46, 0
3, 45120, Note_on_c, 1, 39, 80
3, 46031, Note_on_c, 1, 39, 0
3, 46080, Note_on_c, 1, 44, 80
3, 46307, Note_on_c, 1, 44, 0
3, 46320, Note_on_c, 1, 44, 80
3, 46547, Note_on_c, 1, 44, 0
3, 46560, Note_on_c, 1, 44, 80
3, 46787, Note_on_c, 1, 44, 0
3, 46800, Note_on_c, 1, 44, 80
3, 47027, Note_on_c, 1, 44, 0
3, 47040, Note_on_c, 1, 44, 80
3, 47267, Note_on_c, 1, 44, 0
3, 47280, Note_on_c, 1, 44, 80
3, 47507, Note_on_c, 1, 44, 0
3, 47520, Note_on_c, 1, 44, 80
3, 47747, Note_on_c, 1, 44, 0
3, 47760, Note_on_c, 1, 44, 80
3, 47987, Note_on_c, 1, 44, 0
3, 48000, Note_on_c, 1, 44, 80
3, 48227, Note_on_c, 1, 44, 0
3, 48240, Note_on_c, 1, 44, 80
3, 48467, Note_on_c, 1, 44, 0
3, 48480, Note_on_c, 1, 44, 80
3, 48707, Note_on_c, 1, 44, 0
3, 48720, Note_on_c, 1, 44, 80
3, 48947, Note_on_c, 1, 44, 0
3, 48960, Note_on_c, 1, 44, 80
3, 49187, Note_on_c, 1, 44, 0
3, 49200, Note_on_c, 1, 44, 80
3, 49427, Note_on_c, 1, 44, 0
3, 49440, Note_on_c, 1, 44, 80
3, 49667, Note_on_c, 1, 44, 0
3, 49680, Note_on_c, 1, 44, 80
3, 49907, Note_on_c, 1, 44, 0
3, 49920, Note_on_c, 1, 44, 80
3, 50147, Note_on_c, 1, 44, 0
3, 50160, Note_on_c, 1, 44, 80
3, 50387, Note_on_c, 1, 44, 0
3, 50400, Note_on_c, 1, 44, 80
3, 50627, Note_on_c, 1, 44, 0
3, 50640, Note_on_c, 1, 44, 80
3, 50867, Note_on_c, 1, 44, 0
3, 50880, Note_on_c, 1, 44, 80
3, 51107, Note_on_c, 1, 44, 0
3, 51120, Note_on_c, 1, 44, 80
3, 51347, Note_on_c, 1, 44, 0
3, 51360, Note_on_c, 1, 44, 80
3, 51587, Note_on_c, 1, 44, 0
3, 51600, Note_on_c, 1, 44, 80
3, 51827, Note_on_c, 1, 44, 0
3, 51840, Note_on_c, 1, 44, 80
3, 52067, Note_on_c, 1, 44, 0
3, 52080, Note_on_c, 1, 44, 80
3, 52307, Note_on_c, 1, 44, 0
3, 52320, Note_on_c, 1, 44, 80
3, 52547, Note_on_c, 1, 44, 0
3, 52560, Note_on_c, 1, 44, 80
3, 52787, Note_on_c, 1, 44, 0
3, 52800, Note_on_c, 1, 44, 80
3, 53027, Note_on_c, 1, 44, 0
3, 53040, Note_on_c, 1, 44, 80
3, 53267, Note_on_c, 1, 44, 0
3, 53280, Note_on_c, 1, 44, 80
3, 53507, Note_on_c, 1, 44, 0
3, 53520, Note_on_c, 1, 44, 80
3, 53747, Note_on_c, 1, 44, 0
3, 53760, Note_on_c, 1, 49, 80
3, 53987, Note_on_c, 1, 49, 0
3, 54000, Note_on_c, 1, 49, 80
3, 54227, Note_on_c, 1, 49, 0
3, 54240, Note_on_c, 1, 49, 80
3, 54467, Note_on_c, 1, 49, 0
3, 54480, Note_on_c, 1, 49, 80
3, 54707, Note_on_c, 1, 49, 0
3, 54720, Note_on_c, 1, 49, 80
3, 54947, Note_on_c, 1, 49, 0
3, 54960, Note_on_c, 1, 49, 80
3, 55187, Note_on_c, 1, 49, 0
3, 55200, Note_on_c, 1, 49, 80
3, 55427, Note_on_c, 1, 49, 0
3, 55440, Note_on_c, 1, 49, 80
3, 55667, Note_on_c, 1, 49, 0
3, 55680, Note_on_c, 1, 49, 80
3, 55907, Note_on_c, 1, 49, 0
3, 55920, Note_on_c, 1, 49, 80
3, 56147, Note_on_c, 1, 49, 0
3, 56160, Note_on_c, 1, 49, 80
3, 56387, Note_on_c, 1, 49, 0
3, 56400, Note_on_c, 1, 49, 80
3, 56627, Note_on_c, 1, 49, 0
3, 56640, Note_on_c, 1, 49, 80
3, 56867, Note_on_c, 1, 49, 0
3, 56880, Note_on_c, 1, 49, 80
3, 57107, Note_on_c, 1, 49, 0
3, 57120, Note_on_c, 1, 49, 80
3, 57347, Note_on_c, 1, 49, 0
3, 57360, Note_on_c, 1, 49, 80
3, 57587, Note_on_c, 1, 49, 0
3, 57600, Note_on_c, 1, 51, 80
3, 57827, Note_on_c, 1, 51, 0
3, 57840, Note_on_c, 1, 51, 80
3, 58067, Note_on_c, 1, 51, 0
3, 58080, Note_on_c, 1, 51, 80
3, 58307, Note_on_c, 1, 51, 0
3, 58320, Note_on_c, 1, 51, 80
3, 58547, Note_on_c, 1, 51, 0
3, 58560, Note_on_c, 1, 51, 80
3, 58787, Note_on_c, 1, 51, 0
3, 58800, Note_on_c, 1, 51, 80
3, 59027, Note_on_c, 1, 51, 0
3, 59040, Note_on_c, 1, 51, 80
3, 59267, Note_on_c, 1, 51, 0
3, 59280, Note_on_c, 1, 51, 80
3, 59507, Note_on_c, 1, 51, 0
3, 59520, Note_on_c, 1, 50, 80
3, 59747, Note_on_c, 1, 50, 0
3, 59760, Note_on_c, 1, 50, 80
3, 59987, Note_on_c, 1, 50, 0
3, 60000, Note_on_c, 1, 50, 80
3, 60227, Note_on_c, 1, 50, 0
3, 60240, Note_on_c, 1, 50, 80
3, 60467, Note_on_c, 1, 50, 0
3, 60480, Note_on_c, 1, 46, 80
3, 60707, Note_on_c, 1, 46, 0
3, 60720, Note_on_c, 1, 46, 80
3, 60947, Note_on_c, 1, 46, 0
3, 60960, Note_on_c, 1, 46, 80
3, 61187, Note_on_c, 1, 46, 0
3, 61200, Note_on_c, 1, 46, 80
3, 61427, Note_on_c, 1, 46, 0
3, 61440, Note_on_c, 1, 44, 80
3, 61667, Note_on_c, 1, 44, 0
3, 61680, Note_on_c, 1, 44, 80
3, 61907, Note_on_c, 1, 44, 0
3, 61920, Note_on_c, 1, 44, 80
3, 62147, Note_on_c, 1, 44, 0
3, 62160, Note_on_c, 1, 44, 80
3, 62387, Note_on_c, 1, 44, 0
3, 62400, Note_on_c, 1, 44, 80
3, 62627, Note_on_c, 1, 44, 0
3, 62640, Note_on_c, 1, 44, 80
3, 62867, Note_on_c, 1, 44, 0
3, 62880, Note_on_c, 1, 44, 80
3, 63107, Note_on_c, 1, 44, 0
3, 63120, Note_on_c, 1, 44, 80
3, 63347, Note_on_c, 1, 44, 0
3, 63360, Note_on_c, 1, 44, 80
3, 63587, Note_on_c, 1, 44, 0
3, 63600, Note_on_c, 1, 44, 80
3, 63827, Note_on_c, 1, 44, 0
3, 63840, Note_on_c, 1, 44, 80
3, 64067, Note_on_c, 1, 44, 0
3, 64080, Note_on_c, 1, 44, 80
3, 64307, Note_on_c, 1, 44, 0
3, 64320, Note_on_c, 1, 44, 80
3, 64547, Note_on_c, 1, 44, 0
3, 64560, Note_on_c, 1, 44, 80
3, 64787, Note_on_c, 1, 44, 0
3, 64800, Note_on_c, 1, 44, 80
3, 65027, Note_on_c, 1, 44, 0
3, 65040, Note_on_c, 1, 44, 80
3, 65267, Note_on_c, 1, 44, 0
3, 65280, Note_on_c, 1, 44, 80
3, 65507, Note_on_c, 1, 44, 0
3, 65520, Note_on_c, 1, 44, 80
3, 65747, Note_on_c, 1, 44, 0
3, 65760, Note_on_c, 1, 44, 80
3, 65987, Note_on_c, 1, 44, 0
3, 66000, Note_on_c, 1, 44, 80
3, 66227, Note_on_c, 1, 44, 0
3, 66240, Note_on_c, 1, 44, 80
3, 66467, Note_on_c, 1, 44, 0
3, 66480, Note_on_c, 1, 44, 80
3, 66707, Note_on_c, 1, 44, 0
3, 66720, Note_on_c, 1, 44, 80
3, 66947, Note_on_c, 1, 44, 0
3, 66960, Note_on_c, 1, 44, 80
3, 67187, Note_on_c, 1, 44, 0
3, 67200, Note_on_c, 1, 44, 80
3, 67427, Note_on_c, 1, 44, 0
3, 67440, Note_on_c, 1, 44, 80
3, 67667, Note_on_c, 1, 44, 0
3, 67680, Note_on_c, 1, 44, 80
3, 67907, Note_on_c, 1, 44, 0
3, 67920, Note_on_c, 1, 44, 80
3, 68147, Note_on_c, 1, 44, 0
3, 68160, Note_on_c, 1, 44, 80
3, 68387, Note_on_c, 1, 44, 0
3, 68400, Note_on_c, 1, 44, 80
3, 68627, Note_on_c, 1, 44, 0
3, 68640, Note_on_c, 1, 44, 80
3, 68867, Note_on_c, 1, 44, 0
3, 68880, Note_on_c, 1, 44, 80
3, 69107, Note_on_c, 1, 44, 0
3, 69120, Note_on_c, 1, 49, 80
3, 69347, Note_on_c, 1, 49, 0
3, 69360, Note_on_c, 1, 49, 80
3, 69587, Note_on_c, 1, 49, 0
3, 69600, Note_on_c, 1, 49, 80
3, 69827, Note_on_c, 1, 49, 0
3, 69840, Note_on_c, 1, 49, 80
3, 70067, Note_on_c, 1, 49, 0
3, 70080, Note_on_c, 1, 49, 80
3, 70307, Note_on_c, 1, 49, 0
3, 70320, Note_on_c, 1, 49, 80
3, 70547, Note_on_c, 1, 49, 0
3, 70560, Note_on_c, 1, 49, 80
3, 70787, Note_on_c, 1, 49, 0
3, 70800, Note_on_c, 1, 49, 80
3, 71027, Note_on_c, 1, 49, 0
3, 71040, Note_on_c, 1, 49, 80
3, 71267, Note_on_c, 1, 49, 0
3, 71280, Note_on_c, 1, 49, 80
3, 71507, Note_on_c, 1, 49, 0
3, 71520, Note_on_c, 1, 49, 80
3, 71747, Note_on_c, 1, 49, 0
3, 71760, Note_on_c, 1, 49, 80
3, 71987, Note_on_c, 1, 49, 0
3, 72000, Note_on_c, 1, 49, 80
3, 72227, Note_on_c, 1, 49, 0
3, 72240, Note_on_c, 1, 49, 80
3, 72467, Note_on_c, 1, 49, 0
3, 72480, Note_on_c, 1, 49, 80
3, 72707, Note_on_c, 1, 49, 0
3, 72720, Note_on_c, 1, 49, 80
3, 72947, Note_on_c, 1, 49, 0
3, 72960, Note_on_c, 1, 51, 80
3, 73187, Note_on_c, 1, 51, 0
3, 73200, Note_on_c, 1, 51, 80
3, 73427, Note_on_c, 1, 51, 0
3, 73440, Note_on_c, 1, 51, 80
3, 73667, Note_on_c, 1, 51, 0
3, 73680, Note_on_c, 1, 51, 80
3, 73907, Note_on_c, 1, 51, 0
3, 73920, Note_on_c, 1, 51, 80
3, 74147, Note_on_c, 1, 51, 0
3, 74160, Note_on_c, 1, 51, 80
3, 74387, Note_on_c, 1, 51, 0
3, 74400, Note_on_c, 1, 51, 80
3, 74627, Note_on_c, 1, 51, 0
3, 74640, Note_on_c, 1, 51, 80
3, 74867, Note_on_c, 1, 51, 0
3, 74880, Note_on_c, 1, 50, 80
3, 75107, Note_on_c, 1, 50, 0
3, 75120, Note_on_c, 1, 50, 80
3, 75347, Note_on_c, 1, 50, 0
3, 75360, Note_on_c, 1, 50, 80
3, 75587, Note_on_c, 1, 50, 0
3, 75600, Note_on_c, 1, 50, 80
3, 75827, Note_on_c, 1, 50, 0
3, 75840, Note_on_c, 1, 46, 80
3, 75953, Note_on_c, 1, 46, 0
3, 75960, Note_on_c, 1, 48, 80
3, 76073, Note_on_c, 1, 48, 0
3, 76080, Note_on_c, 1, 50, 80
3, 76193, Note_on_c, 1, 50, 0
3, 76200, Note_on_c, 1, 46, 80
3, 76313, Note_on_c, 1, 46, 0
3, 76320, Note_on_c, 1, 55, 80
3, 76433, Note_on_c, 1, 55, 0
3, 76440, Note_on_c, 1, 53, 80
3, 76553, Note_on_c, 1, 53, 0
3, 76560, Note_on_c, 1, 50, 80
3, 76673, Note_on_c, 1, 50, 0
3, 76680, Note_on_c, 1, 46, 80
3, 76793, Note_on_c, 1, 46, 0
3, 76800, Note_on_c, 1, 44, 80
3, 77483, Note_on_c, 1, 44, 0
3, 77520, Note_on_c, 1, 44, 80
3, 78203, Note_on_c, 1, 44, 0
3, 78240, Note_on_c, 1, 44, 80
3, 78695, Note_on_c, 1, 44, 0
3, 78720, Note_on_c, 1, 49, 80
3, 79403, Note_on_c, 1, 49, 0
3, 79440, Note_on_c, 1, 49, 80
3, 80123, Note_on_c, 1, 49, 0
3, 80160, Note_on_c, 1, 49, 80
3, 80615, Note_on_c, 1, 49, 0
3, 80640, Note_on_c, 1, 42, 80
3, 81323, Note_on_c, 1, 42, 0
3, 81360, Note_on_c, 1, 42, 80
3, 82043, Note_on_c, 1, 42, 0
3, 82080, Note_on_c, 1, 42, 80
3, 82535, Note_on_c, 1, 42, 0
3, 82560, Note_on_c, 1, 47, 80
3, 83243, Note_on_c, 1, 47, 0
3, 83280, Note_on_c, 1, 47, 80
3, 83963, Note_on_c, 1, 47, 0
3, 84000, Note_on_c, 1, 47, 80
3, 84455, Note_on_c, 1, 47, 0
3, 84480, Note_on_c, 1, 40, 80
3, 85163, Note_on_c, 1, 40, 0
3, 85200, Note_on_c, 1, 40, 80
3, 85427, Note_on_c, 1, 40, 0
3, 85440, Note_on_c, 1, 45, 80
3, 85895, Note_on_c, 1, 45, 0
3, 85920, Note_on_c, 1, 45, 80
3, 86375, Note_on_c, 1, 45, 0
3, 86400, Note_on_c, 1, 50, 80
3, 87083, Note_on_c, 1, 50, 0
3, 87120, Note_on_c, 1, 50, 80
3, 87347, Note_on_c, 1, 50, 0
3, 87360, Note_on_c, 1, 43, 80
3, 87815, Note_on_c, 1, 43, 0
3, 87840, Note_on_c, 1, 43, 80
3, 88295, Note_on_c, 1, 43, 0
3, 88320, Note_on_c, 1, 48, 80
3, 89003, Note_on_c, 1, 48, 0
3, 89040, Note_on_c, 1, 48, 80
3, 89267, Note_on_c, 1, 48, 0
3, 89280, Note_on_c, 1, 41, 80
3, 89735, Note_on_c, 1, 41, 0
3, 89760, Note_on_c, 1, 41, 80
3, 90215, Note_on_c, 1, 41, 0
3, 90240, Note_on_c, 1, 46, 80
3, 90923, Note_on_c, 1, 46, 0
3, 90960, Note_on_c, 1, 46, 80
3, 91187, Note_on_c, 1, 46, 0
3, 91200, Note_on_c, 1, 39, 80
3, 92104, Note_on_c, 1, 39, 0
3, 92105, End_track
4, 0, Start_track
4, 0, Title_t, "Instrument_03\000"
4, 0, Key_signature, 0, "major"
4, 0, Control_c, 2, 121, 0
4, 0, Program_c, 2, 81
4, 0, Control_c, 2, 7, 100
4, 0, Control_c, 2, 10, 64
4, 0, Control_c, 2, 91, 0
4, 0, Control_c, 2, 93, 0
4, 0, MIDI_port, 0
4, 0, Note_on_c, 2, 72, 96
4, 911, Note_on_c, 2, 72, 0
4, 960, Note_on_c, 2, 74, 96
4, 1871, Note_on_c, 2, 74, 0
4, 1920, Note_on_c, 2, 75, 96
4, 2831, Note_on_c, 2, 75, 0
4, 2880, Note_on_c, 2, 77, 96
4, 3791, Note_on_c, 2, 77, 0
4, 3840, Note_on_c, 2, 78, 96
4, 4751, Note_on_c, 2, 78, 0
4, 4800, Note_on_c, 2, 77, 96
4, 5711, Note_on_c, 2, 77, 0
4, 5760, Note_on_c, 2, 75, 96
4, 6671, Note_on_c, 2, 75, 0
4, 6720, Note_on_c, 2, 77, 96
4, 7631, Note_on_c, 2, 77, 0
4, 7680, Note_on_c, 2, 77, 96
4, 8591, Note_on_c, 2, 77, 0
4, 8640, Note_on_c, 2, 78, 96
4, 9551, Note_on_c, 2, 78, 0
4, 9600, Note_on_c, 2, 80, 96
4, 10511, Note_on_c, 2, 80, 0
4, 10560, Note_on_c, 2, 82, 96
4, 11471, Note_on_c, 2, 82, 0
4, 11520, Note_on_c, 2, 79, 96
4, 14483, Note_on_c, 2, 79, 0
4, 14640, Note_on_c, 2, 78, 96
4, 14753, Note_on_c, 2, 78, 0
4, 14760, Note_on_c, 2, 77, 96
4, 14873, Note_on_c, 2, 77, 0
4, 14880, Note_on_c, 2, 76, 96
4, 14993, Note_on_c, 2, 76, 0
4, 15000, Note_on_c, 2, 75, 96
4, 15113, Note_on_c, 2, 75, 0
4, 15120, Note_on_c, 2, 74, 96
4, 15233, Note_on_c, 2, 74, 0
4, 15240, Note_on_c, 2, 73, 96
4, 15353, Note_on_c, 2, 73, 0
4, 15360, Note_on_c, 2, 72, 96
4, 16271, Note_on_c, 2, 72, 0
4, 16320, Note_on_c, 2, 74, 96
4, 17231, Note_on_c, 2, 74, 0
4, 17280, Note_on_c, 2, 75, 96
4, 18191, Note_on_c, 2, 75, 0
4, 18240, Note_on_c, 2, 77, 96
4, 19151, Note_on_c, 2, 77, 0
4, 19200, Note_on_c, 2, 78, 96
4, 20111, Note_on_c, 2, 78, 0
4, 20160, Note_on_c, 2, 77, 96
4, 21071, Note_on_c, 2, 77, 0
4, 21120, Note_on_c, 2, 75, 96
4, 22031, Note_on_c, 2, 75, 0
4, 22080, Note_on_c, 2, 77, 96
4, 22991, Note_on_c, 2, 77, 0
4, 23040, Note_on_c, 2, 77, 96
4, 23951, Note_on_c, 2, 77, 0
4, 24000, Note_on_c, 2, 78, 96
4, 24911, Note_on_c, 2, 78, 0
4, 24960, Note_on_c, 2, 80, 96
4, 25871, Note_on_c, 2, 80, 0
4, 25920, Note_on_c, 2, 82, 96
4, 26375, Note_on_c, 2, 82, 0
4, 26400, Note_on_c, 2, 84, 96
4, 26855, Note_on_c, 2, 84, 0
4, 26880, Note_on_c, 2, 86, 96
4, 30527, Note_on_c, 2, 86, 0
4, 30720, Note_on_c, 2, 84, 96
4, 30947, Note_on_c, 2, 84, 0
4, 30960, Note_on_c, 2, 82, 96
4, 31187, Note_on_c, 2, 82, 0
4, 31200, Note_on_c, 2, 80, 96
4, 31427, Note_on_c, 2, 80, 0
4, 31440, Note_on_c, 2, 82, 96
4, 31667, Note_on_c, 2, 82, 0
4, 31680, Note_on_c, 2, 84, 96
4, 31907, Note_on_c, 2, 84, 0
4, 31920, Note_on_c, 2, 82, 96
4, 32147, Note_on_c, 2, 82, 0
4, 32160, Note_on_c, 2, 80, 96
4, 32387, Note_on_c, 2, 80, 0
4, 32400, Note_on_c, 2, 82, 96
4, 32627, Note_on_c, 2, 82, 0
4, 32640, Note_on_c, 2, 84, 96
4, 32867, Note_on_c, 2, 84, 0
4, 32880, Note_on_c, 2, 82, 96
4, 33107, Note_on_c, 2, 82, 0
4, 33120, Note_on_c, 2, 80, 96
4, 33347, Note_on_c, 2, 80, 0
4, 33360, Note_on_c, 2, 82, 96
4, 33587, Note_on_c, 2, 82, 0
4, 33600, Note_on_c, 2, 84, 96
4, 33827, Note_on_c, 2, 84, 0
4, 33840, Note_on_c, 2, 82, 96
4, 34067, Note_on_c, 2, 82, 0
4, 34080, Note_on_c, 2, 80, 96
4, 34307, Note_on_c, 2, 80, 0
4, 34320, Note_on_c, 2, 82, 96
4, 34547, Note_on_c, 2, 82, 0
4, 34560, Note_on_c, 2, 82, 96
4, 34787, Note_on_c, 2, 82, 0
4, 34800, Note_on_c, 2, 80, 96
4, 35027, Note_on_c, 2, 80, 0
4, 35040, Note_on_c, 2, 78, 96
4, 35267, Note_on_c, 2, 78, 0
4, 35280, Note_on_c, 2, 80, 96
4, 35507, Note_on_c, 2, 80, 0
4, 35520, Note_on_c, 2, 82, 96
4, 35747, Note_on_c, 2, 82, 0
4, 35760, Note_on_c, 2, 80, 96
4, 35987, Note_on_c, 2, 80, 0
4, 36000, Note_on_c, 2, 78, 96
4, 36227, Note_on_c, 2, 78, 0
4, 36240, Note_on_c, 2, 80, 96
4, 36467, Note_on_c, 2, 80, 0
4, 36480, Note_on_c, 2, 82, 96
4, 36707, Note_on_c, 2, 82, 0
4, 36720, Note_on_c, 2, 80, 96
4, 36947, Note_on_c, 2, 80, 0
4, 36960, Note_on_c, 2, 78, 96
4, 37187, Note_on_c, 2, 78, 0
4, 37200, Note_on_c, 2, 80, 96
4, 37427, Note_on_c, 2, 80, 0
4, 37440, Note_on_c, 2, 82, 96
4, 37667, Note_on_c, 2, 82, 0
4, 37680, Note_on_c, 2, 80, 96
4, 37907, Note_on_c, 2, 80, 0
4, 37920, Note_on_c, 2, 78, 96
4, 38147, Note_on_c, 2, 78, 0
4, 38160, Note_on_c, 2, 80, 96
4, 38387, Note_on_c, 2, 80, 0
4, 38400, Note_on_c, 2, 80, 96
4, 38627, Note_on_c, 2, 80, 0
4, 38640, Note_on_c, 2, 78, 96
4, 38867, Note_on_c, 2, 78, 0
4, 38880, Note_on_c, 2, 76, 96
4, 39107, Note_on_c, 2, 76, 0
4, 39120, Note_on_c, 2, 78, 96
4, 39347, Note_on_c, 2, 78, 0
4, 39360, Note_on_c, 2, 80, 96
4, 39587, Note_on_c, 2, 80, 0
4, 39600, Note_on_c, 2, 78, 96
4, 39827, Note_on_c, 2, 78, 0
4, 39840, Note_on_c, 2, 76, 96
4, 40067, Note_on_c, 2, 76, 0
4, 40080, Note_on_c, 2, 78, 96
4, 40307, Note_on_c, 2, 78, 0
4, 40320, Note_on_c, 2, 78, 96
4, 40547, Note_on_c, 2, 78, 0
4, 40560, Note_on_c, 2, 76, 96
4, 40787, Note_on_c, 2, 76, 0
4, 40800, Note_on_c, 2, 74, 96
4, 41027, Note_on_c, 2, 74, 0
4, 41040, Note_on_c, 2, 76, 96
4, 41267, Note_on_c, 2, 76, 0
4, 41280, Note_on_c, 2, 78, 96
4, 41507, Note_on_c, 2, 78, 0
4, 41520, Note_on_c, 2, 76, 96
4, 41747, Note_on_c, 2, 76, 0
4, 41760, Note_on_c, 2, 74, 96
4, 41987, Note_on_c, 2, 74, 0
4, 42000, Note_on_c, 2, 76, 96
4, 42227, Note_on_c, 2, 76, 0
4, 42240, Note_on_c, 2, 76, 96
4, 42467, Note_on_c, 2, 76, 0
4, 42480, Note_on_c, 2, 74, 96
4, 42707, Note_on_c, 2, 74, 0
4, 42720, Note_on_c, 2, 72, 96
4, 42947, Note_on_c, 2, 72, 0
4, 42960, Note_on_c, 2, 74, 96
4, 43187, Note_on_c, 2, 74, 0
4, 43200, Note_on_c, 2, 76, 96
4, 43427, Note_on_c, 2, 76, 0
4, 43440, Note_on_c, 2, 74, 96
4, 43667, Note_on_c, 2, 74, 0
4, 43680, Note_on_c, 2, 72, 96
4, 43907, Note_on_c, 2, 72, 0
4, 43920, Note_on_c, 2, 74, 96
4, 44147, Note_on_c, 2, 74, 0
4, 44160, Note_on_c, 2, 74, 96
4, 44387, Note_on_c, 2, 74, 0
4, 44400, Note_on_c, 2, 72, 96
4, 44627, Note_on_c, 2, 72, 0
4, 44640, Note_on_c, 2, 70, 96
4, 44867, Note_on_c, 2, 70, 0
4, 44880, Note_on_c, 2, 72, 96
4, 45107, Note_on_c, 2, 72, 0
4, 45120, Note_on_c, 2, 74, 96
4, 45347, Note_on_c, 2, 74, 0
4, 45360, Note_on_c, 2, 72, 96
4, 45587, Note_on_c, 2, 72, 0
4, 45600, Note_on_c, 2, 70, 96
4, 46055, Note_on_c, 2, 70, 0
4, 46080, Note_on_c, 2, 72, 96
4, 46991, Note_on_c, 2, 72, 0
4, 47040, Note_on_c, 2, 74, 96
4, 47951, Note_on_c, 2, 74, 0
4, 48000, Note_on_c, 2, 75, 96
4, 48911, Note_on_c, 2, 75, 0
4, 48960, Note_on_c, 2, 77, 96
4, 49871, Note_on_c, 2, 77, 0
4, 49920, Note_on_c, 2, 78, 96
4, 50831, Note_on_c, 2, 78, 0
4, 50880, Note_on_c, 2, 77, 96
4, 51791, Note_on_c, 2, 77, 0
4, 51840, Note_on_c, 2, 75, 96
4, 52751, Note_on_c, 2, 75, 0
4, 52800, Note_on_c, 2, 77, 96
4, 53711, Note_on_c, 2, 77, 0
4, 53760, Note_on_c, 2, 77, 96
4, 54671, Note_on_c, 2, 77, 0
4, 54720, Note_on_c, 2, 78, 96
4, 55631, Note_on_c, 2, 78, 0
4, 55680, Note_on_c, 2, 80, 96
4, 56591, Note_on_c, 2, 80, 0
4, 56640, Note_on_c, 2, 82, 96
4, 57551, Note_on_c, 2, 82, 0
4, 57600, Note_on_c, 2, 79, 96
4, 60563, Note_on_c, 2, 79, 0
4, 60720, Note_on_c, 2, 78, 96
4, 60833, Note_on_c, 2, 78, 0
4, 60840, Note_on_c, 2, 77, 96
4, 60953, Note_on_c, 2, 77, 0
4, 60960, Note_on_c, 2, 76, 96
4, 61073, Note_on_c, 2, 76, 0
4, 61080, Note_on_c, 2, 75, 96
4, 61193, Note_on_c, 2, 75, 0
4, 61200, Note_on_c, 2, 74, 96
4, 61313, Note_on_c, 2, 74, 0
4, 61320, Note_on_c, 2, 73, 96
4, 61433, Note_on_c, 2, 73, 0
4, 61440, Note_on_c, 2, 72, 96
4, 62351, Note_on_c, 2, 72, 0
4, 62400, Note_on_c, 2, 74, 96
4, 63311, Note_on_c, 2, 74, 0
4, 63360, Note_on_c, 2, 75, 96
4, 64271, Note_on_c, 2, 75, 0
4, 64320, Note_on_c, 2, 77, 96
4, 65231, Note_on_c, 2, 77, 0
4, 65280, Note_on_c, 2, 78, 96
4, 66191, Note_on_c, 2, 78, 0
4, 66240, Note_on_c, 2, 77, 96
4, 67151, Note_on_c, 2, 77, 0
4, 67200, Note_on_c, 2, 75, 96
4, 68111, Note_on_c, 2, 75, 0
4, 68160, Note_on_c, 2, 77, 96
4, 69071, Note_on_c, 2, 77, 0
4, 69120, Note_on_c, 2, 77, 96
4, 70031, Note_on_c, 2, 77, 0
4, 70080, Note_on_c, 2, 78, 96
4, 70991, Note_on_c, 2, 78, 0
4, 71040, Note_on_c, 2, 80, 96
4, 71951, Note_on_c, 2, 80, 0
4, 72000, Note_on_c, 2, 82, 96
4, 72455, Note_on_c, 2, 82, 0
4, 72480, Note_on_c, 2, 84, 96
4, 72935, Note_on_c, 2, 84, 0
4, 72960, Note_on_c, 2, 86, 96
4, 76607, Note_on_c, 2, 86, 0
4, 76800, Note_on_c, 2, 84, 96
4, 77027, Note_on_c, 2, 84, 0
4, 77040, Note_on_c, 2, 82, 96
4, 77267, Note_on_c, 2, 82, 0
4, 77280, Note_on_c, 2, 80, 96
4, 77507, Note_on_c, 2, 80, 0
4, 77520, Note_on_c, 2, 82, 96
4, 77747, Note_on_c, 2, 82, 0
4, 77760, Note_on_c, 2, 84, 96
4, 77987, Note_on_c, 2, 84, 0
4, 78000, Note_on_c, 2, 82, 96
4, 78227, Note_on_c, 2, 82, 0
4, 78240, Note_on_c, 2, 80, 96
4, 78467, Note_on_c, 2, 80, 0
4, 78480, Note_on_c, 2, 82, 96
4, 78707, Note_on_c, 2, 82, 0
4, 78720, Note_on_c, 2, 84, 96
4, 78947, Note_on_c, 2, 84, 0
4, 78960, Note_on_c, 2, 82, 96
4, 79187, Note_on_c, 2, 82, 0
4, 79200, Note_on_c, 2, 80, 96
4, 79427, Note_on_c, 2, 80, 0
4, 79440, Note_on_c, 2, 82, 96
4, 79667, Note_on_c, 2, 82, 0
4, 79680, Note_on_c, 2, 84, 96
4, 79907, Note_on_c, 2, 84, 0
4, 79920, Note_on_c, 2, 82, 96
4, 80147, Note_on_c, 2, 82, 0
4, 80160, Note_on_c, 2, 80, 96
4, 80387, Note_on_c, 2, 80, 0
4, 80400, Note_on_c, 2, 82, 96
4, 80627, Note_on_c, 2, 82, 0
4, 80640, Note_on_c, 2, 82, 96
4, 80867, Note_on_c, 2, 82, 0
4, 80880, Note_on_c, 2, 80, 96
4, 81107, Note_on_c, 2, 80, 0
4, 81120, Note_on_c, 2, 78, 96
4, 81347, Note_on_c, 2, 78, 0
4, 81360, Note_on_c, 2, 80, 96
4, 81587, Note_on_c, 2, 80, 0
4, 81600, Note_on_c, 2, 82, 96
4, 81827, Note_on_c, 2, 82, 0
4, 81840, Note_on_c, 2, 80, 96
4, 82067, Note_on_c, 2, 80, 0
4, 82080, Note_on_c, 2, 78, 96
4, 82307, Note_on_c, 2, 78, 0
4, 82320, Note_on_c, 2, 80, 96
4, 82547, Note_on_c, 2, 80, 0
4, 82560, Note_on_c, 2, 82, 96
4, 82787, Note_on_c, 2, 82, 0
4, 82800, Note_on_c, 2, 80, 96
4, 83027, Note_on_c, 2, 80, 0
4, 83040, Note_on_c, 2, 78, 96
4, 83267, Note_on_c, 2, 78, 0
4, 83280, Note_on_c, 2, 80, 96
4, 83507, Note_on_c, 2, 80, 0
4, 83520, Note_on_c, 2, 82, 96
4, 83747, Note_on_c, 2, 82, 0
4, 83760, Note_on_c, 2, 80, 96
4, 83987, Note_on_c, 2, 80, 0
4, 84000, Note_on_c, 2, 78, 96
4, 84227, Note_on_c, 2, 78, 0
4, 84240, Note_on_c, 2, 80, 96
4, 84467, Note_on_c, 2, 80, 0
4, 84480, Note_on_c, 2, 80, 96
4, 84707, Note_on_c, 2, 80, 0
4, 84720, Note_on_c, 2, 78, 96
4, 84947, Note_on_c, 2, 78, 0
4, 84960, Note_on_c, 2, 76, 96
4, 85187, Note_on_c, 2, 76, 0
4, 85200, Note_on_c, 2, 78, 96
4, 85427, Note_on_c, 2, 78, 0
4, 85440, Note_on_c, 2, 80, 96
4, 85667, Note_on_c, 2, 80, 0
4, 85680, Note_on_c, 2, 78, 96
4, 85907, Note_on_c, 2, 78, 0
4, 85920, Note_on_c, 2, 76, 96
4, 86147, Note_on_c, 2, 76, 0
4, 86160, Note_on_c, 2, 78, 96
4, 86387, Note_on_c, 2, 78, 0
4, 86400, Note_on_c, 2, 78, 96
4, 86627, Note_on_c, 2, 78, 0
4, 86640, Note_on_c, 2, 76, 96
4, 86867, Note_on_c, 2, 76, 0
4, 86880, Note_on_c, 2, 74, 96
4, 87107, Note_on_c, 2, 74, 0
4, 87120, Note_on_c, 2, 76, 96
4, 87347, Note_on_c, 2, 76, 0
4, 87360, Note_on_c, 2, 78, 96
4, 87587, Note_on_c, 2, 78, 0
4, 87600, Note_on_c, 2, 76, 96
4, 87827, Note_on_c, 2, 76, 0
4, 87840, Note_on_c, 2, 74, 96
4, 88067, Note_on_c, 2, 74, 0
4, 88080, Note_on_c, 2, 76, 96
4, 88307, Note_on_c, 2, 76, 0
4, 88320, Note_on_c, 2, 76, 96
4, 88547, Note_on_c, 2, 76, 0
4, 88560, Note_on_c, 2, 74, 96
4, 88787, Note_on_c, 2, 74, 0
4, 88800, Note_on_c, 2, 72, 96
4, 89027, Note_on_c, 2, 72, 0
4, 89040, Note_on_c, 2, 74, 96
4, 89267, Note_on_c, 2, 74, 0
4, 89280, Note_on_c, 2, 76, 96
4, 89507, Note_on_c, 2, 76, 0
4, 89520, Note_on_c, 2, 74, 96
4, 89747, Note_on_c, 2, 74, 0
4, 89760, Note_on_c, 2, 72, 96
4, 89987, Note_on_c, 2, 72, 0
4, 90000, Note_on_c, 2, 74, 96
4, 90227, Note_on_c, 2, 74, 0
4, 90240, Note_on_c, 2, 74, 96
4, 90467, Note_on_c, 2, 74, 0
4, 90480, Note_on_c, 2, 72, 96
4, 90707, Note_on_c, 2, 72, 0
4, 90720, Note_on_c, 2, 70, 96
4, 90947, Note_on_c, 2, 70, 0
4, 90960, Note_on_c, 2, 72, 96
4, 91187, Note_on_c, 2, 72, 0
4, 91200, Note_on_c, 2, 74, 96
4, 91427, Note_on_c, 2, 74, 0
4, 91440, Note_on_c, 2, 72, 96
4, 91667, Note_on_c, 2, 72, 0
4, 91680, Note_on_c, 2, 70, 96
4, 92128, Note_on_c, 2, 70, 0
4, 92129, End_track
5, 0, Start_track
5, 0, Title_t, "Instrument_04\000"
5, 0, Key_signature, 0, "major"
5, 0, Control_c, 3, 121, 0
5, 0, Program_c, 3, 81
5, 0, Control_c, 3, 7, 100
5, 0, Control_c, 3, 10, 64
5, 0, Control_c, 3, 91, 0
5, 0, Control_c, 3, 93, 0
5, 0, MIDI_port, 0
5, 0, Note_on_c, 3, 63, 96
5, 911, Note_on_c, 3, 63, 0
5, 960, Note_on_c, 3, 68, 96
5, 1871, Note_on_c, 3, 68, 0
5, 1920, Note_on_c, 3, 72, 96
5, 2831, Note_on_c, 3, 72, 0
5, 2880, Note_on_c, 3, 71, 96
5, 3791, Note_on_c, 3, 71, 0
5, 3840, Note_on_c, 3, 70, 96
5, 4751, Note_on_c, 3, 70, 0
5, 4800, Note_on_c, 3, 68, 96
5, 5711, Note_on_c, 3, 68, 0
5, 5760, Note_on_c, 3, 72, 96
5, 6671, Note_on_c, 3, 72, 0
5, 6720, Note_on_c, 3, 74, 96
5, 7631, Note_on_c, 3, 74, 0
5, 7680, Note_on_c, 3, 73, 96
5, 8591, Note_on_c, 3, 73, 0
5, 8640, Note_on_c, 3, 75, 96
5, 9551, Note_on_c, 3, 75, 0
5, 9600, Note_on_c, 3, 77, 96
5, 10511, Note_on_c, 3, 77, 0
5, 10560, Note_on_c, 3, 75, 96
5, 11471, Note_on_c, 3, 75, 0
5, 11520, Note_on_c, 3, 74, 96
5, 14483, Note_on_c, 3, 74, 0
5, 14640, Note_on_c, 3, 69, 96
5, 14753, Note_on_c, 3, 69, 0
5, 14760, Note_on_c, 3, 68, 96
5, 14873, Note_on_c, 3, 68, 0
5, 14880, Note_on_c, 3, 67, 96
5, 14993, Note_on_c, 3, 67, 0
5, 15000, Note_on_c, 3, 66, 96
5, 15113, Note_on_c, 3, 66, 0
5, 15120, Note_on_c, 3, 65, 96
5, 15233, Note_on_c, 3, 65, 0
5, 15240, Note_on_c, 3, 64, 96
5, 15353, Note_on_c, 3, 64, 0
5, 15360, Note_on_c, 3, 63, 96
5, 16271, Note_on_c, 3, 63, 0
5, 16320, Note_on_c, 3, 68, 96
5, 17231, Note_on_c, 3, 68, 0
5, 17280, Note_on_c, 3, 72, 96
5, 18191, Note_on_c, 3, 72, 0
5, 18240, Note_on_c, 3, 71, 96
5, 19151, Note_on_c, 3, 71, 0
5, 19200, Note_on_c, 3, 70, 96
5, 20111, Note_on_c, 3, 70, 0
5, 20160, Note_on_c, 3, 68, 96
5, 21071, Note_on_c, 3, 68, 0
5, 21120, Note_on_c, 3, 72, 96
5, 22031, Note_on_c, 3, 72, 0
5, 22080, Note_on_c, 3, 74, 96
5, 22991, Note_on_c, 3, 74, 0
5, 23040, Note_on_c, 3, 73, 96
5, 23951, Note_on_c, 3, 73, 0
5, 24000, Note_on_c, 3, 75, 96
5, 24911, Note_on_c, 3, 75, 0
5, 24960, Note_on_c, 3, 77, 96
5, 25871, Note_on_c, 3, 77, 0
5, 25920, Note_on_c, 3, 75, 96
5, 26375, Note_on_c, 3, 75, 0
5, 26400, Note_on_c, 3, 77, 96
5, 26855, Note_on_c, 3, 77, 0
5, 26880, Note_on_c, 3, 79, 96
5, 30527, Note_on_c, 3, 79, 0
5, 30720, Note_on_c, 3, 79, 96
5, 32639, Note_on_c, 3, 79, 0
5, 32640, Note_on_c, 3, 77, 96
5, 34463, Note_on_c, 3, 77, 0
5, 34560, Note_on_c, 3, 77, 96
5, 36479, Note_on_c, 3, 77, 0
5, 36480, Note_on_c, 3, 75, 96
5, 38303, Note_on_c, 3, 75, 0
5, 38400, Note_on_c, 3, 75, 96
5, 39359, Note_on_c, 3, 75, 0
5, 39360, Note_on_c, 3, 73, 96
5, 40271, Note_on_c, 3, 73, 0
5, 40320, Note_on_c, 3, 73, 96
5, 41279, Note_on_c, 3, 73, 0
5, 41280, Note_on_c, 3, 71, 96
5, 42191, Note_on_c, 3, 71, 0
5, 42240, Note_on_c, 3, 71, 96
5, 43199, Note_on_c, 3, 71, 0
5, 43200, Note_on_c, 3, 69, 96
5, 44111, Note_on_c, 3, 69, 0
5, 44160, Note_on_c, 3, 69, 96
5, 45119, Note_on_c, 3, 69, 0
5, 45120, Note_on_c, 3, 67, 96
5, 46031, Note_on_c, 3, 67, 0
5, 46080, Note_on_c, 3, 63, 96
5, 46991, Note_on_c, 3, 63, 0
5, 47040, Note_on_c, 3, 68, 96
5, 47951, Note_on_c, 3, 68, 0
5, 48000, Note_on_c, 3, 72, 96
5, 48911, Note_on_c, 3, 72, 0
5, 48960, Note_on_c, 3, 71, 96
5, 49871, Note_on_c, 3, 71, 0
5, 49920, Note_on_c, 3, 70, 96
5, 50831, Note_on_c, 3, 70, 0
5, 50880, Note_on_c, 3, 68, 96
5, 51791, Note_on_c, 3, 68, 0
5, 51840, Note_on_c, 3, 72, 96
5, 52751, Note_on_c, 3, 72, 0
5, 52800, Note_on_c, 3, 74, 96
5, 53711, Note_on_c, 3, 74, 0
5, 53760, Note_on_c, 3, 73, 96
5, 54671, Note_on_c, 3, 73, 0
5, 54720, Note_on_c, 3, 75, 96
5, 55631, Note_on_c, 3, 75, 0
5, 55680, Note_on_c, 3, 77, 96
5, 56591, Note_on_c, 3, 77, 0
5, 56640, Note_on_c, 3, 75, 96
5, 57551, Note_on_c, 3, 75, 0
5, 57600, Note_on_c, 3, 74, 96
5, 60563, Note_on_c, 3, 74, 0
5, 60720, Note_on_c, 3, 69, 96
5, 60833, Note_on_c, 3, 69, 0
5, 60840, Note_on_c, 3, 68, 96
5, 60953, Note_on_c, 3, 68, 0
5, 60960, Note_on_c, 3, 67, 96
5, 61073, Note_on_c, 3, 67, 0
5, 61080, Note_on_c, 3, 66, 96
5, 61193, Note_on_c, 3, 66, 0
5, 61200, Note_on_c, 3, 65, 96
5, 61313, Note_on_c, 3, 65, 0
5, 61320, Note_on_c, 3, 64, 96
5, 61433, Note_on_c, 3, 64, 0
5, 61440, Note_on_c, 3, 63, 96
5, 62351, Note_on_c, 3, 63, 0
5, 62400, Note_on_c, 3, 68, 96
5, 63311, Note_on_c, 3, 68, 0
5, 63360, Note_on_c, 3, 72, 96
5, 64271, Note_on_c, 3, 72, 0
5, 64320, Note_on_c, 3, 71, 96
5, 65231, Note_on_c, 3, 71, 0
5, 65280, Note_on_c, 3, 70, 96
5, 66191, Note_on_c, 3, 70, 0
5, 66240, Note_on_c, 3, 68, 96
5, 67151, Note_on_c, 3, 68, 0
5, 67200, Note_on_c, 3, 72, 96
5, 68111, Note_on_c, 3, 72, 0
5, 68160, Note_on_c, 3, 74, 96
5, 69071, Note_on_c, 3, 74, 0
5, 69120, Note_on_c, 3, 73, 96
5, 70031, Note_on_c, 3, 73, 0
5, 70080, Note_on_c, 3, 75, 96
5, 70991, Note_on_c, 3, 75, 0
5, 71040, Note_on_c, 3, 77, 96
5, 71951, Note_on_c, 3, 77, 0
5, 72000, Note_on_c, 3, 75, 96
5, 72455, Note_on_c, 3, 75, 0
5, 72480, Note_on_c, 3, 77, 96
5, 72935, Note_on_c, 3, 77, 0
5, 72960, Note_on_c, 3, 79, 96
5, 76607, Note_on_c, 3, 79, 0
5, 76800, Note_on_c, 3, 79, 96
5, 78719, Note_on_c, 3, 79, 0
5, 78720, Note_on_c, 3, 77, 96
5, 80543, Note_on_c, 3, 77, 0
5, 80640, Note_on_c, 3, 77, 96
5, 82559, Note_on_c, 3, 77, 0
5, 82560, Note_on_c, 3, 75, 96
5, 84383, Note_on_c, 3, 75, 0
5, 84480, Note_on_c, 3, 75, 96
5, 85439, Note_on_c, 3, 75, 0
5, 85440, Note_on_c, 3, 73, 96
5, 86351, Note_on_c, 3, 73, 0
5, 86400, Note_on_c, 3, 73, 96
5, 87359, Note_on_c, 3, 73, 0
5, 87360, Note_on_c, 3, 71, 96
5, 88271, Note_on_c, 3, 71, 0
5, 88320, Note_on_c, 3, 71, 96
5, 89279, Note_on_c, 3, 71, 0
5, 89280, Note_on_c, 3, 69, 96
5, 90191, Note_on_c, 3, 69, 0
5, 90240, Note_on_c, 3, 69, 96
5, 91199, Note_on_c, 3, 69, 0
5, 91200, Note_on_c, 3, 67, 96
5, 92140, Note_on_c, 3, 67, 0
5, 92141, End_track
6, 0, Start_track
6, 0, Title_t, "Instrument_05\000"
6, 0, Key_signature, 0, "major"
6, 0, Control_c, 4, 121, 0
6, 0, Program_c, 4, 80
6, 0, Control_c, 4, 7, 100
6, 0, Control_c, 4, 10, 64
6, 0, Control_c, 4, 91, 0
6, 0, Control_c, 4, 93, 0
6, 0, MIDI_port, 0
6, 30720, Note_on_c, 4, 68, 80
6, 30779, Note_on_c, 4, 68, 0
6, 30840, Note_on_c, 4, 68, 80
6, 30959, Note_on_c, 4, 68, 0
6, 30960, Note_on_c, 4, 56, 80
6, 31019, Note_on_c, 4, 56, 0
6, 31080, Note_on_c, 4, 56, 80
6, 31199, Note_on_c, 4, 56, 0
6, 31200, Note_on_c, 4, 68, 80
6, 31259, Note_on_c, 4, 68, 0
6, 31320, Note_on_c, 4, 68, 80
6, 31439, Note_on_c, 4, 68, 0
6, 31440, Note_on_c, 4, 56, 80
6, 31499, Note_on_c, 4, 56, 0
6, 31560, Note_on_c, 4, 56, 80
6, 31679, Note_on_c, 4, 56, 0
6, 31680, Note_on_c, 4, 68, 80
6, 31739, Note_on_c, 4, 68, 0
6, 31800, Note_on_c, 4, 68, 80
6, 31919, Note_on_c, 4, 68, 0
6, 31920, Note_on_c, 4, 56, 80
6, 31979, Note_on_c, 4, 56, 0
6, 32040, Note_on_c, 4, 56, 80
6, 32159, Note_on_c, 4, 56, 0
6, 32160, Note_on_c, 4, 68, 80
6, 32219, Note_on_c, 4, 68, 0
6, 32280, Note_on_c, 4, 68, 80
6, 32399, Note_on_c, 4, 68, 0
6, 32400, Note_on_c, 4, 56, 80
6, 32459, Note_on_c, 4, 56, 0
6, 32520, Note_on_c, 4, 56, 80
6, 32639, Note_on_c, 4, 56, 0
6, 32640, Note_on_c, 4, 73, 80
6, 32699, Note_on_c, 4, 73, 0
6, 32760, Note_on_c, 4, 73, 80
6, 32879, Note_on_c, 4, 73, 0
6, 32880, Note_on_c, 4, 61, 80
6, 32939, Note_on_c, 4, 61, 0
6, 33000, Note_on_c, 4, 61, 80
6, 33119, Note_on_c, 4, 61, 0
6, 33120, Note_on_c, 4, 73, 80
6, 33179, Note_on_c, 4, 73, 0
6, 33240, Note_on_c, 4, 73, 80
6, 33359, Note_on_c, 4, 73, 0
6, 33360, Note_on_c, 4, 61, 80
6, 33419, Note_on_c, 4, 61, 0
6, 33480, Note_on_c, 4, 61, 80
6, 33599, Note_on_c, 4, 61, 0
6, 33600, Note_on_c, 4, 73, 80
6, 33659, Note_on_c, 4, 73, 0
6, 33720, Note_on_c, 4, 73, 80
6, 33839, Note_on_c, 4, 73, 0
6, 33840, Note_on_c, 4, 61, 80
6, 33899, Note_on_c, 4, 61, 0
6, 33960, Note_on_c, 4, 61, 80
6, 34079, Note_on_c, 4, 61, 0
6, 34080, Note_on_c, 4, 73, 80
6, 34139, Note_on_c, 4, 73, 0
6, 34200, Note_on_c, 4, 73, 80
6, 34319, Note_on_c, 4, 73, 0
6, 34320, Note_on_c, 4, 61, 80
6, 34379, Note_on_c, 4, 61, 0
6, 34440, Note_on_c, 4, 61, 80
6, 34559, Note_on_c, 4, 61, 0
6, 34560, Note_on_c, 4, 66, 80
6, 34619, Note_on_c, 4, 66, 0
6, 34680, Note_on_c, 4, 66, 80
6, 34799, Note_on_c, 4, 66, 0
6, 34800, Note_on_c, 4, 54, 80
6, 34859, Note_on_c, 4, 54, 0
6, 34920, Note_on_c, 4, 54, 80
6, 35039, Note_on_c, 4, 54, 0
6, 35040, Note_on_c, 4, 66, 80
6, 35099, Note_on_c, 4, 66, 0
6, 35160, Note_on_c, 4, 66, 80
6, 35279, Note_on_c, 4, 66, 0
6, 35280, Note_on_c, 4, 54, 80
6, 35339, Note_on_c, 4, 54, 0
6, 35400, Note_on_c, 4, 54, 80
6, 35519, Note_on_c, 4, 54, 0
6, 35520, Note_on_c, 4, 66, 80
6, 35579, Note_on_c, 4, 66, 0
6, 35640, Note_on_c, 4, 66, 80
6, 35759, Note_on_c, 4, 66, 0
6, 35760, Note_on_c, 4, 54, 80
6, 35819, Note_on_c, 4, 54, 0
6, 35880, Note_on_c, 4, 54, 80
6, 35999, Note_on_c, 4, 54, 0
6, 36000, Note_on_c, 4, 66, 80
6, 36059, Note_on_c, 4, 66, 0
6, 36120, Note_on_c, 4, 66, 80
6, 36239, Note_on_c, 4, 66, 0
6, 36240, Note_on_c, 4, 54, 80
6, 36299, Note_on_c, 4, 54, 0
6, 36360, Note_on_c, 4, 54, 80
6, 36479, Note_on_c, 4, 54, 0
6, 36480, Note_on_c, 4, 71, 80
6, 36539, Note_on_c, 4, 71, 0
6, 36600, Note_on_c, 4, 71, 80
6, 36719, Note_on_c, 4, 71, 0
6, 36720, Note_on_c, 4, 59, 80
6, 36779, Note_on_c, 4, 59, 0
6, 36840, Note_on_c, 4, 59, 80
6, 36959, Note_on_c, 4, 59, 0
6, 36960, Note_on_c, 4, 71, 80
6, 37019, Note_on_c, 4, 71, 0
6, 37080, Note_on_c, 4, 71, 80
6, 37199, Note_on_c, 4, 71, 0
6, 37200, Note_on_c, 4, 59, 80
6, 37259, Note_on_c, 4, 59, 0
6, 37320, Note_on_c, 4, 59, 80
6, 37439, Note_on_c, 4, 59, 0
6, 37440, Note_on_c, 4, 71, 80
6, 37499, Note_on_c, 4, 71, 0
6, 37560, Note_on_c, 4, 71, 80
6, 37679, Note_on_c, 4, 71, 0
6, 37680, Note_on_c, 4, 59, 80
6, 37739, Note_on_c, 4, 59, 0
6, 37800, Note_on_c, 4, 59, 80
6, 37919, Note_on_c, 4, 59, 0
6, 37920, Note_on_c, 4, 71, 80
6, 37979, Note_on_c, 4, 71, 0
6, 38040, Note_on_c, 4, 71, 80
6, 38159, Note_on_c, 4, 71, 0
6, 38160, Note_on_c, 4, 59, 80
6, 38219, Note_on_c, 4, 59, 0
6, 38280, Note_on_c, 4, 59, 80
6, 38399, Note_on_c, 4, 59, 0
6, 38400, Note_on_c, 4, 64, 80
6, 38459, Note_on_c, 4, 64, 0
6, 38520, Note_on_c, 4, 64, 80
6, 38639, Note_on_c, 4, 64, 0
6, 38640, Note_on_c, 4, 52, 80
6, 38699, Note_on_c, 4, 52, 0
6, 38760, Note_on_c, 4, 52, 80
6, 38879, Note_on_c, 4, 52, 0
6, 38880, Note_on_c, 4, 64, 80
6, 38939, Note_on_c, 4, 64, 0
6, 39000, Note_on_c, 4, 64, 80
6, 39119, Note_on_c, 4, 64, 0
6, 39120, Note_on_c, 4, 52, 80
6, 39179, Note_on_c, 4, 52, 0
6, 39240, Note_on_c, 4, 52, 80
6, 39359, Note_on_c, 4, 52, 0
6, 39360, Note_on_c, 4, 69, 80
6, 39419, Note_on_c, 4, 69, 0
6, 39480, Note_on_c, 4, 69, 80
6, 39599, Note_on_c, 4, 69, 0
6, 39600, Note_on_c, 4, 57, 80
6, 39659, Note_on_c, 4, 57, 0
6, 39720, Note_on_c, 4, 57, 80
6, 39839, Note_on_c, 4, 57, 0
6, 39840, Note_on_c, 4, 69, 80
6, 39899, Note_on_c, 4, 69, 0
6, 39960, Note_on_c, 4, 69, 80
6, 40079, Note_on_c, 4, 69, 0
6, 40080, Note_on_c, 4, 57, 80
6, 40139, Note_on_c, 4, 57, 0
6, 40200, Note_on_c, 4, 57, 80
6, 40319, Note_on_c, 4, 57, 0
6, 40320, Note_on_c, 4, 74, 80
6, 40379, Note_on_c, 4, 74, 0
6, 40440, Note_on_c, 4, 74, 80
6, 40559, Note_on_c, 4, 74, 0
6, 40560, Note_on_c, 4, 62, 80
6, 40619, Note_on_c, 4, 62, 0
6, 40680, Note_on_c, 4, 62, 80
6, 40799, Note_on_c, 4, 62, 0
6, 40800, Note_on_c, 4, 74, 80
6, 40859, Note_on_c, 4, 74, 0
6, 40920, Note_on_c, 4, 74, 80
6, 41039, Note_on_c, 4, 74, 0
6, 41040, Note_on_c, 4, 62, 80
6, 41099, Note_on_c, 4, 62, 0
6, 41160, Note_on_c, 4, 62, 80
6, 41273, Note_on_c, 4, 62, 0
6, 41280, Note_on_c, 4, 67, 80
6, 41339, Note_on_c, 4, 67, 0
6, 41400, Note_on_c, 4, 67, 80
6, 41519, Note_on_c, 4, 67, 0
6, 41520, Note_on_c, 4, 55, 80
6, 41579, Note_on_c, 4, 55, 0
6, 41640, Note_on_c, 4, 55, 80
6, 41759, Note_on_c, 4, 55, 0
6, 41760, Note_on_c, 4, 67, 80
6, 41819, Note_on_c, 4, 67, 0
6, 41880, Note_on_c, 4, 67, 80
6, 41999, Note_on_c, 4, 67, 0
6, 42000, Note_on_c, 4, 55, 80
6, 42059, Note_on_c, 4, 55, 0
6, 42120, Note_on_c, 4, 55, 80
6, 42239, Note_on_c, 4, 55, 0
6, 42240, Note_on_c, 4, 60, 80
6, 42299, Note_on_c, 4, 60, 0
6, 42360, Note_on_c, 4, 60, 80
6, 42479, Note_on_c, 4, 60, 0
6, 42480, Note_on_c, 4, 48, 80
6, 42539, Note_on_c, 4, 48, 0
6, 42600, Note_on_c, 4, 48, 80
6, 42719, Note_on_c, 4, 48, 0
6, 42720, Note_on_c, 4, 60, 80
6, 42779, Note_on_c, 4, 60, 0
6, 42840, Note_on_c, 4, 60, 80
6, 42959, Note_on_c, 4, 60, 0
6, 42960, Note_on_c, 4, 48, 80
6, 43019, Note_on_c, 4, 48, 0
6, 43080, Note_on_c, 4, 48, 80
6, 43193, Note_on_c, 4, 48, 0
6, 43200, Note_on_c, 4, 65, 80
6, 43259, Note_on_c, 4, 65, 0
6, 43320, Note_on_c, 4, 65, 80
6, 43439, Note_on_c, 4, 65, 0
6, 43440, Note_on_c, 4, 53, 80
6, 43499, Note_on_c, 4, 53, 0
6, 43560, Note_on_c, 4, 53, 80
6, 43679, Note_on_c, 4, 53, 0
6, 43680, Note_on_c, 4, 65, 80
6, 43739, Note_on_c, 4, 65, 0
6, 43800, Note_on_c, 4, 65, 80
6, 43919, Note_on_c, 4, 65, 0
6, 43920, Note_on_c, 4, 53, 80
6, 43979, Note_on_c, 4, 53, 0
6, 44040, Note_on_c, 4, 53, 80
6, 44159, Note_on_c, 4, 53, 0
6, 44160, Note_on_c, 4, 58, 80
6, 44219, Note_on_c, 4, 58, 0
6, 44280, Note_on_c, 4, 58, 80
6, 44399, Note_on_c, 4, 58, 0
6, 44400, Note_on_c, 4, 46, 80
6, 44459, Note_on_c, 4, 46, 0
6, 44520, Note_on_c, 4, 46, 80
6, 44639, Note_on_c, 4, 46, 0
6, 44640, Note_on_c, 4, 58, 80
6, 44699, Note_on_c, 4, 58, 0
6, 44760, Note_on_c, 4, 58, 80
6, 44879, Note_on_c, 4, 58, 0
6, 44880, Note_on_c, 4, 46, 80
6, 44939, Note_on_c, 4, 46, 0
6, 45000, Note_on_c, 4, 46, 80
6, 45119, Note_on_c, 4, 46, 0
6, 45120, Note_on_c, 4, 63, 80
6, 45179, Note_on_c, 4, 63, 0
6, 45240, Note_on_c, 4, 63, 80
6, 45359, Note_on_c, 4, 63, 0
6, 45360, Note_on_c, 4, 51, 80
6, 45419, Note_on_c, 4, 51, 0
6, 45480, Note_on_c, 4, 51, 80
6, 45599, Note_on_c, 4, 51, 0
6, 45600, Note_on_c, 4, 63, 80
6, 45659, Note_on_c, 4, 63, 0
6, 45720, Note_on_c, 4, 63, 80
6, 45839, Note_on_c, 4, 63, 0
6, 45840, Note_on_c, 4, 75, 80
6, 45899, Note_on_c, 4, 75, 0
6, 45960, Note_on_c, 4, 75, 80
6, 46073, Note_on_c, 4, 75, 0
6, 46080, Note_on_c, 4, 80, 80
6, 46193, Note_on_c, 4, 80, 0
6, 46200, Note_on_c, 4, 68, 80
6, 46313, Note_on_c, 4, 68, 0
6, 46320, Note_on_c, 4, 68, 80
6, 46433, Note_on_c, 4, 68, 0
6, 46440, Note_on_c, 4, 56, 80
6, 46553, Note_on_c, 4, 56, 0
6, 46560, Note_on_c, 4, 56, 80
6, 46673, Note_on_c, 4, 56, 0
6, 46680, Note_on_c, 4, 68, 80
6, 46793, Note_on_c, 4, 68, 0
6, 46800, Note_on_c, 4, 68, 80
6, 46913, Note_on_c, 4, 68, 0
6, 46920, Note_on_c, 4, 80, 80
6, 47033, Note_on_c, 4, 80, 0
6, 47040, Note_on_c, 4, 80, 80
6, 47153, Note_on_c, 4, 80, 0
6, 47160, Note_on_c, 4, 68, 80
6, 47273, Note_on_c, 4, 68, 0
6, 47280, Note_on_c, 4, 68, 80
6, 47393, Note_on_c, 4, 68, 0
6, 47400, Note_on_c, 4, 56, 80
6, 47513, Note_on_c, 4, 56, 0
6, 47520, Note_on_c, 4, 56, 80
6, 47633, Note_on_c, 4, 56, 0
6, 47640, Note_on_c, 4, 68, 80
6, 47753, Note_on_c, 4, 68, 0
6, 47760, Note_on_c, 4, 68, 80
6, 47873, Note_on_c, 4, 68, 0
6, 47880, Note_on_c, 4, 80, 80
6, 47993, Note_on_c, 4, 80, 0
6, 48000, Note_on_c, 4, 80, 80
6, 48113, Note_on_c, 4, 80, 0
6, 48120, Note_on_c, 4, 68, 80
6, 48233, Note_on_c, 4, 68, 0
6, 48240, Note_on_c, 4, 68, 80
6, 48353, Note_on_c, 4, 68, 0
6, 48360, Note_on_c, 4, 56, 80
6, 48473, Note_on_c, 4, 56, 0
6, 48480, Note_on_c, 4, 56, 80
6, 48593, Note_on_c, 4, 56, 0
6, 48600, Note_on_c, 4, 68, 80
6, 48713, Note_on_c, 4, 68, 0
6, 48720, Note_on_c, 4, 68, 80
6, 48833, Note_on_c, 4, 68, 0
6, 48840, Note_on_c, 4, 80, 80
6, 48953, Note_on_c, 4, 80, 0
6, 48960, Note_on_c, 4, 80, 80
6, 49073, Note_on_c, 4, 80, 0
6, 49080, Note_on_c, 4, 68, 80
6, 49193, Note_on_c, 4, 68, 0
6, 49200, Note_on_c, 4, 68, 80
6, 49313, Note_on_c, 4, 68, 0
6, 49320, Note_on_c, 4, 56, 80
6, 49433, Note_on_c, 4, 56, 0
6, 49440, Note_on_c, 4, 56, 80
6, 49553, Note_on_c, 4, 56, 0
6, 49560, Note_on_c, 4, 68, 80
6, 49673, Note_on_c, 4, 68, 0
6, 49680, Note_on_c, 4, 68, 80
6, 49793, Note_on_c, 4, 68, 0
6, 49800, Note_on_c, 4, 80, 80
6, 49913, Note_on_c, 4, 80, 0
6, 49920, Note_on_c, 4, 80, 80
6, 50033, Note_on_c, 4, 80, 0
6, 50040, Note_on_c, 4, 68, 80
6, 50153, Note_on_c, 4, 68, 0
6, 50160, Note_on_c, 4, 68, 80
6, 50273, Note_on_c, 4, 68, 0
6, 50280, Note_on_c, 4, 56, 80
6, 50393, Note_on_c, 4, 56, 0
6, 50400, Note_on_c, 4, 56, 80
6, 50513, Note_on_c, 4, 56, 0
6, 50520, Note_on_c, 4, 68, 80
6, 50633, Note_on_c, 4, 68, 0
6, 50640, Note_on_c, 4, 68, 80
6, 50753, Note_on_c, 4, 68, 0
6, 50760, Note_on_c, 4, 80, 80
6, 50873, Note_on_c, 4, 80, 0
6, 50880, Note_on_c, 4, 80, 80
6, 50993, Note_on_c, 4, 80, 0
6, 51000, Note_on_c, 4, 68, 80
6, 51113, Note_on_c, 4, 68, 0
6, 51120, Note_on_c, 4, 68, 80
6, 51233, Note_on_c, 4, 68, 0
6, 51240, Note_on_c, 4, 56, 80
6, 51353, Note_on_c, 4, 56, 0
6, 51360, Note_on_c, 4, 56, 80
6, 51473, Note_on_c, 4, 56, 0
6, 51480, Note_on_c, 4, 68, 80
6, 51593, Note_on_c, 4, 68, 0
6, 51600, Note_on_c, 4, 68, 80
6, 51713, Note_on_c, 4, 68, 0
6, 51720, Note_on_c, 4, 80, 80
6, 51833, Note_on_c, 4, 80, 0
6, 51840, Note_on_c, 4, 80, 80
6, 51953, Note_on_c, 4, 80, 0
6, 51960, Note_on_c, 4, 68, 80
6, 52073, Note_on_c, 4, 68, 0
6, 52080, Note_on_c, 4, 68, 80
6, 52193, Note_on_c, 4, 68, 0
6, 52200, Note_on_c, 4, 56, 80
6, 52313, Note_on_c, 4, 56, 0
6, 52320, Note_on_c, 4, 56, 80
6, 52433, Note_on_c, 4, 56, 0
6, 52440, Note_on_c, 4, 68, 80
6, 52553, Note_on_c, 4, 68, 0
6, 52560, Note_on_c, 4, 68, 80
6, 52673, Note_on_c, 4, 68, 0
6, 52680, Note_on_c, 4, 80, 80
6, 52793, Note_on_c, 4, 80, 0
6, 52800, Note_on_c, 4, 80, 80
6, 52913, Note_on_c, 4, 80, 0
6, 52920, Note_on_c, 4, 68, 80
6, 53033, Note_on_c, 4, 68, 0
6, 53040, Note_on_c, 4, 68, 80
6, 53153, Note_on_c, 4, 68, 0
6, 53160, Note_on_c, 4, 56, 80
6, 53273, Note_on_c, 4, 56, 0
6, 53280, Note_on_c, 4, 56, 80
6, 53393, Note_on_c, 4, 56, 0
6, 53400, Note_on_c, 4, 68, 80
6, 53513, Note_on_c, 4, 68, 0
6, 53520, Note_on_c, 4, 68, 80
6, 53633, Note_on_c, 4, 68, 0
6, 53640, Note_on_c, 4, 80, 80
6, 53753, Note_on_c, 4, 80, 0
6, 53760, Note_on_c, 4, 85, 80
6, 53873, Note_on_c, 4, 85, 0
6, 53880, Note_on_c, 4, 73, 80
6, 53993, Note_on_c, 4, 73, 0
6, 54000, Note_on_c, 4, 73, 80
6, 54113, Note_on_c, 4, 73, 0
6, 54120, Note_on_c, 4, 61, 80
6, 54233, Note_on_c, 4, 61, 0
6, 54240, Note_on_c, 4, 61, 80
6, 54353, Note_on_c, 4, 61, 0
6, 54360, Note_on_c, 4, 73, 80
6, 54473, Note_on_c, 4, 73, 0
6, 54480, Note_on_c, 4, 73, 80
6, 54593, Note_on_c, 4, 73, 0
6, 54600, Note_on_c, 4, 85, 80
6, 54713, Note_on_c, 4, 85, 0
6, 54720, Note_on_c, 4, 85, 80
6, 54833, Note_on_c, 4, 85, 0
6, 54840, Note_on_c, 4, 73, 80
6, 54953, Note_on_c, 4, 73, 0
6, 54960, Note_on_c, 4, 73, 80
6, 55073, Note_on_c, 4, 73, 0
6, 55080, Note_on_c, 4, 61, 80
6, 55193, Note_on_c, 4, 61, 0
6, 55200, Note_on_c, 4, 61, 80
6, 55313, Note_on_c, 4, 61, 0
6, 55320, Note_on_c, 4, 73, 80
6, 55433, Note_on_c, 4, 73, 0
6, 55440, Note_on_c, 4, 73, 80
6, 55553, Note_on_c, 4, 73, 0
6, 55560, Note_on_c, 4, 85, 80
6, 55673, Note_on_c, 4, 85, 0
6, 55680, Note_on_c, 4, 85, 80
6, 55793, Note_on_c, 4, 85, 0
6, 55800, Note_on_c, 4, 73, 80
6, 55913, Note_on_c, 4, 73, 0
6, 55920, Note_on_c, 4, 73, 80
6, 56033, Note_on_c, 4, 73, 0
6, 56040, Note_on_c, 4, 61, 80
6, 56153, Note_on_c, 4, 61, 0
6, 56160, Note_on_c, 4, 61, 80
6, 56273, Note_on_c, 4, 61, 0
6, 56280, Note_on_c, 4, 73, 80
6, 56393, Note_on_c, 4, 73, 0
6, 56400, Note_on_c, 4, 73, 80
6, 56513, Note_on_c, 4, 73, 0
6, 56520, Note_on_c, 4, 85, 80
6, 56633, Note_on_c, 4, 85, 0
6, 56640, Note_on_c, 4, 85, 80
6, 56753, Note_on_c, 4, 85, 0
6, 56760, Note_on_c, 4, 73, 80
6, 56873, Note_on_c, 4, 73, 0
6, 56880, Note_on_c, 4, 73, 80
6, 56993, Note_on_c, 4, 73, 0
6, 57000, Note_on_c, 4, 61, 80
6, 57113, Note_on_c, 4, 61, 0
6, 57120, Note_on_c, 4, 61, 80
6, 57233, Note_on_c, 4, 61, 0
6, 57240, Note_on_c, 4, 73, 80
6, 57353, Note_on_c, 4, 73, 0
6, 57360, Note_on_c, 4, 73, 80
6, 57473, Note_on_c, 4, 73, 0
6, 57480, Note_on_c, 4, 85, 80
6, 57593, Note_on_c, 4, 85, 0
6, 57600, Note_on_c, 4, 87, 80
6, 57713, Note_on_c, 4, 87, 0
6, 57720, Note_on_c, 4, 75, 80
6, 57833, Note_on_c, 4, 75, 0
6, 57840, Note_on_c, 4, 75, 80
6, 57953, Note_on_c, 4, 75, 0
6, 57960, Note_on_c, 4, 63, 80
6, 58073, Note_on_c, 4, 63, 0
6, 58080, Note_on_c, 4, 63, 80
6, 58193, Note_on_c, 4, 63, 0
6, 58200, Note_on_c, 4, 75, 80
6, 58313, Note_on_c, 4, 75, 0
6, 58320, Note_on_c, 4, 75, 80
6, 58433, Note_on_c, 4, 75, 0
6, 58440, Note_on_c, 4, 87, 80
6, 58553, Note_on_c, 4, 87, 0
6, 58560, Note_on_c, 4, 87, 80
6, 58673, Note_on_c, 4, 87, 0
6, 58680, Note_on_c, 4, 75, 80
6, 58793, Note_on_c, 4, 75, 0
6, 58800, Note_on_c, 4, 75, 80
6, 58913, Note_on_c, 4, 75, 0
6, 58920, Note_on_c, 4, 63, 80
6, 59033, Note_on_c, 4, 63, 0
6, 59040, Note_on_c, 4, 63, 80
6, 59153, Note_on_c, 4, 63, 0
6, 59160, Note_on_c, 4, 75, 80
6, 59273, Note_on_c, 4, 75, 0
6, 59280, Note_on_c, 4, 75, 80
6, 59393, Note_on_c, 4, 75, 0
6, 59400, Note_on_c, 4, 87, 80
6, 59513, Note_on_c, 4, 87, 0
6, 59520, Note_on_c, 4, 86, 80
6, 59633, Note_on_c, 4, 86, 0
6, 59640, Note_on_c, 4, 74, 80
6, 59753, Note_on_c, 4, 74, 0
6, 59760, Note_on_c, 4, 74, 80
6, 59873, Note_on_c, 4, 74, 0
6, 59880, Note_on_c, 4, 62, 80
6, 59993, Note_on_c, 4, 62, 0
6, 60000, Note_on_c, 4, 62, 80
6, 60113, Note_on_c, 4, 62, 0
6, 60120, Note_on_c, 4, 74, 80
6, 60233, Note_on_c, 4, 74, 0
6, 60240, Note_on_c, 4, 74, 80
6, 60353, Note_on_c, 4, 74, 0
6, 60360, Note_on_c, 4, 86, 80
6, 60473, Note_on_c, 4, 86, 0
6, 60480, Note_on_c, 4, 82, 80
6, 60593, Note_on_c, 4, 82, 0
6, 60600, Note_on_c, 4, 70, 80
6, 60713, Note_on_c, 4, 70, 0
6, 60720, Note_on_c, 4, 70, 80
6, 60833, Note_on_c, 4, 70, 0
6, 60840, Note_on_c, 4, 58, 80
6, 60953, Note_on_c, 4, 58, 0
6, 60960, Note_on_c, 4, 58, 80
6, 61073, Note_on_c, 4, 58, 0
6, 61080, Note_on_c, 4, 70, 80
6, 61193, Note_on_c, 4, 70, 0
6, 61200, Note_on_c, 4, 70, 80
6, 61313, Note_on_c, 4, 70, 0
6, 61320, Note_on_c, 4, 82, 80
6, 61433, Note_on_c, 4, 82, 0
6, 61440, Note_on_c, 4, 80, 80
6, 61553, Note_on_c, 4, 80, 0
6, 61560, Note_on_c, 4, 68, 80
6, 61673, Note_on_c, 4, 68, 0
6, 61680, Note_on_c, 4, 68, 80
6, 61793, Note_on_c, 4, 68, 0
6, 61800, Note_on_c, 4, 56, 80
6, 61913, Note_on_c, 4, 56, 0
6, 61920, Note_on_c, 4, 56, 80
6, 62033, Note_on_c, 4, 56, 0
6, 62040, Note_on_c, 4, 68, 80
6, 62153, Note_on_c, 4, 68, 0
6, 62160, Note_on_c, 4, 68, 80
6, 62273, Note_on_c, 4, 68, 0
6, 62280, Note_on_c, 4, 80, 80
6, 62393, Note_on_c, 4, 80, 0
6, 62400, Note_on_c, 4, 80, 80
6, 62513, Note_on_c, 4, 80, 0
6, 62520, Note_on_c, 4, 68, 80
6, 62633, Note_on_c, 4, 68, 0
6, 62640, Note_on_c, 4, 68, 80
6, 62753, Note_on_c, 4, 68, 0
6, 62760, Note_on_c, 4, 56, 80
6, 62873, Note_on_c, 4, 56, 0
6, 62880, Note_on_c, 4, 56, 80
6, 62993, Note_on_c, 4, 56, 0
6, 63000, Note_on_c, 4, 68, 80
6, 63113, Note_on_c, 4, 68, 0
6, 63120, Note_on_c, 4, 68, 80
6, 63233, Note_on_c, 4, 68, 0
6, 63240, Note_on_c, 4, 80, 80
6, 63353, Note_on_c, 4, 80, 0
6, 63360, Note_on_c, 4, 80, 80
6, 63473, Note_on_c, 4, 80, 0
6, 63480, Note_on_c, 4, 68, 80
6, 63593, Note_on_c, 4, 68, 0
6, 63600, Note_on_c, 4, 68, 80
6, 63713, Note_on_c, 4, 68, 0
6, 63720, Note_on_c, 4, 56, 80
6, 63833, Note_on_c, 4, 56, 0
6, 63840, Note_on_c, 4, 56, 80
6, 63953, Note_on_c, 4, 56, 0
6, 63960, Note_on_c, 4, 68, 80
6, 64073, Note_on_c, 4, 68, 0
6, 64080, Note_on_c, 4, 68, 80
6, 64193, Note_on_c, 4, 68, 0
6, 64200, Note_on_c, 4, 80, 80
6, 64313, Note_on_c, 4, 80, 0
6, 64320, Note_on_c, 4, 80, 80
6, 64433, Note_on_c, 4, 80, 0
6, 64440, Note_on_c, 4, 68, 80
6, 64553, Note_on_c, 4, 68, 0
6, 64560, Note_on_c, 4, 68, 80
6, 64673, Note_on_c, 4, 68, 0
6, 64680, Note_on_c, 4, 56, 80
6, 64793, Note_on_c, 4, 56, 0
6, 64800, Note_on_c, 4, 56, 80
6, 64913, Note_on_c, 4, 56, 0
6, 64920, Note_on_c, 4, 68, 80
6, 65033, Note_on_c, 4, 68, 0
6, 65040, Note_on_c, 4, 68, 80
6, 65153, Note_on_c, 4, 68, 0
6, 65160, Note_on_c, 4, 80, 80
6, 65273, Note_on_c, 4, 80, 0
6, 65280, Note_on_c, 4, 80, 80
6, 65393, Note_on_c, 4, 80, 0
6, 65400, Note_on_c, 4, 68, 80
6, 65513, Note_on_c, 4, 68, 0
6, 65520, Note_on_c, 4, 68, 80
6, 65633, Note_on_c, 4, 68, 0
6, 65640, Note_on_c, 4, 56, 80
6, 65753, Note_on_c, 4, 56, 0
6, 65760, Note_on_c, 4, 56, 80
6, 65873, Note_on_c, 4, 56, 0
6, 65880, Note_on_c, 4, 68, 80
6, 65993, Note_on_c, 4, 68, 0
6, 66000, Note_on_c, 4, 68, 80
6, 66113, Note_on_c, 4, 68, 0
6, 66120, Note_on_c, 4, 80, 80
6, 66233, Note_on_c, 4, 80, 0
6, 66240, Note_on_c, 4, 80, 80
6, 66353, Note_on_c, 4, 80, 0
6, 66360, Note_on_c, 4, 68, 80
6, 66473, Note_on_c, 4, 68, 0
6, 66480, Note_on_c, 4, 68, 80
6, 66593, Note_on_c, 4, 68, 0
6, 66600, Note_on_c, 4, 56, 80
6, 66713, Note_on_c, 4, 56, 0
6, 66720, Note_on_c, 4, 56, 80
6, 66833, Note_on_c, 4, 56, 0
6, 66840, Note_on_c, 4, 68, 80
6, 66953, Note_on_c, 4, 68, 0
6, 66960, Note_on_c, 4, 68, 80
6, 67073, Note_on_c, 4, 68, 0
6, 67080, Note_on_c, 4, 80, 80
6, 67193, Note_on_c, 4, 80, 0
6, 67200, Note_on_c, 4, 80, 80
6, 67313, Note_on_c, 4, 80, 0
6, 67320, Note_on_c, 4, 68, 80
6, 67433, Note_on_c, 4, 68, 0
6, 67440, Note_on_c, 4, 68, 80
6, 67553, Note_on_c, 4, 68, 0
6, 67560, Note_on_c, 4, 56, 80
6, 67673, Note_on_c, 4, 56, 0
6, 67680, Note_on_c, 4, 56, 80
6, 67793, Note_on_c, 4, 56, 0
6, 67800, Note_on_c, 4, 68, 80
6, 67913, Note_on_c, 4, 68, 0
6, 67920, Note_on_c, 4, 68, 80
6, 68033, Note_on_c, 4, 68, 0
6, 68040, Note_on_c, 4, 80, 80
6, 68153, Note_on_c, 4, 80, 0
6, 68160, Note_on_c, 4, 80, 80
6, 68273, Note_on_c, 4, 80, 0
6, 68280, Note_on_c, 4, 68, 80
6, 68393, Note_on_c, 4, 68, 0
6, 68400, Note_on_c, 4, 68, 80
6, 68513, Note_on_c, 4, 68, 0
6, 68520, Note_on_c, 4, 56, 80
6, 68633, Note_on_c, 4, 56, 0
6, 68640, Note_on_c, 4, 56, 80
6, 68753, Note_on_c, 4, 56, 0
6, 68760, Note_on_c, 4, 68, 80
6, 68873, Note_on_c, 4, 68, 0
6, 68880, Note_on_c, 4, 68, 80
6, 68993, Note_on_c, 4, 68, 0
6, 69000, Note_on_c, 4, 80, 80
6, 69113, Note_on_c, 4, 80, 0
6, 69120, Note_on_c, 4, 85, 80
6, 69233, Note_on_c, 4, 85, 0
6, 69240, Note_on_c, 4, 73, 80
6, 69353, Note_on_c, 4, 73, 0
6, 69360, Note_on_c, 4, 73, 80
6, 69473, Note_on_c, 4, 73, 0
6, 69480, Note_on_c, 4, 61, 80
6, 69593, Note_on_c, 4, 61, 0
6, 69600, Note_on_c, 4, 61, 80
6, 69713, Note_on_c, 4, 61, 0
6, 69720, Note_on_c, 4, 73, 80
6, 69833, Note_on_c, 4, 73, 0
6, 69840, Note_on_c, 4, 73, 80
6, 69953, Note_on_c, 4, 73, 0
6, 69960, Note_on_c, 4, 85, 80
6, 70073, Note_on_c, 4, 85, 0
6, 70080, Note_on_c, 4, 85, 80
6, 70193, Note_on_c, 4, 85, 0
6, 70200, Note_on_c, 4, 73, 80
6, 70313, Note_on_c, 4, 73, 0
6, 70320, Note_on_c, 4, 73, 80
6, 70433, Note_on_c, 4, 73, 0
6, 70440, Note_on_c, 4, 61, 80
6, 70553, Note_on_c, 4, 61, 0
6, 70560, Note_on_c, 4, 61, 80
6, 70673, Note_on_c, 4, 61, 0
6, 70680, Note_on_c, 4, 73, 80
6, 70793, Note_on_c, 4, 73, 0
6, 70800, Note_on_c, 4, 73, 80
6, 70913, Note_on_c, 4, 73, 0
6, 70920, Note_on_c, 4, 85, 80
6, 71033, Note_on_c, 4, 85, 0
6, 71040, Note_on_c, 4, 85, 80
6, 71153, Note_on_c, 4, 85, 0
6, 71160, Note_on_c, 4, 73, 80
6, 71273, Note_on_c, 4, 73, 0
6, 71280, Note_on_c, 4, 73, 80
6, 71393, Note_on_c, 4, 73, 0
6, 71400, Note_on_c, 4, 61, 80
6, 71513, Note_on_c, 4, 61, 0
6, 71520, Note_on_c, 4, 61, 80
6, 71633, Note_on_c, 4, 61, 0
6, 71640, Note_on_c, 4, 73, 80
6, 71753, Note_on_c, 4, 73, 0
6, 71760, Note_on_c, 4, 73, 80
6, 71873, Note_on_c, 4, 73, 0
6, 71880, Note_on_c, 4, 85, 80
6, 71993, Note_on_c, 4, 85, 0
6, 72000, Note_on_c, 4, 85, 80
6, 72113, Note_on_c, 4, 85, 0
6, 72120, Note_on_c, 4, 73, 80
6, 72233, Note_on_c, 4, 73, 0
6, 72240, Note_on_c, 4, 73, 80
6, 72353, Note_on_c, 4, 73, 0
6, 72360, Note_on_c, 4, 61, 80
6, 72473, Note_on_c, 4, 61, 0
6, 72480, Note_on_c, 4, 61, 80
6, 72593, Note_on_c, 4, 61, 0
6, 72600, Note_on_c, 4, 73, 80
6, 72713, Note_on_c, 4, 73, 0
6, 72720, Note_on_c, 4, 73, 80
6, 72833, Note_on_c, 4, 73, 0
6, 72840, Note_on_c, 4, 85, 80
6, 72953, Note_on_c, 4, 85, 0
6, 72960, Note_on_c, 4, 87, 80
6, 73073, Note_on_c, 4, 87, 0
6, 73080, Note_on_c, 4, 75, 80
6, 73193, Note_on_c, 4, 75, 0
6, 73200, Note_on_c, 4, 75, 80
6, 73313, Note_on_c, 4, 75, 0
6, 73320, Note_on_c, 4, 63, 80
6, 73433, Note_on_c, 4, 63, 0
6, 73440, Note_on_c, 4, 63, 80
6, 73553, Note_on_c, 4, 63, 0
6, 73560, Note_on_c, 4, 75, 80
6, 73673, Note_on_c, 4, 75, 0
6, 73680, Note_on_c, 4, 75, 80
6, 73793, Note_on_c, 4, 75, 0
6, 73800, Note_on_c, 4, 87, 80
6, 73913, Note_on_c, 4, 87, 0
6, 73920, Note_on_c, 4, 87, 80
6, 74033, Note_on_c, 4, 87, 0
6, 74040, Note_on_c, 4, 75, 80
6, 74153, Note_on_c, 4, 75, 0
6, 74160, Note_on_c, 4, 75, 80
6, 74273, Note_on_c, 4, 75, 0
6, 74280, Note_on_c, 4, 63, 80
6, 74393, Note_on_c, 4, 63, 0
6, 74400, Note_on_c, 4, 63, 80
6, 74513, Note_on_c, 4, 63, 0
6, 74520, Note_on_c, 4, 75, 80
6, 74633, Note_on_c, 4, 75, 0
6, 74640, Note_on_c, 4, 75, 80
6, 74753, Note_on_c, 4, 75, 0
6, 74760, Note_on_c, 4, 87, 80
6, 74873, Note_on_c, 4, 87, 0
6, 74880, Note_on_c, 4, 86, 80
6, 74993, Note_on_c, 4, 86, 0
6, 75000, Note_on_c, 4, 74, 80
6, 75113, Note_on_c, 4, 74, 0
6, 75120, Note_on_c, 4, 74, 80
6, 75233, Note_on_c, 4, 74, 0
6, 75240, Note_on_c, 4, 62, 80
6, 75353, Note_on_c, 4, 62, 0
6, 75360, Note_on_c, 4, 62, 80
6, 75473, Note_on_c, 4, 62, 0
6, 75480, Note_on_c, 4, 74, 80
6, 75593, Note_on_c, 4, 74, 0
6, 75600, Note_on_c, 4, 74, 80
6, 75713, Note_on_c, 4, 74, 0
6, 75720, Note_on_c, 4, 86, 80
6, 75833, Note_on_c, 4, 86, 0
6, 75840, Note_on_c, 4, 82, 80
6, 75953, Note_on_c, 4, 82, 0
6, 75960, Note_on_c, 4, 70, 80
6, 76073, Note_on_c, 4, 70, 0
6, 76080, Note_on_c, 4, 70, 80
6, 76193, Note_on_c, 4, 70, 0
6, 76200, Note_on_c, 4, 58, 80
6, 76313, Note_on_c, 4, 58, 0
6, 76320, Note_on_c, 4, 58, 80
6, 76433, Note_on_c, 4, 58, 0
6, 76440, Note_on_c, 4, 70, 80
6, 76553, Note_on_c, 4, 70, 0
6, 76560, Note_on_c, 4, 70, 80
6, 76673, Note_on_c, 4, 70, 0
6, 76680, Note_on_c, 4, 82, 80
6, 76793, Note_on_c, 4, 82, 0
6, 76800, Note_on_c, 4, 84, 80
6, 78719, Note_on_c, 4, 84, 0
6, 78720, Note_on_c, 4, 84, 80
6, 80639, Note_on_c, 4, 84, 0
6, 80640, Note_on_c, 4, 82, 80
6, 82559, Note_on_c, 4, 82, 0
6, 82560, Note_on_c, 4, 82, 80
6, 84479, Note_on_c, 4, 82, 0
6, 84480, Note_on_c, 4, 80, 80
6, 86399, Note_on_c, 4, 80, 0
6, 86400, Note_on_c, 4, 78, 80
6, 88319, Note_on_c, 4, 78, 0
6, 88320, Note_on_c, 4, 76, 80
6, 90239, Note_on_c, 4, 76, 0
6, 90240, Note_on_c, 4, 74, 80
6, 92140, Note_on_c, 4, 74, 0
6, 92141, End_track
0, 0, End_of_file