,note_name,start_time,duration,velocity,tempo
0,B1,0,47,96,80
1,F#4,0,400,80,80
2,B3,0,400,80,80
3,D5,0,400,80,80
4,A4,0,400,80,80
5,C#2,50,47,96,80
6,D2,100,47,96,80
7,C#2,150,47,96,80
8,D2,200,47,96,80
9,F#2,250,47,96,80
10,F2,300,47,96,80
11,F#2,350,47,96,80
12,A2,400,47,96,80
13,F#4,400,359,80,80
14,B3,400,359,80,80
15,D5,400,359,80,80
16,A4,400,359,80,80
17,F#2,450,47,96,80
18,F2,500,47,96,80
19,D2,550,47,96,80
20,C#2,600,47,96,80
21,D2,650,47,96,80
22,C#2,700,47,96,80
23,B1,750,47,96,80
24,E1,800,47,96,80
25,E4,800,400,80,80
26,B3,800,400,80,80
27,D5,800,400,80,80
28,G4,800,400,80,80
29,F#1,850,47,96,80
30,G1,900,47,96,80
31,F#1,950,47,96,80
32,G1,1000,47,96,80
33,B1,1050,47,96,80
34,B-1,1100,47,96,80
35,B1,1150,47,96,80
36,D2,1200,47,96,80
37,E4,1200,359,80,80
38,B3,1200,359,80,80
39,D5,1200,359,80,80
40,G4,1200,359,80,80
41,B1,1250,47,96,80
42,B-1,1300,47,96,80
43,G1,1350,47,96,80
44,F#1,1400,47,96,80
45,G1,1450,47,96,80
46,F#1,1500,47,96,80
47,E1,1550,47,96,80
48,B1,1600,47,96,80
49,F#4,1600,400,80,80
50,B3,1600,400,80,80
51,D5,1600,400,80,80
52,A4,1600,400,80,80
53,C#2,1650,47,96,80
54,D2,1700,47,96,80
55,C#2,1750,47,96,80
56,D2,1800,47,96,80
57,F#2,1850,47,96,80
58,F2,1900,47,96,80
59,F#2,1950,47,96,80
60,A2,2000,47,96,80
61,F#4,2000,359,80,80
62,B3,2000,359,80,80
63,D5,2000,359,80,80
64,A4,2000,359,80,80
65,F#2,2050,47,96,80
66,F2,2100,47,96,80
67,D2,2150,47,96,80
68,C#2,2200,47,96,80
69,D2,2250,47,96,80
70,C#2,2300,47,96,80
71,B1,2350,47,96,80
72,B2,2400,47,96,80
73,B4,2400,400,80,80
74,F#4,2400,400,80,80
75,A5,2400,400,80,80
76,D5,2400,400,80,80
77,C#3,2450,47,96,80
78,D3,2500,47,96,80
79,C#3,2550,47,96,80
80,D3,2600,47,96,80
81,F#3,2650,47,96,80
82,F3,2700,47,96,80
83,F#3,2750,47,96,80
84,A3,2800,47,96,80
85,B4,2800,359,80,80
86,F#4,2800,359,80,80
87,A5,2800,359,80,80
88,D5,2800,359,80,80
89,F#3,2850,47,96,80
90,F3,2900,47,96,80
91,D3,2950,47,96,80
92,C#3,3000,47,96,80
93,D3,3050,47,96,80
94,C#3,3100,47,96,80
95,B2,3150,47,96,80
96,E1,3200,47,96,80
97,E4,3200,400,80,80
98,B3,3200,400,80,80
99,D5,3200,400,80,80
100,G4,3200,400,80,80
101,F#1,3250,47,96,80
102,G1,3300,47,96,80
103,F#1,3350,47,96,80
104,G1,3400,47,96,80
105,B1,3450,47,96,80
106,B-1,3500,47,96,80
107,B1,3550,47,96,80
108,D2,3600,47,96,80
109,E4,3600,359,80,80
110,B3,3600,359,80,80
111,D5,3600,359,80,80
112,G4,3600,359,80,80
113,B1,3650,47,96,80
114,B-1,3700,47,96,80
115,G1,3750,47,96,80
116,F#1,3800,47,96,80
117,G1,3850,47,96,80
118,F#1,3900,47,96,80
119,E1,3950,47,96,80
120,E2,4000,47,96,80
121,B4,4000,400,80,80
122,E4,4000,400,80,80
123,G5,4000,400,80,80
124,D5,4000,400,80,80
125,F#2,4050,47,96,80
126,G2,4100,47,96,80
127,F#2,4150,47,96,80
128,G2,4200,47,96,80
129,B2,4250,47,96,80
130,B-2,4300,47,96,80
131,B2,4350,47,96,80
132,D3,4400,47,96,80
133,B4,4400,359,80,80
134,E4,4400,359,80,80
135,G5,4400,359,80,80
136,D5,4400,359,80,80
137,B2,4450,47,96,80
138,B-2,4500,47,96,80
139,G2,4550,47,96,80
140,F#2,4600,47,96,80
141,G2,4650,47,96,80
142,F#2,4700,47,96,80
143,E2,4750,47,96,80
144,B1,4800,47,96,80
145,F#4,4800,400,80,80
146,B3,4800,400,80,80
147,D5,4800,400,80,80
148,A4,4800,400,80,80
149,C#2,4850,47,96,80
150,D2,4900,47,96,80
151,C#2,4950,47,96,80
152,D2,5000,47,96,80
153,F#2,5050,47,96,80
154,F2,5100,47,96,80
155,F#2,5150,47,96,80
156,A2,5200,47,96,80
157,F#4,5200,359,80,80
158,B3,5200,359,80,80
159,D5,5200,359,80,80
160,A4,5200,359,80,80
161,F#2,5250,47,96,80
162,F2,5300,47,96,80
163,D2,5350,47,96,80
164,C#2,5400,47,96,80
165,D2,5450,47,96,80
166,C#2,5500,47,96,80
167,B1,5550,47,96,80
168,B2,5600,47,96,80
169,B4,5600,400,80,80
170,F#4,5600,400,80,80
171,A5,5600,400,80,80
172,D5,5600,400,80,80
173,C#3,5650,47,96,80
174,D3,5700,47,96,80
175,C#3,5750,47,96,80
176,D3,5800,47,96,80
177,F#3,5850,47,96,80
178,F3,5900,47,96,80
179,F#3,5950,47,96,80
180,A3,6000,47,96,80
181,B4,6000,359,80,80
182,F#4,6000,359,80,80
183,A5,6000,359,80,80
184,D5,6000,359,80,80
185,F#3,6050,47,96,80
186,F3,6100,47,96,80
187,D3,6150,47,96,80
188,C#3,6200,47,96,80
189,D3,6250,47,96,80
190,C#3,6300,47,96,80
191,B2,6350,47,96,80
192,F#1,6400,47,96,80
193,F#4,6400,400,80,80
194,C#4,6400,400,80,80
195,E5,6400,400,80,80
196,A4,6400,400,80,80
197,G#1,6450,47,96,80
198,A1,6500,47,96,80
199,G#1,6550,47,96,80
200,A1,6600,47,96,80
201,C#2,6650,47,96,80
202,C2,6700,47,96,80
203,C#2,6750,47,96,80
204,E2,6800,47,96,80
205,F#4,6800,359,80,80
206,C#4,6800,359,80,80
207,E5,6800,359,80,80
208,A4,6800,359,80,80
209,C#2,6850,47,96,80
210,C2,6900,47,96,80
211,A1,6950,47,96,80
212,G#1,7000,47,96,80
213,A1,7050,47,96,80
214,G#1,7100,47,96,80
215,F#1,7150,47,96,80
216,E1,7200,47,96,80
217,E4,7200,400,80,80
218,B3,7200,400,80,80
219,D5,7200,400,80,80
220,G4,7200,400,80,80
221,F#1,7250,47,96,80
222,G1,7300,47,96,80
223,F#1,7350,47,96,80
224,G1,7400,47,96,80
225,B1,7450,47,96,80
226,B-1,7500,47,96,80
227,B1,7550,47,96,80
228,D2,7600,47,96,80
229,E4,7600,359,80,80
230,B3,7600,359,80,80
231,D5,7600,359,80,80
232,G4,7600,359,80,80
233,B1,7650,47,96,80
234,B-1,7700,47,96,80
235,G1,7750,47,96,80
236,F#1,7800,47,96,80
237,G1,7850,47,96,80
238,F#1,7900,47,96,80
239,E1,7950,47,96,80
240,B1,8000,47,96,80
241,F#4,8000,400,80,80
242,B3,8000,400,80,80
243,D5,8000,400,80,80
244,A4,8000,400,80,80
245,C#2,8050,47,96,80
246,D2,8100,47,96,80
247,C#2,8150,47,96,80
248,D2,8200,47,96,80
249,F#2,8250,47,96,80
250,F2,8300,47,96,80
251,F#2,8350,47,96,80
252,A2,8400,47,96,80
253,F#4,8400,359,80,80
254,B3,8400,359,80,80
255,D5,8400,359,80,80
256,A4,8400,359,80,80
257,F#2,8450,47,96,80
258,F2,8500,47,96,80
259,D2,8550,47,96,80
260,C#2,8600,47,96,80
261,D2,8650,47,96,80
262,C#2,8700,47,96,80
263,B1,8750,47,96,80
264,B2,8800,47,96,80
265,B4,8800,400,80,80
266,F#4,8800,400,80,80
267,A5,8800,400,80,80
268,D5,8800,400,80,80
269,C#3,8850,47,96,80
270,D3,8900,47,96,80
271,C#3,8950,47,96,80
272,D3,9000,47,96,80
273,F#3,9050,47,96,80
274,F3,9100,47,96,80
275,F#3,9150,47,96,80
276,A3,9200,47,96,80
277,B4,9200,359,80,80
278,F#4,9200,359,80,80
279,A5,9200,359,80,80
280,D5,9200,359,80,80
281,F#3,9250,47,96,80
282,F3,9300,47,96,80
283,D3,9350,47,96,80
284,C#3,9400,47,96,80
285,D3,9450,47,96,80
286,C#3,9500,47,96,80
287,B2,9550,47,96,80
288,G2,9600,47,96,80
289,E4,9600,379,80,80
290,B3,9600,379,80,80
291,D5,9600,189,80,80
292,G4,9600,379,80,80
293,A2,9650,47,96,80
294,G2,9700,47,96,80
295,F#2,9750,47,96,80
296,E2,9800,47,96,80
297,C#5,9800,189,80,80
298,F#2,9850,47,96,80
299,G2,9900,47,96,80
300,E2,9950,47,96,80
301,A2,10000,47,96,80
302,F#4,10000,379,80,80
303,C#4,10000,379,80,80
304,E5,10000,189,80,80
305,A4,10000,379,80,80
306,B2,10050,47,96,80
307,A2,10100,47,96,80
308,G2,10150,47,96,80
309,F#2,10200,47,96,80
310,D5,10200,189,80,80
311,G2,10250,47,96,80
312,A2,10300,47,96,80
313,F#2,10350,47,96,80
314,B2,10400,47,96,80
315,G4,10400,379,80,80
316,D4,10400,379,80,80
317,F#5,10400,189,80,80
318,B4,10400,379,80,80
319,C#3,10450,47,96,80
320,B2,10500,47,96,80
321,A2,10550,47,96,80
322,G2,10600,47,96,80
323,E5,10600,189,80,80
324,A2,10650,47,96,80
325,B2,10700,47,96,80
326,G2,10750,47,96,80
327,C#3,10800,47,96,80
328,B4,10800,189,80,80
329,E4,10800,284,80,80
330,G5,10800,189,80,80
331,C#5,10800,379,80,80
332,B2,10850,47,96,80
333,A2,10900,47,96,80
334,G2,10950,47,96,80
335,F#2,11000,47,96,80
336,B-4,11000,49,80,80
337,F#5,11000,189,80,80
338,G#2,11050,47,96,80
339,G#4,11050,47,80,80
340,B-2,11100,47,96,80
341,F#4,11100,49,80,80
342,B-3,11100,94,80,80
343,F#2,11150,47,96,80
344,E4,11150,47,80,80
345,G2,11200,47,96,80
346,E4,11200,379,80,80
347,B3,11200,379,80,80
348,D5,11200,189,80,80
349,G4,11200,379,80,80
350,A2,11250,47,96,80
351,G2,11300,47,96,80
352,F#2,11350,47,96,80
353,E2,11400,47,96,80
354,C#5,11400,189,80,80
355,F#2,11450,47,96,80
356,G2,11500,47,96,80
357,E2,11550,47,96,80
358,A2,11600,47,96,80
359,F#4,11600,379,80,80
360,C#4,11600,379,80,80
361,E5,11600,189,80,80
362,A4,11600,379,80,80
363,B2,11650,47,96,80
364,A2,11700,47,96,80
365,G2,11750,47,96,80
366,F#2,11800,47,96,80
367,D5,11800,189,80,80
368,G2,11850,47,96,80
369,A2,11900,47,96,80
370,F#2,11950,47,96,80
371,B2,12000,47,96,80
372,G4,12000,379,80,80
373,D4,12000,379,80,80
374,F#5,12000,189,80,80
375,B4,12000,379,80,80
376,C#3,12050,47,96,80
377,B2,12100,47,96,80
378,A2,12150,47,96,80
379,G2,12200,47,96,80
380,E5,12200,189,80,80
381,A2,12250,47,96,80
382,B2,12300,47,96,80
383,G2,12350,47,96,80
384,C#3,12400,47,96,80
385,B4,12400,189,80,80
386,E4,12400,284,80,80
387,G5,12400,189,80,80
388,C#5,12400,378,80,80
389,B2,12450,47,96,80
390,A2,12500,47,96,80
391,G2,12550,47,96,80
392,F#2,12600,47,96,80
393,B-4,12600,49,80,80
394,F#5,12600,188,80,80
395,G#2,12650,47,96,80
396,G#4,12650,47,80,80
397,B-2,12700,47,96,80
398,F#4,12700,49,80,80
399,B-3,12700,93,80,80
400,F#2,12750,45,96,80
401,E4,12750,45,80,80
