0, 0, Header, 1, 6, 480
1, 0, Start_track
1, 0, Title_t, "Drumset\000"
1, 0, Time_signature, 4, 2, 24, 8
1, 0, Key_signature, 0, "major"
1, 0, Tempo, 666667
1, 0, Control_c, 9, 121, 0
1, 0, Program_c, 9, 0
1, 0, Control_c, 9, 7, 100
1, 0, Control_c, 9, 10, 64
1, 0, Control_c, 9, 91, 0
1, 0, Control_c, 9, 93, 0
1, 0, MIDI_port, 0
1, 30720, Note_on_c, 9, 49, 80
1, 30720, Note_on_c, 9, 36, 80
1, 31199, Note_on_c, 9, 49, 0
1, 31199, Note_on_c, 9, 36, 0
1, 31200, Note_on_c, 9, 46, 80
1, 31679, Note_on_c, 9, 46, 0
1, 31680, Note_on_c, 9, 38, 80
1, 32159, Note_on_c, 9, 38, 0
1, 32160, Note_on_c, 9, 46, 80
1, 32639, Note_on_c, 9, 46, 0
1, 32640, Note_on_c, 9, 36, 80
1, 33119, Note_on_c, 9, 36, 0
1, 33120, Note_on_c, 9, 46, 80
1, 33599, Note_on_c, 9, 46, 0
1, 33600, Note_on_c, 9, 38, 80
1, 34079, Note_on_c, 9, 38, 0
1, 34080, Note_on_c, 9, 46, 80
1, 34559, Note_on_c, 9, 46, 0
1, 34560, Note_on_c, 9, 36, 80
1, 35039, Note_on_c, 9, 36, 0
1, 35040, Note_on_c, 9, 46, 80
1, 35519, Note_on_c, 9, 46, 0
1, 35520, Note_on_c, 9, 38, 80
1, 35999, Note_on_c, 9, 38, 0
1, 36000, Note_on_c, 9, 46, 80
1, 36240, Note_on_c, 9, 36, 80
1, 36479, Note_on_c, 9, 46, 0
1, 36479, Note_on_c, 9, 36, 0
1, 36480, Note_on_c, 9, 36, 80
1, 36959, Note_on_c, 9, 36, 0
1, 36960, Note_on_c, 9, 46, 80
1, 37439, Note_on_c, 9, 46, 0
1, 37440, Note_on_c, 9, 38, 80
1, 37919, Note_on_c, 9, 38, 0
1, 37920, Note_on_c, 9, 46, 80
1, 38399, Note_on_c, 9, 46, 0
1, 38400, Note_on_c, 9, 49, 80
1, 38400, Note_on_c, 9, 36, 80
1, 38879, Note_on_c, 9, 49, 0
1, 38879, Note_on_c, 9, 36, 0
1, 38880, Note_on_c, 9, 46, 80
1, 39359, Note_on_c, 9, 46, 0
1, 39360, Note_on_c, 9, 38, 80
1, 39839, Note_on_c, 9, 38, 0
1, 39840, Note_on_c, 9, 46, 80
1, 40319, Note_on_c, 9, 46, 0
1, 40320, Note_on_c, 9, 36, 80
1, 40799, Note_on_c, 9, 36, 0
1, 40800, Note_on_c, 9, 46, 80
1, 41279, Note_on_c, 9, 46, 0
1, 41280, Note_on_c, 9, 38, 80
1, 41759, Note_on_c, 9, 38, 0
1, 41760, Note_on_c, 9, 46, 80
1, 42239, Note_on_c, 9, 46, 0
1, 42240, Note_on_c, 9, 36, 80
1, 42719, Note_on_c, 9, 36, 0
1, 42720, Note_on_c, 9, 46, 80
1, 43199, Note_on_c, 9, 46, 0
1, 43200, Note_on_c, 9, 38, 80
1, 43679, Note_on_c, 9, 38, 0
1, 43680, Note_on_c, 9, 46, 80
1, 43920, Note_on_c, 9, 36, 80
1, 44159, Note_on_c, 9, 46, 0
1, 44159, Note_on_c, 9, 36, 0
1, 44160, Note_on_c, 9, 36, 80
1, 44639, Note_on_c, 9, 36, 0
1, 44640, Note_on_c, 9, 46, 80
1, 45119, Note_on_c, 9, 46, 0
1, 45120, Note_on_c, 9, 38, 80
1, 45599, Note_on_c, 9, 38, 0
1, 45600, Note_on_c, 9, 46, 80
1, 46079, Note_on_c, 9, 46, 0
1, 46080, Note_on_c, 9, 49, 80
1, 46080, Note_on_c, 9, 36, 80
1, 46559, Note_on_c, 9, 49, 0
1, 46559, Note_on_c, 9, 36, 0
1, 46560, Note_on_c, 9, 46, 80
1, 47039, Note_on_c, 9, 46, 0
1, 47040, Note_on_c, 9, 38, 80
1, 47519, Note_on_c, 9, 38, 0
1, 47520, Note_on_c, 9, 46, 80
1, 47999, Note_on_c, 9, 46, 0
1, 48000, Note_on_c, 9, 36, 80
1, 48479, Note_on_c, 9, 36, 0
1, 48480, Note_on_c, 9, 46, 80
1, 48959, Note_on_c, 9, 46, 0
1, 48960, Note_on_c, 9, 38, 80
1, 49439, Note_on_c, 9, 38, 0
1, 49440, Note_on_c, 9, 46, 80
1, 49919, Note_on_c, 9, 46, 0
1, 49920, Note_on_c, 9, 36, 80
1, 50399, Note_on_c, 9, 36, 0
1, 50400, Note_on_c, 9, 46, 80
1, 50879, Note_on_c, 9, 46, 0
1, 50880, Note_on_c, 9, 38, 80
1, 51359, Note_on_c, 9, 38, 0
1, 51360, Note_on_c, 9, 46, 80
1, 51600, Note_on_c, 9, 36, 80
1, 51839, Note_on_c, 9, 46, 0
1, 51839, Note_on_c, 9, 36, 0
1, 51840, Note_on_c, 9, 36, 80
1, 52319, Note_on_c, 9, 36, 0
1, 52320, Note_on_c, 9, 46, 80
1, 52799, Note_on_c, 9, 46, 0
1, 52800, Note_on_c, 9, 38, 80
1, 53279, Note_on_c, 9, 38, 0
1, 53280, Note_on_c, 9, 46, 80
1, 53759, Note_on_c, 9, 46, 0
1, 53760, Note_on_c, 9, 49, 80
1, 53760, Note_on_c, 9, 36, 80
1, 54239, Note_on_c, 9, 49, 0
1, 54239, Note_on_c, 9, 36, 0
1, 54240, Note_on_c, 9, 46, 80
1, 54719, Note_on_c, 9, 46, 0
1, 54720, Note_on_c, 9, 38, 80
1, 55199, Note_on_c, 9, 38, 0
1, 55200, Note_on_c, 9, 46, 80
1, 55679, Note_on_c, 9, 46, 0
1, 55680, Note_on_c, 9, 36, 80
1, 56159, Note_on_c, 9, 36, 0
1, 56160, Note_on_c, 9, 46, 80
1, 56639, Note_on_c, 9, 46, 0
1, 56640, Note_on_c, 9, 38, 80
1, 57119, Note_on_c, 9, 38, 0
1, 57120, Note_on_c, 9, 46, 80
1, 57599, Note_on_c, 9, 46, 0
1, 57600, Note_on_c, 9, 36, 80
1, 58079, Note_on_c, 9, 36, 0
1, 58080, Note_on_c, 9, 46, 80
1, 58559, Note_on_c, 9, 46, 0
1, 58560, Note_on_c, 9, 38, 80
1, 59039, Note_on_c, 9, 38, 0
1, 59040, Note_on_c, 9, 46, 80
1, 59280, Note_on_c, 9, 36, 80
1, 59519, Note_on_c, 9, 46, 0
1, 59519, Note_on_c, 9, 36, 0
1, 59520, Note_on_c, 9, 36, 80
1, 59999, Note_on_c, 9, 36, 0
1, 60000, Note_on_c, 9, 46, 80
1, 60479, Note_on_c, 9, 46, 0
1, 60480, Note_on_c, 9, 49, 80
1, 60959, Note_on_c, 9, 49, 0
1, 60960, End_track
2, 0, Start_track
2, 0, Title_t, "Instrument_01\000"
2, 0, Key_signature, 0, "major"
2, 0, Control_c, 0, 121, 0
2, 0, Program_c, 0, 80
2, 0, Control_c, 0, 7, 100
2, 0, Control_c, 0, 10, 64
2, 0, Control_c, 0, 91, 0
2, 0, Control_c, 0, 93, 0
2, 0, MIDI_port, 0
2, 0, Note_on_c, 0, 77, 96
2, 59, Note_on_c, 0, 77, 0
2, 120, Note_on_c, 0, 89, 96
2, 179, Note_on_c, 0, 89, 0
2, 240, Note_on_c, 0, 73, 96
2, 299, Note_on_c, 0, 73, 0
2, 360, Note_on_c, 0, 85, 96
2, 419, Note_on_c, 0, 85, 0
2, 480, Note_on_c, 0, 70, 96
2, 539, Note_on_c, 0, 70, 0
2, 600, Note_on_c, 0, 82, 96
2, 659, Note_on_c, 0, 82, 0
2, 720, Note_on_c, 0, 66, 96
2, 779, Note_on_c, 0, 66, 0
2, 840, Note_on_c, 0, 78, 96
2, 899, Note_on_c, 0, 78, 0
2, 960, Note_on_c, 0, 65, 96
2, 1019, Note_on_c, 0, 65, 0
2, 1080, Note_on_c, 0, 77, 96
2, 1139, Note_on_c, 0, 77, 0
2, 1200, Note_on_c, 0, 61, 96
2, 1259, Note_on_c, 0, 61, 0
2, 1320, Note_on_c, 0, 73, 96
2, 1379, Note_on_c, 0, 73, 0
2, 1440, Note_on_c, 0, 58, 96
2, 1499, Note_on_c, 0, 58, 0
2, 1560, Note_on_c, 0, 70, 96
2, 1619, Note_on_c, 0, 70, 0
2, 1680, Note_on_c, 0, 54, 96
2, 1739, Note_on_c, 0, 54, 0
2, 1800, Note_on_c, 0, 66, 96
2, 1859, Note_on_c, 0, 66, 0
2, 1920, Note_on_c, 0, 52, 96
2, 1979, Note_on_c, 0, 52, 0
2, 2040, Note_on_c, 0, 64, 96
2, 2099, Note_on_c, 0, 64, 0
2, 2160, Note_on_c, 0, 58, 96
2, 2219, Note_on_c, 0, 58, 0
2, 2280, Note_on_c, 0, 70, 96
2, 2339, Note_on_c, 0, 70, 0
2, 2400, Note_on_c, 0, 60, 96
2, 2459, Note_on_c, 0, 60, 0
2, 2520, Note_on_c, 0, 72, 96
2, 2579, Note_on_c, 0, 72, 0
2, 2640, Note_on_c, 0, 67, 96
2, 2699, Note_on_c, 0, 67, 0
2, 2760, Note_on_c, 0, 79, 96
2, 2819, Note_on_c, 0, 79, 0
2, 2880, Note_on_c, 0, 64, 96
2, 2939, Note_on_c, 0, 64, 0
2, 3000, Note_on_c, 0, 76, 96
2, 3059, Note_on_c, 0, 76, 0
2, 3120, Note_on_c, 0, 70, 96
2, 3179, Note_on_c, 0, 70, 0
2, 3240, Note_on_c, 0, 82, 96
2, 3299, Note_on_c, 0, 82, 0
2, 3360, Note_on_c, 0, 72, 96
2, 3419, Note_on_c, 0, 72, 0
2, 3480, Note_on_c, 0, 84, 96
2, 3539, Note_on_c, 0, 84, 0
2, 3600, Note_on_c, 0, 79, 96
2, 3659, Note_on_c, 0, 79, 0
2, 3720, Note_on_c, 0, 91, 96
2, 3779, Note_on_c, 0, 91, 0
2, 3840, Note_on_c, 0, 77, 96
2, 3899, Note_on_c, 0, 77, 0
2, 3960, Note_on_c, 0, 89, 96
2, 4019, Note_on_c, 0, 89, 0
2, 4080, Note_on_c, 0, 73, 96
2, 4139, Note_on_c, 0, 73, 0
2, 4200, Note_on_c, 0, 85, 96
2, 4259, Note_on_c, 0, 85, 0
2, 4320, Note_on_c, 0, 70, 96
2, 4379, Note_on_c, 0, 70, 0
2, 4440, Note_on_c, 0, 82, 96
2, 4499, Note_on_c, 0, 82, 0
2, 4560, Note_on_c, 0, 66, 96
2, 4619, Note_on_c, 0, 66, 0
2, 4680, Note_on_c, 0, 78, 96
2, 4739, Note_on_c, 0, 78, 0
2, 4800, Note_on_c, 0, 65, 96
2, 4859, Note_on_c, 0, 65, 0
2, 4920, Note_on_c, 0, 77, 96
2, 4979, Note_on_c, 0, 77, 0
2, 5040, Note_on_c, 0, 61, 96
2, 5099, Note_on_c, 0, 61, 0
2, 5160, Note_on_c, 0, 73, 96
2, 5219, Note_on_c, 0, 73, 0
2, 5280, Note_on_c, 0, 58, 96
2, 5339, Note_on_c, 0, 58, 0
2, 5400, Note_on_c, 0, 70, 96
2, 5459, Note_on_c, 0, 70, 0
2, 5520, Note_on_c, 0, 54, 96
2, 5579, Note_on_c, 0, 54, 0
2, 5640, Note_on_c, 0, 66, 96
2, 5699, Note_on_c, 0, 66, 0
2, 5760, Note_on_c, 0, 55, 96
2, 5819, Note_on_c, 0, 55, 0
2, 5880, Note_on_c, 0, 67, 96
2, 5939, Note_on_c, 0, 67, 0
2, 6000, Note_on_c, 0, 58, 96
2, 6059, Note_on_c, 0, 58, 0
2, 6120, Note_on_c, 0, 70, 96
2, 6179, Note_on_c, 0, 70, 0
2, 6240, Note_on_c, 0, 60, 96
2, 6299, Note_on_c, 0, 60, 0
2, 6360, Note_on_c, 0, 72, 96
2, 6419, Note_on_c, 0, 72, 0
2, 6480, Note_on_c, 0, 64, 96
2, 6539, Note_on_c, 0, 64, 0
2, 6600, Note_on_c, 0, 76, 96
2, 6659, Note_on_c, 0, 76, 0
2, 6720, Note_on_c, 0, 67, 96
2, 6779, Note_on_c, 0, 67, 0
2, 6840, Note_on_c, 0, 79, 96
2, 6899, Note_on_c, 0, 79, 0
2, 6960, Note_on_c, 0, 70, 96
2, 7019, Note_on_c, 0, 70, 0
2, 7080, Note_on_c, 0, 82, 96
2, 7139, Note_on_c, 0, 82, 0
2, 7200, Note_on_c, 0, 72, 96
2, 7259, Note_on_c, 0, 72, 0
2, 7320, Note_on_c, 0, 84, 96
2, 7379, Note_on_c, 0, 84, 0
2, 7440, Note_on_c, 0, 76, 96
2, 7499, Note_on_c, 0, 76, 0
2, 7560, Note_on_c, 0, 88, 96
2, 7619, Note_on_c, 0, 88, 0
2, 7680, Note_on_c, 0, 77, 96
2, 7739, Note_on_c, 0, 77, 0
2, 7800, Note_on_c, 0, 89, 96
2, 7859, Note_on_c, 0, 89, 0
2, 7920, Note_on_c, 0, 73, 96
2, 7979, Note_on_c, 0, 73, 0
2, 8040, Note_on_c, 0, 85, 96
2, 8099, Note_on_c, 0, 85, 0
2, 8160, Note_on_c, 0, 70, 96
2, 8219, Note_on_c, 0, 70, 0
2, 8280, Note_on_c, 0, 82, 96
2, 8339, Note_on_c, 0, 82, 0
2, 8400, Note_on_c, 0, 66, 96
2, 8459, Note_on_c, 0, 66, 0
2, 8520, Note_on_c, 0, 78, 96
2, 8579, Note_on_c, 0, 78, 0
2, 8640, Note_on_c, 0, 65, 96
2, 8699, Note_on_c, 0, 65, 0
2, 8760, Note_on_c, 0, 77, 96
2, 8819, Note_on_c, 0, 77, 0
2, 8880, Note_on_c, 0, 61, 96
2, 8939, Note_on_c, 0, 61, 0
2, 9000, Note_on_c, 0, 73, 96
2, 9059, Note_on_c, 0, 73, 0
2, 9120, Note_on_c, 0, 58, 96
2, 9179, Note_on_c, 0, 58, 0
2, 9240, Note_on_c, 0, 70, 96
2, 9299, Note_on_c, 0, 70, 0
2, 9360, Note_on_c, 0, 54, 96
2, 9419, Note_on_c, 0, 54, 0
2, 9480, Note_on_c, 0, 66, 96
2, 9539, Note_on_c, 0, 66, 0
2, 9600, Note_on_c, 0, 52, 96
2, 9659, Note_on_c, 0, 52, 0
2, 9720, Note_on_c, 0, 64, 96
2, 9779, Note_on_c, 0, 64, 0
2, 9840, Note_on_c, 0, 58, 96
2, 9899, Note_on_c, 0, 58, 0
2, 9960, Note_on_c, 0, 70, 96
2, 10019, Note_on_c, 0, 70, 0
2, 10080, Note_on_c, 0, 60, 96
2, 10139, Note_on_c, 0, 60, 0
2, 10200, Note_on_c, 0, 72, 96
2, 10259, Note_on_c, 0, 72, 0
2, 10320, Note_on_c, 0, 67, 96
2, 10379, Note_on_c, 0, 67, 0
2, 10440, Note_on_c, 0, 79, 96
2, 10499, Note_on_c, 0, 79, 0
2, 10560, Note_on_c, 0, 64, 96
2, 10619, Note_on_c, 0, 64, 0
2, 10680, Note_on_c, 0, 76, 96
2, 10739, Note_on_c, 0, 76, 0
2, 10800, Note_on_c, 0, 70, 96
2, 10859, Note_on_c, 0, 70, 0
2, 10920, Note_on_c, 0, 82, 96
2, 10979, Note_on_c, 0, 82, 0
2, 11040, Note_on_c, 0, 72, 96
2, 11099, Note_on_c, 0, 72, 0
2, 11160, Note_on_c, 0, 84, 96
2, 11219, Note_on_c, 0, 84, 0
2, 11280, Note_on_c, 0, 79, 96
2, 11339, Note_on_c, 0, 79, 0
2, 11400, Note_on_c, 0, 91, 96
2, 11459, Note_on_c, 0, 91, 0
2, 11520, Note_on_c, 0, 77, 96
2, 11579, Note_on_c, 0, 77, 0
2, 11640, Note_on_c, 0, 89, 96
2, 11699, Note_on_c, 0, 89, 0
2, 11760, Note_on_c, 0, 73, 96
2, 11819, Note_on_c, 0, 73, 0
2, 11880, Note_on_c, 0, 85, 96
2, 11939, Note_on_c, 0, 85, 0
2, 12000, Note_on_c, 0, 70, 96
2, 12059, Note_on_c, 0, 70, 0
2, 12120, Note_on_c, 0, 82, 96
2, 12179, Note_on_c, 0, 82, 0
2, 12240, Note_on_c, 0, 66, 96
2, 12299, Note_on_c, 0, 66, 0
2, 12360, Note_on_c, 0, 78, 96
2, 12419, Note_on_c, 0, 78, 0
2, 12480, Note_on_c, 0, 65, 96
2, 12539, Note_on_c, 0, 65, 0
2, 12600, Note_on_c, 0, 77, 96
2, 12659, Note_on_c, 0, 77, 0
2, 12720, Note_on_c, 0, 61, 96
2, 12779, Note_on_c, 0, 61, 0
2, 12840, Note_on_c, 0, 73, 96
2, 12899, Note_on_c, 0, 73, 0
2, 12960, Note_on_c, 0, 58, 96
2, 13019, Note_on_c, 0, 58, 0
2, 13080, Note_on_c, 0, 70, 96
2, 13139, Note_on_c, 0, 70, 0
2, 13200, Note_on_c, 0, 54, 96
2, 13259, Note_on_c, 0, 54, 0
2, 13320, Note_on_c, 0, 66, 96
2, 13379, Note_on_c, 0, 66, 0
2, 13440, Note_on_c, 0, 55, 96
2, 13499, Note_on_c, 0, 55, 0
2, 13560, Note_on_c, 0, 67, 96
2, 13619, Note_on_c, 0, 67, 0
2, 13680, Note_on_c, 0, 58, 96
2, 13739, Note_on_c, 0, 58, 0
2, 13800, Note_on_c, 0, 70, 96
2, 13859, Note_on_c, 0, 70, 0
2, 13920, Note_on_c, 0, 60, 96
2, 13979, Note_on_c, 0, 60, 0
2, 14040, Note_on_c, 0, 72, 96
2, 14099, Note_on_c, 0, 72, 0
2, 14160, Note_on_c, 0, 64, 96
2, 14219, Note_on_c, 0, 64, 0
2, 14280, Note_on_c, 0, 76, 96
2, 14339, Note_on_c, 0, 76, 0
2, 14400, Note_on_c, 0, 67, 96
2, 14459, Note_on_c, 0, 67, 0
2, 14520, Note_on_c, 0, 79, 96
2, 14579, Note_on_c, 0, 79, 0
2, 14640, Note_on_c, 0, 70, 96
2, 14699, Note_on_c, 0, 70, 0
2, 14760, Note_on_c, 0, 82, 96
2, 14819, Note_on_c, 0, 82, 0
2, 14880, Note_on_c, 0, 72, 96
2, 14939, Note_on_c, 0, 72, 0
2, 15000, Note_on_c, 0, 84, 96
2, 15059, Note_on_c, 0, 84, 0
2, 15120, Note_on_c, 0, 71, 96
2, 15179, Note_on_c, 0, 71, 0
2, 15240, Note_on_c, 0, 83, 96
2, 15299, Note_on_c, 0, 83, 0
2, 15360, Note_on_c, 0, 70, 96
2, 15419, Note_on_c, 0, 70, 0
2, 15480, Note_on_c, 0, 82, 96
2, 15539, Note_on_c, 0, 82, 0
2, 15600, Note_on_c, 0, 66, 96
2, 15659, Note_on_c, 0, 66, 0
2, 15720, Note_on_c, 0, 78, 96
2, 15779, Note_on_c, 0, 78, 0
2, 15840, Note_on_c, 0, 63, 96
2, 15899, Note_on_c, 0, 63, 0
2, 15960, Note_on_c, 0, 75, 96
2, 16019, Note_on_c, 0, 75, 0
2, 16080, Note_on_c, 0, 59, 96
2, 16139, Note_on_c, 0, 59, 0
2, 16200, Note_on_c, 0, 71, 96
2, 16259, Note_on_c, 0, 71, 0
2, 16320, Note_on_c, 0, 58, 96
2, 16379, Note_on_c, 0, 58, 0
2, 16440, Note_on_c, 0, 70, 96
2, 16499, Note_on_c, 0, 70, 0
2, 16560, Note_on_c, 0, 54, 96
2, 16619, Note_on_c, 0, 54, 0
2, 16680, Note_on_c, 0, 66, 96
2, 16739, Note_on_c, 0, 66, 0
2, 16800, Note_on_c, 0, 51, 96
2, 16859, Note_on_c, 0, 51, 0
2, 16920, Note_on_c, 0, 63, 96
2, 16979, Note_on_c, 0, 63, 0
2, 17040, Note_on_c, 0, 47, 96
2, 17099, Note_on_c, 0, 47, 0
2, 17160, Note_on_c, 0, 59, 96
2, 17219, Note_on_c, 0, 59, 0
2, 17280, Note_on_c, 0, 45, 96
2, 17339, Note_on_c, 0, 45, 0
2, 17400, Note_on_c, 0, 57, 96
2, 17459, Note_on_c, 0, 57, 0
2, 17520, Note_on_c, 0, 51, 96
2, 17579, Note_on_c, 0, 51, 0
2, 17640, Note_on_c, 0, 63, 96
2, 17699, Note_on_c, 0, 63, 0
2, 17760, Note_on_c, 0, 53, 96
2, 17819, Note_on_c, 0, 53, 0
2, 17880, Note_on_c, 0, 65, 96
2, 17939, Note_on_c, 0, 65, 0
2, 18000, Note_on_c, 0, 60, 96
2, 18059, Note_on_c, 0, 60, 0
2, 18120, Note_on_c, 0, 72, 96
2, 18179, Note_on_c, 0, 72, 0
2, 18240, Note_on_c, 0, 57, 96
2, 18299, Note_on_c, 0, 57, 0
2, 18360, Note_on_c, 0, 69, 96
2, 18419, Note_on_c, 0, 69, 0
2, 18480, Note_on_c, 0, 63, 96
2, 18539, Note_on_c, 0, 63, 0
2, 18600, Note_on_c, 0, 75, 96
2, 18659, Note_on_c, 0, 75, 0
2, 18720, Note_on_c, 0, 65, 96
2, 18779, Note_on_c, 0, 65, 0
2, 18840, Note_on_c, 0, 77, 96
2, 18899, Note_on_c, 0, 77, 0
2, 18960, Note_on_c, 0, 72, 96
2, 19019, Note_on_c, 0, 72, 0
2, 19080, Note_on_c, 0, 84, 96
2, 19139, Note_on_c, 0, 84, 0
2, 19200, Note_on_c, 0, 70, 96
2, 19259, Note_on_c, 0, 70, 0
2, 19320, Note_on_c, 0, 82, 96
2, 19379, Note_on_c, 0, 82, 0
2, 19440, Note_on_c, 0, 66, 96
2, 19499, Note_on_c, 0, 66, 0
2, 19560, Note_on_c, 0, 78, 96
2, 19619, Note_on_c, 0, 78, 0
2, 19680, Note_on_c, 0, 63, 96
2, 19739, Note_on_c, 0, 63, 0
2, 19800, Note_on_c, 0, 75, 96
2, 19859, Note_on_c, 0, 75, 0
2, 19920, Note_on_c, 0, 59, 96
2, 19979, Note_on_c, 0, 59, 0
2, 20040, Note_on_c, 0, 71, 96
2, 20099, Note_on_c, 0, 71, 0
2, 20160, Note_on_c, 0, 58, 96
2, 20219, Note_on_c, 0, 58, 0
2, 20280, Note_on_c, 0, 70, 96
2, 20339, Note_on_c, 0, 70, 0
2, 20400, Note_on_c, 0, 54, 96
2, 20459, Note_on_c, 0, 54, 0
2, 20520, Note_on_c, 0, 66, 96
2, 20579, Note_on_c, 0, 66, 0
2, 20640, Note_on_c, 0, 51, 96
2, 20699, Note_on_c, 0, 51, 0
2, 20760, Note_on_c, 0, 63, 96
2, 20819, Note_on_c, 0, 63, 0
2, 20880, Note_on_c, 0, 47, 96
2, 20939, Note_on_c, 0, 47, 0
2, 21000, Note_on_c, 0, 59, 96
2, 21059, Note_on_c, 0, 59, 0
2, 21120, Note_on_c, 0, 48, 96
2, 21179, Note_on_c, 0, 48, 0
2, 21240, Note_on_c, 0, 60, 96
2, 21299, Note_on_c, 0, 60, 0
2, 21360, Note_on_c, 0, 51, 96
2, 21419, Note_on_c, 0, 51, 0
2, 21480, Note_on_c, 0, 63, 96
2, 21539, Note_on_c, 0, 63, 0
2, 21600, Note_on_c, 0, 53, 96
2, 21659, Note_on_c, 0, 53, 0
2, 21720, Note_on_c, 0, 65, 96
2, 21779, Note_on_c, 0, 65, 0
2, 21840, Note_on_c, 0, 57, 96
2, 21899, Note_on_c, 0, 57, 0
2, 21960, Note_on_c, 0, 69, 96
2, 22019, Note_on_c, 0, 69, 0
2, 22080, Note_on_c, 0, 60, 96
2, 22139, Note_on_c, 0, 60, 0
2, 22200, Note_on_c, 0, 72, 96
2, 22259, Note_on_c, 0, 72, 0
2, 22320, Note_on_c, 0, 63, 96
2, 22379, Note_on_c, 0, 63, 0
2, 22440, Note_on_c, 0, 75, 96
2, 22499, Note_on_c, 0, 75, 0
2, 22560, Note_on_c, 0, 65, 96
2, 22619, Note_on_c, 0, 65, 0
2, 22680, Note_on_c, 0, 77, 96
2, 22739, Note_on_c, 0, 77, 0
2, 22800, Note_on_c, 0, 69, 96
2, 22859, Note_on_c, 0, 69, 0
2, 22920, Note_on_c, 0, 81, 96
2, 22979, Note_on_c, 0, 81, 0
2, 23040, Note_on_c, 0, 70, 96
2, 23099, Note_on_c, 0, 70, 0
2, 23160, Note_on_c, 0, 82, 96
2, 23219, Note_on_c, 0, 82, 0
2, 23280, Note_on_c, 0, 66, 96
2, 23339, Note_on_c, 0, 66, 0
2, 23400, Note_on_c, 0, 78, 96
2, 23459, Note_on_c, 0, 78, 0
2, 23520, Note_on_c, 0, 63, 96
2, 23579, Note_on_c, 0, 63, 0
2, 23640, Note_on_c, 0, 75, 96
2, 23699, Note_on_c, 0, 75, 0
2, 23760, Note_on_c, 0, 59, 96
2, 23819, Note_on_c, 0, 59, 0
2, 23880, Note_on_c, 0, 71, 96
2, 23939, Note_on_c, 0, 71, 0
2, 24000, Note_on_c, 0, 58, 96
2, 24059, Note_on_c, 0, 58, 0
2, 24120, Note_on_c, 0, 70, 96
2, 24179, Note_on_c, 0, 70, 0
2, 24240, Note_on_c, 0, 54, 96
2, 24299, Note_on_c, 0, 54, 0
2, 24360, Note_on_c, 0, 66, 96
2, 24419, Note_on_c, 0, 66, 0
2, 24480, Note_on_c, 0, 51, 96
2, 24539, Note_on_c, 0, 51, 0
2, 24600, Note_on_c, 0, 63, 96
2, 24659, Note_on_c, 0, 63, 0
2, 24720, Note_on_c, 0, 47, 96
2, 24779, Note_on_c, 0, 47, 0
2, 24840, Note_on_c, 0, 59, 96
2, 24899, Note_on_c, 0, 59, 0
2, 24960, Note_on_c, 0, 45, 96
2, 25019, Note_on_c, 0, 45, 0
2, 25080, Note_on_c, 0, 57, 96
2, 25139, Note_on_c, 0, 57, 0
2, 25200, Note_on_c, 0, 51, 96
2, 25259, Note_on_c, 0, 51, 0
2, 25320, Note_on_c, 0, 63, 96
2, 25379, Note_on_c, 0, 63, 0
2, 25440, Note_on_c, 0, 53, 96
2, 25499, Note_on_c, 0, 53, 0
2, 25560, Note_on_c, 0, 65, 96
2, 25619, Note_on_c, 0, 65, 0
2, 25680, Note_on_c, 0, 60, 96
2, 25739, Note_on_c, 0, 60, 0
2, 25800, Note_on_c, 0, 72, 96
2, 25859, Note_on_c, 0, 72, 0
2, 25920, Note_on_c, 0, 57, 96
2, 25979, Note_on_c, 0, 57, 0
2, 26040, Note_on_c, 0, 69, 96
2, 26099, Note_on_c, 0, 69, 0
2, 26160, Note_on_c, 0, 63, 96
2, 26219, Note_on_c, 0, 63, 0
2, 26280, Note_on_c, 0, 75, 96
2, 26339, Note_on_c, 0, 75, 0
2, 26400, Note_on_c, 0, 65, 96
2, 26459, Note_on_c, 0, 65, 0
2, 26520, Note_on_c, 0, 77, 96
2, 26579, Note_on_c, 0, 77, 0
2, 26640, Note_on_c, 0, 72, 96
2, 26699, Note_on_c, 0, 72, 0
2, 26760, Note_on_c, 0, 84, 96
2, 26819, Note_on_c, 0, 84, 0
2, 26880, Note_on_c, 0, 70, 96
2, 26939, Note_on_c, 0, 70, 0
2, 27000, Note_on_c, 0, 82, 96
2, 27059, Note_on_c, 0, 82, 0
2, 27120, Note_on_c, 0, 66, 96
2, 27179, Note_on_c, 0, 66, 0
2, 27240, Note_on_c, 0, 78, 96
2, 27299, Note_on_c, 0, 78, 0
2, 27360, Note_on_c, 0, 63, 96
2, 27419, Note_on_c, 0, 63, 0
2, 27480, Note_on_c, 0, 75, 96
2, 27539, Note_on_c, 0, 75, 0
2, 27600, Note_on_c, 0, 59, 96
2, 27659, Note_on_c, 0, 59, 0
2, 27720, Note_on_c, 0, 71, 96
2, 27779, Note_on_c, 0, 71, 0
2, 27840, Note_on_c, 0, 58, 96
2, 27899, Note_on_c, 0, 58, 0
2, 27960, Note_on_c, 0, 70, 96
2, 28019, Note_on_c, 0, 70, 0
2, 28080, Note_on_c, 0, 54, 96
2, 28139, Note_on_c, 0, 54, 0
2, 28200, Note_on_c, 0, 66, 96
2, 28259, Note_on_c, 0, 66, 0
2, 28320, Note_on_c, 0, 51, 96
2, 28379, Note_on_c, 0, 51, 0
2, 28440, Note_on_c, 0, 63, 96
2, 28499, Note_on_c, 0, 63, 0
2, 28560, Note_on_c, 0, 47, 96
2, 28619, Note_on_c, 0, 47, 0
2, 28680, Note_on_c, 0, 59, 96
2, 28739, Note_on_c, 0, 59, 0
2, 28800, Note_on_c, 0, 48, 96
2, 28859, Note_on_c, 0, 48, 0
2, 28920, Note_on_c, 0, 60, 96
2, 28979, Note_on_c, 0, 60, 0
2, 29040, Note_on_c, 0, 51, 96
2, 29099, Note_on_c, 0, 51, 0
2, 29160, Note_on_c, 0, 63, 96
2, 29219, Note_on_c, 0, 63, 0
2, 29280, Note_on_c, 0, 53, 96
2, 29339, Note_on_c, 0, 53, 0
2, 29400, Note_on_c, 0, 65, 96
2, 29459, Note_on_c, 0, 65, 0
2, 29520, Note_on_c, 0, 57, 96
2, 29579, Note_on_c, 0, 57, 0
2, 29640, Note_on_c, 0, 69, 96
2, 29699, Note_on_c, 0, 69, 0
2, 29760, Note_on_c, 0, 60, 96
2, 29819, Note_on_c, 0, 60, 0
2, 29880, Note_on_c, 0, 72, 96
2, 29939, Note_on_c, 0, 72, 0
2, 30000, Note_on_c, 0, 63, 96
2, 30059, Note_on_c, 0, 63, 0
2, 30120, Note_on_c, 0, 75, 96
2, 30179, Note_on_c, 0, 75, 0
2, 30240, Note_on_c, 0, 65, 96
2, 30299, Note_on_c, 0, 65, 0
2, 30360, Note_on_c, 0, 77, 96
2, 30419, Note_on_c, 0, 77, 0
2, 30480, Note_on_c, 0, 69, 96
2, 30539, Note_on_c, 0, 69, 0
2, 30600, Note_on_c, 0, 81, 96
2, 30659, Note_on_c, 0, 81, 0
2, 30720, Note_on_c, 0, 77, 96
2, 30779, Note_on_c, 0, 77, 0
2, 30840, Note_on_c, 0, 89, 96
2, 30899, Note_on_c, 0, 89, 0
2, 30960, Note_on_c, 0, 73, 96
2, 31019, Note_on_c, 0, 73, 0
2, 31080, Note_on_c, 0, 85, 96
2, 31139, Note_on_c, 0, 85, 0
2, 31200, Note_on_c, 0, 70, 96
2, 31259, Note_on_c, 0, 70, 0
2, 31320, Note_on_c, 0, 82, 96
2, 31379, Note_on_c, 0, 82, 0
2, 31440, Note_on_c, 0, 66, 96
2, 31499, Note_on_c, 0, 66, 0
2, 31560, Note_on_c, 0, 78, 96
2, 31619, Note_on_c, 0, 78, 0
2, 31680, Note_on_c, 0, 65, 96
2, 31739, Note_on_c, 0, 65, 0
2, 31800, Note_on_c, 0, 77, 96
2, 31859, Note_on_c, 0, 77, 0
2, 31920, Note_on_c, 0, 61, 96
2, 31979, Note_on_c, 0, 61, 0
2, 32040, Note_on_c, 0, 73, 96
2, 32099, Note_on_c, 0, 73, 0
2, 32160, Note_on_c, 0, 58, 96
2, 32219, Note_on_c, 0, 58, 0
2, 32280, Note_on_c, 0, 70, 96
2, 32339, Note_on_c, 0, 70, 0
2, 32400, Note_on_c, 0, 54, 96
2, 32459, Note_on_c, 0, 54, 0
2, 32520, Note_on_c, 0, 66, 96
2, 32579, Note_on_c, 0, 66, 0
2, 32640, Note_on_c, 0, 52, 96
2, 32699, Note_on_c, 0, 52, 0
2, 32760, Note_on_c, 0, 64, 96
2, 32819, Note_on_c, 0, 64, 0
2, 32880, Note_on_c, 0, 58, 96
2, 32939, Note_on_c, 0, 58, 0
2, 33000, Note_on_c, 0, 70, 96
2, 33059, Note_on_c, 0, 70, 0
2, 33120, Note_on_c, 0, 60, 96
2, 33179, Note_on_c, 0, 60, 0
2, 33240, Note_on_c, 0, 72, 96
2, 33299, Note_on_c, 0, 72, 0
2, 33360, Note_on_c, 0, 67, 96
2, 33419, Note_on_c, 0, 67, 0
2, 33480, Note_on_c, 0, 79, 96
2, 33539, Note_on_c, 0, 79, 0
2, 33600, Note_on_c, 0, 64, 96
2, 33659, Note_on_c, 0, 64, 0
2, 33720, Note_on_c, 0, 76, 96
2, 33779, Note_on_c, 0, 76, 0
2, 33840, Note_on_c, 0, 70, 96
2, 33899, Note_on_c, 0, 70, 0
2, 33960, Note_on_c, 0, 82, 96
2, 34019, Note_on_c, 0, 82, 0
2, 34080, Note_on_c, 0, 72, 96
2, 34139, Note_on_c, 0, 72, 0
2, 34200, Note_on_c, 0, 84, 96
2, 34259, Note_on_c, 0, 84, 0
2, 34320, Note_on_c, 0, 79, 96
2, 34379, Note_on_c, 0, 79, 0
2, 34440, Note_on_c, 0, 91, 96
2, 34499, Note_on_c, 0, 91, 0
2, 34560, Note_on_c, 0, 77, 96
2, 34619, Note_on_c, 0, 77, 0
2, 34680, Note_on_c, 0, 89, 96
2, 34739, Note_on_c, 0, 89, 0
2, 34800, Note_on_c, 0, 73, 96
2, 34859, Note_on_c, 0, 73, 0
2, 34920, Note_on_c, 0, 85, 96
2, 34979, Note_on_c, 0, 85, 0
2, 35040, Note_on_c, 0, 70, 96
2, 35099, Note_on_c, 0, 70, 0
2, 35160, Note_on_c, 0, 82, 96
2, 35219, Note_on_c, 0, 82, 0
2, 35280, Note_on_c, 0, 66, 96
2, 35339, Note_on_c, 0, 66, 0
2, 35400, Note_on_c, 0, 78, 96
2, 35459, Note_on_c, 0, 78, 0
2, 35520, Note_on_c, 0, 65, 96
2, 35579, Note_on_c, 0, 65, 0
2, 35640, Note_on_c, 0, 77, 96
2, 35699, Note_on_c, 0, 77, 0
2, 35760, Note_on_c, 0, 61, 96
2, 35819, Note_on_c, 0, 61, 0
2, 35880, Note_on_c, 0, 73, 96
2, 35939, Note_on_c, 0, 73, 0
2, 36000, Note_on_c, 0, 58, 96
2, 36059, Note_on_c, 0, 58, 0
2, 36120, Note_on_c, 0, 70, 96
2, 36179, Note_on_c, 0, 70, 0
2, 36240, Note_on_c, 0, 54, 96
2, 36299, Note_on_c, 0, 54, 0
2, 36360, Note_on_c, 0, 66, 96
2, 36419, Note_on_c, 0, 66, 0
2, 36480, Note_on_c, 0, 55, 96
2, 36539, Note_on_c, 0, 55, 0
2, 36600, Note_on_c, 0, 67, 96
2, 36659, Note_on_c, 0, 67, 0
2, 36720, Note_on_c, 0, 58, 96
2, 36779, Note_on_c, 0, 58, 0
2, 36840, Note_on_c, 0, 70, 96
2, 36899, Note_on_c, 0, 70, 0
2, 36960, Note_on_c, 0, 60, 96
2, 37019, Note_on_c, 0, 60, 0
2, 37080, Note_on_c, 0, 72, 96
2, 37139, Note_on_c, 0, 72, 0
2, 37200, Note_on_c, 0, 64, 96
2, 37259, Note_on_c, 0, 64, 0
2, 37320, Note_on_c, 0, 76, 96
2, 37379, Note_on_c, 0, 76, 0
2, 37440, Note_on_c, 0, 67, 96
2, 37499, Note_on_c, 0, 67, 0
2, 37560, Note_on_c, 0, 79, 96
2, 37619, Note_on_c, 0, 79, 0
2, 37680, Note_on_c, 0, 70, 96
2, 37739, Note_on_c, 0, 70, 0
2, 37800, Note_on_c, 0, 82, 96
2, 37859, Note_on_c, 0, 82, 0
2, 37920, Note_on_c, 0, 72, 96
2, 37979, Note_on_c, 0, 72, 0
2, 38040, Note_on_c, 0, 84, 96
2, 38099, Note_on_c, 0, 84, 0
2, 38160, Note_on_c, 0, 76, 96
2, 38219, Note_on_c, 0, 76, 0
2, 38280, Note_on_c, 0, 88, 96
2, 38339, Note_on_c, 0, 88, 0
2, 38400, Note_on_c, 0, 77, 96
2, 38459, Note_on_c, 0, 77, 0
2, 38520, Note_on_c, 0, 89, 96
2, 38579, Note_on_c, 0, 89, 0
2, 38640, Note_on_c, 0, 73, 96
2, 38699, Note_on_c, 0, 73, 0
2, 38760, Note_on_c, 0, 85, 96
2, 38819, Note_on_c, 0, 85, 0
2, 38880, Note_on_c, 0, 70, 96
2, 38939, Note_on_c, 0, 70, 0
2, 39000, Note_on_c, 0, 82, 96
2, 39059, Note_on_c, 0, 82, 0
2, 39120, Note_on_c, 0, 66, 96
2, 39179, Note_on_c, 0, 66, 0
2, 39240, Note_on_c, 0, 78, 96
2, 39299, Note_on_c, 0, 78, 0
2, 39360, Note_on_c, 0, 65, 96
2, 39419, Note_on_c, 0, 65, 0
2, 39480, Note_on_c, 0, 77, 96
2, 39539, Note_on_c, 0, 77, 0
2, 39600, Note_on_c, 0, 61, 96
2, 39659, Note_on_c, 0, 61, 0
2, 39720, Note_on_c, 0, 73, 96
2, 39779, Note_on_c, 0, 73, 0
2, 39840, Note_on_c, 0, 58, 96
2, 39899, Note_on_c, 0, 58, 0
2, 39960, Note_on_c, 0, 70, 96
2, 40019, Note_on_c, 0, 70, 0
2, 40080, Note_on_c, 0, 54, 96
2, 40139, Note_on_c, 0, 54, 0
2, 40200, Note_on_c, 0, 66, 96
2, 40259, Note_on_c, 0, 66, 0
2, 40320, Note_on_c, 0, 52, 96
2, 40379, Note_on_c, 0, 52, 0
2, 40440, Note_on_c, 0, 64, 96
2, 40499, Note_on_c, 0, 64, 0
2, 40560, Note_on_c, 0, 58, 96
2, 40619, Note_on_c, 0, 58, 0
2, 40680, Note_on_c, 0, 70, 96
2, 40739, Note_on_c, 0, 70, 0
2, 40800, Note_on_c, 0, 60, 96
2, 40859, Note_on_c, 0, 60, 0
2, 40920, Note_on_c, 0, 72, 96
2, 40979, Note_on_c, 0, 72, 0
2, 41040, Note_on_c, 0, 67, 96
2, 41099, Note_on_c, 0, 67, 0
2, 41160, Note_on_c, 0, 79, 96
2, 41219, Note_on_c, 0, 79, 0
2, 41280, Note_on_c, 0, 64, 96
2, 41339, Note_on_c, 0, 64, 0
2, 41400, Note_on_c, 0, 76, 96
2, 41459, Note_on_c, 0, 76, 0
2, 41520, Note_on_c, 0, 70, 96
2, 41579, Note_on_c, 0, 70, 0
2, 41640, Note_on_c, 0, 82, 96
2, 41699, Note_on_c, 0, 82, 0
2, 41760, Note_on_c, 0, 72, 96
2, 41819, Note_on_c, 0, 72, 0
2, 41880, Note_on_c, 0, 84, 96
2, 41939, Note_on_c, 0, 84, 0
2, 42000, Note_on_c, 0, 79, 96
2, 42059, Note_on_c, 0, 79, 0
2, 42120, Note_on_c, 0, 91, 96
2, 42179, Note_on_c, 0, 91, 0
2, 42240, Note_on_c, 0, 77, 96
2, 42299, Note_on_c, 0, 77, 0
2, 42360, Note_on_c, 0, 89, 96
2, 42419, Note_on_c, 0, 89, 0
2, 42480, Note_on_c, 0, 73, 96
2, 42539, Note_on_c, 0, 73, 0
2, 42600, Note_on_c, 0, 85, 96
2, 42659, Note_on_c, 0, 85, 0
2, 42720, Note_on_c, 0, 70, 96
2, 42779, Note_on_c, 0, 70, 0
2, 42840, Note_on_c, 0, 82, 96
2, 42899, Note_on_c, 0, 82, 0
2, 42960, Note_on_c, 0, 66, 96
2, 43019, Note_on_c, 0, 66, 0
2, 43080, Note_on_c, 0, 78, 96
2, 43139, Note_on_c, 0, 78, 0
2, 43200, Note_on_c, 0, 65, 96
2, 43259, Note_on_c, 0, 65, 0
2, 43320, Note_on_c, 0, 77, 96
2, 43379, Note_on_c, 0, 77, 0
2, 43440, Note_on_c, 0, 61, 96
2, 43499, Note_on_c, 0, 61, 0
2, 43560, Note_on_c, 0, 73, 96
2, 43619, Note_on_c, 0, 73, 0
2, 43680, Note_on_c, 0, 58, 96
2, 43739, Note_on_c, 0, 58, 0
2, 43800, Note_on_c, 0, 70, 96
2, 43859, Note_on_c, 0, 70, 0
2, 43920, Note_on_c, 0, 54, 96
2, 43979, Note_on_c, 0, 54, 0
2, 44040, Note_on_c, 0, 66, 96
2, 44099, Note_on_c, 0, 66, 0
2, 44160, Note_on_c, 0, 55, 96
2, 44219, Note_on_c, 0, 55, 0
2, 44280, Note_on_c, 0, 67, 96
2, 44339, Note_on_c, 0, 67, 0
2, 44400, Note_on_c, 0, 58, 96
2, 44459, Note_on_c, 0, 58, 0
2, 44520, Note_on_c, 0, 70, 96
2, 44579, Note_on_c, 0, 70, 0
2, 44640, Note_on_c, 0, 60, 96
2, 44699, Note_on_c, 0, 60, 0
2, 44760, Note_on_c, 0, 72, 96
2, 44819, Note_on_c, 0, 72, 0
2, 44880, Note_on_c, 0, 64, 96
2, 44939, Note_on_c, 0, 64, 0
2, 45000, Note_on_c, 0, 76, 96
2, 45059, Note_on_c, 0, 76, 0
2, 45120, Note_on_c, 0, 67, 96
2, 45179, Note_on_c, 0, 67, 0
2, 45240, Note_on_c, 0, 79, 96
2, 45299, Note_on_c, 0, 79, 0
2, 45360, Note_on_c, 0, 70, 96
2, 45419, Note_on_c, 0, 70, 0
2, 45480, Note_on_c, 0, 82, 96
2, 45539, Note_on_c, 0, 82, 0
2, 45600, Note_on_c, 0, 72, 96
2, 45659, Note_on_c, 0, 72, 0
2, 45720, Note_on_c, 0, 84, 96
2, 45779, Note_on_c, 0, 84, 0
2, 45840, Note_on_c, 0, 71, 96
2, 45899, Note_on_c, 0, 71, 0
2, 45960, Note_on_c, 0, 83, 96
2, 46019, Note_on_c, 0, 83, 0
2, 46080, Note_on_c, 0, 70, 96
2, 46139, Note_on_c, 0, 70, 0
2, 46200, Note_on_c, 0, 82, 96
2, 46259, Note_on_c, 0, 82, 0
2, 46320, Note_on_c, 0, 66, 96
2, 46379, Note_on_c, 0, 66, 0
2, 46440, Note_on_c, 0, 78, 96
2, 46499, Note_on_c, 0, 78, 0
2, 46560, Note_on_c, 0, 63, 96
2, 46619, Note_on_c, 0, 63, 0
2, 46680, Note_on_c, 0, 75, 96
2, 46739, Note_on_c, 0, 75, 0
2, 46800, Note_on_c, 0, 59, 96
2, 46859, Note_on_c, 0, 59, 0
2, 46920, Note_on_c, 0, 71, 96
2, 46979, Note_on_c, 0, 71, 0
2, 47040, Note_on_c, 0, 58, 96
2, 47099, Note_on_c, 0, 58, 0
2, 47160, Note_on_c, 0, 70, 96
2, 47219, Note_on_c, 0, 70, 0
2, 47280, Note_on_c, 0, 54, 96
2, 47339, Note_on_c, 0, 54, 0
2, 47400, Note_on_c, 0, 66, 96
2, 47459, Note_on_c, 0, 66, 0
2, 47520, Note_on_c, 0, 51, 96
2, 47579, Note_on_c, 0, 51, 0
2, 47640, Note_on_c, 0, 63, 96
2, 47699, Note_on_c, 0, 63, 0
2, 47760, Note_on_c, 0, 47, 96
2, 47819, Note_on_c, 0, 47, 0
2, 47880, Note_on_c, 0, 59, 96
2, 47939, Note_on_c, 0, 59, 0
2, 48000, Note_on_c, 0, 45, 96
2, 48059, Note_on_c, 0, 45, 0
2, 48120, Note_on_c, 0, 57, 96
2, 48179, Note_on_c, 0, 57, 0
2, 48240, Note_on_c, 0, 51, 96
2, 48299, Note_on_c, 0, 51, 0
2, 48360, Note_on_c, 0, 63, 96
2, 48419, Note_on_c, 0, 63, 0
2, 48480, Note_on_c, 0, 53, 96
2, 48539, Note_on_c, 0, 53, 0
2, 48600, Note_on_c, 0, 65, 96
2, 48659, Note_on_c, 0, 65, 0
2, 48720, Note_on_c, 0, 60, 96
2, 48779, Note_on_c, 0, 60, 0
2, 48840, Note_on_c, 0, 72, 96
2, 48899, Note_on_c, 0, 72, 0
2, 48960, Note_on_c, 0, 57, 96
2, 49019, Note_on_c, 0, 57, 0
2, 49080, Note_on_c, 0, 69, 96
2, 49139, Note_on_c, 0, 69, 0
2, 49200, Note_on_c, 0, 63, 96
2, 49259, Note_on_c, 0, 63, 0
2, 49320, Note_on_c, 0, 75, 96
2, 49379, Note_on_c, 0, 75, 0
2, 49440, Note_on_c, 0, 65, 96
2, 49499, Note_on_c, 0, 65, 0
2, 49560, Note_on_c, 0, 77, 96
2, 49619, Note_on_c, 0, 77, 0
2, 49680, Note_on_c, 0, 72, 96
2, 49739, Note_on_c, 0, 72, 0
2, 49800, Note_on_c, 0, 84, 96
2, 49859, Note_on_c, 0, 84, 0
2, 49920, Note_on_c, 0, 70, 96
2, 49979, Note_on_c, 0, 70, 0
2, 50040, Note_on_c, 0, 82, 96
2, 50099, Note_on_c, 0, 82, 0
2, 50160, Note_on_c, 0, 66, 96
2, 50219, Note_on_c, 0, 66, 0
2, 50280, Note_on_c, 0, 78, 96
2, 50339, Note_on_c, 0, 78, 0
2, 50400, Note_on_c, 0, 63, 96
2, 50459, Note_on_c, 0, 63, 0
2, 50520, Note_on_c, 0, 75, 96
2, 50579, Note_on_c, 0, 75, 0
2, 50640, Note_on_c, 0, 59, 96
2, 50699, Note_on_c, 0, 59, 0
2, 50760, Note_on_c, 0, 71, 96
2, 50819, Note_on_c, 0, 71, 0
2, 50880, Note_on_c, 0, 58, 96
2, 50939, Note_on_c, 0, 58, 0
2, 51000, Note_on_c, 0, 70, 96
2, 51059, Note_on_c, 0, 70, 0
2, 51120, Note_on_c, 0, 54, 96
2, 51179, Note_on_c, 0, 54, 0
2, 51240, Note_on_c, 0, 66, 96
2, 51299, Note_on_c, 0, 66, 0
2, 51360, Note_on_c, 0, 51, 96
2, 51419, Note_on_c, 0, 51, 0
2, 51480, Note_on_c, 0, 63, 96
2, 51539, Note_on_c, 0, 63, 0
2, 51600, Note_on_c, 0, 47, 96
2, 51659, Note_on_c, 0, 47, 0
2, 51720, Note_on_c, 0, 59, 96
2, 51779, Note_on_c, 0, 59, 0
2, 51840, Note_on_c, 0, 48, 96
2, 51899, Note_on_c, 0, 48, 0
2, 51960, Note_on_c, 0, 60, 96
2, 52019, Note_on_c, 0, 60, 0
2, 52080, Note_on_c, 0, 51, 96
2, 52139, Note_on_c, 0, 51, 0
2, 52200, Note_on_c, 0, 63, 96
2, 52259, Note_on_c, 0, 63, 0
2, 52320, Note_on_c, 0, 53, 96
2, 52379, Note_on_c, 0, 53, 0
2, 52440, Note_on_c, 0, 65, 96
2, 52499, Note_on_c, 0, 65, 0
2, 52560, Note_on_c, 0, 57, 96
2, 52619, Note_on_c, 0, 57, 0
2, 52680, Note_on_c, 0, 69, 96
2, 52739, Note_on_c, 0, 69, 0
2, 52800, Note_on_c, 0, 60, 96
2, 52859, Note_on_c, 0, 60, 0
2, 52920, Note_on_c, 0, 72, 96
2, 52979, Note_on_c, 0, 72, 0
2, 53040, Note_on_c, 0, 63, 96
2, 53099, Note_on_c, 0, 63, 0
2, 53160, Note_on_c, 0, 75, 96
2, 53219, Note_on_c, 0, 75, 0
2, 53280, Note_on_c, 0, 65, 96
2, 53339, Note_on_c, 0, 65, 0
2, 53400, Note_on_c, 0, 77, 96
2, 53459, Note_on_c, 0, 77, 0
2, 53520, Note_on_c, 0, 69, 96
2, 53579, Note_on_c, 0, 69, 0
2, 53640, Note_on_c, 0, 81, 96
2, 53699, Note_on_c, 0, 81, 0
2, 53760, Note_on_c, 0, 70, 96
2, 53819, Note_on_c, 0, 70, 0
2, 53880, Note_on_c, 0, 82, 96
2, 53939, Note_on_c, 0, 82, 0
2, 54000, Note_on_c, 0, 66, 96
2, 54059, Note_on_c, 0, 66, 0
2, 54120, Note_on_c, 0, 78, 96
2, 54179, Note_on_c, 0, 78, 0
2, 54240, Note_on_c, 0, 63, 96
2, 54299, Note_on_c, 0, 63, 0
2, 54360, Note_on_c, 0, 75, 96
2, 54419, Note_on_c, 0, 75, 0
2, 54480, Note_on_c, 0, 59, 96
2, 54539, Note_on_c, 0, 59, 0
2, 54600, Note_on_c, 0, 71, 96
2, 54659, Note_on_c, 0, 71, 0
2, 54720, Note_on_c, 0, 58, 96
2, 54779, Note_on_c, 0, 58, 0
2, 54840, Note_on_c, 0, 70, 96
2, 54899, Note_on_c, 0, 70, 0
2, 54960, Note_on_c, 0, 54, 96
2, 55019, Note_on_c, 0, 54, 0
2, 55080, Note_on_c, 0, 66, 96
2, 55139, Note_on_c, 0, 66, 0
2, 55200, Note_on_c, 0, 51, 96
2, 55259, Note_on_c, 0, 51, 0
2, 55320, Note_on_c, 0, 63, 96
2, 55379, Note_on_c, 0, 63, 0
2, 55440, Note_on_c, 0, 47, 96
2, 55499, Note_on_c, 0, 47, 0
2, 55560, Note_on_c, 0, 59, 96
2, 55619, Note_on_c, 0, 59, 0
2, 55680, Note_on_c, 0, 45, 96
2, 55739, Note_on_c, 0, 45, 0
2, 55800, Note_on_c, 0, 57, 96
2, 55859, Note_on_c, 0, 57, 0
2, 55920, Note_on_c, 0, 51, 96
2, 55979, Note_on_c, 0, 51, 0
2, 56040, Note_on_c, 0, 63, 96
2, 56099, Note_on_c, 0, 63, 0
2, 56160, Note_on_c, 0, 53, 96
2, 56219, Note_on_c, 0, 53, 0
2, 56280, Note_on_c, 0, 65, 96
2, 56339, Note_on_c, 0, 65, 0
2, 56400, Note_on_c, 0, 60, 96
2, 56459, Note_on_c, 0, 60, 0
2, 56520, Note_on_c, 0, 72, 96
2, 56579, Note_on_c, 0, 72, 0
2, 56640, Note_on_c, 0, 57, 96
2, 56699, Note_on_c, 0, 57, 0
2, 56760, Note_on_c, 0, 69, 96
2, 56819, Note_on_c, 0, 69, 0
2, 56880, Note_on_c, 0, 63, 96
2, 56939, Note_on_c, 0, 63, 0
2, 57000, Note_on_c, 0, 75, 96
2, 57059, Note_on_c, 0, 75, 0
2, 57120, Note_on_c, 0, 65, 96
2, 57179, Note_on_c, 0, 65, 0
2, 57240, Note_on_c, 0, 77, 96
2, 57299, Note_on_c, 0, 77, 0
2, 57360, Note_on_c, 0, 72, 96
2, 57419, Note_on_c, 0, 72, 0
2, 57480, Note_on_c, 0, 84, 96
2, 57539, Note_on_c, 0, 84, 0
2, 57600, Note_on_c, 0, 70, 96
2, 57659, Note_on_c, 0, 70, 0
2, 57720, Note_on_c, 0, 82, 96
2, 57779, Note_on_c, 0, 82, 0
2, 57840, Note_on_c, 0, 66, 96
2, 57899, Note_on_c, 0, 66, 0
2, 57960, Note_on_c, 0, 78, 96
2, 58019, Note_on_c, 0, 78, 0
2, 58080, Note_on_c, 0, 63, 96
2, 58139, Note_on_c, 0, 63, 0
2, 58200, Note_on_c, 0, 75, 96
2, 58259, Note_on_c, 0, 75, 0
2, 58320, Note_on_c, 0, 59, 96
2, 58379, Note_on_c, 0, 59, 0
2, 58440, Note_on_c, 0, 71, 96
2, 58499, Note_on_c, 0, 71, 0
2, 58560, Note_on_c, 0, 58, 96
2, 58619, Note_on_c, 0, 58, 0
2, 58680, Note_on_c, 0, 70, 96
2, 58739, Note_on_c, 0, 70, 0
2, 58800, Note_on_c, 0, 54, 96
2, 58859, Note_on_c, 0, 54, 0
2, 58920, Note_on_c, 0, 66, 96
2, 58979, Note_on_c, 0, 66, 0
2, 59040, Note_on_c, 0, 51, 96
2, 59099, Note_on_c, 0, 51, 0
2, 59160, Note_on_c, 0, 63, 96
2, 59219, Note_on_c, 0, 63, 0
2, 59280, Note_on_c, 0, 47, 96
2, 59339, Note_on_c, 0, 47, 0
2, 59400, Note_on_c, 0, 59, 96
2, 59459, Note_on_c, 0, 59, 0
2, 59520, Note_on_c, 0, 48, 96
2, 59579, Note_on_c, 0, 48, 0
2, 59640, Note_on_c, 0, 60, 96
2, 59699, Note_on_c, 0, 60, 0
2, 59760, Note_on_c, 0, 51, 96
2, 59819, Note_on_c, 0, 51, 0
2, 59880, Note_on_c, 0, 63, 96
2, 59939, Note_on_c, 0, 63, 0
2, 60000, Note_on_c, 0, 53, 96
2, 60059, Note_on_c, 0, 53, 0
2, 60120, Note_on_c, 0, 65, 96
2, 60179, Note_on_c, 0, 65, 0
2, 60240, Note_on_c, 0, 57, 96
2, 60299, Note_on_c, 0, 57, 0
2, 60360, Note_on_c, 0, 69, 96
2, 60419, Note_on_c, 0, 69, 0
2, 60480, Note_on_c, 0, 60, 96
2, 60539, Note_on_c, 0, 60, 0
2, 60600, Note_on_c, 0, 72, 96
2, 60659, Note_on_c, 0, 72, 0
2, 60720, Note_on_c, 0, 63, 96
2, 60779, Note_on_c, 0, 63, 0
2, 60840, Note_on_c, 0, 75, 96
2, 60899, Note_on_c, 0, 75, 0
2, 60960, Note_on_c, 0, 65, 96
2, 61019, Note_on_c, 0, 65, 0
2, 61080, Note_on_c, 0, 77, 96
2, 61139, Note_on_c, 0, 77, 0
2, 61200, Note_on_c, 0, 69, 96
2, 61259, Note_on_c, 0, 69, 0
2, 61320, Note_on_c, 0, 81, 96
2, 61371, Note_on_c, 0, 81, 0
2, 61372, End_track
3, 0, Start_track
3, 0, Title_t, "Instrument_02\000"
3, 0, Key_signature, 0, "major"
3, 0, Control_c, 1, 121, 0
3, 0, Program_c, 1, 50
3, 0, Control_c, 1, 7, 100
3, 0, Control_c, 1, 10, 64
3, 0, Control_c, 1, 91, 0
3, 0, Control_c, 1, 93, 0
3, 0, MIDI_port, 0
3, 0, Note_on_c, 1, 77, 80
3, 1823, Note_on_c, 1, 77, 0
3, 1920, Note_on_c, 1, 79, 80
3, 3743, Note_on_c, 1, 79, 0
3, 3840, Note_on_c, 1, 77, 80
3, 5663, Note_on_c, 1, 77, 0
3, 5760, Note_on_c, 1, 76, 80
3, 7583, Note_on_c, 1, 76, 0
3, 7680, Note_on_c, 1, 77, 80
3, 9503, Note_on_c, 1, 77, 0
3, 9600, Note_on_c, 1, 79, 80
3, 11423, Note_on_c, 1, 79, 0
3, 11520, Note_on_c, 1, 77, 80
3, 13343, Note_on_c, 1, 77, 0
3, 13440, Note_on_c, 1, 76, 80
3, 15263, Note_on_c, 1, 76, 0
3, 15360, Note_on_c, 1, 70, 80
3, 17183, Note_on_c, 1, 70, 0
3, 17280, Note_on_c, 1, 72, 80
3, 19103, Note_on_c, 1, 72, 0
3, 19200, Note_on_c, 1, 70, 80
3, 21023, Note_on_c, 1, 70, 0
3, 21120, Note_on_c, 1, 69, 80
3, 22943, Note_on_c, 1, 69, 0
3, 23040, Note_on_c, 1, 70, 80
3, 24863, Note_on_c, 1, 70, 0
3, 24960, Note_on_c, 1, 72, 80
3, 26783, Note_on_c, 1, 72, 0
3, 26880, Note_on_c, 1, 70, 80
3, 28703, Note_on_c, 1, 70, 0
3, 28800, Note_on_c, 1, 69, 80
3, 30623, Note_on_c, 1, 69, 0
3, 30720, Note_on_c, 1, 77, 80
3, 32543, Note_on_c, 1, 77, 0
3, 32640, Note_on_c, 1, 79, 80
3, 34463, Note_on_c, 1, 79, 0
3, 34560, Note_on_c, 1, 77, 80
3, 36383, Note_on_c, 1, 77, 0
3, 36480, Note_on_c, 1, 76, 80
3, 38303, Note_on_c, 1, 76, 0
3, 38400, Note_on_c, 1, 77, 80
3, 40223, Note_on_c, 1, 77, 0
3, 40320, Note_on_c, 1, 79, 80
3, 42143, Note_on_c, 1, 79, 0
3, 42240, Note_on_c, 1, 77, 80
3, 44063, Note_on_c, 1, 77, 0
3, 44160, Note_on_c, 1, 76, 80
3, 45983, Note_on_c, 1, 76, 0
3, 46080, Note_on_c, 1, 70, 80
3, 47903, Note_on_c, 1, 70, 0
3, 48000, Note_on_c, 1, 72, 80
3, 49823, Note_on_c, 1, 72, 0
3, 49920, Note_on_c, 1, 70, 80
3, 51743, Note_on_c, 1, 70, 0
3, 51840, Note_on_c, 1, 69, 80
3, 53663, Note_on_c, 1, 69, 0
3, 53760, Note_on_c, 1, 70, 80
3, 55583, Note_on_c, 1, 70, 0
3, 55680, Note_on_c, 1, 72, 80
3, 57503, Note_on_c, 1, 72, 0
3, 57600, Note_on_c, 1, 70, 80
3, 59423, Note_on_c, 1, 70, 0
3, 59520, Note_on_c, 1, 69, 80
3, 61328, Note_on_c, 1, 69, 0
3, 61329, End_track
4, 0, Start_track
4, 0, Title_t, "Instrument_03\000"
4, 0, Key_signature, 0, "major"
4, 0, Control_c, 2, 121, 0
4, 0, Program_c, 2, 50
4, 0, Control_c, 2, 7, 100
4, 0, Control_c, 2, 10, 64
4, 0, Control_c, 2, 91, 0
4, 0, Control_c, 2, 93, 0
4, 0, MIDI_port, 0
4, 0, Note_on_c, 2, 73, 80
4, 1823, Note_on_c, 2, 73, 0
4, 1920, Note_on_c, 2, 72, 80
4, 3743, Note_on_c, 2, 72, 0
4, 3840, Note_on_c, 2, 73, 80
4, 5663, Note_on_c, 2, 73, 0
4, 5760, Note_on_c, 2, 72, 80
4, 7583, Note_on_c, 2, 72, 0
4, 7680, Note_on_c, 2, 73, 80
4, 9503, Note_on_c, 2, 73, 0
4, 9600, Note_on_c, 2, 72, 80
4, 11423, Note_on_c, 2, 72, 0
4, 11520, Note_on_c, 2, 73, 80
4, 13343, Note_on_c, 2, 73, 0
4, 13440, Note_on_c, 2, 72, 80
4, 15263, Note_on_c, 2, 72, 0
4, 15360, Note_on_c, 2, 66, 80
4, 17183, Note_on_c, 2, 66, 0
4, 17280, Note_on_c, 2, 65, 80
4, 19103, Note_on_c, 2, 65, 0
4, 19200, Note_on_c, 2, 66, 80
4, 21023, Note_on_c, 2, 66, 0
4, 21120, Note_on_c, 2, 65, 80
4, 22943, Note_on_c, 2, 65, 0
4, 23040, Note_on_c, 2, 66, 80
4, 24863, Note_on_c, 2, 66, 0
4, 24960, Note_on_c, 2, 65, 80
4, 26783, Note_on_c, 2, 65, 0
4, 26880, Note_on_c, 2, 66, 80
4, 28703, Note_on_c, 2, 66, 0
4, 28800, Note_on_c, 2, 65, 80
4, 30623, Note_on_c, 2, 65, 0
4, 30720, Note_on_c, 2, 73, 80
4, 32543, Note_on_c, 2, 73, 0
4, 32640, Note_on_c, 2, 72, 80
4, 34463, Note_on_c, 2, 72, 0
4, 34560, Note_on_c, 2, 73, 80
4, 36383, Note_on_c, 2, 73, 0
4, 36480, Note_on_c, 2, 72, 80
4, 38303, Note_on_c, 2, 72, 0
4, 38400, Note_on_c, 2, 73, 80
4, 40223, Note_on_c, 2, 73, 0
4, 40320, Note_on_c, 2, 72, 80
4, 42143, Note_on_c, 2, 72, 0
4, 42240, Note_on_c, 2, 73, 80
4, 44063, Note_on_c, 2, 73, 0
4, 44160, Note_on_c, 2, 72, 80
4, 45983, Note_on_c, 2, 72, 0
4, 46080, Note_on_c, 2, 66, 80
4, 47903, Note_on_c, 2, 66, 0
4, 48000, Note_on_c, 2, 65, 80
4, 49823, Note_on_c, 2, 65, 0
4, 49920, Note_on_c, 2, 66, 80
4, 51743, Note_on_c, 2, 66, 0
4, 51840, Note_on_c, 2, 65, 80
4, 53663, Note_on_c, 2, 65, 0
4, 53760, Note_on_c, 2, 66, 80
4, 55583, Note_on_c, 2, 66, 0
4, 55680, Note_on_c, 2, 65, 80
4, 57503, Note_on_c, 2, 65, 0
4, 57600, Note_on_c, 2, 66, 80
4, 59423, Note_on_c, 2, 66, 0
4, 59520, Note_on_c, 2, 65, 80
4, 61328, Note_on_c, 2, 65, 0
4, 61329, End_track
5, 0, Start_track
5, 0, Title_t, "Instrument_04\000"
5, 0, Key_signature, 0, "major"
5, 0, Control_c, 3, 121, 0
5, 0, Program_c, 3, 50
5, 0, Control_c, 3, 7, 100
5, 0, Control_c, 3, 10, 64
5, 0, Control_c, 3, 91, 0
5, 0, Control_c, 3, 93, 0
5, 0, MIDI_port, 0
5, 0, Note_on_c, 3, 70, 80
5, 1823, Note_on_c, 3, 70, 0
5, 1920, Note_on_c, 3, 70, 80
5, 3743, Note_on_c, 3, 70, 0
5, 3840, Note_on_c, 3, 70, 80
5, 5663, Note_on_c, 3, 70, 0
5, 5760, Note_on_c, 3, 70, 80
5, 7583, Note_on_c, 3, 70, 0
5, 7680, Note_on_c, 3, 70, 80
5, 9503, Note_on_c, 3, 70, 0
5, 9600, Note_on_c, 3, 70, 80
5, 11423, Note_on_c, 3, 70, 0
5, 11520, Note_on_c, 3, 70, 80
5, 13343, Note_on_c, 3, 70, 0
5, 13440, Note_on_c, 3, 70, 80
5, 15263, Note_on_c, 3, 70, 0
5, 15360, Note_on_c, 3, 63, 80
5, 17183, Note_on_c, 3, 63, 0
5, 17280, Note_on_c, 3, 63, 80
5, 19103, Note_on_c, 3, 63, 0
5, 19200, Note_on_c, 3, 63, 80
5, 21023, Note_on_c, 3, 63, 0
5, 21120, Note_on_c, 3, 63, 80
5, 22943, Note_on_c, 3, 63, 0
5, 23040, Note_on_c, 3, 63, 80
5, 24863, Note_on_c, 3, 63, 0
5, 24960, Note_on_c, 3, 63, 80
5, 26783, Note_on_c, 3, 63, 0
5, 26880, Note_on_c, 3, 63, 80
5, 28703, Note_on_c, 3, 63, 0
5, 28800, Note_on_c, 3, 63, 80
5, 30623, Note_on_c, 3, 63, 0
5, 30720, Note_on_c, 3, 70, 80
5, 32543, Note_on_c, 3, 70, 0
5, 32640, Note_on_c, 3, 70, 80
5, 34463, Note_on_c, 3, 70, 0
5, 34560, Note_on_c, 3, 70, 80
5, 36383, Note_on_c, 3, 70, 0
5, 36480, Note_on_c, 3, 70, 80
5, 38303, Note_on_c, 3, 70, 0
5, 38400, Note_on_c, 3, 70, 80
5, 40223, Note_on_c, 3, 70, 0
5, 40320, Note_on_c, 3, 70, 80
5, 42143, Note_on_c, 3, 70, 0
5, 42240, Note_on_c, 3, 70, 80
5, 44063, Note_on_c, 3, 70, 0
5, 44160, Note_on_c, 3, 70, 80
5, 45983, Note_on_c, 3, 70, 0
5, 46080, Note_on_c, 3, 63, 80
5, 47903, Note_on_c, 3, 63, 0
5, 48000, Note_on_c, 3, 63, 80
5, 49823, Note_on_c, 3, 63, 0
5, 49920, Note_on_c, 3, 63, 80
5, 51743, Note_on_c, 3, 63, 0
5, 51840, Note_on_c, 3, 63, 80
5, 53663, Note_on_c, 3, 63, 0
5, 53760, Note_on_c, 3, 63, 80
5, 55583, Note_on_c, 3, 63, 0
5, 55680, Note_on_c, 3, 63, 80
5, 57503, Note_on_c, 3, 63, 0
5, 57600, Note_on_c, 3, 63, 80
5, 59423, Note_on_c, 3, 63, 0
5, 59520, Note_on_c, 3, 63, 80
5, 61328, Note_on_c, 3, 63, 0
5, 61329, End_track
6, 0, Start_track
6, 0, Title_t, "Instrument_05\000"
6, 0, Key_signature, 0, "major"
6, 0, Control_c, 4, 121, 0
6, 0, Program_c, 4, 50
6, 0, Control_c, 4, 7, 100
6, 0, Control_c, 4, 10, 64
6, 0, Control_c, 4, 91, 0
6, 0, Control_c, 4, 93, 0
6, 0, MIDI_port, 0
6, 0, Note_on_c, 4, 66, 80
6, 1823, Note_on_c, 4, 66, 0
6, 1920, Note_on_c, 4, 64, 80
6, 3743, Note_on_c, 4, 64, 0
6, 3840, Note_on_c, 4, 66, 80
6, 5663, Note_on_c, 4, 66, 0
6, 5760, Note_on_c, 4, 67, 80
6, 7583, Note_on_c, 4, 67, 0
6, 7680, Note_on_c, 4, 66, 80
6, 9503, Note_on_c, 4, 66, 0
6, 9600, Note_on_c, 4, 64, 80
6, 11423, Note_on_c, 4, 64, 0
6, 11520, Note_on_c, 4, 66, 80
6, 13343, Note_on_c, 4, 66, 0
6, 13440, Note_on_c, 4, 67, 80
6, 15263, Note_on_c, 4, 67, 0
6, 15360, Note_on_c, 4, 59, 80
6, 17183, Note_on_c, 4, 59, 0
6, 17280, Note_on_c, 4, 57, 80
6, 19103, Note_on_c, 4, 57, 0
6, 19200, Note_on_c, 4, 59, 80
6, 21023, Note_on_c, 4, 59, 0
6, 21120, Note_on_c, 4, 60, 80
6, 22943, Note_on_c, 4, 60, 0
6, 23040, Note_on_c, 4, 59, 80
6, 24863, Note_on_c, 4, 59, 0
6, 24960, Note_on_c, 4, 57, 80
6, 26783, Note_on_c, 4, 57, 0
6, 26880, Note_on_c, 4, 59, 80
6, 28703, Note_on_c, 4, 59, 0
6, 28800, Note_on_c, 4, 60, 80
6, 30623, Note_on_c, 4, 60, 0
6, 30720, Note_on_c, 4, 66, 80
6, 32543, Note_on_c, 4, 66, 0
6, 32640, Note_on_c, 4, 64, 80
6, 34463, Note_on_c, 4, 64, 0
6, 34560, Note_on_c, 4, 66, 80
6, 36383, Note_on_c, 4, 66, 0
6, 36480, Note_on_c, 4, 67, 80
6, 38303, Note_on_c, 4, 67, 0
6, 38400, Note_on_c, 4, 66, 80
6, 40223, Note_on_c, 4, 66, 0
6, 40320, Note_on_c, 4, 64, 80
6, 42143, Note_on_c, 4, 64, 0
6, 42240, Note_on_c, 4, 66, 80
6, 44063, Note_on_c, 4, 66, 0
6, 44160, Note_on_c, 4, 67, 80
6, 45983, Note_on_c, 4, 67, 0
6, 46080, Note_on_c, 4, 59, 80
6, 47903, Note_on_c, 4, 59, 0
6, 48000, Note_on_c, 4, 57, 80
6, 49823, Note_on_c, 4, 57, 0
6, 49920, Note_on_c, 4, 59, 80
6, 51743, Note_on_c, 4, 59, 0
6, 51840, Note_on_c, 4, 60, 80
6, 53663, Note_on_c, 4, 60, 0
6, 53760, Note_on_c, 4, 59, 80
6, 55583, Note_on_c, 4, 59, 0
6, 55680, Note_on_c, 4, 57, 80
6, 57503, Note_on_c, 4, 57, 0
6, 57600, Note_on_c, 4, 59, 80
6, 59423, Note_on_c, 4, 59, 0
6, 59520, Note_on_c, 4, 60, 80
6, 61328, Note_on_c, 4, 60, 0
6, 61329, End_track
0, 0, End_of_file