,note_name,start_time,duration,velocity,tempo
0,E-2,0,47,80,144
1,F#5,0,299,80,144
2,E-2,50,47,80,144
3,E-3,100,47,80,144
4,B-2,100,47,80,144
5,E-2,150,47,80,144
6,E-2,200,47,80,144
7,E-3,250,47,80,144
8,B-2,250,47,80,144
9,E3,300,47,80,144
10,A2,300,47,80,144
11,G5,300,99,80,144
12,E-2,350,47,80,144
13,E-2,400,47,80,144
14,F#5,400,299,80,144
15,E-2,450,47,80,144
16,E-3,500,47,80,144
17,B-2,500,47,80,144
18,E-2,550,47,80,144
19,E-2,600,47,80,144
20,E-3,650,47,80,144
21,B-2,650,47,80,144
22,E3,700,47,80,144
23,A2,700,47,80,144
24,G5,700,99,80,144
25,E-2,750,47,80,144
26,E-2,800,47,80,144
27,F#5,800,299,80,144
28,E-2,850,47,80,144
29,E-3,900,47,80,144
30,B-2,900,47,80,144
31,E-2,950,47,80,144
32,E-2,1000,47,80,144
33,E-3,1050,47,80,144
34,B-2,1050,47,80,144
35,E3,1100,47,80,144
36,A2,1100,47,80,144
37,G5,1100,99,80,144
38,E-2,1150,47,80,144
39,E-2,1200,47,80,144
40,F#5,1200,379,80,144
41,E-2,1250,47,80,144
42,E-3,1300,47,80,144
43,B-2,1300,47,80,144
44,E-2,1350,47,80,144
45,E-2,1400,47,80,144
46,E-3,1450,47,80,144
47,B-2,1450,47,80,144
48,E3,1500,94,80,144
49,A2,1500,23,80,144
50,E2,1525,23,80,144
51,C2,1550,23,80,144
52,A1,1575,23,80,144
53,G#1,1600,47,80,144
54,B5,1600,299,80,144
55,G#1,1650,47,80,144
56,G#2,1700,47,80,144
57,E-2,1700,47,80,144
58,G#1,1750,47,80,144
59,G#1,1800,47,80,144
60,G#2,1850,47,80,144
61,E-2,1850,47,80,144
62,A2,1900,47,80,144
63,D2,1900,47,80,144
64,C6,1900,99,80,144
65,G#1,1950,47,80,144
66,G#1,2000,47,80,144
67,B5,2000,299,80,144
68,G#1,2050,47,80,144
69,G#2,2100,47,80,144
70,E-2,2100,47,80,144
71,G#1,2150,47,80,144
72,G#1,2200,47,80,144
73,G#2,2250,47,80,144
74,E-2,2250,47,80,144
75,A2,2300,47,80,144
76,D2,2300,47,80,144
77,C6,2300,99,80,144
78,G#1,2350,47,80,144
79,G#1,2400,47,80,144
80,B5,2400,299,80,144
81,G#1,2450,47,80,144
82,G#2,2500,47,80,144
83,E-2,2500,47,80,144
84,G#1,2550,47,80,144
85,G#1,2600,47,80,144
86,G#2,2650,47,80,144
87,E-2,2650,47,80,144
88,A2,2700,47,80,144
89,D2,2700,47,80,144
90,C6,2700,99,80,144
91,G#1,2750,47,80,144
92,G#1,2800,47,80,144
93,B5,2800,379,80,144
94,G#1,2850,47,80,144
95,G#2,2900,47,80,144
96,E-2,2900,47,80,144
97,G#1,2950,47,80,144
98,G#1,3000,47,80,144
99,G#2,3050,47,80,144
100,E-2,3050,47,80,144
101,A2,3100,94,80,144
102,D2,3100,23,80,144
103,F2,3125,23,80,144
104,E-2,3150,23,80,144
105,D2,3175,23,80,144
106,E-2,3200,47,80,144
107,F#5,3200,299,80,144
108,E-2,3250,47,80,144
109,E-3,3300,47,80,144
110,B-2,3300,47,80,144
111,E-2,3350,47,80,144
112,E-2,3400,47,80,144
113,E-3,3450,47,80,144
114,B-2,3450,47,80,144
115,E3,3500,47,80,144
116,A2,3500,47,80,144
117,G5,3500,99,80,144
118,E-2,3550,47,80,144
119,E-2,3600,47,80,144
120,F#5,3600,299,80,144
121,E-2,3650,47,80,144
122,E-3,3700,47,80,144
123,B-2,3700,47,80,144
124,E-2,3750,47,80,144
125,E-2,3800,47,80,144
126,E-3,3850,47,80,144
127,B-2,3850,47,80,144
128,E3,3900,47,80,144
129,A2,3900,47,80,144
130,G5,3900,99,80,144
131,E-2,3950,47,80,144
132,E-2,4000,47,80,144
133,F#5,4000,299,80,144
134,E-2,4050,47,80,144
135,E-3,4100,47,80,144
136,B-2,4100,47,80,144
137,E-2,4150,47,80,144
138,E-2,4200,47,80,144
139,E-3,4250,47,80,144
140,B-2,4250,47,80,144
141,E3,4300,47,80,144
142,A2,4300,47,80,144
143,G5,4300,99,80,144
144,E-2,4350,47,80,144
145,E-2,4400,47,80,144
146,F#5,4400,379,80,144
147,E-2,4450,47,80,144
148,E-3,4500,47,80,144
149,B-2,4500,47,80,144
150,E-2,4550,47,80,144
151,E-2,4600,47,80,144
152,E-3,4650,47,80,144
153,B-2,4650,47,80,144
154,E3,4700,94,80,144
155,A2,4700,23,80,144
156,E2,4725,23,80,144
157,C2,4750,23,80,144
158,B1,4775,23,80,144
159,B-1,4800,47,80,144
160,C#5,4800,299,80,144
161,B-1,4850,47,80,144
162,B-2,4900,47,80,144
163,F2,4900,47,80,144
164,B-1,4950,47,80,144
165,B-1,5000,47,80,144
166,B-2,5050,47,80,144
167,F2,5050,47,80,144
168,B2,5100,47,80,144
169,E2,5100,47,80,144
170,D5,5100,99,80,144
171,B-1,5150,47,80,144
172,B-1,5200,47,80,144
173,C#5,5200,299,80,144
174,B-1,5250,47,80,144
175,B-2,5300,47,80,144
176,F2,5300,47,80,144
177,B-1,5350,47,80,144
178,B-1,5400,47,80,144
179,B-2,5450,47,80,144
180,F2,5450,47,80,144
181,B2,5500,47,80,144
182,E2,5500,47,80,144
183,D5,5500,99,80,144
184,B-1,5550,47,80,144
185,B-1,5600,47,80,144
186,C#5,5600,299,80,144
187,B-1,5650,47,80,144
188,B-2,5700,47,80,144
189,F2,5700,47,80,144
190,B-1,5750,47,80,144
191,B-1,5800,47,80,144
192,B-2,5850,47,80,144
193,F2,5850,47,80,144
194,B2,5900,47,80,144
195,E2,5900,47,80,144
196,D5,5900,94,80,144
197,B-1,5950,47,80,144
198,B-1,6000,47,80,144
199,C#5,6000,99,80,144
200,B-1,6050,47,80,144
201,B-2,6100,47,80,144
202,F2,6100,47,80,144
203,E-5,6100,99,80,144
204,B-1,6150,47,80,144
205,B-1,6200,47,80,144
206,F5,6200,99,80,144
207,B-2,6250,47,80,144
208,F2,6250,47,80,144
209,B2,6300,94,80,144
210,E2,6300,23,80,144
211,G5,6300,94,80,144
212,G2,6325,23,80,144
213,F#2,6350,23,80,144
214,F2,6375,23,80,144
215,E2,6400,47,80,144
216,G5,6400,399,80,144
217,B2,6450,47,80,144
218,E2,6450,47,80,144
219,C3,6500,47,80,144
220,E2,6500,47,80,144
221,E2,6550,47,80,144
222,D3,6600,47,80,144
223,E2,6600,47,80,144
224,C3,6650,47,80,144
225,E2,6650,47,80,144
226,E2,6700,47,80,144
227,B2,6750,47,80,144
228,E2,6750,47,80,144
229,D2,6800,47,80,144
230,F5,6800,399,80,144
231,A2,6850,47,80,144
232,D2,6850,47,80,144
233,B-2,6900,47,80,144
234,D2,6900,47,80,144
235,D2,6950,47,80,144
236,C3,7000,47,80,144
237,D2,7000,47,80,144
238,B-2,7050,47,80,144
239,D2,7050,47,80,144
240,D2,7100,47,80,144
241,A2,7150,47,80,144
242,D2,7150,47,80,144
243,C2,7200,47,80,144
244,E-5,7200,399,80,144
245,G2,7250,47,80,144
246,C2,7250,47,80,144
247,G#2,7300,47,80,144
248,C2,7300,47,80,144
249,C2,7350,47,80,144
250,B-2,7400,47,80,144
251,C2,7400,47,80,144
252,G#2,7450,47,80,144
253,C2,7450,47,80,144
254,C2,7500,47,80,144
255,G2,7550,47,80,144
256,C2,7550,47,80,144
257,B-1,7600,47,80,144
258,C#5,7600,199,80,144
259,F2,7650,47,80,144
260,B-1,7650,47,80,144
261,F#2,7700,47,80,144
262,B-1,7700,47,80,144
263,B-1,7750,47,80,144
264,G#2,7800,47,80,144
265,B-1,7800,47,80,144
266,E-5,7800,99,80,144
267,B-2,7850,47,80,144
268,B-1,7850,47,80,144
269,B-1,7900,47,80,144
270,F5,7900,94,80,144
271,F2,7950,47,80,144
272,B-1,7950,47,80,144
273,E2,8000,47,80,144
274,G5,8000,399,80,144
275,B2,8050,47,80,144
276,E2,8050,47,80,144
277,B3,8050,47,80,144
278,C3,8100,47,80,144
279,E2,8100,47,80,144
280,C4,8100,47,80,144
281,E2,8150,47,80,144
282,D3,8200,47,80,144
283,E2,8200,47,80,144
284,D4,8200,47,80,144
285,C3,8250,47,80,144
286,E2,8250,47,80,144
287,C4,8250,47,80,144
288,E2,8300,47,80,144
289,B2,8350,47,80,144
290,E2,8350,47,80,144
291,B3,8350,47,80,144
292,D2,8400,47,80,144
293,F5,8400,399,80,144
294,A2,8450,47,80,144
295,D2,8450,47,80,144
296,A3,8450,47,80,144
297,B-2,8500,47,80,144
298,D2,8500,47,80,144
299,B-3,8500,47,80,144
300,D2,8550,47,80,144
301,C3,8600,47,80,144
302,D2,8600,47,80,144
303,C4,8600,47,80,144
304,B-2,8650,47,80,144
305,D2,8650,47,80,144
306,B-3,8650,47,80,144
307,D2,8700,47,80,144
308,A2,8750,47,80,144
309,D2,8750,47,80,144
310,A3,8750,47,80,144
311,C2,8800,47,80,144
312,E-5,8800,399,80,144
313,G2,8850,47,80,144
314,C2,8850,47,80,144
315,G3,8850,47,80,144
316,G#2,8900,47,80,144
317,C2,8900,47,80,144
318,G#3,8900,47,80,144
319,C2,8950,47,80,144
320,B-2,9000,47,80,144
321,C2,9000,47,80,144
322,B-3,9000,47,80,144
323,G#2,9050,47,80,144
324,C2,9050,47,80,144
325,G#3,9050,47,80,144
326,C2,9100,47,80,144
327,G2,9150,47,80,144
328,C2,9150,47,80,144
329,G3,9150,47,80,144
330,B-1,9200,47,80,144
331,C#5,9200,379,80,144
332,F2,9250,47,80,144
333,B-1,9250,47,80,144
334,F3,9250,47,80,144
335,F#2,9300,47,80,144
336,B-1,9300,47,80,144
337,F#3,9300,47,80,144
338,B-1,9350,47,80,144
339,G#2,9400,47,80,144
340,B-1,9400,47,80,144
341,G#3,9400,47,80,144
342,B-2,9450,47,80,144
343,B-1,9450,47,80,144
344,B-3,9450,47,80,144
345,B-1,9500,47,80,144
346,F2,9550,47,80,144
347,B-1,9550,47,80,144
348,F4,9550,49,80,144
349,F3,9550,47,80,144
350,E2,9600,47,80,144
351,G5,9600,399,80,144
352,G4,9600,284,80,144
353,B2,9650,47,80,144
354,E2,9650,47,80,144
355,B3,9650,47,80,144
356,C3,9700,47,80,144
357,E2,9700,47,80,144
358,C4,9700,47,80,144
359,E2,9750,47,80,144
360,D3,9800,47,80,144
361,E2,9800,47,80,144
362,D4,9800,47,80,144
363,C3,9850,47,80,144
364,E2,9850,47,80,144
365,C4,9850,47,80,144
366,E2,9900,47,80,144
367,B2,9950,47,80,144
368,E2,9950,47,80,144
369,G4,9950,49,80,144
370,B3,9950,47,80,144
371,D2,10000,47,80,144
372,F5,10000,399,80,144
373,A4,10000,284,80,144
374,A2,10050,47,80,144
375,D2,10050,47,80,144
376,A3,10050,47,80,144
377,B-2,10100,47,80,144
378,D2,10100,47,80,144
379,B-3,10100,47,80,144
380,D2,10150,47,80,144
381,C3,10200,47,80,144
382,D2,10200,47,80,144
383,C4,10200,47,80,144
384,B-2,10250,47,80,144
385,D2,10250,47,80,144
386,B-3,10250,47,80,144
387,D2,10300,47,80,144
388,A2,10350,47,80,144
389,D2,10350,47,80,144
390,A4,10350,24,80,144
391,A3,10350,47,80,144
392,B-4,10375,24,80,144
393,C2,10400,47,80,144
394,E-5,10400,399,80,144
395,C5,10400,284,80,144
396,G2,10450,47,80,144
397,C2,10450,47,80,144
398,G3,10450,47,80,144
399,G#2,10500,47,80,144
400,C2,10500,47,80,144
401,G#3,10500,47,80,144
402,C2,10550,47,80,144
403,B-2,10600,47,80,144
404,C2,10600,47,80,144
405,B-3,10600,47,80,144
406,G#2,10650,47,80,144
407,C2,10650,47,80,144
408,G#3,10650,47,80,144
409,C2,10700,47,80,144
410,G2,10750,47,80,144
411,C2,10750,47,80,144
412,C5,10750,49,80,144
413,G3,10750,47,80,144
414,B-1,10800,47,80,144
415,C#5,10800,379,80,144
416,C#5,10800,284,80,144
417,F2,10850,47,80,144
418,B-1,10850,47,80,144
419,F3,10850,47,80,144
420,F#2,10900,47,80,144
421,B-1,10900,47,80,144
422,F#3,10900,47,80,144
423,B-1,10950,47,80,144
424,G#2,11000,47,80,144
425,B-1,11000,47,80,144
426,G#3,11000,47,80,144
427,B-2,11050,47,80,144
428,B-1,11050,47,80,144
429,B-3,11050,47,80,144
430,B-1,11100,47,80,144
431,C5,11100,19,80,144
432,B4,11120,19,80,144
433,B-4,11140,19,80,144
434,F2,11150,47,80,144
435,B-1,11150,47,80,144
436,F3,11150,47,80,144
437,A4,11160,19,80,144
438,G#4,11180,19,80,144
439,E2,11200,47,80,144
440,G5,11200,399,80,144
441,G4,11200,284,80,144
442,B2,11250,47,80,144
443,E2,11250,47,80,144
444,B3,11250,47,80,144
445,C3,11300,47,80,144
446,E2,11300,47,80,144
447,C4,11300,47,80,144
448,E2,11350,47,80,144
449,D3,11400,47,80,144
450,E2,11400,47,80,144
451,D4,11400,47,80,144
452,C3,11450,47,80,144
453,E2,11450,47,80,144
454,C4,11450,47,80,144
455,E2,11500,47,80,144
456,B2,11550,47,80,144
457,E2,11550,47,80,144
458,G4,11550,49,80,144
459,B3,11550,47,80,144
460,D2,11600,47,80,144
461,F5,11600,399,80,144
462,A4,11600,284,80,144
463,A2,11650,47,80,144
464,D2,11650,47,80,144
465,A3,11650,47,80,144
466,B-2,11700,47,80,144
467,D2,11700,47,80,144
468,B-3,11700,47,80,144
469,D2,11750,47,80,144
470,C3,11800,47,80,144
471,D2,11800,47,80,144
472,C4,11800,47,80,144
473,B-2,11850,47,80,144
474,D2,11850,47,80,144
475,B-3,11850,47,80,144
476,D2,11900,47,80,144
477,A2,11950,47,80,144
478,D2,11950,47,80,144
479,A4,11950,24,80,144
480,A3,11950,47,80,144
481,B-4,11975,24,80,144
482,C2,12000,47,80,144
483,E-5,12000,399,80,144
484,C5,12000,284,80,144
485,G2,12050,47,80,144
486,C2,12050,47,80,144
487,G3,12050,47,80,144
488,G#2,12100,47,80,144
489,C2,12100,47,80,144
490,G#3,12100,47,80,144
491,C2,12150,47,80,144
492,B-2,12200,47,80,144
493,C2,12200,47,80,144
494,B-3,12200,47,80,144
495,G#2,12250,47,80,144
496,C2,12250,47,80,144
497,G#3,12250,47,80,144
498,C2,12300,47,80,144
499,G2,12350,47,80,144
500,C2,12350,47,80,144
501,C5,12350,49,80,144
502,G3,12350,47,80,144
503,B-1,12400,47,80,144
504,C#5,12400,199,80,144
505,C#5,12400,284,80,144
506,F2,12450,47,80,144
507,B-1,12450,47,80,144
508,F3,12450,47,80,144
509,F#2,12500,47,80,144
510,B-1,12500,47,80,144
511,F#3,12500,47,80,144
512,B-1,12550,47,80,144
513,G#2,12600,47,80,144
514,B-1,12600,47,80,144
515,E-5,12600,99,80,144
516,G#3,12600,47,80,144
517,B-2,12650,47,80,144
518,B-1,12650,47,80,144
519,B-3,12650,47,80,144
520,B-1,12700,47,80,144
521,F5,12700,94,80,144
522,C#5,12700,33,80,144
523,C5,12733,33,80,144
524,B-1,12750,47,80,144
525,B4,12766,31,80,144
526,E-3,12800,47,80,144
527,E-2,12800,47,80,144
528,F#5,12800,299,80,144
529,B-4,12800,284,80,144
530,E-4,12800,47,80,144
531,E-2,12850,47,80,144
532,E-3,12900,47,80,144
533,B-2,12900,47,80,144
534,E-4,12900,47,80,144
535,E-2,12950,47,80,144
536,E-2,13000,47,80,144
537,E-3,13050,47,80,144
538,B-2,13050,47,80,144
539,E-4,13050,47,80,144
540,E3,13100,47,80,144
541,A2,13100,47,80,144
542,G5,13100,99,80,144
543,A4,13100,94,80,144
544,E4,13100,47,80,144
545,E-2,13150,47,80,144
546,E-3,13200,16,80,144
547,E-2,13200,47,80,144
548,F#5,13200,299,80,144
549,B-4,13200,284,80,144
550,E-4,13200,16,80,144
551,E-3,13233,16,80,144
552,E-4,13233,16,80,144
553,E-2,13250,47,80,144
554,E-3,13266,16,80,144
555,E-4,13266,16,80,144
556,E-3,13300,47,80,144
557,B-2,13300,47,80,144
558,E-4,13300,47,80,144
559,E-2,13350,47,80,144
560,E-2,13400,47,80,144
561,E-3,13450,47,80,144
562,B-2,13450,47,80,144
563,E-4,13450,47,80,144
564,E3,13500,47,80,144
565,A2,13500,47,80,144
566,G5,13500,99,80,144
567,A4,13500,94,80,144
568,E4,13500,47,80,144
569,E-2,13550,47,80,144
570,E-3,13600,47,80,144
571,E-2,13600,47,80,144
572,F#5,13600,299,80,144
573,B-4,13600,284,80,144
574,E-4,13600,47,80,144
575,E-2,13650,47,80,144
576,E-3,13700,47,80,144
577,B-2,13700,47,80,144
578,E-4,13700,47,80,144
579,E-2,13750,47,80,144
580,E-2,13800,47,80,144
581,E-3,13850,47,80,144
582,B-2,13850,47,80,144
583,E-4,13850,47,80,144
584,E3,13900,47,80,144
585,A2,13900,47,80,144
586,G5,13900,99,80,144
587,A4,13900,94,80,144
588,E4,13900,47,80,144
589,E-2,13950,47,80,144
590,E-3,14000,16,80,144
591,E-2,14000,47,80,144
592,F#5,14000,379,80,144
593,B-4,14000,379,80,144
594,E-4,14000,16,80,144
595,E-3,14033,16,80,144
596,E-4,14033,16,80,144
597,E-2,14050,47,80,144
598,E-3,14066,16,80,144
599,E-4,14066,16,80,144
600,E-3,14100,47,80,144
601,B-2,14100,47,80,144
602,E-4,14100,47,80,144
603,E-2,14150,47,80,144
604,E-2,14200,47,80,144
605,E-3,14250,47,80,144
606,B-2,14250,47,80,144
607,E-4,14250,47,80,144
608,E3,14300,94,80,144
609,A2,14300,23,80,144
610,E4,14300,94,80,144
611,E2,14325,23,80,144
612,C2,14350,23,80,144
613,A1,14375,23,80,144
614,G#3,14400,47,80,144
615,G#1,14400,47,80,144
616,B5,14400,299,80,144
617,E-5,14400,299,80,144
618,G#4,14400,47,80,144
619,G#1,14450,47,80,144
620,G#3,14500,47,80,144
621,E-2,14500,47,80,144
622,G#4,14500,47,80,144
623,G#1,14550,47,80,144
624,G#1,14600,47,80,144
625,G#3,14650,47,80,144
626,E-2,14650,47,80,144
627,G#4,14650,47,80,144
628,A3,14700,47,80,144
629,D2,14700,47,80,144
630,C6,14700,99,80,144
631,D5,14700,99,80,144
632,A4,14700,47,80,144
633,G#1,14750,47,80,144
634,G#3,14800,16,80,144
635,G#1,14800,47,80,144
636,B5,14800,299,80,144
637,E-5,14800,299,80,144
638,G#4,14800,16,80,144
639,G#3,14833,16,80,144
640,G#4,14833,16,80,144
641,G#1,14850,47,80,144
642,G#3,14866,16,80,144
643,G#4,14866,16,80,144
644,G#3,14900,47,80,144
645,E-2,14900,47,80,144
646,G#4,14900,47,80,144
647,G#1,14950,47,80,144
648,G#1,15000,47,80,144
649,G#3,15050,47,80,144
650,E-2,15050,47,80,144
651,G#4,15050,47,80,144
652,A3,15100,47,80,144
653,D2,15100,47,80,144
654,C6,15100,99,80,144
655,D5,15100,99,80,144
656,A4,15100,47,80,144
657,G#1,15150,47,80,144
658,G#3,15200,47,80,144
659,G#1,15200,47,80,144
660,B5,15200,299,80,144
661,E-5,15200,299,80,144
662,G#4,15200,47,80,144
663,G#1,15250,47,80,144
664,G#3,15300,47,80,144
665,E-2,15300,47,80,144
666,G#4,15300,47,80,144
667,G#1,15350,47,80,144
668,G#1,15400,47,80,144
669,G#3,15450,47,80,144
670,E-2,15450,47,80,144
671,G#4,15450,47,80,144
672,A3,15500,47,80,144
673,D2,15500,47,80,144
674,C6,15500,99,80,144
675,D5,15500,99,80,144
676,A4,15500,47,80,144
677,G#1,15550,47,80,144
678,G#3,15600,16,80,144
679,G#1,15600,47,80,144
680,B5,15600,379,80,144
681,E-5,15600,379,80,144
682,G#4,15600,16,80,144
683,G#3,15633,16,80,144
684,G#4,15633,16,80,144
685,G#1,15650,47,80,144
686,G#3,15666,16,80,144
687,G#4,15666,16,80,144
688,G#3,15700,47,80,144
689,E-2,15700,47,80,144
690,G#4,15700,47,80,144
691,G#1,15750,47,80,144
692,G#1,15800,47,80,144
693,G#3,15850,47,80,144
694,E-2,15850,47,80,144
695,G#4,15850,47,80,144
696,A3,15900,94,80,144
697,D2,15900,23,80,144
698,A4,15900,94,80,144
699,F2,15925,23,80,144
700,E-2,15950,23,80,144
701,D2,15975,23,80,144
702,E-3,16000,47,80,144
703,E-2,16000,47,80,144
704,F#5,16000,299,80,144
705,B-4,16000,299,80,144
706,E-4,16000,47,80,144
707,E-2,16050,47,80,144
708,E-3,16100,47,80,144
709,B-2,16100,47,80,144
710,E-4,16100,47,80,144
711,E-2,16150,47,80,144
712,E-2,16200,47,80,144
713,E-3,16250,47,80,144
714,B-2,16250,47,80,144
715,E-4,16250,47,80,144
716,E3,16300,47,80,144
717,A2,16300,47,80,144
718,G5,16300,99,80,144
719,A4,16300,99,80,144
720,E4,16300,47,80,144
721,E-2,16350,47,80,144
722,E-3,16400,16,80,144
723,E-2,16400,47,80,144
724,F#5,16400,299,80,144
725,B-4,16400,299,80,144
726,E-4,16400,16,80,144
727,E-3,16433,16,80,144
728,E-4,16433,16,80,144
729,E-2,16450,47,80,144
730,E-3,16466,16,80,144
731,E-4,16466,16,80,144
732,E-3,16500,47,80,144
733,B-2,16500,47,80,144
734,E-4,16500,47,80,144
735,E-2,16550,47,80,144
736,E-2,16600,47,80,144
737,E-3,16650,47,80,144
738,B-2,16650,47,80,144
739,E-4,16650,47,80,144
740,E3,16700,47,80,144
741,A2,16700,47,80,144
742,G5,16700,99,80,144
743,A4,16700,99,80,144
744,E4,16700,47,80,144
745,E-2,16750,47,80,144
746,E-3,16800,47,80,144
747,E-2,16800,47,80,144
748,F#5,16800,299,80,144
749,B-4,16800,299,80,144
750,E-4,16800,47,80,144
751,E-2,16850,47,80,144
752,E-3,16900,47,80,144
753,B-2,16900,47,80,144
754,E-4,16900,47,80,144
755,E-2,16950,47,80,144
756,E-2,17000,47,80,144
757,E-3,17050,47,80,144
758,B-2,17050,47,80,144
759,E-4,17050,47,80,144
760,E3,17100,47,80,144
761,A2,17100,47,80,144
762,G5,17100,99,80,144
763,A4,17100,99,80,144
764,E4,17100,47,80,144
765,E-2,17150,47,80,144
766,E-3,17200,16,80,144
767,E-2,17200,47,80,144
768,F#5,17200,379,80,144
769,B-4,17200,379,80,144
770,E-4,17200,16,80,144
771,E-3,17233,16,80,144
772,E-4,17233,16,80,144
773,E-2,17250,47,80,144
774,E-3,17266,16,80,144
775,E-4,17266,16,80,144
776,E-3,17300,47,80,144
777,B-2,17300,47,80,144
778,E-4,17300,47,80,144
779,E-2,17350,47,80,144
780,E-2,17400,47,80,144
781,E-3,17450,47,80,144
782,B-2,17450,47,80,144
783,E-4,17450,47,80,144
784,E3,17500,94,80,144
785,A2,17500,23,80,144
786,E4,17500,94,80,144
787,E2,17525,23,80,144
788,C2,17550,23,80,144
789,B1,17575,23,80,144
790,B-2,17600,47,80,144
791,B-1,17600,47,80,144
792,C#5,17600,299,80,144
793,F4,17600,299,80,144
794,B-3,17600,47,80,144
795,B-1,17650,47,80,144
796,B-2,17700,47,80,144
797,F2,17700,47,80,144
798,B-3,17700,47,80,144
799,B-1,17750,47,80,144
800,B-1,17800,47,80,144
801,B-2,17850,47,80,144
802,F2,17850,47,80,144
803,B-3,17850,47,80,144
804,B2,17900,47,80,144
805,E2,17900,47,80,144
806,D5,17900,99,80,144
807,E4,17900,99,80,144
808,B3,17900,47,80,144
809,B-1,17950,47,80,144
810,B-2,18000,16,80,144
811,B-1,18000,47,80,144
812,C#5,18000,299,80,144
813,F4,18000,299,80,144
814,B-3,18000,16,80,144
815,B-2,18033,16,80,144
816,B-3,18033,16,80,144
817,B-1,18050,47,80,144
818,B-2,18066,16,80,144
819,B-3,18066,16,80,144
820,B-2,18100,47,80,144
821,F2,18100,47,80,144
822,B-3,18100,47,80,144
823,B-1,18150,47,80,144
824,B-1,18200,47,80,144
825,B-2,18250,47,80,144
826,F2,18250,47,80,144
827,B-3,18250,47,80,144
828,B2,18300,47,80,144
829,E2,18300,47,80,144
830,D5,18300,99,80,144
831,E4,18300,99,80,144
832,B3,18300,47,80,144
833,B-1,18350,47,80,144
834,B-2,18400,47,80,144
835,B-1,18400,47,80,144
836,C#5,18400,299,80,144
837,F4,18400,299,80,144
838,B-3,18400,47,80,144
839,B-1,18450,47,80,144
840,B-2,18500,47,80,144
841,F2,18500,47,80,144
842,B-3,18500,47,80,144
843,B-1,18550,47,80,144
844,B-1,18600,47,80,144
845,B-2,18650,47,80,144
846,F2,18650,47,80,144
847,B-3,18650,47,80,144
848,B2,18700,47,80,144
849,E2,18700,47,80,144
850,D5,18700,99,80,144
851,E4,18700,99,80,144
852,B3,18700,47,80,144
853,B-1,18750,47,80,144
854,B-2,18800,16,80,144
855,B-1,18800,47,80,144
856,C#5,18800,284,80,144
857,F4,18800,284,80,144
858,B-3,18800,16,80,144
859,B-2,18833,16,80,144
860,B-3,18833,16,80,144
861,B-1,18850,47,80,144
862,B-2,18866,16,80,144
863,B-3,18866,16,80,144
864,B-2,18900,47,80,144
865,F2,18900,47,80,144
866,B-3,18900,47,80,144
867,B-1,18950,47,80,144
868,B-1,19000,47,80,144
869,B-2,19050,47,80,144
870,F2,19050,47,80,144
871,B-3,19050,47,80,144
872,B2,19100,94,80,144
873,E2,19100,23,80,144
874,B3,19100,94,80,144
875,G2,19125,23,80,144
876,F#2,19150,23,80,144
877,F2,19175,23,80,144
878,B2,19200,189,80,144
879,E2,19200,47,80,144
880,B4,19200,400,80,144
881,G4,19200,400,80,144
882,B3,19200,189,80,144
883,E2,19250,47,80,144
884,E2,19300,47,80,144
885,E2,19350,47,80,144
886,C#3,19400,189,80,144
887,E2,19400,47,80,144
888,C#4,19400,189,80,144
889,E2,19450,47,80,144
890,E2,19500,47,80,144
891,E2,19550,47,80,144
892,D3,19600,189,80,144
893,E2,19600,47,80,144
894,B4,19600,359,80,144
895,G4,19600,359,80,144
896,D4,19600,189,80,144
897,E2,19650,47,80,144
898,E2,19700,47,80,144
899,E2,19750,47,80,144
900,C#3,19800,94,80,144
901,E2,19800,47,80,144
902,C#4,19800,94,80,144
903,E2,19850,47,80,144
904,B2,19900,94,80,144
905,E2,19900,47,80,144
906,B3,19900,94,80,144
907,E2,19950,47,80,144
908,A2,20000,189,80,144
909,D2,20000,47,80,144
910,A4,20000,400,80,144
911,F4,20000,400,80,144
912,A3,20000,189,80,144
913,D2,20050,47,80,144
914,D2,20100,47,80,144
915,D2,20150,47,80,144
916,B2,20200,189,80,144
917,D2,20200,47,80,144
918,B3,20200,189,80,144
919,D2,20250,47,80,144
920,D2,20300,47,80,144
921,D2,20350,47,80,144
922,C3,20400,189,80,144
923,D2,20400,47,80,144
924,A4,20400,359,80,144
925,F4,20400,359,80,144
926,C4,20400,189,80,144
927,D2,20450,47,80,144
928,D2,20500,47,80,144
929,D2,20550,47,80,144
930,B2,20600,94,80,144
931,D2,20600,47,80,144
932,B3,20600,94,80,144
933,D2,20650,47,80,144
934,A2,20700,94,80,144
935,D2,20700,47,80,144
936,A3,20700,94,80,144
937,D2,20750,47,80,144
938,G2,20800,189,80,144
939,C2,20800,47,80,144
940,G4,20800,400,80,144
941,E-4,20800,400,80,144
942,G3,20800,189,80,144
943,C2,20850,47,80,144
944,C2,20900,47,80,144
945,C2,20950,47,80,144
946,A2,21000,189,80,144
947,C2,21000,47,80,144
948,A3,21000,189,80,144
949,C2,21050,47,80,144
950,C2,21100,47,80,144
951,C2,21150,47,80,144
952,B-2,21200,189,80,144
953,C2,21200,47,80,144
954,G4,21200,359,80,144
955,E-4,21200,359,80,144
956,B-3,21200,189,80,144
957,C2,21250,47,80,144
958,C2,21300,47,80,144
959,C2,21350,47,80,144
960,A2,21400,94,80,144
961,C2,21400,47,80,144
962,A3,21400,94,80,144
963,C2,21450,47,80,144
964,G2,21500,94,80,144
965,C2,21500,47,80,144
966,G3,21500,94,80,144
967,C2,21550,47,80,144
968,F2,21600,189,80,144
969,B-1,21600,47,80,144
970,F4,21600,400,80,144
971,C#4,21600,400,80,144
972,F3,21600,189,80,144
973,B-1,21650,47,80,144
974,B-1,21700,47,80,144
975,B-1,21750,47,80,144
976,G2,21800,189,80,144
977,B-1,21800,47,80,144
978,G3,21800,189,80,144
979,B-1,21850,47,80,144
980,B-1,21900,47,80,144
981,B-1,21950,47,80,144
982,G#2,22000,189,80,144
983,B-1,22000,47,80,144
984,F4,22000,359,80,144
985,C#4,22000,359,80,144
986,G#3,22000,189,80,144
987,B-1,22050,47,80,144
988,B-1,22100,47,80,144
989,B-1,22150,47,80,144
990,B-2,22200,189,80,144
991,B-1,22200,47,80,144
992,B-3,22200,189,80,144
993,B-1,22250,47,80,144
994,B-1,22300,47,80,144
995,B-1,22350,47,80,144
996,B2,22400,189,80,144
997,E2,22400,47,80,144
998,B4,22400,400,80,144
999,G4,22400,400,80,144
1000,B3,22400,189,80,144
1001,E2,22450,47,80,144
1002,E2,22500,47,80,144
1003,E2,22550,47,80,144
1004,C#3,22600,189,80,144
1005,E2,22600,47,80,144
1006,C#4,22600,189,80,144
1007,E2,22650,47,80,144
1008,E2,22700,47,80,144
1009,E2,22750,47,80,144
1010,D3,22800,189,80,144
1011,E2,22800,47,80,144
1012,B4,22800,359,80,144
1013,G4,22800,359,80,144
1014,D4,22800,189,80,144
1015,E2,22850,47,80,144
1016,E2,22900,47,80,144
1017,E2,22950,47,80,144
1018,C#3,23000,94,80,144
1019,E2,23000,47,80,144
1020,C#4,23000,94,80,144
1021,E2,23050,47,80,144
1022,B2,23100,94,80,144
1023,E2,23100,47,80,144
1024,B3,23100,94,80,144
1025,E2,23150,47,80,144
1026,A2,23200,189,80,144
1027,D2,23200,47,80,144
1028,A4,23200,400,80,144
1029,F4,23200,400,80,144
1030,A3,23200,189,80,144
1031,D2,23250,47,80,144
1032,D2,23300,47,80,144
1033,D2,23350,47,80,144
1034,B2,23400,189,80,144
1035,D2,23400,47,80,144
1036,B3,23400,189,80,144
1037,D2,23450,47,80,144
1038,D2,23500,47,80,144
1039,D2,23550,47,80,144
1040,C3,23600,189,80,144
1041,D2,23600,47,80,144
1042,A4,23600,359,80,144
1043,F4,23600,359,80,144
1044,C4,23600,189,80,144
1045,D2,23650,47,80,144
1046,D2,23700,47,80,144
1047,D2,23750,47,80,144
1048,B2,23800,94,80,144
1049,D2,23800,47,80,144
1050,B3,23800,94,80,144
1051,D2,23850,47,80,144
1052,A2,23900,94,80,144
1053,D2,23900,47,80,144
1054,A3,23900,94,80,144
1055,D2,23950,47,80,144
1056,G2,24000,189,80,144
1057,C2,24000,47,80,144
1058,G4,24000,400,80,144
1059,E-4,24000,400,80,144
1060,G3,24000,189,80,144
1061,C2,24050,47,80,144
1062,C2,24100,47,80,144
1063,C2,24150,47,80,144
1064,A2,24200,189,80,144
1065,C2,24200,47,80,144
1066,A3,24200,189,80,144
1067,C2,24250,47,80,144
1068,C2,24300,47,80,144
1069,C2,24350,47,80,144
1070,B-2,24400,189,80,144
1071,C2,24400,47,80,144
1072,G4,24400,359,80,144
1073,E-4,24400,359,80,144
1074,B-3,24400,189,80,144
1075,C2,24450,47,80,144
1076,C2,24500,47,80,144
1077,C2,24550,47,80,144
1078,A2,24600,94,80,144
1079,C2,24600,47,80,144
1080,A3,24600,94,80,144
1081,C2,24650,47,80,144
1082,G2,24700,94,80,144
1083,C2,24700,47,80,144
1084,G3,24700,94,80,144
1085,C2,24750,47,80,144
1086,F2,24800,189,80,144
1087,B-1,24800,47,80,144
1088,F4,24800,400,80,144
1089,C#4,24800,400,80,144
1090,F3,24800,400,80,144
1091,B-1,24850,47,80,144
1092,B-1,24900,47,80,144
1093,B-1,24950,47,80,144
1094,G2,25000,189,80,144
1095,B-1,25000,47,80,144
1096,B-1,25050,47,80,144
1097,B-1,25100,47,80,144
1098,B-1,25150,47,80,144
1099,G#2,25200,189,80,144
1100,B-1,25200,47,80,144
1101,F4,25200,169,80,144
1102,C#4,25200,169,80,144
1103,F3,25200,169,80,144
1104,B-1,25250,47,80,144
1105,B-1,25300,47,80,144
1106,B-1,25350,47,80,144
1107,B-2,25400,166,80,144
1108,B-1,25400,47,80,144
1109,B-1,25450,47,80,144
1110,B-1,25500,47,80,144
1111,B-1,25550,45,80,144
1112,B-2,25575,22,80,144
