0, 0, Header, 1, 6, 480
1, 0, Start_track
1, 0, Title_t, "Drumset\000"
1, 0, Time_signature, 4, 2, 24, 8
1, 0, Key_signature, 0, "major"
1, 0, Tempo, 333333
1, 0, Control_c, 9, 121, 0
1, 0, Program_c, 9, 0
1, 0, Control_c, 9, 7, 100
1, 0, Control_c, 9, 10, 64
1, 0, Control_c, 9, 91, 0
1, 0, Control_c, 9, 93, 0
1, 0, MIDI_port, 0
1, 0, Note_on_c, 9, 49, 64
1, 0, Note_on_c, 9, 36, 64
1, 239, Note_on_c, 9, 49, 0
1, 240, Note_on_c, 9, 42, 64
1, 479, Note_on_c, 9, 36, 0
1, 479, Note_on_c, 9, 42, 0
1, 480, Note_on_c, 9, 42, 64
1, 480, Note_on_c, 9, 36, 64
1, 719, Note_on_c, 9, 42, 0
1, 720, Note_on_c, 9, 42, 64
1, 959, Note_on_c, 9, 36, 0
1, 959, Note_on_c, 9, 42, 0
1, 960, Note_on_c, 9, 38, 64
1, 960, Note_on_c, 9, 42, 64
1, 1199, Note_on_c, 9, 38, 0
1, 1199, Note_on_c, 9, 42, 0
1, 1200, Note_on_c, 9, 42, 64
1, 1439, Note_on_c, 9, 42, 0
1, 1440, Note_on_c, 9, 42, 64
1, 1440, Note_on_c, 9, 36, 64
1, 1679, Note_on_c, 9, 42, 0
1, 1679, Note_on_c, 9, 36, 0
1, 1680, Note_on_c, 9, 42, 64
1, 1680, Note_on_c, 9, 36, 64
1, 1919, Note_on_c, 9, 42, 0
1, 1919, Note_on_c, 9, 36, 0
1, 1920, Note_on_c, 9, 42, 64
1, 1920, Note_on_c, 9, 36, 64
1, 2159, Note_on_c, 9, 42, 0
1, 2160, Note_on_c, 9, 42, 64
1, 2399, Note_on_c, 9, 36, 0
1, 2399, Note_on_c, 9, 42, 0
1, 2400, Note_on_c, 9, 42, 64
1, 2400, Note_on_c, 9, 36, 64
1, 2639, Note_on_c, 9, 42, 0
1, 2640, Note_on_c, 9, 42, 64
1, 2879, Note_on_c, 9, 36, 0
1, 2879, Note_on_c, 9, 42, 0
1, 2880, Note_on_c, 9, 38, 64
1, 2880, Note_on_c, 9, 42, 64
1, 3119, Note_on_c, 9, 38, 0
1, 3119, Note_on_c, 9, 42, 0
1, 3120, Note_on_c, 9, 42, 64
1, 3359, Note_on_c, 9, 42, 0
1, 3360, Note_on_c, 9, 42, 64
1, 3599, Note_on_c, 9, 42, 0
1, 3600, Note_on_c, 9, 42, 64
1, 3600, Note_on_c, 9, 36, 64
1, 3839, Note_on_c, 9, 42, 0
1, 3839, Note_on_c, 9, 36, 0
1, 3840, Note_on_c, 9, 46, 64
1, 3840, Note_on_c, 9, 36, 64
1, 4079, Note_on_c, 9, 46, 0
1, 4080, Note_on_c, 9, 42, 64
1, 4319, Note_on_c, 9, 36, 0
1, 4319, Note_on_c, 9, 42, 0
1, 4320, Note_on_c, 9, 42, 64
1, 4320, Note_on_c, 9, 36, 64
1, 4559, Note_on_c, 9, 42, 0
1, 4560, Note_on_c, 9, 42, 64
1, 4799, Note_on_c, 9, 36, 0
1, 4799, Note_on_c, 9, 42, 0
1, 4800, Note_on_c, 9, 38, 64
1, 4800, Note_on_c, 9, 42, 64
1, 5039, Note_on_c, 9, 38, 0
1, 5039, Note_on_c, 9, 42, 0
1, 5040, Note_on_c, 9, 42, 64
1, 5279, Note_on_c, 9, 42, 0
1, 5280, Note_on_c, 9, 42, 64
1, 5280, Note_on_c, 9, 36, 64
1, 5519, Note_on_c, 9, 42, 0
1, 5519, Note_on_c, 9, 36, 0
1, 5520, Note_on_c, 9, 42, 64
1, 5520, Note_on_c, 9, 36, 64
1, 5759, Note_on_c, 9, 42, 0
1, 5759, Note_on_c, 9, 36, 0
1, 5760, Note_on_c, 9, 42, 64
1, 5760, Note_on_c, 9, 36, 64
1, 5999, Note_on_c, 9, 42, 0
1, 6000, Note_on_c, 9, 42, 64
1, 6239, Note_on_c, 9, 36, 0
1, 6239, Note_on_c, 9, 42, 0
1, 6240, Note_on_c, 9, 42, 64
1, 6240, Note_on_c, 9, 36, 64
1, 6479, Note_on_c, 9, 42, 0
1, 6480, Note_on_c, 9, 42, 64
1, 6719, Note_on_c, 9, 36, 0
1, 6719, Note_on_c, 9, 42, 0
1, 6720, Note_on_c, 9, 38, 64
1, 6720, Note_on_c, 9, 42, 64
1, 6959, Note_on_c, 9, 38, 0
1, 6959, Note_on_c, 9, 42, 0
1, 6960, Note_on_c, 9, 42, 64
1, 7199, Note_on_c, 9, 42, 0
1, 7200, Note_on_c, 9, 38, 64
1, 7200, Note_on_c, 9, 42, 64
1, 7439, Note_on_c, 9, 38, 0
1, 7439, Note_on_c, 9, 42, 0
1, 7440, Note_on_c, 9, 42, 64
1, 7440, Note_on_c, 9, 36, 64
1, 7679, Note_on_c, 9, 42, 0
1, 7679, Note_on_c, 9, 36, 0
1, 7680, Note_on_c, 9, 49, 64
1, 7680, Note_on_c, 9, 36, 64
1, 7919, Note_on_c, 9, 49, 0
1, 7920, Note_on_c, 9, 42, 64
1, 8159, Note_on_c, 9, 36, 0
1, 8159, Note_on_c, 9, 42, 0
1, 8160, Note_on_c, 9, 42, 64
1, 8160, Note_on_c, 9, 36, 64
1, 8399, Note_on_c, 9, 42, 0
1, 8400, Note_on_c, 9, 42, 64
1, 8639, Note_on_c, 9, 36, 0
1, 8639, Note_on_c, 9, 42, 0
1, 8640, Note_on_c, 9, 38, 64
1, 8640, Note_on_c, 9, 42, 64
1, 8879, Note_on_c, 9, 38, 0
1, 8879, Note_on_c, 9, 42, 0
1, 8880, Note_on_c, 9, 42, 64
1, 9119, Note_on_c, 9, 42, 0
1, 9120, Note_on_c, 9, 42, 64
1, 9120, Note_on_c, 9, 36, 64
1, 9359, Note_on_c, 9, 42, 0
1, 9359, Note_on_c, 9, 36, 0
1, 9360, Note_on_c, 9, 42, 64
1, 9360, Note_on_c, 9, 36, 64
1, 9599, Note_on_c, 9, 42, 0
1, 9599, Note_on_c, 9, 36, 0
1, 9600, Note_on_c, 9, 42, 64
1, 9600, Note_on_c, 9, 36, 64
1, 9839, Note_on_c, 9, 42, 0
1, 9840, Note_on_c, 9, 42, 64
1, 10079, Note_on_c, 9, 36, 0
1, 10079, Note_on_c, 9, 42, 0
1, 10080, Note_on_c, 9, 42, 64
1, 10080, Note_on_c, 9, 36, 64
1, 10319, Note_on_c, 9, 42, 0
1, 10320, Note_on_c, 9, 42, 64
1, 10559, Note_on_c, 9, 36, 0
1, 10559, Note_on_c, 9, 42, 0
1, 10560, Note_on_c, 9, 38, 64
1, 10560, Note_on_c, 9, 42, 64
1, 10799, Note_on_c, 9, 38, 0
1, 10799, Note_on_c, 9, 42, 0
1, 10800, Note_on_c, 9, 42, 64
1, 11039, Note_on_c, 9, 42, 0
1, 11040, Note_on_c, 9, 42, 64
1, 11279, Note_on_c, 9, 42, 0
1, 11280, Note_on_c, 9, 42, 64
1, 11280, Note_on_c, 9, 36, 64
1, 11519, Note_on_c, 9, 42, 0
1, 11519, Note_on_c, 9, 36, 0
1, 11520, Note_on_c, 9, 46, 64
1, 11520, Note_on_c, 9, 36, 64
1, 11759, Note_on_c, 9, 46, 0
1, 11760, Note_on_c, 9, 42, 64
1, 11999, Note_on_c, 9, 36, 0
1, 11999, Note_on_c, 9, 42, 0
1, 12000, Note_on_c, 9, 42, 64
1, 12000, Note_on_c, 9, 36, 64
1, 12239, Note_on_c, 9, 42, 0
1, 12240, Note_on_c, 9, 42, 64
1, 12479, Note_on_c, 9, 36, 0
1, 12479, Note_on_c, 9, 42, 0
1, 12480, Note_on_c, 9, 38, 64
1, 12480, Note_on_c, 9, 42, 64
1, 12719, Note_on_c, 9, 38, 0
1, 12719, Note_on_c, 9, 42, 0
1, 12720, Note_on_c, 9, 42, 64
1, 12959, Note_on_c, 9, 42, 0
1, 12960, Note_on_c, 9, 42, 64
1, 12960, Note_on_c, 9, 36, 64
1, 13199, Note_on_c, 9, 42, 0
1, 13199, Note_on_c, 9, 36, 0
1, 13200, Note_on_c, 9, 42, 64
1, 13200, Note_on_c, 9, 36, 64
1, 13439, Note_on_c, 9, 42, 0
1, 13439, Note_on_c, 9, 36, 0
1, 13440, Note_on_c, 9, 42, 64
1, 13440, Note_on_c, 9, 36, 64
1, 13679, Note_on_c, 9, 42, 0
1, 13680, Note_on_c, 9, 42, 64
1, 13919, Note_on_c, 9, 36, 0
1, 13919, Note_on_c, 9, 42, 0
1, 13920, Note_on_c, 9, 42, 64
1, 13920, Note_on_c, 9, 36, 64
1, 14159, Note_on_c, 9, 42, 0
1, 14160, Note_on_c, 9, 42, 64
1, 14399, Note_on_c, 9, 36, 0
1, 14399, Note_on_c, 9, 42, 0
1, 14400, Note_on_c, 9, 38, 64
1, 14400, Note_on_c, 9, 42, 64
1, 14639, Note_on_c, 9, 38, 0
1, 14639, Note_on_c, 9, 42, 0
1, 14640, Note_on_c, 9, 42, 64
1, 14879, Note_on_c, 9, 42, 0
1, 14880, Note_on_c, 9, 38, 64
1, 14880, Note_on_c, 9, 42, 64
1, 15119, Note_on_c, 9, 38, 0
1, 15119, Note_on_c, 9, 42, 0
1, 15120, Note_on_c, 9, 42, 64
1, 15120, Note_on_c, 9, 36, 64
1, 15359, Note_on_c, 9, 42, 0
1, 15359, Note_on_c, 9, 36, 0
1, 15360, Note_on_c, 9, 49, 64
1, 15360, Note_on_c, 9, 36, 64
1, 15599, Note_on_c, 9, 49, 0
1, 15600, Note_on_c, 9, 42, 64
1, 15839, Note_on_c, 9, 36, 0
1, 15839, Note_on_c, 9, 42, 0
1, 15840, Note_on_c, 9, 42, 64
1, 15840, Note_on_c, 9, 36, 64
1, 16079, Note_on_c, 9, 42, 0
1, 16080, Note_on_c, 9, 42, 64
1, 16319, Note_on_c, 9, 36, 0
1, 16319, Note_on_c, 9, 42, 0
1, 16320, Note_on_c, 9, 38, 64
1, 16320, Note_on_c, 9, 42, 64
1, 16559, Note_on_c, 9, 38, 0
1, 16559, Note_on_c, 9, 42, 0
1, 16560, Note_on_c, 9, 42, 64
1, 16799, Note_on_c, 9, 42, 0
1, 16800, Note_on_c, 9, 42, 64
1, 16800, Note_on_c, 9, 36, 64
1, 17039, Note_on_c, 9, 42, 0
1, 17039, Note_on_c, 9, 36, 0
1, 17040, Note_on_c, 9, 42, 64
1, 17040, Note_on_c, 9, 36, 64
1, 17279, Note_on_c, 9, 42, 0
1, 17279, Note_on_c, 9, 36, 0
1, 17280, Note_on_c, 9, 42, 64
1, 17280, Note_on_c, 9, 36, 64
1, 17519, Note_on_c, 9, 42, 0
1, 17520, Note_on_c, 9, 42, 64
1, 17759, Note_on_c, 9, 36, 0
1, 17759, Note_on_c, 9, 42, 0
1, 17760, Note_on_c, 9, 42, 64
1, 17760, Note_on_c, 9, 36, 64
1, 17999, Note_on_c, 9, 42, 0
1, 18000, Note_on_c, 9, 42, 64
1, 18239, Note_on_c, 9, 36, 0
1, 18239, Note_on_c, 9, 42, 0
1, 18240, Note_on_c, 9, 38, 64
1, 18240, Note_on_c, 9, 42, 64
1, 18479, Note_on_c, 9, 38, 0
1, 18479, Note_on_c, 9, 42, 0
1, 18480, Note_on_c, 9, 42, 64
1, 18719, Note_on_c, 9, 42, 0
1, 18720, Note_on_c, 9, 42, 64
1, 18959, Note_on_c, 9, 42, 0
1, 18960, Note_on_c, 9, 42, 64
1, 18960, Note_on_c, 9, 36, 64
1, 19199, Note_on_c, 9, 42, 0
1, 19199, Note_on_c, 9, 36, 0
1, 19200, Note_on_c, 9, 46, 64
1, 19200, Note_on_c, 9, 36, 64
1, 19439, Note_on_c, 9, 46, 0
1, 19440, Note_on_c, 9, 42, 64
1, 19679, Note_on_c, 9, 36, 0
1, 19679, Note_on_c, 9, 42, 0
1, 19680, Note_on_c, 9, 42, 64
1, 19680, Note_on_c, 9, 36, 64
1, 19919, Note_on_c, 9, 42, 0
1, 19920, Note_on_c, 9, 42, 64
1, 20159, Note_on_c, 9, 36, 0
1, 20159, Note_on_c, 9, 42, 0
1, 20160, Note_on_c, 9, 38, 64
1, 20160, Note_on_c, 9, 42, 64
1, 20399, Note_on_c, 9, 38, 0
1, 20399, Note_on_c, 9, 42, 0
1, 20400, Note_on_c, 9, 42, 64
1, 20639, Note_on_c, 9, 42, 0
1, 20640, Note_on_c, 9, 42, 64
1, 20640, Note_on_c, 9, 36, 64
1, 20879, Note_on_c, 9, 42, 0
1, 20879, Note_on_c, 9, 36, 0
1, 20880, Note_on_c, 9, 42, 64
1, 20880, Note_on_c, 9, 36, 64
1, 21119, Note_on_c, 9, 42, 0
1, 21119, Note_on_c, 9, 36, 0
1, 21120, Note_on_c, 9, 42, 64
1, 21120, Note_on_c, 9, 36, 64
1, 21359, Note_on_c, 9, 42, 0
1, 21360, Note_on_c, 9, 42, 64
1, 21599, Note_on_c, 9, 36, 0
1, 21599, Note_on_c, 9, 42, 0
1, 21600, Note_on_c, 9, 42, 64
1, 21600, Note_on_c, 9, 36, 64
1, 21839, Note_on_c, 9, 42, 0
1, 21840, Note_on_c, 9, 42, 64
1, 22079, Note_on_c, 9, 36, 0
1, 22079, Note_on_c, 9, 42, 0
1, 22080, Note_on_c, 9, 38, 64
1, 22080, Note_on_c, 9, 42, 64
1, 22319, Note_on_c, 9, 38, 0
1, 22319, Note_on_c, 9, 42, 0
1, 22320, Note_on_c, 9, 42, 64
1, 22559, Note_on_c, 9, 42, 0
1, 22560, Note_on_c, 9, 38, 64
1, 22560, Note_on_c, 9, 42, 64
1, 22799, Note_on_c, 9, 38, 0
1, 22799, Note_on_c, 9, 42, 0
1, 22800, Note_on_c, 9, 42, 64
1, 22800, Note_on_c, 9, 36, 64
1, 23039, Note_on_c, 9, 42, 0
1, 23039, Note_on_c, 9, 36, 0
1, 23040, Note_on_c, 9, 49, 64
1, 23040, Note_on_c, 9, 36, 64
1, 23279, Note_on_c, 9, 49, 0
1, 23280, Note_on_c, 9, 42, 64
1, 23519, Note_on_c, 9, 36, 0
1, 23519, Note_on_c, 9, 42, 0
1, 23520, Note_on_c, 9, 42, 64
1, 23520, Note_on_c, 9, 36, 64
1, 23759, Note_on_c, 9, 42, 0
1, 23760, Note_on_c, 9, 42, 64
1, 23999, Note_on_c, 9, 36, 0
1, 23999, Note_on_c, 9, 42, 0
1, 24000, Note_on_c, 9, 38, 64
1, 24000, Note_on_c, 9, 42, 64
1, 24239, Note_on_c, 9, 38, 0
1, 24239, Note_on_c, 9, 42, 0
1, 24240, Note_on_c, 9, 42, 64
1, 24479, Note_on_c, 9, 42, 0
1, 24480, Note_on_c, 9, 42, 64
1, 24480, Note_on_c, 9, 36, 64
1, 24719, Note_on_c, 9, 42, 0
1, 24719, Note_on_c, 9, 36, 0
1, 24720, Note_on_c, 9, 42, 64
1, 24720, Note_on_c, 9, 36, 64
1, 24959, Note_on_c, 9, 42, 0
1, 24959, Note_on_c, 9, 36, 0
1, 24960, Note_on_c, 9, 42, 64
1, 24960, Note_on_c, 9, 36, 64
1, 25199, Note_on_c, 9, 42, 0
1, 25200, Note_on_c, 9, 42, 64
1, 25439, Note_on_c, 9, 36, 0
1, 25439, Note_on_c, 9, 42, 0
1, 25440, Note_on_c, 9, 42, 64
1, 25440, Note_on_c, 9, 36, 64
1, 25679, Note_on_c, 9, 42, 0
1, 25680, Note_on_c, 9, 42, 64
1, 25919, Note_on_c, 9, 36, 0
1, 25919, Note_on_c, 9, 42, 0
1, 25920, Note_on_c, 9, 38, 64
1, 25920, Note_on_c, 9, 42, 64
1, 26159, Note_on_c, 9, 38, 0
1, 26159, Note_on_c, 9, 42, 0
1, 26160, Note_on_c, 9, 42, 64
1, 26399, Note_on_c, 9, 42, 0
1, 26400, Note_on_c, 9, 42, 64
1, 26639, Note_on_c, 9, 42, 0
1, 26640, Note_on_c, 9, 42, 64
1, 26640, Note_on_c, 9, 36, 64
1, 26879, Note_on_c, 9, 42, 0
1, 26879, Note_on_c, 9, 36, 0
1, 26880, Note_on_c, 9, 46, 64
1, 26880, Note_on_c, 9, 36, 64
1, 27119, Note_on_c, 9, 46, 0
1, 27120, Note_on_c, 9, 42, 64
1, 27359, Note_on_c, 9, 36, 0
1, 27359, Note_on_c, 9, 42, 0
1, 27360, Note_on_c, 9, 42, 64
1, 27360, Note_on_c, 9, 36, 64
1, 27599, Note_on_c, 9, 42, 0
1, 27600, Note_on_c, 9, 42, 64
1, 27839, Note_on_c, 9, 36, 0
1, 27839, Note_on_c, 9, 42, 0
1, 27840, Note_on_c, 9, 38, 64
1, 27840, Note_on_c, 9, 42, 64
1, 28079, Note_on_c, 9, 38, 0
1, 28079, Note_on_c, 9, 42, 0
1, 28080, Note_on_c, 9, 42, 64
1, 28319, Note_on_c, 9, 42, 0
1, 28320, Note_on_c, 9, 42, 64
1, 28320, Note_on_c, 9, 36, 64
1, 28559, Note_on_c, 9, 42, 0
1, 28559, Note_on_c, 9, 36, 0
1, 28560, Note_on_c, 9, 42, 64
1, 28560, Note_on_c, 9, 36, 64
1, 28799, Note_on_c, 9, 42, 0
1, 28799, Note_on_c, 9, 36, 0
1, 28800, Note_on_c, 9, 42, 64
1, 28800, Note_on_c, 9, 36, 64
1, 29039, Note_on_c, 9, 42, 0
1, 29040, Note_on_c, 9, 42, 64
1, 29279, Note_on_c, 9, 36, 0
1, 29279, Note_on_c, 9, 42, 0
1, 29280, Note_on_c, 9, 42, 64
1, 29280, Note_on_c, 9, 36, 64
1, 29519, Note_on_c, 9, 42, 0
1, 29520, Note_on_c, 9, 42, 64
1, 29759, Note_on_c, 9, 36, 0
1, 29759, Note_on_c, 9, 42, 0
1, 29760, Note_on_c, 9, 38, 64
1, 29760, Note_on_c, 9, 42, 64
1, 29999, Note_on_c, 9, 38, 0
1, 29999, Note_on_c, 9, 42, 0
1, 30000, Note_on_c, 9, 42, 64
1, 30239, Note_on_c, 9, 42, 0
1, 30240, Note_on_c, 9, 38, 64
1, 30240, Note_on_c, 9, 42, 64
1, 30479, Note_on_c, 9, 38, 0
1, 30479, Note_on_c, 9, 42, 0
1, 30480, Note_on_c, 9, 42, 64
1, 30480, Note_on_c, 9, 36, 64
1, 30719, Note_on_c, 9, 42, 0
1, 30719, Note_on_c, 9, 36, 0
1, 30720, Note_on_c, 9, 49, 64
1, 30720, Note_on_c, 9, 36, 64
1, 30959, Note_on_c, 9, 49, 0
1, 30960, Note_on_c, 9, 42, 64
1, 31199, Note_on_c, 9, 36, 0
1, 31199, Note_on_c, 9, 42, 0
1, 31200, Note_on_c, 9, 42, 64
1, 31200, Note_on_c, 9, 36, 64
1, 31439, Note_on_c, 9, 42, 0
1, 31440, Note_on_c, 9, 42, 64
1, 31679, Note_on_c, 9, 36, 0
1, 31679, Note_on_c, 9, 42, 0
1, 31680, Note_on_c, 9, 38, 64
1, 31680, Note_on_c, 9, 42, 64
1, 31919, Note_on_c, 9, 38, 0
1, 31919, Note_on_c, 9, 42, 0
1, 31920, Note_on_c, 9, 42, 64
1, 32159, Note_on_c, 9, 42, 0
1, 32160, Note_on_c, 9, 42, 64
1, 32160, Note_on_c, 9, 36, 64
1, 32399, Note_on_c, 9, 42, 0
1, 32399, Note_on_c, 9, 36, 0
1, 32400, Note_on_c, 9, 42, 64
1, 32400, Note_on_c, 9, 36, 64
1, 32639, Note_on_c, 9, 42, 0
1, 32639, Note_on_c, 9, 36, 0
1, 32640, Note_on_c, 9, 42, 64
1, 32640, Note_on_c, 9, 36, 64
1, 32879, Note_on_c, 9, 42, 0
1, 32880, Note_on_c, 9, 42, 64
1, 33119, Note_on_c, 9, 36, 0
1, 33119, Note_on_c, 9, 42, 0
1, 33120, Note_on_c, 9, 42, 64
1, 33120, Note_on_c, 9, 36, 64
1, 33359, Note_on_c, 9, 42, 0
1, 33360, Note_on_c, 9, 42, 64
1, 33599, Note_on_c, 9, 36, 0
1, 33599, Note_on_c, 9, 42, 0
1, 33600, Note_on_c, 9, 38, 64
1, 33600, Note_on_c, 9, 42, 64
1, 33839, Note_on_c, 9, 38, 0
1, 33839, Note_on_c, 9, 42, 0
1, 33840, Note_on_c, 9, 42, 64
1, 34079, Note_on_c, 9, 42, 0
1, 34080, Note_on_c, 9, 42, 64
1, 34319, Note_on_c, 9, 42, 0
1, 34320, Note_on_c, 9, 42, 64
1, 34320, Note_on_c, 9, 36, 64
1, 34559, Note_on_c, 9, 42, 0
1, 34559, Note_on_c, 9, 36, 0
1, 34560, Note_on_c, 9, 46, 64
1, 34560, Note_on_c, 9, 36, 64
1, 34799, Note_on_c, 9, 46, 0
1, 34800, Note_on_c, 9, 42, 64
1, 35039, Note_on_c, 9, 36, 0
1, 35039, Note_on_c, 9, 42, 0
1, 35040, Note_on_c, 9, 42, 64
1, 35040, Note_on_c, 9, 36, 64
1, 35279, Note_on_c, 9, 42, 0
1, 35280, Note_on_c, 9, 42, 64
1, 35519, Note_on_c, 9, 36, 0
1, 35519, Note_on_c, 9, 42, 0
1, 35520, Note_on_c, 9, 38, 64
1, 35520, Note_on_c, 9, 42, 64
1, 35759, Note_on_c, 9, 38, 0
1, 35759, Note_on_c, 9, 42, 0
1, 35760, Note_on_c, 9, 42, 64
1, 35999, Note_on_c, 9, 42, 0
1, 36000, Note_on_c, 9, 42, 64
1, 36000, Note_on_c, 9, 36, 64
1, 36239, Note_on_c, 9, 42, 0
1, 36239, Note_on_c, 9, 36, 0
1, 36240, Note_on_c, 9, 42, 64
1, 36240, Note_on_c, 9, 36, 64
1, 36479, Note_on_c, 9, 42, 0
1, 36479, Note_on_c, 9, 36, 0
1, 36480, Note_on_c, 9, 42, 64
1, 36480, Note_on_c, 9, 36, 64
1, 36719, Note_on_c, 9, 42, 0
1, 36720, Note_on_c, 9, 42, 64
1, 36959, Note_on_c, 9, 36, 0
1, 36959, Note_on_c, 9, 42, 0
1, 36960, Note_on_c, 9, 42, 64
1, 36960, Note_on_c, 9, 36, 64
1, 37199, Note_on_c, 9, 42, 0
1, 37200, Note_on_c, 9, 42, 64
1, 37439, Note_on_c, 9, 36, 0
1, 37439, Note_on_c, 9, 42, 0
1, 37440, Note_on_c, 9, 38, 64
1, 37440, Note_on_c, 9, 42, 64
1, 37679, Note_on_c, 9, 38, 0
1, 37679, Note_on_c, 9, 42, 0
1, 37680, Note_on_c, 9, 42, 64
1, 37919, Note_on_c, 9, 42, 0
1, 37920, Note_on_c, 9, 38, 64
1, 37920, Note_on_c, 9, 42, 64
1, 38159, Note_on_c, 9, 38, 0
1, 38159, Note_on_c, 9, 42, 0
1, 38160, Note_on_c, 9, 42, 64
1, 38160, Note_on_c, 9, 36, 64
1, 38399, Note_on_c, 9, 42, 0
1, 38399, Note_on_c, 9, 36, 0
1, 38400, Note_on_c, 9, 49, 64
1, 38400, Note_on_c, 9, 36, 64
1, 38639, Note_on_c, 9, 49, 0
1, 38640, Note_on_c, 9, 42, 64
1, 38879, Note_on_c, 9, 36, 0
1, 38879, Note_on_c, 9, 42, 0
1, 38880, Note_on_c, 9, 42, 64
1, 38880, Note_on_c, 9, 36, 64
1, 39119, Note_on_c, 9, 42, 0
1, 39120, Note_on_c, 9, 42, 64
1, 39359, Note_on_c, 9, 36, 0
1, 39359, Note_on_c, 9, 42, 0
1, 39360, Note_on_c, 9, 38, 64
1, 39360, Note_on_c, 9, 42, 64
1, 39599, Note_on_c, 9, 38, 0
1, 39599, Note_on_c, 9, 42, 0
1, 39600, Note_on_c, 9, 42, 64
1, 39839, Note_on_c, 9, 42, 0
1, 39840, Note_on_c, 9, 42, 64
1, 39840, Note_on_c, 9, 36, 64
1, 40079, Note_on_c, 9, 42, 0
1, 40079, Note_on_c, 9, 36, 0
1, 40080, Note_on_c, 9, 42, 64
1, 40080, Note_on_c, 9, 36, 64
1, 40319, Note_on_c, 9, 42, 0
1, 40319, Note_on_c, 9, 36, 0
1, 40320, Note_on_c, 9, 42, 64
1, 40320, Note_on_c, 9, 36, 64
1, 40559, Note_on_c, 9, 42, 0
1, 40560, Note_on_c, 9, 42, 64
1, 40799, Note_on_c, 9, 36, 0
1, 40799, Note_on_c, 9, 42, 0
1, 40800, Note_on_c, 9, 42, 64
1, 40800, Note_on_c, 9, 36, 64
1, 41039, Note_on_c, 9, 42, 0
1, 41040, Note_on_c, 9, 42, 64
1, 41279, Note_on_c, 9, 36, 0
1, 41279, Note_on_c, 9, 42, 0
1, 41280, Note_on_c, 9, 38, 64
1, 41280, Note_on_c, 9, 42, 64
1, 41519, Note_on_c, 9, 38, 0
1, 41519, Note_on_c, 9, 42, 0
1, 41520, Note_on_c, 9, 42, 64
1, 41759, Note_on_c, 9, 42, 0
1, 41760, Note_on_c, 9, 42, 64
1, 41999, Note_on_c, 9, 42, 0
1, 42000, Note_on_c, 9, 42, 64
1, 42000, Note_on_c, 9, 36, 64
1, 42239, Note_on_c, 9, 42, 0
1, 42239, Note_on_c, 9, 36, 0
1, 42240, Note_on_c, 9, 46, 64
1, 42240, Note_on_c, 9, 36, 64
1, 42479, Note_on_c, 9, 46, 0
1, 42480, Note_on_c, 9, 42, 64
1, 42719, Note_on_c, 9, 36, 0
1, 42719, Note_on_c, 9, 42, 0
1, 42720, Note_on_c, 9, 42, 64
1, 42720, Note_on_c, 9, 36, 64
1, 42959, Note_on_c, 9, 42, 0
1, 42960, Note_on_c, 9, 42, 64
1, 43199, Note_on_c, 9, 36, 0
1, 43199, Note_on_c, 9, 42, 0
1, 43200, Note_on_c, 9, 38, 64
1, 43200, Note_on_c, 9, 42, 64
1, 43439, Note_on_c, 9, 38, 0
1, 43439, Note_on_c, 9, 42, 0
1, 43440, Note_on_c, 9, 42, 64
1, 43679, Note_on_c, 9, 42, 0
1, 43680, Note_on_c, 9, 42, 64
1, 43680, Note_on_c, 9, 36, 64
1, 43919, Note_on_c, 9, 42, 0
1, 43919, Note_on_c, 9, 36, 0
1, 43920, Note_on_c, 9, 42, 64
1, 43920, Note_on_c, 9, 36, 64
1, 44159, Note_on_c, 9, 42, 0
1, 44159, Note_on_c, 9, 36, 0
1, 44160, Note_on_c, 9, 42, 64
1, 44160, Note_on_c, 9, 36, 64
1, 44399, Note_on_c, 9, 42, 0
1, 44400, Note_on_c, 9, 42, 64
1, 44639, Note_on_c, 9, 36, 0
1, 44639, Note_on_c, 9, 42, 0
1, 44640, Note_on_c, 9, 42, 64
1, 44640, Note_on_c, 9, 36, 64
1, 44879, Note_on_c, 9, 42, 0
1, 44880, Note_on_c, 9, 42, 64
1, 45119, Note_on_c, 9, 36, 0
1, 45119, Note_on_c, 9, 42, 0
1, 45120, Note_on_c, 9, 38, 64
1, 45120, Note_on_c, 9, 42, 64
1, 45359, Note_on_c, 9, 38, 0
1, 45359, Note_on_c, 9, 42, 0
1, 45360, Note_on_c, 9, 40, 64
1, 45360, Note_on_c, 9, 42, 64
1, 45479, Note_on_c, 9, 40, 0
1, 45479, Note_on_c, 9, 42, 0
1, 45480, Note_on_c, 9, 38, 64
1, 45599, Note_on_c, 9, 38, 0
1, 45600, Note_on_c, 9, 40, 64
1, 45600, Note_on_c, 9, 42, 64
1, 45719, Note_on_c, 9, 40, 0
1, 45719, Note_on_c, 9, 42, 0
1, 45720, Note_on_c, 9, 38, 64
1, 45839, Note_on_c, 9, 38, 0
1, 45840, Note_on_c, 9, 40, 64
1, 45840, Note_on_c, 9, 42, 64
1, 45959, Note_on_c, 9, 40, 0
1, 45959, Note_on_c, 9, 42, 0
1, 45960, Note_on_c, 9, 38, 64
1, 46079, Note_on_c, 9, 38, 0
1, 46080, Note_on_c, 9, 38, 64
1, 46080, Note_on_c, 9, 49, 64
1, 46080, Note_on_c, 9, 36, 64
1, 46559, Note_on_c, 9, 38, 0
1, 46559, Note_on_c, 9, 49, 0
1, 46559, Note_on_c, 9, 36, 0
1, 46560, Note_on_c, 9, 46, 64
1, 47039, Note_on_c, 9, 46, 0
1, 47040, Note_on_c, 9, 38, 64
1, 47519, Note_on_c, 9, 38, 0
1, 47520, Note_on_c, 9, 46, 64
1, 47999, Note_on_c, 9, 46, 0
1, 48000, Note_on_c, 9, 36, 64
1, 48479, Note_on_c, 9, 36, 0
1, 48480, Note_on_c, 9, 46, 64
1, 48959, Note_on_c, 9, 46, 0
1, 48960, Note_on_c, 9, 38, 64
1, 49439, Note_on_c, 9, 38, 0
1, 49440, Note_on_c, 9, 46, 64
1, 49919, Note_on_c, 9, 46, 0
1, 49920, Note_on_c, 9, 36, 64
1, 50399, Note_on_c, 9, 36, 0
1, 50400, Note_on_c, 9, 46, 64
1, 50879, Note_on_c, 9, 46, 0
1, 50880, Note_on_c, 9, 38, 64
1, 51359, Note_on_c, 9, 38, 0
1, 51360, Note_on_c, 9, 46, 64
1, 51839, Note_on_c, 9, 46, 0
1, 51840, Note_on_c, 9, 36, 64
1, 52319, Note_on_c, 9, 36, 0
1, 52320, Note_on_c, 9, 46, 64
1, 52799, Note_on_c, 9, 46, 0
1, 52800, Note_on_c, 9, 38, 64
1, 53279, Note_on_c, 9, 38, 0
1, 53280, Note_on_c, 9, 46, 64
1, 53520, Note_on_c, 9, 36, 64
1, 53759, Note_on_c, 9, 46, 0
1, 53759, Note_on_c, 9, 36, 0
1, 53760, Note_on_c, 9, 49, 64
1, 53760, Note_on_c, 9, 36, 64
1, 54239, Note_on_c, 9, 49, 0
1, 54239, Note_on_c, 9, 36, 0
1, 54240, Note_on_c, 9, 46, 64
1, 54719, Note_on_c, 9, 46, 0
1, 54720, Note_on_c, 9, 38, 64
1, 55199, Note_on_c, 9, 38, 0
1, 55200, Note_on_c, 9, 46, 64
1, 55679, Note_on_c, 9, 46, 0
1, 55680, Note_on_c, 9, 36, 64
1, 56159, Note_on_c, 9, 36, 0
1, 56160, Note_on_c, 9, 46, 64
1, 56639, Note_on_c, 9, 46, 0
1, 56640, Note_on_c, 9, 38, 64
1, 57119, Note_on_c, 9, 38, 0
1, 57120, Note_on_c, 9, 46, 64
1, 57599, Note_on_c, 9, 46, 0
1, 57600, Note_on_c, 9, 36, 64
1, 58079, Note_on_c, 9, 36, 0
1, 58080, Note_on_c, 9, 46, 64
1, 58559, Note_on_c, 9, 46, 0
1, 58560, Note_on_c, 9, 38, 64
1, 59039, Note_on_c, 9, 38, 0
1, 59040, Note_on_c, 9, 46, 64
1, 59519, Note_on_c, 9, 46, 0
1, 59520, Note_on_c, 9, 36, 64
1, 59999, Note_on_c, 9, 36, 0
1, 60000, Note_on_c, 9, 46, 64
1, 60479, Note_on_c, 9, 46, 0
1, 60480, Note_on_c, 9, 38, 64
1, 60959, Note_on_c, 9, 38, 0
1, 60960, Note_on_c, 9, 46, 64
1, 61200, Note_on_c, 9, 36, 64
1, 61439, Note_on_c, 9, 46, 0
1, 61439, Note_on_c, 9, 36, 0
1, 61440, Note_on_c, 9, 49, 64
1, 61440, Note_on_c, 9, 36, 64
1, 61919, Note_on_c, 9, 49, 0
1, 61919, Note_on_c, 9, 36, 0
1, 61920, Note_on_c, 9, 46, 64
1, 62399, Note_on_c, 9, 46, 0
1, 62400, Note_on_c, 9, 38, 64
1, 62879, Note_on_c, 9, 38, 0
1, 62880, Note_on_c, 9, 46, 64
1, 63359, Note_on_c, 9, 46, 0
1, 63360, Note_on_c, 9, 36, 64
1, 63839, Note_on_c, 9, 36, 0
1, 63840, Note_on_c, 9, 46, 64
1, 64319, Note_on_c, 9, 46, 0
1, 64320, Note_on_c, 9, 38, 64
1, 64799, Note_on_c, 9, 38, 0
1, 64800, Note_on_c, 9, 46, 64
1, 65279, Note_on_c, 9, 46, 0
1, 65280, Note_on_c, 9, 36, 64
1, 65759, Note_on_c, 9, 36, 0
1, 65760, Note_on_c, 9, 46, 64
1, 66239, Note_on_c, 9, 46, 0
1, 66240, Note_on_c, 9, 38, 64
1, 66719, Note_on_c, 9, 38, 0
1, 66720, Note_on_c, 9, 46, 64
1, 67199, Note_on_c, 9, 46, 0
1, 67200, Note_on_c, 9, 36, 64
1, 67679, Note_on_c, 9, 36, 0
1, 67680, Note_on_c, 9, 46, 64
1, 68159, Note_on_c, 9, 46, 0
1, 68160, Note_on_c, 9, 38, 64
1, 68639, Note_on_c, 9, 38, 0
1, 68640, Note_on_c, 9, 46, 64
1, 68880, Note_on_c, 9, 36, 64
1, 69119, Note_on_c, 9, 46, 0
1, 69119, Note_on_c, 9, 36, 0
1, 69120, Note_on_c, 9, 49, 64
1, 69120, Note_on_c, 9, 36, 64
1, 69599, Note_on_c, 9, 49, 0
1, 69599, Note_on_c, 9, 36, 0
1, 69600, Note_on_c, 9, 46, 64
1, 70079, Note_on_c, 9, 46, 0
1, 70080, Note_on_c, 9, 38, 64
1, 70559, Note_on_c, 9, 38, 0
1, 70560, Note_on_c, 9, 46, 64
1, 71039, Note_on_c, 9, 46, 0
1, 71040, Note_on_c, 9, 36, 64
1, 71519, Note_on_c, 9, 36, 0
1, 71520, Note_on_c, 9, 46, 64
1, 71999, Note_on_c, 9, 46, 0
1, 72000, Note_on_c, 9, 38, 64
1, 72479, Note_on_c, 9, 38, 0
1, 72480, Note_on_c, 9, 46, 64
1, 72959, Note_on_c, 9, 46, 0
1, 72960, Note_on_c, 9, 36, 64
1, 73439, Note_on_c, 9, 36, 0
1, 73440, Note_on_c, 9, 46, 64
1, 73919, Note_on_c, 9, 46, 0
1, 73920, Note_on_c, 9, 38, 64
1, 74399, Note_on_c, 9, 38, 0
1, 74400, Note_on_c, 9, 46, 64
1, 74879, Note_on_c, 9, 46, 0
1, 74880, Note_on_c, 9, 36, 64
1, 75359, Note_on_c, 9, 36, 0
1, 75360, Note_on_c, 9, 46, 64
1, 75839, Note_on_c, 9, 46, 0
1, 75840, Note_on_c, 9, 38, 64
1, 76319, Note_on_c, 9, 38, 0
1, 76320, Note_on_c, 9, 46, 64
1, 76559, Note_on_c, 9, 46, 0
1, 76560, Note_on_c, 9, 41, 64
1, 76679, Note_on_c, 9, 41, 0
1, 76680, Note_on_c, 9, 41, 64
1, 76784, Note_on_c, 9, 41, 0
1, 76785, End_track
2, 0, Start_track
2, 0, Title_t, "Instrument_01\000"
2, 0, Key_signature, 0, "major"
2, 0, Control_c, 0, 121, 0
2, 0, Program_c, 0, 81
2, 0, Control_c, 0, 7, 100
2, 0, Control_c, 0, 10, 64
2, 0, Control_c, 0, 91, 0
2, 0, Control_c, 0, 93, 0
2, 0, MIDI_port, 0
2, 0, Note_on_c, 0, 72, 64
2, 239, Note_on_c, 0, 72, 0
2, 480, Note_on_c, 0, 72, 64
2, 719, Note_on_c, 0, 72, 0
2, 960, Note_on_c, 0, 72, 64
2, 1199, Note_on_c, 0, 72, 0
2, 1440, Note_on_c, 0, 72, 64
2, 1559, Note_on_c, 0, 72, 0
2, 1680, Note_on_c, 0, 72, 64
2, 1799, Note_on_c, 0, 72, 0
2, 1920, Note_on_c, 0, 71, 64
2, 2159, Note_on_c, 0, 71, 0
2, 2400, Note_on_c, 0, 71, 64
2, 2639, Note_on_c, 0, 71, 0
2, 2880, Note_on_c, 0, 71, 64
2, 3119, Note_on_c, 0, 71, 0
2, 3360, Note_on_c, 0, 72, 64
2, 3599, Note_on_c, 0, 72, 0
2, 3840, Note_on_c, 0, 74, 64
2, 4079, Note_on_c, 0, 74, 0
2, 4320, Note_on_c, 0, 74, 64
2, 4559, Note_on_c, 0, 74, 0
2, 4800, Note_on_c, 0, 74, 64
2, 5039, Note_on_c, 0, 74, 0
2, 5280, Note_on_c, 0, 74, 64
2, 5399, Note_on_c, 0, 74, 0
2, 5520, Note_on_c, 0, 71, 64
2, 5639, Note_on_c, 0, 71, 0
2, 5760, Note_on_c, 0, 72, 64
2, 5999, Note_on_c, 0, 72, 0
2, 6240, Note_on_c, 0, 72, 64
2, 6479, Note_on_c, 0, 72, 0
2, 6720, Note_on_c, 0, 72, 64
2, 6959, Note_on_c, 0, 72, 0
2, 7200, Note_on_c, 0, 72, 64
2, 7439, Note_on_c, 0, 72, 0
2, 7680, Note_on_c, 0, 72, 64
2, 7919, Note_on_c, 0, 72, 0
2, 8160, Note_on_c, 0, 72, 64
2, 8399, Note_on_c, 0, 72, 0
2, 8640, Note_on_c, 0, 72, 64
2, 8879, Note_on_c, 0, 72, 0
2, 9120, Note_on_c, 0, 72, 64
2, 9239, Note_on_c, 0, 72, 0
2, 9360, Note_on_c, 0, 72, 64
2, 9479, Note_on_c, 0, 72, 0
2, 9600, Note_on_c, 0, 71, 64
2, 9839, Note_on_c, 0, 71, 0
2, 10080, Note_on_c, 0, 71, 64
2, 10319, Note_on_c, 0, 71, 0
2, 10560, Note_on_c, 0, 71, 64
2, 10799, Note_on_c, 0, 71, 0
2, 11040, Note_on_c, 0, 72, 64
2, 11279, Note_on_c, 0, 72, 0
2, 11520, Note_on_c, 0, 74, 64
2, 11759, Note_on_c, 0, 74, 0
2, 12000, Note_on_c, 0, 74, 64
2, 12239, Note_on_c, 0, 74, 0
2, 12480, Note_on_c, 0, 74, 64
2, 12719, Note_on_c, 0, 74, 0
2, 12960, Note_on_c, 0, 74, 64
2, 13079, Note_on_c, 0, 74, 0
2, 13200, Note_on_c, 0, 71, 64
2, 13319, Note_on_c, 0, 71, 0
2, 13440, Note_on_c, 0, 72, 64
2, 13679, Note_on_c, 0, 72, 0
2, 13920, Note_on_c, 0, 72, 64
2, 14159, Note_on_c, 0, 72, 0
2, 14400, Note_on_c, 0, 72, 64
2, 14639, Note_on_c, 0, 72, 0
2, 14880, Note_on_c, 0, 72, 64
2, 15119, Note_on_c, 0, 72, 0
2, 15360, Note_on_c, 0, 72, 64
2, 15599, Note_on_c, 0, 72, 0
2, 15840, Note_on_c, 0, 72, 64
2, 16079, Note_on_c, 0, 72, 0
2, 16320, Note_on_c, 0, 72, 64
2, 16559, Note_on_c, 0, 72, 0
2, 16800, Note_on_c, 0, 72, 64
2, 16919, Note_on_c, 0, 72, 0
2, 17040, Note_on_c, 0, 72, 64
2, 17159, Note_on_c, 0, 72, 0
2, 17280, Note_on_c, 0, 71, 64
2, 17519, Note_on_c, 0, 71, 0
2, 17760, Note_on_c, 0, 71, 64
2, 17999, Note_on_c, 0, 71, 0
2, 18240, Note_on_c, 0, 71, 64
2, 18479, Note_on_c, 0, 71, 0
2, 18720, Note_on_c, 0, 72, 64
2, 18959, Note_on_c, 0, 72, 0
2, 19200, Note_on_c, 0, 74, 64
2, 19439, Note_on_c, 0, 74, 0
2, 19680, Note_on_c, 0, 74, 64
2, 19919, Note_on_c, 0, 74, 0
2, 20160, Note_on_c, 0, 74, 64
2, 20399, Note_on_c, 0, 74, 0
2, 20640, Note_on_c, 0, 74, 64
2, 20759, Note_on_c, 0, 74, 0
2, 20880, Note_on_c, 0, 71, 64
2, 20999, Note_on_c, 0, 71, 0
2, 21120, Note_on_c, 0, 72, 64
2, 21359, Note_on_c, 0, 72, 0
2, 21600, Note_on_c, 0, 72, 64
2, 21839, Note_on_c, 0, 72, 0
2, 22080, Note_on_c, 0, 72, 64
2, 22319, Note_on_c, 0, 72, 0
2, 22560, Note_on_c, 0, 72, 64
2, 22799, Note_on_c, 0, 72, 0
2, 23040, Note_on_c, 0, 72, 64
2, 23279, Note_on_c, 0, 72, 0
2, 23520, Note_on_c, 0, 72, 64
2, 23759, Note_on_c, 0, 72, 0
2, 24000, Note_on_c, 0, 72, 64
2, 24239, Note_on_c, 0, 72, 0
2, 24480, Note_on_c, 0, 72, 64
2, 24599, Note_on_c, 0, 72, 0
2, 24720, Note_on_c, 0, 72, 64
2, 24839, Note_on_c, 0, 72, 0
2, 24960, Note_on_c, 0, 71, 64
2, 25199, Note_on_c, 0, 71, 0
2, 25440, Note_on_c, 0, 71, 64
2, 25679, Note_on_c, 0, 71, 0
2, 25920, Note_on_c, 0, 71, 64
2, 26159, Note_on_c, 0, 71, 0
2, 26400, Note_on_c, 0, 72, 64
2, 26639, Note_on_c, 0, 72, 0
2, 26880, Note_on_c, 0, 74, 64
2, 27119, Note_on_c, 0, 74, 0
2, 27360, Note_on_c, 0, 74, 64
2, 27599, Note_on_c, 0, 74, 0
2, 27840, Note_on_c, 0, 74, 64
2, 28079, Note_on_c, 0, 74, 0
2, 28320, Note_on_c, 0, 74, 64
2, 28439, Note_on_c, 0, 74, 0
2, 28560, Note_on_c, 0, 71, 64
2, 28679, Note_on_c, 0, 71, 0
2, 28800, Note_on_c, 0, 72, 64
2, 29039, Note_on_c, 0, 72, 0
2, 29280, Note_on_c, 0, 72, 64
2, 29519, Note_on_c, 0, 72, 0
2, 29760, Note_on_c, 0, 72, 64
2, 29999, Note_on_c, 0, 72, 0
2, 30240, Note_on_c, 0, 72, 64
2, 30479, Note_on_c, 0, 72, 0
2, 30720, Note_on_c, 0, 72, 64
2, 30959, Note_on_c, 0, 72, 0
2, 31200, Note_on_c, 0, 72, 64
2, 31439, Note_on_c, 0, 72, 0
2, 31680, Note_on_c, 0, 72, 64
2, 31919, Note_on_c, 0, 72, 0
2, 32160, Note_on_c, 0, 72, 64
2, 32279, Note_on_c, 0, 72, 0
2, 32400, Note_on_c, 0, 72, 64
2, 32519, Note_on_c, 0, 72, 0
2, 32640, Note_on_c, 0, 71, 64
2, 32879, Note_on_c, 0, 71, 0
2, 33120, Note_on_c, 0, 71, 64
2, 33359, Note_on_c, 0, 71, 0
2, 33600, Note_on_c, 0, 71, 64
2, 33839, Note_on_c, 0, 71, 0
2, 34080, Note_on_c, 0, 72, 64
2, 34319, Note_on_c, 0, 72, 0
2, 34560, Note_on_c, 0, 74, 64
2, 34799, Note_on_c, 0, 74, 0
2, 35040, Note_on_c, 0, 74, 64
2, 35279, Note_on_c, 0, 74, 0
2, 35520, Note_on_c, 0, 74, 64
2, 35759, Note_on_c, 0, 74, 0
2, 36000, Note_on_c, 0, 74, 64
2, 36119, Note_on_c, 0, 74, 0
2, 36240, Note_on_c, 0, 71, 64
2, 36359, Note_on_c, 0, 71, 0
2, 36480, Note_on_c, 0, 72, 64
2, 36719, Note_on_c, 0, 72, 0
2, 36960, Note_on_c, 0, 72, 64
2, 37199, Note_on_c, 0, 72, 0
2, 37440, Note_on_c, 0, 72, 64
2, 37679, Note_on_c, 0, 72, 0
2, 37920, Note_on_c, 0, 72, 64
2, 38159, Note_on_c, 0, 72, 0
2, 38400, Note_on_c, 0, 72, 64
2, 38639, Note_on_c, 0, 72, 0
2, 38880, Note_on_c, 0, 72, 64
2, 39119, Note_on_c, 0, 72, 0
2, 39360, Note_on_c, 0, 72, 64
2, 39599, Note_on_c, 0, 72, 0
2, 39840, Note_on_c, 0, 72, 64
2, 39959, Note_on_c, 0, 72, 0
2, 40080, Note_on_c, 0, 72, 64
2, 40199, Note_on_c, 0, 72, 0
2, 40320, Note_on_c, 0, 71, 64
2, 40559, Note_on_c, 0, 71, 0
2, 40800, Note_on_c, 0, 71, 64
2, 41039, Note_on_c, 0, 71, 0
2, 41280, Note_on_c, 0, 71, 64
2, 41519, Note_on_c, 0, 71, 0
2, 41760, Note_on_c, 0, 72, 64
2, 41999, Note_on_c, 0, 72, 0
2, 42240, Note_on_c, 0, 74, 64
2, 42479, Note_on_c, 0, 74, 0
2, 42720, Note_on_c, 0, 74, 64
2, 42959, Note_on_c, 0, 74, 0
2, 43200, Note_on_c, 0, 74, 64
2, 43439, Note_on_c, 0, 74, 0
2, 43680, Note_on_c, 0, 74, 64
2, 43799, Note_on_c, 0, 74, 0
2, 43920, Note_on_c, 0, 71, 64
2, 44039, Note_on_c, 0, 71, 0
2, 44160, Note_on_c, 0, 72, 64
2, 44399, Note_on_c, 0, 72, 0
2, 44640, Note_on_c, 0, 72, 64
2, 44879, Note_on_c, 0, 72, 0
2, 45120, Note_on_c, 0, 72, 64
2, 45359, Note_on_c, 0, 72, 0
2, 45600, Note_on_c, 0, 72, 64
2, 45839, Note_on_c, 0, 72, 0
2, 46080, Note_on_c, 0, 72, 64
2, 46319, Note_on_c, 0, 72, 0
2, 46560, Note_on_c, 0, 72, 64
2, 46799, Note_on_c, 0, 72, 0
2, 47040, Note_on_c, 0, 72, 64
2, 47279, Note_on_c, 0, 72, 0
2, 47520, Note_on_c, 0, 72, 64
2, 47759, Note_on_c, 0, 72, 0
2, 48000, Note_on_c, 0, 71, 64
2, 48239, Note_on_c, 0, 71, 0
2, 48480, Note_on_c, 0, 71, 64
2, 48719, Note_on_c, 0, 71, 0
2, 48960, Note_on_c, 0, 71, 64
2, 49199, Note_on_c, 0, 71, 0
2, 49440, Note_on_c, 0, 71, 64
2, 49679, Note_on_c, 0, 71, 0
2, 49920, Note_on_c, 0, 71, 64
2, 50159, Note_on_c, 0, 71, 0
2, 50400, Note_on_c, 0, 71, 64
2, 50639, Note_on_c, 0, 71, 0
2, 50880, Note_on_c, 0, 71, 64
2, 51119, Note_on_c, 0, 71, 0
2, 51360, Note_on_c, 0, 71, 64
2, 51599, Note_on_c, 0, 71, 0
2, 51840, Note_on_c, 0, 69, 64
2, 52079, Note_on_c, 0, 69, 0
2, 52320, Note_on_c, 0, 69, 64
2, 52559, Note_on_c, 0, 69, 0
2, 52800, Note_on_c, 0, 69, 64
2, 53039, Note_on_c, 0, 69, 0
2, 53280, Note_on_c, 0, 69, 64
2, 53519, Note_on_c, 0, 69, 0
2, 53760, Note_on_c, 0, 72, 64
2, 53999, Note_on_c, 0, 72, 0
2, 54240, Note_on_c, 0, 72, 64
2, 54479, Note_on_c, 0, 72, 0
2, 54720, Note_on_c, 0, 72, 64
2, 54959, Note_on_c, 0, 72, 0
2, 55200, Note_on_c, 0, 72, 64
2, 55439, Note_on_c, 0, 72, 0
2, 55680, Note_on_c, 0, 71, 64
2, 55919, Note_on_c, 0, 71, 0
2, 56160, Note_on_c, 0, 71, 64
2, 56399, Note_on_c, 0, 71, 0
2, 56640, Note_on_c, 0, 71, 64
2, 56879, Note_on_c, 0, 71, 0
2, 57120, Note_on_c, 0, 71, 64
2, 57359, Note_on_c, 0, 71, 0
2, 57600, Note_on_c, 0, 71, 64
2, 57839, Note_on_c, 0, 71, 0
2, 58080, Note_on_c, 0, 71, 64
2, 58319, Note_on_c, 0, 71, 0
2, 58560, Note_on_c, 0, 71, 64
2, 58799, Note_on_c, 0, 71, 0
2, 59040, Note_on_c, 0, 71, 64
2, 59279, Note_on_c, 0, 71, 0
2, 59520, Note_on_c, 0, 69, 64
2, 59759, Note_on_c, 0, 69, 0
2, 60000, Note_on_c, 0, 69, 64
2, 60239, Note_on_c, 0, 69, 0
2, 60480, Note_on_c, 0, 69, 64
2, 60719, Note_on_c, 0, 69, 0
2, 60960, Note_on_c, 0, 69, 64
2, 61199, Note_on_c, 0, 69, 0
2, 61440, Note_on_c, 0, 72, 64
2, 61679, Note_on_c, 0, 72, 0
2, 61920, Note_on_c, 0, 72, 64
2, 62159, Note_on_c, 0, 72, 0
2, 62400, Note_on_c, 0, 72, 64
2, 62639, Note_on_c, 0, 72, 0
2, 62880, Note_on_c, 0, 72, 64
2, 63119, Note_on_c, 0, 72, 0
2, 63360, Note_on_c, 0, 71, 64
2, 63599, Note_on_c, 0, 71, 0
2, 63840, Note_on_c, 0, 71, 64
2, 64079, Note_on_c, 0, 71, 0
2, 64320, Note_on_c, 0, 71, 64
2, 64559, Note_on_c, 0, 71, 0
2, 64800, Note_on_c, 0, 71, 64
2, 65039, Note_on_c, 0, 71, 0
2, 65280, Note_on_c, 0, 71, 64
2, 65519, Note_on_c, 0, 71, 0
2, 65760, Note_on_c, 0, 71, 64
2, 65999, Note_on_c, 0, 71, 0
2, 66240, Note_on_c, 0, 71, 64
2, 66479, Note_on_c, 0, 71, 0
2, 66720, Note_on_c, 0, 71, 64
2, 66959, Note_on_c, 0, 71, 0
2, 67200, Note_on_c, 0, 69, 64
2, 67439, Note_on_c, 0, 69, 0
2, 67680, Note_on_c, 0, 69, 64
2, 67919, Note_on_c, 0, 69, 0
2, 68160, Note_on_c, 0, 69, 64
2, 68399, Note_on_c, 0, 69, 0
2, 68640, Note_on_c, 0, 69, 64
2, 68879, Note_on_c, 0, 69, 0
2, 69120, Note_on_c, 0, 72, 64
2, 69359, Note_on_c, 0, 72, 0
2, 69600, Note_on_c, 0, 72, 64
2, 69839, Note_on_c, 0, 72, 0
2, 70080, Note_on_c, 0, 72, 64
2, 70319, Note_on_c, 0, 72, 0
2, 70560, Note_on_c, 0, 72, 64
2, 70799, Note_on_c, 0, 72, 0
2, 71040, Note_on_c, 0, 71, 64
2, 71279, Note_on_c, 0, 71, 0
2, 71520, Note_on_c, 0, 71, 64
2, 71759, Note_on_c, 0, 71, 0
2, 72000, Note_on_c, 0, 71, 64
2, 72239, Note_on_c, 0, 71, 0
2, 72480, Note_on_c, 0, 71, 64
2, 72719, Note_on_c, 0, 71, 0
2, 72960, Note_on_c, 0, 71, 64
2, 73199, Note_on_c, 0, 71, 0
2, 73440, Note_on_c, 0, 71, 64
2, 73679, Note_on_c, 0, 71, 0
2, 73920, Note_on_c, 0, 71, 64
2, 74159, Note_on_c, 0, 71, 0
2, 74400, Note_on_c, 0, 71, 64
2, 74639, Note_on_c, 0, 71, 0
2, 74880, Note_on_c, 0, 71, 64
2, 75119, Note_on_c, 0, 71, 0
2, 75360, Note_on_c, 0, 71, 64
2, 75599, Note_on_c, 0, 71, 0
2, 75840, Note_on_c, 0, 71, 64
2, 76079, Note_on_c, 0, 71, 0
2, 76320, Note_on_c, 0, 71, 64
2, 76551, Note_on_c, 0, 71, 0
2, 76552, End_track
3, 0, Start_track
3, 0, Title_t, "Instrument_02\000"
3, 0, Key_signature, 0, "major"
3, 0, Control_c, 1, 121, 0
3, 0, Program_c, 1, 81
3, 0, Control_c, 1, 7, 100
3, 0, Control_c, 1, 10, 64
3, 0, Control_c, 1, 91, 0
3, 0, Control_c, 1, 93, 0
3, 0, MIDI_port, 0
3, 0, Note_on_c, 1, 69, 64
3, 239, Note_on_c, 1, 69, 0
3, 480, Note_on_c, 1, 69, 64
3, 719, Note_on_c, 1, 69, 0
3, 960, Note_on_c, 1, 69, 64
3, 1199, Note_on_c, 1, 69, 0
3, 1440, Note_on_c, 1, 69, 64
3, 1559, Note_on_c, 1, 69, 0
3, 1680, Note_on_c, 1, 69, 64
3, 1799, Note_on_c, 1, 69, 0
3, 1920, Note_on_c, 1, 67, 64
3, 2159, Note_on_c, 1, 67, 0
3, 2400, Note_on_c, 1, 67, 64
3, 2639, Note_on_c, 1, 67, 0
3, 2880, Note_on_c, 1, 67, 64
3, 3119, Note_on_c, 1, 67, 0
3, 3360, Note_on_c, 1, 67, 64
3, 3599, Note_on_c, 1, 67, 0
3, 3840, Note_on_c, 1, 67, 64
3, 4079, Note_on_c, 1, 67, 0
3, 4320, Note_on_c, 1, 67, 64
3, 4559, Note_on_c, 1, 67, 0
3, 4800, Note_on_c, 1, 67, 64
3, 5039, Note_on_c, 1, 67, 0
3, 5280, Note_on_c, 1, 67, 64
3, 5399, Note_on_c, 1, 67, 0
3, 5520, Note_on_c, 1, 67, 64
3, 5639, Note_on_c, 1, 67, 0
3, 5760, Note_on_c, 1, 67, 64
3, 5999, Note_on_c, 1, 67, 0
3, 6240, Note_on_c, 1, 67, 64
3, 6479, Note_on_c, 1, 67, 0
3, 6720, Note_on_c, 1, 67, 64
3, 6959, Note_on_c, 1, 67, 0
3, 7200, Note_on_c, 1, 67, 64
3, 7439, Note_on_c, 1, 67, 0
3, 7680, Note_on_c, 1, 69, 64
3, 7919, Note_on_c, 1, 69, 0
3, 8160, Note_on_c, 1, 69, 64
3, 8399, Note_on_c, 1, 69, 0
3, 8640, Note_on_c, 1, 69, 64
3, 8879, Note_on_c, 1, 69, 0
3, 9120, Note_on_c, 1, 69, 64
3, 9239, Note_on_c, 1, 69, 0
3, 9360, Note_on_c, 1, 69, 64
3, 9479, Note_on_c, 1, 69, 0
3, 9600, Note_on_c, 1, 67, 64
3, 9839, Note_on_c, 1, 67, 0
3, 10080, Note_on_c, 1, 67, 64
3, 10319, Note_on_c, 1, 67, 0
3, 10560, Note_on_c, 1, 67, 64
3, 10799, Note_on_c, 1, 67, 0
3, 11040, Note_on_c, 1, 67, 64
3, 11279, Note_on_c, 1, 67, 0
3, 11520, Note_on_c, 1, 67, 64
3, 11759, Note_on_c, 1, 67, 0
3, 12000, Note_on_c, 1, 67, 64
3, 12239, Note_on_c, 1, 67, 0
3, 12480, Note_on_c, 1, 67, 64
3, 12719, Note_on_c, 1, 67, 0
3, 12960, Note_on_c, 1, 67, 64
3, 13079, Note_on_c, 1, 67, 0
3, 13200, Note_on_c, 1, 67, 64
3, 13319, Note_on_c, 1, 67, 0
3, 13440, Note_on_c, 1, 67, 64
3, 13679, Note_on_c, 1, 67, 0
3, 13920, Note_on_c, 1, 67, 64
3, 14159, Note_on_c, 1, 67, 0
3, 14400, Note_on_c, 1, 67, 64
3, 14639, Note_on_c, 1, 67, 0
3, 14880, Note_on_c, 1, 67, 64
3, 15119, Note_on_c, 1, 67, 0
3, 15360, Note_on_c, 1, 69, 64
3, 15599, Note_on_c, 1, 69, 0
3, 15840, Note_on_c, 1, 69, 64
3, 16079, Note_on_c, 1, 69, 0
3, 16320, Note_on_c, 1, 69, 64
3, 16559, Note_on_c, 1, 69, 0
3, 16800, Note_on_c, 1, 69, 64
3, 16919, Note_on_c, 1, 69, 0
3, 17040, Note_on_c, 1, 69, 64
3, 17159, Note_on_c, 1, 69, 0
3, 17280, Note_on_c, 1, 67, 64
3, 17519, Note_on_c, 1, 67, 0
3, 17760, Note_on_c, 1, 67, 64
3, 17999, Note_on_c, 1, 67, 0
3, 18240, Note_on_c, 1, 67, 64
3, 18479, Note_on_c, 1, 67, 0
3, 18720, Note_on_c, 1, 67, 64
3, 18959, Note_on_c, 1, 67, 0
3, 19200, Note_on_c, 1, 67, 64
3, 19439, Note_on_c, 1, 67, 0
3, 19680, Note_on_c, 1, 67, 64
3, 19919, Note_on_c, 1, 67, 0
3, 20160, Note_on_c, 1, 67, 64
3, 20399, Note_on_c, 1, 67, 0
3, 20640, Note_on_c, 1, 67, 64
3, 20759, Note_on_c, 1, 67, 0
3, 20880, Note_on_c, 1, 67, 64
3, 20999, Note_on_c, 1, 67, 0
3, 21120, Note_on_c, 1, 67, 64
3, 21359, Note_on_c, 1, 67, 0
3, 21600, Note_on_c, 1, 67, 64
3, 21839, Note_on_c, 1, 67, 0
3, 22080, Note_on_c, 1, 67, 64
3, 22319, Note_on_c, 1, 67, 0
3, 22560, Note_on_c, 1, 67, 64
3, 22799, Note_on_c, 1, 67, 0
3, 23040, Note_on_c, 1, 69, 64
3, 23279, Note_on_c, 1, 69, 0
3, 23520, Note_on_c, 1, 69, 64
3, 23759, Note_on_c, 1, 69, 0
3, 24000, Note_on_c, 1, 69, 64
3, 24239, Note_on_c, 1, 69, 0
3, 24480, Note_on_c, 1, 69, 64
3, 24599, Note_on_c, 1, 69, 0
3, 24720, Note_on_c, 1, 69, 64
3, 24839, Note_on_c, 1, 69, 0
3, 24960, Note_on_c, 1, 67, 64
3, 25199, Note_on_c, 1, 67, 0
3, 25440, Note_on_c, 1, 67, 64
3, 25679, Note_on_c, 1, 67, 0
3, 25920, Note_on_c, 1, 67, 64
3, 26159, Note_on_c, 1, 67, 0
3, 26400, Note_on_c, 1, 67, 64
3, 26639, Note_on_c, 1, 67, 0
3, 26880, Note_on_c, 1, 67, 64
3, 27119, Note_on_c, 1, 67, 0
3, 27360, Note_on_c, 1, 67, 64
3, 27599, Note_on_c, 1, 67, 0
3, 27840, Note_on_c, 1, 67, 64
3, 28079, Note_on_c, 1, 67, 0
3, 28320, Note_on_c, 1, 67, 64
3, 28439, Note_on_c, 1, 67, 0
3, 28560, Note_on_c, 1, 67, 64
3, 28679, Note_on_c, 1, 67, 0
3, 28800, Note_on_c, 1, 67, 64
3, 29039, Note_on_c, 1, 67, 0
3, 29280, Note_on_c, 1, 67, 64
3, 29519, Note_on_c, 1, 67, 0
3, 29760, Note_on_c, 1, 67, 64
3, 29999, Note_on_c, 1, 67, 0
3, 30240, Note_on_c, 1, 67, 64
3, 30479, Note_on_c, 1, 67, 0
3, 30720, Note_on_c, 1, 69, 64
3, 30959, Note_on_c, 1, 69, 0
3, 31200, Note_on_c, 1, 69, 64
3, 31439, Note_on_c, 1, 69, 0
3, 31680, Note_on_c, 1, 69, 64
3, 31919, Note_on_c, 1, 69, 0
3, 32160, Note_on_c, 1, 69, 64
3, 32279, Note_on_c, 1, 69, 0
3, 32400, Note_on_c, 1, 69, 64
3, 32519, Note_on_c, 1, 69, 0
3, 32640, Note_on_c, 1, 67, 64
3, 32879, Note_on_c, 1, 67, 0
3, 33120, Note_on_c, 1, 67, 64
3, 33359, Note_on_c, 1, 67, 0
3, 33600, Note_on_c, 1, 67, 64
3, 33839, Note_on_c, 1, 67, 0
3, 34080, Note_on_c, 1, 67, 64
3, 34319, Note_on_c, 1, 67, 0
3, 34560, Note_on_c, 1, 67, 64
3, 34799, Note_on_c, 1, 67, 0
3, 35040, Note_on_c, 1, 67, 64
3, 35279, Note_on_c, 1, 67, 0
3, 35520, Note_on_c, 1, 67, 64
3, 35759, Note_on_c, 1, 67, 0
3, 36000, Note_on_c, 1, 67, 64
3, 36119, Note_on_c, 1, 67, 0
3, 36240, Note_on_c, 1, 67, 64
3, 36359, Note_on_c, 1, 67, 0
3, 36480, Note_on_c, 1, 67, 64
3, 36719, Note_on_c, 1, 67, 0
3, 36960, Note_on_c, 1, 67, 64
3, 37199, Note_on_c, 1, 67, 0
3, 37440, Note_on_c, 1, 67, 64
3, 37679, Note_on_c, 1, 67, 0
3, 37920, Note_on_c, 1, 67, 64
3, 38159, Note_on_c, 1, 67, 0
3, 38400, Note_on_c, 1, 69, 64
3, 38639, Note_on_c, 1, 69, 0
3, 38880, Note_on_c, 1, 69, 64
3, 39119, Note_on_c, 1, 69, 0
3, 39360, Note_on_c, 1, 69, 64
3, 39599, Note_on_c, 1, 69, 0
3, 39840, Note_on_c, 1, 69, 64
3, 39959, Note_on_c, 1, 69, 0
3, 40080, Note_on_c, 1, 69, 64
3, 40199, Note_on_c, 1, 69, 0
3, 40320, Note_on_c, 1, 67, 64
3, 40559, Note_on_c, 1, 67, 0
3, 40800, Note_on_c, 1, 67, 64
3, 41039, Note_on_c, 1, 67, 0
3, 41280, Note_on_c, 1, 67, 64
3, 41519, Note_on_c, 1, 67, 0
3, 41760, Note_on_c, 1, 67, 64
3, 41999, Note_on_c, 1, 67, 0
3, 42240, Note_on_c, 1, 67, 64
3, 42479, Note_on_c, 1, 67, 0
3, 42720, Note_on_c, 1, 67, 64
3, 42959, Note_on_c, 1, 67, 0
3, 43200, Note_on_c, 1, 67, 64
3, 43439, Note_on_c, 1, 67, 0
3, 43680, Note_on_c, 1, 67, 64
3, 43799, Note_on_c, 1, 67, 0
3, 43920, Note_on_c, 1, 67, 64
3, 44039, Note_on_c, 1, 67, 0
3, 44160, Note_on_c, 1, 67, 64
3, 44399, Note_on_c, 1, 67, 0
3, 44640, Note_on_c, 1, 67, 64
3, 44879, Note_on_c, 1, 67, 0
3, 45120, Note_on_c, 1, 67, 64
3, 45359, Note_on_c, 1, 67, 0
3, 45600, Note_on_c, 1, 67, 64
3, 45839, Note_on_c, 1, 67, 0
3, 46080, Note_on_c, 1, 69, 64
3, 46319, Note_on_c, 1, 69, 0
3, 46560, Note_on_c, 1, 69, 64
3, 46799, Note_on_c, 1, 69, 0
3, 47040, Note_on_c, 1, 69, 64
3, 47279, Note_on_c, 1, 69, 0
3, 47520, Note_on_c, 1, 69, 64
3, 47759, Note_on_c, 1, 69, 0
3, 48000, Note_on_c, 1, 67, 64
3, 48239, Note_on_c, 1, 67, 0
3, 48480, Note_on_c, 1, 67, 64
3, 48719, Note_on_c, 1, 67, 0
3, 48960, Note_on_c, 1, 67, 64
3, 49199, Note_on_c, 1, 67, 0
3, 49440, Note_on_c, 1, 67, 64
3, 49679, Note_on_c, 1, 67, 0
3, 49920, Note_on_c, 1, 67, 64
3, 50159, Note_on_c, 1, 67, 0
3, 50400, Note_on_c, 1, 67, 64
3, 50639, Note_on_c, 1, 67, 0
3, 50880, Note_on_c, 1, 67, 64
3, 51119, Note_on_c, 1, 67, 0
3, 51360, Note_on_c, 1, 67, 64
3, 51599, Note_on_c, 1, 67, 0
3, 51840, Note_on_c, 1, 65, 64
3, 52079, Note_on_c, 1, 65, 0
3, 52320, Note_on_c, 1, 65, 64
3, 52559, Note_on_c, 1, 65, 0
3, 52800, Note_on_c, 1, 65, 64
3, 53039, Note_on_c, 1, 65, 0
3, 53280, Note_on_c, 1, 65, 64
3, 53519, Note_on_c, 1, 65, 0
3, 53760, Note_on_c, 1, 69, 64
3, 53999, Note_on_c, 1, 69, 0
3, 54240, Note_on_c, 1, 69, 64
3, 54479, Note_on_c, 1, 69, 0
3, 54720, Note_on_c, 1, 69, 64
3, 54959, Note_on_c, 1, 69, 0
3, 55200, Note_on_c, 1, 69, 64
3, 55439, Note_on_c, 1, 69, 0
3, 55680, Note_on_c, 1, 67, 64
3, 55919, Note_on_c, 1, 67, 0
3, 56160, Note_on_c, 1, 67, 64
3, 56399, Note_on_c, 1, 67, 0
3, 56640, Note_on_c, 1, 67, 64
3, 56879, Note_on_c, 1, 67, 0
3, 57120, Note_on_c, 1, 67, 64
3, 57359, Note_on_c, 1, 67, 0
3, 57600, Note_on_c, 1, 67, 64
3, 57839, Note_on_c, 1, 67, 0
3, 58080, Note_on_c, 1, 67, 64
3, 58319, Note_on_c, 1, 67, 0
3, 58560, Note_on_c, 1, 67, 64
3, 58799, Note_on_c, 1, 67, 0
3, 59040, Note_on_c, 1, 67, 64
3, 59279, Note_on_c, 1, 67, 0
3, 59520, Note_on_c, 1, 65, 64
3, 59759, Note_on_c, 1, 65, 0
3, 60000, Note_on_c, 1, 65, 64
3, 60239, Note_on_c, 1, 65, 0
3, 60480, Note_on_c, 1, 65, 64
3, 60719, Note_on_c, 1, 65, 0
3, 60960, Note_on_c, 1, 65, 64
3, 61199, Note_on_c, 1, 65, 0
3, 61440, Note_on_c, 1, 69, 64
3, 61679, Note_on_c, 1, 69, 0
3, 61920, Note_on_c, 1, 69, 64
3, 62159, Note_on_c, 1, 69, 0
3, 62400, Note_on_c, 1, 69, 64
3, 62639, Note_on_c, 1, 69, 0
3, 62880, Note_on_c, 1, 69, 64
3, 63119, Note_on_c, 1, 69, 0
3, 63360, Note_on_c, 1, 67, 64
3, 63599, Note_on_c, 1, 67, 0
3, 63840, Note_on_c, 1, 67, 64
3, 64079, Note_on_c, 1, 67, 0
3, 64320, Note_on_c, 1, 67, 64
3, 64559, Note_on_c, 1, 67, 0
3, 64800, Note_on_c, 1, 67, 64
3, 65039, Note_on_c, 1, 67, 0
3, 65280, Note_on_c, 1, 67, 64
3, 65519, Note_on_c, 1, 67, 0
3, 65760, Note_on_c, 1, 67, 64
3, 65999, Note_on_c, 1, 67, 0
3, 66240, Note_on_c, 1, 67, 64
3, 66479, Note_on_c, 1, 67, 0
3, 66720, Note_on_c, 1, 67, 64
3, 66959, Note_on_c, 1, 67, 0
3, 67200, Note_on_c, 1, 65, 64
3, 67439, Note_on_c, 1, 65, 0
3, 67680, Note_on_c, 1, 65, 64
3, 67919, Note_on_c, 1, 65, 0
3, 68160, Note_on_c, 1, 65, 64
3, 68399, Note_on_c, 1, 65, 0
3, 68640, Note_on_c, 1, 65, 64
3, 68879, Note_on_c, 1, 65, 0
3, 69120, Note_on_c, 1, 69, 64
3, 69359, Note_on_c, 1, 69, 0
3, 69600, Note_on_c, 1, 69, 64
3, 69839, Note_on_c, 1, 69, 0
3, 70080, Note_on_c, 1, 69, 64
3, 70319, Note_on_c, 1, 69, 0
3, 70560, Note_on_c, 1, 69, 64
3, 70799, Note_on_c, 1, 69, 0
3, 71040, Note_on_c, 1, 67, 64
3, 71279, Note_on_c, 1, 67, 0
3, 71520, Note_on_c, 1, 67, 64
3, 71759, Note_on_c, 1, 67, 0
3, 72000, Note_on_c, 1, 67, 64
3, 72239, Note_on_c, 1, 67, 0
3, 72480, Note_on_c, 1, 67, 64
3, 72719, Note_on_c, 1, 67, 0
3, 72960, Note_on_c, 1, 67, 64
3, 73199, Note_on_c, 1, 67, 0
3, 73440, Note_on_c, 1, 67, 64
3, 73679, Note_on_c, 1, 67, 0
3, 73920, Note_on_c, 1, 67, 64
3, 74159, Note_on_c, 1, 67, 0
3, 74400, Note_on_c, 1, 67, 64
3, 74639, Note_on_c, 1, 67, 0
3, 74880, Note_on_c, 1, 67, 64
3, 75119, Note_on_c, 1, 67, 0
3, 75360, Note_on_c, 1, 67, 64
3, 75599, Note_on_c, 1, 67, 0
3, 75840, Note_on_c, 1, 67, 64
3, 76079, Note_on_c, 1, 67, 0
3, 76320, Note_on_c, 1, 67, 64
3, 76551, Note_on_c, 1, 67, 0
3, 76552, End_track
4, 0, Start_track
4, 0, Title_t, "Instrument_03\000"
4, 0, Key_signature, 0, "major"
4, 0, Control_c, 2, 121, 0
4, 0, Program_c, 2, 81
4, 0, Control_c, 2, 7, 100
4, 0, Control_c, 2, 10, 64
4, 0, Control_c, 2, 91, 0
4, 0, Control_c, 2, 93, 0
4, 0, MIDI_port, 0
4, 0, Note_on_c, 2, 64, 64
4, 239, Note_on_c, 2, 64, 0
4, 480, Note_on_c, 2, 64, 64
4, 719, Note_on_c, 2, 64, 0
4, 960, Note_on_c, 2, 64, 64
4, 1199, Note_on_c, 2, 64, 0
4, 1440, Note_on_c, 2, 64, 64
4, 1559, Note_on_c, 2, 64, 0
4, 1680, Note_on_c, 2, 64, 64
4, 1799, Note_on_c, 2, 64, 0
4, 1920, Note_on_c, 2, 62, 64
4, 2159, Note_on_c, 2, 62, 0
4, 2400, Note_on_c, 2, 62, 64
4, 2639, Note_on_c, 2, 62, 0
4, 2880, Note_on_c, 2, 62, 64
4, 3119, Note_on_c, 2, 62, 0
4, 3360, Note_on_c, 2, 62, 64
4, 3599, Note_on_c, 2, 62, 0
4, 3840, Note_on_c, 2, 64, 64
4, 4079, Note_on_c, 2, 64, 0
4, 4320, Note_on_c, 2, 64, 64
4, 4559, Note_on_c, 2, 64, 0
4, 4800, Note_on_c, 2, 64, 64
4, 5039, Note_on_c, 2, 64, 0
4, 5280, Note_on_c, 2, 64, 64
4, 5399, Note_on_c, 2, 64, 0
4, 5520, Note_on_c, 2, 64, 64
4, 5639, Note_on_c, 2, 64, 0
4, 5760, Note_on_c, 2, 64, 64
4, 5999, Note_on_c, 2, 64, 0
4, 6240, Note_on_c, 2, 64, 64
4, 6479, Note_on_c, 2, 64, 0
4, 6720, Note_on_c, 2, 64, 64
4, 6959, Note_on_c, 2, 64, 0
4, 7200, Note_on_c, 2, 64, 64
4, 7439, Note_on_c, 2, 64, 0
4, 7680, Note_on_c, 2, 64, 64
4, 7919, Note_on_c, 2, 64, 0
4, 8160, Note_on_c, 2, 64, 64
4, 8399, Note_on_c, 2, 64, 0
4, 8640, Note_on_c, 2, 64, 64
4, 8879, Note_on_c, 2, 64, 0
4, 9120, Note_on_c, 2, 64, 64
4, 9239, Note_on_c, 2, 64, 0
4, 9360, Note_on_c, 2, 64, 64
4, 9479, Note_on_c, 2, 64, 0
4, 9600, Note_on_c, 2, 62, 64
4, 9839, Note_on_c, 2, 62, 0
4, 10080, Note_on_c, 2, 62, 64
4, 10319, Note_on_c, 2, 62, 0
4, 10560, Note_on_c, 2, 62, 64
4, 10799, Note_on_c, 2, 62, 0
4, 11040, Note_on_c, 2, 62, 64
4, 11279, Note_on_c, 2, 62, 0
4, 11520, Note_on_c, 2, 64, 64
4, 11759, Note_on_c, 2, 64, 0
4, 12000, Note_on_c, 2, 64, 64
4, 12239, Note_on_c, 2, 64, 0
4, 12480, Note_on_c, 2, 64, 64
4, 12719, Note_on_c, 2, 64, 0
4, 12960, Note_on_c, 2, 64, 64
4, 13079, Note_on_c, 2, 64, 0
4, 13200, Note_on_c, 2, 64, 64
4, 13319, Note_on_c, 2, 64, 0
4, 13440, Note_on_c, 2, 64, 64
4, 13679, Note_on_c, 2, 64, 0
4, 13920, Note_on_c, 2, 64, 64
4, 14159, Note_on_c, 2, 64, 0
4, 14400, Note_on_c, 2, 64, 64
4, 14639, Note_on_c, 2, 64, 0
4, 14880, Note_on_c, 2, 64, 64
4, 15119, Note_on_c, 2, 64, 0
4, 15360, Note_on_c, 2, 64, 64
4, 15599, Note_on_c, 2, 64, 0
4, 15840, Note_on_c, 2, 64, 64
4, 16079, Note_on_c, 2, 64, 0
4, 16320, Note_on_c, 2, 64, 64
4, 16559, Note_on_c, 2, 64, 0
4, 16800, Note_on_c, 2, 64, 64
4, 16919, Note_on_c, 2, 64, 0
4, 17040, Note_on_c, 2, 64, 64
4, 17159, Note_on_c, 2, 64, 0
4, 17280, Note_on_c, 2, 62, 64
4, 17519, Note_on_c, 2, 62, 0
4, 17760, Note_on_c, 2, 62, 64
4, 17999, Note_on_c, 2, 62, 0
4, 18240, Note_on_c, 2, 62, 64
4, 18479, Note_on_c, 2, 62, 0
4, 18720, Note_on_c, 2, 62, 64
4, 18959, Note_on_c, 2, 62, 0
4, 19200, Note_on_c, 2, 64, 64
4, 19439, Note_on_c, 2, 64, 0
4, 19680, Note_on_c, 2, 64, 64
4, 19919, Note_on_c, 2, 64, 0
4, 20160, Note_on_c, 2, 64, 64
4, 20399, Note_on_c, 2, 64, 0
4, 20640, Note_on_c, 2, 64, 64
4, 20759, Note_on_c, 2, 64, 0
4, 20880, Note_on_c, 2, 64, 64
4, 20999, Note_on_c, 2, 64, 0
4, 21120, Note_on_c, 2, 64, 64
4, 21359, Note_on_c, 2, 64, 0
4, 21600, Note_on_c, 2, 64, 64
4, 21839, Note_on_c, 2, 64, 0
4, 22080, Note_on_c, 2, 64, 64
4, 22319, Note_on_c, 2, 64, 0
4, 22560, Note_on_c, 2, 64, 64
4, 22799, Note_on_c, 2, 64, 0
4, 23040, Note_on_c, 2, 64, 64
4, 23279, Note_on_c, 2, 64, 0
4, 23520, Note_on_c, 2, 64, 64
4, 23759, Note_on_c, 2, 64, 0
4, 24000, Note_on_c, 2, 64, 64
4, 24239, Note_on_c, 2, 64, 0
4, 24480, Note_on_c, 2, 64, 64
4, 24599, Note_on_c, 2, 64, 0
4, 24720, Note_on_c, 2, 64, 64
4, 24839, Note_on_c, 2, 64, 0
4, 24960, Note_on_c, 2, 62, 64
4, 25199, Note_on_c, 2, 62, 0
4, 25440, Note_on_c, 2, 62, 64
4, 25679, Note_on_c, 2, 62, 0
4, 25920, Note_on_c, 2, 62, 64
4, 26159, Note_on_c, 2, 62, 0
4, 26400, Note_on_c, 2, 62, 64
4, 26639, Note_on_c, 2, 62, 0
4, 26880, Note_on_c, 2, 64, 64
4, 27119, Note_on_c, 2, 64, 0
4, 27360, Note_on_c, 2, 64, 64
4, 27599, Note_on_c, 2, 64, 0
4, 27840, Note_on_c, 2, 64, 64
4, 28079, Note_on_c, 2, 64, 0
4, 28320, Note_on_c, 2, 64, 64
4, 28439, Note_on_c, 2, 64, 0
4, 28560, Note_on_c, 2, 64, 64
4, 28679, Note_on_c, 2, 64, 0
4, 28800, Note_on_c, 2, 64, 64
4, 29039, Note_on_c, 2, 64, 0
4, 29280, Note_on_c, 2, 64, 64
4, 29519, Note_on_c, 2, 64, 0
4, 29760, Note_on_c, 2, 64, 64
4, 29999, Note_on_c, 2, 64, 0
4, 30240, Note_on_c, 2, 64, 64
4, 30479, Note_on_c, 2, 64, 0
4, 30720, Note_on_c, 2, 64, 64
4, 30959, Note_on_c, 2, 64, 0
4, 31200, Note_on_c, 2, 64, 64
4, 31439, Note_on_c, 2, 64, 0
4, 31680, Note_on_c, 2, 64, 64
4, 31919, Note_on_c, 2, 64, 0
4, 32160, Note_on_c, 2, 64, 64
4, 32279, Note_on_c, 2, 64, 0
4, 32400, Note_on_c, 2, 64, 64
4, 32519, Note_on_c, 2, 64, 0
4, 32640, Note_on_c, 2, 62, 64
4, 32879, Note_on_c, 2, 62, 0
4, 33120, Note_on_c, 2, 62, 64
4, 33359, Note_on_c, 2, 62, 0
4, 33600, Note_on_c, 2, 62, 64
4, 33839, Note_on_c, 2, 62, 0
4, 34080, Note_on_c, 2, 62, 64
4, 34319, Note_on_c, 2, 62, 0
4, 34560, Note_on_c, 2, 64, 64
4, 34799, Note_on_c, 2, 64, 0
4, 35040, Note_on_c, 2, 64, 64
4, 35279, Note_on_c, 2, 64, 0
4, 35520, Note_on_c, 2, 64, 64
4, 35759, Note_on_c, 2, 64, 0
4, 36000, Note_on_c, 2, 64, 64
4, 36119, Note_on_c, 2, 64, 0
4, 36240, Note_on_c, 2, 64, 64
4, 36359, Note_on_c, 2, 64, 0
4, 36480, Note_on_c, 2, 64, 64
4, 36719, Note_on_c, 2, 64, 0
4, 36960, Note_on_c, 2, 64, 64
4, 37199, Note_on_c, 2, 64, 0
4, 37440, Note_on_c, 2, 64, 64
4, 37679, Note_on_c, 2, 64, 0
4, 37920, Note_on_c, 2, 64, 64
4, 38159, Note_on_c, 2, 64, 0
4, 38400, Note_on_c, 2, 64, 64
4, 38639, Note_on_c, 2, 64, 0
4, 38880, Note_on_c, 2, 64, 64
4, 39119, Note_on_c, 2, 64, 0
4, 39360, Note_on_c, 2, 64, 64
4, 39599, Note_on_c, 2, 64, 0
4, 39840, Note_on_c, 2, 64, 64
4, 39959, Note_on_c, 2, 64, 0
4, 40080, Note_on_c, 2, 64, 64
4, 40199, Note_on_c, 2, 64, 0
4, 40320, Note_on_c, 2, 62, 64
4, 40559, Note_on_c, 2, 62, 0
4, 40800, Note_on_c, 2, 62, 64
4, 41039, Note_on_c, 2, 62, 0
4, 41280, Note_on_c, 2, 62, 64
4, 41519, Note_on_c, 2, 62, 0
4, 41760, Note_on_c, 2, 62, 64
4, 41999, Note_on_c, 2, 62, 0
4, 42240, Note_on_c, 2, 64, 64
4, 42479, Note_on_c, 2, 64, 0
4, 42720, Note_on_c, 2, 64, 64
4, 42959, Note_on_c, 2, 64, 0
4, 43200, Note_on_c, 2, 64, 64
4, 43439, Note_on_c, 2, 64, 0
4, 43680, Note_on_c, 2, 64, 64
4, 43799, Note_on_c, 2, 64, 0
4, 43920, Note_on_c, 2, 64, 64
4, 44039, Note_on_c, 2, 64, 0
4, 44160, Note_on_c, 2, 64, 64
4, 44399, Note_on_c, 2, 64, 0
4, 44640, Note_on_c, 2, 64, 64
4, 44879, Note_on_c, 2, 64, 0
4, 45120, Note_on_c, 2, 64, 64
4, 45359, Note_on_c, 2, 64, 0
4, 45600, Note_on_c, 2, 64, 64
4, 45839, Note_on_c, 2, 64, 0
4, 46080, Note_on_c, 2, 65, 64
4, 46319, Note_on_c, 2, 65, 0
4, 46560, Note_on_c, 2, 65, 64
4, 46799, Note_on_c, 2, 65, 0
4, 47040, Note_on_c, 2, 65, 64
4, 47279, Note_on_c, 2, 65, 0
4, 47520, Note_on_c, 2, 65, 64
4, 47759, Note_on_c, 2, 65, 0
4, 48000, Note_on_c, 2, 65, 64
4, 48239, Note_on_c, 2, 65, 0
4, 48480, Note_on_c, 2, 65, 64
4, 48719, Note_on_c, 2, 65, 0
4, 48960, Note_on_c, 2, 65, 64
4, 49199, Note_on_c, 2, 65, 0
4, 49440, Note_on_c, 2, 65, 64
4, 49679, Note_on_c, 2, 65, 0
4, 49920, Note_on_c, 2, 64, 64
4, 50159, Note_on_c, 2, 64, 0
4, 50400, Note_on_c, 2, 64, 64
4, 50639, Note_on_c, 2, 64, 0
4, 50880, Note_on_c, 2, 64, 64
4, 51119, Note_on_c, 2, 64, 0
4, 51360, Note_on_c, 2, 64, 64
4, 51599, Note_on_c, 2, 64, 0
4, 51840, Note_on_c, 2, 64, 64
4, 52079, Note_on_c, 2, 64, 0
4, 52320, Note_on_c, 2, 64, 64
4, 52559, Note_on_c, 2, 64, 0
4, 52800, Note_on_c, 2, 64, 64
4, 53039, Note_on_c, 2, 64, 0
4, 53280, Note_on_c, 2, 64, 64
4, 53519, Note_on_c, 2, 64, 0
4, 53760, Note_on_c, 2, 65, 64
4, 53999, Note_on_c, 2, 65, 0
4, 54240, Note_on_c, 2, 65, 64
4, 54479, Note_on_c, 2, 65, 0
4, 54720, Note_on_c, 2, 65, 64
4, 54959, Note_on_c, 2, 65, 0
4, 55200, Note_on_c, 2, 65, 64
4, 55439, Note_on_c, 2, 65, 0
4, 55680, Note_on_c, 2, 65, 64
4, 55919, Note_on_c, 2, 65, 0
4, 56160, Note_on_c, 2, 65, 64
4, 56399, Note_on_c, 2, 65, 0
4, 56640, Note_on_c, 2, 65, 64
4, 56879, Note_on_c, 2, 65, 0
4, 57120, Note_on_c, 2, 65, 64
4, 57359, Note_on_c, 2, 65, 0
4, 57600, Note_on_c, 2, 64, 64
4, 57839, Note_on_c, 2, 64, 0
4, 58080, Note_on_c, 2, 64, 64
4, 58319, Note_on_c, 2, 64, 0
4, 58560, Note_on_c, 2, 64, 64
4, 58799, Note_on_c, 2, 64, 0
4, 59040, Note_on_c, 2, 64, 64
4, 59279, Note_on_c, 2, 64, 0
4, 59520, Note_on_c, 2, 64, 64
4, 59759, Note_on_c, 2, 64, 0
4, 60000, Note_on_c, 2, 64, 64
4, 60239, Note_on_c, 2, 64, 0
4, 60480, Note_on_c, 2, 64, 64
4, 60719, Note_on_c, 2, 64, 0
4, 60960, Note_on_c, 2, 64, 64
4, 61199, Note_on_c, 2, 64, 0
4, 61440, Note_on_c, 2, 65, 64
4, 61679, Note_on_c, 2, 65, 0
4, 61920, Note_on_c, 2, 65, 64
4, 62159, Note_on_c, 2, 65, 0
4, 62400, Note_on_c, 2, 65, 64
4, 62639, Note_on_c, 2, 65, 0
4, 62880, Note_on_c, 2, 65, 64
4, 63119, Note_on_c, 2, 65, 0
4, 63360, Note_on_c, 2, 65, 64
4, 63599, Note_on_c, 2, 65, 0
4, 63840, Note_on_c, 2, 65, 64
4, 64079, Note_on_c, 2, 65, 0
4, 64320, Note_on_c, 2, 65, 64
4, 64559, Note_on_c, 2, 65, 0
4, 64800, Note_on_c, 2, 65, 64
4, 65039, Note_on_c, 2, 65, 0
4, 65280, Note_on_c, 2, 64, 64
4, 65519, Note_on_c, 2, 64, 0
4, 65760, Note_on_c, 2, 64, 64
4, 65999, Note_on_c, 2, 64, 0
4, 66240, Note_on_c, 2, 64, 64
4, 66479, Note_on_c, 2, 64, 0
4, 66720, Note_on_c, 2, 64, 64
4, 66959, Note_on_c, 2, 64, 0
4, 67200, Note_on_c, 2, 64, 64
4, 67439, Note_on_c, 2, 64, 0
4, 67680, Note_on_c, 2, 64, 64
4, 67919, Note_on_c, 2, 64, 0
4, 68160, Note_on_c, 2, 64, 64
4, 68399, Note_on_c, 2, 64, 0
4, 68640, Note_on_c, 2, 64, 64
4, 68879, Note_on_c, 2, 64, 0
4, 69120, Note_on_c, 2, 65, 64
4, 69359, Note_on_c, 2, 65, 0
4, 69600, Note_on_c, 2, 65, 64
4, 69839, Note_on_c, 2, 65, 0
4, 70080, Note_on_c, 2, 65, 64
4, 70319, Note_on_c, 2, 65, 0
4, 70560, Note_on_c, 2, 65, 64
4, 70799, Note_on_c, 2, 65, 0
4, 71040, Note_on_c, 2, 65, 64
4, 71279, Note_on_c, 2, 65, 0
4, 71520, Note_on_c, 2, 65, 64
4, 71759, Note_on_c, 2, 65, 0
4, 72000, Note_on_c, 2, 65, 64
4, 72239, Note_on_c, 2, 65, 0
4, 72480, Note_on_c, 2, 65, 64
4, 72719, Note_on_c, 2, 65, 0
4, 72960, Note_on_c, 2, 65, 64
4, 73199, Note_on_c, 2, 65, 0
4, 73440, Note_on_c, 2, 65, 64
4, 73679, Note_on_c, 2, 65, 0
4, 73920, Note_on_c, 2, 65, 64
4, 74159, Note_on_c, 2, 65, 0
4, 74400, Note_on_c, 2, 65, 64
4, 74639, Note_on_c, 2, 65, 0
4, 74880, Note_on_c, 2, 64, 64
4, 75119, Note_on_c, 2, 64, 0
4, 75360, Note_on_c, 2, 64, 64
4, 75599, Note_on_c, 2, 64, 0
4, 75840, Note_on_c, 2, 64, 64
4, 76079, Note_on_c, 2, 64, 0
4, 76320, Note_on_c, 2, 64, 64
4, 76551, Note_on_c, 2, 64, 0
4, 76552, End_track
5, 0, Start_track
5, 0, Title_t, "Instrument_04\000"
5, 0, Key_signature, 0, "major"
5, 0, Control_c, 3, 121, 0
5, 0, Program_c, 3, 81
5, 0, Control_c, 3, 7, 100
5, 0, Control_c, 3, 10, 64
5, 0, Control_c, 3, 91, 0
5, 0, Control_c, 3, 93, 0
5, 0, MIDI_port, 0
5, 0, Note_on_c, 3, 53, 64
5, 239, Note_on_c, 3, 53, 0
5, 480, Note_on_c, 3, 53, 64
5, 719, Note_on_c, 3, 53, 0
5, 960, Note_on_c, 3, 53, 64
5, 1199, Note_on_c, 3, 53, 0
5, 1440, Note_on_c, 3, 53, 64
5, 1559, Note_on_c, 3, 53, 0
5, 1680, Note_on_c, 3, 53, 64
5, 1799, Note_on_c, 3, 53, 0
5, 1920, Note_on_c, 3, 53, 64
5, 2159, Note_on_c, 3, 53, 0
5, 2400, Note_on_c, 3, 53, 64
5, 2639, Note_on_c, 3, 53, 0
5, 2880, Note_on_c, 3, 53, 64
5, 3119, Note_on_c, 3, 53, 0
5, 3360, Note_on_c, 3, 53, 64
5, 3599, Note_on_c, 3, 53, 0
5, 3840, Note_on_c, 3, 52, 64
5, 4079, Note_on_c, 3, 52, 0
5, 4320, Note_on_c, 3, 52, 64
5, 4559, Note_on_c, 3, 52, 0
5, 4800, Note_on_c, 3, 52, 64
5, 5039, Note_on_c, 3, 52, 0
5, 5280, Note_on_c, 3, 52, 64
5, 5399, Note_on_c, 3, 52, 0
5, 5520, Note_on_c, 3, 52, 64
5, 5639, Note_on_c, 3, 52, 0
5, 5760, Note_on_c, 3, 57, 64
5, 5999, Note_on_c, 3, 57, 0
5, 6240, Note_on_c, 3, 57, 64
5, 6479, Note_on_c, 3, 57, 0
5, 6720, Note_on_c, 3, 57, 64
5, 6959, Note_on_c, 3, 57, 0
5, 7200, Note_on_c, 3, 57, 64
5, 7439, Note_on_c, 3, 57, 0
5, 7680, Note_on_c, 3, 53, 64
5, 7919, Note_on_c, 3, 53, 0
5, 8160, Note_on_c, 3, 53, 64
5, 8399, Note_on_c, 3, 53, 0
5, 8640, Note_on_c, 3, 53, 64
5, 8879, Note_on_c, 3, 53, 0
5, 9120, Note_on_c, 3, 53, 64
5, 9239, Note_on_c, 3, 53, 0
5, 9360, Note_on_c, 3, 53, 64
5, 9479, Note_on_c, 3, 53, 0
5, 9600, Note_on_c, 3, 53, 64
5, 9839, Note_on_c, 3, 53, 0
5, 10080, Note_on_c, 3, 53, 64
5, 10319, Note_on_c, 3, 53, 0
5, 10560, Note_on_c, 3, 53, 64
5, 10799, Note_on_c, 3, 53, 0
5, 11040, Note_on_c, 3, 53, 64
5, 11279, Note_on_c, 3, 53, 0
5, 11520, Note_on_c, 3, 52, 64
5, 11759, Note_on_c, 3, 52, 0
5, 12000, Note_on_c, 3, 52, 64
5, 12239, Note_on_c, 3, 52, 0
5, 12480, Note_on_c, 3, 52, 64
5, 12719, Note_on_c, 3, 52, 0
5, 12960, Note_on_c, 3, 52, 64
5, 13079, Note_on_c, 3, 52, 0
5, 13200, Note_on_c, 3, 52, 64
5, 13319, Note_on_c, 3, 52, 0
5, 13440, Note_on_c, 3, 57, 64
5, 13679, Note_on_c, 3, 57, 0
5, 13920, Note_on_c, 3, 57, 64
5, 14159, Note_on_c, 3, 57, 0
5, 14400, Note_on_c, 3, 57, 64
5, 14639, Note_on_c, 3, 57, 0
5, 14880, Note_on_c, 3, 57, 64
5, 15119, Note_on_c, 3, 57, 0
5, 15360, Note_on_c, 3, 53, 64
5, 15599, Note_on_c, 3, 53, 0
5, 15840, Note_on_c, 3, 53, 64
5, 16079, Note_on_c, 3, 53, 0
5, 16320, Note_on_c, 3, 53, 64
5, 16559, Note_on_c, 3, 53, 0
5, 16800, Note_on_c, 3, 53, 64
5, 16919, Note_on_c, 3, 53, 0
5, 17040, Note_on_c, 3, 53, 64
5, 17159, Note_on_c, 3, 53, 0
5, 17280, Note_on_c, 3, 53, 64
5, 17519, Note_on_c, 3, 53, 0
5, 17760, Note_on_c, 3, 53, 64
5, 17999, Note_on_c, 3, 53, 0
5, 18240, Note_on_c, 3, 53, 64
5, 18479, Note_on_c, 3, 53, 0
5, 18720, Note_on_c, 3, 53, 64
5, 18959, Note_on_c, 3, 53, 0
5, 19200, Note_on_c, 3, 52, 64
5, 19439, Note_on_c, 3, 52, 0
5, 19680, Note_on_c, 3, 52, 64
5, 19919, Note_on_c, 3, 52, 0
5, 20160, Note_on_c, 3, 52, 64
5, 20399, Note_on_c, 3, 52, 0
5, 20640, Note_on_c, 3, 52, 64
5, 20759, Note_on_c, 3, 52, 0
5, 20880, Note_on_c, 3, 52, 64
5, 20999, Note_on_c, 3, 52, 0
5, 21120, Note_on_c, 3, 57, 64
5, 21359, Note_on_c, 3, 57, 0
5, 21600, Note_on_c, 3, 57, 64
5, 21839, Note_on_c, 3, 57, 0
5, 22080, Note_on_c, 3, 57, 64
5, 22319, Note_on_c, 3, 57, 0
5, 22560, Note_on_c, 3, 57, 64
5, 22799, Note_on_c, 3, 57, 0
5, 23040, Note_on_c, 3, 53, 64
5, 23279, Note_on_c, 3, 53, 0
5, 23520, Note_on_c, 3, 53, 64
5, 23759, Note_on_c, 3, 53, 0
5, 24000, Note_on_c, 3, 53, 64
5, 24239, Note_on_c, 3, 53, 0
5, 24480, Note_on_c, 3, 53, 64
5, 24599, Note_on_c, 3, 53, 0
5, 24720, Note_on_c, 3, 53, 64
5, 24839, Note_on_c, 3, 53, 0
5, 24960, Note_on_c, 3, 53, 64
5, 25199, Note_on_c, 3, 53, 0
5, 25440, Note_on_c, 3, 53, 64
5, 25679, Note_on_c, 3, 53, 0
5, 25920, Note_on_c, 3, 53, 64
5, 26159, Note_on_c, 3, 53, 0
5, 26400, Note_on_c, 3, 53, 64
5, 26639, Note_on_c, 3, 53, 0
5, 26880, Note_on_c, 3, 52, 64
5, 27119, Note_on_c, 3, 52, 0
5, 27360, Note_on_c, 3, 52, 64
5, 27599, Note_on_c, 3, 52, 0
5, 27840, Note_on_c, 3, 52, 64
5, 28079, Note_on_c, 3, 52, 0
5, 28320, Note_on_c, 3, 52, 64
5, 28439, Note_on_c, 3, 52, 0
5, 28560, Note_on_c, 3, 52, 64
5, 28679, Note_on_c, 3, 52, 0
5, 28800, Note_on_c, 3, 57, 64
5, 29039, Note_on_c, 3, 57, 0
5, 29280, Note_on_c, 3, 57, 64
5, 29519, Note_on_c, 3, 57, 0
5, 29760, Note_on_c, 3, 57, 64
5, 29999, Note_on_c, 3, 57, 0
5, 30240, Note_on_c, 3, 57, 64
5, 30479, Note_on_c, 3, 57, 0
5, 30720, Note_on_c, 3, 53, 64
5, 30959, Note_on_c, 3, 53, 0
5, 31200, Note_on_c, 3, 53, 64
5, 31439, Note_on_c, 3, 53, 0
5, 31680, Note_on_c, 3, 53, 64
5, 31919, Note_on_c, 3, 53, 0
5, 32160, Note_on_c, 3, 53, 64
5, 32279, Note_on_c, 3, 53, 0
5, 32400, Note_on_c, 3, 53, 64
5, 32519, Note_on_c, 3, 53, 0
5, 32640, Note_on_c, 3, 53, 64
5, 32879, Note_on_c, 3, 53, 0
5, 33120, Note_on_c, 3, 53, 64
5, 33359, Note_on_c, 3, 53, 0
5, 33600, Note_on_c, 3, 53, 64
5, 33839, Note_on_c, 3, 53, 0
5, 34080, Note_on_c, 3, 53, 64
5, 34319, Note_on_c, 3, 53, 0
5, 34560, Note_on_c, 3, 52, 64
5, 34799, Note_on_c, 3, 52, 0
5, 35040, Note_on_c, 3, 52, 64
5, 35279, Note_on_c, 3, 52, 0
5, 35520, Note_on_c, 3, 52, 64
5, 35759, Note_on_c, 3, 52, 0
5, 36000, Note_on_c, 3, 52, 64
5, 36119, Note_on_c, 3, 52, 0
5, 36240, Note_on_c, 3, 52, 64
5, 36359, Note_on_c, 3, 52, 0
5, 36480, Note_on_c, 3, 57, 64
5, 36719, Note_on_c, 3, 57, 0
5, 36960, Note_on_c, 3, 57, 64
5, 37199, Note_on_c, 3, 57, 0
5, 37440, Note_on_c, 3, 57, 64
5, 37679, Note_on_c, 3, 57, 0
5, 37920, Note_on_c, 3, 57, 64
5, 38159, Note_on_c, 3, 57, 0
5, 38400, Note_on_c, 3, 53, 64
5, 38639, Note_on_c, 3, 53, 0
5, 38880, Note_on_c, 3, 53, 64
5, 39119, Note_on_c, 3, 53, 0
5, 39360, Note_on_c, 3, 53, 64
5, 39599, Note_on_c, 3, 53, 0
5, 39840, Note_on_c, 3, 53, 64
5, 39959, Note_on_c, 3, 53, 0
5, 40080, Note_on_c, 3, 53, 64
5, 40199, Note_on_c, 3, 53, 0
5, 40320, Note_on_c, 3, 53, 64
5, 40559, Note_on_c, 3, 53, 0
5, 40800, Note_on_c, 3, 53, 64
5, 41039, Note_on_c, 3, 53, 0
5, 41280, Note_on_c, 3, 53, 64
5, 41519, Note_on_c, 3, 53, 0
5, 41760, Note_on_c, 3, 53, 64
5, 41999, Note_on_c, 3, 53, 0
5, 42240, Note_on_c, 3, 52, 64
5, 42479, Note_on_c, 3, 52, 0
5, 42720, Note_on_c, 3, 52, 64
5, 42959, Note_on_c, 3, 52, 0
5, 43200, Note_on_c, 3, 52, 64
5, 43439, Note_on_c, 3, 52, 0
5, 43680, Note_on_c, 3, 52, 64
5, 43799, Note_on_c, 3, 52, 0
5, 43920, Note_on_c, 3, 52, 64
5, 44039, Note_on_c, 3, 52, 0
5, 44160, Note_on_c, 3, 57, 64
5, 44399, Note_on_c, 3, 57, 0
5, 44640, Note_on_c, 3, 57, 64
5, 44879, Note_on_c, 3, 57, 0
5, 45120, Note_on_c, 3, 57, 64
5, 45359, Note_on_c, 3, 57, 0
5, 45600, Note_on_c, 3, 57, 64
5, 45839, Note_on_c, 3, 57, 0
5, 46080, Note_on_c, 3, 50, 64
5, 46319, Note_on_c, 3, 50, 0
5, 46560, Note_on_c, 3, 50, 64
5, 46799, Note_on_c, 3, 50, 0
5, 47040, Note_on_c, 3, 50, 64
5, 47279, Note_on_c, 3, 50, 0
5, 47520, Note_on_c, 3, 50, 64
5, 47759, Note_on_c, 3, 50, 0
5, 48000, Note_on_c, 3, 55, 64
5, 48239, Note_on_c, 3, 55, 0
5, 48480, Note_on_c, 3, 55, 64
5, 48719, Note_on_c, 3, 55, 0
5, 48960, Note_on_c, 3, 55, 64
5, 49199, Note_on_c, 3, 55, 0
5, 49440, Note_on_c, 3, 55, 64
5, 49679, Note_on_c, 3, 55, 0
5, 49920, Note_on_c, 3, 48, 64
5, 50159, Note_on_c, 3, 48, 0
5, 50400, Note_on_c, 3, 48, 64
5, 50639, Note_on_c, 3, 48, 0
5, 50880, Note_on_c, 3, 48, 64
5, 51119, Note_on_c, 3, 48, 0
5, 51360, Note_on_c, 3, 48, 64
5, 51599, Note_on_c, 3, 48, 0
5, 51840, Note_on_c, 3, 53, 64
5, 52079, Note_on_c, 3, 53, 0
5, 52320, Note_on_c, 3, 53, 64
5, 52559, Note_on_c, 3, 53, 0
5, 52800, Note_on_c, 3, 53, 64
5, 53039, Note_on_c, 3, 53, 0
5, 53280, Note_on_c, 3, 53, 64
5, 53519, Note_on_c, 3, 53, 0
5, 53760, Note_on_c, 3, 50, 64
5, 53999, Note_on_c, 3, 50, 0
5, 54240, Note_on_c, 3, 50, 64
5, 54479, Note_on_c, 3, 50, 0
5, 54720, Note_on_c, 3, 50, 64
5, 54959, Note_on_c, 3, 50, 0
5, 55200, Note_on_c, 3, 50, 64
5, 55439, Note_on_c, 3, 50, 0
5, 55680, Note_on_c, 3, 55, 64
5, 55919, Note_on_c, 3, 55, 0
5, 56160, Note_on_c, 3, 55, 64
5, 56399, Note_on_c, 3, 55, 0
5, 56640, Note_on_c, 3, 55, 64
5, 56879, Note_on_c, 3, 55, 0
5, 57120, Note_on_c, 3, 55, 64
5, 57359, Note_on_c, 3, 55, 0
5, 57600, Note_on_c, 3, 48, 64
5, 57839, Note_on_c, 3, 48, 0
5, 58080, Note_on_c, 3, 48, 64
5, 58319, Note_on_c, 3, 48, 0
5, 58560, Note_on_c, 3, 48, 64
5, 58799, Note_on_c, 3, 48, 0
5, 59040, Note_on_c, 3, 48, 64
5, 59279, Note_on_c, 3, 48, 0
5, 59520, Note_on_c, 3, 53, 64
5, 59759, Note_on_c, 3, 53, 0
5, 60000, Note_on_c, 3, 53, 64
5, 60239, Note_on_c, 3, 53, 0
5, 60480, Note_on_c, 3, 53, 64
5, 60719, Note_on_c, 3, 53, 0
5, 60960, Note_on_c, 3, 53, 64
5, 61199, Note_on_c, 3, 53, 0
5, 61440, Note_on_c, 3, 50, 64
5, 61679, Note_on_c, 3, 50, 0
5, 61920, Note_on_c, 3, 50, 64
5, 62159, Note_on_c, 3, 50, 0
5, 62400, Note_on_c, 3, 50, 64
5, 62639, Note_on_c, 3, 50, 0
5, 62880, Note_on_c, 3, 50, 64
5, 63119, Note_on_c, 3, 50, 0
5, 63360, Note_on_c, 3, 55, 64
5, 63599, Note_on_c, 3, 55, 0
5, 63840, Note_on_c, 3, 55, 64
5, 64079, Note_on_c, 3, 55, 0
5, 64320, Note_on_c, 3, 55, 64
5, 64559, Note_on_c, 3, 55, 0
5, 64800, Note_on_c, 3, 55, 64
5, 65039, Note_on_c, 3, 55, 0
5, 65280, Note_on_c, 3, 48, 64
5, 65519, Note_on_c, 3, 48, 0
5, 65760, Note_on_c, 3, 48, 64
5, 65999, Note_on_c, 3, 48, 0
5, 66240, Note_on_c, 3, 48, 64
5, 66479, Note_on_c, 3, 48, 0
5, 66720, Note_on_c, 3, 48, 64
5, 66959, Note_on_c, 3, 48, 0
5, 67200, Note_on_c, 3, 53, 64
5, 67439, Note_on_c, 3, 53, 0
5, 67680, Note_on_c, 3, 53, 64
5, 67919, Note_on_c, 3, 53, 0
5, 68160, Note_on_c, 3, 53, 64
5, 68399, Note_on_c, 3, 53, 0
5, 68640, Note_on_c, 3, 53, 64
5, 68879, Note_on_c, 3, 53, 0
5, 69120, Note_on_c, 3, 50, 64
5, 69359, Note_on_c, 3, 50, 0
5, 69600, Note_on_c, 3, 50, 64
5, 69839, Note_on_c, 3, 50, 0
5, 70080, Note_on_c, 3, 50, 64
5, 70319, Note_on_c, 3, 50, 0
5, 70560, Note_on_c, 3, 50, 64
5, 70799, Note_on_c, 3, 50, 0
5, 71040, Note_on_c, 3, 55, 64
5, 71279, Note_on_c, 3, 55, 0
5, 71520, Note_on_c, 3, 55, 64
5, 71759, Note_on_c, 3, 55, 0
5, 72000, Note_on_c, 3, 55, 64
5, 72239, Note_on_c, 3, 55, 0
5, 72480, Note_on_c, 3, 55, 64
5, 72719, Note_on_c, 3, 55, 0
5, 72960, Note_on_c, 3, 48, 64
5, 73199, Note_on_c, 3, 48, 0
5, 73440, Note_on_c, 3, 48, 64
5, 73679, Note_on_c, 3, 48, 0
5, 73920, Note_on_c, 3, 48, 64
5, 74159, Note_on_c, 3, 48, 0
5, 74400, Note_on_c, 3, 48, 64
5, 74639, Note_on_c, 3, 48, 0
5, 74880, Note_on_c, 3, 48, 64
5, 75119, Note_on_c, 3, 48, 0
5, 75360, Note_on_c, 3, 48, 64
5, 75599, Note_on_c, 3, 48, 0
5, 75840, Note_on_c, 3, 48, 64
5, 76079, Note_on_c, 3, 48, 0
5, 76320, Note_on_c, 3, 48, 64
5, 76551, Note_on_c, 3, 48, 0
5, 76552, End_track
6, 0, Start_track
6, 0, Title_t, "Instrument_05\000"
6, 0, Key_signature, 0, "major"
6, 0, Control_c, 4, 121, 0
6, 0, Program_c, 4, 82
6, 0, Control_c, 4, 7, 100
6, 0, Control_c, 4, 10, 64
6, 0, Control_c, 4, 91, 0
6, 0, Control_c, 4, 93, 0
6, 0, MIDI_port, 0
6, 15120, Note_on_c, 4, 76, 112
6, 15347, Note_on_c, 4, 76, 0
6, 15360, Note_on_c, 4, 77, 112
6, 16955, Note_on_c, 4, 77, 0
6, 17040, Note_on_c, 4, 81, 112
6, 17267, Note_on_c, 4, 81, 0
6, 17280, Note_on_c, 4, 83, 112
6, 18875, Note_on_c, 4, 83, 0
6, 18960, Note_on_c, 4, 79, 112
6, 19187, Note_on_c, 4, 79, 0
6, 19200, Note_on_c, 4, 88, 112
6, 20795, Note_on_c, 4, 88, 0
6, 20880, Note_on_c, 4, 88, 112
6, 20936, Note_on_c, 4, 88, 0
6, 20940, Note_on_c, 4, 87, 112
6, 20996, Note_on_c, 4, 87, 0
6, 21000, Note_on_c, 4, 86, 112
6, 21056, Note_on_c, 4, 86, 0
6, 21060, Note_on_c, 4, 85, 112
6, 21116, Note_on_c, 4, 85, 0
6, 21120, Note_on_c, 4, 84, 112
6, 21575, Note_on_c, 4, 84, 0
6, 21600, Note_on_c, 4, 81, 112
6, 22055, Note_on_c, 4, 81, 0
6, 22080, Note_on_c, 4, 83, 112
6, 22535, Note_on_c, 4, 83, 0
6, 22560, Note_on_c, 4, 84, 112
6, 23015, Note_on_c, 4, 84, 0
6, 23040, Note_on_c, 4, 81, 112
6, 23495, Note_on_c, 4, 81, 0
6, 23520, Note_on_c, 4, 77, 112
6, 23975, Note_on_c, 4, 77, 0
6, 24000, Note_on_c, 4, 79, 112
6, 24683, Note_on_c, 4, 79, 0
6, 24720, Note_on_c, 4, 81, 112
6, 24947, Note_on_c, 4, 81, 0
6, 24960, Note_on_c, 4, 79, 112
6, 25187, Note_on_c, 4, 79, 0
6, 25200, Note_on_c, 4, 74, 112
6, 25427, Note_on_c, 4, 74, 0
6, 25440, Note_on_c, 4, 71, 112
6, 25895, Note_on_c, 4, 71, 0
6, 25920, Note_on_c, 4, 76, 112
6, 26375, Note_on_c, 4, 76, 0
6, 26400, Note_on_c, 4, 81, 112
6, 26855, Note_on_c, 4, 81, 0
6, 26880, Note_on_c, 4, 79, 112
6, 28019, Note_on_c, 4, 79, 0
6, 28080, Note_on_c, 4, 81, 112
6, 28307, Note_on_c, 4, 81, 0
6, 28320, Note_on_c, 4, 79, 112
6, 28547, Note_on_c, 4, 79, 0
6, 28560, Note_on_c, 4, 78, 112
6, 28787, Note_on_c, 4, 78, 0
6, 28800, Note_on_c, 4, 79, 112
6, 30395, Note_on_c, 4, 79, 0
6, 30480, Note_on_c, 4, 76, 112
6, 30707, Note_on_c, 4, 76, 0
6, 30720, Note_on_c, 4, 77, 112
6, 32315, Note_on_c, 4, 77, 0
6, 32400, Note_on_c, 4, 81, 112
6, 32627, Note_on_c, 4, 81, 0
6, 32640, Note_on_c, 4, 83, 112
6, 34235, Note_on_c, 4, 83, 0
6, 34320, Note_on_c, 4, 79, 112
6, 34547, Note_on_c, 4, 79, 0
6, 34560, Note_on_c, 4, 88, 112
6, 36155, Note_on_c, 4, 88, 0
6, 36240, Note_on_c, 4, 88, 112
6, 36296, Note_on_c, 4, 88, 0
6, 36300, Note_on_c, 4, 87, 112
6, 36356, Note_on_c, 4, 87, 0
6, 36360, Note_on_c, 4, 86, 112
6, 36416, Note_on_c, 4, 86, 0
6, 36420, Note_on_c, 4, 85, 112
6, 36476, Note_on_c, 4, 85, 0
6, 36480, Note_on_c, 4, 84, 112
6, 36935, Note_on_c, 4, 84, 0
6, 36960, Note_on_c, 4, 81, 112
6, 37415, Note_on_c, 4, 81, 0
6, 37440, Note_on_c, 4, 83, 112
6, 37895, Note_on_c, 4, 83, 0
6, 37920, Note_on_c, 4, 84, 112
6, 38375, Note_on_c, 4, 84, 0
6, 38400, Note_on_c, 4, 81, 112
6, 38855, Note_on_c, 4, 81, 0
6, 38880, Note_on_c, 4, 77, 112
6, 39335, Note_on_c, 4, 77, 0
6, 39360, Note_on_c, 4, 79, 112
6, 40043, Note_on_c, 4, 79, 0
6, 40080, Note_on_c, 4, 81, 112
6, 40307, Note_on_c, 4, 81, 0
6, 40320, Note_on_c, 4, 79, 112
6, 40547, Note_on_c, 4, 79, 0
6, 40560, Note_on_c, 4, 74, 112
6, 40787, Note_on_c, 4, 74, 0
6, 40800, Note_on_c, 4, 71, 112
6, 41255, Note_on_c, 4, 71, 0
6, 41280, Note_on_c, 4, 76, 112
6, 41735, Note_on_c, 4, 76, 0
6, 41760, Note_on_c, 4, 81, 112
6, 42215, Note_on_c, 4, 81, 0
6, 42240, Note_on_c, 4, 79, 112
6, 43379, Note_on_c, 4, 79, 0
6, 43440, Note_on_c, 4, 81, 112
6, 43667, Note_on_c, 4, 81, 0
6, 43680, Note_on_c, 4, 79, 112
6, 43907, Note_on_c, 4, 79, 0
6, 43920, Note_on_c, 4, 78, 112
6, 44147, Note_on_c, 4, 78, 0
6, 44160, Note_on_c, 4, 79, 112
6, 45755, Note_on_c, 4, 79, 0
6, 45840, Note_on_c, 4, 79, 112
6, 46067, Note_on_c, 4, 79, 0
6, 46080, Note_on_c, 4, 77, 112
6, 47219, Note_on_c, 4, 77, 0
6, 47280, Note_on_c, 4, 77, 112
6, 47507, Note_on_c, 4, 77, 0
6, 47520, Note_on_c, 4, 79, 112
6, 47747, Note_on_c, 4, 79, 0
6, 47760, Note_on_c, 4, 81, 112
6, 47987, Note_on_c, 4, 81, 0
6, 48000, Note_on_c, 4, 83, 112
6, 48911, Note_on_c, 4, 83, 0
6, 48960, Note_on_c, 4, 86, 112
6, 49871, Note_on_c, 4, 86, 0
6, 49920, Note_on_c, 4, 84, 112
6, 51059, Note_on_c, 4, 84, 0
6, 51120, Note_on_c, 4, 86, 112
6, 51347, Note_on_c, 4, 86, 0
6, 51360, Note_on_c, 4, 84, 112
6, 51587, Note_on_c, 4, 84, 0
6, 51600, Note_on_c, 4, 83, 112
6, 51827, Note_on_c, 4, 83, 0
6, 51840, Note_on_c, 4, 81, 112
6, 52979, Note_on_c, 4, 81, 0
6, 53040, Note_on_c, 4, 83, 112
6, 53267, Note_on_c, 4, 83, 0
6, 53280, Note_on_c, 4, 81, 112
6, 53507, Note_on_c, 4, 81, 0
6, 53520, Note_on_c, 4, 79, 112
6, 53747, Note_on_c, 4, 79, 0
6, 53760, Note_on_c, 4, 77, 112
6, 54899, Note_on_c, 4, 77, 0
6, 54960, Note_on_c, 4, 77, 112
6, 55187, Note_on_c, 4, 77, 0
6, 55200, Note_on_c, 4, 79, 112
6, 55427, Note_on_c, 4, 79, 0
6, 55440, Note_on_c, 4, 81, 112
6, 55667, Note_on_c, 4, 81, 0
6, 55680, Note_on_c, 4, 83, 112
6, 56591, Note_on_c, 4, 83, 0
6, 56640, Note_on_c, 4, 86, 112
6, 57551, Note_on_c, 4, 86, 0
6, 57600, Note_on_c, 4, 84, 112
6, 58739, Note_on_c, 4, 84, 0
6, 58800, Note_on_c, 4, 86, 112
6, 59027, Note_on_c, 4, 86, 0
6, 59040, Note_on_c, 4, 84, 112
6, 59267, Note_on_c, 4, 84, 0
6, 59280, Note_on_c, 4, 83, 112
6, 59507, Note_on_c, 4, 83, 0
6, 59520, Note_on_c, 4, 81, 112
6, 60659, Note_on_c, 4, 81, 0
6, 60720, Note_on_c, 4, 81, 112
6, 60947, Note_on_c, 4, 81, 0
6, 60960, Note_on_c, 4, 83, 112
6, 61187, Note_on_c, 4, 83, 0
6, 61200, Note_on_c, 4, 84, 112
6, 61427, Note_on_c, 4, 84, 0
6, 61440, Note_on_c, 4, 86, 112
6, 62351, Note_on_c, 4, 86, 0
6, 62400, Note_on_c, 4, 81, 112
6, 63311, Note_on_c, 4, 81, 0
6, 63360, Note_on_c, 4, 83, 112
6, 64271, Note_on_c, 4, 83, 0
6, 64320, Note_on_c, 4, 74, 112
6, 65231, Note_on_c, 4, 74, 0
6, 65280, Note_on_c, 4, 76, 112
6, 66419, Note_on_c, 4, 76, 0
6, 66480, Note_on_c, 4, 77, 112
6, 66707, Note_on_c, 4, 77, 0
6, 66720, Note_on_c, 4, 79, 112
6, 66947, Note_on_c, 4, 79, 0
6, 66960, Note_on_c, 4, 80, 112
6, 67187, Note_on_c, 4, 80, 0
6, 67200, Note_on_c, 4, 81, 112
6, 68111, Note_on_c, 4, 81, 0
6, 68160, Note_on_c, 4, 77, 112
6, 69071, Note_on_c, 4, 77, 0
6, 69120, Note_on_c, 4, 74, 112
6, 70031, Note_on_c, 4, 74, 0
6, 70080, Note_on_c, 4, 84, 112
6, 70991, Note_on_c, 4, 84, 0
6, 71040, Note_on_c, 4, 83, 112
6, 72179, Note_on_c, 4, 83, 0
6, 72240, Note_on_c, 4, 83, 112
6, 72467, Note_on_c, 4, 83, 0
6, 72480, Note_on_c, 4, 81, 112
6, 72707, Note_on_c, 4, 81, 0
6, 72720, Note_on_c, 4, 80, 112
6, 72947, Note_on_c, 4, 80, 0
6, 72960, Note_on_c, 4, 79, 112
6, 73871, Note_on_c, 4, 79, 0
6, 73920, Note_on_c, 4, 83, 112
6, 74831, Note_on_c, 4, 83, 0
6, 74880, Note_on_c, 4, 76, 112
6, 76688, Note_on_c, 4, 76, 0
6, 76689, End_track
0, 0, End_of_file