0, 0, Header, 1, 6, 480
1, 0, Start_track
1, 0, Title_t, "Drumset\000"
1, 0, Time_signature, 4, 2, 24, 8
1, 0, Key_signature, 0, "major"
1, 0, Tempo, 750000
1, 0, Control_c, 9, 121, 0
1, 0, Program_c, 9, 0
1, 0, Control_c, 9, 7, 100
1, 0, Control_c, 9, 10, 64
1, 0, Control_c, 9, 91, 0
1, 0, Control_c, 9, 93, 0
1, 0, MIDI_port, 0
1, 0, Note_on_c, 9, 49, 80
1, 0, Note_on_c, 9, 36, 80
1, 479, Note_on_c, 9, 49, 0
1, 479, Note_on_c, 9, 36, 0
1, 480, Note_on_c, 9, 38, 80
1, 959, Note_on_c, 9, 38, 0
1, 960, Note_on_c, 9, 46, 80
1, 1439, Note_on_c, 9, 46, 0
1, 1440, Note_on_c, 9, 38, 80
1, 1919, Note_on_c, 9, 38, 0
1, 1920, Note_on_c, 9, 46, 80
1, 2399, Note_on_c, 9, 46, 0
1, 2400, Note_on_c, 9, 38, 80
1, 2879, Note_on_c, 9, 38, 0
1, 2880, Note_on_c, 9, 46, 80
1, 3359, Note_on_c, 9, 46, 0
1, 3360, Note_on_c, 9, 38, 80
1, 3839, Note_on_c, 9, 38, 0
1, 3840, Note_on_c, 9, 46, 80
1, 3840, Note_on_c, 9, 36, 80
1, 4319, Note_on_c, 9, 46, 0
1, 4319, Note_on_c, 9, 36, 0
1, 4320, Note_on_c, 9, 38, 80
1, 4799, Note_on_c, 9, 38, 0
1, 4800, Note_on_c, 9, 46, 80
1, 5279, Note_on_c, 9, 46, 0
1, 5280, Note_on_c, 9, 38, 80
1, 5759, Note_on_c, 9, 38, 0
1, 5760, Note_on_c, 9, 46, 80
1, 6239, Note_on_c, 9, 46, 0
1, 6240, Note_on_c, 9, 38, 80
1, 6719, Note_on_c, 9, 38, 0
1, 6720, Note_on_c, 9, 46, 80
1, 7199, Note_on_c, 9, 46, 0
1, 7200, Note_on_c, 9, 38, 80
1, 7439, Note_on_c, 9, 38, 0
1, 7440, Note_on_c, 9, 38, 80
1, 7679, Note_on_c, 9, 38, 0
1, 7680, Note_on_c, 9, 49, 80
1, 7680, Note_on_c, 9, 36, 80
1, 8159, Note_on_c, 9, 49, 0
1, 8159, Note_on_c, 9, 36, 0
1, 8160, Note_on_c, 9, 38, 80
1, 8639, Note_on_c, 9, 38, 0
1, 8640, Note_on_c, 9, 46, 80
1, 9119, Note_on_c, 9, 46, 0
1, 9120, Note_on_c, 9, 38, 80
1, 9599, Note_on_c, 9, 38, 0
1, 9600, Note_on_c, 9, 46, 80
1, 10079, Note_on_c, 9, 46, 0
1, 10080, Note_on_c, 9, 38, 80
1, 10559, Note_on_c, 9, 38, 0
1, 10560, Note_on_c, 9, 46, 80
1, 11039, Note_on_c, 9, 46, 0
1, 11040, Note_on_c, 9, 38, 80
1, 11519, Note_on_c, 9, 38, 0
1, 11520, Note_on_c, 9, 46, 80
1, 11520, Note_on_c, 9, 36, 80
1, 11999, Note_on_c, 9, 46, 0
1, 11999, Note_on_c, 9, 36, 0
1, 12000, Note_on_c, 9, 38, 80
1, 12479, Note_on_c, 9, 38, 0
1, 12480, Note_on_c, 9, 46, 80
1, 12959, Note_on_c, 9, 46, 0
1, 12960, Note_on_c, 9, 38, 80
1, 13439, Note_on_c, 9, 38, 0
1, 13440, Note_on_c, 9, 46, 80
1, 13919, Note_on_c, 9, 46, 0
1, 13920, Note_on_c, 9, 38, 80
1, 14399, Note_on_c, 9, 38, 0
1, 14400, Note_on_c, 9, 46, 80
1, 14879, Note_on_c, 9, 46, 0
1, 14880, Note_on_c, 9, 38, 80
1, 15119, Note_on_c, 9, 38, 0
1, 15120, Note_on_c, 9, 38, 80
1, 15359, Note_on_c, 9, 38, 0
1, 15360, Note_on_c, 9, 49, 80
1, 15360, Note_on_c, 9, 36, 80
1, 15839, Note_on_c, 9, 49, 0
1, 15839, Note_on_c, 9, 36, 0
1, 15840, Note_on_c, 9, 38, 80
1, 16319, Note_on_c, 9, 38, 0
1, 16320, Note_on_c, 9, 46, 80
1, 16799, Note_on_c, 9, 46, 0
1, 16800, Note_on_c, 9, 38, 80
1, 17279, Note_on_c, 9, 38, 0
1, 17280, Note_on_c, 9, 46, 80
1, 17759, Note_on_c, 9, 46, 0
1, 17760, Note_on_c, 9, 38, 80
1, 18239, Note_on_c, 9, 38, 0
1, 18240, Note_on_c, 9, 46, 80
1, 18719, Note_on_c, 9, 46, 0
1, 18720, Note_on_c, 9, 38, 80
1, 19199, Note_on_c, 9, 38, 0
1, 19200, Note_on_c, 9, 46, 80
1, 19200, Note_on_c, 9, 36, 80
1, 19679, Note_on_c, 9, 46, 0
1, 19679, Note_on_c, 9, 36, 0
1, 19680, Note_on_c, 9, 38, 80
1, 20159, Note_on_c, 9, 38, 0
1, 20160, Note_on_c, 9, 46, 80
1, 20639, Note_on_c, 9, 46, 0
1, 20640, Note_on_c, 9, 38, 80
1, 21119, Note_on_c, 9, 38, 0
1, 21120, Note_on_c, 9, 46, 80
1, 21599, Note_on_c, 9, 46, 0
1, 21600, Note_on_c, 9, 38, 80
1, 22079, Note_on_c, 9, 38, 0
1, 22080, Note_on_c, 9, 46, 80
1, 22559, Note_on_c, 9, 46, 0
1, 22560, Note_on_c, 9, 38, 80
1, 22799, Note_on_c, 9, 38, 0
1, 22800, Note_on_c, 9, 38, 80
1, 23039, Note_on_c, 9, 38, 0
1, 23040, Note_on_c, 9, 49, 80
1, 23040, Note_on_c, 9, 36, 80
1, 23519, Note_on_c, 9, 49, 0
1, 23519, Note_on_c, 9, 36, 0
1, 23520, Note_on_c, 9, 38, 80
1, 23999, Note_on_c, 9, 38, 0
1, 24000, Note_on_c, 9, 46, 80
1, 24479, Note_on_c, 9, 46, 0
1, 24480, Note_on_c, 9, 38, 80
1, 24959, Note_on_c, 9, 38, 0
1, 24960, Note_on_c, 9, 46, 80
1, 25439, Note_on_c, 9, 46, 0
1, 25440, Note_on_c, 9, 38, 80
1, 25919, Note_on_c, 9, 38, 0
1, 25920, Note_on_c, 9, 46, 80
1, 26399, Note_on_c, 9, 46, 0
1, 26400, Note_on_c, 9, 38, 80
1, 26879, Note_on_c, 9, 38, 0
1, 26880, Note_on_c, 9, 46, 80
1, 26880, Note_on_c, 9, 36, 80
1, 27359, Note_on_c, 9, 46, 0
1, 27359, Note_on_c, 9, 36, 0
1, 27360, Note_on_c, 9, 38, 80
1, 27839, Note_on_c, 9, 38, 0
1, 27840, Note_on_c, 9, 46, 80
1, 28319, Note_on_c, 9, 46, 0
1, 28320, Note_on_c, 9, 38, 80
1, 28799, Note_on_c, 9, 38, 0
1, 28800, Note_on_c, 9, 46, 80
1, 29279, Note_on_c, 9, 46, 0
1, 29280, Note_on_c, 9, 38, 80
1, 29759, Note_on_c, 9, 38, 0
1, 29760, Note_on_c, 9, 46, 80
1, 30239, Note_on_c, 9, 46, 0
1, 30240, Note_on_c, 9, 38, 80
1, 30479, Note_on_c, 9, 38, 0
1, 30480, Note_on_c, 9, 38, 80
1, 30719, Note_on_c, 9, 38, 0
1, 30720, Note_on_c, 9, 49, 80
1, 30720, Note_on_c, 9, 36, 80
1, 31199, Note_on_c, 9, 49, 0
1, 31199, Note_on_c, 9, 36, 0
1, 31200, Note_on_c, 9, 38, 80
1, 31679, Note_on_c, 9, 38, 0
1, 31680, Note_on_c, 9, 46, 80
1, 32159, Note_on_c, 9, 46, 0
1, 32160, Note_on_c, 9, 38, 80
1, 32639, Note_on_c, 9, 38, 0
1, 32640, Note_on_c, 9, 46, 80
1, 33119, Note_on_c, 9, 46, 0
1, 33120, Note_on_c, 9, 38, 80
1, 33599, Note_on_c, 9, 38, 0
1, 33600, Note_on_c, 9, 46, 80
1, 34079, Note_on_c, 9, 46, 0
1, 34080, Note_on_c, 9, 38, 80
1, 34559, Note_on_c, 9, 38, 0
1, 34560, Note_on_c, 9, 46, 80
1, 34560, Note_on_c, 9, 36, 80
1, 35039, Note_on_c, 9, 46, 0
1, 35039, Note_on_c, 9, 36, 0
1, 35040, Note_on_c, 9, 38, 80
1, 35519, Note_on_c, 9, 38, 0
1, 35520, Note_on_c, 9, 46, 80
1, 35999, Note_on_c, 9, 46, 0
1, 36000, Note_on_c, 9, 38, 80
1, 36479, Note_on_c, 9, 38, 0
1, 36480, Note_on_c, 9, 46, 80
1, 36959, Note_on_c, 9, 46, 0
1, 36960, Note_on_c, 9, 38, 80
1, 37439, Note_on_c, 9, 38, 0
1, 37440, Note_on_c, 9, 46, 80
1, 37919, Note_on_c, 9, 46, 0
1, 37920, Note_on_c, 9, 38, 80
1, 38159, Note_on_c, 9, 38, 0
1, 38160, Note_on_c, 9, 38, 80
1, 38399, Note_on_c, 9, 38, 0
1, 38400, Note_on_c, 9, 49, 80
1, 38400, Note_on_c, 9, 36, 80
1, 38879, Note_on_c, 9, 49, 0
1, 38879, Note_on_c, 9, 36, 0
1, 38880, Note_on_c, 9, 38, 80
1, 39359, Note_on_c, 9, 38, 0
1, 39360, Note_on_c, 9, 46, 80
1, 39839, Note_on_c, 9, 46, 0
1, 39840, Note_on_c, 9, 38, 80
1, 40319, Note_on_c, 9, 38, 0
1, 40320, Note_on_c, 9, 46, 80
1, 40799, Note_on_c, 9, 46, 0
1, 40800, Note_on_c, 9, 38, 80
1, 41279, Note_on_c, 9, 38, 0
1, 41280, Note_on_c, 9, 46, 80
1, 41759, Note_on_c, 9, 46, 0
1, 41760, Note_on_c, 9, 38, 80
1, 42239, Note_on_c, 9, 38, 0
1, 42240, Note_on_c, 9, 46, 80
1, 42240, Note_on_c, 9, 36, 80
1, 42719, Note_on_c, 9, 46, 0
1, 42719, Note_on_c, 9, 36, 0
1, 42720, Note_on_c, 9, 38, 80
1, 43199, Note_on_c, 9, 38, 0
1, 43200, Note_on_c, 9, 46, 80
1, 43679, Note_on_c, 9, 46, 0
1, 43680, Note_on_c, 9, 38, 80
1, 44159, Note_on_c, 9, 38, 0
1, 44160, Note_on_c, 9, 46, 80
1, 44639, Note_on_c, 9, 46, 0
1, 44640, Note_on_c, 9, 38, 80
1, 45119, Note_on_c, 9, 38, 0
1, 45120, Note_on_c, 9, 46, 80
1, 45599, Note_on_c, 9, 46, 0
1, 45600, Note_on_c, 9, 38, 80
1, 45839, Note_on_c, 9, 38, 0
1, 45840, Note_on_c, 9, 38, 80
1, 46079, Note_on_c, 9, 38, 0
1, 46080, Note_on_c, 9, 49, 80
1, 46080, Note_on_c, 9, 36, 80
1, 46559, Note_on_c, 9, 49, 0
1, 46559, Note_on_c, 9, 36, 0
1, 46560, Note_on_c, 9, 38, 80
1, 47039, Note_on_c, 9, 38, 0
1, 47040, Note_on_c, 9, 46, 80
1, 47519, Note_on_c, 9, 46, 0
1, 47520, Note_on_c, 9, 38, 80
1, 47999, Note_on_c, 9, 38, 0
1, 48000, Note_on_c, 9, 46, 80
1, 48479, Note_on_c, 9, 46, 0
1, 48480, Note_on_c, 9, 38, 80
1, 48959, Note_on_c, 9, 38, 0
1, 48960, Note_on_c, 9, 46, 80
1, 49439, Note_on_c, 9, 46, 0
1, 49440, Note_on_c, 9, 38, 80
1, 49919, Note_on_c, 9, 38, 0
1, 49920, Note_on_c, 9, 46, 80
1, 49920, Note_on_c, 9, 36, 80
1, 50399, Note_on_c, 9, 46, 0
1, 50399, Note_on_c, 9, 36, 0
1, 50400, Note_on_c, 9, 38, 80
1, 50879, Note_on_c, 9, 38, 0
1, 50880, Note_on_c, 9, 46, 80
1, 51359, Note_on_c, 9, 46, 0
1, 51360, Note_on_c, 9, 38, 80
1, 51839, Note_on_c, 9, 38, 0
1, 51840, Note_on_c, 9, 46, 80
1, 52319, Note_on_c, 9, 46, 0
1, 52320, Note_on_c, 9, 38, 80
1, 52799, Note_on_c, 9, 38, 0
1, 52800, Note_on_c, 9, 46, 80
1, 53279, Note_on_c, 9, 46, 0
1, 53280, Note_on_c, 9, 38, 80
1, 53519, Note_on_c, 9, 38, 0
1, 53520, Note_on_c, 9, 38, 80
1, 53759, Note_on_c, 9, 38, 0
1, 53760, Note_on_c, 9, 49, 80
1, 53760, Note_on_c, 9, 36, 80
1, 54239, Note_on_c, 9, 49, 0
1, 54239, Note_on_c, 9, 36, 0
1, 54240, Note_on_c, 9, 38, 80
1, 54719, Note_on_c, 9, 38, 0
1, 54720, Note_on_c, 9, 46, 80
1, 55199, Note_on_c, 9, 46, 0
1, 55200, Note_on_c, 9, 38, 80
1, 55679, Note_on_c, 9, 38, 0
1, 55680, Note_on_c, 9, 46, 80
1, 56159, Note_on_c, 9, 46, 0
1, 56160, Note_on_c, 9, 38, 80
1, 56639, Note_on_c, 9, 38, 0
1, 56640, Note_on_c, 9, 46, 80
1, 57119, Note_on_c, 9, 46, 0
1, 57120, Note_on_c, 9, 38, 80
1, 57599, Note_on_c, 9, 38, 0
1, 57600, Note_on_c, 9, 46, 80
1, 57600, Note_on_c, 9, 36, 80
1, 58079, Note_on_c, 9, 46, 0
1, 58079, Note_on_c, 9, 36, 0
1, 58080, Note_on_c, 9, 38, 80
1, 58559, Note_on_c, 9, 38, 0
1, 58560, Note_on_c, 9, 46, 80
1, 59039, Note_on_c, 9, 46, 0
1, 59040, Note_on_c, 9, 38, 80
1, 59519, Note_on_c, 9, 38, 0
1, 59520, Note_on_c, 9, 46, 80
1, 59999, Note_on_c, 9, 46, 0
1, 60000, Note_on_c, 9, 38, 80
1, 60479, Note_on_c, 9, 38, 0
1, 60480, Note_on_c, 9, 46, 80
1, 60959, Note_on_c, 9, 46, 0
1, 60960, Note_on_c, 9, 38, 80
1, 61199, Note_on_c, 9, 38, 0
1, 61200, Note_on_c, 9, 38, 80
1, 61439, Note_on_c, 9, 38, 0
1, 61440, Note_on_c, 9, 49, 80
1, 61440, Note_on_c, 9, 36, 80
1, 61919, Note_on_c, 9, 49, 0
1, 61919, Note_on_c, 9, 36, 0
1, 76320, Note_on_c, 9, 38, 80
1, 76559, Note_on_c, 9, 38, 0
1, 76560, Note_on_c, 9, 38, 80
1, 76792, Note_on_c, 9, 38, 0
1, 76793, End_track
2, 0, Start_track
2, 0, Title_t, "Instrument_01\000"
2, 0, Key_signature, 0, "major"
2, 0, Control_c, 0, 121, 0
2, 0, Program_c, 0, 38
2, 0, Control_c, 0, 7, 100
2, 0, Control_c, 0, 10, 64
2, 0, Control_c, 0, 91, 0
2, 0, Control_c, 0, 93, 0
2, 0, MIDI_port, 0
2, 0, Note_on_c, 0, 43, 80
2, 455, Note_on_c, 0, 43, 0
2, 480, Note_on_c, 0, 42, 80
2, 935, Note_on_c, 0, 42, 0
2, 960, Note_on_c, 0, 40, 80
2, 1415, Note_on_c, 0, 40, 0
2, 1440, Note_on_c, 0, 36, 80
2, 1895, Note_on_c, 0, 36, 0
2, 1920, Note_on_c, 0, 42, 80
2, 2375, Note_on_c, 0, 42, 0
2, 2400, Note_on_c, 0, 40, 80
2, 2855, Note_on_c, 0, 40, 0
2, 2880, Note_on_c, 0, 38, 80
2, 3335, Note_on_c, 0, 38, 0
2, 3360, Note_on_c, 0, 35, 80
2, 3815, Note_on_c, 0, 35, 0
2, 3840, Note_on_c, 0, 40, 80
2, 4295, Note_on_c, 0, 40, 0
2, 4320, Note_on_c, 0, 38, 80
2, 4775, Note_on_c, 0, 38, 0
2, 4800, Note_on_c, 0, 36, 80
2, 5255, Note_on_c, 0, 36, 0
2, 5280, Note_on_c, 0, 33, 80
2, 5735, Note_on_c, 0, 33, 0
2, 5760, Note_on_c, 0, 35, 80
2, 6215, Note_on_c, 0, 35, 0
2, 6240, Note_on_c, 0, 36, 80
2, 6695, Note_on_c, 0, 36, 0
2, 6720, Note_on_c, 0, 38, 80
2, 7175, Note_on_c, 0, 38, 0
2, 7200, Note_on_c, 0, 26, 80
2, 7655, Note_on_c, 0, 26, 0
2, 7680, Note_on_c, 0, 43, 80
2, 8135, Note_on_c, 0, 43, 0
2, 8160, Note_on_c, 0, 42, 80
2, 8615, Note_on_c, 0, 42, 0
2, 8640, Note_on_c, 0, 40, 80
2, 9095, Note_on_c, 0, 40, 0
2, 9120, Note_on_c, 0, 36, 80
2, 9575, Note_on_c, 0, 36, 0
2, 9600, Note_on_c, 0, 42, 80
2, 10055, Note_on_c, 0, 42, 0
2, 10080, Note_on_c, 0, 40, 80
2, 10535, Note_on_c, 0, 40, 0
2, 10560, Note_on_c, 0, 38, 80
2, 11015, Note_on_c, 0, 38, 0
2, 11040, Note_on_c, 0, 35, 80
2, 11495, Note_on_c, 0, 35, 0
2, 11520, Note_on_c, 0, 40, 80
2, 11975, Note_on_c, 0, 40, 0
2, 12000, Note_on_c, 0, 38, 80
2, 12455, Note_on_c, 0, 38, 0
2, 12480, Note_on_c, 0, 36, 80
2, 12935, Note_on_c, 0, 36, 0
2, 12960, Note_on_c, 0, 33, 80
2, 13415, Note_on_c, 0, 33, 0
2, 13440, Note_on_c, 0, 35, 80
2, 13895, Note_on_c, 0, 35, 0
2, 13920, Note_on_c, 0, 36, 80
2, 14375, Note_on_c, 0, 36, 0
2, 14400, Note_on_c, 0, 38, 80
2, 14855, Note_on_c, 0, 38, 0
2, 14880, Note_on_c, 0, 26, 80
2, 15335, Note_on_c, 0, 26, 0
2, 15360, Note_on_c, 0, 43, 80
2, 15815, Note_on_c, 0, 43, 0
2, 15840, Note_on_c, 0, 42, 80
2, 16295, Note_on_c, 0, 42, 0
2, 16320, Note_on_c, 0, 40, 80
2, 16775, Note_on_c, 0, 40, 0
2, 16800, Note_on_c, 0, 36, 80
2, 17255, Note_on_c, 0, 36, 0
2, 17280, Note_on_c, 0, 42, 80
2, 17735, Note_on_c, 0, 42, 0
2, 17760, Note_on_c, 0, 40, 80
2, 18215, Note_on_c, 0, 40, 0
2, 18240, Note_on_c, 0, 38, 80
2, 18695, Note_on_c, 0, 38, 0
2, 18720, Note_on_c, 0, 35, 80
2, 19175, Note_on_c, 0, 35, 0
2, 19200, Note_on_c, 0, 40, 80
2, 19655, Note_on_c, 0, 40, 0
2, 19680, Note_on_c, 0, 38, 80
2, 20135, Note_on_c, 0, 38, 0
2, 20160, Note_on_c, 0, 36, 80
2, 20615, Note_on_c, 0, 36, 0
2, 20640, Note_on_c, 0, 33, 80
2, 21095, Note_on_c, 0, 33, 0
2, 21120, Note_on_c, 0, 35, 80
2, 21575, Note_on_c, 0, 35, 0
2, 21600, Note_on_c, 0, 36, 80
2, 22055, Note_on_c, 0, 36, 0
2, 22080, Note_on_c, 0, 38, 80
2, 22535, Note_on_c, 0, 38, 0
2, 22560, Note_on_c, 0, 26, 80
2, 23015, Note_on_c, 0, 26, 0
2, 23040, Note_on_c, 0, 43, 80
2, 23495, Note_on_c, 0, 43, 0
2, 23520, Note_on_c, 0, 42, 80
2, 23975, Note_on_c, 0, 42, 0
2, 24000, Note_on_c, 0, 40, 80
2, 24455, Note_on_c, 0, 40, 0
2, 24480, Note_on_c, 0, 36, 80
2, 24935, Note_on_c, 0, 36, 0
2, 24960, Note_on_c, 0, 42, 80
2, 25415, Note_on_c, 0, 42, 0
2, 25440, Note_on_c, 0, 40, 80
2, 25895, Note_on_c, 0, 40, 0
2, 25920, Note_on_c, 0, 38, 80
2, 26375, Note_on_c, 0, 38, 0
2, 26400, Note_on_c, 0, 35, 80
2, 26855, Note_on_c, 0, 35, 0
2, 26880, Note_on_c, 0, 40, 80
2, 27335, Note_on_c, 0, 40, 0
2, 27360, Note_on_c, 0, 38, 80
2, 27815, Note_on_c, 0, 38, 0
2, 27840, Note_on_c, 0, 36, 80
2, 28295, Note_on_c, 0, 36, 0
2, 28320, Note_on_c, 0, 33, 80
2, 28775, Note_on_c, 0, 33, 0
2, 28800, Note_on_c, 0, 35, 80
2, 29255, Note_on_c, 0, 35, 0
2, 29280, Note_on_c, 0, 36, 80
2, 29735, Note_on_c, 0, 36, 0
2, 29760, Note_on_c, 0, 38, 80
2, 30215, Note_on_c, 0, 38, 0
2, 30240, Note_on_c, 0, 26, 80
2, 30695, Note_on_c, 0, 26, 0
2, 30720, Note_on_c, 0, 43, 80
2, 31175, Note_on_c, 0, 43, 0
2, 31200, Note_on_c, 0, 42, 80
2, 31655, Note_on_c, 0, 42, 0
2, 31680, Note_on_c, 0, 40, 80
2, 32135, Note_on_c, 0, 40, 0
2, 32160, Note_on_c, 0, 36, 80
2, 32615, Note_on_c, 0, 36, 0
2, 32640, Note_on_c, 0, 42, 80
2, 33095, Note_on_c, 0, 42, 0
2, 33120, Note_on_c, 0, 40, 80
2, 33575, Note_on_c, 0, 40, 0
2, 33600, Note_on_c, 0, 38, 80
2, 34055, Note_on_c, 0, 38, 0
2, 34080, Note_on_c, 0, 35, 80
2, 34535, Note_on_c, 0, 35, 0
2, 34560, Note_on_c, 0, 40, 80
2, 35015, Note_on_c, 0, 40, 0
2, 35040, Note_on_c, 0, 38, 80
2, 35495, Note_on_c, 0, 38, 0
2, 35520, Note_on_c, 0, 36, 80
2, 35975, Note_on_c, 0, 36, 0
2, 36000, Note_on_c, 0, 33, 80
2, 36455, Note_on_c, 0, 33, 0
2, 36480, Note_on_c, 0, 35, 80
2, 36935, Note_on_c, 0, 35, 0
2, 36960, Note_on_c, 0, 36, 80
2, 37415, Note_on_c, 0, 36, 0
2, 37440, Note_on_c, 0, 38, 80
2, 37895, Note_on_c, 0, 38, 0
2, 37920, Note_on_c, 0, 26, 80
2, 38375, Note_on_c, 0, 26, 0
2, 38400, Note_on_c, 0, 43, 80
2, 38855, Note_on_c, 0, 43, 0
2, 38880, Note_on_c, 0, 42, 80
2, 39335, Note_on_c, 0, 42, 0
2, 39360, Note_on_c, 0, 40, 80
2, 39815, Note_on_c, 0, 40, 0
2, 39840, Note_on_c, 0, 36, 80
2, 40295, Note_on_c, 0, 36, 0
2, 40320, Note_on_c, 0, 42, 80
2, 40775, Note_on_c, 0, 42, 0
2, 40800, Note_on_c, 0, 40, 80
2, 41255, Note_on_c, 0, 40, 0
2, 41280, Note_on_c, 0, 38, 80
2, 41735, Note_on_c, 0, 38, 0
2, 41760, Note_on_c, 0, 35, 80
2, 42215, Note_on_c, 0, 35, 0
2, 42240, Note_on_c, 0, 40, 80
2, 42695, Note_on_c, 0, 40, 0
2, 42720, Note_on_c, 0, 38, 80
2, 43175, Note_on_c, 0, 38, 0
2, 43200, Note_on_c, 0, 36, 80
2, 43655, Note_on_c, 0, 36, 0
2, 43680, Note_on_c, 0, 33, 80
2, 44135, Note_on_c, 0, 33, 0
2, 44160, Note_on_c, 0, 35, 80
2, 44615, Note_on_c, 0, 35, 0
2, 44640, Note_on_c, 0, 36, 80
2, 45095, Note_on_c, 0, 36, 0
2, 45120, Note_on_c, 0, 38, 80
2, 45575, Note_on_c, 0, 38, 0
2, 45600, Note_on_c, 0, 26, 80
2, 46055, Note_on_c, 0, 26, 0
2, 46080, Note_on_c, 0, 43, 80
2, 46535, Note_on_c, 0, 43, 0
2, 46560, Note_on_c, 0, 42, 80
2, 47015, Note_on_c, 0, 42, 0
2, 47040, Note_on_c, 0, 40, 80
2, 47495, Note_on_c, 0, 40, 0
2, 47520, Note_on_c, 0, 36, 80
2, 47975, Note_on_c, 0, 36, 0
2, 48000, Note_on_c, 0, 42, 80
2, 48455, Note_on_c, 0, 42, 0
2, 48480, Note_on_c, 0, 40, 80
2, 48935, Note_on_c, 0, 40, 0
2, 48960, Note_on_c, 0, 38, 80
2, 49415, Note_on_c, 0, 38, 0
2, 49440, Note_on_c, 0, 35, 80
2, 49895, Note_on_c, 0, 35, 0
2, 49920, Note_on_c, 0, 40, 80
2, 50375, Note_on_c, 0, 40, 0
2, 50400, Note_on_c, 0, 38, 80
2, 50855, Note_on_c, 0, 38, 0
2, 50880, Note_on_c, 0, 36, 80
2, 51335, Note_on_c, 0, 36, 0
2, 51360, Note_on_c, 0, 33, 80
2, 51815, Note_on_c, 0, 33, 0
2, 51840, Note_on_c, 0, 35, 80
2, 52295, Note_on_c, 0, 35, 0
2, 52320, Note_on_c, 0, 36, 80
2, 52775, Note_on_c, 0, 36, 0
2, 52800, Note_on_c, 0, 38, 80
2, 53255, Note_on_c, 0, 38, 0
2, 53280, Note_on_c, 0, 26, 80
2, 53735, Note_on_c, 0, 26, 0
2, 53760, Note_on_c, 0, 43, 80
2, 54215, Note_on_c, 0, 43, 0
2, 54240, Note_on_c, 0, 42, 80
2, 54695, Note_on_c, 0, 42, 0
2, 54720, Note_on_c, 0, 40, 80
2, 55175, Note_on_c, 0, 40, 0
2, 55200, Note_on_c, 0, 36, 80
2, 55655, Note_on_c, 0, 36, 0
2, 55680, Note_on_c, 0, 42, 80
2, 56135, Note_on_c, 0, 42, 0
2, 56160, Note_on_c, 0, 40, 80
2, 56615, Note_on_c, 0, 40, 0
2, 56640, Note_on_c, 0, 38, 80
2, 57095, Note_on_c, 0, 38, 0
2, 57120, Note_on_c, 0, 35, 80
2, 57575, Note_on_c, 0, 35, 0
2, 57600, Note_on_c, 0, 40, 80
2, 58055, Note_on_c, 0, 40, 0
2, 58080, Note_on_c, 0, 38, 80
2, 58535, Note_on_c, 0, 38, 0
2, 58560, Note_on_c, 0, 36, 80
2, 59015, Note_on_c, 0, 36, 0
2, 59040, Note_on_c, 0, 33, 80
2, 59495, Note_on_c, 0, 33, 0
2, 59520, Note_on_c, 0, 35, 80
2, 59975, Note_on_c, 0, 35, 0
2, 60000, Note_on_c, 0, 36, 80
2, 60455, Note_on_c, 0, 36, 0
2, 60480, Note_on_c, 0, 38, 80
2, 60935, Note_on_c, 0, 38, 0
2, 60960, Note_on_c, 0, 26, 80
2, 61415, Note_on_c, 0, 26, 0
2, 61440, Note_on_c, 0, 43, 80
2, 61895, Note_on_c, 0, 43, 0
2, 61920, Note_on_c, 0, 42, 80
2, 62375, Note_on_c, 0, 42, 0
2, 62400, Note_on_c, 0, 40, 80
2, 62855, Note_on_c, 0, 40, 0
2, 62880, Note_on_c, 0, 36, 80
2, 63335, Note_on_c, 0, 36, 0
2, 63360, Note_on_c, 0, 42, 80
2, 63815, Note_on_c, 0, 42, 0
2, 63840, Note_on_c, 0, 40, 80
2, 64295, Note_on_c, 0, 40, 0
2, 64320, Note_on_c, 0, 38, 80
2, 64775, Note_on_c, 0, 38, 0
2, 64800, Note_on_c, 0, 35, 80
2, 65255, Note_on_c, 0, 35, 0
2, 65280, Note_on_c, 0, 40, 80
2, 65735, Note_on_c, 0, 40, 0
2, 65760, Note_on_c, 0, 38, 80
2, 66215, Note_on_c, 0, 38, 0
2, 66240, Note_on_c, 0, 36, 80
2, 66695, Note_on_c, 0, 36, 0
2, 66720, Note_on_c, 0, 33, 80
2, 67175, Note_on_c, 0, 33, 0
2, 67200, Note_on_c, 0, 35, 80
2, 67655, Note_on_c, 0, 35, 0
2, 67680, Note_on_c, 0, 36, 80
2, 68135, Note_on_c, 0, 36, 0
2, 68160, Note_on_c, 0, 38, 80
2, 68615, Note_on_c, 0, 38, 0
2, 68640, Note_on_c, 0, 26, 80
2, 69095, Note_on_c, 0, 26, 0
2, 69120, Note_on_c, 0, 43, 80
2, 69575, Note_on_c, 0, 43, 0
2, 69600, Note_on_c, 0, 42, 80
2, 70055, Note_on_c, 0, 42, 0
2, 70080, Note_on_c, 0, 40, 80
2, 70535, Note_on_c, 0, 40, 0
2, 70560, Note_on_c, 0, 36, 80
2, 71015, Note_on_c, 0, 36, 0
2, 71040, Note_on_c, 0, 42, 80
2, 71495, Note_on_c, 0, 42, 0
2, 71520, Note_on_c, 0, 40, 80
2, 71975, Note_on_c, 0, 40, 0
2, 72000, Note_on_c, 0, 38, 80
2, 72455, Note_on_c, 0, 38, 0
2, 72480, Note_on_c, 0, 35, 80
2, 72935, Note_on_c, 0, 35, 0
2, 72960, Note_on_c, 0, 40, 80
2, 73415, Note_on_c, 0, 40, 0
2, 73440, Note_on_c, 0, 38, 80
2, 73895, Note_on_c, 0, 38, 0
2, 73920, Note_on_c, 0, 36, 80
2, 74375, Note_on_c, 0, 36, 0
2, 74400, Note_on_c, 0, 33, 80
2, 74855, Note_on_c, 0, 33, 0
2, 74880, Note_on_c, 0, 35, 80
2, 75335, Note_on_c, 0, 35, 0
2, 75360, Note_on_c, 0, 36, 80
2, 75815, Note_on_c, 0, 36, 0
2, 75840, Note_on_c, 0, 38, 80
2, 76295, Note_on_c, 0, 38, 0
2, 76320, Note_on_c, 0, 26, 80
2, 76768, Note_on_c, 0, 26, 0
2, 76769, End_track
3, 0, Start_track
3, 0, Title_t, "Instrument_02\000"
3, 0, Key_signature, 0, "major"
3, 0, Control_c, 1, 121, 0
3, 0, Program_c, 1, 50
3, 0, Control_c, 1, 7, 100
3, 0, Control_c, 1, 10, 64
3, 0, Control_c, 1, 91, 0
3, 0, Control_c, 1, 93, 0
3, 0, MIDI_port, 0
3, 0, Note_on_c, 1, 62, 80
3, 911, Note_on_c, 1, 62, 0
3, 960, Note_on_c, 1, 60, 80
3, 1415, Note_on_c, 1, 60, 0
3, 1440, Note_on_c, 1, 64, 80
3, 1895, Note_on_c, 1, 64, 0
3, 1920, Note_on_c, 1, 60, 80
3, 2831, Note_on_c, 1, 60, 0
3, 2880, Note_on_c, 1, 59, 80
3, 3335, Note_on_c, 1, 59, 0
3, 3360, Note_on_c, 1, 62, 80
3, 3815, Note_on_c, 1, 62, 0
3, 3840, Note_on_c, 1, 59, 80
3, 4751, Note_on_c, 1, 59, 0
3, 4800, Note_on_c, 1, 57, 80
3, 5255, Note_on_c, 1, 57, 0
3, 5280, Note_on_c, 1, 60, 80
3, 5735, Note_on_c, 1, 60, 0
3, 5760, Note_on_c, 1, 55, 80
3, 6215, Note_on_c, 1, 55, 0
3, 6240, Note_on_c, 1, 57, 80
3, 6695, Note_on_c, 1, 57, 0
3, 6720, Note_on_c, 1, 59, 80
3, 7175, Note_on_c, 1, 59, 0
3, 7200, Note_on_c, 1, 62, 80
3, 7655, Note_on_c, 1, 62, 0
3, 7680, Note_on_c, 1, 62, 80
3, 8591, Note_on_c, 1, 62, 0
3, 8640, Note_on_c, 1, 60, 80
3, 9095, Note_on_c, 1, 60, 0
3, 9120, Note_on_c, 1, 64, 80
3, 9575, Note_on_c, 1, 64, 0
3, 9600, Note_on_c, 1, 60, 80
3, 10511, Note_on_c, 1, 60, 0
3, 10560, Note_on_c, 1, 59, 80
3, 11015, Note_on_c, 1, 59, 0
3, 11040, Note_on_c, 1, 62, 80
3, 11495, Note_on_c, 1, 62, 0
3, 11520, Note_on_c, 1, 59, 80
3, 12431, Note_on_c, 1, 59, 0
3, 12480, Note_on_c, 1, 57, 80
3, 12935, Note_on_c, 1, 57, 0
3, 12960, Note_on_c, 1, 60, 80
3, 13415, Note_on_c, 1, 60, 0
3, 13440, Note_on_c, 1, 55, 80
3, 13895, Note_on_c, 1, 55, 0
3, 13920, Note_on_c, 1, 57, 80
3, 14375, Note_on_c, 1, 57, 0
3, 14400, Note_on_c, 1, 59, 80
3, 14855, Note_on_c, 1, 59, 0
3, 14880, Note_on_c, 1, 62, 80
3, 15335, Note_on_c, 1, 62, 0
3, 15360, Note_on_c, 1, 62, 80
3, 16271, Note_on_c, 1, 62, 0
3, 16320, Note_on_c, 1, 60, 80
3, 16775, Note_on_c, 1, 60, 0
3, 16800, Note_on_c, 1, 64, 80
3, 17255, Note_on_c, 1, 64, 0
3, 17280, Note_on_c, 1, 60, 80
3, 18191, Note_on_c, 1, 60, 0
3, 18240, Note_on_c, 1, 59, 80
3, 18695, Note_on_c, 1, 59, 0
3, 18720, Note_on_c, 1, 62, 80
3, 19175, Note_on_c, 1, 62, 0
3, 19200, Note_on_c, 1, 59, 80
3, 20111, Note_on_c, 1, 59, 0
3, 20160, Note_on_c, 1, 57, 80
3, 20615, Note_on_c, 1, 57, 0
3, 20640, Note_on_c, 1, 60, 80
3, 21095, Note_on_c, 1, 60, 0
3, 21120, Note_on_c, 1, 55, 80
3, 21575, Note_on_c, 1, 55, 0
3, 21600, Note_on_c, 1, 57, 80
3, 22055, Note_on_c, 1, 57, 0
3, 22080, Note_on_c, 1, 59, 80
3, 22535, Note_on_c, 1, 59, 0
3, 22560, Note_on_c, 1, 62, 80
3, 23015, Note_on_c, 1, 62, 0
3, 23040, Note_on_c, 1, 62, 80
3, 23951, Note_on_c, 1, 62, 0
3, 24000, Note_on_c, 1, 60, 80
3, 24455, Note_on_c, 1, 60, 0
3, 24480, Note_on_c, 1, 64, 80
3, 24935, Note_on_c, 1, 64, 0
3, 24960, Note_on_c, 1, 60, 80
3, 25871, Note_on_c, 1, 60, 0
3, 25920, Note_on_c, 1, 59, 80
3, 26375, Note_on_c, 1, 59, 0
3, 26400, Note_on_c, 1, 62, 80
3, 26855, Note_on_c, 1, 62, 0
3, 26880, Note_on_c, 1, 59, 80
3, 27791, Note_on_c, 1, 59, 0
3, 27840, Note_on_c, 1, 57, 80
3, 28295, Note_on_c, 1, 57, 0
3, 28320, Note_on_c, 1, 60, 80
3, 28775, Note_on_c, 1, 60, 0
3, 28800, Note_on_c, 1, 55, 80
3, 29255, Note_on_c, 1, 55, 0
3, 29280, Note_on_c, 1, 57, 80
3, 29735, Note_on_c, 1, 57, 0
3, 29760, Note_on_c, 1, 59, 80
3, 30215, Note_on_c, 1, 59, 0
3, 30240, Note_on_c, 1, 62, 80
3, 30695, Note_on_c, 1, 62, 0
3, 30720, Note_on_c, 1, 62, 80
3, 31631, Note_on_c, 1, 62, 0
3, 31680, Note_on_c, 1, 60, 80
3, 32135, Note_on_c, 1, 60, 0
3, 32160, Note_on_c, 1, 64, 80
3, 32615, Note_on_c, 1, 64, 0
3, 32640, Note_on_c, 1, 60, 80
3, 33551, Note_on_c, 1, 60, 0
3, 33600, Note_on_c, 1, 59, 80
3, 34055, Note_on_c, 1, 59, 0
3, 34080, Note_on_c, 1, 62, 80
3, 34535, Note_on_c, 1, 62, 0
3, 34560, Note_on_c, 1, 59, 80
3, 35471, Note_on_c, 1, 59, 0
3, 35520, Note_on_c, 1, 57, 80
3, 35975, Note_on_c, 1, 57, 0
3, 36000, Note_on_c, 1, 60, 80
3, 36455, Note_on_c, 1, 60, 0
3, 36480, Note_on_c, 1, 55, 80
3, 36935, Note_on_c, 1, 55, 0
3, 36960, Note_on_c, 1, 57, 80
3, 37415, Note_on_c, 1, 57, 0
3, 37440, Note_on_c, 1, 59, 80
3, 37895, Note_on_c, 1, 59, 0
3, 37920, Note_on_c, 1, 62, 80
3, 38375, Note_on_c, 1, 62, 0
3, 38400, Note_on_c, 1, 62, 80
3, 39311, Note_on_c, 1, 62, 0
3, 39360, Note_on_c, 1, 60, 80
3, 39815, Note_on_c, 1, 60, 0
3, 39840, Note_on_c, 1, 64, 80
3, 40295, Note_on_c, 1, 64, 0
3, 40320, Note_on_c, 1, 60, 80
3, 41231, Note_on_c, 1, 60, 0
3, 41280, Note_on_c, 1, 59, 80
3, 41735, Note_on_c, 1, 59, 0
3, 41760, Note_on_c, 1, 62, 80
3, 42215, Note_on_c, 1, 62, 0
3, 42240, Note_on_c, 1, 59, 80
3, 43151, Note_on_c, 1, 59, 0
3, 43200, Note_on_c, 1, 57, 80
3, 43655, Note_on_c, 1, 57, 0
3, 43680, Note_on_c, 1, 60, 80
3, 44135, Note_on_c, 1, 60, 0
3, 44160, Note_on_c, 1, 55, 80
3, 44615, Note_on_c, 1, 55, 0
3, 44640, Note_on_c, 1, 57, 80
3, 45095, Note_on_c, 1, 57, 0
3, 45120, Note_on_c, 1, 59, 80
3, 45575, Note_on_c, 1, 59, 0
3, 45600, Note_on_c, 1, 62, 80
3, 46055, Note_on_c, 1, 62, 0
3, 46080, Note_on_c, 1, 62, 80
3, 46991, Note_on_c, 1, 62, 0
3, 47040, Note_on_c, 1, 60, 80
3, 47495, Note_on_c, 1, 60, 0
3, 47520, Note_on_c, 1, 64, 80
3, 47975, Note_on_c, 1, 64, 0
3, 48000, Note_on_c, 1, 60, 80
3, 48911, Note_on_c, 1, 60, 0
3, 48960, Note_on_c, 1, 59, 80
3, 49415, Note_on_c, 1, 59, 0
3, 49440, Note_on_c, 1, 62, 80
3, 49895, Note_on_c, 1, 62, 0
3, 49920, Note_on_c, 1, 59, 80
3, 50831, Note_on_c, 1, 59, 0
3, 50880, Note_on_c, 1, 57, 80
3, 51335, Note_on_c, 1, 57, 0
3, 51360, Note_on_c, 1, 60, 80
3, 51815, Note_on_c, 1, 60, 0
3, 51840, Note_on_c, 1, 55, 80
3, 52295, Note_on_c, 1, 55, 0
3, 52320, Note_on_c, 1, 57, 80
3, 52775, Note_on_c, 1, 57, 0
3, 52800, Note_on_c, 1, 59, 80
3, 53255, Note_on_c, 1, 59, 0
3, 53280, Note_on_c, 1, 62, 80
3, 53735, Note_on_c, 1, 62, 0
3, 53760, Note_on_c, 1, 62, 80
3, 54671, Note_on_c, 1, 62, 0
3, 54720, Note_on_c, 1, 60, 80
3, 55175, Note_on_c, 1, 60, 0
3, 55200, Note_on_c, 1, 64, 80
3, 55655, Note_on_c, 1, 64, 0
3, 55680, Note_on_c, 1, 60, 80
3, 56591, Note_on_c, 1, 60, 0
3, 56640, Note_on_c, 1, 59, 80
3, 57095, Note_on_c, 1, 59, 0
3, 57120, Note_on_c, 1, 62, 80
3, 57575, Note_on_c, 1, 62, 0
3, 57600, Note_on_c, 1, 59, 80
3, 58511, Note_on_c, 1, 59, 0
3, 58560, Note_on_c, 1, 57, 80
3, 59015, Note_on_c, 1, 57, 0
3, 59040, Note_on_c, 1, 60, 80
3, 59495, Note_on_c, 1, 60, 0
3, 59520, Note_on_c, 1, 55, 80
3, 59975, Note_on_c, 1, 55, 0
3, 60000, Note_on_c, 1, 57, 80
3, 60455, Note_on_c, 1, 57, 0
3, 60480, Note_on_c, 1, 59, 80
3, 60935, Note_on_c, 1, 59, 0
3, 60960, Note_on_c, 1, 62, 80
3, 61415, Note_on_c, 1, 62, 0
3, 61440, Note_on_c, 1, 62, 80
3, 62351, Note_on_c, 1, 62, 0
3, 62400, Note_on_c, 1, 60, 80
3, 62855, Note_on_c, 1, 60, 0
3, 62880, Note_on_c, 1, 64, 80
3, 63335, Note_on_c, 1, 64, 0
3, 63360, Note_on_c, 1, 60, 80
3, 64271, Note_on_c, 1, 60, 0
3, 64320, Note_on_c, 1, 59, 80
3, 64775, Note_on_c, 1, 59, 0
3, 64800, Note_on_c, 1, 62, 80
3, 65255, Note_on_c, 1, 62, 0
3, 65280, Note_on_c, 1, 59, 80
3, 66191, Note_on_c, 1, 59, 0
3, 66240, Note_on_c, 1, 57, 80
3, 66695, Note_on_c, 1, 57, 0
3, 66720, Note_on_c, 1, 60, 80
3, 67175, Note_on_c, 1, 60, 0
3, 67200, Note_on_c, 1, 55, 80
3, 67655, Note_on_c, 1, 55, 0
3, 67680, Note_on_c, 1, 57, 80
3, 68135, Note_on_c, 1, 57, 0
3, 68160, Note_on_c, 1, 59, 80
3, 68615, Note_on_c, 1, 59, 0
3, 68640, Note_on_c, 1, 62, 80
3, 69095, Note_on_c, 1, 62, 0
3, 69120, Note_on_c, 1, 62, 80
3, 70031, Note_on_c, 1, 62, 0
3, 70080, Note_on_c, 1, 60, 80
3, 70535, Note_on_c, 1, 60, 0
3, 70560, Note_on_c, 1, 64, 80
3, 71015, Note_on_c, 1, 64, 0
3, 71040, Note_on_c, 1, 60, 80
3, 71951, Note_on_c, 1, 60, 0
3, 72000, Note_on_c, 1, 59, 80
3, 72455, Note_on_c, 1, 59, 0
3, 72480, Note_on_c, 1, 62, 80
3, 72935, Note_on_c, 1, 62, 0
3, 72960, Note_on_c, 1, 59, 80
3, 73871, Note_on_c, 1, 59, 0
3, 73920, Note_on_c, 1, 57, 80
3, 74375, Note_on_c, 1, 57, 0
3, 74400, Note_on_c, 1, 60, 80
3, 74855, Note_on_c, 1, 60, 0
3, 74880, Note_on_c, 1, 55, 80
3, 75335, Note_on_c, 1, 55, 0
3, 75360, Note_on_c, 1, 57, 80
3, 75815, Note_on_c, 1, 57, 0
3, 75840, Note_on_c, 1, 59, 80
3, 76295, Note_on_c, 1, 59, 0
3, 76320, Note_on_c, 1, 62, 80
3, 76768, Note_on_c, 1, 62, 0
3, 76769, End_track
4, 0, Start_track
4, 0, Title_t, "Instrument_03\000"
4, 0, Key_signature, 0, "major"
4, 0, Control_c, 2, 121, 0
4, 0, Program_c, 2, 50
4, 0, Control_c, 2, 7, 100
4, 0, Control_c, 2, 10, 64
4, 0, Control_c, 2, 91, 0
4, 0, Control_c, 2, 93, 0
4, 0, MIDI_port, 0
4, 0, Note_on_c, 2, 59, 80
4, 455, Note_on_c, 2, 59, 0
4, 480, Note_on_c, 2, 57, 80
4, 935, Note_on_c, 2, 57, 0
4, 960, Note_on_c, 2, 55, 80
4, 1871, Note_on_c, 2, 55, 0
4, 1920, Note_on_c, 2, 57, 80
4, 2375, Note_on_c, 2, 57, 0
4, 2400, Note_on_c, 2, 55, 80
4, 2855, Note_on_c, 2, 55, 0
4, 2880, Note_on_c, 2, 54, 80
4, 3791, Note_on_c, 2, 54, 0
4, 3840, Note_on_c, 2, 55, 80
4, 4295, Note_on_c, 2, 55, 0
4, 4320, Note_on_c, 2, 54, 80
4, 4775, Note_on_c, 2, 54, 0
4, 4800, Note_on_c, 2, 52, 80
4, 5711, Note_on_c, 2, 52, 0
4, 5760, Note_on_c, 2, 50, 80
4, 6215, Note_on_c, 2, 50, 0
4, 6240, Note_on_c, 2, 52, 80
4, 6695, Note_on_c, 2, 52, 0
4, 6720, Note_on_c, 2, 54, 80
4, 7631, Note_on_c, 2, 54, 0
4, 7680, Note_on_c, 2, 59, 80
4, 8135, Note_on_c, 2, 59, 0
4, 8160, Note_on_c, 2, 57, 80
4, 8615, Note_on_c, 2, 57, 0
4, 8640, Note_on_c, 2, 55, 80
4, 9551, Note_on_c, 2, 55, 0
4, 9600, Note_on_c, 2, 57, 80
4, 10055, Note_on_c, 2, 57, 0
4, 10080, Note_on_c, 2, 55, 80
4, 10535, Note_on_c, 2, 55, 0
4, 10560, Note_on_c, 2, 54, 80
4, 11471, Note_on_c, 2, 54, 0
4, 11520, Note_on_c, 2, 55, 80
4, 11975, Note_on_c, 2, 55, 0
4, 12000, Note_on_c, 2, 54, 80
4, 12455, Note_on_c, 2, 54, 0
4, 12480, Note_on_c, 2, 52, 80
4, 13391, Note_on_c, 2, 52, 0
4, 13440, Note_on_c, 2, 50, 80
4, 13895, Note_on_c, 2, 50, 0
4, 13920, Note_on_c, 2, 52, 80
4, 14375, Note_on_c, 2, 52, 0
4, 14400, Note_on_c, 2, 54, 80
4, 15311, Note_on_c, 2, 54, 0
4, 15360, Note_on_c, 2, 59, 80
4, 15815, Note_on_c, 2, 59, 0
4, 15840, Note_on_c, 2, 57, 80
4, 16295, Note_on_c, 2, 57, 0
4, 16320, Note_on_c, 2, 55, 80
4, 17231, Note_on_c, 2, 55, 0
4, 17280, Note_on_c, 2, 57, 80
4, 17735, Note_on_c, 2, 57, 0
4, 17760, Note_on_c, 2, 55, 80
4, 18215, Note_on_c, 2, 55, 0
4, 18240, Note_on_c, 2, 54, 80
4, 19151, Note_on_c, 2, 54, 0
4, 19200, Note_on_c, 2, 55, 80
4, 19655, Note_on_c, 2, 55, 0
4, 19680, Note_on_c, 2, 54, 80
4, 20135, Note_on_c, 2, 54, 0
4, 20160, Note_on_c, 2, 52, 80
4, 21071, Note_on_c, 2, 52, 0
4, 21120, Note_on_c, 2, 50, 80
4, 21575, Note_on_c, 2, 50, 0
4, 21600, Note_on_c, 2, 52, 80
4, 22055, Note_on_c, 2, 52, 0
4, 22080, Note_on_c, 2, 54, 80
4, 22991, Note_on_c, 2, 54, 0
4, 23040, Note_on_c, 2, 59, 80
4, 23495, Note_on_c, 2, 59, 0
4, 23520, Note_on_c, 2, 57, 80
4, 23975, Note_on_c, 2, 57, 0
4, 24000, Note_on_c, 2, 55, 80
4, 24911, Note_on_c, 2, 55, 0
4, 24960, Note_on_c, 2, 57, 80
4, 25415, Note_on_c, 2, 57, 0
4, 25440, Note_on_c, 2, 55, 80
4, 25895, Note_on_c, 2, 55, 0
4, 25920, Note_on_c, 2, 54, 80
4, 26831, Note_on_c, 2, 54, 0
4, 26880, Note_on_c, 2, 55, 80
4, 27335, Note_on_c, 2, 55, 0
4, 27360, Note_on_c, 2, 54, 80
4, 27815, Note_on_c, 2, 54, 0
4, 27840, Note_on_c, 2, 52, 80
4, 28751, Note_on_c, 2, 52, 0
4, 28800, Note_on_c, 2, 50, 80
4, 29255, Note_on_c, 2, 50, 0
4, 29280, Note_on_c, 2, 52, 80
4, 29735, Note_on_c, 2, 52, 0
4, 29760, Note_on_c, 2, 54, 80
4, 30671, Note_on_c, 2, 54, 0
4, 30720, Note_on_c, 2, 59, 80
4, 31175, Note_on_c, 2, 59, 0
4, 31200, Note_on_c, 2, 57, 80
4, 31655, Note_on_c, 2, 57, 0
4, 31680, Note_on_c, 2, 55, 80
4, 32591, Note_on_c, 2, 55, 0
4, 32640, Note_on_c, 2, 57, 80
4, 33095, Note_on_c, 2, 57, 0
4, 33120, Note_on_c, 2, 55, 80
4, 33575, Note_on_c, 2, 55, 0
4, 33600, Note_on_c, 2, 54, 80
4, 34511, Note_on_c, 2, 54, 0
4, 34560, Note_on_c, 2, 55, 80
4, 35015, Note_on_c, 2, 55, 0
4, 35040, Note_on_c, 2, 54, 80
4, 35495, Note_on_c, 2, 54, 0
4, 35520, Note_on_c, 2, 52, 80
4, 36431, Note_on_c, 2, 52, 0
4, 36480, Note_on_c, 2, 50, 80
4, 36935, Note_on_c, 2, 50, 0
4, 36960, Note_on_c, 2, 52, 80
4, 37415, Note_on_c, 2, 52, 0
4, 37440, Note_on_c, 2, 54, 80
4, 38351, Note_on_c, 2, 54, 0
4, 38400, Note_on_c, 2, 59, 80
4, 38855, Note_on_c, 2, 59, 0
4, 38880, Note_on_c, 2, 57, 80
4, 39335, Note_on_c, 2, 57, 0
4, 39360, Note_on_c, 2, 55, 80
4, 40271, Note_on_c, 2, 55, 0
4, 40320, Note_on_c, 2, 57, 80
4, 40775, Note_on_c, 2, 57, 0
4, 40800, Note_on_c, 2, 55, 80
4, 41255, Note_on_c, 2, 55, 0
4, 41280, Note_on_c, 2, 54, 80
4, 42191, Note_on_c, 2, 54, 0
4, 42240, Note_on_c, 2, 55, 80
4, 42695, Note_on_c, 2, 55, 0
4, 42720, Note_on_c, 2, 54, 80
4, 43175, Note_on_c, 2, 54, 0
4, 43200, Note_on_c, 2, 52, 80
4, 44111, Note_on_c, 2, 52, 0
4, 44160, Note_on_c, 2, 50, 80
4, 44615, Note_on_c, 2, 50, 0
4, 44640, Note_on_c, 2, 52, 80
4, 45095, Note_on_c, 2, 52, 0
4, 45120, Note_on_c, 2, 54, 80
4, 46031, Note_on_c, 2, 54, 0
4, 46080, Note_on_c, 2, 59, 80
4, 46535, Note_on_c, 2, 59, 0
4, 46560, Note_on_c, 2, 57, 80
4, 47015, Note_on_c, 2, 57, 0
4, 47040, Note_on_c, 2, 55, 80
4, 47951, Note_on_c, 2, 55, 0
4, 48000, Note_on_c, 2, 57, 80
4, 48455, Note_on_c, 2, 57, 0
4, 48480, Note_on_c, 2, 55, 80
4, 48935, Note_on_c, 2, 55, 0
4, 48960, Note_on_c, 2, 54, 80
4, 49871, Note_on_c, 2, 54, 0
4, 49920, Note_on_c, 2, 55, 80
4, 50375, Note_on_c, 2, 55, 0
4, 50400, Note_on_c, 2, 54, 80
4, 50855, Note_on_c, 2, 54, 0
4, 50880, Note_on_c, 2, 52, 80
4, 51791, Note_on_c, 2, 52, 0
4, 51840, Note_on_c, 2, 50, 80
4, 52295, Note_on_c, 2, 50, 0
4, 52320, Note_on_c, 2, 52, 80
4, 52775, Note_on_c, 2, 52, 0
4, 52800, Note_on_c, 2, 54, 80
4, 53711, Note_on_c, 2, 54, 0
4, 53760, Note_on_c, 2, 59, 80
4, 54215, Note_on_c, 2, 59, 0
4, 54240, Note_on_c, 2, 57, 80
4, 54695, Note_on_c, 2, 57, 0
4, 54720, Note_on_c, 2, 55, 80
4, 55631, Note_on_c, 2, 55, 0
4, 55680, Note_on_c, 2, 57, 80
4, 56135, Note_on_c, 2, 57, 0
4, 56160, Note_on_c, 2, 55, 80
4, 56615, Note_on_c, 2, 55, 0
4, 56640, Note_on_c, 2, 54, 80
4, 57551, Note_on_c, 2, 54, 0
4, 57600, Note_on_c, 2, 55, 80
4, 58055, Note_on_c, 2, 55, 0
4, 58080, Note_on_c, 2, 54, 80
4, 58535, Note_on_c, 2, 54, 0
4, 58560, Note_on_c, 2, 52, 80
4, 59471, Note_on_c, 2, 52, 0
4, 59520, Note_on_c, 2, 50, 80
4, 59975, Note_on_c, 2, 50, 0
4, 60000, Note_on_c, 2, 52, 80
4, 60455, Note_on_c, 2, 52, 0
4, 60480, Note_on_c, 2, 54, 80
4, 61391, Note_on_c, 2, 54, 0
4, 61440, Note_on_c, 2, 59, 80
4, 61895, Note_on_c, 2, 59, 0
4, 61920, Note_on_c, 2, 57, 80
4, 62375, Note_on_c, 2, 57, 0
4, 62400, Note_on_c, 2, 55, 80
4, 63311, Note_on_c, 2, 55, 0
4, 63360, Note_on_c, 2, 57, 80
4, 63815, Note_on_c, 2, 57, 0
4, 63840, Note_on_c, 2, 55, 80
4, 64295, Note_on_c, 2, 55, 0
4, 64320, Note_on_c, 2, 54, 80
4, 65231, Note_on_c, 2, 54, 0
4, 65280, Note_on_c, 2, 55, 80
4, 65735, Note_on_c, 2, 55, 0
4, 65760, Note_on_c, 2, 54, 80
4, 66215, Note_on_c, 2, 54, 0
4, 66240, Note_on_c, 2, 52, 80
4, 67151, Note_on_c, 2, 52, 0
4, 67200, Note_on_c, 2, 50, 80
4, 67655, Note_on_c, 2, 50, 0
4, 67680, Note_on_c, 2, 52, 80
4, 68135, Note_on_c, 2, 52, 0
4, 68160, Note_on_c, 2, 54, 80
4, 69071, Note_on_c, 2, 54, 0
4, 69120, Note_on_c, 2, 59, 80
4, 69575, Note_on_c, 2, 59, 0
4, 69600, Note_on_c, 2, 57, 80
4, 70055, Note_on_c, 2, 57, 0
4, 70080, Note_on_c, 2, 55, 80
4, 70991, Note_on_c, 2, 55, 0
4, 71040, Note_on_c, 2, 57, 80
4, 71495, Note_on_c, 2, 57, 0
4, 71520, Note_on_c, 2, 55, 80
4, 71975, Note_on_c, 2, 55, 0
4, 72000, Note_on_c, 2, 54, 80
4, 72911, Note_on_c, 2, 54, 0
4, 72960, Note_on_c, 2, 55, 80
4, 73415, Note_on_c, 2, 55, 0
4, 73440, Note_on_c, 2, 54, 80
4, 73895, Note_on_c, 2, 54, 0
4, 73920, Note_on_c, 2, 52, 80
4, 74831, Note_on_c, 2, 52, 0
4, 74880, Note_on_c, 2, 50, 80
4, 75335, Note_on_c, 2, 50, 0
4, 75360, Note_on_c, 2, 52, 80
4, 75815, Note_on_c, 2, 52, 0
4, 75840, Note_on_c, 2, 54, 80
4, 76744, Note_on_c, 2, 54, 0
4, 76745, End_track
5, 0, Start_track
5, 0, Title_t, "Instrument_04\000"
5, 0, Key_signature, 0, "major"
5, 0, Control_c, 3, 121, 0
5, 0, Program_c, 3, 80
5, 0, Control_c, 3, 7, 100
5, 0, Control_c, 3, 10, 64
5, 0, Control_c, 3, 91, 0
5, 0, Control_c, 3, 93, 0
5, 0, MIDI_port, 0
5, 15600, Note_on_c, 3, 79, 96
5, 15713, Note_on_c, 3, 79, 0
5, 15720, Note_on_c, 3, 74, 96
5, 15833, Note_on_c, 3, 74, 0
5, 15840, Note_on_c, 3, 79, 96
5, 16067, Note_on_c, 3, 79, 0
5, 16080, Note_on_c, 3, 79, 96
5, 16193, Note_on_c, 3, 79, 0
5, 16200, Note_on_c, 3, 74, 96
5, 16313, Note_on_c, 3, 74, 0
5, 16320, Note_on_c, 3, 79, 96
5, 16547, Note_on_c, 3, 79, 0
5, 16560, Note_on_c, 3, 78, 96
5, 16673, Note_on_c, 3, 78, 0
5, 16680, Note_on_c, 3, 76, 96
5, 17249, Note_on_c, 3, 76, 0
5, 17520, Note_on_c, 3, 78, 96
5, 17633, Note_on_c, 3, 78, 0
5, 17640, Note_on_c, 3, 72, 96
5, 17753, Note_on_c, 3, 72, 0
5, 17760, Note_on_c, 3, 78, 96
5, 17987, Note_on_c, 3, 78, 0
5, 18000, Note_on_c, 3, 78, 96
5, 18113, Note_on_c, 3, 78, 0
5, 18120, Note_on_c, 3, 72, 96
5, 18233, Note_on_c, 3, 72, 0
5, 18240, Note_on_c, 3, 78, 96
5, 18467, Note_on_c, 3, 78, 0
5, 18480, Note_on_c, 3, 76, 96
5, 18593, Note_on_c, 3, 76, 0
5, 18600, Note_on_c, 3, 74, 96
5, 19169, Note_on_c, 3, 74, 0
5, 19440, Note_on_c, 3, 76, 96
5, 19553, Note_on_c, 3, 76, 0
5, 19560, Note_on_c, 3, 71, 96
5, 19673, Note_on_c, 3, 71, 0
5, 19680, Note_on_c, 3, 76, 96
5, 19907, Note_on_c, 3, 76, 0
5, 19920, Note_on_c, 3, 76, 96
5, 20033, Note_on_c, 3, 76, 0
5, 20040, Note_on_c, 3, 71, 96
5, 20153, Note_on_c, 3, 71, 0
5, 20160, Note_on_c, 3, 72, 96
5, 20387, Note_on_c, 3, 72, 0
5, 20400, Note_on_c, 3, 74, 96
5, 20627, Note_on_c, 3, 74, 0
5, 20640, Note_on_c, 3, 76, 96
5, 20867, Note_on_c, 3, 76, 0
5, 20880, Note_on_c, 3, 78, 96
5, 21107, Note_on_c, 3, 78, 0
5, 21120, Note_on_c, 3, 79, 96
5, 21347, Note_on_c, 3, 79, 0
5, 21360, Note_on_c, 3, 83, 96
5, 21587, Note_on_c, 3, 83, 0
5, 21600, Note_on_c, 3, 81, 96
5, 21713, Note_on_c, 3, 81, 0
5, 21720, Note_on_c, 3, 83, 96
5, 21833, Note_on_c, 3, 83, 0
5, 21840, Note_on_c, 3, 84, 96
5, 22067, Note_on_c, 3, 84, 0
5, 22080, Note_on_c, 3, 83, 96
5, 22307, Note_on_c, 3, 83, 0
5, 22320, Note_on_c, 3, 81, 96
5, 22433, Note_on_c, 3, 81, 0
5, 22440, Note_on_c, 3, 79, 96
5, 22781, Note_on_c, 3, 79, 0
5, 22800, Note_on_c, 3, 78, 96
5, 23027, Note_on_c, 3, 78, 0
5, 23280, Note_on_c, 3, 79, 96
5, 23393, Note_on_c, 3, 79, 0
5, 23400, Note_on_c, 3, 74, 96
5, 23513, Note_on_c, 3, 74, 0
5, 23520, Note_on_c, 3, 79, 96
5, 23747, Note_on_c, 3, 79, 0
5, 23760, Note_on_c, 3, 79, 96
5, 23873, Note_on_c, 3, 79, 0
5, 23880, Note_on_c, 3, 74, 96
5, 23993, Note_on_c, 3, 74, 0
5, 24000, Note_on_c, 3, 79, 96
5, 24227, Note_on_c, 3, 79, 0
5, 24240, Note_on_c, 3, 78, 96
5, 24353, Note_on_c, 3, 78, 0
5, 24360, Note_on_c, 3, 76, 96
5, 24929, Note_on_c, 3, 76, 0
5, 25200, Note_on_c, 3, 78, 96
5, 25313, Note_on_c, 3, 78, 0
5, 25320, Note_on_c, 3, 72, 96
5, 25433, Note_on_c, 3, 72, 0
5, 25440, Note_on_c, 3, 78, 96
5, 25667, Note_on_c, 3, 78, 0
5, 25680, Note_on_c, 3, 78, 96
5, 25793, Note_on_c, 3, 78, 0
5, 25800, Note_on_c, 3, 72, 96
5, 25913, Note_on_c, 3, 72, 0
5, 25920, Note_on_c, 3, 78, 96
5, 26147, Note_on_c, 3, 78, 0
5, 26160, Note_on_c, 3, 76, 96
5, 26273, Note_on_c, 3, 76, 0
5, 26280, Note_on_c, 3, 74, 96
5, 26849, Note_on_c, 3, 74, 0
5, 27120, Note_on_c, 3, 76, 96
5, 27233, Note_on_c, 3, 76, 0
5, 27240, Note_on_c, 3, 71, 96
5, 27353, Note_on_c, 3, 71, 0
5, 27360, Note_on_c, 3, 76, 96
5, 27587, Note_on_c, 3, 76, 0
5, 27600, Note_on_c, 3, 76, 96
5, 27713, Note_on_c, 3, 76, 0
5, 27720, Note_on_c, 3, 71, 96
5, 27833, Note_on_c, 3, 71, 0
5, 27840, Note_on_c, 3, 72, 96
5, 28067, Note_on_c, 3, 72, 0
5, 28080, Note_on_c, 3, 74, 96
5, 28307, Note_on_c, 3, 74, 0
5, 28320, Note_on_c, 3, 76, 96
5, 28547, Note_on_c, 3, 76, 0
5, 28560, Note_on_c, 3, 78, 96
5, 28787, Note_on_c, 3, 78, 0
5, 28800, Note_on_c, 3, 79, 96
5, 29027, Note_on_c, 3, 79, 0
5, 29040, Note_on_c, 3, 83, 96
5, 29267, Note_on_c, 3, 83, 0
5, 29280, Note_on_c, 3, 81, 96
5, 29393, Note_on_c, 3, 81, 0
5, 29400, Note_on_c, 3, 83, 96
5, 29513, Note_on_c, 3, 83, 0
5, 29520, Note_on_c, 3, 84, 96
5, 29747, Note_on_c, 3, 84, 0
5, 29760, Note_on_c, 3, 83, 96
5, 29987, Note_on_c, 3, 83, 0
5, 30000, Note_on_c, 3, 81, 96
5, 30113, Note_on_c, 3, 81, 0
5, 30120, Note_on_c, 3, 79, 96
5, 30461, Note_on_c, 3, 79, 0
5, 30480, Note_on_c, 3, 78, 96
5, 30707, Note_on_c, 3, 78, 0
5, 30720, Note_on_c, 3, 79, 96
5, 32543, Note_on_c, 3, 79, 0
5, 32640, Note_on_c, 3, 78, 96
5, 34463, Note_on_c, 3, 78, 0
5, 34560, Note_on_c, 3, 76, 96
5, 36383, Note_on_c, 3, 76, 0
5, 36480, Note_on_c, 3, 74, 96
5, 38303, Note_on_c, 3, 74, 0
5, 38400, Note_on_c, 3, 79, 96
5, 40223, Note_on_c, 3, 79, 0
5, 40320, Note_on_c, 3, 78, 96
5, 42143, Note_on_c, 3, 78, 0
5, 42240, Note_on_c, 3, 76, 96
5, 44063, Note_on_c, 3, 76, 0
5, 44160, Note_on_c, 3, 74, 96
5, 45983, Note_on_c, 3, 74, 0
5, 46320, Note_on_c, 3, 79, 96
5, 46433, Note_on_c, 3, 79, 0
5, 46440, Note_on_c, 3, 74, 96
5, 46553, Note_on_c, 3, 74, 0
5, 46560, Note_on_c, 3, 79, 96
5, 46787, Note_on_c, 3, 79, 0
5, 46800, Note_on_c, 3, 79, 96
5, 46913, Note_on_c, 3, 79, 0
5, 46920, Note_on_c, 3, 74, 96
5, 47033, Note_on_c, 3, 74, 0
5, 47040, Note_on_c, 3, 79, 96
5, 47267, Note_on_c, 3, 79, 0
5, 47280, Note_on_c, 3, 78, 96
5, 47393, Note_on_c, 3, 78, 0
5, 47400, Note_on_c, 3, 76, 96
5, 47969, Note_on_c, 3, 76, 0
5, 48240, Note_on_c, 3, 78, 96
5, 48353, Note_on_c, 3, 78, 0
5, 48360, Note_on_c, 3, 72, 96
5, 48473, Note_on_c, 3, 72, 0
5, 48480, Note_on_c, 3, 78, 96
5, 48707, Note_on_c, 3, 78, 0
5, 48720, Note_on_c, 3, 78, 96
5, 48833, Note_on_c, 3, 78, 0
5, 48840, Note_on_c, 3, 72, 96
5, 48953, Note_on_c, 3, 72, 0
5, 48960, Note_on_c, 3, 78, 96
5, 49187, Note_on_c, 3, 78, 0
5, 49200, Note_on_c, 3, 76, 96
5, 49313, Note_on_c, 3, 76, 0
5, 49320, Note_on_c, 3, 74, 96
5, 49889, Note_on_c, 3, 74, 0
5, 50160, Note_on_c, 3, 76, 96
5, 50273, Note_on_c, 3, 76, 0
5, 50280, Note_on_c, 3, 71, 96
5, 50393, Note_on_c, 3, 71, 0
5, 50400, Note_on_c, 3, 76, 96
5, 50627, Note_on_c, 3, 76, 0
5, 50640, Note_on_c, 3, 76, 96
5, 50753, Note_on_c, 3, 76, 0
5, 50760, Note_on_c, 3, 71, 96
5, 50873, Note_on_c, 3, 71, 0
5, 50880, Note_on_c, 3, 72, 96
5, 51107, Note_on_c, 3, 72, 0
5, 51120, Note_on_c, 3, 74, 96
5, 51347, Note_on_c, 3, 74, 0
5, 51360, Note_on_c, 3, 76, 96
5, 51587, Note_on_c, 3, 76, 0
5, 51600, Note_on_c, 3, 78, 96
5, 51827, Note_on_c, 3, 78, 0
5, 51840, Note_on_c, 3, 79, 96
5, 52067, Note_on_c, 3, 79, 0
5, 52080, Note_on_c, 3, 83, 96
5, 52307, Note_on_c, 3, 83, 0
5, 52320, Note_on_c, 3, 81, 96
5, 52433, Note_on_c, 3, 81, 0
5, 52440, Note_on_c, 3, 83, 96
5, 52553, Note_on_c, 3, 83, 0
5, 52560, Note_on_c, 3, 84, 96
5, 52787, Note_on_c, 3, 84, 0
5, 52800, Note_on_c, 3, 83, 96
5, 53027, Note_on_c, 3, 83, 0
5, 53040, Note_on_c, 3, 81, 96
5, 53153, Note_on_c, 3, 81, 0
5, 53160, Note_on_c, 3, 79, 96
5, 53501, Note_on_c, 3, 79, 0
5, 53520, Note_on_c, 3, 78, 96
5, 53747, Note_on_c, 3, 78, 0
5, 54000, Note_on_c, 3, 79, 96
5, 54113, Note_on_c, 3, 79, 0
5, 54120, Note_on_c, 3, 74, 96
5, 54233, Note_on_c, 3, 74, 0
5, 54240, Note_on_c, 3, 79, 96
5, 54467, Note_on_c, 3, 79, 0
5, 54480, Note_on_c, 3, 79, 96
5, 54593, Note_on_c, 3, 79, 0
5, 54600, Note_on_c, 3, 74, 96
5, 54713, Note_on_c, 3, 74, 0
5, 54720, Note_on_c, 3, 79, 96
5, 54947, Note_on_c, 3, 79, 0
5, 54960, Note_on_c, 3, 78, 96
5, 55073, Note_on_c, 3, 78, 0
5, 55080, Note_on_c, 3, 76, 96
5, 55649, Note_on_c, 3, 76, 0
5, 55920, Note_on_c, 3, 78, 96
5, 56033, Note_on_c, 3, 78, 0
5, 56040, Note_on_c, 3, 72, 96
5, 56153, Note_on_c, 3, 72, 0
5, 56160, Note_on_c, 3, 78, 96
5, 56387, Note_on_c, 3, 78, 0
5, 56400, Note_on_c, 3, 78, 96
5, 56513, Note_on_c, 3, 78, 0
5, 56520, Note_on_c, 3, 72, 96
5, 56633, Note_on_c, 3, 72, 0
5, 56640, Note_on_c, 3, 78, 96
5, 56867, Note_on_c, 3, 78, 0
5, 56880, Note_on_c, 3, 76, 96
5, 56993, Note_on_c, 3, 76, 0
5, 57000, Note_on_c, 3, 74, 96
5, 57569, Note_on_c, 3, 74, 0
5, 57840, Note_on_c, 3, 76, 96
5, 57953, Note_on_c, 3, 76, 0
5, 57960, Note_on_c, 3, 71, 96
5, 58073, Note_on_c, 3, 71, 0
5, 58080, Note_on_c, 3, 76, 96
5, 58307, Note_on_c, 3, 76, 0
5, 58320, Note_on_c, 3, 76, 96
5, 58433, Note_on_c, 3, 76, 0
5, 58440, Note_on_c, 3, 71, 96
5, 58553, Note_on_c, 3, 71, 0
5, 58560, Note_on_c, 3, 72, 96
5, 58787, Note_on_c, 3, 72, 0
5, 58800, Note_on_c, 3, 74, 96
5, 59027, Note_on_c, 3, 74, 0
5, 59040, Note_on_c, 3, 76, 96
5, 59267, Note_on_c, 3, 76, 0
5, 59280, Note_on_c, 3, 78, 96
5, 59507, Note_on_c, 3, 78, 0
5, 59520, Note_on_c, 3, 79, 96
5, 59747, Note_on_c, 3, 79, 0
5, 59760, Note_on_c, 3, 83, 96
5, 59987, Note_on_c, 3, 83, 0
5, 60000, Note_on_c, 3, 81, 96
5, 60113, Note_on_c, 3, 81, 0
5, 60120, Note_on_c, 3, 83, 96
5, 60233, Note_on_c, 3, 83, 0
5, 60240, Note_on_c, 3, 84, 96
5, 60467, Note_on_c, 3, 84, 0
5, 60480, Note_on_c, 3, 83, 96
5, 60707, Note_on_c, 3, 83, 0
5, 60720, Note_on_c, 3, 81, 96
5, 60833, Note_on_c, 3, 81, 0
5, 60840, Note_on_c, 3, 79, 96
5, 61181, Note_on_c, 3, 79, 0
5, 61200, Note_on_c, 3, 78, 96
5, 61427, Note_on_c, 3, 78, 0
5, 61680, Note_on_c, 3, 79, 96
5, 61793, Note_on_c, 3, 79, 0
5, 61800, Note_on_c, 3, 74, 96
5, 61913, Note_on_c, 3, 74, 0
5, 61920, Note_on_c, 3, 79, 96
5, 62147, Note_on_c, 3, 79, 0
5, 62160, Note_on_c, 3, 79, 96
5, 62273, Note_on_c, 3, 79, 0
5, 62280, Note_on_c, 3, 74, 96
5, 62393, Note_on_c, 3, 74, 0
5, 62400, Note_on_c, 3, 79, 96
5, 62627, Note_on_c, 3, 79, 0
5, 62640, Note_on_c, 3, 78, 96
5, 62753, Note_on_c, 3, 78, 0
5, 62760, Note_on_c, 3, 76, 96
5, 63329, Note_on_c, 3, 76, 0
5, 63600, Note_on_c, 3, 78, 96
5, 63713, Note_on_c, 3, 78, 0
5, 63720, Note_on_c, 3, 72, 96
5, 63833, Note_on_c, 3, 72, 0
5, 63840, Note_on_c, 3, 78, 96
5, 64067, Note_on_c, 3, 78, 0
5, 64080, Note_on_c, 3, 78, 96
5, 64193, Note_on_c, 3, 78, 0
5, 64200, Note_on_c, 3, 72, 96
5, 64313, Note_on_c, 3, 72, 0
5, 64320, Note_on_c, 3, 78, 96
5, 64547, Note_on_c, 3, 78, 0
5, 64560, Note_on_c, 3, 76, 96
5, 64673, Note_on_c, 3, 76, 0
5, 64680, Note_on_c, 3, 74, 96
5, 65249, Note_on_c, 3, 74, 0
5, 65520, Note_on_c, 3, 76, 96
5, 65633, Note_on_c, 3, 76, 0
5, 65640, Note_on_c, 3, 71, 96
5, 65753, Note_on_c, 3, 71, 0
5, 65760, Note_on_c, 3, 76, 96
5, 65987, Note_on_c, 3, 76, 0
5, 66000, Note_on_c, 3, 76, 96
5, 66113, Note_on_c, 3, 76, 0
5, 66120, Note_on_c, 3, 71, 96
5, 66233, Note_on_c, 3, 71, 0
5, 66240, Note_on_c, 3, 72, 96
5, 66467, Note_on_c, 3, 72, 0
5, 66480, Note_on_c, 3, 74, 96
5, 66707, Note_on_c, 3, 74, 0
5, 66720, Note_on_c, 3, 76, 96
5, 66947, Note_on_c, 3, 76, 0
5, 66960, Note_on_c, 3, 78, 96
5, 67187, Note_on_c, 3, 78, 0
5, 67200, Note_on_c, 3, 79, 96
5, 67427, Note_on_c, 3, 79, 0
5, 67440, Note_on_c, 3, 83, 96
5, 67667, Note_on_c, 3, 83, 0
5, 67680, Note_on_c, 3, 81, 96
5, 67793, Note_on_c, 3, 81, 0
5, 67800, Note_on_c, 3, 83, 96
5, 67913, Note_on_c, 3, 83, 0
5, 67920, Note_on_c, 3, 84, 96
5, 68147, Note_on_c, 3, 84, 0
5, 68160, Note_on_c, 3, 83, 96
5, 68387, Note_on_c, 3, 83, 0
5, 68400, Note_on_c, 3, 81, 96
5, 68513, Note_on_c, 3, 81, 0
5, 68520, Note_on_c, 3, 79, 96
5, 68861, Note_on_c, 3, 79, 0
5, 68880, Note_on_c, 3, 78, 96
5, 69107, Note_on_c, 3, 78, 0
5, 69360, Note_on_c, 3, 79, 96
5, 69473, Note_on_c, 3, 79, 0
5, 69480, Note_on_c, 3, 74, 96
5, 69593, Note_on_c, 3, 74, 0
5, 69600, Note_on_c, 3, 79, 96
5, 69827, Note_on_c, 3, 79, 0
5, 69840, Note_on_c, 3, 79, 96
5, 69953, Note_on_c, 3, 79, 0
5, 69960, Note_on_c, 3, 74, 96
5, 70073, Note_on_c, 3, 74, 0
5, 70080, Note_on_c, 3, 79, 96
5, 70307, Note_on_c, 3, 79, 0
5, 70320, Note_on_c, 3, 78, 96
5, 70433, Note_on_c, 3, 78, 0
5, 70440, Note_on_c, 3, 76, 96
5, 71009, Note_on_c, 3, 76, 0
5, 71280, Note_on_c, 3, 78, 96
5, 71393, Note_on_c, 3, 78, 0
5, 71400, Note_on_c, 3, 72, 96
5, 71513, Note_on_c, 3, 72, 0
5, 71520, Note_on_c, 3, 78, 96
5, 71747, Note_on_c, 3, 78, 0
5, 71760, Note_on_c, 3, 78, 96
5, 71873, Note_on_c, 3, 78, 0
5, 71880, Note_on_c, 3, 72, 96
5, 71993, Note_on_c, 3, 72, 0
5, 72000, Note_on_c, 3, 78, 96
5, 72227, Note_on_c, 3, 78, 0
5, 72240, Note_on_c, 3, 76, 96
5, 72353, Note_on_c, 3, 76, 0
5, 72360, Note_on_c, 3, 74, 96
5, 72929, Note_on_c, 3, 74, 0
5, 73200, Note_on_c, 3, 76, 96
5, 73313, Note_on_c, 3, 76, 0
5, 73320, Note_on_c, 3, 71, 96
5, 73433, Note_on_c, 3, 71, 0
5, 73440, Note_on_c, 3, 76, 96
5, 73667, Note_on_c, 3, 76, 0
5, 73680, Note_on_c, 3, 76, 96
5, 73793, Note_on_c, 3, 76, 0
5, 73800, Note_on_c, 3, 71, 96
5, 73913, Note_on_c, 3, 71, 0
5, 73920, Note_on_c, 3, 72, 96
5, 74147, Note_on_c, 3, 72, 0
5, 74160, Note_on_c, 3, 74, 96
5, 74387, Note_on_c, 3, 74, 0
5, 74400, Note_on_c, 3, 76, 96
5, 74627, Note_on_c, 3, 76, 0
5, 74640, Note_on_c, 3, 78, 96
5, 74867, Note_on_c, 3, 78, 0
5, 74880, Note_on_c, 3, 79, 96
5, 75107, Note_on_c, 3, 79, 0
5, 75120, Note_on_c, 3, 83, 96
5, 75347, Note_on_c, 3, 83, 0
5, 75360, Note_on_c, 3, 81, 96
5, 75473, Note_on_c, 3, 81, 0
5, 75480, Note_on_c, 3, 83, 96
5, 75593, Note_on_c, 3, 83, 0
5, 75600, Note_on_c, 3, 84, 96
5, 75827, Note_on_c, 3, 84, 0
5, 75840, Note_on_c, 3, 83, 96
5, 76067, Note_on_c, 3, 83, 0
5, 76080, Note_on_c, 3, 81, 96
5, 76193, Note_on_c, 3, 81, 0
5, 76200, Note_on_c, 3, 79, 96
5, 76541, Note_on_c, 3, 79, 0
5, 76560, Note_on_c, 3, 78, 96
5, 76780, Note_on_c, 3, 78, 0
5, 76781, End_track
6, 0, Start_track
6, 0, Title_t, "Instrument_05\000"
6, 0, Key_signature, 0, "major"
6, 0, Control_c, 4, 121, 0
6, 0, Program_c, 4, 81
6, 0, Control_c, 4, 7, 100
6, 0, Control_c, 4, 10, 64
6, 0, Control_c, 4, 91, 0
6, 0, Control_c, 4, 93, 0
6, 0, MIDI_port, 0
6, 30720, Note_on_c, 4, 67, 80
6, 30839, Note_on_c, 4, 67, 0
6, 30840, Note_on_c, 4, 69, 80
6, 30959, Note_on_c, 4, 69, 0
6, 30960, Note_on_c, 4, 67, 80
6, 31079, Note_on_c, 4, 67, 0
6, 31080, Note_on_c, 4, 69, 80
6, 31199, Note_on_c, 4, 69, 0
6, 31200, Note_on_c, 4, 67, 80
6, 31319, Note_on_c, 4, 67, 0
6, 31320, Note_on_c, 4, 69, 80
6, 31439, Note_on_c, 4, 69, 0
6, 31440, Note_on_c, 4, 67, 80
6, 31559, Note_on_c, 4, 67, 0
6, 31560, Note_on_c, 4, 69, 80
6, 31679, Note_on_c, 4, 69, 0
6, 31680, Note_on_c, 4, 67, 80
6, 31799, Note_on_c, 4, 67, 0
6, 31800, Note_on_c, 4, 69, 80
6, 31919, Note_on_c, 4, 69, 0
6, 31920, Note_on_c, 4, 67, 80
6, 32039, Note_on_c, 4, 67, 0
6, 32040, Note_on_c, 4, 69, 80
6, 32159, Note_on_c, 4, 69, 0
6, 32160, Note_on_c, 4, 67, 80
6, 32279, Note_on_c, 4, 67, 0
6, 32280, Note_on_c, 4, 69, 80
6, 32399, Note_on_c, 4, 69, 0
6, 32400, Note_on_c, 4, 67, 80
6, 32519, Note_on_c, 4, 67, 0
6, 32520, Note_on_c, 4, 69, 80
6, 32639, Note_on_c, 4, 69, 0
6, 32640, Note_on_c, 4, 66, 80
6, 32759, Note_on_c, 4, 66, 0
6, 32760, Note_on_c, 4, 67, 80
6, 32879, Note_on_c, 4, 67, 0
6, 32880, Note_on_c, 4, 66, 80
6, 32999, Note_on_c, 4, 66, 0
6, 33000, Note_on_c, 4, 67, 80
6, 33119, Note_on_c, 4, 67, 0
6, 33120, Note_on_c, 4, 66, 80
6, 33239, Note_on_c, 4, 66, 0
6, 33240, Note_on_c, 4, 67, 80
6, 33359, Note_on_c, 4, 67, 0
6, 33360, Note_on_c, 4, 66, 80
6, 33479, Note_on_c, 4, 66, 0
6, 33480, Note_on_c, 4, 67, 80
6, 33599, Note_on_c, 4, 67, 0
6, 33600, Note_on_c, 4, 66, 80
6, 33719, Note_on_c, 4, 66, 0
6, 33720, Note_on_c, 4, 67, 80
6, 33839, Note_on_c, 4, 67, 0
6, 33840, Note_on_c, 4, 66, 80
6, 33959, Note_on_c, 4, 66, 0
6, 33960, Note_on_c, 4, 67, 80
6, 34079, Note_on_c, 4, 67, 0
6, 34080, Note_on_c, 4, 66, 80
6, 34199, Note_on_c, 4, 66, 0
6, 34200, Note_on_c, 4, 67, 80
6, 34319, Note_on_c, 4, 67, 0
6, 34320, Note_on_c, 4, 66, 80
6, 34439, Note_on_c, 4, 66, 0
6, 34440, Note_on_c, 4, 67, 80
6, 34559, Note_on_c, 4, 67, 0
6, 34560, Note_on_c, 4, 64, 80
6, 34679, Note_on_c, 4, 64, 0
6, 34680, Note_on_c, 4, 66, 80
6, 34799, Note_on_c, 4, 66, 0
6, 34800, Note_on_c, 4, 64, 80
6, 34919, Note_on_c, 4, 64, 0
6, 34920, Note_on_c, 4, 66, 80
6, 35039, Note_on_c, 4, 66, 0
6, 35040, Note_on_c, 4, 64, 80
6, 35159, Note_on_c, 4, 64, 0
6, 35160, Note_on_c, 4, 66, 80
6, 35279, Note_on_c, 4, 66, 0
6, 35280, Note_on_c, 4, 64, 80
6, 35399, Note_on_c, 4, 64, 0
6, 35400, Note_on_c, 4, 66, 80
6, 35519, Note_on_c, 4, 66, 0
6, 35520, Note_on_c, 4, 64, 80
6, 35639, Note_on_c, 4, 64, 0
6, 35640, Note_on_c, 4, 66, 80
6, 35759, Note_on_c, 4, 66, 0
6, 35760, Note_on_c, 4, 64, 80
6, 35879, Note_on_c, 4, 64, 0
6, 35880, Note_on_c, 4, 66, 80
6, 35999, Note_on_c, 4, 66, 0
6, 36000, Note_on_c, 4, 64, 80
6, 36119, Note_on_c, 4, 64, 0
6, 36120, Note_on_c, 4, 66, 80
6, 36239, Note_on_c, 4, 66, 0
6, 36240, Note_on_c, 4, 64, 80
6, 36359, Note_on_c, 4, 64, 0
6, 36360, Note_on_c, 4, 66, 80
6, 36479, Note_on_c, 4, 66, 0
6, 36480, Note_on_c, 4, 62, 80
6, 36599, Note_on_c, 4, 62, 0
6, 36600, Note_on_c, 4, 64, 80
6, 36719, Note_on_c, 4, 64, 0
6, 36720, Note_on_c, 4, 62, 80
6, 36839, Note_on_c, 4, 62, 0
6, 36840, Note_on_c, 4, 64, 80
6, 36959, Note_on_c, 4, 64, 0
6, 36960, Note_on_c, 4, 62, 80
6, 37079, Note_on_c, 4, 62, 0
6, 37080, Note_on_c, 4, 64, 80
6, 37199, Note_on_c, 4, 64, 0
6, 37200, Note_on_c, 4, 62, 80
6, 37319, Note_on_c, 4, 62, 0
6, 37320, Note_on_c, 4, 64, 80
6, 37439, Note_on_c, 4, 64, 0
6, 37440, Note_on_c, 4, 62, 80
6, 37559, Note_on_c, 4, 62, 0
6, 37560, Note_on_c, 4, 64, 80
6, 37679, Note_on_c, 4, 64, 0
6, 37680, Note_on_c, 4, 62, 80
6, 37799, Note_on_c, 4, 62, 0
6, 37800, Note_on_c, 4, 64, 80
6, 37919, Note_on_c, 4, 64, 0
6, 37920, Note_on_c, 4, 62, 80
6, 38039, Note_on_c, 4, 62, 0
6, 38040, Note_on_c, 4, 64, 80
6, 38159, Note_on_c, 4, 64, 0
6, 38160, Note_on_c, 4, 62, 80
6, 38279, Note_on_c, 4, 62, 0
6, 38280, Note_on_c, 4, 64, 80
6, 38399, Note_on_c, 4, 64, 0
6, 38400, Note_on_c, 4, 67, 80
6, 38519, Note_on_c, 4, 67, 0
6, 38520, Note_on_c, 4, 69, 80
6, 38639, Note_on_c, 4, 69, 0
6, 38640, Note_on_c, 4, 67, 80
6, 38759, Note_on_c, 4, 67, 0
6, 38760, Note_on_c, 4, 69, 80
6, 38879, Note_on_c, 4, 69, 0
6, 38880, Note_on_c, 4, 67, 80
6, 38999, Note_on_c, 4, 67, 0
6, 39000, Note_on_c, 4, 69, 80
6, 39119, Note_on_c, 4, 69, 0
6, 39120, Note_on_c, 4, 67, 80
6, 39239, Note_on_c, 4, 67, 0
6, 39240, Note_on_c, 4, 69, 80
6, 39359, Note_on_c, 4, 69, 0
6, 39360, Note_on_c, 4, 67, 80
6, 39479, Note_on_c, 4, 67, 0
6, 39480, Note_on_c, 4, 69, 80
6, 39599, Note_on_c, 4, 69, 0
6, 39600, Note_on_c, 4, 67, 80
6, 39719, Note_on_c, 4, 67, 0
6, 39720, Note_on_c, 4, 69, 80
6, 39839, Note_on_c, 4, 69, 0
6, 39840, Note_on_c, 4, 67, 80
6, 39959, Note_on_c, 4, 67, 0
6, 39960, Note_on_c, 4, 69, 80
6, 40079, Note_on_c, 4, 69, 0
6, 40080, Note_on_c, 4, 67, 80
6, 40199, Note_on_c, 4, 67, 0
6, 40200, Note_on_c, 4, 69, 80
6, 40319, Note_on_c, 4, 69, 0
6, 40320, Note_on_c, 4, 66, 80
6, 40439, Note_on_c, 4, 66, 0
6, 40440, Note_on_c, 4, 67, 80
6, 40559, Note_on_c, 4, 67, 0
6, 40560, Note_on_c, 4, 66, 80
6, 40679, Note_on_c, 4, 66, 0
6, 40680, Note_on_c, 4, 67, 80
6, 40799, Note_on_c, 4, 67, 0
6, 40800, Note_on_c, 4, 66, 80
6, 40919, Note_on_c, 4, 66, 0
6, 40920, Note_on_c, 4, 67, 80
6, 41039, Note_on_c, 4, 67, 0
6, 41040, Note_on_c, 4, 66, 80
6, 41159, Note_on_c, 4, 66, 0
6, 41160, Note_on_c, 4, 67, 80
6, 41279, Note_on_c, 4, 67, 0
6, 41280, Note_on_c, 4, 66, 80
6, 41399, Note_on_c, 4, 66, 0
6, 41400, Note_on_c, 4, 67, 80
6, 41519, Note_on_c, 4, 67, 0
6, 41520, Note_on_c, 4, 66, 80
6, 41639, Note_on_c, 4, 66, 0
6, 41640, Note_on_c, 4, 67, 80
6, 41759, Note_on_c, 4, 67, 0
6, 41760, Note_on_c, 4, 66, 80
6, 41879, Note_on_c, 4, 66, 0
6, 41880, Note_on_c, 4, 67, 80
6, 41999, Note_on_c, 4, 67, 0
6, 42000, Note_on_c, 4, 66, 80
6, 42119, Note_on_c, 4, 66, 0
6, 42120, Note_on_c, 4, 67, 80
6, 42239, Note_on_c, 4, 67, 0
6, 42240, Note_on_c, 4, 64, 80
6, 42359, Note_on_c, 4, 64, 0
6, 42360, Note_on_c, 4, 66, 80
6, 42479, Note_on_c, 4, 66, 0
6, 42480, Note_on_c, 4, 64, 80
6, 42599, Note_on_c, 4, 64, 0
6, 42600, Note_on_c, 4, 66, 80
6, 42719, Note_on_c, 4, 66, 0
6, 42720, Note_on_c, 4, 64, 80
6, 42839, Note_on_c, 4, 64, 0
6, 42840, Note_on_c, 4, 66, 80
6, 42959, Note_on_c, 4, 66, 0
6, 42960, Note_on_c, 4, 64, 80
6, 43079, Note_on_c, 4, 64, 0
6, 43080, Note_on_c, 4, 66, 80
6, 43199, Note_on_c, 4, 66, 0
6, 43200, Note_on_c, 4, 64, 80
6, 43319, Note_on_c, 4, 64, 0
6, 43320, Note_on_c, 4, 66, 80
6, 43439, Note_on_c, 4, 66, 0
6, 43440, Note_on_c, 4, 64, 80
6, 43559, Note_on_c, 4, 64, 0
6, 43560, Note_on_c, 4, 66, 80
6, 43679, Note_on_c, 4, 66, 0
6, 43680, Note_on_c, 4, 64, 80
6, 43799, Note_on_c, 4, 64, 0
6, 43800, Note_on_c, 4, 66, 80
6, 43919, Note_on_c, 4, 66, 0
6, 43920, Note_on_c, 4, 64, 80
6, 44039, Note_on_c, 4, 64, 0
6, 44040, Note_on_c, 4, 66, 80
6, 44159, Note_on_c, 4, 66, 0
6, 44160, Note_on_c, 4, 62, 80
6, 44279, Note_on_c, 4, 62, 0
6, 44280, Note_on_c, 4, 64, 80
6, 44399, Note_on_c, 4, 64, 0
6, 44400, Note_on_c, 4, 62, 80
6, 44519, Note_on_c, 4, 62, 0
6, 44520, Note_on_c, 4, 64, 80
6, 44639, Note_on_c, 4, 64, 0
6, 44640, Note_on_c, 4, 62, 80
6, 44759, Note_on_c, 4, 62, 0
6, 44760, Note_on_c, 4, 64, 80
6, 44879, Note_on_c, 4, 64, 0
6, 44880, Note_on_c, 4, 62, 80
6, 44999, Note_on_c, 4, 62, 0
6, 45000, Note_on_c, 4, 64, 80
6, 45119, Note_on_c, 4, 64, 0
6, 45120, Note_on_c, 4, 62, 80
6, 45239, Note_on_c, 4, 62, 0
6, 45240, Note_on_c, 4, 64, 80
6, 45359, Note_on_c, 4, 64, 0
6, 45360, Note_on_c, 4, 62, 80
6, 45479, Note_on_c, 4, 62, 0
6, 45480, Note_on_c, 4, 64, 80
6, 45599, Note_on_c, 4, 64, 0
6, 45600, Note_on_c, 4, 62, 80
6, 45719, Note_on_c, 4, 62, 0
6, 45720, Note_on_c, 4, 64, 80
6, 45839, Note_on_c, 4, 64, 0
6, 45840, Note_on_c, 4, 62, 80
6, 45959, Note_on_c, 4, 62, 0
6, 45960, Note_on_c, 4, 64, 80
6, 46079, Note_on_c, 4, 64, 0
6, 46080, Note_on_c, 4, 67, 80
6, 46199, Note_on_c, 4, 67, 0
6, 46200, Note_on_c, 4, 69, 80
6, 46319, Note_on_c, 4, 69, 0
6, 46320, Note_on_c, 4, 67, 80
6, 46439, Note_on_c, 4, 67, 0
6, 46440, Note_on_c, 4, 69, 80
6, 46559, Note_on_c, 4, 69, 0
6, 46560, Note_on_c, 4, 67, 80
6, 46679, Note_on_c, 4, 67, 0
6, 46680, Note_on_c, 4, 69, 80
6, 46799, Note_on_c, 4, 69, 0
6, 46800, Note_on_c, 4, 67, 80
6, 46919, Note_on_c, 4, 67, 0
6, 46920, Note_on_c, 4, 69, 80
6, 47039, Note_on_c, 4, 69, 0
6, 47040, Note_on_c, 4, 67, 80
6, 47159, Note_on_c, 4, 67, 0
6, 47160, Note_on_c, 4, 69, 80
6, 47279, Note_on_c, 4, 69, 0
6, 47280, Note_on_c, 4, 67, 80
6, 47399, Note_on_c, 4, 67, 0
6, 47400, Note_on_c, 4, 69, 80
6, 47519, Note_on_c, 4, 69, 0
6, 47520, Note_on_c, 4, 67, 80
6, 47639, Note_on_c, 4, 67, 0
6, 47640, Note_on_c, 4, 69, 80
6, 47759, Note_on_c, 4, 69, 0
6, 47760, Note_on_c, 4, 67, 80
6, 47879, Note_on_c, 4, 67, 0
6, 47880, Note_on_c, 4, 69, 80
6, 47999, Note_on_c, 4, 69, 0
6, 48000, Note_on_c, 4, 66, 80
6, 48119, Note_on_c, 4, 66, 0
6, 48120, Note_on_c, 4, 67, 80
6, 48239, Note_on_c, 4, 67, 0
6, 48240, Note_on_c, 4, 66, 80
6, 48359, Note_on_c, 4, 66, 0
6, 48360, Note_on_c, 4, 67, 80
6, 48479, Note_on_c, 4, 67, 0
6, 48480, Note_on_c, 4, 66, 80
6, 48599, Note_on_c, 4, 66, 0
6, 48600, Note_on_c, 4, 67, 80
6, 48719, Note_on_c, 4, 67, 0
6, 48720, Note_on_c, 4, 66, 80
6, 48839, Note_on_c, 4, 66, 0
6, 48840, Note_on_c, 4, 67, 80
6, 48959, Note_on_c, 4, 67, 0
6, 48960, Note_on_c, 4, 66, 80
6, 49079, Note_on_c, 4, 66, 0
6, 49080, Note_on_c, 4, 67, 80
6, 49199, Note_on_c, 4, 67, 0
6, 49200, Note_on_c, 4, 66, 80
6, 49319, Note_on_c, 4, 66, 0
6, 49320, Note_on_c, 4, 67, 80
6, 49439, Note_on_c, 4, 67, 0
6, 49440, Note_on_c, 4, 66, 80
6, 49559, Note_on_c, 4, 66, 0
6, 49560, Note_on_c, 4, 67, 80
6, 49679, Note_on_c, 4, 67, 0
6, 49680, Note_on_c, 4, 66, 80
6, 49799, Note_on_c, 4, 66, 0
6, 49800, Note_on_c, 4, 67, 80
6, 49919, Note_on_c, 4, 67, 0
6, 49920, Note_on_c, 4, 64, 80
6, 50039, Note_on_c, 4, 64, 0
6, 50040, Note_on_c, 4, 66, 80
6, 50159, Note_on_c, 4, 66, 0
6, 50160, Note_on_c, 4, 64, 80
6, 50279, Note_on_c, 4, 64, 0
6, 50280, Note_on_c, 4, 66, 80
6, 50399, Note_on_c, 4, 66, 0
6, 50400, Note_on_c, 4, 64, 80
6, 50519, Note_on_c, 4, 64, 0
6, 50520, Note_on_c, 4, 66, 80
6, 50639, Note_on_c, 4, 66, 0
6, 50640, Note_on_c, 4, 64, 80
6, 50759, Note_on_c, 4, 64, 0
6, 50760, Note_on_c, 4, 66, 80
6, 50879, Note_on_c, 4, 66, 0
6, 50880, Note_on_c, 4, 64, 80
6, 50999, Note_on_c, 4, 64, 0
6, 51000, Note_on_c, 4, 66, 80
6, 51119, Note_on_c, 4, 66, 0
6, 51120, Note_on_c, 4, 64, 80
6, 51239, Note_on_c, 4, 64, 0
6, 51240, Note_on_c, 4, 66, 80
6, 51359, Note_on_c, 4, 66, 0
6, 51360, Note_on_c, 4, 64, 80
6, 51479, Note_on_c, 4, 64, 0
6, 51480, Note_on_c, 4, 66, 80
6, 51599, Note_on_c, 4, 66, 0
6, 51600, Note_on_c, 4, 64, 80
6, 51719, Note_on_c, 4, 64, 0
6, 51720, Note_on_c, 4, 66, 80
6, 51839, Note_on_c, 4, 66, 0
6, 51840, Note_on_c, 4, 62, 80
6, 51959, Note_on_c, 4, 62, 0
6, 51960, Note_on_c, 4, 64, 80
6, 52079, Note_on_c, 4, 64, 0
6, 52080, Note_on_c, 4, 62, 80
6, 52199, Note_on_c, 4, 62, 0
6, 52200, Note_on_c, 4, 64, 80
6, 52319, Note_on_c, 4, 64, 0
6, 52320, Note_on_c, 4, 62, 80
6, 52439, Note_on_c, 4, 62, 0
6, 52440, Note_on_c, 4, 64, 80
6, 52559, Note_on_c, 4, 64, 0
6, 52560, Note_on_c, 4, 62, 80
6, 52679, Note_on_c, 4, 62, 0
6, 52680, Note_on_c, 4, 64, 80
6, 52799, Note_on_c, 4, 64, 0
6, 52800, Note_on_c, 4, 62, 80
6, 52919, Note_on_c, 4, 62, 0
6, 52920, Note_on_c, 4, 64, 80
6, 53039, Note_on_c, 4, 64, 0
6, 53040, Note_on_c, 4, 62, 80
6, 53159, Note_on_c, 4, 62, 0
6, 53160, Note_on_c, 4, 64, 80
6, 53279, Note_on_c, 4, 64, 0
6, 53280, Note_on_c, 4, 62, 80
6, 53399, Note_on_c, 4, 62, 0
6, 53400, Note_on_c, 4, 64, 80
6, 53519, Note_on_c, 4, 64, 0
6, 53520, Note_on_c, 4, 62, 80
6, 53639, Note_on_c, 4, 62, 0
6, 53640, Note_on_c, 4, 64, 80
6, 53759, Note_on_c, 4, 64, 0
6, 53760, Note_on_c, 4, 67, 80
6, 53879, Note_on_c, 4, 67, 0
6, 53880, Note_on_c, 4, 69, 80
6, 53999, Note_on_c, 4, 69, 0
6, 54000, Note_on_c, 4, 67, 80
6, 54119, Note_on_c, 4, 67, 0
6, 54120, Note_on_c, 4, 69, 80
6, 54239, Note_on_c, 4, 69, 0
6, 54240, Note_on_c, 4, 67, 80
6, 54359, Note_on_c, 4, 67, 0
6, 54360, Note_on_c, 4, 69, 80
6, 54479, Note_on_c, 4, 69, 0
6, 54480, Note_on_c, 4, 67, 80
6, 54599, Note_on_c, 4, 67, 0
6, 54600, Note_on_c, 4, 69, 80
6, 54719, Note_on_c, 4, 69, 0
6, 54720, Note_on_c, 4, 67, 80
6, 54839, Note_on_c, 4, 67, 0
6, 54840, Note_on_c, 4, 69, 80
6, 54959, Note_on_c, 4, 69, 0
6, 54960, Note_on_c, 4, 67, 80
6, 55079, Note_on_c, 4, 67, 0
6, 55080, Note_on_c, 4, 69, 80
6, 55199, Note_on_c, 4, 69, 0
6, 55200, Note_on_c, 4, 67, 80
6, 55319, Note_on_c, 4, 67, 0
6, 55320, Note_on_c, 4, 69, 80
6, 55439, Note_on_c, 4, 69, 0
6, 55440, Note_on_c, 4, 67, 80
6, 55559, Note_on_c, 4, 67, 0
6, 55560, Note_on_c, 4, 69, 80
6, 55679, Note_on_c, 4, 69, 0
6, 55680, Note_on_c, 4, 66, 80
6, 55799, Note_on_c, 4, 66, 0
6, 55800, Note_on_c, 4, 67, 80
6, 55919, Note_on_c, 4, 67, 0
6, 55920, Note_on_c, 4, 66, 80
6, 56039, Note_on_c, 4, 66, 0
6, 56040, Note_on_c, 4, 67, 80
6, 56159, Note_on_c, 4, 67, 0
6, 56160, Note_on_c, 4, 66, 80
6, 56279, Note_on_c, 4, 66, 0
6, 56280, Note_on_c, 4, 67, 80
6, 56399, Note_on_c, 4, 67, 0
6, 56400, Note_on_c, 4, 66, 80
6, 56519, Note_on_c, 4, 66, 0
6, 56520, Note_on_c, 4, 67, 80
6, 56639, Note_on_c, 4, 67, 0
6, 56640, Note_on_c, 4, 66, 80
6, 56759, Note_on_c, 4, 66, 0
6, 56760, Note_on_c, 4, 67, 80
6, 56879, Note_on_c, 4, 67, 0
6, 56880, Note_on_c, 4, 66, 80
6, 56999, Note_on_c, 4, 66, 0
6, 57000, Note_on_c, 4, 67, 80
6, 57119, Note_on_c, 4, 67, 0
6, 57120, Note_on_c, 4, 66, 80
6, 57239, Note_on_c, 4, 66, 0
6, 57240, Note_on_c, 4, 67, 80
6, 57359, Note_on_c, 4, 67, 0
6, 57360, Note_on_c, 4, 66, 80
6, 57479, Note_on_c, 4, 66, 0
6, 57480, Note_on_c, 4, 67, 80
6, 57599, Note_on_c, 4, 67, 0
6, 57600, Note_on_c, 4, 64, 80
6, 57719, Note_on_c, 4, 64, 0
6, 57720, Note_on_c, 4, 66, 80
6, 57839, Note_on_c, 4, 66, 0
6, 57840, Note_on_c, 4, 64, 80
6, 57959, Note_on_c, 4, 64, 0
6, 57960, Note_on_c, 4, 66, 80
6, 58079, Note_on_c, 4, 66, 0
6, 58080, Note_on_c, 4, 64, 80
6, 58199, Note_on_c, 4, 64, 0
6, 58200, Note_on_c, 4, 66, 80
6, 58319, Note_on_c, 4, 66, 0
6, 58320, Note_on_c, 4, 64, 80
6, 58439, Note_on_c, 4, 64, 0
6, 58440, Note_on_c, 4, 66, 80
6, 58559, Note_on_c, 4, 66, 0
6, 58560, Note_on_c, 4, 64, 80
6, 58679, Note_on_c, 4, 64, 0
6, 58680, Note_on_c, 4, 66, 80
6, 58799, Note_on_c, 4, 66, 0
6, 58800, Note_on_c, 4, 64, 80
6, 58919, Note_on_c, 4, 64, 0
6, 58920, Note_on_c, 4, 66, 80
6, 59039, Note_on_c, 4, 66, 0
6, 59040, Note_on_c, 4, 64, 80
6, 59159, Note_on_c, 4, 64, 0
6, 59160, Note_on_c, 4, 66, 80
6, 59279, Note_on_c, 4, 66, 0
6, 59280, Note_on_c, 4, 64, 80
6, 59399, Note_on_c, 4, 64, 0
6, 59400, Note_on_c, 4, 66, 80
6, 59519, Note_on_c, 4, 66, 0
6, 59520, Note_on_c, 4, 62, 80
6, 59639, Note_on_c, 4, 62, 0
6, 59640, Note_on_c, 4, 64, 80
6, 59759, Note_on_c, 4, 64, 0
6, 59760, Note_on_c, 4, 62, 80
6, 59879, Note_on_c, 4, 62, 0
6, 59880, Note_on_c, 4, 64, 80
6, 59999, Note_on_c, 4, 64, 0
6, 60000, Note_on_c, 4, 62, 80
6, 60119, Note_on_c, 4, 62, 0
6, 60120, Note_on_c, 4, 64, 80
6, 60239, Note_on_c, 4, 64, 0
6, 60240, Note_on_c, 4, 62, 80
6, 60359, Note_on_c, 4, 62, 0
6, 60360, Note_on_c, 4, 64, 80
6, 60479, Note_on_c, 4, 64, 0
6, 60480, Note_on_c, 4, 62, 80
6, 60599, Note_on_c, 4, 62, 0
6, 60600, Note_on_c, 4, 64, 80
6, 60719, Note_on_c, 4, 64, 0
6, 60720, Note_on_c, 4, 62, 80
6, 60839, Note_on_c, 4, 62, 0
6, 60840, Note_on_c, 4, 64, 80
6, 60959, Note_on_c, 4, 64, 0
6, 60960, Note_on_c, 4, 62, 80
6, 61079, Note_on_c, 4, 62, 0
6, 61080, Note_on_c, 4, 64, 80
6, 61199, Note_on_c, 4, 64, 0
6, 61200, Note_on_c, 4, 62, 80
6, 61319, Note_on_c, 4, 62, 0
6, 61320, Note_on_c, 4, 64, 80
6, 61439, Note_on_c, 4, 64, 0
6, 61440, Note_on_c, 4, 67, 80
6, 61559, Note_on_c, 4, 67, 0
6, 61560, Note_on_c, 4, 69, 80
6, 61679, Note_on_c, 4, 69, 0
6, 61680, Note_on_c, 4, 67, 80
6, 61799, Note_on_c, 4, 67, 0
6, 61800, Note_on_c, 4, 69, 80
6, 61919, Note_on_c, 4, 69, 0
6, 61920, Note_on_c, 4, 67, 80
6, 62039, Note_on_c, 4, 67, 0
6, 62040, Note_on_c, 4, 69, 80
6, 62159, Note_on_c, 4, 69, 0
6, 62160, Note_on_c, 4, 67, 80
6, 62279, Note_on_c, 4, 67, 0
6, 62280, Note_on_c, 4, 69, 80
6, 62399, Note_on_c, 4, 69, 0
6, 62400, Note_on_c, 4, 67, 80
6, 62519, Note_on_c, 4, 67, 0
6, 62520, Note_on_c, 4, 69, 80
6, 62639, Note_on_c, 4, 69, 0
6, 62640, Note_on_c, 4, 67, 80
6, 62759, Note_on_c, 4, 67, 0
6, 62760, Note_on_c, 4, 69, 80
6, 62879, Note_on_c, 4, 69, 0
6, 62880, Note_on_c, 4, 67, 80
6, 62999, Note_on_c, 4, 67, 0
6, 63000, Note_on_c, 4, 69, 80
6, 63119, Note_on_c, 4, 69, 0
6, 63120, Note_on_c, 4, 67, 80
6, 63239, Note_on_c, 4, 67, 0
6, 63240, Note_on_c, 4, 69, 80
6, 63359, Note_on_c, 4, 69, 0
6, 63360, Note_on_c, 4, 66, 80
6, 63479, Note_on_c, 4, 66, 0
6, 63480, Note_on_c, 4, 67, 80
6, 63599, Note_on_c, 4, 67, 0
6, 63600, Note_on_c, 4, 66, 80
6, 63719, Note_on_c, 4, 66, 0
6, 63720, Note_on_c, 4, 67, 80
6, 63839, Note_on_c, 4, 67, 0
6, 63840, Note_on_c, 4, 66, 80
6, 63959, Note_on_c, 4, 66, 0
6, 63960, Note_on_c, 4, 67, 80
6, 64079, Note_on_c, 4, 67, 0
6, 64080, Note_on_c, 4, 66, 80
6, 64199, Note_on_c, 4, 66, 0
6, 64200, Note_on_c, 4, 67, 80
6, 64319, Note_on_c, 4, 67, 0
6, 64320, Note_on_c, 4, 66, 80
6, 64439, Note_on_c, 4, 66, 0
6, 64440, Note_on_c, 4, 67, 80
6, 64559, Note_on_c, 4, 67, 0
6, 64560, Note_on_c, 4, 66, 80
6, 64679, Note_on_c, 4, 66, 0
6, 64680, Note_on_c, 4, 67, 80
6, 64799, Note_on_c, 4, 67, 0
6, 64800, Note_on_c, 4, 66, 80
6, 64919, Note_on_c, 4, 66, 0
6, 64920, Note_on_c, 4, 67, 80
6, 65039, Note_on_c, 4, 67, 0
6, 65040, Note_on_c, 4, 66, 80
6, 65159, Note_on_c, 4, 66, 0
6, 65160, Note_on_c, 4, 67, 80
6, 65279, Note_on_c, 4, 67, 0
6, 65280, Note_on_c, 4, 64, 80
6, 65399, Note_on_c, 4, 64, 0
6, 65400, Note_on_c, 4, 66, 80
6, 65519, Note_on_c, 4, 66, 0
6, 65520, Note_on_c, 4, 64, 80
6, 65639, Note_on_c, 4, 64, 0
6, 65640, Note_on_c, 4, 66, 80
6, 65759, Note_on_c, 4, 66, 0
6, 65760, Note_on_c, 4, 64, 80
6, 65879, Note_on_c, 4, 64, 0
6, 65880, Note_on_c, 4, 66, 80
6, 65999, Note_on_c, 4, 66, 0
6, 66000, Note_on_c, 4, 64, 80
6, 66119, Note_on_c, 4, 64, 0
6, 66120, Note_on_c, 4, 66, 80
6, 66239, Note_on_c, 4, 66, 0
6, 66240, Note_on_c, 4, 64, 80
6, 66359, Note_on_c, 4, 64, 0
6, 66360, Note_on_c, 4, 66, 80
6, 66479, Note_on_c, 4, 66, 0
6, 66480, Note_on_c, 4, 64, 80
6, 66599, Note_on_c, 4, 64, 0
6, 66600, Note_on_c, 4, 66, 80
6, 66719, Note_on_c, 4, 66, 0
6, 66720, Note_on_c, 4, 64, 80
6, 66839, Note_on_c, 4, 64, 0
6, 66840, Note_on_c, 4, 66, 80
6, 66959, Note_on_c, 4, 66, 0
6, 66960, Note_on_c, 4, 64, 80
6, 67079, Note_on_c, 4, 64, 0
6, 67080, Note_on_c, 4, 66, 80
6, 67199, Note_on_c, 4, 66, 0
6, 67200, Note_on_c, 4, 62, 80
6, 67319, Note_on_c, 4, 62, 0
6, 67320, Note_on_c, 4, 64, 80
6, 67439, Note_on_c, 4, 64, 0
6, 67440, Note_on_c, 4, 62, 80
6, 67559, Note_on_c, 4, 62, 0
6, 67560, Note_on_c, 4, 64, 80
6, 67679, Note_on_c, 4, 64, 0
6, 67680, Note_on_c, 4, 62, 80
6, 67799, Note_on_c, 4, 62, 0
6, 67800, Note_on_c, 4, 64, 80
6, 67919, Note_on_c, 4, 64, 0
6, 67920, Note_on_c, 4, 62, 80
6, 68039, Note_on_c, 4, 62, 0
6, 68040, Note_on_c, 4, 64, 80
6, 68159, Note_on_c, 4, 64, 0
6, 68160, Note_on_c, 4, 62, 80
6, 68279, Note_on_c, 4, 62, 0
6, 68280, Note_on_c, 4, 64, 80
6, 68399, Note_on_c, 4, 64, 0
6, 68400, Note_on_c, 4, 62, 80
6, 68519, Note_on_c, 4, 62, 0
6, 68520, Note_on_c, 4, 64, 80
6, 68639, Note_on_c, 4, 64, 0
6, 68640, Note_on_c, 4, 62, 80
6, 68759, Note_on_c, 4, 62, 0
6, 68760, Note_on_c, 4, 64, 80
6, 68879, Note_on_c, 4, 64, 0
6, 68880, Note_on_c, 4, 62, 80
6, 68999, Note_on_c, 4, 62, 0
6, 69000, Note_on_c, 4, 64, 80
6, 69119, Note_on_c, 4, 64, 0
6, 69120, Note_on_c, 4, 67, 80
6, 69239, Note_on_c, 4, 67, 0
6, 69240, Note_on_c, 4, 69, 80
6, 69359, Note_on_c, 4, 69, 0
6, 69360, Note_on_c, 4, 67, 80
6, 69479, Note_on_c, 4, 67, 0
6, 69480, Note_on_c, 4, 69, 80
6, 69599, Note_on_c, 4, 69, 0
6, 69600, Note_on_c, 4, 67, 80
6, 69719, Note_on_c, 4, 67, 0
6, 69720, Note_on_c, 4, 69, 80
6, 69839, Note_on_c, 4, 69, 0
6, 69840, Note_on_c, 4, 67, 80
6, 69959, Note_on_c, 4, 67, 0
6, 69960, Note_on_c, 4, 69, 80
6, 70079, Note_on_c, 4, 69, 0
6, 70080, Note_on_c, 4, 67, 80
6, 70199, Note_on_c, 4, 67, 0
6, 70200, Note_on_c, 4, 69, 80
6, 70319, Note_on_c, 4, 69, 0
6, 70320, Note_on_c, 4, 67, 80
6, 70439, Note_on_c, 4, 67, 0
6, 70440, Note_on_c, 4, 69, 80
6, 70559, Note_on_c, 4, 69, 0
6, 70560, Note_on_c, 4, 67, 80
6, 70679, Note_on_c, 4, 67, 0
6, 70680, Note_on_c, 4, 69, 80
6, 70799, Note_on_c, 4, 69, 0
6, 70800, Note_on_c, 4, 67, 80
6, 70919, Note_on_c, 4, 67, 0
6, 70920, Note_on_c, 4, 69, 80
6, 71039, Note_on_c, 4, 69, 0
6, 71040, Note_on_c, 4, 66, 80
6, 71159, Note_on_c, 4, 66, 0
6, 71160, Note_on_c, 4, 67, 80
6, 71279, Note_on_c, 4, 67, 0
6, 71280, Note_on_c, 4, 66, 80
6, 71399, Note_on_c, 4, 66, 0
6, 71400, Note_on_c, 4, 67, 80
6, 71519, Note_on_c, 4, 67, 0
6, 71520, Note_on_c, 4, 66, 80
6, 71639, Note_on_c, 4, 66, 0
6, 71640, Note_on_c, 4, 67, 80
6, 71759, Note_on_c, 4, 67, 0
6, 71760, Note_on_c, 4, 66, 80
6, 71879, Note_on_c, 4, 66, 0
6, 71880, Note_on_c, 4, 67, 80
6, 71999, Note_on_c, 4, 67, 0
6, 72000, Note_on_c, 4, 66, 80
6, 72119, Note_on_c, 4, 66, 0
6, 72120, Note_on_c, 4, 67, 80
6, 72239, Note_on_c, 4, 67, 0
6, 72240, Note_on_c, 4, 66, 80
6, 72359, Note_on_c, 4, 66, 0
6, 72360, Note_on_c, 4, 67, 80
6, 72479, Note_on_c, 4, 67, 0
6, 72480, Note_on_c, 4, 66, 80
6, 72599, Note_on_c, 4, 66, 0
6, 72600, Note_on_c, 4, 67, 80
6, 72719, Note_on_c, 4, 67, 0
6, 72720, Note_on_c, 4, 66, 80
6, 72839, Note_on_c, 4, 66, 0
6, 72840, Note_on_c, 4, 67, 80
6, 72959, Note_on_c, 4, 67, 0
6, 72960, Note_on_c, 4, 64, 80
6, 73079, Note_on_c, 4, 64, 0
6, 73080, Note_on_c, 4, 66, 80
6, 73199, Note_on_c, 4, 66, 0
6, 73200, Note_on_c, 4, 64, 80
6, 73319, Note_on_c, 4, 64, 0
6, 73320, Note_on_c, 4, 66, 80
6, 73439, Note_on_c, 4, 66, 0
6, 73440, Note_on_c, 4, 64, 80
6, 73559, Note_on_c, 4, 64, 0
6, 73560, Note_on_c, 4, 66, 80
6, 73679, Note_on_c, 4, 66, 0
6, 73680, Note_on_c, 4, 64, 80
6, 73799, Note_on_c, 4, 64, 0
6, 73800, Note_on_c, 4, 66, 80
6, 73919, Note_on_c, 4, 66, 0
6, 73920, Note_on_c, 4, 64, 80
6, 74039, Note_on_c, 4, 64, 0
6, 74040, Note_on_c, 4, 66, 80
6, 74159, Note_on_c, 4, 66, 0
6, 74160, Note_on_c, 4, 64, 80
6, 74279, Note_on_c, 4, 64, 0
6, 74280, Note_on_c, 4, 66, 80
6, 74399, Note_on_c, 4, 66, 0
6, 74400, Note_on_c, 4, 64, 80
6, 74519, Note_on_c, 4, 64, 0
6, 74520, Note_on_c, 4, 66, 80
6, 74639, Note_on_c, 4, 66, 0
6, 74640, Note_on_c, 4, 64, 80
6, 74759, Note_on_c, 4, 64, 0
6, 74760, Note_on_c, 4, 66, 80
6, 74879, Note_on_c, 4, 66, 0
6, 74880, Note_on_c, 4, 62, 80
6, 74999, Note_on_c, 4, 62, 0
6, 75000, Note_on_c, 4, 64, 80
6, 75119, Note_on_c, 4, 64, 0
6, 75120, Note_on_c, 4, 62, 80
6, 75239, Note_on_c, 4, 62, 0
6, 75240, Note_on_c, 4, 64, 80
6, 75359, Note_on_c, 4, 64, 0
6, 75360, Note_on_c, 4, 62, 80
6, 75479, Note_on_c, 4, 62, 0
6, 75480, Note_on_c, 4, 64, 80
6, 75599, Note_on_c, 4, 64, 0
6, 75600, Note_on_c, 4, 62, 80
6, 75719, Note_on_c, 4, 62, 0
6, 75720, Note_on_c, 4, 64, 80
6, 75839, Note_on_c, 4, 64, 0
6, 75840, Note_on_c, 4, 62, 80
6, 75959, Note_on_c, 4, 62, 0
6, 75960, Note_on_c, 4, 64, 80
6, 76079, Note_on_c, 4, 64, 0
6, 76080, Note_on_c, 4, 62, 80
6, 76199, Note_on_c, 4, 62, 0
6, 76200, Note_on_c, 4, 64, 80
6, 76319, Note_on_c, 4, 64, 0
6, 76320, Note_on_c, 4, 62, 80
6, 76439, Note_on_c, 4, 62, 0
6, 76440, Note_on_c, 4, 64, 80
6, 76559, Note_on_c, 4, 64, 0
6, 76560, Note_on_c, 4, 62, 80
6, 76679, Note_on_c, 4, 62, 0
6, 76680, Note_on_c, 4, 64, 80
6, 76786, Note_on_c, 4, 64, 0
6, 76787, End_track
0, 0, End_of_file