Track,Event Type,Midi Note,Note Name,Velocity,Duration (seconds),Time (seconds)
1,note_on,70,A#4,0.6299212598425197,0.14124976458333333,0.00
2,note_on,43,G2,0.6299212598425197,0.2837495270833333,0.00
1,note_on,62,D4,0.6299212598425197,0.14124976458333333,0.15
1,note_on,60,C4,0.6299212598425197,0.14124976458333333,0.30
2,note_on,50,D3,0.6299212598425197,0.28374952708333334,0.30
1,note_on,62,D4,0.6299212598425197,0.14124976458333338,0.44999924999999996
1,note_on,58,A#3,0.6299212598425197,0.14124976458333327,0.60
2,note_on,55,G3,0.6299212598425197,0.28374952708333334,0.60
1,note_on,62,D4,0.6299212598425197,0.14124976458333327,0.7499987499999999
1,note_on,60,C4,0.6299212598425197,0.14124976458333327,0.8999984999999999
2,note_on,50,D3,0.6299212598425197,0.28374952708333323,0.8999984999999999
1,note_on,62,D4,0.6299212598425197,0.1412497645833335,1.0499982499999998
1,note_on,70,A#4,0.6299212598425197,0.14124976458333327,1.20
2,note_on,43,G2,0.6299212598425197,0.28374952708333345,1.20
1,note_on,62,D4,0.6299212598425197,0.14124976458333327,1.35
1,note_on,60,C4,0.6299212598425197,0.14124976458333327,1.4999974999999999
2,note_on,50,D3,0.6299212598425197,0.28374952708333345,1.4999974999999999
1,note_on,62,D4,0.6299212598425197,0.1412497645833335,1.6499972499999997
1,note_on,58,A#3,0.6299212598425197,0.14124976458333327,1.7999969999999998
2,note_on,55,G3,0.6299212598425197,0.28374952708333323,1.7999969999999998
1,note_on,62,D4,0.6299212598425197,0.14124976458333327,1.95
1,note_on,60,C4,0.6299212598425197,0.14124976458333371,2.0999964999999996
2,note_on,50,D3,0.6299212598425197,0.2837495270833337,2.0999964999999996
1,note_on,62,D4,0.6299212598425197,0.14124976458333327,2.2499962499999997
1,note_on,70,A#4,0.6299212598425197,0.14124976458333327,2.40
2,note_on,36,C2,0.6299212598425197,0.28374952708333323,2.40
1,note_on,63,D#4,0.6299212598425197,0.14124976458333327,2.55
1,note_on,62,D4,0.6299212598425197,0.14124976458333327,2.70
2,note_on,43,G2,0.6299212598425197,0.2837495270833328,2.70
1,note_on,63,D#4,0.6299212598425197,0.14124976458333327,2.8499952499999996
1,note_on,58,A#3,0.6299212598425197,0.14124976458333327,2.9999949999999997
2,note_on,48,C3,0.6299212598425197,0.28374952708333323,2.9999949999999997
1,note_on,63,D#4,0.6299212598425197,0.14124976458333327,3.15
1,note_on,62,D4,0.6299212598425197,0.14124976458333371,3.2999944999999995
2,note_on,43,G2,0.6299212598425197,0.28374952708333323,3.2999944999999995
1,note_on,63,D#4,0.6299212598425197,0.14124976458333327,3.4499942499999996
1,note_on,70,A#4,0.6299212598425197,0.14124976458333327,3.5999939999999997
2,note_on,36,C2,0.6299212598425197,0.28374952708333323,3.5999939999999997
1,note_on,63,D#4,0.6299212598425197,0.14124976458333327,3.75
1,note_on,62,D4,0.6299212598425197,0.14124976458333283,3.90
2,note_on,43,G2,0.6299212598425197,0.2837495270833328,3.90
1,note_on,63,D#4,0.6299212598425197,0.14124976458333283,4.05
1,note_on,58,A#3,0.6299212598425197,0.14124976458333371,4.199992999999999
2,note_on,48,C3,0.6299212598425197,0.2837495270833337,4.199992999999999
1,note_on,63,D#4,0.6299212598425197,0.14124976458333371,4.349992749999999
1,note_on,62,D4,0.6299212598425197,0.14124976458333371,4.499992499999999
2,note_on,43,G2,0.6299212598425197,0.2837495270833337,4.499992499999999
1,note_on,63,D#4,0.6299212598425197,0.14124976458333371,4.6499922499999995
1,note_on,69,A4,0.6299212598425197,0.14124976458333371,4.80
2,note_on,41,F2,0.6299212598425197,0.2837495270833328,4.80
1,note_on,60,C4,0.6299212598425197,0.14124976458333371,4.95
1,note_on,58,A#3,0.6299212598425197,0.14124976458333371,5.10
2,note_on,48,C3,0.6299212598425197,0.2837495270833328,5.10
1,note_on,60,C4,0.6299212598425197,0.14124976458333371,5.25
1,note_on,57,A3,0.6299212598425197,0.14124976458333371,5.40
2,note_on,53,F3,0.6299212598425197,0.2837495270833328,5.40
1,note_on,60,C4,0.6299212598425197,0.14124976458333371,5.549990749999999
1,note_on,58,A#3,0.6299212598425197,0.14124976458333371,5.699990499999999
2,note_on,48,C3,0.6299212598425197,0.2837495270833337,5.699990499999999
1,note_on,60,C4,0.6299212598425197,0.14124976458333371,5.849990249999999
1,note_on,69,A4,0.6299212598425197,0.14124976458333371,5.9999899999999995
2,note_on,41,F2,0.6299212598425197,0.2837495270833328,5.9999899999999995
1,note_on,60,C4,0.6299212598425197,0.14124976458333371,6.15
1,note_on,58,A#3,0.6299212598425197,0.14124976458333371,6.30
2,note_on,48,C3,0.6299212598425197,0.2837495270833328,6.30
1,note_on,60,C4,0.6299212598425197,0.14124976458333371,6.45
1,note_on,57,A3,0.6299212598425197,0.1412497645833346,6.599988999999999
2,note_on,53,F3,0.6299212598425197,0.2837495270833337,6.599988999999999
1,note_on,60,C4,0.6299212598425197,0.14124976458333371,6.749988749999999
1,note_on,58,A#3,0.6299212598425197,0.14124976458333371,6.899988499999999
2,note_on,48,C3,0.6299212598425197,0.2837495270833337,6.899988499999999
1,note_on,60,C4,0.6299212598425197,0.14124976458333371,7.049988249999999
1,note_on,69,A4,0.6299212598425197,0.14124976458333371,7.199987999999999
2,note_on,46,A#2,0.6299212598425197,0.2837495270833328,7.199987999999999
1,note_on,62,D4,0.6299212598425197,0.14124976458333371,7.3499877499999995
1,note_on,60,C4,0.6299212598425197,0.14124976458333371,7.50
2,note_on,53,F3,0.6299212598425197,0.2837495270833328,7.50
1,note_on,62,D4,0.6299212598425197,0.14124976458333371,7.65
1,note_on,58,A#3,0.6299212598425197,0,7.80
2,note_on,58,A#3,0.6299212598425197,0.2837495270833319,7.80
1,note_on,62,D4,0.6299212598425197,0.14124976458333371,7.949986749999999
1,note_on,60,C4,0.6299212598425197,0.14124976458333371,8.10
2,note_on,53,F3,0.6299212598425197,0.2837495270833319,8.10
1,note_on,62,D4,0.6299212598425197,0.14124976458333371,8.25
1,note_on,69,A4,0.6299212598425197,0.1412497645833355,8.399985999999998
2,note_on,46,A#2,0.6299212598425197,0.2837495270833337,8.399985999999998
1,note_on,62,D4,0.6299212598425197,0.14124976458333371,8.55
1,note_on,60,C4,0.6299212598425197,0.14124976458333371,8.699985499999999
2,note_on,53,F3,0.6299212598425197,0.2837495270833337,8.699985499999999
1,note_on,62,D4,0.6299212598425197,0.14124976458333371,8.85
1,note_on,58,A#3,0.6299212598425197,0,8.999984999999999
2,note_on,58,A#3,0.6299212598425197,0.2837495270833337,8.999984999999999
1,note_on,62,D4,0.6299212598425197,0.14124976458333371,9.15
1,note_on,60,C4,0.6299212598425197,0.14124976458333371,9.299984499999999
2,note_on,53,F3,0.6299212598425197,0.2837495270833337,9.299984499999999
1,note_on,62,D4,0.6299212598425197,0.14124976458333371,9.45
1,note_on,67,G4,0.6299212598425197,0.14124976458333194,9.60
2,note_on,39,D#2,0.6299212598425197,0.2837495270833337,9.60
1,note_on,63,D#4,0.6299212598425197,0.14124976458333371,9.749983749999998
1,note_on,62,D4,0.6299212598425197,0.14124976458333194,9.90
2,note_on,46,A#2,0.6299212598425197,0.2837495270833337,9.90
1,note_on,63,D#4,0.6299212598425197,0.14124976458333371,10.049983249999999
1,note_on,58,A#3,0.6299212598425197,0.14124976458333194,10.20
2,note_on,51,D#3,0.6299212598425197,0.2837495270833319,10.20
1,note_on,63,D#4,0.6299212598425197,0.14124976458333371,10.349982749999999
1,note_on,62,D4,0.6299212598425197,0.14124976458333194,10.50
2,note_on,46,A#2,0.6299212598425197,0.2837495270833319,10.50
1,note_on,63,D#4,0.6299212598425197,0.14124976458333371,10.649982249999999
1,note_on,67,G4,0.6299212598425197,0.14124976458333194,10.80
2,note_on,39,D#2,0.6299212598425197,0.2837495270833319,10.80
1,note_on,63,D#4,0.6299212598425197,0.14124976458333194,10.95
1,note_on,62,D4,0.6299212598425197,0.14124976458333371,11.099981499999998
2,note_on,46,A#2,0.6299212598425197,0.2837495270833337,11.099981499999998
1,note_on,63,D#4,0.6299212598425197,0.14124976458333194,11.25
1,note_on,58,A#3,0.6299212598425197,0.14124976458333371,11.399980999999999
2,note_on,51,D#3,0.6299212598425197,0.2837495270833337,11.399980999999999
1,note_on,63,D#4,0.6299212598425197,0.14124976458333194,11.55
1,note_on,62,D4,0.6299212598425197,0.14124976458333371,11.699980499999999
2,note_on,46,A#2,0.6299212598425197,0.2837495270833337,11.699980499999999
1,note_on,63,D#4,0.6299212598425197,0.14124976458333194,11.85
1,note_on,69,A4,0.6299212598425197,0.14124976458333194,11.999979999999999
2,note_on,45,A2,0.6299212598425197,0.2837495270833337,11.999979999999999
1,note_on,63,D#4,0.6299212598425197,0.14124976458333371,12.149979749999998
1,note_on,62,D4,0.6299212598425197,0.14124976458333194,12.30
2,note_on,51,D#3,0.6299212598425197,0.2837495270833337,12.30
1,note_on,63,D#4,0.6299212598425197,0.14124976458333371,12.449979249999998
1,note_on,60,C4,0.6299212598425197,0.14124976458333194,12.60
2,note_on,57,A3,0.6299212598425197,0.2837495270833319,12.60
1,note_on,63,D#4,0.6299212598425197,0.14124976458333371,12.749978749999999
1,note_on,62,D4,0.6299212598425197,0.14124976458333194,12.90
2,note_on,51,D#3,0.6299212598425197,0.2837495270833319,12.90
1,note_on,63,D#4,0.6299212598425197,0.14124976458333371,13.049978249999999
1,note_on,69,A4,0.6299212598425197,0.14124976458333371,13.199977999999998
2,note_on,45,A2,0.6299212598425197,0.2837495270833337,13.199977999999998
1,note_on,63,D#4,0.6299212598425197,0.14124976458333194,13.349977749999999
1,note_on,62,D4,0.6299212598425197,0.14124976458333371,13.499977499999998
2,note_on,51,D#3,0.6299212598425197,0.2837495270833337,13.499977499999998
1,note_on,63,D#4,0.6299212598425197,0.14124976458333194,13.65
1,note_on,60,C4,0.6299212598425197,0.14124976458333371,13.799976999999998
2,note_on,57,A3,0.6299212598425197,0.2837495270833337,13.799976999999998
1,note_on,63,D#4,0.6299212598425197,0.14124976458333194,13.95
1,note_on,62,D4,0.6299212598425197,0.14124976458333371,14.099976499999999
2,note_on,51,D#3,0.6299212598425197,0.2837495270833337,14.099976499999999
1,note_on,63,D#4,0.6299212598425197,0.14124976458333194,14.25
1,note_on,69,A4,0.6299212598425197,0.14124976458333194,14.399975999999999
2,note_on,38,D2,0.6299212598425197,0.2837495270833337,14.399975999999999
1,note_on,67,G4,0.6299212598425197,0.14124976458333371,14.549975749999998
1,note_on,66,F#4,0.6299212598425197,0.14124976458333194,14.699975499999999
2,note_on,45,A2,0.6299212598425197,0.2837495270833337,14.699975499999999
1,note_on,67,G4,0.6299212598425197,0.14124976458333371,14.849975249999998
1,note_on,62,D4,0.6299212598425197,0.14124976458333194,15.00
2,note_on,50,D3,0.6299212598425197,0.2837495270833319,15.00
1,note_on,67,G4,0.6299212598425197,0.14124976458333371,15.149974749999998
1,note_on,66,F#4,0.6299212598425197,0.14124976458333194,15.30
2,note_on,45,A2,0.6299212598425197,0.2837495270833319,15.30
1,note_on,67,G4,0.6299212598425197,0.14124976458333371,15.449974249999999
1,note_on,69,A4,0.6299212598425197,0.14124976458333194,15.60
2,note_on,38,D2,0.6299212598425197,0.2837495270833319,15.60
1,note_on,67,G4,0.6299212598425197,0.14124976458333194,15.749973749999999
1,note_on,66,F#4,0.6299212598425197,0.14124976458333194,15.899973499999998
2,note_on,45,A2,0.6299212598425197,0.2837495270833337,15.899973499999998
1,note_on,67,G4,0.6299212598425197,0.1412497645833355,16.049973249999997
1,note_on,62,D4,0.6299212598425197,0.14124976458333194,16.20
2,note_on,50,D3,0.6299212598425197,0.2837495270833301,16.20
1,note_on,67,G4,0.6299212598425197,0.14124976458333194,16.35
1,note_on,66,F#4,0.6299212598425197,0.14124976458333194,16.50
2,note_on,45,A2,0.6299212598425197,0.2837495270833337,16.50
1,note_on,67,G4,0.6299212598425197,0.1412497645833355,16.649972249999998
1,note_on,70,A#4,0.6299212598425197,0.1412497645833355,16.799971999999997
2,note_on,43,G2,0.6299212598425197,0.2837495270833337,16.799971999999997
1,note_on,67,G4,0.6299212598425197,0.14124976458333194,16.95
1,note_on,66,F#4,0.6299212598425197,0.14124976458333194,17.10
2,note_on,50,D3,0.6299212598425197,0.2837495270833337,17.10
1,note_on,67,G4,0.6299212598425197,0.14124976458333194,17.249971249999998
1,note_on,62,D4,0.6299212598425197,0.1412497645833355,17.399970999999997
2,note_on,55,G3,0.6299212598425197,0.2837495270833337,17.399970999999997
1,note_on,67,G4,0.6299212598425197,0.14124976458333194,17.55
1,note_on,66,F#4,0.6299212598425197,0.14124976458333194,17.70
2,note_on,50,D3,0.6299212598425197,0.2837495270833337,17.70
1,note_on,67,G4,0.6299212598425197,0.14124976458333194,17.85
1,note_on,70,A#4,0.6299212598425197,0.14124976458333194,17.999969999999998
2,note_on,43,G2,0.6299212598425197,0.2837495270833337,17.999969999999998
1,note_on,67,G4,0.6299212598425197,0.1412497645833355,18.149969749999997
1,note_on,66,F#4,0.6299212598425197,0.14124976458333194,18.30
2,note_on,50,D3,0.6299212598425197,0.2837495270833337,18.30
1,note_on,67,G4,0.6299212598425197,0.14124976458333194,18.45
1,note_on,69,A4,0.6299212598425197,0.14124976458333194,18.599968999999998
2,note_on,55,G3,0.6299212598425197,0.2837495270833337,18.599968999999998
1,note_on,67,G4,0.6299212598425197,0.1412497645833355,18.749968749999997
1,note_on,66,F#4,0.6299212598425197,0.14124976458333194,18.90
2,note_on,50,D3,0.6299212598425197,0.2837495270833301,18.90
1,note_on,67,G4,0.6299212598425197,0.14124976458333194,19.05
1,note_on,70,A#4,0.6299212598425197,0.14124976458333194,19.20
2,note_on,43,G2,0.6299212598425197,0.42624928958333186,19.20
1,note_on,62,D4,0.6299212598425197,0.14124976458333194,19.349967749999998
1,note_on,60,C4,0.6299212598425197,0.1412497645833355,19.499967499999997
1,note_on,62,D4,0.6299212598425197,0.14124976458333194,19.65
2,note_on,58,A#3,0.6299212598425197,0.14124976458333194,19.65
1,note_on,58,A#3,0.6299212598425197,0.14124976458333194,19.80
2,note_on,57,A3,0.6299212598425197,0.2837495270833337,19.80
1,note_on,62,D4,0.6299212598425197,0.14124976458333194,19.949966749999998
1,note_on,60,C4,0.6299212598425197,0.1412497645833355,20.099966499999997
2,note_on,58,A#3,0.6299212598425197,0.2837495270833372,20.099966499999997
1,note_on,62,D4,0.6299212598425197,0.14124976458333194,20.25
1,note_on,70,A#4,0.6299212598425197,0.14124976458333194,20.40
2,note_on,43,G2,0.6299212598425197,0.42624928958333186,20.40
1,note_on,62,D4,0.6299212598425197,0.14124976458333194,20.55
1,note_on,60,C4,0.6299212598425197,0.14124976458333194,20.699965499999998
1,note_on,62,D4,0.6299212598425197,0.1412497645833355,20.849965249999997
2,note_on,58,A#3,0.6299212598425197,0.1412497645833355,20.849965249999997
1,note_on,58,A#3,0.6299212598425197,0.14124976458333194,21.00
2,note_on,57,A3,0.6299212598425197,0.2837495270833337,21.00
1,note_on,62,D4,0.6299212598425197,0.14124976458333194,21.15
1,note_on,60,C4,0.6299212598425197,0.14124976458333194,21.299964499999998
2,note_on,58,A#3,0.6299212598425197,0.2837495270833372,21.299964499999998
1,note_on,62,D4,0.6299212598425197,0.1412497645833355,21.449964249999997
1,note_on,70,A#4,0.6299212598425197,0.14124976458333194,21.60
2,note_on,36,C2,0.6299212598425197,0.42624928958333186,21.60
1,note_on,63,D#4,0.6299212598425197,0.14124976458333194,21.75
1,note_on,62,D4,0.6299212598425197,0.14124976458333194,21.90
1,note_on,63,D#4,0.6299212598425197,0.14124976458333194,22.049963249999998
2,note_on,51,D#3,0.6299212598425197,0.14124976458333194,22.049963249999998
1,note_on,58,A#3,0.6299212598425197,0.1412497645833355,22.199962999999997
2,note_on,50,D3,0.6299212598425197,0.2837495270833372,22.199962999999997
1,note_on,63,D#4,0.6299212598425197,0.14124976458333194,22.35
1,note_on,62,D4,0.6299212598425197,0.14124976458333194,22.50
2,note_on,51,D#3,0.6299212598425197,0.2837495270833337,22.50
1,note_on,63,D#4,0.6299212598425197,0.14124976458333194,22.649962249999998
1,note_on,70,A#4,0.6299212598425197,0.14124976458333194,22.799961999999997
2,note_on,36,C2,0.6299212598425197,0.4262492895833354,22.799961999999997
1,note_on,63,D#4,0.6299212598425197,0.1412497645833355,22.949961749999996
1,note_on,62,D4,0.6299212598425197,0.14124976458333194,23.10
1,note_on,63,D#4,0.6299212598425197,0.14124976458333194,23.25
2,note_on,51,D#3,0.6299212598425197,0.14124976458333194,23.25
1,note_on,58,A#3,0.6299212598425197,0.14124976458333194,23.399960999999998
2,note_on,50,D3,0.6299212598425197,0.2837495270833372,23.399960999999998
1,note_on,63,D#4,0.6299212598425197,0.1412497645833355,23.549960749999997
1,note_on,62,D4,0.6299212598425197,0.14124976458333194,23.70
2,note_on,51,D#3,0.6299212598425197,0.2837495270833337,23.70
1,note_on,63,D#4,0.6299212598425197,0.14124976458333194,23.85
1,note_on,69,A4,0.6299212598425197,0.14124976458333194,23.999959999999998
2,note_on,41,F2,0.6299212598425197,0.42624928958333186,23.999959999999998
1,note_on,60,C4,0.6299212598425197,0.14124976458333194,24.149959749999997
1,note_on,58,A#3,0.6299212598425197,0.1412497645833355,24.299959499999996
1,note_on,60,C4,0.6299212598425197,0.14124976458333194,24.45
2,note_on,57,A3,0.6299212598425197,0.14124976458333194,24.45
1,note_on,70,A#4,0.6299212598425197,0.14124976458333194,24.60
2,note_on,55,G3,0.6299212598425197,0.2837495270833337,24.60
1,note_on,60,C4,0.6299212598425197,0.14124976458333194,24.749958749999998
1,note_on,58,A#3,0.6299212598425197,0.1412497645833355,24.899958499999997
2,note_on,57,A3,0.6299212598425197,0.2837495270833372,24.899958499999997
1,note_on,60,C4,0.6299212598425197,0.14124976458333194,25.05
1,note_on,69,A4,0.6299212598425197,0.14124976458333194,25.20
2,note_on,41,F2,0.6299212598425197,0.42624928958333186,25.20
1,note_on,60,C4,0.6299212598425197,0.14124976458333194,25.349957749999998
1,note_on,58,A#3,0.6299212598425197,0.14124976458333194,25.499957499999997
1,note_on,60,C4,0.6299212598425197,0.1412497645833355,25.649957249999996
2,note_on,57,A3,0.6299212598425197,0.1412497645833355,25.649957249999996
1,note_on,67,G4,0.6299212598425197,0.14124976458333194,25.80
2,note_on,55,G3,0.6299212598425197,0.2837495270833337,25.80
1,note_on,60,C4,0.6299212598425197,0.14124976458333194,25.95
1,note_on,58,A#3,0.6299212598425197,0.14124976458333194,26.099956499999998
2,note_on,57,A3,0.6299212598425197,0.2837495270833372,26.099956499999998
1,note_on,60,C4,0.6299212598425197,0.1412497645833355,26.249956249999997
1,note_on,69,A4,0.6299212598425197,0.1412497645833355,26.399955999999996
2,note_on,34,A#1,0.6299212598425197,0.4262492895833354,26.399955999999996
1,note_on,62,D4,0.6299212598425197,0.14124976458333194,26.55
1,note_on,60,C4,0.6299212598425197,0.14124976458333194,26.699955499999998
1,note_on,62,D4,0.6299212598425197,0.14124976458333194,26.849955249999997
2,note_on,50,D3,0.6299212598425197,0.14124976458333194,26.849955249999997
1,note_on,58,A#3,0.6299212598425197,0.1412497645833355,26.999954999999996
2,note_on,48,C3,0.6299212598425197,0.2837495270833372,26.999954999999996
1,note_on,62,D4,0.6299212598425197,0.14124976458333194,27.15
1,note_on,60,C4,0.6299212598425197,0.14124976458333194,27.30
2,note_on,50,D3,0.6299212598425197,0.2837495270833337,27.30
1,note_on,62,D4,0.6299212598425197,0.14124976458333194,27.449954249999998
1,note_on,69,A4,0.6299212598425197,0.14124976458333194,27.599953999999997
2,note_on,34,A#1,0.6299212598425197,0.4262492895833354,27.599953999999997
1,note_on,62,D4,0.6299212598425197,0.1412497645833355,27.749953749999996
1,note_on,60,C4,0.6299212598425197,0.14124976458333194,27.90
1,note_on,62,D4,0.6299212598425197,0.14124976458333194,28.049953249999998
2,note_on,50,D3,0.6299212598425197,0.14124976458333194,28.049953249999998
1,note_on,58,A#3,0.6299212598425197,0.14124976458333194,28.199952999999997
2,note_on,48,C3,0.6299212598425197,0.2837495270833372,28.199952999999997
1,note_on,62,D4,0.6299212598425197,0.1412497645833355,28.349952749999996
1,note_on,60,C4,0.6299212598425197,0.14124976458333194,28.50
2,note_on,50,D3,0.6299212598425197,0.2837495270833337,28.50
1,note_on,62,D4,0.6299212598425197,0.14124976458333194,28.65
1,note_on,67,G4,0.6299212598425197,0.14124976458333194,28.799951999999998
2,note_on,39,D#2,0.6299212598425197,0.42624928958333186,28.799951999999998
1,note_on,63,D#4,0.6299212598425197,0.14124976458333194,28.949951749999997
1,note_on,62,D4,0.6299212598425197,0.1412497645833355,29.099951499999996
1,note_on,63,D#4,0.6299212598425197,0.14124976458333194,29.25
2,note_on,55,G3,0.6299212598425197,0.14124976458333194,29.25
1,note_on,58,A#3,0.6299212598425197,0.14124976458333194,29.399950999999998
2,note_on,53,F3,0.6299212598425197,0.2837495270833337,29.399950999999998
1,note_on,63,D#4,0.6299212598425197,0.14124976458333194,29.549950749999997
1,note_on,62,D4,0.6299212598425197,0.1412497645833355,29.699950499999996
2,note_on,55,G3,0.6299212598425197,0.2837495270833372,29.699950499999996
1,note_on,63,D#4,0.6299212598425197,0.14124976458333194,29.85
1,note_on,67,G4,0.6299212598425197,0.14124976458333194,30.00
2,note_on,39,D#2,0.6299212598425197,0.42624928958333186,30.00
1,note_on,63,D#4,0.6299212598425197,0.14124976458333194,30.149949749999998
1,note_on,62,D4,0.6299212598425197,0.14124976458333194,30.299949499999997
1,note_on,63,D#4,0.6299212598425197,0.1412497645833355,30.449949249999996
2,note_on,55,G3,0.6299212598425197,0.1412497645833355,30.449949249999996
1,note_on,58,A#3,0.6299212598425197,0.14124976458333194,30.60
2,note_on,53,F3,0.6299212598425197,0.2837495270833337,30.60
1,note_on,63,D#4,0.6299212598425197,0.14124976458333194,30.749948749999998
1,note_on,62,D4,0.6299212598425197,0.14124976458333194,30.899948499999997
2,note_on,55,G3,0.6299212598425197,0.2837495270833372,30.899948499999997
1,note_on,63,D#4,0.6299212598425197,0.1412497645833355,31.049948249999996
1,note_on,69,A4,0.6299212598425197,0.14124976458333194,31.20
2,note_on,45,A2,0.6299212598425197,0.42624928958333186,31.20
1,note_on,63,D#4,0.6299212598425197,0.14124976458333194,31.35
1,note_on,62,D4,0.6299212598425197,0.14124976458333194,31.499947499999998
1,note_on,63,D#4,0.6299212598425197,0.14124976458333194,31.649947249999997
2,note_on,60,C4,0.6299212598425197,0.14124976458333194,31.649947249999997
1,note_on,60,C4,0.6299212598425197,0.1412497645833355,31.799946999999996
2,note_on,58,A#3,0.6299212598425197,0.2837495270833372,31.799946999999996
1,note_on,63,D#4,0.6299212598425197,0.14124976458333194,31.95
1,note_on,62,D4,0.6299212598425197,0.1412497645833355,32.099946499999994
2,note_on,60,C4,0.6299212598425197,0.2837495270833372,32.099946499999994
1,note_on,63,D#4,0.6299212598425197,0.14124976458332839,32.25
1,note_on,69,A4,0.6299212598425197,0.14124976458332839,32.40
2,note_on,45,A2,0.6299212598425197,0.42624928958333186,32.40
1,note_on,63,D#4,0.6299212598425197,0.14124976458332839,32.55
1,note_on,62,D4,0.6299212598425197,0.14124976458332839,32.70
1,note_on,63,D#4,0.6299212598425197,0.1412497645833355,32.85
2,note_on,60,C4,0.6299212598425197,0.1412497645833355,32.85
1,note_on,60,C4,0.6299212598425197,0.1412497645833355,33.00
2,note_on,58,A#3,0.6299212598425197,0.2837495270833372,33.00
1,note_on,63,D#4,0.6299212598425197,0.1412497645833355,33.149944749999996
1,note_on,62,D4,0.6299212598425197,0.1412497645833355,33.299944499999995
2,note_on,60,C4,0.6299212598425197,0.2837495270833372,33.299944499999995
1,note_on,63,D#4,0.6299212598425197,0.1412497645833355,33.449944249999994
1,note_on,69,A4,0.6299212598425197,0.1412497645833355,33.599943999999994
2,note_on,38,D2,0.6299212598425197,0.42624928958333896,33.599943999999994
1,note_on,67,G4,0.6299212598425197,0.14124976458332839,33.75
1,note_on,66,F#4,0.6299212598425197,0.14124976458332839,33.90
1,note_on,67,G4,0.6299212598425197,0.14124976458332839,34.05
2,note_on,54,F#3,0.6299212598425197,0.14124976458332839,34.05
1,note_on,62,D4,0.6299212598425197,0.1412497645833355,34.20
2,note_on,52,E3,0.6299212598425197,0.2837495270833372,34.20
1,note_on,67,G4,0.6299212598425197,0.1412497645833355,34.35
1,note_on,66,F#4,0.6299212598425197,0.1412497645833355,34.499942499999996
2,note_on,54,F#3,0.6299212598425197,0.2837495270833372,34.499942499999996
1,note_on,67,G4,0.6299212598425197,0.1412497645833355,34.649942249999995
1,note_on,69,A4,0.6299212598425197,0.1412497645833355,34.799941999999994
2,note_on,38,D2,0.6299212598425197,0.42624928958333896,34.799941999999994
1,note_on,67,G4,0.6299212598425197,0.1412497645833355,34.949941749999994
1,note_on,66,F#4,0.6299212598425197,0.14124976458332839,35.10
1,note_on,67,G4,0.6299212598425197,0.14124976458332839,35.25
2,note_on,54,F#3,0.6299212598425197,0.14124976458332839,35.25
1,note_on,62,D4,0.6299212598425197,0.14124976458332839,35.40
2,note_on,52,E3,0.6299212598425197,0.2837495270833372,35.40
1,note_on,67,G4,0.6299212598425197,0.1412497645833355,35.55
1,note_on,66,F#4,0.6299212598425197,0.1412497645833355,35.70
2,note_on,54,F#3,0.6299212598425197,0.2837495270833372,35.70
1,note_on,67,G4,0.6299212598425197,0.1412497645833355,35.849940249999996
1,note_on,70,A#4,0.6299212598425197,0.1412497645833355,35.999939999999995
2,note_on,43,G2,0.6299212598425197,0.42624928958333186,35.999939999999995
1,note_on,67,G4,0.6299212598425197,0.1412497645833355,36.149939749999994
1,note_on,66,F#4,0.6299212598425197,0.1412497645833355,36.299939499999994
1,note_on,67,G4,0.6299212598425197,0.14124976458332839,36.45
2,note_on,50,D3,0.6299212598425197,0.14124976458332839,36.45
1,note_on,71,B4,0.6299212598425197,0.14124976458332839,36.60
2,note_on,55,G3,0.6299212598425197,0.5687490520833265,36.60
2,note_on,59,B3,0.6299212598425197,0.5687490520833265,36.60
1,note_on,67,G4,0.6299212598425197,0.14124976458332839,36.75
1,note_on,65,F4,0.6299212598425197,0.1412497645833355,36.90
1,note_on,67,G4,0.6299212598425197,0.1412497645833355,37.05
1,note_on,72,C5,0.6299212598425197,0.1412497645833355,37.199937999999996
2,note_on,43,G2,0.6299212598425197,0.42624928958333186,37.199937999999996
1,note_on,67,G4,0.6299212598425197,0.1412497645833355,37.349937749999995
1,note_on,65,F4,0.6299212598425197,0.1412497645833355,37.499937499999994
1,note_on,67,G4,0.6299212598425197,0.1412497645833355,37.649937249999994
2,note_on,50,D3,0.6299212598425197,0.1412497645833355,37.649937249999994
1,note_on,74,D5,0.6299212598425197,0.14124976458332839,37.80
2,note_on,55,G3,0.6299212598425197,0.5687490520833265,37.80
2,note_on,59,B3,0.6299212598425197,0.5687490520833265,37.80
1,note_on,67,G4,0.6299212598425197,0.14124976458332839,37.95
1,note_on,65,F4,0.6299212598425197,0.14124976458332839,38.10
1,note_on,67,G4,0.6299212598425197,0.1412497645833355,38.25
1,note_on,75,D#5,0.6299212598425197,0.1412497645833355,38.40
2,note_on,48,C3,0.6299212598425197,0.2837495270833301,38.40
1,note_on,74,D5,0.6299212598425197,0.1412497645833355,38.549935749999996
1,note_on,72,C5,0.6299212598425197,0.1412497645833355,38.699935499999995
2,note_on,55,G3,0.6299212598425197,0.2837495270833301,38.699935499999995
1,note_on,74,D5,0.6299212598425197,0.1412497645833355,38.849935249999994
1,note_on,75,D#5,0.6299212598425197,0.2837495270833372,38.999934999999994
2,note_on,63,D#4,0.6299212598425197,0.1412497645833355,38.999934999999994
2,note_on,62,D4,0.6299212598425197,0.14124976458332839,39.15
1,note_on,67,G4,0.6299212598425197,0.2837495270833301,39.30
2,note_on,60,C4,0.6299212598425197,0.14124976458332839,39.30
2,note_on,55,G3,0.6299212598425197,0.14124976458332839,39.45
1,note_on,68,G#4,0.6299212598425197,0.2837495270833301,39.60
2,note_on,41,F2,0.6299212598425197,0.2837495270833301,39.60
1,note_on,79,G5,0.6299212598425197,0.2837495270833301,39.899933499999996
2,note_on,48,C3,0.6299212598425197,0.2837495270833301,39.899933499999996
1,note_on,77,F5,0.6299212598425197,0.2837495270833301,40.199932999999994
2,note_on,56,G#3,0.6299212598425197,0.1412497645833355,40.199932999999994
2,note_on,55,G3,0.6299212598425197,0.1412497645833355,40.349932749999994
1,note_on,75,D#5,0.6299212598425197,0.2837495270833301,40.50
2,note_on,53,F3,0.6299212598425197,0.14124976458332839,40.50
2,note_on,48,C3,0.6299212598425197,0.14124976458332839,40.65
1,note_on,74,D5,0.6299212598425197,0.14124976458332839,40.80
2,note_on,46,A#2,0.6299212598425197,0.2837495270833301,40.80
1,note_on,72,C5,0.6299212598425197,0.14124976458332839,40.95
1,note_on,74,D5,0.6299212598425197,0.1412497645833355,41.10
2,note_on,53,F3,0.6299212598425197,0.2837495270833301,41.10
1,note_on,75,D#5,0.6299212598425197,0.1412497645833355,41.249931249999996
1,note_on,77,F5,0.6299212598425197,0.2837495270833301,41.399930999999995
2,note_on,62,D4,0.6299212598425197,0.1412497645833355,41.399930999999995
2,note_on,60,C4,0.6299212598425197,0.1412497645833355,41.549930749999994
1,note_on,65,F4,0.6299212598425197,0.2837495270833372,41.699930499999994
2,note_on,58,A#3,0.6299212598425197,0.1412497645833355,41.699930499999994
2,note_on,53,F3,0.6299212598425197,0.14124976458332839,41.85
1,note_on,67,G4,0.6299212598425197,0.2837495270833301,42.00
2,note_on,39,D#2,0.6299212598425197,0.2837495270833301,42.00
1,note_on,77,F5,0.6299212598425197,0.2837495270833301,42.30
2,note_on,46,A#2,0.6299212598425197,0.2837495270833301,42.30
1,note_on,75,D#5,0.6299212598425197,0.2837495270833301,42.599928999999996
2,note_on,55,G3,0.6299212598425197,0.1412497645833355,42.599928999999996
2,note_on,53,F3,0.6299212598425197,0.1412497645833355,42.749928749999995
1,note_on,74,D5,0.6299212598425197,0.2837495270833301,42.899928499999994
2,note_on,51,D#3,0.6299212598425197,0.1412497645833355,42.899928499999994
2,note_on,46,A#2,0.6299212598425197,0.1412497645833355,43.049928249999994
1,note_on,72,C5,0.6299212598425197,0.14124976458332839,43.20
2,note_on,44,G#2,0.6299212598425197,0.2837495270833301,43.20
1,note_on,70,A#4,0.6299212598425197,0.14124976458332839,43.35
1,note_on,68,G#4,0.6299212598425197,0.14124976458332839,43.50
2,note_on,51,D#3,0.6299212598425197,0.2837495270833301,43.50
1,note_on,70,A#4,0.6299212598425197,0.14124976458332839,43.65
1,note_on,72,C5,0.6299212598425197,0.5687490520833336,43.80
2,note_on,60,C4,0.6299212598425197,0.1412497645833355,43.80
2,note_on,58,A#3,0.6299212598425197,0.1412497645833355,43.949926749999996
2,note_on,56,G#3,0.6299212598425197,0.1412497645833355,44.099926499999995
2,note_on,51,D#3,0.6299212598425197,0.1412497645833355,44.249926249999994
1,note_on,72,C5,0.6299212598425197,0.1412497645833355,44.399925999999994
2,note_on,41,F2,0.6299212598425197,0.2837495270833372,44.399925999999994
1,note_on,70,A#4,0.6299212598425197,0.1412497645833355,44.54992574999999
1,note_on,68,G#4,0.6299212598425197,0.14124976458332839,44.70
2,note_on,51,D#3,0.6299212598425197,0.2837495270833301,44.70
1,note_on,70,A#4,0.6299212598425197,0.14124976458332839,44.85
1,note_on,72,C5,0.6299212598425197,0.5687490520833336,45.00
2,note_on,56,G#3,0.6299212598425197,0.14124976458332839,45.00
2,note_on,55,G3,0.6299212598425197,0.1412497645833355,45.15
2,note_on,53,F3,0.6299212598425197,0.1412497645833355,45.299924499999996
2,note_on,48,C3,0.6299212598425197,0.1412497645833355,45.449924249999995
1,note_on,72,C5,0.6299212598425197,0.1412497645833355,45.599923999999994
2,note_on,38,D2,0.6299212598425197,0.2837495270833301,45.599923999999994
1,note_on,70,A#4,0.6299212598425197,0.1412497645833355,45.749923749999994
1,note_on,68,G#4,0.6299212598425197,0.1412497645833355,45.89992349999999
2,note_on,44,G#2,0.6299212598425197,0.2837495270833372,45.89992349999999
1,note_on,70,A#4,0.6299212598425197,0.14124976458332839,46.05
1,note_on,72,C5,0.6299212598425197,0.14124976458332839,46.20
2,note_on,48,C3,0.6299212598425197,0.2837495270833301,46.20
2,note_on,53,F3,0.6299212598425197,0.2837495270833301,46.20
1,note_on,65,F4,0.6299212598425197,0.14124976458332839,46.35
1,note_on,66,F#4,0.6299212598425197,0.1412497645833355,46.50
2,note_on,44,G#2,0.6299212598425197,0.2837495270833301,46.50
1,note_on,75,D#5,0.6299212598425197,0.1412497645833355,46.649922249999996
1,note_on,74,D5,0.6299212598425197,0.5687490520833336,46.799921999999995
2,note_on,43,G2,0.6299212598425197,0.2837495270833301,46.799921999999995
2,note_on,50,D3,0.6299212598425197,0.2837495270833301,47.099921499999994
2,note_on,53,F3,0.6299212598425197,0.2837495270833301,47.40
2,note_on,59,B3,0.6299212598425197,0.2837495270833301,47.40
1,note_on,74,D5,0.6299212598425197,0.2837495270833301,47.70
2,note_on,50,D3,0.6299212598425197,0.2837495270833301,47.70
1,note_on,75,D#5,0.6299212598425197,0.1412497645833355,47.999919999999996
2,note_on,48,C3,0.6299212598425197,0.2837495270833301,47.999919999999996
1,note_on,74,D5,0.6299212598425197,0.1412497645833355,48.149919749999995
1,note_on,72,C5,0.6299212598425197,0.1412497645833355,48.299919499999994
2,note_on,55,G3,0.6299212598425197,0.2837495270833301,48.299919499999994
1,note_on,74,D5,0.6299212598425197,0.1412497645833355,48.449919249999994
1,note_on,75,D#5,0.6299212598425197,0.1412497645833355,48.59991899999999
2,note_on,60,C4,0.6299212598425197,0.2837495270833372,48.59991899999999
2,note_on,63,D#4,0.6299212598425197,0.2837495270833372,48.59991899999999
1,note_on,77,F5,0.6299212598425197,0.14124976458332839,48.75
1,note_on,79,G5,0.6299212598425197,0.14124976458332839,48.90
2,note_on,55,G3,0.6299212598425197,0.2837495270833301,48.90
1,note_on,67,G4,0.6299212598425197,0.14124976458332839,49.05
1,note_on,68,G#4,0.6299212598425197,0.2837495270833301,49.20
2,note_on,41,F2,0.6299212598425197,0.2837495270833301,49.20
1,note_on,79,G5,0.6299212598425197,0.2837495270833301,49.499917499999995
2,note_on,48,C3,0.6299212598425197,0.2837495270833301,49.499917499999995
0,note_on,77,F5,0.6299212598425197,0.35499940833333454,49.79991699999999
2,note_on,53,F3,0.6299212598425197,0.2837495270833301,49.79991699999999
2,note_on,56,G#3,0.6299212598425197,0.2837495270833301,49.79991699999999
1,note_on,75,D#5,0.6299212598425197,0.097499837,50.10
2,note_on,48,C3,0.6299212598425197,0.2837495270833301,50.10
0,note_on,75,D#5,0.6299212598425197,0.069999883,50.174916374999995
1,note_on,77,F5,0.6299212598425197,0.097499837,50.19866633541667
0,note_on,77,F5,0.6299212598425197,0.069999883,50.25
1,note_on,75,D#5,0.6299212598425197,0.097499838,50.298666168749996
0,note_on,75,D#5,0.6299212598425197,0.069999883,50.324916124999994
1,note_on,74,D5,0.6299212598425197,0.14124976458332839,50.40
2,note_on,46,A#2,0.6299212598425197,0.2837495270833301,50.40
1,note_on,72,C5,0.6299212598425197,0.14124976458332839,50.55
1,note_on,70,A#4,0.6299212598425197,0.1412497645833355,50.699915499999996
2,note_on,53,F3,0.6299212598425197,0.2837495270833301,50.699915499999996
1,note_on,72,C5,0.6299212598425197,0.1412497645833355,50.849915249999995
1,note_on,74,D5,0.6299212598425197,0.1412497645833355,50.999914999999994
2,note_on,58,A#3,0.6299212598425197,0.2837495270833301,50.999914999999994
2,note_on,62,D4,0.6299212598425197,0.2837495270833301,50.999914999999994
1,note_on,75,D#5,0.6299212598425197,0.1412497645833355,51.14991474999999
1,note_on,77,F5,0.6299212598425197,0.1412497645833355,51.29991449999999
2,note_on,53,F3,0.6299212598425197,0.2837495270833372,51.29991449999999
1,note_on,65,F4,0.6299212598425197,0.14124976458332839,51.45
1,note_on,67,G4,0.6299212598425197,0.2837495270833301,51.60
2,note_on,39,D#2,0.6299212598425197,0.2837495270833301,51.60
1,note_on,77,F5,0.6299212598425197,0.2837495270833301,51.90
2,note_on,46,A#2,0.6299212598425197,0.2837495270833301,51.90
0,note_on,75,D#5,0.6299212598425197,0.35499940833333454,52.199912999999995
2,note_on,51,D#3,0.6299212598425197,0.2837495270833301,52.199912999999995
2,note_on,55,G3,0.6299212598425197,0.2837495270833301,52.199912999999995
1,note_on,74,D5,0.6299212598425197,0.097499837,52.49991249999999
2,note_on,46,A#2,0.6299212598425197,0.2837495270833301,52.49991249999999
0,note_on,74,D5,0.6299212598425197,0.069999883,52.57
1,note_on,75,D#5,0.6299212598425197,0.097499837,52.59866233541667
0,note_on,75,D#5,0.6299212598425197,0.069999883,52.64991224999999
1,note_on,74,D5,0.6299212598425197,0.097499838,52.69866216874999
0,note_on,74,D5,0.6299212598425197,0.069999883,52.724912124999996
1,note_on,72,C5,0.6299212598425197,0.1412497645833355,52.79991199999999
2,note_on,44,G#2,0.6299212598425197,0.2837495270833372,52.79991199999999
1,note_on,70,A#4,0.6299212598425197,0.14124976458332839,52.95
1,note_on,68,G#4,0.6299212598425197,0.14124976458332839,53.10
2,note_on,51,D#3,0.6299212598425197,0.2837495270833301,53.10
1,note_on,70,A#4,0.6299212598425197,0.14124976458332839,53.25
1,note_on,72,C5,0.6299212598425197,0.2837495270833301,53.399910999999996
2,note_on,56,G#3,0.6299212598425197,0.2837495270833301,53.399910999999996
2,note_on,60,C4,0.6299212598425197,0.2837495270833301,53.399910999999996
1,note_on,62,D4,0.6299212598425197,0.2837495270833301,53.699910499999994
2,note_on,51,D#3,0.6299212598425197,0.2837495270833301,53.699910499999994
1,note_on,63,D#4,0.6299212598425197,0.2837495270833372,53.99990999999999
2,note_on,41,F2,0.6299212598425197,0.2837495270833372,53.99990999999999
1,note_on,65,F4,0.6299212598425197,0.2837495270833301,54.30
2,note_on,48,C3,0.6299212598425197,0.2837495270833301,54.30
1,note_on,68,G#4,0.6299212598425197,0.2837495270833301,54.60
2,note_on,53,F3,0.6299212598425197,0.2837495270833301,54.60
2,note_on,56,G#3,0.6299212598425197,0.2837495270833301,54.60
1,note_on,72,C5,0.6299212598425197,0.2837495270833301,54.899908499999995
2,note_on,48,C3,0.6299212598425197,0.2837495270833301,54.899908499999995
1,note_on,71,B4,0.6299212598425197,0.2837495270833301,55.19990799999999
2,note_on,38,D2,0.6299212598425197,0.2837495270833301,55.19990799999999
1,note_on,65,F4,0.6299212598425197,0.2837495270833372,55.49990749999999
2,note_on,44,G#2,0.6299212598425197,0.2837495270833372,55.49990749999999
1,note_on,66,F#4,0.6299212598425197,0.2837495270833301,55.80
2,note_on,48,C3,0.6299212598425197,0.2837495270833301,55.80
2,note_on,53,F3,0.6299212598425197,0.2837495270833301,55.80
1,note_on,75,D#5,0.6299212598425197,0.2837495270833301,56.099906499999996
2,note_on,44,G#2,0.6299212598425197,0.2837495270833301,56.099906499999996
1,note_on,74,D5,0.6299212598425197,0.5687490520833336,56.399905999999994
2,note_on,43,G2,0.6299212598425197,0.2837495270833301,56.399905999999994
2,note_on,50,D3,0.6299212598425197,0.2837495270833301,56.69990549999999
2,note_on,53,F3,0.6299212598425197,0.2837495270833301,57.00
2,note_on,59,B3,0.6299212598425197,0.2837495270833301,57.00
1,note_on,71,B4,0.6299212598425197,0.14124976458332839,57.15
1,note_on,72,C5,0.6299212598425197,0.14124976458332839,57.30
2,note_on,50,D3,0.6299212598425197,0.14124976458332839,57.30
1,note_on,74,D5,0.6299212598425197,0.1412497645833355,57.449904249999996
1,note_on,79,G5,0.6299212598425197,0.1412497645833355,57.599903999999995
2,note_on,48,C3,0.6299212598425197,0.2837495270833301,57.599903999999995
1,note_on,77,F5,0.6299212598425197,0.1412497645833355,57.749903749999994
1,note_on,75,D#5,0.6299212598425197,0.1412497645833355,57.89990349999999
2,note_on,55,G3,0.6299212598425197,0.2837495270833301,57.89990349999999
1,note_on,74,D5,0.6299212598425197,0.1412497645833355,58.04990324999999
1,note_on,75,D#5,0.6299212598425197,0.1412497645833355,58.19990299999999
2,note_on,60,C4,0.6299212598425197,0.2837495270833372,58.19990299999999
2,note_on,63,D#4,0.6299212598425197,0.2837495270833372,58.19990299999999
1,note_on,77,F5,0.6299212598425197,0.14124976458332839,58.35
1,note_on,79,G5,0.6299212598425197,0.14124976458332839,58.50
2,note_on,55,G3,0.6299212598425197,0.2837495270833301,58.50
1,note_on,72,C5,0.6299212598425197,0.14124976458332839,58.65
1,note_on,80,G#5,0.6299212598425197,0.2837495270833301,58.799901999999996
2,note_on,41,F2,0.6299212598425197,0.2837495270833301,58.799901999999996
1,note_on,79,G5,0.6299212598425197,0.2837495270833301,59.099901499999994
2,note_on,48,C3,0.6299212598425197,0.2837495270833301,59.099901499999994
1,note_on,77,F5,0.6299212598425197,0.2837495270833301,59.39990099999999
2,note_on,53,F3,0.6299212598425197,0.2837495270833301,59.39990099999999
2,note_on,56,G#3,0.6299212598425197,0.2837495270833301,59.39990099999999
1,note_on,75,D#5,0.6299212598425197,0.2837495270833301,59.70
2,note_on,48,C3,0.6299212598425197,0.2837495270833301,59.70
1,note_on,77,F5,0.6299212598425197,0.14124976458332839,60.00
2,note_on,46,A#2,0.6299212598425197,0.2837495270833301,60.00
1,note_on,75,D#5,0.6299212598425197,0.14124976458332839,60.149899749999996
1,note_on,74,D5,0.6299212598425197,0.1412497645833355,60.299899499999995
2,note_on,53,F3,0.6299212598425197,0.2837495270833301,60.299899499999995
1,note_on,72,C5,0.6299212598425197,0.1412497645833355,60.449899249999994
1,note_on,74,D5,0.6299212598425197,0.1412497645833355,60.59989899999999
2,note_on,58,A#3,0.6299212598425197,0.2837495270833301,60.59989899999999
2,note_on,62,D4,0.6299212598425197,0.2837495270833301,60.59989899999999
1,note_on,75,D#5,0.6299212598425197,0.1412497645833355,60.74989874999999
1,note_on,77,F5,0.6299212598425197,0.1412497645833355,60.89989849999999
2,note_on,53,F3,0.6299212598425197,0.2837495270833372,60.89989849999999
1,note_on,65,F4,0.6299212598425197,0.14124976458332839,61.05
1,note_on,67,G4,0.6299212598425197,0.2837495270833301,61.20
2,note_on,39,D#2,0.6299212598425197,0.2837495270833301,61.20
1,note_on,77,F5,0.6299212598425197,0.2837495270833301,61.499897499999996
2,note_on,46,A#2,0.6299212598425197,0.2837495270833301,61.499897499999996
1,note_on,75,D#5,0.6299212598425197,0.2837495270833301,61.799896999999994
2,note_on,51,D#3,0.6299212598425197,0.2837495270833301,61.799896999999994
2,note_on,55,G3,0.6299212598425197,0.2837495270833301,61.799896999999994
1,note_on,74,D5,0.6299212598425197,0.2837495270833301,62.09989649999999
2,note_on,46,A#2,0.6299212598425197,0.2837495270833301,62.09989649999999
1,note_on,75,D#5,0.6299212598425197,0.14124976458332839,62.40
2,note_on,44,G#2,0.6299212598425197,0.2837495270833301,62.40
1,note_on,74,D5,0.6299212598425197,0.14124976458332839,62.55
1,note_on,72,C5,0.6299212598425197,0.14124976458332839,62.70
2,note_on,51,D#3,0.6299212598425197,0.2837495270833301,62.70
1,note_on,70,A#4,0.6299212598425197,0.14124976458332839,62.849895249999996
1,note_on,72,C5,0.6299212598425197,0.1412497645833355,62.999894999999995
2,note_on,56,G#3,0.6299212598425197,0.2837495270833301,62.999894999999995
2,note_on,60,C4,0.6299212598425197,0.2837495270833301,62.999894999999995
1,note_on,74,D5,0.6299212598425197,0.1412497645833355,63.149894749999994
1,note_on,75,D#5,0.6299212598425197,0.1412497645833355,63.29989449999999
2,note_on,51,D#3,0.6299212598425197,0.2837495270833301,63.29989449999999
1,note_on,68,G#4,0.6299212598425197,0.1412497645833355,63.44989424999999
1,note_on,77,F5,0.6299212598425197,0.2837495270833372,63.59989399999999
2,note_on,41,F2,0.6299212598425197,0.2837495270833372,63.59989399999999
1,note_on,75,D#5,0.6299212598425197,0.283749527,63.90
2,note_on,48,C3,0.6299212598425197,0.283749527,63.90
1,note_on,74,D5,0.6299212598425197,0.2837495270833301,64.19989299999999
2,note_on,53,F3,0.6299212598425197,0.2837495270833301,64.19989299999999
2,note_on,56,G#3,0.6299212598425197,0.2837495270833301,64.19989299999999
1,note_on,72,C5,0.6299212598425197,0.2837495270833301,64.50
2,note_on,48,C3,0.6299212598425197,0.2837495270833301,64.50
1,note_on,71,B4,0.6299212598425197,0.42624928958332475,64.80
2,note_on,38,D2,0.6299212598425197,0.2837495270833301,64.80
2,note_on,44,G#2,0.6299212598425197,0.2837495270833301,65.10
1,note_on,71,B4,0.6299212598425197,0.1412497645833355,65.24989124999999
1,note_on,72,C5,0.6299212598425197,0.2837495270833301,65.40
2,note_on,48,C3,0.6299212598425197,0.2837495270833301,65.40
2,note_on,53,F3,0.6299212598425197,0.2837495270833301,65.40
1,note_on,74,D5,0.6299212598425197,0.2837495270833301,65.70
2,note_on,44,G#2,0.6299212598425197,0.2837495270833301,65.70
1,note_on,75,D#5,0.6299212598425197,0.2837495270833301,66.00
2,note_on,43,G2,0.6299212598425197,0.2837495270833301,66.00
1,note_on,74,D5,0.6299212598425197,0.2837495270833301,66.29988949999999
2,note_on,50,D3,0.6299212598425197,0.2837495270833301,66.29988949999999
1,note_on,75,D#5,0.6299212598425197,0.2837495270833301,66.59988899999999
2,note_on,53,F3,0.6299212598425197,0.2837495270833301,66.59988899999999
2,note_on,59,B3,0.6299212598425197,0.2837495270833301,66.59988899999999
1,note_on,77,F5,0.6299212598425197,0.2837495270833301,66.89988849999999
2,note_on,50,D3,0.6299212598425197,0.2837495270833301,66.89988849999999
1,note_on,79,G5,0.6299212598425197,0.1412497645833355,67.19988799999999
2,note_on,48,C3,0.6299212598425197,0.1412497645833355,67.19988799999999
1,note_on,75,D#5,0.6299212598425197,0.1412497645833355,67.35
2,note_on,55,G3,0.6299212598425197,0.1412497645833355,67.35
1,note_on,74,D5,0.6299212598425197,0.14124976458332128,67.50
2,note_on,60,C4,0.6299212598425197,0.14124976458332128,67.50
1,note_on,75,D#5,0.6299212598425197,0.1412497645833355,67.64988724999999
2,note_on,62,D4,0.6299212598425197,0.1412497645833355,67.64988724999999
1,note_on,72,C5,0.6299212598425197,0.1412497645833355,67.80
2,note_on,55,G3,0.6299212598425197,0.1412497645833355,67.80
2,note_on,60,C4,0.6299212598425197,0.1412497645833355,67.80
1,note_on,75,D#5,0.6299212598425197,0.1412497645833355,67.94988674999999
2,note_on,63,D#4,0.6299212598425197,0.1412497645833355,67.94988674999999
1,note_on,74,D5,0.6299212598425197,0.1412497645833355,68.10
2,note_on,60,C4,0.6299212598425197,0.1412497645833355,68.10
1,note_on,75,D#5,0.6299212598425197,0.1412497645833355,68.24988624999999
2,note_on,55,G3,0.6299212598425197,0.1412497645833355,68.24988624999999
1,note_on,79,G5,0.6299212598425197,0.1412497645833355,68.40
2,note_on,48,C3,0.6299212598425197,0.1412497645833355,68.40
1,note_on,75,D#5,0.6299212598425197,0.1412497645833355,68.54988574999999
2,note_on,55,G3,0.6299212598425197,0.1412497645833355,68.54988574999999
1,note_on,74,D5,0.6299212598425197,0.1412497645833355,68.70
2,note_on,60,C4,0.6299212598425197,0.1412497645833355,68.70
1,note_on,75,D#5,0.6299212598425197,0.14124976458332128,68.85
2,note_on,62,D4,0.6299212598425197,0.14124976458332128,68.85
1,note_on,72,C5,0.6299212598425197,0.1412497645833355,68.99988499999999
2,note_on,55,G3,0.6299212598425197,0.1412497645833355,68.99988499999999
2,note_on,60,C4,0.6299212598425197,0.1412497645833355,68.99988499999999
1,note_on,75,D#5,0.6299212598425197,0.1412497645833355,69.15
2,note_on,63,D#4,0.6299212598425197,0.1412497645833355,69.15
1,note_on,74,D5,0.6299212598425197,0.1412497645833355,69.29988449999999
2,note_on,60,C4,0.6299212598425197,0.1412497645833355,69.29988449999999
1,note_on,75,D#5,0.6299212598425197,0.1412497645833355,69.45
2,note_on,55,G3,0.6299212598425197,0.1412497645833355,69.45
1,note_on,80,G#5,0.6299212598425197,0.1412497645833355,69.59988399999999
2,note_on,41,F2,0.6299212598425197,0.1412497645833355,69.59988399999999
1,note_on,75,D#5,0.6299212598425197,0.1412497645833355,69.75
2,note_on,48,C3,0.6299212598425197,0.1412497645833355,69.75
1,note_on,74,D5,0.6299212598425197,0.1412497645833355,69.89988349999999
2,note_on,53,F3,0.6299212598425197,0.1412497645833355,69.89988349999999
1,note_on,75,D#5,0.6299212598425197,0.1412497645833355,70.05
2,note_on,55,G3,0.6299212598425197,0.1412497645833355,70.05
1,note_on,72,C5,0.6299212598425197,0.14124976458332128,70.20
2,note_on,48,C3,0.6299212598425197,0.14124976458332128,70.20
2,note_on,53,F3,0.6299212598425197,0.14124976458332128,70.20
1,note_on,75,D#5,0.6299212598425197,0.1412497645833355,70.34988274999999
2,note_on,56,G#3,0.6299212598425197,0.1412497645833355,70.34988274999999
1,note_on,74,D5,0.6299212598425197,0.1412497645833355,70.50
2,note_on,53,F3,0.6299212598425197,0.1412497645833355,70.50
1,note_on,75,D#5,0.6299212598425197,0.1412497645833355,70.64988224999999
2,note_on,48,C3,0.6299212598425197,0.1412497645833355,70.64988224999999
1,note_on,80,G#5,0.6299212598425197,0.1412497645833355,70.80
2,note_on,41,F2,0.6299212598425197,0.1412497645833355,70.80
1,note_on,75,D#5,0.6299212598425197,0.1412497645833355,70.94988174999999
2,note_on,48,C3,0.6299212598425197,0.1412497645833355,70.94988174999999
1,note_on,74,D5,0.6299212598425197,0.1412497645833355,71.10
2,note_on,53,F3,0.6299212598425197,0.1412497645833355,71.10
1,note_on,75,D#5,0.6299212598425197,0.1412497645833355,71.24988124999999
2,note_on,55,G3,0.6299212598425197,0.1412497645833355,71.24988124999999
1,note_on,72,C5,0.6299212598425197,0.1412497645833355,71.40
2,note_on,48,C3,0.6299212598425197,0.1412497645833355,71.40
2,note_on,53,F3,0.6299212598425197,0.1412497645833355,71.40
1,note_on,75,D#5,0.6299212598425197,0.14124976458332128,71.55
2,note_on,56,G#3,0.6299212598425197,0.14124976458332128,71.55
1,note_on,74,D5,0.6299212598425197,0.1412497645833355,71.69988049999999
2,note_on,53,F3,0.6299212598425197,0.1412497645833355,71.69988049999999
1,note_on,75,D#5,0.6299212598425197,0.1412497645833355,71.85
2,note_on,48,C3,0.6299212598425197,0.1412497645833355,71.85
1,note_on,77,F5,0.6299212598425197,0.1412497645833355,71.99987999999999
2,note_on,46,A#2,0.6299212598425197,0.1412497645833355,71.99987999999999
1,note_on,74,D5,0.6299212598425197,0.1412497645833355,72.15
2,note_on,53,F3,0.6299212598425197,0.1412497645833355,72.15
1,note_on,72,C5,0.6299212598425197,0.1412497645833355,72.29987949999999
2,note_on,58,A#3,0.6299212598425197,0.1412497645833355,72.29987949999999
1,note_on,74,D5,0.6299212598425197,0.1412497645833355,72.45
2,note_on,60,C4,0.6299212598425197,0.1412497645833355,72.45
1,note_on,70,A#4,0.6299212598425197,0.1412497645833355,72.59987899999999
2,note_on,53,F3,0.6299212598425197,0.1412497645833355,72.59987899999999
2,note_on,58,A#3,0.6299212598425197,0.1412497645833355,72.59987899999999
1,note_on,74,D5,0.6299212598425197,0.1412497645833355,72.75
2,note_on,62,D4,0.6299212598425197,0.1412497645833355,72.75
1,note_on,72,C5,0.6299212598425197,0.14124976458332128,72.90
2,note_on,58,A#3,0.6299212598425197,0.14124976458332128,72.90
1,note_on,74,D5,0.6299212598425197,0.1412497645833355,73.04987824999999
2,note_on,53,F3,0.6299212598425197,0.1412497645833355,73.04987824999999
1,note_on,77,F5,0.6299212598425197,0.14124976458332128,73.20
2,note_on,46,A#2,0.6299212598425197,0.14124976458332128,73.20
1,note_on,74,D5,0.6299212598425197,0.1412497645833355,73.34987774999999
2,note_on,53,F3,0.6299212598425197,0.1412497645833355,73.34987774999999
1,note_on,72,C5,0.6299212598425197,0.1412497645833355,73.50
2,note_on,58,A#3,0.6299212598425197,0.1412497645833355,73.50
1,note_on,74,D5,0.6299212598425197,0.1412497645833355,73.64987724999999
2,note_on,60,C4,0.6299212598425197,0.1412497645833355,73.64987724999999
1,note_on,70,A#4,0.6299212598425197,0.1412497645833355,73.80
2,note_on,53,F3,0.6299212598425197,0.1412497645833355,73.80
2,note_on,58,A#3,0.6299212598425197,0.1412497645833355,73.80
1,note_on,74,D5,0.6299212598425197,0.1412497645833355,73.94987674999999
2,note_on,62,D4,0.6299212598425197,0.1412497645833355,73.94987674999999
1,note_on,72,C5,0.6299212598425197,0.1412497645833355,74.10
2,note_on,58,A#3,0.6299212598425197,0.1412497645833355,74.10
1,note_on,74,D5,0.6299212598425197,0.14124976458332128,74.25
2,note_on,53,F3,0.6299212598425197,0.14124976458332128,74.25
1,note_on,79,G5,0.6299212598425197,0.1412497645833355,74.39987599999999
2,note_on,39,D#2,0.6299212598425197,0.1412497645833355,74.39987599999999
1,note_on,75,D#5,0.6299212598425197,0.14124976458332128,74.55
2,note_on,46,A#2,0.6299212598425197,0.14124976458332128,74.55
1,note_on,74,D5,0.6299212598425197,0.1412497645833355,74.69987549999999
2,note_on,51,D#3,0.6299212598425197,0.1412497645833355,74.69987549999999
1,note_on,75,D#5,0.6299212598425197,0.1412497645833355,74.85
2,note_on,53,F3,0.6299212598425197,0.1412497645833355,74.85
1,note_on,70,A#4,0.6299212598425197,0.1412497645833355,74.99987499999999
2,note_on,46,A#2,0.6299212598425197,0.1412497645833355,74.99987499999999
2,note_on,51,D#3,0.6299212598425197,0.1412497645833355,74.99987499999999
1,note_on,75,D#5,0.6299212598425197,0.1412497645833355,75.15
2,note_on,55,G3,0.6299212598425197,0.1412497645833355,75.15
1,note_on,74,D5,0.6299212598425197,0.1412497645833355,75.29987449999999
2,note_on,51,D#3,0.6299212598425197,0.1412497645833355,75.29987449999999
1,note_on,75,D#5,0.6299212598425197,0.1412497645833355,75.45
2,note_on,46,A#2,0.6299212598425197,0.1412497645833355,75.45
1,note_on,79,G5,0.6299212598425197,0.14124976458332128,75.60
2,note_on,39,D#2,0.6299212598425197,0.14124976458332128,75.60
1,note_on,75,D#5,0.6299212598425197,0.1412497645833355,75.74987374999999
2,note_on,46,A#2,0.6299212598425197,0.1412497645833355,75.74987374999999
1,note_on,74,D5,0.6299212598425197,0.14124976458332128,75.90
2,note_on,51,D#3,0.6299212598425197,0.14124976458332128,75.90
1,note_on,75,D#5,0.6299212598425197,0.1412497645833355,76.04987324999999
2,note_on,53,F3,0.6299212598425197,0.1412497645833355,76.04987324999999
1,note_on,70,A#4,0.6299212598425197,0.1412497645833355,76.20
2,note_on,46,A#2,0.6299212598425197,0.1412497645833355,76.20
2,note_on,51,D#3,0.6299212598425197,0.1412497645833355,76.20
1,note_on,75,D#5,0.6299212598425197,0.1412497645833355,76.34987274999999
2,note_on,55,G3,0.6299212598425197,0.1412497645833355,76.34987274999999
1,note_on,74,D5,0.6299212598425197,0.1412497645833355,76.50
2,note_on,51,D#3,0.6299212598425197,0.1412497645833355,76.50
1,note_on,75,D#5,0.6299212598425197,0.1412497645833355,76.64987224999999
2,note_on,46,A#2,0.6299212598425197,0.1412497645833355,76.64987224999999
1,note_on,75,D#5,0.6299212598425197,0.1412497645833355,76.80
2,note_on,44,G#2,0.6299212598425197,0.1412497645833355,76.80
1,note_on,72,C5,0.6299212598425197,0.1412497645833355,76.95
2,note_on,51,D#3,0.6299212598425197,0.1412497645833355,76.95
1,note_on,70,A#4,0.6299212598425197,0.1412497645833497,77.09987149999999
2,note_on,56,G#3,0.6299212598425197,0.1412497645833497,77.09987149999999
1,note_on,72,C5,0.6299212598425197,0.1412497645833355,77.25
2,note_on,58,A#3,0.6299212598425197,0.1412497645833355,77.25
1,note_on,68,G#4,0.6299212598425197,0.1412497645833497,77.39987099999999
2,note_on,51,D#3,0.6299212598425197,0.1412497645833497,77.39987099999999
2,note_on,56,G#3,0.6299212598425197,0.1412497645833497,77.39987099999999
1,note_on,72,C5,0.6299212598425197,0.1412497645833355,77.55
2,note_on,60,C4,0.6299212598425197,0.1412497645833355,77.55
1,note_on,70,A#4,0.6299212598425197,0.1412497645833497,77.69987049999999
2,note_on,56,G#3,0.6299212598425197,0.1412497645833497,77.69987049999999
1,note_on,72,C5,0.6299212598425197,0.1412497645833355,77.85
2,note_on,51,D#3,0.6299212598425197,0.1412497645833355,77.85
1,note_on,75,D#5,0.6299212598425197,0.1412497645833497,77.99986999999999
2,note_on,44,G#2,0.6299212598425197,0.1412497645833497,77.99986999999999
1,note_on,72,C5,0.6299212598425197,0.1412497645833355,78.15
2,note_on,51,D#3,0.6299212598425197,0.1412497645833355,78.15
1,note_on,70,A#4,0.6299212598425197,0.1412497645833355,78.30
2,note_on,56,G#3,0.6299212598425197,0.1412497645833355,78.30
1,note_on,72,C5,0.6299212598425197,0.1412497645833497,78.44986924999999
2,note_on,58,A#3,0.6299212598425197,0.1412497645833497,78.44986924999999
1,note_on,68,G#4,0.6299212598425197,0.1412497645833355,78.60
2,note_on,51,D#3,0.6299212598425197,0.1412497645833355,78.60
2,note_on,56,G#3,0.6299212598425197,0.1412497645833355,78.60
1,note_on,72,C5,0.6299212598425197,0.1412497645833497,78.74986874999999
2,note_on,60,C4,0.6299212598425197,0.1412497645833497,78.74986874999999
1,note_on,70,A#4,0.6299212598425197,0.1412497645833355,78.90
2,note_on,56,G#3,0.6299212598425197,0.1412497645833355,78.90
1,note_on,72,C5,0.6299212598425197,0.1412497645833497,79.04986824999999
2,note_on,51,D#3,0.6299212598425197,0.1412497645833497,79.04986824999999
1,note_on,77,F5,0.6299212598425197,0.1412497645833355,79.20
2,note_on,41,F2,0.6299212598425197,0.1412497645833355,79.20
1,note_on,72,C5,0.6299212598425197,0.1412497645833497,79.34986774999999
2,note_on,48,C3,0.6299212598425197,0.1412497645833497,79.34986774999999
1,note_on,70,A#4,0.6299212598425197,0.1412497645833355,79.50
2,note_on,53,F3,0.6299212598425197,0.1412497645833355,79.50
1,note_on,72,C5,0.6299212598425197,0.1412497645833355,79.65
2,note_on,55,G3,0.6299212598425197,0.1412497645833355,79.65
1,note_on,68,G#4,0.6299212598425197,0.1412497645833497,79.79986699999999
2,note_on,48,C3,0.6299212598425197,0.1412497645833497,79.79986699999999
2,note_on,53,F3,0.6299212598425197,0.1412497645833497,79.79986699999999
1,note_on,72,C5,0.6299212598425197,0.1412497645833355,79.95
2,note_on,56,G#3,0.6299212598425197,0.1412497645833355,79.95
1,note_on,70,A#4,0.6299212598425197,0.1412497645833497,80.09986649999999
2,note_on,53,F3,0.6299212598425197,0.1412497645833497,80.09986649999999
1,note_on,72,C5,0.6299212598425197,0.1412497645833355,80.25
2,note_on,48,C3,0.6299212598425197,0.1412497645833355,80.25
1,note_on,77,F5,0.6299212598425197,0.1412497645833497,80.39986599999999
2,note_on,41,F2,0.6299212598425197,0.1412497645833497,80.39986599999999
1,note_on,72,C5,0.6299212598425197,0.1412497645833355,80.55
2,note_on,48,C3,0.6299212598425197,0.1412497645833355,80.55
1,note_on,70,A#4,0.6299212598425197,0.1412497645833497,80.69986549999999
2,note_on,53,F3,0.6299212598425197,0.1412497645833497,80.69986549999999
1,note_on,72,C5,0.6299212598425197,0.1412497645833355,80.85
2,note_on,55,G3,0.6299212598425197,0.1412497645833355,80.85
1,note_on,68,G#4,0.6299212598425197,0.1412497645833355,81.00
2,note_on,48,C3,0.6299212598425197,0.1412497645833355,81.00
2,note_on,53,F3,0.6299212598425197,0.1412497645833355,81.00
1,note_on,72,C5,0.6299212598425197,0.1412497645833355,81.14986474999999
2,note_on,56,G#3,0.6299212598425197,0.1412497645833355,81.14986474999999
1,note_on,70,A#4,0.6299212598425197,0.1412497645833355,81.30
2,note_on,53,F3,0.6299212598425197,0.1412497645833355,81.30
1,note_on,72,C5,0.6299212598425197,0.1412497645833497,81.44986424999999
2,note_on,48,C3,0.6299212598425197,0.1412497645833497,81.44986424999999
1,note_on,77,F5,0.6299212598425197,0.1412497645833355,81.60
2,note_on,38,D2,0.6299212598425197,0.1412497645833355,81.60
1,note_on,74,D5,0.6299212598425197,0.1412497645833497,81.74986374999999
2,note_on,44,G#2,0.6299212598425197,0.1412497645833497,81.74986374999999
1,note_on,72,C5,0.6299212598425197,0.1412497645833355,81.90
2,note_on,50,D3,0.6299212598425197,0.1412497645833355,81.90
1,note_on,74,D5,0.6299212598425197,0.1412497645833497,82.04986324999999
2,note_on,51,D#3,0.6299212598425197,0.1412497645833497,82.04986324999999
1,note_on,68,G#4,0.6299212598425197,0.1412497645833355,82.20
2,note_on,44,G#2,0.6299212598425197,0.1412497645833355,82.20
2,note_on,50,D3,0.6299212598425197,0.1412497645833355,82.20
1,note_on,74,D5,0.6299212598425197,0.1412497645833355,82.35
2,note_on,53,F3,0.6299212598425197,0.1412497645833355,82.35
1,note_on,72,C5,0.6299212598425197,0.1412497645833355,82.49986249999999
2,note_on,50,D3,0.6299212598425197,0.1412497645833355,82.49986249999999
1,note_on,74,D5,0.6299212598425197,0.1412497645833355,82.65
2,note_on,44,G#2,0.6299212598425197,0.1412497645833355,82.65
1,note_on,77,F5,0.6299212598425197,0.1412497645833497,82.79986199999999
2,note_on,38,D2,0.6299212598425197,0.1412497645833497,82.79986199999999
1,note_on,74,D5,0.6299212598425197,0.1412497645833355,82.95
2,note_on,44,G#2,0.6299212598425197,0.1412497645833355,82.95
1,note_on,72,C5,0.6299212598425197,0.1412497645833497,83.09986149999999
2,note_on,50,D3,0.6299212598425197,0.1412497645833497,83.09986149999999
1,note_on,74,D5,0.6299212598425197,0.1412497645833355,83.25
2,note_on,51,D#3,0.6299212598425197,0.1412497645833355,83.25
1,note_on,68,G#4,0.6299212598425197,0.1412497645833497,83.39986099999999
2,note_on,44,G#2,0.6299212598425197,0.1412497645833497,83.39986099999999
2,note_on,50,D3,0.6299212598425197,0.1412497645833497,83.39986099999999
1,note_on,74,D5,0.6299212598425197,0.1412497645833355,83.55
2,note_on,53,F3,0.6299212598425197,0.1412497645833355,83.55
1,note_on,72,C5,0.6299212598425197,0.1412497645833355,83.70
2,note_on,50,D3,0.6299212598425197,0.1412497645833355,83.70
1,note_on,74,D5,0.6299212598425197,0.1412497645833355,83.84986024999999
2,note_on,44,G#2,0.6299212598425197,0.1412497645833355,83.84986024999999
1,note_on,77,F5,0.6299212598425197,0.1412497645833355,84.00
2,note_on,43,G2,0.6299212598425197,0.1412497645833355,84.00
1,note_on,74,D5,0.6299212598425197,0.1412497645833497,84.14985974999999
2,note_on,50,D3,0.6299212598425197,0.1412497645833497,84.14985974999999
1,note_on,72,C5,0.6299212598425197,0.1412497645833355,84.30
2,note_on,55,G3,0.6299212598425197,0.1412497645833355,84.30
1,note_on,74,D5,0.6299212598425197,0.1412497645833497,84.44985924999999
2,note_on,57,A3,0.6299212598425197,0.1412497645833497,84.44985924999999
1,note_on,71,B4,0.6299212598425197,0.1412497645833355,84.60
2,note_on,50,D3,0.6299212598425197,0.1412497645833355,84.60
2,note_on,55,G3,0.6299212598425197,0.1412497645833355,84.60
1,note_on,74,D5,0.6299212598425197,0.1412497645833497,84.74985874999999
2,note_on,59,B3,0.6299212598425197,0.1412497645833497,84.74985874999999
1,note_on,72,C5,0.6299212598425197,0.1412497645833355,84.90
2,note_on,55,G3,0.6299212598425197,0.1412497645833355,84.90
1,note_on,74,D5,0.6299212598425197,0.1412497645833355,85.05
2,note_on,50,D3,0.6299212598425197,0.1412497645833355,85.05
1,note_on,75,D#5,0.6299212598425197,0.1412497645833355,85.19985799999999
2,note_on,43,G2,0.6299212598425197,0.1412497645833355,85.19985799999999
1,note_on,74,D5,0.6299212598425197,0.1412497645833355,85.35
2,note_on,50,D3,0.6299212598425197,0.1412497645833355,85.35
1,note_on,72,C5,0.6299212598425197,0.1412497645833497,85.49985749999999
2,note_on,55,G3,0.6299212598425197,0.1412497645833497,85.49985749999999
1,note_on,74,D5,0.6299212598425197,0.1412497645833355,85.65
2,note_on,57,A3,0.6299212598425197,0.1412497645833355,85.65
1,note_on,77,F5,0.6299212598425197,0.1412497645833497,85.79985699999999
2,note_on,50,D3,0.6299212598425197,0.1412497645833497,85.79985699999999
2,note_on,55,G3,0.6299212598425197,0.1412497645833497,85.79985699999999
1,note_on,74,D5,0.6299212598425197,0.1412497645833355,85.95
2,note_on,59,B3,0.6299212598425197,0.1412497645833355,85.95
1,note_on,72,C5,0.6299212598425197,0.1412497645833497,86.09985649999999
2,note_on,55,G3,0.6299212598425197,0.1412497645833497,86.09985649999999
1,note_on,74,D5,0.6299212598425197,0.1412497645833355,86.25
2,note_on,50,D3,0.6299212598425197,0.1412497645833355,86.25
1,note_on,79,G5,0.6299212598425197,0.1412497645833355,86.40
2,note_on,48,C3,0.6299212598425197,0.1412497645833355,86.40
1,note_on,75,D#5,0.6299212598425197,0.1412497645833355,86.54985574999999
2,note_on,55,G3,0.6299212598425197,0.1412497645833355,86.54985574999999
1,note_on,74,D5,0.6299212598425197,0.1412497645833355,86.70
2,note_on,60,C4,0.6299212598425197,0.1412497645833355,86.70
1,note_on,75,D#5,0.6299212598425197,0.1412497645833497,86.84985524999999
2,note_on,62,D4,0.6299212598425197,0.1412497645833497,86.84985524999999
1,note_on,72,C5,0.6299212598425197,0.1412497645833355,87.00
2,note_on,55,G3,0.6299212598425197,0.1412497645833355,87.00
2,note_on,60,C4,0.6299212598425197,0.1412497645833355,87.00
1,note_on,75,D#5,0.6299212598425197,0.1412497645833497,87.14985474999999
2,note_on,63,D#4,0.6299212598425197,0.1412497645833497,87.14985474999999
1,note_on,74,D5,0.6299212598425197,0.1412497645833355,87.30
2,note_on,60,C4,0.6299212598425197,0.1412497645833355,87.30
1,note_on,75,D#5,0.6299212598425197,0.1412497645833497,87.44985424999999
2,note_on,55,G3,0.6299212598425197,0.1412497645833497,87.44985424999999
1,note_on,79,G5,0.6299212598425197,0.1412497645833355,87.60
2,note_on,48,C3,0.6299212598425197,0.1412497645833355,87.60
1,note_on,75,D#5,0.6299212598425197,0.1412497645833497,87.74985374999999
2,note_on,55,G3,0.6299212598425197,0.1412497645833497,87.74985374999999
1,note_on,74,D5,0.6299212598425197,0.1412497645833355,87.89985349999999
2,note_on,60,C4,0.6299212598425197,0.1412497645833355,87.89985349999999
1,note_on,75,D#5,0.6299212598425197,0.1412497645833355,88.05
2,note_on,62,D4,0.6299212598425197,0.1412497645833355,88.05
1,note_on,77,F5,0.6299212598425197,0.1412497645833497,88.19985299999999
2,note_on,55,G3,0.6299212598425197,0.1412497645833497,88.19985299999999
2,note_on,60,C4,0.6299212598425197,0.1412497645833497,88.19985299999999
1,note_on,75,D#5,0.6299212598425197,0.1412497645833355,88.35
2,note_on,63,D#4,0.6299212598425197,0.1412497645833355,88.35
1,note_on,74,D5,0.6299212598425197,0.1412497645833497,88.49985249999999
2,note_on,60,C4,0.6299212598425197,0.1412497645833497,88.49985249999999
1,note_on,75,D#5,0.6299212598425197,0.1412497645833355,88.65
2,note_on,55,G3,0.6299212598425197,0.1412497645833355,88.65
1,note_on,80,G#5,0.6299212598425197,0.1412497645833497,88.79985199999999
2,note_on,41,F2,0.6299212598425197,0.1412497645833497,88.79985199999999
1,note_on,75,D#5,0.6299212598425197,0.1412497645833355,88.95
2,note_on,48,C3,0.6299212598425197,0.1412497645833355,88.95
1,note_on,74,D5,0.6299212598425197,0.1412497645833497,89.09985149999999
2,note_on,53,F3,0.6299212598425197,0.1412497645833497,89.09985149999999
1,note_on,75,D#5,0.6299212598425197,0.1412497645833355,89.24985124999999
2,note_on,55,G3,0.6299212598425197,0.1412497645833355,89.24985124999999
1,note_on,72,C5,0.6299212598425197,0.1412497645833355,89.40
2,note_on,48,C3,0.6299212598425197,0.1412497645833355,89.40
2,note_on,53,F3,0.6299212598425197,0.1412497645833355,89.40
1,note_on,75,D#5,0.6299212598425197,0.1412497645833497,89.54985074999999
2,note_on,56,G#3,0.6299212598425197,0.1412497645833497,89.54985074999999
1,note_on,74,D5,0.6299212598425197,0.1412497645833355,89.70
2,note_on,53,F3,0.6299212598425197,0.1412497645833355,89.70
1,note_on,75,D#5,0.6299212598425197,0.1412497645833497,89.84985024999999
2,note_on,48,C3,0.6299212598425197,0.1412497645833497,89.84985024999999
1,note_on,80,G#5,0.6299212598425197,0.1412497645833355,90.00
2,note_on,41,F2,0.6299212598425197,0.1412497645833355,90.00
1,note_on,75,D#5,0.6299212598425197,0.1412497645833497,90.14984974999999
2,note_on,48,C3,0.6299212598425197,0.1412497645833497,90.14984974999999
1,note_on,74,D5,0.6299212598425197,0.1412497645833355,90.30
2,note_on,53,F3,0.6299212598425197,0.1412497645833355,90.30
1,note_on,75,D#5,0.6299212598425197,0.1412497645833497,90.44984924999999
2,note_on,55,G3,0.6299212598425197,0.1412497645833497,90.44984924999999
1,note_on,79,G5,0.6299212598425197,0.1412497645833355,90.59984899999999
2,note_on,48,C3,0.6299212598425197,0.1412497645833355,90.59984899999999
2,note_on,53,F3,0.6299212598425197,0.1412497645833355,90.59984899999999
1,note_on,75,D#5,0.6299212598425197,0.1412497645833355,90.75
2,note_on,56,G#3,0.6299212598425197,0.1412497645833355,90.75
1,note_on,74,D5,0.6299212598425197,0.1412497645833497,90.89984849999999
2,note_on,53,F3,0.6299212598425197,0.1412497645833497,90.89984849999999
1,note_on,75,D#5,0.6299212598425197,0.1412497645833355,91.05
2,note_on,48,C3,0.6299212598425197,0.1412497645833355,91.05
1,note_on,77,F5,0.6299212598425197,0.1412497645833497,91.19984799999999
2,note_on,46,A#2,0.6299212598425197,0.1412497645833497,91.19984799999999
1,note_on,74,D5,0.6299212598425197,0.1412497645833355,91.35
2,note_on,53,F3,0.6299212598425197,0.1412497645833355,91.35
1,note_on,72,C5,0.6299212598425197,0.1412497645833497,91.49984749999999
2,note_on,58,A#3,0.6299212598425197,0.1412497645833497,91.49984749999999
1,note_on,74,D5,0.6299212598425197,0.1412497645833355,91.65
2,note_on,60,C4,0.6299212598425197,0.1412497645833355,91.65
1,note_on,70,A#4,0.6299212598425197,0.1412497645833497,91.79984699999999
2,note_on,53,F3,0.6299212598425197,0.1412497645833497,91.79984699999999
2,note_on,58,A#3,0.6299212598425197,0.1412497645833497,91.79984699999999
1,note_on,74,D5,0.6299212598425197,0.1412497645833355,91.94984674999999
2,note_on,62,D4,0.6299212598425197,0.1412497645833355,91.94984674999999
1,note_on,72,C5,0.6299212598425197,0.1412497645833355,92.10
2,note_on,58,A#3,0.6299212598425197,0.1412497645833355,92.10
1,note_on,74,D5,0.6299212598425197,0.1412497645833497,92.24984624999999
2,note_on,53,F3,0.6299212598425197,0.1412497645833497,92.24984624999999
1,note_on,77,F5,0.6299212598425197,0.1412497645833355,92.40
2,note_on,46,A#2,0.6299212598425197,0.1412497645833355,92.40
1,note_on,74,D5,0.6299212598425197,0.1412497645833497,92.54984574999999
2,note_on,53,F3,0.6299212598425197,0.1412497645833497,92.54984574999999
1,note_on,72,C5,0.6299212598425197,0.1412497645833355,92.70
2,note_on,58,A#3,0.6299212598425197,0.1412497645833355,92.70
1,note_on,74,D5,0.6299212598425197,0.1412497645833497,92.84984524999999
2,note_on,60,C4,0.6299212598425197,0.1412497645833497,92.84984524999999
1,note_on,75,D#5,0.6299212598425197,0.1412497645833355,93.00
2,note_on,53,F3,0.6299212598425197,0.1412497645833355,93.00
2,note_on,58,A#3,0.6299212598425197,0.1412497645833355,93.00
1,note_on,74,D5,0.6299212598425197,0.1412497645833497,93.14984474999999
2,note_on,62,D4,0.6299212598425197,0.1412497645833497,93.14984474999999
1,note_on,72,C5,0.6299212598425197,0.1412497645833355,93.29984449999999
2,note_on,58,A#3,0.6299212598425197,0.1412497645833355,93.29984449999999
1,note_on,74,D5,0.6299212598425197,0.1412497645833355,93.45
2,note_on,53,F3,0.6299212598425197,0.1412497645833355,93.45
1,note_on,79,G5,0.6299212598425197,0.1412497645833497,93.59984399999999
2,note_on,39,D#2,0.6299212598425197,0.1412497645833497,93.59984399999999
1,note_on,75,D#5,0.6299212598425197,0.1412497645833355,93.75
2,note_on,46,A#2,0.6299212598425197,0.1412497645833355,93.75
1,note_on,74,D5,0.6299212598425197,0.1412497645833497,93.89984349999999
2,note_on,51,D#3,0.6299212598425197,0.1412497645833497,93.89984349999999
1,note_on,75,D#5,0.6299212598425197,0.1412497645833355,94.05
2,note_on,53,F3,0.6299212598425197,0.1412497645833355,94.05
1,note_on,70,A#4,0.6299212598425197,0.1412497645833497,94.19984299999999
2,note_on,46,A#2,0.6299212598425197,0.1412497645833497,94.19984299999999
2,note_on,51,D#3,0.6299212598425197,0.1412497645833497,94.19984299999999
1,note_on,75,D#5,0.6299212598425197,0.1412497645833355,94.35
2,note_on,55,G3,0.6299212598425197,0.1412497645833355,94.35
1,note_on,74,D5,0.6299212598425197,0.1412497645833497,94.49984249999999
2,note_on,51,D#3,0.6299212598425197,0.1412497645833497,94.49984249999999
1,note_on,75,D#5,0.6299212598425197,0.1412497645833355,94.64984224999999
2,note_on,46,A#2,0.6299212598425197,0.1412497645833355,94.64984224999999
1,note_on,79,G5,0.6299212598425197,0.1412497645833355,94.80
2,note_on,39,D#2,0.6299212598425197,0.1412497645833355,94.80
1,note_on,75,D#5,0.6299212598425197,0.1412497645833497,94.94984174999999
2,note_on,46,A#2,0.6299212598425197,0.1412497645833497,94.94984174999999
1,note_on,74,D5,0.6299212598425197,0.1412497645833355,95.10
2,note_on,51,D#3,0.6299212598425197,0.1412497645833355,95.10
1,note_on,75,D#5,0.6299212598425197,0.1412497645833497,95.24984124999999
2,note_on,53,F3,0.6299212598425197,0.1412497645833497,95.24984124999999
1,note_on,77,F5,0.6299212598425197,0.1412497645833355,95.40
2,note_on,46,A#2,0.6299212598425197,0.1412497645833355,95.40
2,note_on,51,D#3,0.6299212598425197,0.1412497645833355,95.40
1,note_on,75,D#5,0.6299212598425197,0.1412497645833497,95.54984074999999
2,note_on,55,G3,0.6299212598425197,0.1412497645833497,95.54984074999999
1,note_on,74,D5,0.6299212598425197,0.1412497645833355,95.70
2,note_on,51,D#3,0.6299212598425197,0.1412497645833355,95.70
1,note_on,75,D#5,0.6299212598425197,0.1412497645833497,95.84984024999999
2,note_on,46,A#2,0.6299212598425197,0.1412497645833497,95.84984024999999
1,note_on,75,D#5,0.6299212598425197,0.1412497645833355,95.99983999999999
2,note_on,44,G#2,0.6299212598425197,0.1412497645833355,95.99983999999999
1,note_on,72,C5,0.6299212598425197,0.1412497645833355,96.15
2,note_on,51,D#3,0.6299212598425197,0.1412497645833355,96.15
1,note_on,70,A#4,0.6299212598425197,0.1412497645833497,96.29983949999999
2,note_on,56,G#3,0.6299212598425197,0.1412497645833497,96.29983949999999
1,note_on,72,C5,0.6299212598425197,0.1412497645833355,96.45
2,note_on,58,A#3,0.6299212598425197,0.1412497645833355,96.45
1,note_on,68,G#4,0.6299212598425197,0.1412497645833497,96.59983899999999
2,note_on,51,D#3,0.6299212598425197,0.1412497645833497,96.59983899999999
2,note_on,56,G#3,0.6299212598425197,0.1412497645833497,96.59983899999999
1,note_on,72,C5,0.6299212598425197,0.1412497645833355,96.75
2,note_on,60,C4,0.6299212598425197,0.1412497645833355,96.75
1,note_on,70,A#4,0.6299212598425197,0.1412497645833497,96.89983849999999
2,note_on,56,G#3,0.6299212598425197,0.1412497645833497,96.89983849999999
1,note_on,72,C5,0.6299212598425197,0.1412497645833355,97.05
2,note_on,51,D#3,0.6299212598425197,0.1412497645833355,97.05
1,note_on,75,D#5,0.6299212598425197,0.1412497645833497,97.19983799999999
2,note_on,44,G#2,0.6299212598425197,0.1412497645833497,97.19983799999999
1,note_on,72,C5,0.6299212598425197,0.1412497645833355,97.34983774999999
2,note_on,51,D#3,0.6299212598425197,0.1412497645833355,97.34983774999999
1,note_on,70,A#4,0.6299212598425197,0.1412497645833355,97.50
2,note_on,56,G#3,0.6299212598425197,0.1412497645833355,97.50
1,note_on,72,C5,0.6299212598425197,0.1412497645833497,97.64983724999999
2,note_on,58,A#3,0.6299212598425197,0.1412497645833497,97.64983724999999
1,note_on,68,G#4,0.6299212598425197,0.1412497645833355,97.80
2,note_on,51,D#3,0.6299212598425197,0.1412497645833355,97.80
2,note_on,56,G#3,0.6299212598425197,0.1412497645833355,97.80
1,note_on,72,C5,0.6299212598425197,0.1412497645833497,97.94983674999999
2,note_on,60,C4,0.6299212598425197,0.1412497645833497,97.94983674999999
1,note_on,70,A#4,0.6299212598425197,0.1412497645833355,98.10
2,note_on,56,G#3,0.6299212598425197,0.1412497645833355,98.10
1,note_on,72,C5,0.6299212598425197,0.1412497645833497,98.24983624999999
2,note_on,51,D#3,0.6299212598425197,0.1412497645833497,98.24983624999999
1,note_on,77,F5,0.6299212598425197,0.1412497645833355,98.40
2,note_on,41,F2,0.6299212598425197,0.1412497645833355,98.40
1,note_on,72,C5,0.6299212598425197,0.1412497645833497,98.54983574999999
2,note_on,48,C3,0.6299212598425197,0.1412497645833497,98.54983574999999
1,note_on,70,A#4,0.6299212598425197,0.1412497645833355,98.69983549999999
2,note_on,53,F3,0.6299212598425197,0.1412497645833355,98.69983549999999
1,note_on,72,C5,0.6299212598425197,0.1412497645833355,98.85
2,note_on,55,G3,0.6299212598425197,0.1412497645833355,98.85
1,note_on,68,G#4,0.6299212598425197,0.1412497645833497,98.99983499999999
2,note_on,48,C3,0.6299212598425197,0.1412497645833497,98.99983499999999
2,note_on,53,F3,0.6299212598425197,0.1412497645833497,98.99983499999999
1,note_on,72,C5,0.6299212598425197,0.1412497645833355,99.15
2,note_on,56,G#3,0.6299212598425197,0.1412497645833355,99.15
1,note_on,70,A#4,0.6299212598425197,0.1412497645833497,99.29983449999999
2,note_on,53,F3,0.6299212598425197,0.1412497645833497,99.29983449999999
1,note_on,72,C5,0.6299212598425197,0.1412497645833355,99.45
2,note_on,48,C3,0.6299212598425197,0.1412497645833355,99.45
1,note_on,77,F5,0.6299212598425197,0.1412497645833497,99.59983399999999
2,note_on,41,F2,0.6299212598425197,0.1412497645833497,99.59983399999999
1,note_on,72,C5,0.6299212598425197,0.1412497645833355,99.75
2,note_on,48,C3,0.6299212598425197,0.1412497645833355,99.75
1,note_on,70,A#4,0.6299212598425197,0.1412497645833497,99.89983349999999
2,note_on,53,F3,0.6299212598425197,0.1412497645833497,99.89983349999999
1,note_on,72,C5,0.6299212598425197,0.1412497645833355,100.04983324999999
2,note_on,55,G3,0.6299212598425197,0.1412497645833355,100.04983324999999
1,note_on,75,D#5,0.6299212598425197,0.1412497645833355,100.20
2,note_on,48,C3,0.6299212598425197,0.1412497645833355,100.20
2,note_on,53,F3,0.6299212598425197,0.1412497645833355,100.20
1,note_on,72,C5,0.6299212598425197,0.1412497645833355,100.34983274999999
2,note_on,56,G#3,0.6299212598425197,0.1412497645833355,100.34983274999999
1,note_on,70,A#4,0.6299212598425197,0.1412497645833355,100.50
2,note_on,53,F3,0.6299212598425197,0.1412497645833355,100.50
1,note_on,72,C5,0.6299212598425197,0.1412497645833497,100.64983224999999
2,note_on,48,C3,0.6299212598425197,0.1412497645833497,100.64983224999999
1,note_on,74,D5,0.6299212598425197,0.1412497645833355,100.80
2,note_on,38,D2,0.6299212598425197,0.1412497645833355,100.80
1,note_on,72,C5,0.6299212598425197,0.1412497645833497,100.94983174999999
2,note_on,44,G#2,0.6299212598425197,0.1412497645833497,100.94983174999999
1,note_on,71,B4,0.6299212598425197,0.1412497645833355,101.10
2,note_on,50,D3,0.6299212598425197,0.1412497645833355,101.10
1,note_on,72,C5,0.6299212598425197,0.1412497645833497,101.24983124999999
2,note_on,51,D#3,0.6299212598425197,0.1412497645833497,101.24983124999999
1,note_on,68,G#4,0.6299212598425197,0.1412497645833355,101.39983099999999
2,note_on,44,G#2,0.6299212598425197,0.1412497645833355,101.39983099999999
2,note_on,50,D3,0.6299212598425197,0.1412497645833355,101.39983099999999
1,note_on,72,C5,0.6299212598425197,0.1412497645833355,101.55
2,note_on,53,F3,0.6299212598425197,0.1412497645833355,101.55
1,note_on,71,B4,0.6299212598425197,0.1412497645833355,101.69983049999999
2,note_on,50,D3,0.6299212598425197,0.1412497645833355,101.69983049999999
1,note_on,72,C5,0.6299212598425197,0.1412497645833355,101.85
2,note_on,44,G#2,0.6299212598425197,0.1412497645833355,101.85
1,note_on,74,D5,0.6299212598425197,0.1412497645833497,101.99982999999999
2,note_on,38,D2,0.6299212598425197,0.1412497645833497,101.99982999999999
1,note_on,72,C5,0.6299212598425197,0.1412497645833355,102.15
2,note_on,44,G#2,0.6299212598425197,0.1412497645833355,102.15
1,note_on,71,B4,0.6299212598425197,0.1412497645833497,102.29982949999999
2,note_on,50,D3,0.6299212598425197,0.1412497645833497,102.29982949999999
1,note_on,72,C5,0.6299212598425197,0.1412497645833355,102.45
2,note_on,51,D#3,0.6299212598425197,0.1412497645833355,102.45
1,note_on,75,D#5,0.6299212598425197,0.1412497645833497,102.59982899999999
2,note_on,44,G#2,0.6299212598425197,0.1412497645833497,102.59982899999999
2,note_on,50,D3,0.6299212598425197,0.1412497645833497,102.59982899999999
1,note_on,72,C5,0.6299212598425197,0.1412497645833355,102.74982874999999
2,note_on,53,F3,0.6299212598425197,0.1412497645833355,102.74982874999999
1,note_on,71,B4,0.6299212598425197,0.1412497645833355,102.90
2,note_on,50,D3,0.6299212598425197,0.1412497645833355,102.90
1,note_on,72,C5,0.6299212598425197,0.1412497645833355,103.04982824999999
2,note_on,44,G#2,0.6299212598425197,0.1412497645833355,103.04982824999999
1,note_on,74,D5,0.6299212598425197,0.1412497645833355,103.20
2,note_on,43,G2,0.6299212598425197,0.1412497645833355,103.20
1,note_on,67,G4,0.6299212598425197,0.1412497645833497,103.34982774999999
2,note_on,50,D3,0.6299212598425197,0.1412497645833497,103.34982774999999
1,note_on,65,F4,0.6299212598425197,0.1412497645833355,103.50
2,note_on,55,G3,0.6299212598425197,0.1412497645833355,103.50
1,note_on,67,G4,0.6299212598425197,0.1412497645833497,103.64982724999999
2,note_on,57,A3,0.6299212598425197,0.1412497645833497,103.64982724999999
1,note_on,62,D4,0.6299212598425197,0.1412497645833355,103.80
2,note_on,50,D3,0.6299212598425197,0.1412497645833355,103.80
2,note_on,55,G3,0.6299212598425197,0.1412497645833355,103.80
1,note_on,67,G4,0.6299212598425197,0.1412497645833497,103.94982674999999
2,note_on,59,B3,0.6299212598425197,0.1412497645833497,103.94982674999999
1,note_on,65,F4,0.6299212598425197,0.1412497645833355,104.09982649999999
2,note_on,55,G3,0.6299212598425197,0.1412497645833355,104.09982649999999
1,note_on,67,G4,0.6299212598425197,0.1412497645833355,104.25
2,note_on,50,D3,0.6299212598425197,0.1412497645833355,104.25
1,note_on,74,D5,0.6299212598425197,0.1412497645833355,104.39982599999999
2,note_on,43,G2,0.6299212598425197,0.1412497645833355,104.39982599999999
1,note_on,67,G4,0.6299212598425197,0.1412497645833355,104.55
2,note_on,50,D3,0.6299212598425197,0.1412497645833355,104.55
1,note_on,65,F4,0.6299212598425197,0.1412497645833497,104.69982549999999
2,note_on,55,G3,0.6299212598425197,0.1412497645833497,104.69982549999999
1,note_on,67,G4,0.6299212598425197,0.1412497645833355,104.85
2,note_on,57,A3,0.6299212598425197,0.1412497645833355,104.85
1,note_on,62,D4,0.6299212598425197,0.1412497645833497,104.99982499999999
2,note_on,50,D3,0.6299212598425197,0.1412497645833497,104.99982499999999
2,note_on,55,G3,0.6299212598425197,0.1412497645833497,104.99982499999999
1,note_on,67,G4,0.6299212598425197,0.1412497645833355,105.15
2,note_on,59,B3,0.6299212598425197,0.1412497645833355,105.15
1,note_on,65,F4,0.6299212598425197,0.1412497645833497,105.29982449999999
2,note_on,55,G3,0.6299212598425197,0.1412497645833497,105.29982449999999
1,note_on,67,G4,0.6299212598425197,0.1412497645833355,105.44982424999999
2,note_on,50,D3,0.6299212598425197,0.1412497645833355,105.44982424999999
1,note_on,72,C5,0.6299212598425197,0.1412497645833497,105.59982399999998
2,note_on,39,D#2,0.6299212598425197,0.1412497645833497,105.59982399999998
1,note_on,63,D#4,0.6299212598425197,0.1412497645833355,105.74982374999999
2,note_on,46,A#2,0.6299212598425197,0.1412497645833355,105.74982374999999
1,note_on,62,D4,0.6299212598425197,0.1412497645833355,105.90
2,note_on,51,D#3,0.6299212598425197,0.1412497645833355,105.90
1,note_on,63,D#4,0.6299212598425197,0.1412497645833497,106.04982324999999
2,note_on,53,F3,0.6299212598425197,0.1412497645833497,106.04982324999999
1,note_on,60,C4,0.6299212598425197,0.1412497645833355,106.20
2,note_on,46,A#2,0.6299212598425197,0.1412497645833355,106.20
2,note_on,51,D#3,0.6299212598425197,0.1412497645833355,106.20
1,note_on,63,D#4,0.6299212598425197,0.1412497645833497,106.34982274999999
2,note_on,55,G3,0.6299212598425197,0.1412497645833497,106.34982274999999
1,note_on,62,D4,0.6299212598425197,0.1412497645833355,106.50
2,note_on,51,D#3,0.6299212598425197,0.1412497645833355,106.50
1,note_on,63,D#4,0.6299212598425197,0.1412497645833497,106.64982224999999
2,note_on,46,A#2,0.6299212598425197,0.1412497645833497,106.64982224999999
1,note_on,70,A#4,0.6299212598425197,0.1412497645833355,106.79982199999999
2,note_on,38,D2,0.6299212598425197,0.1412497645833355,106.79982199999999
1,note_on,62,D4,0.6299212598425197,0.1412497645833497,106.94982174999998
2,note_on,45,A2,0.6299212598425197,0.1412497645833497,106.94982174999998
1,note_on,60,C4,0.6299212598425197,0.1412497645833355,107.09982149999999
2,note_on,50,D3,0.6299212598425197,0.1412497645833355,107.09982149999999
1,note_on,62,D4,0.6299212598425197,0.1412497645833355,107.25
2,note_on,52,E3,0.6299212598425197,0.1412497645833355,107.25
1,note_on,57,A3,0.6299212598425197,0.1412497645833497,107.39982099999999
2,note_on,45,A2,0.6299212598425197,0.5687490520833336,107.39982099999999
2,note_on,50,D3,0.6299212598425197,0.5687490520833336,107.39982099999999
2,note_on,54,F#3,0.6299212598425197,0.5687490520833336,107.39982099999999
1,note_on,62,D4,0.6299212598425197,0.1412497645833355,107.55
1,note_on,60,C4,0.6299212598425197,0.1412497645833497,107.69982049999999
1,note_on,62,D4,0.6299212598425197,0.1412497645833355,107.85
1,note_on,70,A#4,0.6299212598425197,0.1412497645833497,107.99981999999999
2,note_on,43,G2,0.6299212598425197,0.1412497645833497,107.99981999999999
1,note_on,62,D4,0.6299212598425197,0.1412497645833355,108.14981974999999
2,note_on,50,D3,0.6299212598425197,0.1412497645833355,108.14981974999999
1,note_on,60,C4,0.6299212598425197,0.1412497645833497,108.29981949999998
2,note_on,55,G3,0.6299212598425197,0.1412497645833497,108.29981949999998
1,note_on,62,D4,0.6299212598425197,0.1412497645833355,108.44981924999999
2,note_on,57,A3,0.6299212598425197,0.1412497645833355,108.44981924999999
1,note_on,58,A#3,0.6299212598425197,0.1412497645833355,108.60
2,note_on,50,D3,0.6299212598425197,0.1412497645833355,108.60
2,note_on,55,G3,0.6299212598425197,0.1412497645833355,108.60
1,note_on,62,D4,0.6299212598425197,0.1412497645833497,108.74981874999999
2,note_on,58,A#3,0.6299212598425197,0.1412497645833497,108.74981874999999
1,note_on,60,C4,0.6299212598425197,0.1412497645833355,108.90
2,note_on,55,G3,0.6299212598425197,0.1412497645833355,108.90
1,note_on,62,D4,0.6299212598425197,0.1412497645833497,109.04981824999999
2,note_on,50,D3,0.6299212598425197,0.1412497645833497,109.04981824999999
1,note_on,70,A#4,0.6299212598425197,0.1412497645833355,109.20
2,note_on,43,G2,0.6299212598425197,0.1412497645833355,109.20
1,note_on,62,D4,0.6299212598425197,0.1412497645833497,109.34981774999999
2,note_on,50,D3,0.6299212598425197,0.1412497645833497,109.34981774999999
1,note_on,60,C4,0.6299212598425197,0.1412497645833355,109.49981749999999
2,note_on,55,G3,0.6299212598425197,0.1412497645833355,109.49981749999999
1,note_on,62,D4,0.6299212598425197,0.1412497645833497,109.64981724999998
2,note_on,57,A3,0.6299212598425197,0.1412497645833497,109.64981724999998
1,note_on,58,A#3,0.6299212598425197,0.1412497645833355,109.79981699999999
2,note_on,50,D3,0.6299212598425197,0.1412497645833355,109.79981699999999
2,note_on,55,G3,0.6299212598425197,0.1412497645833355,109.79981699999999
1,note_on,62,D4,0.6299212598425197,0.1412497645833355,109.95
2,note_on,58,A#3,0.6299212598425197,0.1412497645833355,109.95
1,note_on,60,C4,0.6299212598425197,0.1412497645833497,110.09981649999999
2,note_on,55,G3,0.6299212598425197,0.1412497645833497,110.09981649999999
1,note_on,62,D4,0.6299212598425197,0.1412497645833355,110.25
2,note_on,50,D3,0.6299212598425197,0.1412497645833355,110.25
1,note_on,70,A#4,0.6299212598425197,0.1412497645833497,110.39981599999999
2,note_on,36,C2,0.6299212598425197,0.1412497645833497,110.39981599999999
1,note_on,63,D#4,0.6299212598425197,0.1412497645833355,110.55
2,note_on,43,G2,0.6299212598425197,0.1412497645833355,110.55
1,note_on,62,D4,0.6299212598425197,0.1412497645833497,110.69981549999999
2,note_on,48,C3,0.6299212598425197,0.1412497645833497,110.69981549999999
1,note_on,63,D#4,0.6299212598425197,0.1412497645833355,110.84981524999999
2,note_on,50,D3,0.6299212598425197,0.1412497645833355,110.84981524999999
1,note_on,58,A#3,0.6299212598425197,0.1412497645833497,110.99981499999998
2,note_on,43,G2,0.6299212598425197,0.1412497645833497,110.99981499999998
2,note_on,48,C3,0.6299212598425197,0.1412497645833497,110.99981499999998
1,note_on,63,D#4,0.6299212598425197,0.1412497645833355,111.14981474999999
2,note_on,51,D#3,0.6299212598425197,0.1412497645833355,111.14981474999999
1,note_on,62,D4,0.6299212598425197,0.1412497645833355,111.30
2,note_on,48,C3,0.6299212598425197,0.1412497645833355,111.30
1,note_on,63,D#4,0.6299212598425197,0.1412497645833497,111.44981424999999
2,note_on,43,G2,0.6299212598425197,0.1412497645833497,111.44981424999999
1,note_on,70,A#4,0.6299212598425197,0.1412497645833355,111.60
2,note_on,36,C2,0.6299212598425197,0.1412497645833355,111.60
1,note_on,63,D#4,0.6299212598425197,0.1412497645833497,111.74981374999999
2,note_on,43,G2,0.6299212598425197,0.1412497645833497,111.74981374999999
1,note_on,62,D4,0.6299212598425197,0.1412497645833355,111.90
2,note_on,48,C3,0.6299212598425197,0.1412497645833355,111.90
1,note_on,63,D#4,0.6299212598425197,0.1412497645833497,112.04981324999999
2,note_on,50,D3,0.6299212598425197,0.1412497645833497,112.04981324999999
1,note_on,58,A#3,0.6299212598425197,0.1412497645833355,112.19981299999999
2,note_on,43,G2,0.6299212598425197,0.1412497645833355,112.19981299999999
2,note_on,48,C3,0.6299212598425197,0.1412497645833355,112.19981299999999
1,note_on,63,D#4,0.6299212598425197,0.1412497645833497,112.34981274999998
2,note_on,51,D#3,0.6299212598425197,0.1412497645833497,112.34981274999998
1,note_on,62,D4,0.6299212598425197,0.1412497645833355,112.49981249999999
2,note_on,48,C3,0.6299212598425197,0.1412497645833355,112.49981249999999
1,note_on,63,D#4,0.6299212598425197,0.1412497645833355,112.65
2,note_on,43,G2,0.6299212598425197,0.1412497645833355,112.65
1,note_on,69,A4,0.6299212598425197,0.1412497645833497,112.79981199999999
2,note_on,41,F2,0.6299212598425197,0.1412497645833497,112.79981199999999
1,note_on,60,C4,0.6299212598425197,0.1412497645833355,112.95
2,note_on,48,C3,0.6299212598425197,0.1412497645833355,112.95
1,note_on,58,A#3,0.6299212598425197,0.1412497645833497,113.09981149999999
2,note_on,53,F3,0.6299212598425197,0.1412497645833497,113.09981149999999
1,note_on,60,C4,0.6299212598425197,0.1412497645833355,113.25
2,note_on,55,G3,0.6299212598425197,0.1412497645833355,113.25
1,note_on,57,A3,0.6299212598425197,0.1412497645833497,113.39981099999999
2,note_on,48,C3,0.6299212598425197,0.1412497645833497,113.39981099999999
2,note_on,53,F3,0.6299212598425197,0.1412497645833497,113.39981099999999
1,note_on,60,C4,0.6299212598425197,0.1412497645833355,113.54981074999999
2,note_on,57,A3,0.6299212598425197,0.1412497645833355,113.54981074999999
1,note_on,58,A#3,0.6299212598425197,0.1412497645833497,113.69981049999998
2,note_on,53,F3,0.6299212598425197,0.1412497645833497,113.69981049999998
1,note_on,60,C4,0.6299212598425197,0.1412497645833355,113.84981024999999
2,note_on,48,C3,0.6299212598425197,0.1412497645833355,113.84981024999999
1,note_on,69,A4,0.6299212598425197,0.1412497645833355,114.00
2,note_on,41,F2,0.6299212598425197,0.1412497645833355,114.00
1,note_on,60,C4,0.6299212598425197,0.1412497645833497,114.14980974999999
2,note_on,48,C3,0.6299212598425197,0.1412497645833497,114.14980974999999
1,note_on,58,A#3,0.6299212598425197,0.1412497645833355,114.30
2,note_on,53,F3,0.6299212598425197,0.1412497645833355,114.30
1,note_on,60,C4,0.6299212598425197,0.1412497645833497,114.44980924999999
2,note_on,55,G3,0.6299212598425197,0.1412497645833497,114.44980924999999
1,note_on,57,A3,0.6299212598425197,0.1412497645833355,114.60
2,note_on,48,C3,0.6299212598425197,0.1412497645833355,114.60
2,note_on,53,F3,0.6299212598425197,0.1412497645833355,114.60
1,note_on,60,C4,0.6299212598425197,0.1412497645833497,114.74980874999999
2,note_on,57,A3,0.6299212598425197,0.1412497645833497,114.74980874999999
1,note_on,58,A#3,0.6299212598425197,0.1412497645833355,114.89980849999999
2,note_on,53,F3,0.6299212598425197,0.1412497645833355,114.89980849999999
1,note_on,60,C4,0.6299212598425197,0.1412497645833497,115.04980824999998
2,note_on,48,C3,0.6299212598425197,0.1412497645833497,115.04980824999998
1,note_on,69,A4,0.6299212598425197,0.1412497645833355,115.19980799999999
2,note_on,46,A#2,0.6299212598425197,0.1412497645833355,115.19980799999999
1,note_on,62,D4,0.6299212598425197,0.1412497645833355,115.35
2,note_on,53,F3,0.6299212598425197,0.1412497645833355,115.35
1,note_on,60,C4,0.6299212598425197,0.1412497645833497,115.49980749999999
2,note_on,58,A#3,0.6299212598425197,0.1412497645833497,115.49980749999999
1,note_on,62,D4,0.6299212598425197,0.1412497645833355,115.65
2,note_on,60,C4,0.6299212598425197,0.1412497645833355,115.65
1,note_on,58,A#3,0.6299212598425197,0,115.79980699999999
2,note_on,53,F3,0.6299212598425197,0.1412497645833497,115.79980699999999
2,note_on,58,A#3,0.6299212598425197,0.1412497645833497,115.79980699999999
1,note_on,62,D4,0.6299212598425197,0,115.95
2,note_on,62,D4,0.6299212598425197,0.1412497645833355,115.95
1,note_on,60,C4,0.6299212598425197,0.1412497645833497,116.09980649999999
2,note_on,58,A#3,0.6299212598425197,0.1412497645833497,116.09980649999999
1,note_on,62,D4,0.6299212598425197,0.1412497645833355,116.24980624999999
2,note_on,53,F3,0.6299212598425197,0.1412497645833355,116.24980624999999
1,note_on,69,A4,0.6299212598425197,0.1412497645833497,116.39980599999998
2,note_on,46,A#2,0.6299212598425197,0.1412497645833497,116.39980599999998
1,note_on,62,D4,0.6299212598425197,0.1412497645833355,116.54980574999999
2,note_on,53,F3,0.6299212598425197,0.1412497645833355,116.54980574999999
1,note_on,60,C4,0.6299212598425197,0.1412497645833355,116.70
2,note_on,58,A#3,0.6299212598425197,0.1412497645833355,116.70
1,note_on,62,D4,0.6299212598425197,0.1412497645833497,116.84980524999999
2,note_on,60,C4,0.6299212598425197,0.1412497645833497,116.84980524999999
1,note_on,58,A#3,0.6299212598425197,0,117.00
2,note_on,53,F3,0.6299212598425197,0.1412497645833355,117.00
2,note_on,58,A#3,0.6299212598425197,0.1412497645833355,117.00
1,note_on,62,D4,0.6299212598425197,0,117.14980474999999
2,note_on,62,D4,0.6299212598425197,0.1412497645833497,117.14980474999999
1,note_on,60,C4,0.6299212598425197,0.1412497645833355,117.30
2,note_on,58,A#3,0.6299212598425197,0.1412497645833355,117.30
1,note_on,62,D4,0.6299212598425197,0.1412497645833497,117.44980424999999
2,note_on,53,F3,0.6299212598425197,0.1412497645833497,117.44980424999999
1,note_on,67,G4,0.6299212598425197,0.1412497645833355,117.59980399999999
2,note_on,39,D#2,0.6299212598425197,0.1412497645833355,117.59980399999999
1,note_on,63,D#4,0.6299212598425197,0.1412497645833497,117.74980374999998
2,note_on,46,A#2,0.6299212598425197,0.1412497645833497,117.74980374999998
1,note_on,62,D4,0.6299212598425197,0.1412497645833355,117.89980349999999
2,note_on,51,D#3,0.6299212598425197,0.1412497645833355,117.89980349999999
1,note_on,63,D#4,0.6299212598425197,0.1412497645833355,118.05
2,note_on,53,F3,0.6299212598425197,0.1412497645833355,118.05
1,note_on,58,A#3,0.6299212598425197,0.1412497645833497,118.19980299999999
2,note_on,46,A#2,0.6299212598425197,0.1412497645833497,118.19980299999999
2,note_on,51,D#3,0.6299212598425197,0.1412497645833497,118.19980299999999
1,note_on,63,D#4,0.6299212598425197,0.1412497645833355,118.35
2,note_on,55,G3,0.6299212598425197,0.1412497645833355,118.35
1,note_on,62,D4,0.6299212598425197,0.1412497645833497,118.49980249999999
2,note_on,51,D#3,0.6299212598425197,0.1412497645833497,118.49980249999999
1,note_on,63,D#4,0.6299212598425197,0.1412497645833355,118.65
2,note_on,46,A#2,0.6299212598425197,0.1412497645833355,118.65
1,note_on,67,G4,0.6299212598425197,0.1412497645833497,118.79980199999999
2,note_on,39,D#2,0.6299212598425197,0.1412497645833497,118.79980199999999
1,note_on,63,D#4,0.6299212598425197,0.1412497645833355,118.94980174999999
2,note_on,46,A#2,0.6299212598425197,0.1412497645833355,118.94980174999999
1,note_on,62,D4,0.6299212598425197,0.1412497645833497,119.09980149999998
2,note_on,51,D#3,0.6299212598425197,0.1412497645833497,119.09980149999998
1,note_on,63,D#4,0.6299212598425197,0.1412497645833355,119.24980124999999
2,note_on,53,F3,0.6299212598425197,0.1412497645833355,119.24980124999999
1,note_on,58,A#3,0.6299212598425197,0.1412497645833355,119.40
2,note_on,46,A#2,0.6299212598425197,0.1412497645833355,119.40
2,note_on,51,D#3,0.6299212598425197,0.1412497645833355,119.40
1,note_on,63,D#4,0.6299212598425197,0.1412497645833355,119.54980074999999
2,note_on,55,G3,0.6299212598425197,0.1412497645833355,119.54980074999999
1,note_on,62,D4,0.6299212598425197,0.1412497645833355,119.70
2,note_on,51,D#3,0.6299212598425197,0.1412497645833355,119.70
1,note_on,63,D#4,0.6299212598425197,0.1412497645833497,119.84980024999999
2,note_on,46,A#2,0.6299212598425197,0.1412497645833497,119.84980024999999
1,note_on,69,A4,0.6299212598425197,0.1412497645833355,120.00
2,note_on,45,A2,0.6299212598425197,0.1412497645833355,120.00
1,note_on,63,D#4,0.6299212598425197,0.1412497645833497,120.14979974999999
2,note_on,51,D#3,0.6299212598425197,0.1412497645833497,120.14979974999999
1,note_on,62,D4,0.6299212598425197,0.1412497645833355,120.29979949999999
2,note_on,57,A3,0.6299212598425197,0.1412497645833355,120.29979949999999
1,note_on,63,D#4,0.6299212598425197,0.1412497645833497,120.44979924999998
2,note_on,58,A#3,0.6299212598425197,0.1412497645833497,120.44979924999998
1,note_on,60,C4,0.6299212598425197,0.1412497645833355,120.59979899999999
2,note_on,51,D#3,0.6299212598425197,0.1412497645833355,120.59979899999999
2,note_on,57,A3,0.6299212598425197,0.1412497645833355,120.59979899999999
1,note_on,63,D#4,0.6299212598425197,0.1412497645833355,120.75
2,note_on,60,C4,0.6299212598425197,0.1412497645833355,120.75
1,note_on,62,D4,0.6299212598425197,0.1412497645833355,120.89979849999999
2,note_on,57,A3,0.6299212598425197,0.1412497645833355,120.89979849999999
1,note_on,63,D#4,0.6299212598425197,0.1412497645833355,121.05
2,note_on,51,D#3,0.6299212598425197,0.1412497645833355,121.05
1,note_on,69,A4,0.6299212598425197,0.1412497645833497,121.19979799999999
2,note_on,45,A2,0.6299212598425197,0.1412497645833497,121.19979799999999
1,note_on,63,D#4,0.6299212598425197,0.1412497645833355,121.35
2,note_on,51,D#3,0.6299212598425197,0.1412497645833355,121.35
1,note_on,62,D4,0.6299212598425197,0.1412497645833497,121.49979749999999
2,note_on,57,A3,0.6299212598425197,0.1412497645833497,121.49979749999999
1,note_on,63,D#4,0.6299212598425197,0.1412497645833355,121.64979724999999
2,note_on,58,A#3,0.6299212598425197,0.1412497645833355,121.64979724999999
1,note_on,60,C4,0.6299212598425197,0.1412497645833497,121.79979699999998
2,note_on,51,D#3,0.6299212598425197,0.1412497645833497,121.79979699999998
2,note_on,57,A3,0.6299212598425197,0.1412497645833497,121.79979699999998
1,note_on,63,D#4,0.6299212598425197,0.1412497645833355,121.94979674999999
2,note_on,60,C4,0.6299212598425197,0.1412497645833355,121.94979674999999
1,note_on,62,D4,0.6299212598425197,0.1412497645833355,122.10
2,note_on,57,A3,0.6299212598425197,0.1412497645833355,122.10
1,note_on,63,D#4,0.6299212598425197,0.1412497645833355,122.24979624999999
2,note_on,51,D#3,0.6299212598425197,0.1412497645833355,122.24979624999999
1,note_on,69,A4,0.6299212598425197,0.1412497645833355,122.40
2,note_on,38,D2,0.6299212598425197,0.1412497645833355,122.40
1,note_on,67,G4,0.6299212598425197,0.1412497645833497,122.54979574999999
2,note_on,45,A2,0.6299212598425197,0.1412497645833497,122.54979574999999
1,note_on,66,F#4,0.6299212598425197,0.1412497645833355,122.70
2,note_on,50,D3,0.6299212598425197,0.1412497645833355,122.70
1,note_on,67,G4,0.6299212598425197,0.1412497645833497,122.84979524999999
2,note_on,51,D#3,0.6299212598425197,0.1412497645833497,122.84979524999999
1,note_on,62,D4,0.6299212598425197,0.1412497645833355,122.99979499999999
2,note_on,45,A2,0.6299212598425197,0.1412497645833355,122.99979499999999
2,note_on,50,D3,0.6299212598425197,0.1412497645833355,122.99979499999999
1,note_on,67,G4,0.6299212598425197,0.1412497645833497,123.14979474999998
2,note_on,54,F#3,0.6299212598425197,0.1412497645833497,123.14979474999998
1,note_on,66,F#4,0.6299212598425197,0.1412497645833355,123.29979449999999
2,note_on,50,D3,0.6299212598425197,0.1412497645833355,123.29979449999999
1,note_on,67,G4,0.6299212598425197,0.1412497645833355,123.45
2,note_on,45,A2,0.6299212598425197,0.1412497645833355,123.45
1,note_on,69,A4,0.6299212598425197,0.1412497645833355,123.59979399999999
2,note_on,38,D2,0.6299212598425197,0.1412497645833355,123.59979399999999
1,note_on,67,G4,0.6299212598425197,0.1412497645833355,123.75
2,note_on,45,A2,0.6299212598425197,0.1412497645833355,123.75
1,note_on,66,F#4,0.6299212598425197,0.1412497645833497,123.89979349999999
2,note_on,50,D3,0.6299212598425197,0.1412497645833497,123.89979349999999
1,note_on,67,G4,0.6299212598425197,0.1412497645833355,124.05
2,note_on,51,D#3,0.6299212598425197,0.1412497645833355,124.05
1,note_on,62,D4,0.6299212598425197,0.1412497645833497,124.19979299999999
2,note_on,45,A2,0.6299212598425197,0.1412497645833497,124.19979299999999
2,note_on,50,D3,0.6299212598425197,0.1412497645833497,124.19979299999999
1,note_on,67,G4,0.6299212598425197,0.1412497645833355,124.34979274999999
2,note_on,54,F#3,0.6299212598425197,0.1412497645833355,124.34979274999999
1,note_on,66,F#4,0.6299212598425197,0.1412497645833497,124.49979249999998
2,note_on,50,D3,0.6299212598425197,0.1412497645833497,124.49979249999998
1,note_on,67,G4,0.6299212598425197,0.1412497645833355,124.64979224999999
2,note_on,45,A2,0.6299212598425197,0.1412497645833355,124.64979224999999
1,note_on,70,A#4,0.6299212598425197,0.1412497645833355,124.80
2,note_on,43,G2,0.6299212598425197,0.1412497645833355,124.80
1,note_on,67,G4,0.6299212598425197,0.1412497645833355,124.94979174999999
2,note_on,50,D3,0.6299212598425197,0.1412497645833355,124.94979174999999
1,note_on,66,F#4,0.6299212598425197,0.1412497645833355,125.10
2,note_on,55,G3,0.6299212598425197,0.1412497645833355,125.10
1,note_on,67,G4,0.6299212598425197,0.1412497645833497,125.24979124999999
2,note_on,57,A3,0.6299212598425197,0.1412497645833497,125.24979124999999
1,note_on,62,D4,0.6299212598425197,0.1412497645833355,125.40
2,note_on,50,D3,0.6299212598425197,0.1412497645833355,125.40
2,note_on,55,G3,0.6299212598425197,0.1412497645833355,125.40
1,note_on,67,G4,0.6299212598425197,0.1412497645833497,125.54979074999999
2,note_on,58,A#3,0.6299212598425197,0.1412497645833497,125.54979074999999
1,note_on,66,F#4,0.6299212598425197,0.1412497645833355,125.69979049999999
2,note_on,55,G3,0.6299212598425197,0.1412497645833355,125.69979049999999
1,note_on,67,G4,0.6299212598425197,0.1412497645833497,125.84979024999998
2,note_on,50,D3,0.6299212598425197,0.1412497645833497,125.84979024999998
1,note_on,70,A#4,0.6299212598425197,0.1412497645833355,125.99978999999999
2,note_on,43,G2,0.6299212598425197,0.1412497645833355,125.99978999999999
1,note_on,67,G4,0.6299212598425197,0.1412497645833497,126.14978974999998
2,note_on,50,D3,0.6299212598425197,0.1412497645833497,126.14978974999998
1,note_on,66,F#4,0.6299212598425197,0.1412497645833355,126.29978949999999
2,note_on,55,G3,0.6299212598425197,0.1412497645833355,126.29978949999999
1,note_on,67,G4,0.6299212598425197,0.1412497645833355,126.45
2,note_on,57,A3,0.6299212598425197,0.1412497645833355,126.45
1,note_on,69,A4,0.6299212598425197,0.1412497645833497,126.59978899999999
2,note_on,50,D3,0.6299212598425197,0.1412497645833497,126.59978899999999
2,note_on,55,G3,0.6299212598425197,0.1412497645833497,126.59978899999999
1,note_on,67,G4,0.6299212598425197,0.1412497645833355,126.75
2,note_on,58,A#3,0.6299212598425197,0.1412497645833355,126.75
1,note_on,66,F#4,0.6299212598425197,0.1412497645833497,126.89978849999999
2,note_on,55,G3,0.6299212598425197,0.1412497645833497,126.89978849999999
1,note_on,67,G4,0.6299212598425197,0.1412497645833355,127.04978824999999
2,note_on,50,D3,0.6299212598425197,0.1412497645833355,127.04978824999999
1,note_on,70,A#4,0.6299212598425197,0.1412497645833497,127.19978799999998
2,note_on,43,G2,0.6299212598425197,0.1412497645833497,127.19978799999998
1,note_on,62,D4,0.6299212598425197,0.1412497645833355,127.34978774999999
2,note_on,50,D3,0.6299212598425197,0.1412497645833355,127.34978774999999
1,note_on,60,C4,0.6299212598425197,0.1412497645833497,127.49978749999998
2,note_on,57,A3,0.6299212598425197,0.1412497645833497,127.49978749999998
1,note_on,62,D4,0.6299212598425197,0.1412497645833355,127.64978724999999
2,note_on,58,A#3,0.6299212598425197,0.14999975000000632,127.64978724999999
1,note_on,58,A#3,0.6299212598425197,0.1412497645833355,127.80
1,note_on,62,D4,0.6299212598425197,0.1412497645833355,127.94978674999999
2,note_on,57,A3,0.6299212598425197,0.1412497645833355,127.94978674999999
1,note_on,60,C4,0.6299212598425197,0.1412497645833355,128.10
2,note_on,55,G3,0.6299212598425197,0.1412497645833355,128.10
1,note_on,69,A4,0.6299212598425197,0.1412497645833355,128.25
2,note_on,50,D3,0.6299212598425197,0.1412497645833355,128.25
1,note_on,70,A#4,0.6299212598425197,0.1412497645833639,128.39978599999998
2,note_on,43,G2,0.6299212598425197,0.1412497645833639,128.39978599999998
1,note_on,62,D4,0.6299212598425197,0.1412497645833355,128.54978574999998
2,note_on,50,D3,0.6299212598425197,0.1412497645833355,128.54978574999998
1,note_on,60,C4,0.6299212598425197,0.1412497645833355,128.70
2,note_on,57,A3,0.6299212598425197,0.1412497645833355,128.70
1,note_on,69,A4,0.6299212598425197,0.1412497645833355,128.85
2,note_on,58,A#3,0.6299212598425197,0.2837495270833301,128.85
1,note_on,70,A#4,0.6299212598425197,0.1412497645833355,129.00
1,note_on,62,D4,0.6299212598425197,0.1412497645833355,129.14978474999998
2,note_on,57,A3,0.6299212598425197,0.1412497645833355,129.14978474999998
1,note_on,60,C4,0.6299212598425197,0.1412497645833355,129.30
2,note_on,55,G3,0.6299212598425197,0.1412497645833355,129.30
1,note_on,70,A#4,0.6299212598425197,0.1412497645833355,129.45
2,note_on,50,D3,0.6299212598425197,0.1412497645833355,129.45
1,note_on,72,C5,0.6299212598425197,0.1412497645833355,129.60
2,note_on,36,C2,0.6299212598425197,0.1412497645833355,129.60
1,note_on,63,D#4,0.6299212598425197,0.1412497645833639,129.74978374999998
2,note_on,43,G2,0.6299212598425197,0.1412497645833639,129.74978374999998
1,note_on,62,D4,0.6299212598425197,0.1412497645833355,129.89978349999998
2,note_on,50,D3,0.6299212598425197,0.1412497645833355,129.89978349999998
1,note_on,63,D#4,0.6299212598425197,0.1412497645833355,130.05
2,note_on,51,D#3,0.6299212598425197,0.2837495270833301,130.05
1,note_on,60,C4,0.6299212598425197,0.1412497645833355,130.20
1,note_on,63,D#4,0.6299212598425197,0.1412497645833355,130.35
2,note_on,50,D3,0.6299212598425197,0.1412497645833355,130.35
1,note_on,62,D4,0.6299212598425197,0.1412497645833355,130.49978249999998
2,note_on,48,C3,0.6299212598425197,0.1412497645833355,130.49978249999998
1,note_on,69,A4,0.6299212598425197,0.1412497645833355,130.65
2,note_on,43,G2,0.6299212598425197,0.1412497645833355,130.65
1,note_on,72,C5,0.6299212598425197,0.1412497645833355,130.80
2,note_on,36,C2,0.6299212598425197,0.1412497645833355,130.80
1,note_on,63,D#4,0.6299212598425197,0.1412497645833355,130.95
2,note_on,43,G2,0.6299212598425197,0.1412497645833355,130.95
1,note_on,62,D4,0.6299212598425197,0.1412497645833639,131.09978149999998
2,note_on,50,D3,0.6299212598425197,0.1412497645833639,131.09978149999998
1,note_on,67,G4,0.6299212598425197,0.1412497645833355,131.24978124999998
2,note_on,51,D#3,0.6299212598425197,0.2837495270833301,131.24978124999998
1,note_on,72,C5,0.6299212598425197,0.1412497645833355,131.40
1,note_on,63,D#4,0.6299212598425197,0.1412497645833355,131.55
2,note_on,50,D3,0.6299212598425197,0.1412497645833355,131.55
1,note_on,62,D4,0.6299212598425197,0.1412497645833355,131.70
2,note_on,48,C3,0.6299212598425197,0.1412497645833355,131.70
1,note_on,65,F4,0.6299212598425197,0.1412497645833355,131.84978024999998
2,note_on,43,G2,0.6299212598425197,0.1412497645833355,131.84978024999998
1,note_on,72,C5,0.6299212598425197,0.1412497645833355,132.00
2,note_on,41,F2,0.6299212598425197,0.1412497645833355,132.00
1,note_on,60,C4,0.6299212598425197,0.1412497645833355,132.15
2,note_on,48,C3,0.6299212598425197,0.1412497645833355,132.15
1,note_on,58,A#3,0.6299212598425197,0.1412497645833355,132.30
2,note_on,55,G3,0.6299212598425197,0.1412497645833355,132.30
1,note_on,60,C4,0.6299212598425197,0.1412497645833639,132.44977924999998
2,note_on,57,A3,0.6299212598425197,0.2837495270833301,132.44977924999998
1,note_on,70,A#4,0.6299212598425197,0.1412497645833355,132.59977899999998
1,note_on,60,C4,0.6299212598425197,0.1412497645833355,132.75
2,note_on,55,G3,0.6299212598425197,0.1412497645833355,132.75
1,note_on,58,A#3,0.6299212598425197,0.1412497645833355,132.90
2,note_on,53,F3,0.6299212598425197,0.1412497645833355,132.90
1,note_on,60,C4,0.6299212598425197,0.1412497645833355,133.05
2,note_on,48,C3,0.6299212598425197,0.1412497645833355,133.05
1,note_on,69,A4,0.6299212598425197,0.1412497645833355,133.19977799999998
2,note_on,41,F2,0.6299212598425197,0.1412497645833355,133.19977799999998
1,note_on,60,C4,0.6299212598425197,0.1412497645833355,133.35
2,note_on,48,C3,0.6299212598425197,0.1412497645833355,133.35
1,note_on,58,A#3,0.6299212598425197,0.1412497645833355,133.50
2,note_on,55,G3,0.6299212598425197,0.1412497645833355,133.50
1,note_on,60,C4,0.6299212598425197,0.1412497645833355,133.65
2,note_on,57,A3,0.6299212598425197,0.2837495270833301,133.65
1,note_on,67,G4,0.6299212598425197,0.1412497645833639,133.79977699999998
1,note_on,60,C4,0.6299212598425197,0.1412497645833355,133.94977674999998
2,note_on,55,G3,0.6299212598425197,0.1412497645833355,133.94977674999998
1,note_on,58,A#3,0.6299212598425197,0.1412497645833355,134.10
2,note_on,53,F3,0.6299212598425197,0.1412497645833355,134.10
1,note_on,60,C4,0.6299212598425197,0.1412497645833355,134.25
2,note_on,48,C3,0.6299212598425197,0.1412497645833355,134.25
1,note_on,69,A4,0.6299212598425197,0.1412497645833639,134.39977599999997
2,note_on,46,A#2,0.6299212598425197,0.1412497645833639,134.39977599999997
1,note_on,62,D4,0.6299212598425197,0.1412497645833355,134.54977574999998
2,note_on,53,F3,0.6299212598425197,0.1412497645833355,134.54977574999998
1,note_on,60,C4,0.6299212598425197,0,134.70
2,note_on,60,C4,0.6299212598425197,0.1412497645833355,134.70
1,note_on,62,D4,0.6299212598425197,0,134.85
2,note_on,62,D4,0.6299212598425197,0.2837495270833301,134.85
1,note_on,58,A#3,0.6299212598425197,0.1412497645833355,135.00
1,note_on,62,D4,0.6299212598425197,0.1412497645833639,135.14977474999998
2,note_on,60,C4,0.6299212598425197,0.1412497645833639,135.14977474999998
1,note_on,60,C4,0.6299212598425197,0.1412497645833355,135.29977449999998
2,note_on,58,A#3,0.6299212598425197,0.1412497645833355,135.29977449999998
1,note_on,67,G4,0.6299212598425197,0.1412497645833355,135.45
2,note_on,53,F3,0.6299212598425197,0.1412497645833355,135.45
1,note_on,69,A4,0.6299212598425197,0.1412497645833355,135.60
2,note_on,46,A#2,0.6299212598425197,0.1412497645833355,135.60
1,note_on,62,D4,0.6299212598425197,0.1412497645833639,135.74977374999997
2,note_on,53,F3,0.6299212598425197,0.1412497645833639,135.74977374999997
1,note_on,60,C4,0.6299212598425197,0,135.89977349999998
2,note_on,60,C4,0.6299212598425197,0.1412497645833355,135.89977349999998
1,note_on,67,G4,0.6299212598425197,0.1412497645833355,136.05
2,note_on,62,D4,0.6299212598425197,0.2837495270833301,136.05
1,note_on,69,A4,0.6299212598425197,0.1412497645833355,136.20
1,note_on,62,D4,0.6299212598425197,0.1412497645833355,136.35
2,note_on,60,C4,0.6299212598425197,0.1412497645833355,136.35
1,note_on,60,C4,0.6299212598425197,0.1412497645833639,136.49977249999998
2,note_on,58,A#3,0.6299212598425197,0.1412497645833639,136.49977249999998
1,note_on,65,F4,0.6299212598425197,0.1412497645833355,136.64977224999998
2,note_on,53,F3,0.6299212598425197,0.1412497645833355,136.64977224999998
1,note_on,67,G4,0.6299212598425197,0.1412497645833355,136.80
2,note_on,39,D#2,0.6299212598425197,0.1412497645833355,136.80
1,note_on,63,D#4,0.6299212598425197,0.1412497645833355,136.95
2,note_on,46,A#2,0.6299212598425197,0.1412497645833355,136.95
1,note_on,62,D4,0.6299212598425197,0.1412497645833639,137.09977149999997
2,note_on,53,F3,0.6299212598425197,0.1412497645833639,137.09977149999997
1,note_on,63,D#4,0.6299212598425197,0.1412497645833355,137.24977124999998
2,note_on,55,G3,0.6299212598425197,0.2837495270833301,137.24977124999998
1,note_on,58,A#3,0.6299212598425197,0.1412497645833355,137.40
1,note_on,63,D#4,0.6299212598425197,0.1412497645833355,137.55
2,note_on,53,F3,0.6299212598425197,0.1412497645833355,137.55
1,note_on,62,D4,0.6299212598425197,0.1412497645833355,137.70
2,note_on,51,D#3,0.6299212598425197,0.1412497645833355,137.70
1,note_on,65,F4,0.6299212598425197,0.1412497645833639,137.84977024999998
2,note_on,46,A#2,0.6299212598425197,0.1412497645833639,137.84977024999998
1,note_on,67,G4,0.6299212598425197,0.1412497645833355,137.99976999999998
2,note_on,39,D#2,0.6299212598425197,0.1412497645833355,137.99976999999998
1,note_on,63,D#4,0.6299212598425197,0.1412497645833355,138.15
2,note_on,46,A#2,0.6299212598425197,0.1412497645833355,138.15
1,note_on,62,D4,0.6299212598425197,0.1412497645833355,138.30
2,note_on,53,F3,0.6299212598425197,0.1412497645833355,138.30
1,note_on,63,D#4,0.6299212598425197,0.1412497645833639,138.44976924999997
2,note_on,55,G3,0.6299212598425197,0.28374952708335854,138.44976924999997
1,note_on,69,A4,0.6299212598425197,0.1412497645833355,138.59976899999998
1,note_on,63,D#4,0.6299212598425197,0.1412497645833355,138.75
2,note_on,53,F3,0.6299212598425197,0.1412497645833355,138.75
1,note_on,70,A#4,0.6299212598425197,0.1412497645833355,138.90
2,note_on,51,D#3,0.6299212598425197,0.1412497645833355,138.90
1,note_on,63,D#4,0.6299212598425197,0.1412497645833355,139.05
2,note_on,46,A#2,0.6299212598425197,0.1412497645833355,139.05
1,note_on,72,C5,0.6299212598425197,0.1412497645833639,139.19976799999998
2,note_on,45,A2,0.6299212598425197,0.1412497645833639,139.19976799999998
1,note_on,63,D#4,0.6299212598425197,0.1412497645833355,139.34976774999998
2,note_on,51,D#3,0.6299212598425197,0.1412497645833355,139.34976774999998
1,note_on,62,D4,0.6299212598425197,0.1412497645833355,139.50
2,note_on,58,A#3,0.6299212598425197,0.1412497645833355,139.50
1,note_on,63,D#4,0.6299212598425197,0.1412497645833355,139.65
2,note_on,60,C4,0.6299212598425197,0.1499997499999779,139.65
1,note_on,60,C4,0.6299212598425197,0.1412497645833639,139.79976699999997
1,note_on,63,D#4,0.6299212598425197,0.1412497645833355,139.94976674999998
2,note_on,58,A#3,0.6299212598425197,0.1412497645833355,139.94976674999998
1,note_on,62,D4,0.6299212598425197,0.1412497645833355,140.10
2,note_on,57,A3,0.6299212598425197,0.1412497645833355,140.10
1,note_on,69,A4,0.6299212598425197,0.1412497645833355,140.25
2,note_on,51,D#3,0.6299212598425197,0.1412497645833355,140.25
1,note_on,72,C5,0.6299212598425197,0.1412497645833355,140.40
2,note_on,45,A2,0.6299212598425197,0.1412497645833355,140.40
1,note_on,63,D#4,0.6299212598425197,0.1412497645833639,140.54976574999998
2,note_on,51,D#3,0.6299212598425197,0.1412497645833639,140.54976574999998
1,note_on,62,D4,0.6299212598425197,0.1412497645833355,140.69976549999998
2,note_on,58,A#3,0.6299212598425197,0.1412497645833355,140.69976549999998
1,note_on,67,G4,0.6299212598425197,0.1412497645833355,140.85
2,note_on,60,C4,0.6299212598425197,0.2837495270833301,140.85
1,note_on,70,A#4,0.6299212598425197,0.1412497645833355,141.00
1,note_on,63,D#4,0.6299212598425197,0.1412497645833639,141.14976474999997
2,note_on,58,A#3,0.6299212598425197,0.1412497645833639,141.14976474999997
1,note_on,62,D4,0.6299212598425197,0.1412497645833355,141.29976449999998
2,note_on,57,A3,0.6299212598425197,0.1412497645833355,141.29976449999998
1,note_on,63,D#4,0.6299212598425197,0.1412497645833355,141.45
2,note_on,51,D#3,0.6299212598425197,0.1412497645833355,141.45
1,note_on,69,A4,0.6299212598425197,0.1412497645833355,141.60
2,note_on,38,D2,0.6299212598425197,0.1412497645833355,141.60
1,note_on,67,G4,0.6299212598425197,0.1412497645833355,141.75
2,note_on,45,A2,0.6299212598425197,0.1412497645833355,141.75
1,note_on,66,F#4,0.6299212598425197,0.1412497645833639,141.89976349999998
2,note_on,51,D#3,0.6299212598425197,0.1412497645833639,141.89976349999998
1,note_on,67,G4,0.6299212598425197,0.1412497645833355,142.04976324999998
2,note_on,54,F#3,0.6299212598425197,0.2837495270833301,142.04976324999998
1,note_on,67,G4,0.6299212598425197,0.1412497645833355,142.20
1,note_on,67,G4,0.6299212598425197,0.1412497645833355,142.35
2,note_on,51,D#3,0.6299212598425197,0.1412497645833355,142.35
1,note_on,66,F#4,0.6299212598425197,0.1412497645833639,142.49976249999997
2,note_on,50,D3,0.6299212598425197,0.1412497645833639,142.49976249999997
1,note_on,67,G4,0.6299212598425197,0.1412497645833355,142.64976224999998
2,note_on,45,A2,0.6299212598425197,0.1412497645833355,142.64976224999998
1,note_on,69,A4,0.6299212598425197,0.1412497645833355,142.80
2,note_on,38,D2,0.6299212598425197,0.1412497645833355,142.80
1,note_on,67,G4,0.6299212598425197,0.1412497645833355,142.95
2,note_on,45,A2,0.6299212598425197,0.1412497645833355,142.95
1,note_on,66,F#4,0.6299212598425197,0.1412497645833355,143.10
2,note_on,51,D#3,0.6299212598425197,0.1412497645833355,143.10
1,note_on,67,G4,0.6299212598425197,0.1412497645833639,143.24976124999998
2,note_on,54,F#3,0.6299212598425197,0.2837495270833301,143.24976124999998
1,note_on,70,A#4,0.6299212598425197,0.1412497645833355,143.39976099999998
1,note_on,67,G4,0.6299212598425197,0.1412497645833355,143.55
2,note_on,51,D#3,0.6299212598425197,0.1412497645833355,143.55
1,note_on,66,F#4,0.6299212598425197,0.1412497645833355,143.70
2,note_on,50,D3,0.6299212598425197,0.1412497645833355,143.70
1,note_on,67,G4,0.6299212598425197,0.1412497645833639,143.84976024999997
2,note_on,45,A2,0.6299212598425197,0.1412497645833639,143.84976024999997
1,note_on,69,A4,0.6299212598425197,0.1412497645833355,143.99975999999998
2,note_on,43,G2,0.6299212598425197,0.1412497645833355,143.99975999999998
1,note_on,67,G4,0.6299212598425197,0.1412497645833355,144.15
2,note_on,50,D3,0.6299212598425197,0.1412497645833355,144.15
1,note_on,66,F#4,0.6299212598425197,0.1412497645833355,144.30
2,note_on,57,A3,0.6299212598425197,0.1412497645833355,144.30
1,note_on,67,G4,0.6299212598425197,0.1412497645833355,144.45
2,note_on,58,A#3,0.6299212598425197,0.2837495270833301,144.45
1,note_on,62,D4,0.6299212598425197,0.1412497645833639,144.59975899999998
1,note_on,67,G4,0.6299212598425197,0.1412497645833355,144.74975874999998
2,note_on,57,A3,0.6299212598425197,0.1412497645833355,144.74975874999998
1,note_on,66,F#4,0.6299212598425197,0.1412497645833355,144.90
2,note_on,55,G3,0.6299212598425197,0.1412497645833355,144.90
1,note_on,67,G4,0.6299212598425197,0.1412497645833355,145.05
2,note_on,50,D3,0.6299212598425197,0.1412497645833355,145.05
1,note_on,69,A4,0.6299212598425197,0.1412497645833639,145.19975799999997
2,note_on,43,G2,0.6299212598425197,0.1412497645833639,145.19975799999997
1,note_on,67,G4,0.6299212598425197,0.1412497645833355,145.34975774999998
2,note_on,50,D3,0.6299212598425197,0.1412497645833355,145.34975774999998
1,note_on,66,F#4,0.6299212598425197,0.1412497645833355,145.50
2,note_on,57,A3,0.6299212598425197,0.1412497645833355,145.50
1,note_on,67,G4,0.6299212598425197,0.1412497645833355,145.65
2,note_on,58,A#3,0.6299212598425197,0.2837495270833301,145.65
1,note_on,62,D4,0.6299212598425197,0.1412497645833355,145.80
1,note_on,67,G4,0.6299212598425197,0.1412497645833639,145.94975674999998
2,note_on,57,A3,0.6299212598425197,0.1412497645833639,145.94975674999998
1,note_on,66,F#4,0.6299212598425197,0.1412497645833355,146.09975649999998
2,note_on,55,G3,0.6299212598425197,0.1412497645833355,146.09975649999998
1,note_on,67,G4,0.6299212598425197,0.1412497645833355,146.25
2,note_on,50,D3,0.6299212598425197,0.1412497645833355,146.25
1,note_on,57,A3,0.6299212598425197,0.1412497645833355,146.40
2,note_on,38,D2,0.6299212598425197,2.2787462020833402,146.40
2,note_on,42,F#2,0.6299212598425197,2.2787462020833402,146.40
2,note_on,48,C3,0.6299212598425197,2.2787462020833402,146.40
1,note_on,60,C4,0.6299212598425197,0.1412497645833639,146.54975574999997
1,note_on,63,D#4,0.6299212598425197,0.1412497645833355,146.69975549999998
1,note_on,67,G4,0.6299212598425197,0.1412497645833355,146.85
1,note_on,66,F#4,0.6299212598425197,0.1412497645833355,147.00
1,note_on,63,D#4,0.6299212598425197,0.1412497645833355,147.15
1,note_on,62,D4,0.6299212598425197,0.1412497645833639,147.29975449999998
1,note_on,63,D#4,0.6299212598425197,0.1412497645833355,147.44975424999998
1,note_on,69,A4,0.6299212598425197,0.1412497645833355,147.60
1,note_on,66,F#4,0.6299212598425197,0.1412497645833355,147.75
1,note_on,75,D#5,0.6299212598425197,0.1412497645833639,147.89975349999997
1,note_on,72,C5,0.6299212598425197,0.1412497645833355,148.04975324999998
1,note_on,66,F#4,0.6299212598425197,0.1412497645833355,148.20
1,note_on,63,D#4,0.6299212598425197,0.1412497645833355,148.35
1,note_on,62,D4,0.6299212598425197,0.1412497645833355,148.50
1,note_on,63,D#4,0.6299212598425197,0.1412497645833639,148.64975224999998
1,note_on,55,G3,0.6299212598425197,0.1412497645833355,148.79975199999998
2,note_on,43,G2,0.6299212598425197,2.2787462020833402,148.79975199999998
2,note_on,46,A#2,0.6299212598425197,2.2787462020833402,148.79975199999998
2,note_on,50,D3,0.6299212598425197,2.2787462020833402,148.79975199999998
1,note_on,58,A#3,0.6299212598425197,0.1412497645833355,148.95
1,note_on,62,D4,0.6299212598425197,0.1412497645833355,149.10
1,note_on,66,F#4,0.6299212598425197,0.1412497645833639,149.24975124999997
1,note_on,67,G4,0.6299212598425197,0.1412497645833355,149.39975099999998
1,note_on,62,D4,0.6299212598425197,0.1412497645833355,149.55
1,note_on,60,C4,0.6299212598425197,0.1412497645833355,149.70
1,note_on,62,D4,0.6299212598425197,0.1412497645833355,149.85
1,note_on,67,G4,0.6299212598425197,0.1412497645833639,149.99974999999998
1,note_on,62,D4,0.6299212598425197,0.1412497645833355,150.14974974999998
1,note_on,70,A#4,0.6299212598425197,0.1412497645833355,150.30
1,note_on,67,G4,0.6299212598425197,0.1412497645833355,150.45
1,note_on,74,D5,0.6299212598425197,0.1412497645833639,150.59974899999997
1,note_on,70,A#4,0.6299212598425197,0.1412497645833355,150.74974874999998
1,note_on,69,A4,0.6299212598425197,0.1412497645833355,150.90
1,note_on,70,A#4,0.6299212598425197,0.1412497645833355,151.05
1,note_on,75,D#5,0.6299212598425197,0.1412497645833355,151.20
2,note_on,45,A2,0.6299212598425197,1.1387481020833263,151.20
2,note_on,48,C3,0.6299212598425197,1.1387481020833263,151.20
2,note_on,51,D#3,0.6299212598425197,1.1387481020833263,151.20
2,note_on,54,F#3,0.6299212598425197,1.1387481020833263,151.20
1,note_on,72,C5,0.6299212598425197,0.1412497645833639,151.34974774999998
1,note_on,71,B4,0.6299212598425197,0.1412497645833355,151.49974749999998
1,note_on,72,C5,0.6299212598425197,0.1412497645833355,151.65
1,note_on,67,G4,0.6299212598425197,0.1412497645833355,151.80
1,note_on,72,C5,0.6299212598425197,0.1412497645833639,151.94974674999997
1,note_on,71,B4,0.6299212598425197,0.1412497645833355,152.09974649999998
1,note_on,72,C5,0.6299212598425197,0.1412497645833355,152.25
1,note_on,74,D5,0.6299212598425197,0.1412497645833355,152.40
2,note_on,43,G2,0.6299212598425197,1.1387481020833263,152.40
2,note_on,46,A#2,0.6299212598425197,1.1387481020833263,152.40
2,note_on,50,D3,0.6299212598425197,1.1387481020833263,152.40
1,note_on,70,A#4,0.6299212598425197,0.1412497645833355,152.55
1,note_on,69,A4,0.6299212598425197,0.1412497645833639,152.69974549999998
1,note_on,70,A#4,0.6299212598425197,0.1412497645833355,152.84974524999998
1,note_on,62,D4,0.6299212598425197,0.1412497645833355,153.00
1,note_on,70,A#4,0.6299212598425197,0.1412497645833355,153.15
1,note_on,69,A4,0.6299212598425197,0.1412497645833639,153.29974449999997
1,note_on,70,A#4,0.6299212598425197,0.1412497645833355,153.44974424999998
1,note_on,67,G4,0.6299212598425197,0.8537485770833371,153.60
1,note_on,72,C5,0.6299212598425197,0.8537485770833371,153.60
2,note_on,50,D3,0.6299212598425197,1.1387481020833263,153.60
2,note_on,58,A#3,0.6299212598425197,1.1387481020833263,153.60
1,note_on,70,A#4,0.6299212598425197,0.2837495270833301,154.50
1,note_on,66,F#4,0.6299212598425197,0.8537485770833371,154.79974199999998
1,note_on,69,A4,0.6299212598425197,0.8537485770833371,154.79974199999998
2,note_on,50,D3,0.6299212598425197,1.1387481020833548,154.79974199999998
2,note_on,60,C4,0.6299212598425197,1.1387481020833548,154.79974199999998
1,note_on,67,G4,0.6299212598425197,0.2837495270833301,155.70
1,note_on,58,A#3,0.6299212598425197,2.2787462020833402,155.99973999999997
1,note_on,67,G4,0.6299212598425197,2.2787462020833402,155.99973999999997
2,note_on,43,G2,0.6299212598425197,2.2787462020833402,155.99973999999997
2,note_on,50,D3,0.6299212598425197,2.2787462020833402,155.99973999999997