Track,Event Type,Midi Note,Note Name,Velocity,Duration (seconds),Time (seconds)
0,note_on,49,C#3,0.5039370078740157,0.16597205625,0
0,note_on,36,C2,0.5039370078740157,0.33263855625,0
0,note_on,42,F#2,0.5039370078740157,0.16597205625,0.1666665
0,note_on,42,F#2,0.5039370078740157,0.16597205624999994,0.333333
0,note_on,36,C2,0.5039370078740157,0.33263855624999994,0.333333
0,note_on,42,F#2,0.5039370078740157,0.16597205624999994,0.4999995
0,note_on,38,D2,0.5039370078740157,0.16597205625,0.666666
0,note_on,42,F#2,0.5039370078740157,0.16597205625,0.666666
0,note_on,42,F#2,0.5039370078740157,0.16597205625,0.8333325
0,note_on,42,F#2,0.5039370078740157,0.1659720562500001,0.999999
0,note_on,36,C2,0.5039370078740157,0.1659720562500001,0.999999
0,note_on,42,F#2,0.5039370078740157,0.16597205625,1.1666655
0,note_on,36,C2,0.5039370078740157,0.16597205625,1.1666655
0,note_on,42,F#2,0.5039370078740157,0.16597205625,1.333332
0,note_on,36,C2,0.5039370078740157,0.33263855625000005,1.333332
0,note_on,42,F#2,0.5039370078740157,0.16597205625,1.4999985
0,note_on,42,F#2,0.5039370078740157,0.16597205625,1.666665
0,note_on,36,C2,0.5039370078740157,0.33263855624999983,1.666665
0,note_on,42,F#2,0.5039370078740157,0.16597205625,1.8333315
0,note_on,38,D2,0.5039370078740157,0.16597205625,1.999998
0,note_on,42,F#2,0.5039370078740157,0.16597205625,1.999998
0,note_on,42,F#2,0.5039370078740157,0.16597205624999978,2.1666645
0,note_on,42,F#2,0.5039370078740157,0.16597205625000022,2.333331
0,note_on,42,F#2,0.5039370078740157,0.16597205624999978,2.4999975
0,note_on,36,C2,0.5039370078740157,0.16597205624999978,2.4999975
0,note_on,46,A#2,0.5039370078740157,0.16597205625000022,2.666664
0,note_on,36,C2,0.5039370078740157,0.33263855625000005,2.666664
0,note_on,42,F#2,0.5039370078740157,0.16597205625000022,2.8333304999999998
0,note_on,42,F#2,0.5039370078740157,0.16597205624999978,2.999997
0,note_on,36,C2,0.5039370078740157,0.33263855625000005,2.999997
0,note_on,42,F#2,0.5039370078740157,0.16597205625000022,3.1666635
0,note_on,38,D2,0.5039370078740157,0.16597205624999978,3.33333
0,note_on,42,F#2,0.5039370078740157,0.16597205624999978,3.33333
0,note_on,42,F#2,0.5039370078740157,0.16597205624999978,3.4999965
0,note_on,42,F#2,0.5039370078740157,0.16597205625000022,3.666663
0,note_on,36,C2,0.5039370078740157,0.16597205625000022,3.666663
0,note_on,42,F#2,0.5039370078740157,0.16597205624999978,3.8333295
0,note_on,36,C2,0.5039370078740157,0.16597205624999978,3.8333295
0,note_on,42,F#2,0.5039370078740157,0.16597205624999978,3.999996
0,note_on,36,C2,0.5039370078740157,0.3326385562499996,3.999996
0,note_on,42,F#2,0.5039370078740157,0.16597205624999933,4.1666625
0,note_on,42,F#2,0.5039370078740157,0.16597205625000022,4.333329
0,note_on,36,C2,0.5039370078740157,0.33263855625000005,4.333329
0,note_on,42,F#2,0.5039370078740157,0.16597205625000022,4.4999955
0,note_on,38,D2,0.5039370078740157,0.16597205625000022,4.666662
0,note_on,42,F#2,0.5039370078740157,0.16597205625000022,4.666662
0,note_on,42,F#2,0.5039370078740157,0.16597205625000022,4.8333284999999995
0,note_on,38,D2,0.5039370078740157,0.16597205624999933,4.999995
0,note_on,42,F#2,0.5039370078740157,0.16597205624999933,4.999995
0,note_on,42,F#2,0.5039370078740157,0.16597205625000022,5.1666615
0,note_on,36,C2,0.5039370078740157,0.16597205625000022,5.1666615
0,note_on,49,C#3,0.5039370078740157,0.16597205624999933,5.333328
0,note_on,36,C2,0.5039370078740157,0.33263855624999916,5.333328
0,note_on,42,F#2,0.5039370078740157,0.16597205624999933,5.4999945
0,note_on,42,F#2,0.5039370078740157,0.16597205624999933,5.6666609999999995
0,note_on,36,C2,0.5039370078740157,0.33263855625000005,5.6666609999999995
0,note_on,42,F#2,0.5039370078740157,0.16597205624999933,5.8333275
0,note_on,38,D2,0.5039370078740157,0.16597205624999933,5.999994
0,note_on,42,F#2,0.5039370078740157,0.16597205624999933,5.999994
0,note_on,42,F#2,0.5039370078740157,0.16597205624999933,6.1666605
0,note_on,42,F#2,0.5039370078740157,0.16597205624999933,6.333327
0,note_on,36,C2,0.5039370078740157,0.16597205624999933,6.333327
0,note_on,42,F#2,0.5039370078740157,0.16597205624999933,6.4999934999999995
0,note_on,36,C2,0.5039370078740157,0.16597205624999933,6.4999934999999995
0,note_on,42,F#2,0.5039370078740157,0.16597205624999933,6.66666
0,note_on,36,C2,0.5039370078740157,0.33263855624999916,6.66666
0,note_on,42,F#2,0.5039370078740157,0.16597205624999933,6.8333265
0,note_on,42,F#2,0.5039370078740157,0.16597205624999933,6.999993
0,note_on,36,C2,0.5039370078740157,0.33263855624999916,6.999993
0,note_on,42,F#2,0.5039370078740157,0.16597205624999933,7.1666595
0,note_on,38,D2,0.5039370078740157,0.16597205624999933,7.333326
0,note_on,42,F#2,0.5039370078740157,0.16597205624999933,7.333326
0,note_on,42,F#2,0.5039370078740157,0.16597205625000022,7.499992499999999
0,note_on,42,F#2,0.5039370078740157,0.16597205624999933,7.666659
0,note_on,42,F#2,0.5039370078740157,0.16597205624999933,7.8333255
0,note_on,36,C2,0.5039370078740157,0.16597205624999933,7.8333255
0,note_on,46,A#2,0.5039370078740157,0.16597205624999933,7.999992
0,note_on,36,C2,0.5039370078740157,0.33263855624999916,7.999992
0,note_on,42,F#2,0.5039370078740157,0.16597205624999845,8.1666585
0,note_on,42,F#2,0.5039370078740157,0.16597205624999845,8.333325
0,note_on,36,C2,0.5039370078740157,0.3326385562499983,8.333325
0,note_on,42,F#2,0.5039370078740157,0.16597205624999845,8.4999915
0,note_on,38,D2,0.5039370078740157,0.16597205624999845,8.666658
0,note_on,42,F#2,0.5039370078740157,0.16597205624999845,8.666658
0,note_on,42,F#2,0.5039370078740157,0.16597205625000022,8.8333245
0,note_on,42,F#2,0.5039370078740157,0.16597205625000022,8.999991
0,note_on,36,C2,0.5039370078740157,0.16597205625000022,8.999991
0,note_on,42,F#2,0.5039370078740157,0.16597205625000022,9.1666575
0,note_on,36,C2,0.5039370078740157,0.16597205625000022,9.1666575
0,note_on,42,F#2,0.5039370078740157,0.16597205625000022,9.333324
0,note_on,36,C2,0.5039370078740157,0.33263855625000005,9.333324
0,note_on,42,F#2,0.5039370078740157,0.16597205625000022,9.4999905
0,note_on,42,F#2,0.5039370078740157,0.16597205625000022,9.666656999999999
0,note_on,36,C2,0.5039370078740157,0.33263855625000005,9.666656999999999
0,note_on,42,F#2,0.5039370078740157,0.16597205624999845,9.8333235
0,note_on,38,D2,0.5039370078740157,0.16597205624999845,9.99999
0,note_on,42,F#2,0.5039370078740157,0.16597205624999845,9.99999
0,note_on,42,F#2,0.5039370078740157,0.16597205624999845,10.1666565
0,note_on,38,D2,0.5039370078740157,0.16597205624999845,10.333323
0,note_on,42,F#2,0.5039370078740157,0.16597205624999845,10.333323
0,note_on,42,F#2,0.5039370078740157,0.16597205624999845,10.4999895
0,note_on,36,C2,0.5039370078740157,0.16597205624999845,10.4999895
0,note_on,49,C#3,0.5039370078740157,0.16597205625000022,10.666656
0,note_on,36,C2,0.5039370078740157,0.33263855625000005,10.666656
0,note_on,42,F#2,0.5039370078740157,0.16597205625000022,10.8333225
0,note_on,42,F#2,0.5039370078740157,0.16597205625000022,10.999989
0,note_on,36,C2,0.5039370078740157,0.3326385562500018,10.999989
0,note_on,42,F#2,0.5039370078740157,0.165972056250002,11.1666555
0,note_on,38,D2,0.5039370078740157,0.165972056250002,11.333321999999999
0,note_on,42,F#2,0.5039370078740157,0.165972056250002,11.333321999999999
0,note_on,42,F#2,0.5039370078740157,0.165972056250002,11.499988499999999
0,note_on,42,F#2,0.5039370078740157,0.16597205625000022,11.666655
0,note_on,36,C2,0.5039370078740157,0.16597205625000022,11.666655
0,note_on,42,F#2,0.5039370078740157,0.16597205625000022,11.8333215
0,note_on,36,C2,0.5039370078740157,0.16597205625000022,11.8333215
0,note_on,42,F#2,0.5039370078740157,0.16597205625000022,11.999988
0,note_on,36,C2,0.5039370078740157,0.33263855625000005,11.999988
0,note_on,42,F#2,0.5039370078740157,0.16597205625000022,12.1666545
0,note_on,42,F#2,0.5039370078740157,0.16597205625000022,12.333321
0,note_on,36,C2,0.5039370078740157,0.33263855625000005,12.333321
0,note_on,42,F#2,0.5039370078740157,0.16597205625000022,12.4999875
0,note_on,38,D2,0.5039370078740157,0.16597205625000022,12.666654
0,note_on,42,F#2,0.5039370078740157,0.16597205625000022,12.666654
0,note_on,42,F#2,0.5039370078740157,0.16597205625000022,12.8333205
0,note_on,42,F#2,0.5039370078740157,0.165972056250002,12.999986999999999
0,note_on,42,F#2,0.5039370078740157,0.165972056250002,13.166653499999999
0,note_on,36,C2,0.5039370078740157,0.165972056250002,13.166653499999999
0,note_on,46,A#2,0.5039370078740157,0.16597205625000022,13.33332
0,note_on,36,C2,0.5039370078740157,0.33263855625000005,13.33332
0,note_on,42,F#2,0.5039370078740157,0.16597205625000022,13.4999865
0,note_on,42,F#2,0.5039370078740157,0.16597205625000022,13.666653
0,note_on,36,C2,0.5039370078740157,0.33263855625000005,13.666653
0,note_on,42,F#2,0.5039370078740157,0.16597205625000022,13.8333195
0,note_on,38,D2,0.5039370078740157,0.16597205625000022,13.999986
0,note_on,42,F#2,0.5039370078740157,0.16597205625000022,13.999986
0,note_on,42,F#2,0.5039370078740157,0.16597205625000022,14.1666525
0,note_on,42,F#2,0.5039370078740157,0.16597205625000022,14.333319
0,note_on,36,C2,0.5039370078740157,0.16597205625000022,14.333319
0,note_on,42,F#2,0.5039370078740157,0.16597205625000022,14.4999855
0,note_on,36,C2,0.5039370078740157,0.16597205625000022,14.4999855
0,note_on,42,F#2,0.5039370078740157,0.16597205625000022,14.666652
0,note_on,36,C2,0.5039370078740157,0.3326385562500018,14.666652
0,note_on,42,F#2,0.5039370078740157,0.165972056250002,14.833318499999999
0,note_on,42,F#2,0.5039370078740157,0.165972056250002,14.999984999999999
0,note_on,36,C2,0.5039370078740157,0.3326385562500018,14.999984999999999
0,note_on,42,F#2,0.5039370078740157,0.16597205625000022,15.1666515
0,note_on,38,D2,0.5039370078740157,0.16597205625000022,15.333318
0,note_on,42,F#2,0.5039370078740157,0.16597205625000022,15.333318
0,note_on,42,F#2,0.5039370078740157,0.16597205625000022,15.4999845
0,note_on,38,D2,0.5039370078740157,0.16597205625000022,15.666651
0,note_on,42,F#2,0.5039370078740157,0.16597205625000022,15.666651
0,note_on,42,F#2,0.5039370078740157,0.16597205625000022,15.8333175
0,note_on,36,C2,0.5039370078740157,0.16597205625000022,15.8333175
0,note_on,49,C#3,0.5039370078740157,0.16597205625000022,15.999984
0,note_on,36,C2,0.5039370078740157,0.3326385562500018,15.999984
0,note_on,42,F#2,0.5039370078740157,0.165972056250002,16.1666505
0,note_on,42,F#2,0.5039370078740157,0.16597205624999845,16.333317
0,note_on,36,C2,0.5039370078740157,0.33263855625000005,16.333317
0,note_on,42,F#2,0.5039370078740157,0.165972056250002,16.4999835
0,note_on,38,D2,0.5039370078740157,0.16597205624999845,16.66665
0,note_on,42,F#2,0.5039370078740157,0.16597205624999845,16.66665
0,note_on,42,F#2,0.5039370078740157,0.165972056250002,16.8333165
0,note_on,42,F#2,0.5039370078740157,0.16597205624999845,16.999983
0,note_on,36,C2,0.5039370078740157,0.16597205624999845,16.999983
0,note_on,42,F#2,0.5039370078740157,0.165972056250002,17.1666495
0,note_on,36,C2,0.5039370078740157,0.165972056250002,17.1666495
0,note_on,42,F#2,0.5039370078740157,0.16597205624999845,17.333316
0,note_on,36,C2,0.5039370078740157,0.33263855625000005,17.333316
0,note_on,42,F#2,0.5039370078740157,0.165972056250002,17.499982499999998
0,note_on,42,F#2,0.5039370078740157,0.165972056250002,17.666649
0,note_on,36,C2,0.5039370078740157,0.33263855625000005,17.666649
0,note_on,42,F#2,0.5039370078740157,0.16597205624999845,17.8333155
0,note_on,38,D2,0.5039370078740157,0.165972056250002,17.999982
0,note_on,42,F#2,0.5039370078740157,0.165972056250002,17.999982
0,note_on,42,F#2,0.5039370078740157,0.16597205624999845,18.1666485
0,note_on,42,F#2,0.5039370078740157,0.165972056250002,18.333315
0,note_on,42,F#2,0.5039370078740157,0.16597205624999845,18.4999815
0,note_on,36,C2,0.5039370078740157,0.16597205624999845,18.4999815
0,note_on,46,A#2,0.5039370078740157,0.165972056250002,18.666648
0,note_on,36,C2,0.5039370078740157,0.33263855625000005,18.666648
0,note_on,42,F#2,0.5039370078740157,0.16597205624999845,18.8333145
0,note_on,42,F#2,0.5039370078740157,0.165972056250002,18.999981
0,note_on,36,C2,0.5039370078740157,0.3326385562500036,18.999981
0,note_on,42,F#2,0.5039370078740157,0.165972056250002,19.1666475
0,note_on,38,D2,0.5039370078740157,0.165972056250002,19.333313999999998
0,note_on,42,F#2,0.5039370078740157,0.165972056250002,19.333313999999998
0,note_on,42,F#2,0.5039370078740157,0.165972056250002,19.4999805
0,note_on,42,F#2,0.5039370078740157,0.16597205624999845,19.666647
0,note_on,36,C2,0.5039370078740157,0.16597205624999845,19.666647
0,note_on,42,F#2,0.5039370078740157,0.165972056250002,19.8333135
0,note_on,36,C2,0.5039370078740157,0.165972056250002,19.8333135
0,note_on,42,F#2,0.5039370078740157,0.16597205624999845,19.99998
0,note_on,36,C2,0.5039370078740157,0.33263855625000005,19.99998
0,note_on,42,F#2,0.5039370078740157,0.165972056250002,20.1666465
0,note_on,42,F#2,0.5039370078740157,0.16597205624999845,20.333313
0,note_on,36,C2,0.5039370078740157,0.33263855625000005,20.333313
0,note_on,42,F#2,0.5039370078740157,0.165972056250002,20.4999795
0,note_on,38,D2,0.5039370078740157,0.16597205624999845,20.666646
0,note_on,42,F#2,0.5039370078740157,0.16597205624999845,20.666646
0,note_on,42,F#2,0.5039370078740157,0.165972056250002,20.833312499999998
0,note_on,38,D2,0.5039370078740157,0.165972056250002,20.999979
0,note_on,42,F#2,0.5039370078740157,0.165972056250002,20.999979
0,note_on,42,F#2,0.5039370078740157,0.165972056250002,21.166645499999998
0,note_on,36,C2,0.5039370078740157,0.165972056250002,21.166645499999998
0,note_on,49,C#3,0.5039370078740157,0.165972056250002,21.333312
0,note_on,36,C2,0.5039370078740157,0.33263855625000005,21.333312
0,note_on,42,F#2,0.5039370078740157,0.16597205624999845,21.4999785
0,note_on,42,F#2,0.5039370078740157,0.165972056250002,21.666645
0,note_on,36,C2,0.5039370078740157,0.33263855625000005,21.666645
0,note_on,42,F#2,0.5039370078740157,0.16597205624999845,21.8333115
0,note_on,38,D2,0.5039370078740157,0.165972056250002,21.999978
0,note_on,42,F#2,0.5039370078740157,0.165972056250002,21.999978
0,note_on,42,F#2,0.5039370078740157,0.16597205624999845,22.1666445
0,note_on,42,F#2,0.5039370078740157,0.165972056250002,22.333311
0,note_on,36,C2,0.5039370078740157,0.165972056250002,22.333311
0,note_on,42,F#2,0.5039370078740157,0.16597205624999845,22.4999775
0,note_on,36,C2,0.5039370078740157,0.16597205624999845,22.4999775
0,note_on,42,F#2,0.5039370078740157,0.165972056250002,22.666643999999998
0,note_on,36,C2,0.5039370078740157,0.3326385562500036,22.666643999999998
0,note_on,42,F#2,0.5039370078740157,0.165972056250002,22.8333105
0,note_on,42,F#2,0.5039370078740157,0.165972056250002,22.999976999999998
0,note_on,36,C2,0.5039370078740157,0.3326385562500036,22.999976999999998
0,note_on,42,F#2,0.5039370078740157,0.165972056250002,23.1666435
0,note_on,38,D2,0.5039370078740157,0.16597205624999845,23.33331
0,note_on,42,F#2,0.5039370078740157,0.16597205624999845,23.33331
0,note_on,42,F#2,0.5039370078740157,0.165972056250002,23.4999765
0,note_on,42,F#2,0.5039370078740157,0.16597205624999845,23.666643
0,note_on,42,F#2,0.5039370078740157,0.165972056250002,23.8333095
0,note_on,36,C2,0.5039370078740157,0.165972056250002,23.8333095
0,note_on,46,A#2,0.5039370078740157,0.16597205624999845,23.999976
0,note_on,36,C2,0.5039370078740157,0.33263855625000005,23.999976
0,note_on,42,F#2,0.5039370078740157,0.165972056250002,24.1666425
0,note_on,42,F#2,0.5039370078740157,0.16597205624999845,24.333309
0,note_on,36,C2,0.5039370078740157,0.33263855625000005,24.333309
0,note_on,42,F#2,0.5039370078740157,0.165972056250002,24.499975499999998
0,note_on,38,D2,0.5039370078740157,0.165972056250002,24.666642
0,note_on,42,F#2,0.5039370078740157,0.165972056250002,24.666642
0,note_on,42,F#2,0.5039370078740157,0.165972056250002,24.833308499999998
0,note_on,42,F#2,0.5039370078740157,0.165972056250002,24.999975
0,note_on,36,C2,0.5039370078740157,0.165972056250002,24.999975
0,note_on,42,F#2,0.5039370078740157,0.16597205624999845,25.1666415
0,note_on,36,C2,0.5039370078740157,0.16597205624999845,25.1666415
0,note_on,42,F#2,0.5039370078740157,0.165972056250002,25.333308
0,note_on,36,C2,0.5039370078740157,0.33263855625000005,25.333308
0,note_on,42,F#2,0.5039370078740157,0.16597205624999845,25.4999745
0,note_on,42,F#2,0.5039370078740157,0.165972056250002,25.666641
0,note_on,36,C2,0.5039370078740157,0.33263855625000005,25.666641
0,note_on,42,F#2,0.5039370078740157,0.16597205624999845,25.8333075
0,note_on,38,D2,0.5039370078740157,0.165972056250002,25.999973999999998
0,note_on,42,F#2,0.5039370078740157,0.165972056250002,25.999973999999998
0,note_on,42,F#2,0.5039370078740157,0.16597205624999845,26.1666405
0,note_on,38,D2,0.5039370078740157,0.165972056250002,26.333306999999998
0,note_on,42,F#2,0.5039370078740157,0.165972056250002,26.333306999999998
0,note_on,42,F#2,0.5039370078740157,0.165972056250002,26.4999735
0,note_on,36,C2,0.5039370078740157,0.165972056250002,26.4999735
0,note_on,49,C#3,0.5039370078740157,0.16597205624999845,26.66664
0,note_on,36,C2,0.5039370078740157,0.33263855625000005,26.66664
0,note_on,42,F#2,0.5039370078740157,0.165972056250002,26.8333065
0,note_on,42,F#2,0.5039370078740157,0.16597205624999845,26.999973
0,note_on,36,C2,0.5039370078740157,0.33263855625000005,26.999973
0,note_on,42,F#2,0.5039370078740157,0.165972056250002,27.1666395
0,note_on,38,D2,0.5039370078740157,0.16597205624999845,27.333306
0,note_on,42,F#2,0.5039370078740157,0.16597205624999845,27.333306
0,note_on,42,F#2,0.5039370078740157,0.165972056250002,27.4999725
0,note_on,42,F#2,0.5039370078740157,0.16597205624999845,27.666639
0,note_on,36,C2,0.5039370078740157,0.16597205624999845,27.666639
0,note_on,42,F#2,0.5039370078740157,0.165972056250002,27.833305499999998
0,note_on,36,C2,0.5039370078740157,0.165972056250002,27.833305499999998
0,note_on,42,F#2,0.5039370078740157,0.16597205624999845,27.999972
0,note_on,36,C2,0.5039370078740157,0.33263855625000005,27.999972
0,note_on,42,F#2,0.5039370078740157,0.165972056250002,28.166638499999998
0,note_on,42,F#2,0.5039370078740157,0.165972056250002,28.333305
0,note_on,36,C2,0.5039370078740157,0.33263855625000005,28.333305
0,note_on,42,F#2,0.5039370078740157,0.16597205624999845,28.4999715
0,note_on,38,D2,0.5039370078740157,0.165972056250002,28.666638
0,note_on,42,F#2,0.5039370078740157,0.165972056250002,28.666638
0,note_on,42,F#2,0.5039370078740157,0.16597205624999845,28.8333045
0,note_on,42,F#2,0.5039370078740157,0.165972056250002,28.999971
0,note_on,42,F#2,0.5039370078740157,0.16597205624999845,29.1666375
0,note_on,36,C2,0.5039370078740157,0.16597205624999845,29.1666375
0,note_on,46,A#2,0.5039370078740157,0.165972056250002,29.333304
0,note_on,36,C2,0.5039370078740157,0.33263855625000005,29.333304
0,note_on,42,F#2,0.5039370078740157,0.16597205624999845,29.4999705
0,note_on,42,F#2,0.5039370078740157,0.165972056250002,29.666636999999998
0,note_on,36,C2,0.5039370078740157,0.3326385562500036,29.666636999999998
0,note_on,42,F#2,0.5039370078740157,0.165972056250002,29.8333035
0,note_on,38,D2,0.5039370078740157,0.165972056250002,29.999969999999998
0,note_on,42,F#2,0.5039370078740157,0.165972056250002,29.999969999999998
0,note_on,42,F#2,0.5039370078740157,0.165972056250002,30.1666365
0,note_on,42,F#2,0.5039370078740157,0.16597205624999845,30.333303
0,note_on,36,C2,0.5039370078740157,0.16597205624999845,30.333303
0,note_on,42,F#2,0.5039370078740157,0.165972056250002,30.4999695
0,note_on,36,C2,0.5039370078740157,0.165972056250002,30.4999695
0,note_on,42,F#2,0.5039370078740157,0.16597205624999845,30.666636
0,note_on,36,C2,0.5039370078740157,0.33263855625000005,30.666636
0,note_on,42,F#2,0.5039370078740157,0.165972056250002,30.8333025
0,note_on,42,F#2,0.5039370078740157,0.16597205624999845,30.999969
0,note_on,36,C2,0.5039370078740157,0.33263855625000005,30.999969
0,note_on,42,F#2,0.5039370078740157,0.165972056250002,31.166635499999998
0,note_on,38,D2,0.5039370078740157,0.16597205624999845,31.333302
0,note_on,42,F#2,0.5039370078740157,0.16597205624999845,31.333302
0,note_on,40,E2,0.5039370078740157,0.08263880625000297,31.499968499999998
0,note_on,42,F#2,0.5039370078740157,0.08263880625000297,31.499968499999998
0,note_on,38,D2,0.5039370078740157,0.08263880624999942,31.58330175
0,note_on,40,E2,0.5039370078740157,0.08263880624999942,31.666635
0,note_on,42,F#2,0.5039370078740157,0.08263880624999942,31.666635
0,note_on,38,D2,0.5039370078740157,0.08263880625000297,31.74996825
0,note_on,40,E2,0.5039370078740157,0.08263880625000297,31.833301499999997
0,note_on,42,F#2,0.5039370078740157,0.08263880625000297,31.833301499999997
0,note_on,38,D2,0.5039370078740157,0.08263880624999942,31.91663475
0,note_on,38,D2,0.5039370078740157,0.33263855625000005,31.999968
0,note_on,49,C#3,0.5039370078740157,0.33263855625000005,31.999968
0,note_on,36,C2,0.5039370078740157,0.33263855625000005,31.999968
0,note_on,46,A#2,0.5039370078740157,0.3326385562500036,32.333301
0,note_on,38,D2,0.5039370078740157,0.3326385562499965,32.666634
0,note_on,46,A#2,0.5039370078740157,0.3326385562500036,32.999967
0,note_on,36,C2,0.5039370078740157,0.3326385562499965,33.3333
0,note_on,46,A#2,0.5039370078740157,0.3326385562500036,33.666633
0,note_on,38,D2,0.5039370078740157,0.3326385562499965,33.999966
0,note_on,46,A#2,0.5039370078740157,0.3326385562500036,34.333299
0,note_on,36,C2,0.5039370078740157,0.3326385562499965,34.666632
0,note_on,46,A#2,0.5039370078740157,0.3326385562500036,34.999964999999996
0,note_on,38,D2,0.5039370078740157,0.3326385562500036,35.333298
0,note_on,46,A#2,0.5039370078740157,0.3326385562499965,35.666631
0,note_on,36,C2,0.5039370078740157,0.3326385562500036,35.999964
0,note_on,46,A#2,0.5039370078740157,0.3326385562499965,36.333297
0,note_on,38,D2,0.5039370078740157,0.3326385562500036,36.66663
0,note_on,46,A#2,0.5039370078740157,0.3326385562499965,36.999963
0,note_on,36,C2,0.5039370078740157,0.16597205624999845,37.1666295
0,note_on,49,C#3,0.5039370078740157,0.3326385562500036,37.333296
0,note_on,36,C2,0.5039370078740157,0.3326385562500036,37.333296
0,note_on,46,A#2,0.5039370078740157,0.3326385562499965,37.666629
0,note_on,38,D2,0.5039370078740157,0.3326385562500036,37.999962
0,note_on,46,A#2,0.5039370078740157,0.3326385562499965,38.333295
0,note_on,36,C2,0.5039370078740157,0.3326385562500036,38.666627999999996
0,note_on,46,A#2,0.5039370078740157,0.3326385562500036,38.999961
0,note_on,38,D2,0.5039370078740157,0.3326385562499965,39.333294
0,note_on,46,A#2,0.5039370078740157,0.3326385562500036,39.666627
0,note_on,36,C2,0.5039370078740157,0.3326385562499965,39.99996
0,note_on,46,A#2,0.5039370078740157,0.3326385562500036,40.333293
0,note_on,38,D2,0.5039370078740157,0.3326385562499965,40.666626
0,note_on,46,A#2,0.5039370078740157,0.3326385562500036,40.999959
0,note_on,36,C2,0.5039370078740157,0.3326385562499965,41.333292
0,note_on,46,A#2,0.5039370078740157,0.3326385562500036,41.666624999999996
0,note_on,38,D2,0.5039370078740157,0.3326385562499965,41.999958
0,note_on,46,A#2,0.5039370078740157,0.3326385562500036,42.333290999999996
0,note_on,36,C2,0.5039370078740157,0.16597205624999845,42.4999575
0,note_on,49,C#3,0.5039370078740157,0.3326385562500036,42.666624
0,note_on,36,C2,0.5039370078740157,0.3326385562500036,42.666624
0,note_on,46,A#2,0.5039370078740157,0.3326385562499965,42.999957
0,note_on,38,D2,0.5039370078740157,0.3326385562500036,43.33329
0,note_on,46,A#2,0.5039370078740157,0.3326385562499965,43.666623
0,note_on,36,C2,0.5039370078740157,0.3326385562500036,43.999956
0,note_on,46,A#2,0.5039370078740157,0.3326385562499965,44.333289
0,note_on,38,D2,0.5039370078740157,0.3326385562500036,44.666622
0,note_on,46,A#2,0.5039370078740157,0.3326385562499965,44.999955
0,note_on,36,C2,0.5039370078740157,0.3326385562500036,45.333287999999996
0,note_on,46,A#2,0.5039370078740157,0.3326385562500036,45.666621
0,note_on,38,D2,0.5039370078740157,0.3326385562500036,45.999953999999995
0,note_on,46,A#2,0.5039370078740157,0.3326385562500036,46.333287
0,note_on,36,C2,0.5039370078740157,0.3326385562499965,46.66662
0,note_on,46,A#2,0.5039370078740157,0.3326385562500036,46.999953
0,note_on,38,D2,0.5039370078740157,0.3326385562499965,47.333286
0,note_on,46,A#2,0.5039370078740157,0.3326385562500036,47.666619
0,note_on,36,C2,0.5039370078740157,0.16597205625000555,47.833285499999995
0,note_on,49,C#3,0.5039370078740157,0.3326385562499965,47.999952
0,note_on,36,C2,0.5039370078740157,0.3326385562499965,47.999952
0,note_on,46,A#2,0.5039370078740157,0.3326385562500036,48.333285
0,note_on,38,D2,0.5039370078740157,0.3326385562499965,48.666618
0,note_on,46,A#2,0.5039370078740157,0.3326385562500036,48.999950999999996
0,note_on,36,C2,0.5039370078740157,0.3326385562500036,49.333284
0,note_on,46,A#2,0.5039370078740157,0.3326385562500036,49.666616999999995
0,note_on,38,D2,0.5039370078740157,0.3326385562500036,49.99995
0,note_on,46,A#2,0.5039370078740157,0.3326385562499965,50.333283
0,note_on,36,C2,0.5039370078740157,0.3326385562500036,50.666616
0,note_on,46,A#2,0.5039370078740157,0.3326385562499965,50.999949
0,note_on,38,D2,0.5039370078740157,0.3326385562500036,51.333282
0,note_on,46,A#2,0.5039370078740157,0.3326385562499965,51.666615
0,note_on,36,C2,0.5039370078740157,0.3326385562500036,51.999947999999996
0,note_on,46,A#2,0.5039370078740157,0.3326385562499965,52.333281
0,note_on,38,D2,0.5039370078740157,0.3326385562500036,52.666613999999996
0,note_on,46,A#2,0.5039370078740157,0.16597205624999845,52.999947
0,note_on,41,F2,0.5039370078740157,0.08263880625000297,53.1666135
0,note_on,41,F2,0.5039370078740157,0.07222215000000176,53.24994675
2,note_on,72,C5,0.5039370078740157,0.16597205625,0
2,note_on,72,C5,0.5039370078740157,0.16597205624999994,0.333333
2,note_on,72,C5,0.5039370078740157,0.16597205625,0.666666
2,note_on,72,C5,0.5039370078740157,0.08263880624999997,0.999999
2,note_on,72,C5,0.5039370078740157,0.08263880625000009,1.1666655
2,note_on,71,B4,0.5039370078740157,0.16597205625,1.333332
2,note_on,71,B4,0.5039370078740157,0.16597205625,1.666665
2,note_on,71,B4,0.5039370078740157,0.16597205625,1.999998
2,note_on,72,C5,0.5039370078740157,0.16597205625000022,2.333331
2,note_on,74,D5,0.5039370078740157,0.16597205625000022,2.666664
2,note_on,74,D5,0.5039370078740157,0.16597205624999978,2.999997
2,note_on,74,D5,0.5039370078740157,0.16597205624999978,3.33333
2,note_on,74,D5,0.5039370078740157,0.08263880625000031,3.666663
2,note_on,71,B4,0.5039370078740157,0.08263880624999986,3.8333295
2,note_on,72,C5,0.5039370078740157,0.16597205624999978,3.999996
2,note_on,72,C5,0.5039370078740157,0.16597205625000022,4.333329
2,note_on,72,C5,0.5039370078740157,0.16597205625000022,4.666662
2,note_on,72,C5,0.5039370078740157,0.16597205624999933,4.999995
2,note_on,72,C5,0.5039370078740157,0.16597205624999933,5.333328
2,note_on,72,C5,0.5039370078740157,0.16597205624999933,5.6666609999999995
2,note_on,72,C5,0.5039370078740157,0.16597205624999933,5.999994
2,note_on,72,C5,0.5039370078740157,0.08263880624999942,6.333327
2,note_on,72,C5,0.5039370078740157,0.08263880624999942,6.4999934999999995
2,note_on,71,B4,0.5039370078740157,0.16597205624999933,6.66666
2,note_on,71,B4,0.5039370078740157,0.16597205624999933,6.999993
2,note_on,71,B4,0.5039370078740157,0.16597205624999933,7.333326
2,note_on,72,C5,0.5039370078740157,0.16597205624999933,7.666659
2,note_on,74,D5,0.5039370078740157,0.16597205624999933,7.999992
2,note_on,74,D5,0.5039370078740157,0.16597205624999845,8.333325
2,note_on,74,D5,0.5039370078740157,0.16597205624999845,8.666658
2,note_on,74,D5,0.5039370078740157,0.08263880624999942,8.999991
2,note_on,71,B4,0.5039370078740157,0.08263880624999942,9.1666575
2,note_on,72,C5,0.5039370078740157,0.16597205625000022,9.333324
2,note_on,72,C5,0.5039370078740157,0.16597205625000022,9.666656999999999
2,note_on,72,C5,0.5039370078740157,0.16597205624999845,9.99999
2,note_on,72,C5,0.5039370078740157,0.16597205624999845,10.333323
2,note_on,72,C5,0.5039370078740157,0.16597205625000022,10.666656
2,note_on,72,C5,0.5039370078740157,0.16597205625000022,10.999989
2,note_on,72,C5,0.5039370078740157,0.165972056250002,11.333321999999999
2,note_on,72,C5,0.5039370078740157,0.08263880624999942,11.666655
2,note_on,72,C5,0.5039370078740157,0.08263880624999942,11.8333215
2,note_on,71,B4,0.5039370078740157,0.16597205625000022,11.999988
2,note_on,71,B4,0.5039370078740157,0.16597205625000022,12.333321
2,note_on,71,B4,0.5039370078740157,0.16597205625000022,12.666654
2,note_on,72,C5,0.5039370078740157,0.165972056250002,12.999986999999999
2,note_on,74,D5,0.5039370078740157,0.16597205625000022,13.33332
2,note_on,74,D5,0.5039370078740157,0.16597205625000022,13.666653
2,note_on,74,D5,0.5039370078740157,0.16597205625000022,13.999986
2,note_on,74,D5,0.5039370078740157,0.0826388062500012,14.333319
2,note_on,71,B4,0.5039370078740157,0.0826388062500012,14.4999855
2,note_on,72,C5,0.5039370078740157,0.16597205625000022,14.666652
2,note_on,72,C5,0.5039370078740157,0.165972056250002,14.999984999999999
2,note_on,72,C5,0.5039370078740157,0.16597205625000022,15.333318
2,note_on,72,C5,0.5039370078740157,0.16597205625000022,15.666651
2,note_on,72,C5,0.5039370078740157,0.16597205625000022,15.999984
2,note_on,72,C5,0.5039370078740157,0.16597205624999845,16.333317
2,note_on,72,C5,0.5039370078740157,0.16597205624999845,16.66665
2,note_on,72,C5,0.5039370078740157,0.08263880624999942,16.999983
2,note_on,72,C5,0.5039370078740157,0.08263880625000297,17.1666495
2,note_on,71,B4,0.5039370078740157,0.16597205624999845,17.333316
2,note_on,71,B4,0.5039370078740157,0.165972056250002,17.666649
2,note_on,71,B4,0.5039370078740157,0.165972056250002,17.999982
2,note_on,72,C5,0.5039370078740157,0.165972056250002,18.333315
2,note_on,74,D5,0.5039370078740157,0.165972056250002,18.666648
2,note_on,74,D5,0.5039370078740157,0.165972056250002,18.999981
2,note_on,74,D5,0.5039370078740157,0.165972056250002,19.333313999999998
2,note_on,74,D5,0.5039370078740157,0.08263880624999942,19.666647
2,note_on,71,B4,0.5039370078740157,0.08263880624999942,19.8333135
2,note_on,72,C5,0.5039370078740157,0.16597205624999845,19.99998
2,note_on,72,C5,0.5039370078740157,0.16597205624999845,20.333313
2,note_on,72,C5,0.5039370078740157,0.16597205624999845,20.666646
2,note_on,72,C5,0.5039370078740157,0.165972056250002,20.999979
2,note_on,72,C5,0.5039370078740157,0.165972056250002,21.333312
2,note_on,72,C5,0.5039370078740157,0.165972056250002,21.666645
2,note_on,72,C5,0.5039370078740157,0.165972056250002,21.999978
2,note_on,72,C5,0.5039370078740157,0.08263880625000297,22.333311
2,note_on,72,C5,0.5039370078740157,0.08263880624999942,22.4999775
2,note_on,71,B4,0.5039370078740157,0.165972056250002,22.666643999999998
2,note_on,71,B4,0.5039370078740157,0.165972056250002,22.999976999999998
2,note_on,71,B4,0.5039370078740157,0.16597205624999845,23.33331
2,note_on,72,C5,0.5039370078740157,0.16597205624999845,23.666643
2,note_on,74,D5,0.5039370078740157,0.16597205624999845,23.999976
2,note_on,74,D5,0.5039370078740157,0.16597205624999845,24.333309
2,note_on,74,D5,0.5039370078740157,0.165972056250002,24.666642
2,note_on,74,D5,0.5039370078740157,0.08263880624999942,24.999975
2,note_on,71,B4,0.5039370078740157,0.08263880624999942,25.1666415
2,note_on,72,C5,0.5039370078740157,0.165972056250002,25.333308
2,note_on,72,C5,0.5039370078740157,0.165972056250002,25.666641
2,note_on,72,C5,0.5039370078740157,0.165972056250002,25.999973999999998
2,note_on,72,C5,0.5039370078740157,0.165972056250002,26.333306999999998
2,note_on,72,C5,0.5039370078740157,0.16597205624999845,26.66664
2,note_on,72,C5,0.5039370078740157,0.16597205624999845,26.999973
2,note_on,72,C5,0.5039370078740157,0.16597205624999845,27.333306
2,note_on,72,C5,0.5039370078740157,0.08263880624999942,27.666639
2,note_on,72,C5,0.5039370078740157,0.08263880625000297,27.833305499999998
2,note_on,71,B4,0.5039370078740157,0.16597205624999845,27.999972
2,note_on,71,B4,0.5039370078740157,0.165972056250002,28.333305
2,note_on,71,B4,0.5039370078740157,0.165972056250002,28.666638
2,note_on,72,C5,0.5039370078740157,0.165972056250002,28.999971
2,note_on,74,D5,0.5039370078740157,0.165972056250002,29.333304
2,note_on,74,D5,0.5039370078740157,0.165972056250002,29.666636999999998
2,note_on,74,D5,0.5039370078740157,0.165972056250002,29.999969999999998
2,note_on,74,D5,0.5039370078740157,0.08263880624999942,30.333303
2,note_on,71,B4,0.5039370078740157,0.08263880624999942,30.4999695
2,note_on,72,C5,0.5039370078740157,0.16597205624999845,30.666636
2,note_on,72,C5,0.5039370078740157,0.16597205624999845,30.999969
2,note_on,72,C5,0.5039370078740157,0.16597205624999845,31.333302
2,note_on,72,C5,0.5039370078740157,0.165972056250002,31.666635
2,note_on,72,C5,0.5039370078740157,0.165972056250002,31.999968
2,note_on,72,C5,0.5039370078740157,0.16597205624999845,32.333301
2,note_on,72,C5,0.5039370078740157,0.16597205624999845,32.666634
2,note_on,72,C5,0.5039370078740157,0.16597205624999845,32.999967
2,note_on,71,B4,0.5039370078740157,0.16597205624999845,33.3333
2,note_on,71,B4,0.5039370078740157,0.16597205625000555,33.666633
2,note_on,71,B4,0.5039370078740157,0.16597205624999845,33.999966
2,note_on,71,B4,0.5039370078740157,0.16597205625000555,34.333299
2,note_on,71,B4,0.5039370078740157,0.16597205624999845,34.666632
2,note_on,71,B4,0.5039370078740157,0.16597205625000555,34.999964999999996
2,note_on,71,B4,0.5039370078740157,0.16597205624999845,35.333298
2,note_on,71,B4,0.5039370078740157,0.16597205624999845,35.666631
2,note_on,69,A4,0.5039370078740157,0.16597205624999845,35.999964
2,note_on,69,A4,0.5039370078740157,0.16597205624999845,36.333297
2,note_on,69,A4,0.5039370078740157,0.16597205624999845,36.66663
2,note_on,69,A4,0.5039370078740157,0.16597205624999845,36.999963
2,note_on,72,C5,0.5039370078740157,0.16597205625000555,37.333296
2,note_on,72,C5,0.5039370078740157,0.16597205624999845,37.666629
2,note_on,72,C5,0.5039370078740157,0.16597205625000555,37.999962
2,note_on,72,C5,0.5039370078740157,0.16597205624999845,38.333295
2,note_on,71,B4,0.5039370078740157,0.16597205625000555,38.666627999999996
2,note_on,71,B4,0.5039370078740157,0.16597205624999845,38.999961
2,note_on,71,B4,0.5039370078740157,0.16597205624999845,39.333294
2,note_on,71,B4,0.5039370078740157,0.16597205624999845,39.666627
2,note_on,71,B4,0.5039370078740157,0.16597205624999845,39.99996
2,note_on,71,B4,0.5039370078740157,0.16597205624999845,40.333293
2,note_on,71,B4,0.5039370078740157,0.16597205624999845,40.666626
2,note_on,71,B4,0.5039370078740157,0.16597205625000555,40.999959
2,note_on,69,A4,0.5039370078740157,0.16597205624999845,41.333292
2,note_on,69,A4,0.5039370078740157,0.16597205625000555,41.666624999999996
2,note_on,69,A4,0.5039370078740157,0.16597205624999845,41.999958
2,note_on,69,A4,0.5039370078740157,0.16597205625000555,42.333290999999996
2,note_on,72,C5,0.5039370078740157,0.16597205624999845,42.666624
2,note_on,72,C5,0.5039370078740157,0.16597205624999845,42.999957
2,note_on,72,C5,0.5039370078740157,0.16597205624999845,43.33329
2,note_on,72,C5,0.5039370078740157,0.16597205624999845,43.666623
2,note_on,71,B4,0.5039370078740157,0.16597205624999845,43.999956
2,note_on,71,B4,0.5039370078740157,0.16597205624999845,44.333289
2,note_on,71,B4,0.5039370078740157,0.16597205625000555,44.666622
2,note_on,71,B4,0.5039370078740157,0.16597205624999845,44.999955
2,note_on,71,B4,0.5039370078740157,0.16597205625000555,45.333287999999996
2,note_on,71,B4,0.5039370078740157,0.16597205624999845,45.666621
2,note_on,71,B4,0.5039370078740157,0.16597205625000555,45.999953999999995
2,note_on,71,B4,0.5039370078740157,0.16597205624999845,46.333287
2,note_on,69,A4,0.5039370078740157,0.16597205624999845,46.66662
2,note_on,69,A4,0.5039370078740157,0.16597205624999845,46.999953
2,note_on,69,A4,0.5039370078740157,0.16597205624999845,47.333286
2,note_on,69,A4,0.5039370078740157,0.16597205625000555,47.666619
2,note_on,72,C5,0.5039370078740157,0.16597205624999845,47.999952
2,note_on,72,C5,0.5039370078740157,0.16597205625000555,48.333285
2,note_on,72,C5,0.5039370078740157,0.16597205624999845,48.666618
2,note_on,72,C5,0.5039370078740157,0.16597205625000555,48.999950999999996
2,note_on,71,B4,0.5039370078740157,0.16597205624999845,49.333284
2,note_on,71,B4,0.5039370078740157,0.16597205625000555,49.666616999999995
2,note_on,71,B4,0.5039370078740157,0.16597205624999845,49.99995
2,note_on,71,B4,0.5039370078740157,0.16597205624999845,50.333283
2,note_on,71,B4,0.5039370078740157,0.16597205624999845,50.666616
2,note_on,71,B4,0.5039370078740157,0.16597205624999845,50.999949
2,note_on,71,B4,0.5039370078740157,0.16597205625000555,51.333282
2,note_on,71,B4,0.5039370078740157,0.16597205624999845,51.666615
2,note_on,71,B4,0.5039370078740157,0.16597205625000555,51.999947999999996
2,note_on,71,B4,0.5039370078740157,0.16597205624999845,52.333281
2,note_on,71,B4,0.5039370078740157,0.16597205625000555,52.666613999999996
2,note_on,71,B4,0.5039370078740157,0.16041650624999448,52.999947
4,note_on,69,A4,0.5039370078740157,0.16597205625,0
4,note_on,69,A4,0.5039370078740157,0.16597205624999994,0.333333
4,note_on,69,A4,0.5039370078740157,0.16597205625,0.666666
4,note_on,69,A4,0.5039370078740157,0.08263880624999997,0.999999
4,note_on,69,A4,0.5039370078740157,0.08263880625000009,1.1666655
4,note_on,67,G4,0.5039370078740157,0.16597205625,1.333332
4,note_on,67,G4,0.5039370078740157,0.16597205625,1.666665
4,note_on,67,G4,0.5039370078740157,0.16597205625,1.999998
4,note_on,67,G4,0.5039370078740157,0.16597205625000022,2.333331
4,note_on,67,G4,0.5039370078740157,0.16597205625000022,2.666664
4,note_on,67,G4,0.5039370078740157,0.16597205624999978,2.999997
4,note_on,67,G4,0.5039370078740157,0.16597205624999978,3.33333
4,note_on,67,G4,0.5039370078740157,0.08263880625000031,3.666663
4,note_on,67,G4,0.5039370078740157,0.08263880624999986,3.8333295
4,note_on,67,G4,0.5039370078740157,0.16597205624999978,3.999996
4,note_on,67,G4,0.5039370078740157,0.16597205625000022,4.333329
4,note_on,67,G4,0.5039370078740157,0.16597205625000022,4.666662
4,note_on,67,G4,0.5039370078740157,0.16597205624999933,4.999995
4,note_on,69,A4,0.5039370078740157,0.16597205624999933,5.333328
4,note_on,69,A4,0.5039370078740157,0.16597205624999933,5.6666609999999995
4,note_on,69,A4,0.5039370078740157,0.16597205624999933,5.999994
4,note_on,69,A4,0.5039370078740157,0.08263880624999942,6.333327
4,note_on,69,A4,0.5039370078740157,0.08263880624999942,6.4999934999999995
4,note_on,67,G4,0.5039370078740157,0.16597205624999933,6.66666
4,note_on,67,G4,0.5039370078740157,0.16597205624999933,6.999993
4,note_on,67,G4,0.5039370078740157,0.16597205624999933,7.333326
4,note_on,67,G4,0.5039370078740157,0.16597205624999933,7.666659
4,note_on,67,G4,0.5039370078740157,0.16597205624999933,7.999992
4,note_on,67,G4,0.5039370078740157,0.16597205624999845,8.333325
4,note_on,67,G4,0.5039370078740157,0.16597205624999845,8.666658
4,note_on,67,G4,0.5039370078740157,0.08263880624999942,8.999991
4,note_on,67,G4,0.5039370078740157,0.08263880624999942,9.1666575
4,note_on,67,G4,0.5039370078740157,0.16597205625000022,9.333324
4,note_on,67,G4,0.5039370078740157,0.16597205625000022,9.666656999999999
4,note_on,67,G4,0.5039370078740157,0.16597205624999845,9.99999
4,note_on,67,G4,0.5039370078740157,0.16597205624999845,10.333323
4,note_on,69,A4,0.5039370078740157,0.16597205625000022,10.666656
4,note_on,69,A4,0.5039370078740157,0.16597205625000022,10.999989
4,note_on,69,A4,0.5039370078740157,0.165972056250002,11.333321999999999
4,note_on,69,A4,0.5039370078740157,0.08263880624999942,11.666655
4,note_on,69,A4,0.5039370078740157,0.08263880624999942,11.8333215
4,note_on,67,G4,0.5039370078740157,0.16597205625000022,11.999988
4,note_on,67,G4,0.5039370078740157,0.16597205625000022,12.333321
4,note_on,67,G4,0.5039370078740157,0.16597205625000022,12.666654
4,note_on,67,G4,0.5039370078740157,0.165972056250002,12.999986999999999
4,note_on,67,G4,0.5039370078740157,0.16597205625000022,13.33332
4,note_on,67,G4,0.5039370078740157,0.16597205625000022,13.666653
4,note_on,67,G4,0.5039370078740157,0.16597205625000022,13.999986
4,note_on,67,G4,0.5039370078740157,0.0826388062500012,14.333319
4,note_on,67,G4,0.5039370078740157,0.0826388062500012,14.4999855
4,note_on,67,G4,0.5039370078740157,0.16597205625000022,14.666652
4,note_on,67,G4,0.5039370078740157,0.165972056250002,14.999984999999999
4,note_on,67,G4,0.5039370078740157,0.16597205625000022,15.333318
4,note_on,67,G4,0.5039370078740157,0.16597205625000022,15.666651
4,note_on,69,A4,0.5039370078740157,0.16597205625000022,15.999984
4,note_on,69,A4,0.5039370078740157,0.16597205624999845,16.333317
4,note_on,69,A4,0.5039370078740157,0.16597205624999845,16.66665
4,note_on,69,A4,0.5039370078740157,0.08263880624999942,16.999983
4,note_on,69,A4,0.5039370078740157,0.08263880625000297,17.1666495
4,note_on,67,G4,0.5039370078740157,0.16597205624999845,17.333316
4,note_on,67,G4,0.5039370078740157,0.165972056250002,17.666649
4,note_on,67,G4,0.5039370078740157,0.165972056250002,17.999982
4,note_on,67,G4,0.5039370078740157,0.165972056250002,18.333315
4,note_on,67,G4,0.5039370078740157,0.165972056250002,18.666648
4,note_on,67,G4,0.5039370078740157,0.165972056250002,18.999981
4,note_on,67,G4,0.5039370078740157,0.165972056250002,19.333313999999998
4,note_on,67,G4,0.5039370078740157,0.08263880624999942,19.666647
4,note_on,67,G4,0.5039370078740157,0.08263880624999942,19.8333135
4,note_on,67,G4,0.5039370078740157,0.16597205624999845,19.99998
4,note_on,67,G4,0.5039370078740157,0.16597205624999845,20.333313
4,note_on,67,G4,0.5039370078740157,0.16597205624999845,20.666646
4,note_on,67,G4,0.5039370078740157,0.165972056250002,20.999979
4,note_on,69,A4,0.5039370078740157,0.165972056250002,21.333312
4,note_on,69,A4,0.5039370078740157,0.165972056250002,21.666645
4,note_on,69,A4,0.5039370078740157,0.165972056250002,21.999978
4,note_on,69,A4,0.5039370078740157,0.08263880625000297,22.333311
4,note_on,69,A4,0.5039370078740157,0.08263880624999942,22.4999775
4,note_on,67,G4,0.5039370078740157,0.165972056250002,22.666643999999998
4,note_on,67,G4,0.5039370078740157,0.165972056250002,22.999976999999998
4,note_on,67,G4,0.5039370078740157,0.16597205624999845,23.33331
4,note_on,67,G4,0.5039370078740157,0.16597205624999845,23.666643
4,note_on,67,G4,0.5039370078740157,0.16597205624999845,23.999976
4,note_on,67,G4,0.5039370078740157,0.16597205624999845,24.333309
4,note_on,67,G4,0.5039370078740157,0.165972056250002,24.666642
4,note_on,67,G4,0.5039370078740157,0.08263880624999942,24.999975
4,note_on,67,G4,0.5039370078740157,0.08263880624999942,25.1666415
4,note_on,67,G4,0.5039370078740157,0.165972056250002,25.333308
4,note_on,67,G4,0.5039370078740157,0.165972056250002,25.666641
4,note_on,67,G4,0.5039370078740157,0.165972056250002,25.999973999999998
4,note_on,67,G4,0.5039370078740157,0.165972056250002,26.333306999999998
4,note_on,69,A4,0.5039370078740157,0.16597205624999845,26.66664
4,note_on,69,A4,0.5039370078740157,0.16597205624999845,26.999973
4,note_on,69,A4,0.5039370078740157,0.16597205624999845,27.333306
4,note_on,69,A4,0.5039370078740157,0.08263880624999942,27.666639
4,note_on,69,A4,0.5039370078740157,0.08263880625000297,27.833305499999998
4,note_on,67,G4,0.5039370078740157,0.16597205624999845,27.999972
4,note_on,67,G4,0.5039370078740157,0.165972056250002,28.333305
4,note_on,67,G4,0.5039370078740157,0.165972056250002,28.666638
4,note_on,67,G4,0.5039370078740157,0.165972056250002,28.999971
4,note_on,67,G4,0.5039370078740157,0.165972056250002,29.333304
4,note_on,67,G4,0.5039370078740157,0.165972056250002,29.666636999999998
4,note_on,67,G4,0.5039370078740157,0.165972056250002,29.999969999999998
4,note_on,67,G4,0.5039370078740157,0.08263880624999942,30.333303
4,note_on,67,G4,0.5039370078740157,0.08263880624999942,30.4999695
4,note_on,67,G4,0.5039370078740157,0.16597205624999845,30.666636
4,note_on,67,G4,0.5039370078740157,0.16597205624999845,30.999969
4,note_on,67,G4,0.5039370078740157,0.16597205624999845,31.333302
4,note_on,67,G4,0.5039370078740157,0.165972056250002,31.666635
4,note_on,69,A4,0.5039370078740157,0.165972056250002,31.999968
4,note_on,69,A4,0.5039370078740157,0.16597205624999845,32.333301
4,note_on,69,A4,0.5039370078740157,0.16597205624999845,32.666634
4,note_on,69,A4,0.5039370078740157,0.16597205624999845,32.999967
4,note_on,67,G4,0.5039370078740157,0.16597205624999845,33.3333
4,note_on,67,G4,0.5039370078740157,0.16597205625000555,33.666633
4,note_on,67,G4,0.5039370078740157,0.16597205624999845,33.999966
4,note_on,67,G4,0.5039370078740157,0.16597205625000555,34.333299
4,note_on,67,G4,0.5039370078740157,0.16597205624999845,34.666632
4,note_on,67,G4,0.5039370078740157,0.16597205625000555,34.999964999999996
4,note_on,67,G4,0.5039370078740157,0.16597205624999845,35.333298
4,note_on,67,G4,0.5039370078740157,0.16597205624999845,35.666631
4,note_on,65,F4,0.5039370078740157,0.16597205624999845,35.999964
4,note_on,65,F4,0.5039370078740157,0.16597205624999845,36.333297
4,note_on,65,F4,0.5039370078740157,0.16597205624999845,36.66663
4,note_on,65,F4,0.5039370078740157,0.16597205624999845,36.999963
4,note_on,69,A4,0.5039370078740157,0.16597205625000555,37.333296
4,note_on,69,A4,0.5039370078740157,0.16597205624999845,37.666629
4,note_on,69,A4,0.5039370078740157,0.16597205625000555,37.999962
4,note_on,69,A4,0.5039370078740157,0.16597205624999845,38.333295
4,note_on,67,G4,0.5039370078740157,0.16597205625000555,38.666627999999996
4,note_on,67,G4,0.5039370078740157,0.16597205624999845,38.999961
4,note_on,67,G4,0.5039370078740157,0.16597205624999845,39.333294
4,note_on,67,G4,0.5039370078740157,0.16597205624999845,39.666627
4,note_on,67,G4,0.5039370078740157,0.16597205624999845,39.99996
4,note_on,67,G4,0.5039370078740157,0.16597205624999845,40.333293
4,note_on,67,G4,0.5039370078740157,0.16597205624999845,40.666626
4,note_on,67,G4,0.5039370078740157,0.16597205625000555,40.999959
4,note_on,65,F4,0.5039370078740157,0.16597205624999845,41.333292
4,note_on,65,F4,0.5039370078740157,0.16597205625000555,41.666624999999996
4,note_on,65,F4,0.5039370078740157,0.16597205624999845,41.999958
4,note_on,65,F4,0.5039370078740157,0.16597205625000555,42.333290999999996
4,note_on,69,A4,0.5039370078740157,0.16597205624999845,42.666624
4,note_on,69,A4,0.5039370078740157,0.16597205624999845,42.999957
4,note_on,69,A4,0.5039370078740157,0.16597205624999845,43.33329
4,note_on,69,A4,0.5039370078740157,0.16597205624999845,43.666623
4,note_on,67,G4,0.5039370078740157,0.16597205624999845,43.999956
4,note_on,67,G4,0.5039370078740157,0.16597205624999845,44.333289
4,note_on,67,G4,0.5039370078740157,0.16597205625000555,44.666622
4,note_on,67,G4,0.5039370078740157,0.16597205624999845,44.999955
4,note_on,67,G4,0.5039370078740157,0.16597205625000555,45.333287999999996
4,note_on,67,G4,0.5039370078740157,0.16597205624999845,45.666621
4,note_on,67,G4,0.5039370078740157,0.16597205625000555,45.999953999999995
4,note_on,67,G4,0.5039370078740157,0.16597205624999845,46.333287
4,note_on,65,F4,0.5039370078740157,0.16597205624999845,46.66662
4,note_on,65,F4,0.5039370078740157,0.16597205624999845,46.999953
4,note_on,65,F4,0.5039370078740157,0.16597205624999845,47.333286
4,note_on,65,F4,0.5039370078740157,0.16597205625000555,47.666619
4,note_on,69,A4,0.5039370078740157,0.16597205624999845,47.999952
4,note_on,69,A4,0.5039370078740157,0.16597205625000555,48.333285
4,note_on,69,A4,0.5039370078740157,0.16597205624999845,48.666618
4,note_on,69,A4,0.5039370078740157,0.16597205625000555,48.999950999999996
4,note_on,67,G4,0.5039370078740157,0.16597205624999845,49.333284
4,note_on,67,G4,0.5039370078740157,0.16597205625000555,49.666616999999995
4,note_on,67,G4,0.5039370078740157,0.16597205624999845,49.99995
4,note_on,67,G4,0.5039370078740157,0.16597205624999845,50.333283
4,note_on,67,G4,0.5039370078740157,0.16597205624999845,50.666616
4,note_on,67,G4,0.5039370078740157,0.16597205624999845,50.999949
4,note_on,67,G4,0.5039370078740157,0.16597205625000555,51.333282
4,note_on,67,G4,0.5039370078740157,0.16597205624999845,51.666615
4,note_on,67,G4,0.5039370078740157,0.16597205625000555,51.999947999999996
4,note_on,67,G4,0.5039370078740157,0.16597205624999845,52.333281
4,note_on,67,G4,0.5039370078740157,0.16597205625000555,52.666613999999996
4,note_on,67,G4,0.5039370078740157,0.16041650624999448,52.999947
6,note_on,64,E4,0.5039370078740157,0.16597205625,0
6,note_on,64,E4,0.5039370078740157,0.16597205624999994,0.333333
6,note_on,64,E4,0.5039370078740157,0.16597205625,0.666666
6,note_on,64,E4,0.5039370078740157,0.08263880624999997,0.999999
6,note_on,64,E4,0.5039370078740157,0.08263880625000009,1.1666655
6,note_on,62,D4,0.5039370078740157,0.16597205625,1.333332
6,note_on,62,D4,0.5039370078740157,0.16597205625,1.666665
6,note_on,62,D4,0.5039370078740157,0.16597205625,1.999998
6,note_on,62,D4,0.5039370078740157,0.16597205625000022,2.333331
6,note_on,64,E4,0.5039370078740157,0.16597205625000022,2.666664
6,note_on,64,E4,0.5039370078740157,0.16597205624999978,2.999997
6,note_on,64,E4,0.5039370078740157,0.16597205624999978,3.33333
6,note_on,64,E4,0.5039370078740157,0.08263880625000031,3.666663
6,note_on,64,E4,0.5039370078740157,0.08263880624999986,3.8333295
6,note_on,64,E4,0.5039370078740157,0.16597205624999978,3.999996
6,note_on,64,E4,0.5039370078740157,0.16597205625000022,4.333329
6,note_on,64,E4,0.5039370078740157,0.16597205625000022,4.666662
6,note_on,64,E4,0.5039370078740157,0.16597205624999933,4.999995
6,note_on,64,E4,0.5039370078740157,0.16597205624999933,5.333328
6,note_on,64,E4,0.5039370078740157,0.16597205624999933,5.6666609999999995
6,note_on,64,E4,0.5039370078740157,0.16597205624999933,5.999994
6,note_on,64,E4,0.5039370078740157,0.08263880624999942,6.333327
6,note_on,64,E4,0.5039370078740157,0.08263880624999942,6.4999934999999995
6,note_on,62,D4,0.5039370078740157,0.16597205624999933,6.66666
6,note_on,62,D4,0.5039370078740157,0.16597205624999933,6.999993
6,note_on,62,D4,0.5039370078740157,0.16597205624999933,7.333326
6,note_on,62,D4,0.5039370078740157,0.16597205624999933,7.666659
6,note_on,64,E4,0.5039370078740157,0.16597205624999933,7.999992
6,note_on,64,E4,0.5039370078740157,0.16597205624999845,8.333325
6,note_on,64,E4,0.5039370078740157,0.16597205624999845,8.666658
6,note_on,64,E4,0.5039370078740157,0.08263880624999942,8.999991
6,note_on,64,E4,0.5039370078740157,0.08263880624999942,9.1666575
6,note_on,64,E4,0.5039370078740157,0.16597205625000022,9.333324
6,note_on,64,E4,0.5039370078740157,0.16597205625000022,9.666656999999999
6,note_on,64,E4,0.5039370078740157,0.16597205624999845,9.99999
6,note_on,64,E4,0.5039370078740157,0.16597205624999845,10.333323
6,note_on,64,E4,0.5039370078740157,0.16597205625000022,10.666656
6,note_on,64,E4,0.5039370078740157,0.16597205625000022,10.999989
6,note_on,64,E4,0.5039370078740157,0.165972056250002,11.333321999999999
6,note_on,64,E4,0.5039370078740157,0.08263880624999942,11.666655
6,note_on,64,E4,0.5039370078740157,0.08263880624999942,11.8333215
6,note_on,62,D4,0.5039370078740157,0.16597205625000022,11.999988
6,note_on,62,D4,0.5039370078740157,0.16597205625000022,12.333321
6,note_on,62,D4,0.5039370078740157,0.16597205625000022,12.666654
6,note_on,62,D4,0.5039370078740157,0.165972056250002,12.999986999999999
6,note_on,64,E4,0.5039370078740157,0.16597205625000022,13.33332
6,note_on,64,E4,0.5039370078740157,0.16597205625000022,13.666653
6,note_on,64,E4,0.5039370078740157,0.16597205625000022,13.999986
6,note_on,64,E4,0.5039370078740157,0.0826388062500012,14.333319
6,note_on,64,E4,0.5039370078740157,0.0826388062500012,14.4999855
6,note_on,64,E4,0.5039370078740157,0.16597205625000022,14.666652
6,note_on,64,E4,0.5039370078740157,0.165972056250002,14.999984999999999
6,note_on,64,E4,0.5039370078740157,0.16597205625000022,15.333318
6,note_on,64,E4,0.5039370078740157,0.16597205625000022,15.666651
6,note_on,64,E4,0.5039370078740157,0.16597205625000022,15.999984
6,note_on,64,E4,0.5039370078740157,0.16597205624999845,16.333317
6,note_on,64,E4,0.5039370078740157,0.16597205624999845,16.66665
6,note_on,64,E4,0.5039370078740157,0.08263880624999942,16.999983
6,note_on,64,E4,0.5039370078740157,0.08263880625000297,17.1666495
6,note_on,62,D4,0.5039370078740157,0.16597205624999845,17.333316
6,note_on,62,D4,0.5039370078740157,0.165972056250002,17.666649
6,note_on,62,D4,0.5039370078740157,0.165972056250002,17.999982
6,note_on,62,D4,0.5039370078740157,0.165972056250002,18.333315
6,note_on,64,E4,0.5039370078740157,0.165972056250002,18.666648
6,note_on,64,E4,0.5039370078740157,0.165972056250002,18.999981
6,note_on,64,E4,0.5039370078740157,0.165972056250002,19.333313999999998
6,note_on,64,E4,0.5039370078740157,0.08263880624999942,19.666647
6,note_on,64,E4,0.5039370078740157,0.08263880624999942,19.8333135
6,note_on,64,E4,0.5039370078740157,0.16597205624999845,19.99998
6,note_on,64,E4,0.5039370078740157,0.16597205624999845,20.333313
6,note_on,64,E4,0.5039370078740157,0.16597205624999845,20.666646
6,note_on,64,E4,0.5039370078740157,0.165972056250002,20.999979
6,note_on,64,E4,0.5039370078740157,0.165972056250002,21.333312
6,note_on,64,E4,0.5039370078740157,0.165972056250002,21.666645
6,note_on,64,E4,0.5039370078740157,0.165972056250002,21.999978
6,note_on,64,E4,0.5039370078740157,0.08263880625000297,22.333311
6,note_on,64,E4,0.5039370078740157,0.08263880624999942,22.4999775
6,note_on,62,D4,0.5039370078740157,0.165972056250002,22.666643999999998
6,note_on,62,D4,0.5039370078740157,0.165972056250002,22.999976999999998
6,note_on,62,D4,0.5039370078740157,0.16597205624999845,23.33331
6,note_on,62,D4,0.5039370078740157,0.16597205624999845,23.666643
6,note_on,64,E4,0.5039370078740157,0.16597205624999845,23.999976
6,note_on,64,E4,0.5039370078740157,0.16597205624999845,24.333309
6,note_on,64,E4,0.5039370078740157,0.165972056250002,24.666642
6,note_on,64,E4,0.5039370078740157,0.08263880624999942,24.999975
6,note_on,64,E4,0.5039370078740157,0.08263880624999942,25.1666415
6,note_on,64,E4,0.5039370078740157,0.165972056250002,25.333308
6,note_on,64,E4,0.5039370078740157,0.165972056250002,25.666641
6,note_on,64,E4,0.5039370078740157,0.165972056250002,25.999973999999998
6,note_on,64,E4,0.5039370078740157,0.165972056250002,26.333306999999998
6,note_on,64,E4,0.5039370078740157,0.16597205624999845,26.66664
6,note_on,64,E4,0.5039370078740157,0.16597205624999845,26.999973
6,note_on,64,E4,0.5039370078740157,0.16597205624999845,27.333306
6,note_on,64,E4,0.5039370078740157,0.08263880624999942,27.666639
6,note_on,64,E4,0.5039370078740157,0.08263880625000297,27.833305499999998
6,note_on,62,D4,0.5039370078740157,0.16597205624999845,27.999972
6,note_on,62,D4,0.5039370078740157,0.165972056250002,28.333305
6,note_on,62,D4,0.5039370078740157,0.165972056250002,28.666638
6,note_on,62,D4,0.5039370078740157,0.165972056250002,28.999971
6,note_on,64,E4,0.5039370078740157,0.165972056250002,29.333304
6,note_on,64,E4,0.5039370078740157,0.165972056250002,29.666636999999998
6,note_on,64,E4,0.5039370078740157,0.165972056250002,29.999969999999998
6,note_on,64,E4,0.5039370078740157,0.08263880624999942,30.333303
6,note_on,64,E4,0.5039370078740157,0.08263880624999942,30.4999695
6,note_on,64,E4,0.5039370078740157,0.16597205624999845,30.666636
6,note_on,64,E4,0.5039370078740157,0.16597205624999845,30.999969
6,note_on,64,E4,0.5039370078740157,0.16597205624999845,31.333302
6,note_on,64,E4,0.5039370078740157,0.165972056250002,31.666635
6,note_on,65,F4,0.5039370078740157,0.165972056250002,31.999968
6,note_on,65,F4,0.5039370078740157,0.16597205624999845,32.333301
6,note_on,65,F4,0.5039370078740157,0.16597205624999845,32.666634
6,note_on,65,F4,0.5039370078740157,0.16597205624999845,32.999967
6,note_on,65,F4,0.5039370078740157,0.16597205624999845,33.3333
6,note_on,65,F4,0.5039370078740157,0.16597205625000555,33.666633
6,note_on,65,F4,0.5039370078740157,0.16597205624999845,33.999966
6,note_on,65,F4,0.5039370078740157,0.16597205625000555,34.333299
6,note_on,64,E4,0.5039370078740157,0.16597205624999845,34.666632
6,note_on,64,E4,0.5039370078740157,0.16597205625000555,34.999964999999996
6,note_on,64,E4,0.5039370078740157,0.16597205624999845,35.333298
6,note_on,64,E4,0.5039370078740157,0.16597205624999845,35.666631
6,note_on,64,E4,0.5039370078740157,0.16597205624999845,35.999964
6,note_on,64,E4,0.5039370078740157,0.16597205624999845,36.333297
6,note_on,64,E4,0.5039370078740157,0.16597205624999845,36.66663
6,note_on,64,E4,0.5039370078740157,0.16597205624999845,36.999963
6,note_on,65,F4,0.5039370078740157,0.16597205625000555,37.333296
6,note_on,65,F4,0.5039370078740157,0.16597205624999845,37.666629
6,note_on,65,F4,0.5039370078740157,0.16597205625000555,37.999962
6,note_on,65,F4,0.5039370078740157,0.16597205624999845,38.333295
6,note_on,65,F4,0.5039370078740157,0.16597205625000555,38.666627999999996
6,note_on,65,F4,0.5039370078740157,0.16597205624999845,38.999961
6,note_on,65,F4,0.5039370078740157,0.16597205624999845,39.333294
6,note_on,65,F4,0.5039370078740157,0.16597205624999845,39.666627
6,note_on,64,E4,0.5039370078740157,0.16597205624999845,39.99996
6,note_on,64,E4,0.5039370078740157,0.16597205624999845,40.333293
6,note_on,64,E4,0.5039370078740157,0.16597205624999845,40.666626
6,note_on,64,E4,0.5039370078740157,0.16597205625000555,40.999959
6,note_on,64,E4,0.5039370078740157,0.16597205624999845,41.333292
6,note_on,64,E4,0.5039370078740157,0.16597205625000555,41.666624999999996
6,note_on,64,E4,0.5039370078740157,0.16597205624999845,41.999958
6,note_on,64,E4,0.5039370078740157,0.16597205625000555,42.333290999999996
6,note_on,65,F4,0.5039370078740157,0.16597205624999845,42.666624
6,note_on,65,F4,0.5039370078740157,0.16597205624999845,42.999957
6,note_on,65,F4,0.5039370078740157,0.16597205624999845,43.33329
6,note_on,65,F4,0.5039370078740157,0.16597205624999845,43.666623
6,note_on,65,F4,0.5039370078740157,0.16597205624999845,43.999956
6,note_on,65,F4,0.5039370078740157,0.16597205624999845,44.333289
6,note_on,65,F4,0.5039370078740157,0.16597205625000555,44.666622
6,note_on,65,F4,0.5039370078740157,0.16597205624999845,44.999955
6,note_on,64,E4,0.5039370078740157,0.16597205625000555,45.333287999999996
6,note_on,64,E4,0.5039370078740157,0.16597205624999845,45.666621
6,note_on,64,E4,0.5039370078740157,0.16597205625000555,45.999953999999995
6,note_on,64,E4,0.5039370078740157,0.16597205624999845,46.333287
6,note_on,64,E4,0.5039370078740157,0.16597205624999845,46.66662
6,note_on,64,E4,0.5039370078740157,0.16597205624999845,46.999953
6,note_on,64,E4,0.5039370078740157,0.16597205624999845,47.333286
6,note_on,64,E4,0.5039370078740157,0.16597205625000555,47.666619
6,note_on,65,F4,0.5039370078740157,0.16597205624999845,47.999952
6,note_on,65,F4,0.5039370078740157,0.16597205625000555,48.333285
6,note_on,65,F4,0.5039370078740157,0.16597205624999845,48.666618
6,note_on,65,F4,0.5039370078740157,0.16597205625000555,48.999950999999996
6,note_on,65,F4,0.5039370078740157,0.16597205624999845,49.333284
6,note_on,65,F4,0.5039370078740157,0.16597205625000555,49.666616999999995
6,note_on,65,F4,0.5039370078740157,0.16597205624999845,49.99995
6,note_on,65,F4,0.5039370078740157,0.16597205624999845,50.333283
6,note_on,65,F4,0.5039370078740157,0.16597205624999845,50.666616
6,note_on,65,F4,0.5039370078740157,0.16597205624999845,50.999949
6,note_on,65,F4,0.5039370078740157,0.16597205625000555,51.333282
6,note_on,65,F4,0.5039370078740157,0.16597205624999845,51.666615
6,note_on,64,E4,0.5039370078740157,0.16597205625000555,51.999947999999996
6,note_on,64,E4,0.5039370078740157,0.16597205624999845,52.333281
6,note_on,64,E4,0.5039370078740157,0.16597205625000555,52.666613999999996
6,note_on,64,E4,0.5039370078740157,0.16041650624999448,52.999947
8,note_on,53,F3,0.5039370078740157,0.16597205625,0
8,note_on,53,F3,0.5039370078740157,0.16597205624999994,0.333333
8,note_on,53,F3,0.5039370078740157,0.16597205625,0.666666
8,note_on,53,F3,0.5039370078740157,0.08263880624999997,0.999999
8,note_on,53,F3,0.5039370078740157,0.08263880625000009,1.1666655
8,note_on,53,F3,0.5039370078740157,0.16597205625,1.333332
8,note_on,53,F3,0.5039370078740157,0.16597205625,1.666665
8,note_on,53,F3,0.5039370078740157,0.16597205625,1.999998
8,note_on,53,F3,0.5039370078740157,0.16597205625000022,2.333331
8,note_on,52,E3,0.5039370078740157,0.16597205625000022,2.666664
8,note_on,52,E3,0.5039370078740157,0.16597205624999978,2.999997
8,note_on,52,E3,0.5039370078740157,0.16597205624999978,3.33333
8,note_on,52,E3,0.5039370078740157,0.08263880625000031,3.666663
8,note_on,52,E3,0.5039370078740157,0.08263880624999986,3.8333295
8,note_on,57,A3,0.5039370078740157,0.16597205624999978,3.999996
8,note_on,57,A3,0.5039370078740157,0.16597205625000022,4.333329
8,note_on,57,A3,0.5039370078740157,0.16597205625000022,4.666662
8,note_on,57,A3,0.5039370078740157,0.16597205624999933,4.999995
8,note_on,53,F3,0.5039370078740157,0.16597205624999933,5.333328
8,note_on,53,F3,0.5039370078740157,0.16597205624999933,5.6666609999999995
8,note_on,53,F3,0.5039370078740157,0.16597205624999933,5.999994
8,note_on,53,F3,0.5039370078740157,0.08263880624999942,6.333327
8,note_on,53,F3,0.5039370078740157,0.08263880624999942,6.4999934999999995
8,note_on,53,F3,0.5039370078740157,0.16597205624999933,6.66666
8,note_on,53,F3,0.5039370078740157,0.16597205624999933,6.999993
8,note_on,53,F3,0.5039370078740157,0.16597205624999933,7.333326
8,note_on,53,F3,0.5039370078740157,0.16597205624999933,7.666659
8,note_on,52,E3,0.5039370078740157,0.16597205624999933,7.999992
8,note_on,52,E3,0.5039370078740157,0.16597205624999845,8.333325
8,note_on,52,E3,0.5039370078740157,0.16597205624999845,8.666658
8,note_on,52,E3,0.5039370078740157,0.08263880624999942,8.999991
8,note_on,52,E3,0.5039370078740157,0.08263880624999942,9.1666575
8,note_on,57,A3,0.5039370078740157,0.16597205625000022,9.333324
8,note_on,57,A3,0.5039370078740157,0.16597205625000022,9.666656999999999
8,note_on,57,A3,0.5039370078740157,0.16597205624999845,9.99999
8,note_on,57,A3,0.5039370078740157,0.16597205624999845,10.333323
8,note_on,53,F3,0.5039370078740157,0.16597205625000022,10.666656
8,note_on,53,F3,0.5039370078740157,0.16597205625000022,10.999989
8,note_on,53,F3,0.5039370078740157,0.165972056250002,11.333321999999999
8,note_on,53,F3,0.5039370078740157,0.08263880624999942,11.666655
8,note_on,53,F3,0.5039370078740157,0.08263880624999942,11.8333215
8,note_on,53,F3,0.5039370078740157,0.16597205625000022,11.999988
8,note_on,53,F3,0.5039370078740157,0.16597205625000022,12.333321
8,note_on,53,F3,0.5039370078740157,0.16597205625000022,12.666654
8,note_on,53,F3,0.5039370078740157,0.165972056250002,12.999986999999999
8,note_on,52,E3,0.5039370078740157,0.16597205625000022,13.33332
8,note_on,52,E3,0.5039370078740157,0.16597205625000022,13.666653
8,note_on,52,E3,0.5039370078740157,0.16597205625000022,13.999986
8,note_on,52,E3,0.5039370078740157,0.0826388062500012,14.333319
8,note_on,52,E3,0.5039370078740157,0.0826388062500012,14.4999855
8,note_on,57,A3,0.5039370078740157,0.16597205625000022,14.666652
8,note_on,57,A3,0.5039370078740157,0.165972056250002,14.999984999999999
8,note_on,57,A3,0.5039370078740157,0.16597205625000022,15.333318
8,note_on,57,A3,0.5039370078740157,0.16597205625000022,15.666651
8,note_on,53,F3,0.5039370078740157,0.16597205625000022,15.999984
8,note_on,53,F3,0.5039370078740157,0.16597205624999845,16.333317
8,note_on,53,F3,0.5039370078740157,0.16597205624999845,16.66665
8,note_on,53,F3,0.5039370078740157,0.08263880624999942,16.999983
8,note_on,53,F3,0.5039370078740157,0.08263880625000297,17.1666495
8,note_on,53,F3,0.5039370078740157,0.16597205624999845,17.333316
8,note_on,53,F3,0.5039370078740157,0.165972056250002,17.666649
8,note_on,53,F3,0.5039370078740157,0.165972056250002,17.999982
8,note_on,53,F3,0.5039370078740157,0.165972056250002,18.333315
8,note_on,52,E3,0.5039370078740157,0.165972056250002,18.666648
8,note_on,52,E3,0.5039370078740157,0.165972056250002,18.999981
8,note_on,52,E3,0.5039370078740157,0.165972056250002,19.333313999999998
8,note_on,52,E3,0.5039370078740157,0.08263880624999942,19.666647
8,note_on,52,E3,0.5039370078740157,0.08263880624999942,19.8333135
8,note_on,57,A3,0.5039370078740157,0.16597205624999845,19.99998
8,note_on,57,A3,0.5039370078740157,0.16597205624999845,20.333313
8,note_on,57,A3,0.5039370078740157,0.16597205624999845,20.666646
8,note_on,57,A3,0.5039370078740157,0.165972056250002,20.999979
8,note_on,53,F3,0.5039370078740157,0.165972056250002,21.333312
8,note_on,53,F3,0.5039370078740157,0.165972056250002,21.666645
8,note_on,53,F3,0.5039370078740157,0.165972056250002,21.999978
8,note_on,53,F3,0.5039370078740157,0.08263880625000297,22.333311
8,note_on,53,F3,0.5039370078740157,0.08263880624999942,22.4999775
8,note_on,53,F3,0.5039370078740157,0.165972056250002,22.666643999999998
8,note_on,53,F3,0.5039370078740157,0.165972056250002,22.999976999999998
8,note_on,53,F3,0.5039370078740157,0.16597205624999845,23.33331
8,note_on,53,F3,0.5039370078740157,0.16597205624999845,23.666643
8,note_on,52,E3,0.5039370078740157,0.16597205624999845,23.999976
8,note_on,52,E3,0.5039370078740157,0.16597205624999845,24.333309
8,note_on,52,E3,0.5039370078740157,0.165972056250002,24.666642
8,note_on,52,E3,0.5039370078740157,0.08263880624999942,24.999975
8,note_on,52,E3,0.5039370078740157,0.08263880624999942,25.1666415
8,note_on,57,A3,0.5039370078740157,0.165972056250002,25.333308
8,note_on,57,A3,0.5039370078740157,0.165972056250002,25.666641
8,note_on,57,A3,0.5039370078740157,0.165972056250002,25.999973999999998
8,note_on,57,A3,0.5039370078740157,0.165972056250002,26.333306999999998
8,note_on,53,F3,0.5039370078740157,0.16597205624999845,26.66664
8,note_on,53,F3,0.5039370078740157,0.16597205624999845,26.999973
8,note_on,53,F3,0.5039370078740157,0.16597205624999845,27.333306
8,note_on,53,F3,0.5039370078740157,0.08263880624999942,27.666639
8,note_on,53,F3,0.5039370078740157,0.08263880625000297,27.833305499999998
8,note_on,53,F3,0.5039370078740157,0.16597205624999845,27.999972
8,note_on,53,F3,0.5039370078740157,0.165972056250002,28.333305
8,note_on,53,F3,0.5039370078740157,0.165972056250002,28.666638
8,note_on,53,F3,0.5039370078740157,0.165972056250002,28.999971
8,note_on,52,E3,0.5039370078740157,0.165972056250002,29.333304
8,note_on,52,E3,0.5039370078740157,0.165972056250002,29.666636999999998
8,note_on,52,E3,0.5039370078740157,0.165972056250002,29.999969999999998
8,note_on,52,E3,0.5039370078740157,0.08263880624999942,30.333303
8,note_on,52,E3,0.5039370078740157,0.08263880624999942,30.4999695
8,note_on,57,A3,0.5039370078740157,0.16597205624999845,30.666636
8,note_on,57,A3,0.5039370078740157,0.16597205624999845,30.999969
8,note_on,57,A3,0.5039370078740157,0.16597205624999845,31.333302
8,note_on,57,A3,0.5039370078740157,0.165972056250002,31.666635
8,note_on,50,D3,0.5039370078740157,0.165972056250002,31.999968
8,note_on,50,D3,0.5039370078740157,0.16597205624999845,32.333301
8,note_on,50,D3,0.5039370078740157,0.16597205624999845,32.666634
8,note_on,50,D3,0.5039370078740157,0.16597205624999845,32.999967
8,note_on,55,G3,0.5039370078740157,0.16597205624999845,33.3333
8,note_on,55,G3,0.5039370078740157,0.16597205625000555,33.666633
8,note_on,55,G3,0.5039370078740157,0.16597205624999845,33.999966
8,note_on,55,G3,0.5039370078740157,0.16597205625000555,34.333299
8,note_on,48,C3,0.5039370078740157,0.16597205624999845,34.666632
8,note_on,48,C3,0.5039370078740157,0.16597205625000555,34.999964999999996
8,note_on,48,C3,0.5039370078740157,0.16597205624999845,35.333298
8,note_on,48,C3,0.5039370078740157,0.16597205624999845,35.666631
8,note_on,53,F3,0.5039370078740157,0.16597205624999845,35.999964
8,note_on,53,F3,0.5039370078740157,0.16597205624999845,36.333297
8,note_on,53,F3,0.5039370078740157,0.16597205624999845,36.66663
8,note_on,53,F3,0.5039370078740157,0.16597205624999845,36.999963
8,note_on,50,D3,0.5039370078740157,0.16597205625000555,37.333296
8,note_on,50,D3,0.5039370078740157,0.16597205624999845,37.666629
8,note_on,50,D3,0.5039370078740157,0.16597205625000555,37.999962
8,note_on,50,D3,0.5039370078740157,0.16597205624999845,38.333295
8,note_on,55,G3,0.5039370078740157,0.16597205625000555,38.666627999999996
8,note_on,55,G3,0.5039370078740157,0.16597205624999845,38.999961
8,note_on,55,G3,0.5039370078740157,0.16597205624999845,39.333294
8,note_on,55,G3,0.5039370078740157,0.16597205624999845,39.666627
8,note_on,48,C3,0.5039370078740157,0.16597205624999845,39.99996
8,note_on,48,C3,0.5039370078740157,0.16597205624999845,40.333293
8,note_on,48,C3,0.5039370078740157,0.16597205624999845,40.666626
8,note_on,48,C3,0.5039370078740157,0.16597205625000555,40.999959
8,note_on,53,F3,0.5039370078740157,0.16597205624999845,41.333292
8,note_on,53,F3,0.5039370078740157,0.16597205625000555,41.666624999999996
8,note_on,53,F3,0.5039370078740157,0.16597205624999845,41.999958
8,note_on,53,F3,0.5039370078740157,0.16597205625000555,42.333290999999996
8,note_on,50,D3,0.5039370078740157,0.16597205624999845,42.666624
8,note_on,50,D3,0.5039370078740157,0.16597205624999845,42.999957
8,note_on,50,D3,0.5039370078740157,0.16597205624999845,43.33329
8,note_on,50,D3,0.5039370078740157,0.16597205624999845,43.666623
8,note_on,55,G3,0.5039370078740157,0.16597205624999845,43.999956
8,note_on,55,G3,0.5039370078740157,0.16597205624999845,44.333289
8,note_on,55,G3,0.5039370078740157,0.16597205625000555,44.666622
8,note_on,55,G3,0.5039370078740157,0.16597205624999845,44.999955
8,note_on,48,C3,0.5039370078740157,0.16597205625000555,45.333287999999996
8,note_on,48,C3,0.5039370078740157,0.16597205624999845,45.666621
8,note_on,48,C3,0.5039370078740157,0.16597205625000555,45.999953999999995
8,note_on,48,C3,0.5039370078740157,0.16597205624999845,46.333287
8,note_on,53,F3,0.5039370078740157,0.16597205624999845,46.66662
8,note_on,53,F3,0.5039370078740157,0.16597205624999845,46.999953
8,note_on,53,F3,0.5039370078740157,0.16597205624999845,47.333286
8,note_on,53,F3,0.5039370078740157,0.16597205625000555,47.666619
8,note_on,50,D3,0.5039370078740157,0.16597205624999845,47.999952
8,note_on,50,D3,0.5039370078740157,0.16597205625000555,48.333285
8,note_on,50,D3,0.5039370078740157,0.16597205624999845,48.666618
8,note_on,50,D3,0.5039370078740157,0.16597205625000555,48.999950999999996
8,note_on,55,G3,0.5039370078740157,0.16597205624999845,49.333284
8,note_on,55,G3,0.5039370078740157,0.16597205625000555,49.666616999999995
8,note_on,55,G3,0.5039370078740157,0.16597205624999845,49.99995
8,note_on,55,G3,0.5039370078740157,0.16597205624999845,50.333283
8,note_on,48,C3,0.5039370078740157,0.16597205624999845,50.666616
8,note_on,48,C3,0.5039370078740157,0.16597205624999845,50.999949
8,note_on,48,C3,0.5039370078740157,0.16597205625000555,51.333282
8,note_on,48,C3,0.5039370078740157,0.16597205624999845,51.666615
8,note_on,48,C3,0.5039370078740157,0.16597205625000555,51.999947999999996
8,note_on,48,C3,0.5039370078740157,0.16597205624999845,52.333281
8,note_on,48,C3,0.5039370078740157,0.16597205625000555,52.666613999999996
8,note_on,48,C3,0.5039370078740157,0.16041650624999448,52.999947
10,note_on,76,E5,0.8818897637795275,0.1576387312499996,10.4999895
10,note_on,77,F5,0.8818897637795275,1.1076377812499985,10.666656
10,note_on,81,A5,0.8818897637795275,0.1576387312499996,11.8333215
10,note_on,83,B5,0.8818897637795275,1.1076377812499985,11.999988
10,note_on,79,G5,0.8818897637795275,0.15763873125000138,13.166653499999999
10,note_on,88,E6,0.8818897637795275,1.1076377812499985,13.33332
10,note_on,88,E6,0.8818897637795275,0.038888850000001085,14.4999855
10,note_on,87,D#6,0.8818897637795275,0.038888850000001085,14.541652124999999
10,note_on,86,D6,0.8818897637795275,0.03888884999999931,14.58331875
10,note_on,85,C#6,0.8818897637795275,0.03888884999999931,14.624985375
10,note_on,84,C6,0.8818897637795275,0.3159719062499988,14.666652
10,note_on,81,A5,0.8818897637795275,0.3159719062500006,14.999984999999999
10,note_on,83,B5,0.8818897637795275,0.3159719062499988,15.333318
10,note_on,84,C6,0.8818897637795275,0.3159719062499988,15.666651
10,note_on,81,A5,0.8818897637795275,0.3159719062500006,15.999984
10,note_on,77,F5,0.8818897637795275,0.3159719062499988,16.333317
10,note_on,79,G5,0.8818897637795275,0.47430508124999804,16.66665
10,note_on,81,A5,0.8818897637795275,0.15763873125000316,17.1666495
10,note_on,79,G5,0.8818897637795275,0.1576387312499996,17.333316
10,note_on,74,D5,0.8818897637795275,0.15763873125000316,17.499982499999998
10,note_on,71,B4,0.8818897637795275,0.3159719062499988,17.666649
10,note_on,76,E5,0.8818897637795275,0.3159719062499988,17.999982
10,note_on,81,A5,0.8818897637795275,0.3159719062499988,18.333315
10,note_on,79,G5,0.8818897637795275,0.79097143125,18.666648
10,note_on,81,A5,0.8818897637795275,0.1576387312499996,19.4999805
10,note_on,79,G5,0.8818897637795275,0.1576387312499996,19.666647
10,note_on,78,F#5,0.8818897637795275,0.1576387312499996,19.8333135
10,note_on,79,G5,0.8818897637795275,1.1076377812499985,19.99998
10,note_on,76,E5,0.8818897637795275,0.15763873125000316,21.166645499999998
10,note_on,77,F5,0.8818897637795275,1.107637781250002,21.333312
10,note_on,81,A5,0.8818897637795275,0.1576387312499996,22.4999775
10,note_on,83,B5,0.8818897637795275,1.107637781250002,22.666643999999998
10,note_on,79,G5,0.8818897637795275,0.1576387312499996,23.8333095
10,note_on,88,E6,0.8818897637795275,1.107637781250002,23.999976
10,note_on,88,E6,0.8818897637795275,0.038888849999995756,25.1666415
10,note_on,87,D#6,0.8818897637795275,0.03888884999999931,25.208308125
10,note_on,86,D6,0.8818897637795275,0.038888849999995756,25.24997475
10,note_on,85,C#6,0.8818897637795275,0.03888884999999931,25.291641374999998
10,note_on,84,C6,0.8818897637795275,0.3159719062500024,25.333308
10,note_on,81,A5,0.8818897637795275,0.3159719062500024,25.666641
10,note_on,83,B5,0.8818897637795275,0.3159719062500024,25.999973999999998
10,note_on,84,C6,0.8818897637795275,0.3159719062500024,26.333306999999998
10,note_on,81,A5,0.8818897637795275,0.3159719062499988,26.66664
10,note_on,77,F5,0.8818897637795275,0.3159719062499988,26.999973
10,note_on,79,G5,0.8818897637795275,0.47430508124999804,27.333306
10,note_on,81,A5,0.8818897637795275,0.1576387312499996,27.833305499999998
10,note_on,79,G5,0.8818897637795275,0.1576387312499996,27.999972
10,note_on,74,D5,0.8818897637795275,0.1576387312499996,28.166638499999998
10,note_on,71,B4,0.8818897637795275,0.3159719062500024,28.333305
10,note_on,76,E5,0.8818897637795275,0.3159719062500024,28.666638
10,note_on,81,A5,0.8818897637795275,0.3159719062500024,28.999971
10,note_on,79,G5,0.8818897637795275,0.79097143125,29.333304
10,note_on,81,A5,0.8818897637795275,0.1576387312499996,30.1666365
10,note_on,79,G5,0.8818897637795275,0.15763873124999606,30.333303
10,note_on,78,F#5,0.8818897637795275,0.1576387312499996,30.4999695
10,note_on,79,G5,0.8818897637795275,1.1076377812499985,30.666636
10,note_on,79,G5,0.8818897637795275,0.1576387312499996,31.833301499999997
10,note_on,77,F5,0.8818897637795275,0.7909714312500036,31.999968
10,note_on,77,F5,0.8818897637795275,0.15763873124999606,32.8333005
10,note_on,79,G5,0.8818897637795275,0.15763873125000316,32.999967
10,note_on,81,A5,0.8818897637795275,0.15763873125000316,33.166633499999996
10,note_on,83,B5,0.8818897637795275,0.6326382562499973,33.3333
10,note_on,86,D6,0.8818897637795275,0.6326382562499973,33.999966
10,note_on,84,C6,0.8818897637795275,0.79097143125,34.666632
10,note_on,86,D6,0.8818897637795275,0.15763873125000316,35.4999645
10,note_on,84,C6,0.8818897637795275,0.15763873124999606,35.666631
10,note_on,83,B5,0.8818897637795275,0.15763873124999606,35.8332975
10,note_on,81,A5,0.8818897637795275,0.79097143125,35.999964
10,note_on,83,B5,0.8818897637795275,0.15763873125000316,36.833296499999996
10,note_on,81,A5,0.8818897637795275,0.15763873124999606,36.999963
10,note_on,79,G5,0.8818897637795275,0.15763873124999606,37.1666295
10,note_on,77,F5,0.8818897637795275,0.79097143125,37.333296
10,note_on,77,F5,0.8818897637795275,0.15763873124999606,38.1666285
10,note_on,79,G5,0.8818897637795275,0.15763873124999606,38.333295
10,note_on,81,A5,0.8818897637795275,0.15763873125000316,38.4999615
10,note_on,83,B5,0.8818897637795275,0.6326382562500044,38.666627999999996
10,note_on,86,D6,0.8818897637795275,0.6326382562499973,39.333294
10,note_on,84,C6,0.8818897637795275,0.79097143125,39.99996
10,note_on,86,D6,0.8818897637795275,0.15763873124999606,40.8332925
10,note_on,84,C6,0.8818897637795275,0.15763873125000316,40.999959
10,note_on,83,B5,0.8818897637795275,0.15763873124999606,41.1666255
10,note_on,81,A5,0.8818897637795275,0.79097143125,41.333292
10,note_on,81,A5,0.8818897637795275,0.15763873125000316,42.1666245
10,note_on,83,B5,0.8818897637795275,0.15763873125000316,42.333290999999996
10,note_on,84,C6,0.8818897637795275,0.15763873124999606,42.4999575
10,note_on,86,D6,0.8818897637795275,0.6326382562500044,42.666624
10,note_on,81,A5,0.8818897637795275,0.6326382562500044,43.33329
10,note_on,83,B5,0.8818897637795275,0.6326382562500044,43.999956
10,note_on,74,D5,0.8818897637795275,0.6326382562500044,44.666622
10,note_on,76,E5,0.8818897637795275,0.79097143125,45.333287999999996
10,note_on,77,F5,0.8818897637795275,0.15763873124999606,46.1666205
10,note_on,79,G5,0.8818897637795275,0.15763873124999606,46.333287
10,note_on,80,G#5,0.8818897637795275,0.15763873125000316,46.4999535
10,note_on,81,A5,0.8818897637795275,0.6326382562499973,46.66662
10,note_on,77,F5,0.8818897637795275,0.6326382562499973,47.333286
10,note_on,74,D5,0.8818897637795275,0.6326382562499973,47.999952
10,note_on,84,C6,0.8818897637795275,0.6326382562500044,48.666618
10,note_on,83,B5,0.8818897637795275,0.79097143125,49.333284
10,note_on,83,B5,0.8818897637795275,0.15763873125000316,50.166616499999996
10,note_on,81,A5,0.8818897637795275,0.15763873124999606,50.333283
10,note_on,80,G#5,0.8818897637795275,0.15763873124999606,50.4999495
10,note_on,79,G5,0.8818897637795275,0.6326382562500044,50.666616
10,note_on,83,B5,0.8818897637795275,0.6326382562500044,51.333282
10,note_on,76,E5,0.8818897637795275,1.2555543000000071,51.999947999999996